<svg width="92" height="92" viewBox="0 0 92 92" fill="none" xmlns="http://www.w3.org/2000/svg">
<rect width="92" height="92" rx="7" fill="#272B2F"/>
<g clip-path="url(#clip0_3425_351)">
<path d="M61.4517 29.7864C59.5706 25.2135 55.0989 22 49.886 22H34.5222C27.6075 22 22 27.6588 22 34.6368V50.1412C22 54.9192 24.6264 59.0738 28.5002 61.2215C30.2857 62.2149 32.3382 62.778 34.5222 62.778H49.886C52.07 62.778 54.1265 62.2149 55.9119 61.2215C58.3909 59.846 60.3597 57.6501 61.4517 54.9916C62.0694 53.4995 62.4082 51.8626 62.4082 50.1412V34.6368C62.4082 32.9154 62.0694 31.2785 61.4517 29.7864Z" fill="url(#paint0_linear_3425_351)"/>
<path d="M50.5105 69.0194H39.5586V65.8502H50.5105C58.9835 65.8502 65.8783 58.8923 65.8783 50.3417V39.2896H69.0188V50.3417C69.0188 60.6418 60.7172 69.0194 50.5105 69.0194Z" fill="url(#paint1_linear_3425_351)"/>
<g clip-path="url(#clip1_3425_351)">
<path d="M45.8637 38.12C45.5049 37.6241 45.0249 37.2607 44.4238 37.0298C43.8227 36.799 43.1902 36.6836 42.5262 36.6836C42.1315 36.6836 41.7502 36.7263 41.3823 36.8118C41.0145 36.8973 40.6826 37.0341 40.3865 37.2222C40.0904 37.4103 39.8527 37.654 39.6732 37.9533C39.4938 38.2526 39.4041 38.6074 39.4041 39.0178C39.4041 39.6335 39.6284 40.1038 40.077 40.4287C40.5255 40.7536 41.0818 41.0358 41.7457 41.2752C42.4096 41.5146 43.1363 41.7455 43.9258 41.9678C44.7154 42.1901 45.4421 42.4979 46.106 42.8912C46.7699 43.2846 47.3261 43.8061 47.7747 44.456C48.2233 45.1058 48.4476 45.9694 48.4476 47.0468C48.4476 48.0215 48.2592 48.8723 47.8824 49.6034C47.5056 50.3302 46.9987 50.933 46.3617 51.4118C45.7247 51.8907 44.9845 52.2498 44.1412 52.4892C43.2978 52.7286 42.4096 52.8483 41.4721 52.8483C40.2878 52.8483 39.1439 52.6602 38.0493 52.284C36.9548 51.9078 36.0128 51.275 35.2188 50.3858L37.7757 48.0258C38.1884 48.6244 38.7312 49.0904 39.4041 49.4238C40.077 49.7573 40.7902 49.924 41.5438 49.924C41.9386 49.924 42.3334 49.8727 42.7281 49.7701C43.1229 49.6675 43.4817 49.5136 43.8047 49.3084C44.1277 49.1032 44.3879 48.8424 44.5853 48.526C44.7826 48.2097 44.8813 47.8463 44.8813 47.4358C44.8813 46.7689 44.657 46.2559 44.2085 45.8967C43.7599 45.5376 43.2036 45.2341 42.5397 44.9861C41.8758 44.7381 41.1491 44.503 40.3596 44.2807C39.5701 44.0584 38.8433 43.7548 38.1794 43.3701C37.5155 42.9853 36.9593 42.4723 36.5107 41.831C36.0621 41.1897 35.8378 40.3304 35.8378 39.2487C35.8378 38.3082 36.0397 37.4959 36.4434 36.8075C36.8471 36.1235 37.3765 35.5549 38.0314 35.1017C38.6863 34.6485 39.4355 34.3108 40.2788 34.0885C41.1222 33.8662 41.9835 33.755 42.8627 33.755C43.8675 33.755 44.841 33.9004 45.7875 34.1911C46.7295 34.4818 47.5773 34.9606 48.331 35.6276L45.8548 38.1158L45.8637 38.12Z" fill="white"/>
</g>
</g>
<defs>
<linearGradient id="paint0_linear_3425_351" x1="22" y1="42.389" x2="62.4082" y2="42.389" gradientUnits="userSpaceOnUse">
<stop stop-color="#A18CD1"/>
<stop offset="1" stop-color="#FBC2EB"/>
</linearGradient>
<linearGradient id="paint1_linear_3425_351" x1="39.5586" y1="54.1545" x2="69.0188" y2="54.1545" gradientUnits="userSpaceOnUse">
<stop stop-color="#A18CD1"/>
<stop offset="1" stop-color="#FBC2EB"/>
</linearGradient>
<clipPath id="clip0_3425_351">
<rect width="47.02" height="47.02" fill="white" transform="translate(22 22)"/>
</clipPath>
<clipPath id="clip1_3425_351">
<rect width="13.2244" height="19.1019" fill="white" transform="translate(35.2227 33.755)"/>
</clipPath>
</defs>
</svg>
