<svg width="92" height="92" viewBox="0 0 92 92" fill="none" xmlns="http://www.w3.org/2000/svg">
<rect width="92" height="92" rx="7" fill="#272B2F"/>
<g clip-path="url(#clip0_3425_337)">
<path d="M61.4517 29.7864C59.5706 25.2135 55.0989 22 49.886 22H34.5222C27.6075 22 22 27.6588 22 34.6368V50.1412C22 54.9192 24.6264 59.0739 28.5002 61.2215C30.2857 62.215 32.3382 62.778 34.5222 62.778H49.886C52.07 62.778 54.1265 62.215 55.9119 61.2215C58.3909 59.8461 60.3597 57.6501 61.4517 54.9916C62.0694 53.4995 62.4082 51.8626 62.4082 50.1412V34.6368C62.4082 32.9154 62.0694 31.2785 61.4517 29.7864Z" fill="url(#paint0_linear_3425_337)"/>
<g clip-path="url(#clip1_3425_337)">
<path d="M37.6535 50.2251C34.7722 50.2251 32.1385 49.1896 30.9679 46.646L32.7688 44.8227C33.5791 47.0287 35.8527 47.884 37.6985 47.884C39.2067 47.884 40.4222 47.3438 40.4222 45.9707C40.4222 44.5075 39.2067 44.1023 37.2483 43.6746L35.8301 43.3595C33.6917 42.9093 31.4181 41.9413 31.4181 39.0826C31.4181 36.2463 33.8718 34.7156 36.708 34.7156C39.4768 34.7156 41.6828 35.8636 42.7633 37.9345L40.8499 39.7579C40.017 37.8895 38.3963 37.0791 36.5505 37.0791C35.1098 37.0791 34.0743 37.7544 34.0743 38.9025C34.0743 40.2306 35.1098 40.7033 36.7531 41.1085L38.4413 41.5137C40.8499 42.0989 43.0109 43.0443 43.0109 45.9257C43.0109 48.6494 40.7149 50.2251 37.6535 50.2251ZM48.7081 50.2251C45.4441 50.2251 43.3957 47.9291 43.3957 44.53C43.3957 41.1085 45.4441 38.8124 48.7081 38.8124C51.4543 38.8124 53.1876 40.3656 53.7729 42.4366L51.4994 43.5621C51.2517 41.9864 50.4414 40.9284 48.7531 40.9284C47.0198 40.9284 45.9618 42.2115 45.9618 44.53C45.9618 46.8261 47.0198 48.1091 48.7531 48.1091C50.4639 48.1091 51.2517 47.0512 51.4994 45.4754L53.7729 46.601C53.1876 48.6719 51.4543 50.2251 48.7081 50.2251Z" fill="white"/>
</g>
<path d="M50.5105 69.0209H39.5586V65.8516H50.5105C58.9835 65.8516 65.8783 58.8937 65.8783 50.3432V39.291H69.0188V50.3432C69.0188 60.6432 60.7172 69.0209 50.5105 69.0209Z" fill="url(#paint1_linear_3425_337)"/>
</g>
<defs>
<linearGradient id="paint0_linear_3425_337" x1="22" y1="42.389" x2="62.4082" y2="42.389" gradientUnits="userSpaceOnUse">
<stop stop-color="#9244AA"/>
<stop offset="1" stop-color="#D740E8"/>
</linearGradient>
<linearGradient id="paint1_linear_3425_337" x1="39.5586" y1="54.1559" x2="69.0188" y2="54.1559" gradientUnits="userSpaceOnUse">
<stop stop-color="#9244AA"/>
<stop offset="1" stop-color="#D740E8"/>
</linearGradient>
<clipPath id="clip0_3425_337">
<rect width="47.02" height="47.02" fill="white" transform="translate(22 22)"/>
</clipPath>
<clipPath id="clip1_3425_337">
<rect width="24.9794" height="17.6325" fill="white" transform="translate(29.3477 34.2443)"/>
</clipPath>
</defs>
</svg>
