<svg width="291" height="58" viewBox="0 0 291 58" fill="none" xmlns="http://www.w3.org/2000/svg">
<g clip-path="url(#clip0_3355_911)">
<path d="M39.4517 7.78639C37.5706 3.2135 33.0989 0 27.886 0H12.5222C5.60749 0 0 5.65881 0 12.6368V28.1412C0 32.9192 2.62639 37.0738 6.50022 39.2215C8.28569 40.2149 10.3382 40.778 12.5222 40.778H27.886C30.07 40.778 32.1265 40.2149 33.9119 39.2215C36.3909 37.846 38.3597 35.6501 39.4517 32.9916C40.0694 31.4995 40.4082 29.8626 40.4082 28.1412V12.6368C40.4082 10.9154 40.0694 9.27852 39.4517 7.78639Z" fill="url(#paint0_linear_3355_911)"/>
<path d="M28.5105 47.0194H17.5586V43.8502H28.5105C36.9835 43.8502 43.8783 36.8923 43.8783 28.3417V17.2896H47.0188V28.3417C47.0188 38.6418 38.7172 47.0194 28.5105 47.0194Z" fill="url(#paint1_linear_3355_911)"/>
<g clip-path="url(#clip1_3355_911)">
<path d="M23.8637 16.12C23.5049 15.6241 23.0249 15.2607 22.4238 15.0299C21.8227 14.799 21.1902 14.6836 20.5262 14.6836C20.1315 14.6836 19.7502 14.7263 19.3823 14.8118C19.0145 14.8973 18.6826 15.0341 18.3865 15.2222C18.0904 15.4104 17.8527 15.654 17.6732 15.9533C17.4938 16.2526 17.4041 16.6074 17.4041 17.0179C17.4041 17.6335 17.6284 18.1038 18.077 18.4287C18.5255 18.7536 19.0818 19.0358 19.7457 19.2752C20.4096 19.5146 21.1363 19.7455 21.9258 19.9678C22.7154 20.1901 23.4421 20.4979 24.106 20.8912C24.7699 21.2846 25.3261 21.8061 25.7747 22.456C26.2233 23.1058 26.4476 23.9694 26.4476 25.0468C26.4476 26.0216 26.2592 26.8723 25.8824 27.6034C25.5056 28.3302 24.9987 28.933 24.3617 29.4118C23.7247 29.8907 22.9845 30.2498 22.1412 30.4892C21.2978 30.7286 20.4096 30.8483 19.4721 30.8483C18.2878 30.8483 17.1439 30.6602 16.0493 30.284C14.9548 29.9078 14.0128 29.275 13.2188 28.3858L15.7757 26.0258C16.1884 26.6244 16.7312 27.0904 17.4041 27.4238C18.077 27.7573 18.7902 27.924 19.5438 27.924C19.9386 27.924 20.3334 27.8727 20.7281 27.7701C21.1229 27.6675 21.4817 27.5136 21.8047 27.3084C22.1277 27.1032 22.3879 26.8424 22.5853 26.526C22.7826 26.2097 22.8813 25.8463 22.8813 25.4358C22.8813 24.7689 22.657 24.2559 22.2085 23.8968C21.7599 23.5376 21.2036 23.2341 20.5397 22.9861C19.8758 22.7382 19.1491 22.503 18.3596 22.2807C17.5701 22.0584 16.8433 21.7548 16.1794 21.3701C15.5155 20.9853 14.9593 20.4723 14.5107 19.831C14.0621 19.1897 13.8378 18.3304 13.8378 17.2487C13.8378 16.3082 14.0397 15.4959 14.4434 14.8075C14.8471 14.1235 15.3765 13.5549 16.0314 13.1017C16.6863 12.6485 17.4355 12.3108 18.2788 12.0885C19.1222 11.8662 19.9835 11.755 20.8627 11.755C21.8675 11.755 22.841 11.9004 23.7875 12.1911C24.7295 12.4818 25.5773 12.9606 26.331 13.6276L23.8548 16.1158L23.8637 16.12Z" fill="white"/>
</g>
</g>
<path d="M78.5247 16.2351C75.5154 16.2351 72.7647 15.1536 71.5422 12.497L73.423 10.5927C74.2694 12.8967 76.6439 13.79 78.5717 13.79C80.1469 13.79 81.4165 13.2258 81.4165 11.7917C81.4165 10.2635 80.1469 9.84033 78.1015 9.39363L76.6204 9.06449C74.3869 8.59428 72.0124 7.58335 72.0124 4.59755C72.0124 1.63527 74.575 0.0365708 77.5373 0.0365708C80.429 0.0365708 82.733 1.23559 83.8615 3.39853L81.8632 5.30286C80.9933 3.35151 79.3006 2.50514 77.3727 2.50514C75.8681 2.50514 74.7866 3.21045 74.7866 4.40947C74.7866 5.79657 75.8681 6.29029 77.5843 6.71347L79.3476 7.13665C81.8632 7.74792 84.1201 8.73535 84.1201 11.7447C84.1201 14.5894 81.7221 16.2351 78.5247 16.2351ZM89.3427 2.92833H86.7096V0.248163H89.3427V2.92833ZM89.3427 16H86.7096V4.55053H89.3427V16ZM97.0886 12.5675C96.1952 12.5675 95.3724 12.4029 94.6906 12.0738C94.479 12.4264 94.2204 12.8731 94.2204 13.2728C94.2204 13.8606 94.526 14.1662 95.5839 14.1662H99.275C101.556 14.1662 102.802 15.0831 102.802 16.7993C102.802 18.9623 100.686 20.608 96.5244 20.608C93.327 20.608 91.4697 19.5971 91.4697 18.1629C91.4697 17.0815 92.5041 16.4937 93.6091 16.2351C92.7862 16 92.2455 15.4593 92.2455 14.5894C92.2455 13.5549 93.1389 12.544 94.1968 11.8152C93.0448 11.1099 92.3395 9.91086 92.3395 8.45322C92.3395 6.03167 94.2674 4.31543 97.0886 4.31543C97.8174 4.31543 98.4757 4.43298 99.0635 4.64457L99.6277 1.89388L102.167 2.76375L100.027 5.11477C101.156 5.84359 101.814 7.0191 101.814 8.45322C101.814 10.8748 99.9098 12.5675 97.0886 12.5675ZM97.0886 10.6867C98.3346 10.6867 99.3221 9.88735 99.3221 8.45322C99.3221 7.0191 98.3346 6.21975 97.0886 6.21975C95.8426 6.21975 94.8551 7.0191 94.8551 8.45322C94.8551 9.88735 95.8426 10.6867 97.0886 10.6867ZM96.6419 18.6331C99.1105 18.6331 100.427 18.0924 100.427 17.1285C100.427 16.5172 99.9333 16.2586 98.9224 16.2586H94.1498C93.8912 16.5172 93.6091 16.8934 93.6091 17.2931C93.6091 18.1394 94.5495 18.6331 96.6419 18.6331ZM107.239 16H104.606V4.55053H107.239V7.67739C107.662 5.8671 108.838 4.31543 111.118 4.31543C113.352 4.31543 114.715 5.65551 114.715 8.03004V16H112.059V8.82939C112.059 7.41878 111.588 6.45486 109.825 6.45486C107.897 6.45486 107.239 7.7009 107.239 9.58171V16ZM120.097 16.2351C118.216 16.2351 117.087 15.1771 117.087 13.5314C117.087 11.9092 118.216 10.9218 120.073 10.193L123.905 8.57078C123.811 7.41878 123.294 6.64294 121.719 6.64294C120.191 6.64294 118.992 7.53633 118.333 8.73535L116.758 6.85453C117.652 5.632 119.438 4.31543 121.977 4.31543C124.822 4.31543 126.421 5.93763 126.421 8.75886V13.0612C126.421 13.5784 126.609 13.743 127.032 13.743H127.761V16H126.139C124.916 16 123.952 15.4358 123.952 13.79V12.9437C123.6 14.4483 122.495 16.2351 120.097 16.2351ZM119.626 13.1318C119.626 13.79 120.073 14.1897 121.037 14.1897C122.777 14.1897 123.952 13.1553 123.952 11.6036V10.3811L121.014 11.6976C120.026 12.1443 119.626 12.544 119.626 13.1318ZM132.643 16H130.01V0.248163H132.643V16ZM140.389 16.2351C137.944 16.2351 135.71 15.2477 134.84 13.4374L136.392 11.7917C137.027 12.9437 138.437 14.1192 140.483 14.1192C141.611 14.1192 142.34 13.7195 142.34 12.8967C142.34 12.0503 141.47 11.7682 140.201 11.4625L138.672 11.0864C136.862 10.6632 135.193 9.86384 135.193 7.77143C135.193 5.632 136.909 4.33894 139.542 4.33894C141.987 4.33894 143.704 5.51445 144.409 6.80751L142.857 8.45322C142.058 7.18367 140.835 6.43135 139.354 6.43135C138.343 6.43135 137.662 6.85453 137.662 7.63037C137.662 8.45322 138.273 8.75886 139.824 9.15853L141.212 9.51118C143.774 10.1695 144.715 11.2039 144.715 12.8496C144.715 15.1066 142.81 16.2351 140.389 16.2351Z" fill="white"/>
<path opacity="0.5" d="M80.9153 38.7551H79.3953L78.4513 36.3711H73.1393L72.1953 38.7551H70.6753L74.9793 28.0831H76.6273L80.9153 38.7551ZM78.0673 35.2031L75.7953 29.4431L73.5393 35.2031H78.0673ZM85.8305 38.9471C83.5265 38.9471 81.9745 37.1711 81.9745 34.8831C81.9745 32.5951 83.5265 30.8351 85.8305 30.8351C87.2385 30.8351 88.0705 31.4111 88.6625 32.1791L87.8625 32.8991C87.3505 32.1951 86.6945 31.9071 85.8945 31.9071C84.2625 31.9071 83.2225 33.1711 83.2225 34.8831C83.2225 36.5951 84.2625 37.8751 85.8945 37.8751C86.6945 37.8751 87.3505 37.5551 87.8625 36.8671L88.6625 37.6031C88.0705 38.3711 87.2385 38.9471 85.8305 38.9471ZM92.488 38.9471C91.336 38.9471 90.76 38.2911 90.76 37.1391V32.0831H89.48V31.0271H90.76V28.9151H91.976V31.0271H93.544V32.0831H91.976V36.8831C91.976 37.4591 92.232 37.8751 92.744 37.8751C93.096 37.8751 93.4 37.7151 93.56 37.5391L93.912 38.4511C93.608 38.7391 93.176 38.9471 92.488 38.9471ZM101.22 38.7551H100.02V32.0831H98.7397V31.0271H100.02V30.4351C100.02 28.8511 100.9 27.9231 102.26 27.9231C102.884 27.9231 103.412 28.0671 103.892 28.5151L103.396 29.2831C103.14 29.0591 102.836 28.9151 102.452 28.9151C101.652 28.9151 101.22 29.4431 101.22 30.4351V31.0271H102.788V32.0831H101.22V38.7551ZM110.423 38.7551H109.223V37.8751C108.599 38.5791 107.703 38.9471 106.663 38.9471C105.367 38.9471 103.975 38.0671 103.975 36.3871C103.975 34.6431 105.351 33.8431 106.663 33.8431C107.719 33.8431 108.599 34.1791 109.223 34.8831V33.4911C109.223 32.4671 108.391 31.8751 107.271 31.8751C106.343 31.8751 105.591 32.1951 104.903 32.9471L104.343 32.1151C105.175 31.2511 106.167 30.8351 107.431 30.8351C109.079 30.8351 110.423 31.5711 110.423 33.4431V38.7551ZM107.111 38.0831C107.943 38.0831 108.759 37.7631 109.223 37.1231V35.6511C108.759 35.0271 107.943 34.7071 107.111 34.7071C105.975 34.7071 105.191 35.4111 105.191 36.3871C105.191 37.3791 105.975 38.0831 107.111 38.0831ZM115.468 38.9471C114.188 38.9471 113.132 38.5471 112.348 37.7311L112.956 36.8671C113.468 37.4591 114.444 37.9711 115.5 37.9711C116.684 37.9711 117.34 37.4111 117.34 36.6431C117.34 34.7711 112.556 35.9231 112.556 33.0591C112.556 31.8431 113.58 30.8351 115.42 30.8351C116.748 30.8351 117.676 31.3311 118.284 31.9551L117.724 32.7871C117.26 32.2271 116.428 31.8111 115.42 31.8111C114.364 31.8111 113.708 32.3391 113.708 33.0271C113.708 34.7071 118.492 33.6031 118.492 36.6111C118.492 37.9071 117.452 38.9471 115.468 38.9471ZM122.569 38.9471C121.417 38.9471 120.841 38.2911 120.841 37.1391V32.0831H119.561V31.0271H120.841V28.9151H122.057V31.0271H123.625V32.0831H122.057V36.8831C122.057 37.4591 122.313 37.8751 122.825 37.8751C123.177 37.8751 123.481 37.7151 123.641 37.5391L123.993 38.4511C123.689 38.7391 123.257 38.9471 122.569 38.9471ZM137.669 38.7551H136.453L134.437 32.5471L132.421 38.7551H131.221L128.757 31.0271H130.005L131.893 37.1871L133.925 31.0271H134.965L136.981 37.1871L138.869 31.0271H140.133L137.669 38.7551ZM142.283 29.9231C141.835 29.9231 141.467 29.5711 141.467 29.1231C141.467 28.6751 141.835 28.3071 142.283 28.3071C142.731 28.3071 143.083 28.6751 143.083 29.1231C143.083 29.5711 142.731 29.9231 142.283 29.9231ZM142.875 38.7551H141.675V31.0271H142.875V38.7551ZM147.397 38.9471C146.245 38.9471 145.669 38.2911 145.669 37.1391V32.0831H144.389V31.0271H145.669V28.9151H146.885V31.0271H148.453V32.0831H146.885V36.8831C146.885 37.4591 147.141 37.8751 147.653 37.8751C148.005 37.8751 148.309 37.7151 148.469 37.5391L148.821 38.4511C148.517 38.7391 148.085 38.9471 147.397 38.9471ZM156.724 38.7551H155.524V33.6671C155.524 32.2911 154.836 31.9071 153.78 31.9071C152.852 31.9071 151.956 32.4831 151.508 33.1071V38.7551H150.308V28.0831H151.508V32.1471C152.036 31.4911 153.092 30.8351 154.26 30.8351C155.876 30.8351 156.724 31.6191 156.724 33.2991V38.7551ZM164.781 38.7551H163.581V31.0271H164.781V32.2591C165.405 31.4591 166.301 30.8511 167.357 30.8511V32.0831C167.213 32.0671 167.069 32.0511 166.893 32.0511C166.141 32.0511 165.133 32.6591 164.781 33.2831V38.7551ZM172.526 38.9471C170.222 38.9471 168.574 37.2991 168.574 34.8831C168.574 32.6431 170.174 30.8351 172.382 30.8351C174.718 30.8351 176.094 32.6591 176.094 34.9791V35.2831H169.854C169.95 36.7391 170.958 37.9551 172.622 37.9551C173.518 37.9551 174.398 37.6031 175.022 36.9631L175.598 37.7471C174.814 38.5151 173.774 38.9471 172.526 38.9471ZM174.91 34.3871C174.894 33.2511 174.126 31.8271 172.366 31.8271C170.718 31.8271 169.902 33.2191 169.838 34.3871H174.91ZM184.229 38.7551H183.029V37.8751C182.405 38.5791 181.509 38.9471 180.469 38.9471C179.173 38.9471 177.781 38.0671 177.781 36.3871C177.781 34.6431 179.157 33.8431 180.469 33.8431C181.525 33.8431 182.405 34.1791 183.029 34.8831V33.4911C183.029 32.4671 182.197 31.8751 181.077 31.8751C180.149 31.8751 179.397 32.1951 178.709 32.9471L178.149 32.1151C178.981 31.2511 179.973 30.8351 181.237 30.8351C182.885 30.8351 184.229 31.5711 184.229 33.4431V38.7551ZM180.917 38.0831C181.749 38.0831 182.565 37.7631 183.029 37.1231V35.6511C182.565 35.0271 181.749 34.7071 180.917 34.7071C179.781 34.7071 178.997 35.4111 178.997 36.3871C178.997 37.3791 179.781 38.0831 180.917 38.0831ZM188.011 38.7551H186.811V28.0831H188.011V38.7551ZM193.684 35.4111H189.844V34.3551H193.684V35.4111ZM197.489 38.9471C196.337 38.9471 195.761 38.2911 195.761 37.1391V32.0831H194.481V31.0271H195.761V28.9151H196.977V31.0271H198.545V32.0831H196.977V36.8831C196.977 37.4591 197.233 37.8751 197.745 37.8751C198.097 37.8751 198.401 37.7151 198.561 37.5391L198.913 38.4511C198.609 38.7391 198.177 38.9471 197.489 38.9471ZM200.992 29.9231C200.544 29.9231 200.176 29.5711 200.176 29.1231C200.176 28.6751 200.544 28.3071 200.992 28.3071C201.44 28.3071 201.792 28.6751 201.792 29.1231C201.792 29.5711 201.44 29.9231 200.992 29.9231ZM201.584 38.7551H200.384V31.0271H201.584V38.7551ZM214.666 38.7551H213.466V33.5071C213.466 32.5311 213.05 31.9071 212.042 31.9071C211.242 31.9071 210.394 32.4671 209.994 33.0911V38.7551H208.794V33.5071C208.794 32.5311 208.394 31.9071 207.37 31.9071C206.586 31.9071 205.754 32.4831 205.338 33.1071V38.7551H204.138V31.0271H205.338V32.1471C205.674 31.6511 206.698 30.8351 207.85 30.8351C209.018 30.8351 209.69 31.4751 209.914 32.2751C210.346 31.5711 211.386 30.8351 212.506 30.8351C213.914 30.8351 214.666 31.6191 214.666 33.1711V38.7551ZM220.724 38.9471C218.42 38.9471 216.772 37.2991 216.772 34.8831C216.772 32.6431 218.372 30.8351 220.58 30.8351C222.916 30.8351 224.292 32.6591 224.292 34.9791V35.2831H218.052C218.148 36.7391 219.156 37.9551 220.82 37.9551C221.716 37.9551 222.596 37.6031 223.22 36.9631L223.796 37.7471C223.012 38.5151 221.972 38.9471 220.724 38.9471ZM223.108 34.3871C223.092 33.2511 222.324 31.8271 220.564 31.8271C218.916 31.8271 218.1 33.2191 218.036 34.3871H223.108ZM234.2 38.9471C231.896 38.9471 230.248 37.2991 230.248 34.8831C230.248 32.6431 231.848 30.8351 234.056 30.8351C236.392 30.8351 237.768 32.6591 237.768 34.9791V35.2831H231.528C231.624 36.7391 232.632 37.9551 234.296 37.9551C235.192 37.9551 236.072 37.6031 236.696 36.9631L237.272 37.7471C236.488 38.5151 235.448 38.9471 234.2 38.9471ZM236.584 34.3871C236.568 33.2511 235.8 31.8271 234.04 31.8271C232.392 31.8271 231.576 33.2191 231.512 34.3871H236.584ZM246.272 38.7551H244.896L242.56 35.5871L240.24 38.7551H238.864L241.824 34.7871L239.024 31.0271H240.416L242.56 33.9711L244.72 31.0271H246.096L243.296 34.7871L246.272 38.7551ZM251.637 38.9471C250.581 38.9471 249.669 38.4351 249.029 37.5871V41.6991H247.829V31.0271H249.029V32.1791C249.589 31.3951 250.549 30.8351 251.637 30.8351C253.669 30.8351 255.077 32.3711 255.077 34.8831C255.077 37.3791 253.669 38.9471 251.637 38.9471ZM251.333 37.8751C252.885 37.8751 253.813 36.5951 253.813 34.8831C253.813 33.1711 252.885 31.9071 251.333 31.9071C250.389 31.9071 249.445 32.4671 249.029 33.1391V36.6271C249.445 37.2991 250.389 37.8751 251.333 37.8751ZM260.649 38.9471C258.345 38.9471 256.697 37.2991 256.697 34.8831C256.697 32.6431 258.297 30.8351 260.505 30.8351C262.841 30.8351 264.217 32.6591 264.217 34.9791V35.2831H257.977C258.073 36.7391 259.081 37.9551 260.745 37.9551C261.641 37.9551 262.521 37.6031 263.145 36.9631L263.721 37.7471C262.937 38.5151 261.897 38.9471 260.649 38.9471ZM263.033 34.3871C263.017 33.2511 262.249 31.8271 260.489 31.8271C258.841 31.8271 258.025 33.2191 257.961 34.3871H263.033ZM267.521 38.7551H266.321V31.0271H267.521V32.2591C268.145 31.4591 269.041 30.8511 270.097 30.8511V32.0831C269.953 32.0671 269.809 32.0511 269.633 32.0511C268.881 32.0511 267.873 32.6591 267.521 33.2831V38.7551ZM273.73 38.9471C272.578 38.9471 272.002 38.2911 272.002 37.1391V32.0831H270.722V31.0271H272.002V28.9151H273.218V31.0271H274.786V32.0831H273.218V36.8831C273.218 37.4591 273.474 37.8751 273.986 37.8751C274.338 37.8751 274.642 37.7151 274.802 37.5391L275.154 38.4511C274.85 38.7391 274.418 38.9471 273.73 38.9471ZM74.1953 54.9471C72.9153 54.9471 71.8593 54.5471 71.0753 53.7311L71.6833 52.8671C72.1953 53.4591 73.1713 53.9711 74.2273 53.9711C75.4113 53.9711 76.0673 53.4111 76.0673 52.6431C76.0673 50.7711 71.2833 51.9231 71.2833 49.0591C71.2833 47.8431 72.3073 46.8351 74.1473 46.8351C75.4753 46.8351 76.4033 47.3311 77.0113 47.9551L76.4513 48.7871C75.9873 48.2271 75.1553 47.8111 74.1473 47.8111C73.0913 47.8111 72.4353 48.3391 72.4353 49.0271C72.4353 50.7071 77.2193 49.6031 77.2193 52.6111C77.2193 53.9071 76.1793 54.9471 74.1953 54.9471ZM79.9367 45.9231C79.4887 45.9231 79.1207 45.5711 79.1207 45.1231C79.1207 44.6751 79.4887 44.3071 79.9367 44.3071C80.3847 44.3071 80.7367 44.6751 80.7367 45.1231C80.7367 45.5711 80.3847 45.9231 79.9367 45.9231ZM80.5287 54.7551H79.3287V47.0271H80.5287V54.7551ZM86.1865 57.8911C84.8905 57.8911 83.9945 57.6351 83.0665 56.7231L83.6745 55.8591C84.3145 56.6111 85.0825 56.8991 86.1865 56.8991C87.4665 56.8991 88.6825 56.2751 88.6825 54.6431V53.4751C88.1065 54.2591 87.1625 54.8511 86.0745 54.8511C84.0585 54.8511 82.6345 53.3471 82.6345 50.8511C82.6345 48.3711 84.0425 46.8351 86.0745 46.8351C87.1145 46.8351 88.0585 47.3471 88.6825 48.1951V47.0271H89.8825V54.6431C89.8825 57.0911 88.0745 57.8911 86.1865 57.8911ZM86.3785 53.7791C87.3225 53.7791 88.2505 53.2031 88.6825 52.5311V49.1391C88.2505 48.4831 87.3225 47.9071 86.3785 47.9071C84.8105 47.9071 83.8825 49.1391 83.8825 50.8511C83.8825 52.5471 84.8105 53.7791 86.3785 53.7791ZM98.8616 54.7551H97.6776V49.6991C97.6776 48.3231 96.9736 47.9071 95.9336 47.9071C94.9896 47.9071 94.1096 48.4831 93.6456 49.1071V54.7551H92.4456V47.0271H93.6456V48.1471C94.1896 47.4911 95.2456 46.8351 96.4136 46.8351C98.0136 46.8351 98.8616 47.6511 98.8616 49.3311V54.7551ZM107.466 54.7551H106.266V53.8751C105.642 54.5791 104.746 54.9471 103.706 54.9471C102.41 54.9471 101.018 54.0671 101.018 52.3871C101.018 50.6431 102.394 49.8431 103.706 49.8431C104.762 49.8431 105.642 50.1791 106.266 50.8831V49.4911C106.266 48.4671 105.434 47.8751 104.314 47.8751C103.386 47.8751 102.634 48.1951 101.946 48.9471L101.386 48.1151C102.218 47.2511 103.21 46.8351 104.474 46.8351C106.122 46.8351 107.466 47.5711 107.466 49.4431V54.7551ZM104.154 54.0831C104.986 54.0831 105.802 53.7631 106.266 53.1231V51.6511C105.802 51.0271 104.986 50.7071 104.154 50.7071C103.018 50.7071 102.234 51.4111 102.234 52.3871C102.234 53.3791 103.018 54.0831 104.154 54.0831ZM111.247 54.7551H110.047V44.0831H111.247V54.7551ZM116.265 54.9471C114.985 54.9471 113.929 54.5471 113.145 53.7311L113.753 52.8671C114.265 53.4591 115.241 53.9711 116.297 53.9711C117.481 53.9711 118.137 53.4111 118.137 52.6431C118.137 50.7711 113.353 51.9231 113.353 49.0591C113.353 47.8431 114.377 46.8351 116.217 46.8351C117.545 46.8351 118.473 47.3311 119.081 47.9551L118.521 48.7871C118.057 48.2271 117.225 47.8111 116.217 47.8111C115.161 47.8111 114.505 48.3391 114.505 49.0271C114.505 50.7071 119.289 49.6031 119.289 52.6111C119.289 53.9071 118.249 54.9471 116.265 54.9471Z" fill="#F9F2F2"/>
<defs>
<linearGradient id="paint0_linear_3355_911" x1="0" y1="20.389" x2="40.4082" y2="20.389" gradientUnits="userSpaceOnUse">
<stop stop-color="#A18CD1"/>
<stop offset="1" stop-color="#FBC2EB"/>
</linearGradient>
<linearGradient id="paint1_linear_3355_911" x1="17.5586" y1="32.1545" x2="47.0188" y2="32.1545" gradientUnits="userSpaceOnUse">
<stop stop-color="#A18CD1"/>
<stop offset="1" stop-color="#FBC2EB"/>
</linearGradient>
<clipPath id="clip0_3355_911">
<rect width="47.02" height="47.02" fill="white"/>
</clipPath>
<clipPath id="clip1_3355_911">
<rect width="13.2244" height="19.1019" fill="white" transform="translate(13.2227 11.755)"/>
</clipPath>
</defs>
</svg>
