<svg width="291" height="58" viewBox="0 0 291 58" fill="none" xmlns="http://www.w3.org/2000/svg">
<g clip-path="url(#clip0_3355_903)">
<path d="M39.452 7.78646C37.5709 3.21352 33.0992 0 27.8862 0H12.5223C5.60754 0 0 5.65886 0 12.6369V28.1415C0 32.9195 2.62642 37.0742 6.50028 39.2219C8.28576 40.2153 10.3383 40.7784 12.5223 40.7784H27.8862C30.0703 40.7784 32.1268 40.2153 33.9122 39.2219C36.3912 37.8464 38.36 35.6504 39.452 32.9919C40.0698 31.4998 40.4085 29.8628 40.4085 28.1415V12.6369C40.4085 10.9155 40.0698 9.2786 39.452 7.78646Z" fill="url(#paint0_linear_3355_903)"/>
<path d="M28.5145 47.0213H17.5625V43.852H28.5145C36.9876 43.852 43.8824 36.894 43.8824 28.3434V17.2911H47.023V28.3434C47.023 38.6436 38.7213 47.0213 28.5145 47.0213Z" fill="url(#paint1_linear_3355_903)"/>
<g filter="url(#filter0_d_3355_903)">
<path d="M10.4805 11.7853H15.0757L19.5992 23.7666L24.1705 11.7853H28.7179V28.8865H25.8444V14.6851H25.7966L20.6514 28.8865H18.547L13.4018 14.6851H13.354V28.8865H10.4805V11.7853Z" fill="white"/>
</g>
</g>
<path d="M74.7396 16H72.0829V0.248163H75.3508L78.7363 7.16016L80.288 11.1804L81.8632 7.16016L85.2486 0.248163H88.493V16H85.8364V8.59428L86.1655 3.39853L84.3553 7.91249L81.6281 13.3433H78.9479L76.2207 7.91249L74.3634 3.39853L74.7396 8.59428V16ZM94.2969 16.2351C92.4161 16.2351 91.2876 15.1771 91.2876 13.5314C91.2876 11.9092 92.4161 10.9218 94.2734 10.193L98.1056 8.57078C98.0116 7.41878 97.4943 6.64294 95.9191 6.64294C94.391 6.64294 93.192 7.53633 92.5337 8.73535L90.9585 6.85453C91.8519 5.632 93.6387 4.31543 96.1778 4.31543C99.0225 4.31543 100.621 5.93763 100.621 8.75886V13.0612C100.621 13.5784 100.809 13.743 101.232 13.743H101.961V16H100.339C99.1165 16 98.1526 15.4358 98.1526 13.79V12.9437C97.8 14.4483 96.695 16.2351 94.2969 16.2351ZM93.8267 13.1318C93.8267 13.79 94.2734 14.1897 95.2374 14.1897C96.9771 14.1897 98.1526 13.1553 98.1526 11.6036V10.3811L95.2138 11.6976C94.2264 12.1443 93.8267 12.544 93.8267 13.1318ZM106.843 16H104.21V4.55053H106.843V7.67739C107.266 5.8671 108.442 4.31543 110.722 4.31543C112.956 4.31543 114.319 5.65551 114.319 8.03004V16H111.663V8.82939C111.663 7.41878 111.193 6.45486 109.429 6.45486C107.501 6.45486 106.843 7.7009 106.843 9.58171V16ZM120.759 16.2351C118.549 16.2351 117.186 14.895 117.186 12.5205V4.55053H119.819V11.7211C119.819 13.1318 120.289 14.0957 122.052 14.0957C123.98 14.0957 124.639 12.8496 124.639 10.9688V4.55053H127.295V16H124.639V12.8731C124.215 14.6834 123.04 16.2351 120.759 16.2351ZM132.747 16.2351C130.866 16.2351 129.738 15.1771 129.738 13.5314C129.738 11.9092 130.866 10.9218 132.724 10.193L136.556 8.57078C136.462 7.41878 135.945 6.64294 134.369 6.64294C132.841 6.64294 131.642 7.53633 130.984 8.73535L129.409 6.85453C130.302 5.632 132.089 4.31543 134.628 4.31543C137.473 4.31543 139.071 5.93763 139.071 8.75886V13.0612C139.071 13.5784 139.259 13.743 139.683 13.743H140.411V16H138.789C137.567 16 136.603 15.4358 136.603 13.79V12.9437C136.25 14.4483 135.145 16.2351 132.747 16.2351ZM132.277 13.1318C132.277 13.79 132.724 14.1897 133.688 14.1897C135.427 14.1897 136.603 13.1553 136.603 11.6036V10.3811L133.664 11.6976C132.677 12.1443 132.277 12.544 132.277 13.1318ZM145.293 16H142.66V0.248163H145.293V16ZM159.951 16H157.295V2.59918H152.475V0.248163H164.794V2.59918H159.951V16ZM168.682 16H166.049V4.55053H168.682V7.79494C169.106 5.96114 170.257 4.31543 172.303 4.31543C173.737 4.31543 174.795 5.25584 174.795 6.94857C174.795 8.05355 174.489 8.87641 174.278 9.22906H171.574C171.95 8.8529 172.303 8.10057 172.303 7.44229C172.303 6.80751 171.997 6.29029 171.221 6.29029C169.905 6.29029 168.682 7.79494 168.682 9.69927V16ZM179.083 16.2351C177.203 16.2351 176.074 15.1771 176.074 13.5314C176.074 11.9092 177.203 10.9218 179.06 10.193L182.892 8.57078C182.798 7.41878 182.281 6.64294 180.706 6.64294C179.177 6.64294 177.978 7.53633 177.32 8.73535L175.745 6.85453C176.638 5.632 178.425 4.31543 180.964 4.31543C183.809 4.31543 185.408 5.93763 185.408 8.75886V13.0612C185.408 13.5784 185.596 13.743 186.019 13.743H186.748V16H185.125C183.903 16 182.939 15.4358 182.939 13.79V12.9437C182.586 14.4483 181.481 16.2351 179.083 16.2351ZM178.613 13.1318C178.613 13.79 179.06 14.1897 180.024 14.1897C181.764 14.1897 182.939 13.1553 182.939 11.6036V10.3811L180 11.6976C179.013 12.1443 178.613 12.544 178.613 13.1318ZM192.924 16.2586C190.102 16.2586 188.316 13.9781 188.316 10.287C188.316 6.59592 190.102 4.31543 192.877 4.31543C195.157 4.31543 196.168 5.84359 196.544 7.63037V0.248163H199.177V16H196.544V12.9672C196.168 14.7304 195.204 16.2586 192.924 16.2586ZM191.019 10.287C191.019 12.8731 192.265 14.1192 193.935 14.1192C195.768 14.1192 196.544 12.8967 196.544 11.0158V9.58171C196.544 7.7009 195.768 6.45486 193.911 6.45486C192.265 6.45486 191.019 7.72441 191.019 10.287ZM207.259 16.2351C203.85 16.2351 201.616 13.8606 201.616 10.287C201.616 6.68996 203.85 4.31543 207.071 4.31543C210.503 4.31543 212.407 6.59592 212.407 9.7698C212.407 10.193 212.36 10.6867 212.313 10.9218H204.132C204.273 12.9672 205.472 14.0722 207.282 14.0722C209.281 14.0722 210.174 13.0377 210.597 12.0738L212.219 13.7665C211.349 15.0831 209.798 16.2351 207.259 16.2351ZM207.071 6.43135C205.448 6.43135 204.367 7.37175 204.155 9.22906H210.033C209.845 7.41878 208.81 6.43135 207.071 6.43135Z" fill="white"/>
<path opacity="0.5" d="M78.7713 38.7551H71.7793V28.0831H78.7713V29.2671H73.1073V32.7071H78.6593V33.8911H73.1073V37.5711H78.7713V38.7551ZM87.4006 38.7551H86.0246L83.6886 35.5871L81.3686 38.7551H79.9926L82.9526 34.7871L80.1526 31.0271H81.5446L83.6886 33.9711L85.8486 31.0271H87.2246L84.4246 34.7871L87.4006 38.7551ZM91.8677 38.9471C89.5637 38.9471 87.9157 37.2991 87.9157 34.8831C87.9157 32.6431 89.5157 30.8351 91.7238 30.8351C94.0598 30.8351 95.4358 32.6591 95.4358 34.9791V35.2831H89.1957C89.2917 36.7391 90.2997 37.9551 91.9637 37.9551C92.8597 37.9551 93.7397 37.6031 94.3637 36.9631L94.9398 37.7471C94.1557 38.5151 93.1157 38.9471 91.8677 38.9471ZM94.2517 34.3871C94.2358 33.2511 93.4678 31.8271 91.7077 31.8271C90.0597 31.8271 89.2437 33.2191 89.1797 34.3871H94.2517ZM100.947 38.9471C98.6434 38.9471 97.0914 37.1711 97.0914 34.8831C97.0914 32.5951 98.6434 30.8351 100.947 30.8351C102.355 30.8351 103.187 31.4111 103.779 32.1791L102.979 32.8991C102.467 32.1951 101.811 31.9071 101.011 31.9071C99.3794 31.9071 98.3394 33.1711 98.3394 34.8831C98.3394 36.5951 99.3794 37.8751 101.011 37.8751C101.811 37.8751 102.467 37.5551 102.979 36.8671L103.779 37.6031C103.187 38.3711 102.355 38.9471 100.947 38.9471ZM112.053 38.7551H110.853V37.6671C110.261 38.3391 109.253 38.9471 108.101 38.9471C106.485 38.9471 105.637 38.1471 105.637 36.4831V31.0271H106.837V36.1151C106.837 37.4751 107.525 37.8751 108.581 37.8751C109.509 37.8751 110.405 37.3311 110.853 36.7071V31.0271H112.053V38.7551ZM116.577 38.9471C115.425 38.9471 114.849 38.2911 114.849 37.1391V32.0831H113.569V31.0271H114.849V28.9151H116.065V31.0271H117.633V32.0831H116.065V36.8831C116.065 37.4591 116.321 37.8751 116.833 37.8751C117.185 37.8751 117.489 37.7151 117.649 37.5391L118.001 38.4511C117.697 38.7391 117.265 38.9471 116.577 38.9471ZM122.976 38.9471C120.672 38.9471 119.024 37.2991 119.024 34.8831C119.024 32.6431 120.624 30.8351 122.832 30.8351C125.168 30.8351 126.544 32.6591 126.544 34.9791V35.2831H120.304C120.4 36.7391 121.408 37.9551 123.072 37.9551C123.968 37.9551 124.848 37.6031 125.472 36.9631L126.048 37.7471C125.264 38.5151 124.224 38.9471 122.976 38.9471ZM125.36 34.3871C125.344 33.2511 124.576 31.8271 122.816 31.8271C121.168 31.8271 120.352 33.2191 120.288 34.3871H125.36ZM134.917 38.9471C133.765 38.9471 133.189 38.2911 133.189 37.1391V32.0831H131.909V31.0271H133.189V28.9151H134.405V31.0271H135.973V32.0831H134.405V36.8831C134.405 37.4591 134.661 37.8751 135.173 37.8751C135.525 37.8751 135.829 37.7151 135.989 37.5391L136.341 38.4511C136.037 38.7391 135.605 38.9471 134.917 38.9471ZM139.012 38.7551H137.812V31.0271H139.012V32.2591C139.636 31.4591 140.532 30.8511 141.588 30.8511V32.0831C141.444 32.0671 141.3 32.0511 141.124 32.0511C140.372 32.0511 139.364 32.6591 139.012 33.2831V38.7551ZM149.285 38.7551H148.085V37.8751C147.461 38.5791 146.565 38.9471 145.525 38.9471C144.229 38.9471 142.837 38.0671 142.837 36.3871C142.837 34.6431 144.213 33.8431 145.525 33.8431C146.581 33.8431 147.461 34.1791 148.085 34.8831V33.4911C148.085 32.4671 147.253 31.8751 146.133 31.8751C145.205 31.8751 144.453 32.1951 143.765 32.9471L143.205 32.1151C144.037 31.2511 145.029 30.8351 146.293 30.8351C147.941 30.8351 149.285 31.5711 149.285 33.4431V38.7551ZM145.973 38.0831C146.805 38.0831 147.621 37.7631 148.085 37.1231V35.6511C147.621 35.0271 146.805 34.7071 145.973 34.7071C144.837 34.7071 144.053 35.4111 144.053 36.3871C144.053 37.3791 144.837 38.0831 145.973 38.0831ZM158.666 38.7551H157.466V37.6031C156.89 38.3871 155.946 38.9471 154.858 38.9471C152.842 38.9471 151.418 37.4111 151.418 34.8991C151.418 32.4191 152.842 30.8351 154.858 30.8351C155.898 30.8351 156.842 31.3471 157.466 32.1951V28.0831H158.666V38.7551ZM155.162 37.8751C156.106 37.8751 157.05 37.3151 157.466 36.6431V33.1551C157.05 32.4831 156.106 31.9071 155.162 31.9071C153.594 31.9071 152.666 33.1871 152.666 34.8991C152.666 36.6111 153.594 37.8751 155.162 37.8751ZM164.733 38.9471C162.429 38.9471 160.781 37.2991 160.781 34.8831C160.781 32.6431 162.381 30.8351 164.589 30.8351C166.925 30.8351 168.301 32.6591 168.301 34.9791V35.2831H162.061C162.157 36.7391 163.165 37.9551 164.829 37.9551C165.725 37.9551 166.605 37.6031 167.229 36.9631L167.805 37.7471C167.021 38.5151 165.981 38.9471 164.733 38.9471ZM167.117 34.3871C167.101 33.2511 166.333 31.8271 164.573 31.8271C162.925 31.8271 162.109 33.2191 162.045 34.3871H167.117ZM172.869 38.9471C171.589 38.9471 170.533 38.5471 169.749 37.7311L170.357 36.8671C170.869 37.4591 171.845 37.9711 172.901 37.9711C174.085 37.9711 174.741 37.4111 174.741 36.6431C174.741 34.7711 169.957 35.9231 169.957 33.0591C169.957 31.8431 170.981 30.8351 172.821 30.8351C174.149 30.8351 175.077 31.3311 175.685 31.9551L175.125 32.7871C174.661 32.2271 173.829 31.8111 172.821 31.8111C171.765 31.8111 171.109 32.3391 171.109 33.0271C171.109 34.7071 175.893 33.6031 175.893 36.6111C175.893 37.9071 174.853 38.9471 172.869 38.9471ZM181.887 41.7791L182.063 40.6911C182.239 40.7711 182.527 40.8191 182.719 40.8191C183.247 40.8191 183.599 40.6431 183.871 40.0031L184.383 38.8351L181.151 31.0271H182.463L185.023 37.3631L187.599 31.0271H188.895L185.023 40.3231C184.559 41.4431 183.775 41.8751 182.751 41.8911C182.495 41.8911 182.095 41.8431 181.887 41.7791ZM193.683 38.9471C191.331 38.9471 189.859 37.1231 189.859 34.8831C189.859 32.6431 191.331 30.8351 193.683 30.8351C196.035 30.8351 197.507 32.6431 197.507 34.8831C197.507 37.1231 196.035 38.9471 193.683 38.9471ZM193.683 37.8751C195.331 37.8751 196.243 36.4671 196.243 34.8831C196.243 33.3151 195.331 31.9071 193.683 31.9071C192.035 31.9071 191.123 33.3151 191.123 34.8831C191.123 36.4671 192.035 37.8751 193.683 37.8751ZM206.039 38.7551H204.839V37.6671C204.247 38.3391 203.239 38.9471 202.087 38.9471C200.471 38.9471 199.623 38.1471 199.623 36.4831V31.0271H200.823V36.1151C200.823 37.4751 201.511 37.8751 202.567 37.8751C203.495 37.8751 204.391 37.3311 204.839 36.7071V31.0271H206.039V38.7551ZM209.796 38.7551H208.596V31.0271H209.796V32.2591C210.42 31.4591 211.316 30.8511 212.372 30.8511V32.0831C212.228 32.0671 212.084 32.0511 211.908 32.0511C211.156 32.0511 210.148 32.6591 209.796 33.2831V38.7551ZM226.241 38.7551H225.025L223.009 32.5471L220.993 38.7551H219.793L217.329 31.0271H218.577L220.465 37.1871L222.497 31.0271H223.537L225.553 37.1871L227.441 31.0271H228.705L226.241 38.7551ZM236.28 38.7551H235.08V37.8751C234.456 38.5791 233.56 38.9471 232.52 38.9471C231.224 38.9471 229.832 38.0671 229.832 36.3871C229.832 34.6431 231.208 33.8431 232.52 33.8431C233.576 33.8431 234.456 34.1791 235.08 34.8831V33.4911C235.08 32.4671 234.248 31.8751 233.128 31.8751C232.2 31.8751 231.448 32.1951 230.76 32.9471L230.2 32.1151C231.032 31.2511 232.024 30.8351 233.288 30.8351C234.936 30.8351 236.28 31.5711 236.28 33.4431V38.7551ZM232.968 38.0831C233.8 38.0831 234.616 37.7631 235.08 37.1231V35.6511C234.616 35.0271 233.8 34.7071 232.968 34.7071C231.832 34.7071 231.048 35.4111 231.048 36.3871C231.048 37.3791 231.832 38.0831 232.968 38.0831ZM238.445 41.7791L238.621 40.6911C238.797 40.7711 239.085 40.8191 239.277 40.8191C239.805 40.8191 240.157 40.6431 240.429 40.0031L240.941 38.8351L237.709 31.0271H239.021L241.581 37.3631L244.157 31.0271H245.453L241.581 40.3231C241.117 41.4431 240.333 41.8751 239.309 41.8911C239.053 41.8911 238.653 41.8431 238.445 41.7791ZM247.574 38.3711C247.574 39.3471 247.014 40.2591 246.278 40.7871L245.67 40.2911C246.182 39.9551 246.646 39.3311 246.71 38.8031C246.678 38.8191 246.566 38.8351 246.486 38.8351C246.054 38.8351 245.718 38.4831 245.718 38.0191C245.718 37.5551 246.086 37.1551 246.566 37.1551C247.11 37.1551 247.574 37.6031 247.574 38.3711ZM75.1393 54.9471C72.8353 54.9471 71.2833 53.1711 71.2833 50.8831C71.2833 48.5951 72.8353 46.8351 75.1393 46.8351C76.5473 46.8351 77.3793 47.4111 77.9713 48.1791L77.1713 48.8991C76.6593 48.1951 76.0033 47.9071 75.2033 47.9071C73.5713 47.9071 72.5312 49.1711 72.5312 50.8831C72.5312 52.5951 73.5713 53.8751 75.2033 53.8751C76.0033 53.8751 76.6593 53.5551 77.1713 52.8671L77.9713 53.6031C77.3793 54.3711 76.5473 54.9471 75.1393 54.9471ZM83.2048 54.9471C80.8528 54.9471 79.3807 53.1231 79.3807 50.8831C79.3807 48.6431 80.8528 46.8351 83.2048 46.8351C85.5568 46.8351 87.0288 48.6431 87.0288 50.8831C87.0288 53.1231 85.5568 54.9471 83.2048 54.9471ZM83.2048 53.8751C84.8528 53.8751 85.7648 52.4671 85.7648 50.8831C85.7648 49.3151 84.8528 47.9071 83.2048 47.9071C81.5568 47.9071 80.6447 49.3151 80.6447 50.8831C80.6447 52.4671 81.5568 53.8751 83.2048 53.8751ZM95.561 54.7551H94.377V49.6991C94.377 48.3231 93.673 47.9071 92.633 47.9071C91.689 47.9071 90.809 48.4831 90.345 49.1071V54.7551H89.145V47.0271H90.345V48.1471C90.889 47.4911 91.945 46.8351 93.113 46.8351C94.713 46.8351 95.561 47.6511 95.561 49.3311V54.7551ZM99.6691 54.7551H98.4691V48.0831H97.1891V47.0271H98.4691V46.4351C98.4691 44.8351 99.3811 43.9231 100.709 43.9231C101.173 43.9231 101.573 44.0031 101.893 44.1791L101.589 45.0911C101.397 44.9791 101.189 44.9151 100.901 44.9151C100.101 44.9151 99.6691 45.4431 99.6691 46.4351V47.0271H101.237V48.0831H99.6691V54.7551ZM103.285 45.9231C102.837 45.9231 102.469 45.5711 102.469 45.1231C102.469 44.6751 102.837 44.3071 103.285 44.3071C103.733 44.3071 104.085 44.6751 104.085 45.1231C104.085 45.5711 103.733 45.9231 103.285 45.9231ZM103.877 54.7551H102.677V47.0271H103.877V54.7551ZM113.234 54.7551H112.034V53.6031C111.458 54.3871 110.514 54.9471 109.426 54.9471C107.41 54.9471 105.986 53.4111 105.986 50.8991C105.986 48.4191 107.41 46.8351 109.426 46.8351C110.466 46.8351 111.41 47.3471 112.034 48.1951V44.0831H113.234V54.7551ZM109.73 53.8751C110.674 53.8751 111.618 53.3151 112.034 52.6431V49.1551C111.618 48.4831 110.674 47.9071 109.73 47.9071C108.162 47.9071 107.234 49.1871 107.234 50.8991C107.234 52.6111 108.162 53.8751 109.73 53.8751ZM119.301 54.9471C116.997 54.9471 115.349 53.2991 115.349 50.8831C115.349 48.6431 116.949 46.8351 119.157 46.8351C121.493 46.8351 122.869 48.6591 122.869 50.9791V51.2831H116.629C116.725 52.7391 117.733 53.9551 119.397 53.9551C120.293 53.9551 121.173 53.6031 121.797 52.9631L122.373 53.7471C121.589 54.5151 120.549 54.9471 119.301 54.9471ZM121.685 50.3871C121.669 49.2511 120.901 47.8271 119.141 47.8271C117.493 47.8271 116.677 49.2191 116.613 50.3871H121.685ZM131.388 54.7551H130.204V49.6991C130.204 48.3231 129.5 47.9071 128.46 47.9071C127.516 47.9071 126.636 48.4831 126.172 49.1071V54.7551H124.972V47.0271H126.172V48.1471C126.716 47.4911 127.772 46.8351 128.94 46.8351C130.54 46.8351 131.388 47.6511 131.388 49.3311V54.7551ZM135.929 54.9471C134.777 54.9471 134.201 54.2911 134.201 53.1391V48.0831H132.921V47.0271H134.201V44.9151H135.417V47.0271H136.985V48.0831H135.417V52.8831C135.417 53.4591 135.673 53.8751 136.185 53.8751C136.537 53.8751 136.841 53.7151 137.001 53.5391L137.353 54.4511C137.049 54.7391 136.617 54.9471 135.929 54.9471ZM140.024 54.7551H138.824V44.0831H140.024V54.7551ZM142.162 57.7791L142.338 56.6911C142.514 56.7711 142.802 56.8191 142.994 56.8191C143.522 56.8191 143.874 56.6431 144.146 56.0031L144.658 54.8351L141.426 47.0271H142.738L145.298 53.3631L147.874 47.0271H149.17L145.298 56.3231C144.834 57.4431 144.05 57.8751 143.026 57.8911C142.77 57.8911 142.37 57.8431 142.162 57.7791ZM150.315 54.9151C149.835 54.9151 149.435 54.5151 149.435 54.0351C149.435 53.5551 149.835 53.1551 150.315 53.1551C150.795 53.1551 151.195 53.5551 151.195 54.0351C151.195 54.5151 150.795 54.9151 150.315 54.9151Z" fill="#F9F2F2"/>
<defs>
<filter id="filter0_d_3355_903" x="10.4805" y="10.6657" width="22.7164" height="21.5794" filterUnits="userSpaceOnUse" color-interpolation-filters="sRGB">
<feFlood flood-opacity="0" result="BackgroundImageFix"/>
<feColorMatrix in="SourceAlpha" type="matrix" values="0 0 0 0 0 0 0 0 0 0 0 0 0 0 0 0 0 0 127 0" result="hardAlpha"/>
<feOffset dx="2.23907" dy="1.11953"/>
<feGaussianBlur stdDeviation="1.11953"/>
<feComposite in2="hardAlpha" operator="out"/>
<feColorMatrix type="matrix" values="0 0 0 0 0 0 0 0 0 0 0 0 0 0 0 0 0 0 0.25 0"/>
<feBlend mode="normal" in2="BackgroundImageFix" result="effect1_dropShadow_3355_903"/>
<feBlend mode="normal" in="SourceGraphic" in2="effect1_dropShadow_3355_903" result="shape"/>
</filter>
<linearGradient id="paint0_linear_3355_903" x1="0" y1="20.3892" x2="40.4085" y2="20.3892" gradientUnits="userSpaceOnUse">
<stop stop-color="#E44D26"/>
<stop offset="1" stop-color="#F16529"/>
</linearGradient>
<linearGradient id="paint1_linear_3355_903" x1="17.5625" y1="32.1562" x2="47.023" y2="32.1562" gradientUnits="userSpaceOnUse">
<stop stop-color="#E44D26"/>
<stop offset="1" stop-color="#F16529"/>
</linearGradient>
<clipPath id="clip0_3355_903">
<rect width="47.0204" height="47.0204" fill="white"/>
</clipPath>
</defs>
</svg>
