<svg width="291" height="58" viewBox="0 0 291 58" fill="none" xmlns="http://www.w3.org/2000/svg">
<g clip-path="url(#clip0_3355_920)">
<path d="M39.4517 7.78639C37.5706 3.2135 33.0989 0 27.886 0H12.5222C5.60749 0 0 5.65881 0 12.6368V28.1412C0 32.9192 2.62639 37.0738 6.50022 39.2215C8.28569 40.2149 10.3382 40.778 12.5222 40.778H27.886C30.07 40.778 32.1265 40.2149 33.9119 39.2215C36.3909 37.846 38.3597 35.6501 39.4517 32.9916C40.0694 31.4995 40.4082 29.8626 40.4082 28.1412V12.6368C40.4082 10.9154 40.0694 9.27852 39.4517 7.78639Z" fill="url(#paint0_linear_3355_920)"/>
<g clip-path="url(#clip1_3355_920)">
<path d="M7.34766 12.2443H10.8628L14.2508 24.9461H14.3017L18.3469 12.2443H21.5059L25.479 24.9461H25.5299L29.0663 12.2443H32.327L27.0818 29.8768H24.0246L19.8522 16.4533H19.8013L15.6246 29.8768H12.6692L7.34766 12.2443Z" fill="white"/>
</g>
<path d="M28.5105 47.0209H17.5586V43.8516H28.5105C36.9835 43.8516 43.8783 36.8937 43.8783 28.3432V17.291H47.0188V28.3432C47.0188 38.6433 38.7172 47.0209 28.5105 47.0209Z" fill="url(#paint1_linear_3355_920)"/>
</g>
<path d="M78.2191 16H74.8806L70.7664 0.248163H73.8227L75.8681 9.41714L76.5734 13.8606L77.4903 9.58171L79.9588 0.248163H83.3913L85.8129 9.58171L86.7063 13.8606L87.4351 9.41714L89.5275 0.248163H92.5368L88.3755 16H85.037L82.5685 6.66645L81.6516 2.27004L80.7347 6.66645L78.2191 16ZM98.2852 16.2351C94.8763 16.2351 92.6428 13.8606 92.6428 10.287C92.6428 6.68996 94.8763 4.31543 98.0971 4.31543C101.53 4.31543 103.434 6.59592 103.434 9.7698C103.434 10.193 103.387 10.6867 103.34 10.9218H95.1584C95.2994 12.9672 96.4985 14.0722 98.3087 14.0722C100.307 14.0722 101.2 13.0377 101.624 12.0738L103.246 13.7665C102.376 15.0831 100.824 16.2351 98.2852 16.2351ZM98.0971 6.43135C96.4749 6.43135 95.3935 7.37175 95.1819 9.22906H101.059C100.871 7.41878 99.8369 6.43135 98.0971 6.43135ZM108.657 16H106.024V0.248163H108.657V7.63037C109.033 5.84359 110.044 4.31543 112.324 4.31543C115.122 4.31543 116.909 6.59592 116.909 10.287C116.909 13.9781 115.122 16.2586 112.277 16.2586C109.997 16.2586 109.033 14.7304 108.657 12.9672V16ZM108.657 11.0158C108.657 12.8967 109.433 14.1192 111.29 14.1192C112.959 14.1192 114.205 12.8731 114.205 10.287C114.205 7.72441 112.959 6.45486 111.29 6.45486C109.433 6.45486 108.657 7.7009 108.657 9.58171V11.0158ZM121.933 16H119.3V0.248163H121.933V7.67739C122.356 5.8671 123.532 4.31543 125.812 4.31543C128.045 4.31543 129.409 5.65551 129.409 8.03004V16H126.752V8.82939C126.752 7.41878 126.282 6.45486 124.519 6.45486C122.591 6.45486 121.933 7.7009 121.933 9.58171V16ZM137.12 16.2351C133.828 16.2351 131.571 13.8371 131.571 10.287C131.571 6.71347 133.828 4.31543 137.12 4.31543C140.458 4.31543 142.715 6.71347 142.715 10.287C142.715 13.8371 140.458 16.2351 137.12 16.2351ZM137.143 14.0487C138.859 14.0487 140.035 12.9202 140.035 10.287C140.035 7.63037 138.859 6.50188 137.143 6.50188C135.45 6.50188 134.275 7.63037 134.275 10.287C134.275 12.9202 135.45 14.0487 137.143 14.0487ZM150.258 16.2351C146.966 16.2351 144.709 13.8371 144.709 10.287C144.709 6.71347 146.966 4.31543 150.258 4.31543C153.596 4.31543 155.853 6.71347 155.853 10.287C155.853 13.8371 153.596 16.2351 150.258 16.2351ZM150.281 14.0487C151.998 14.0487 153.173 12.9202 153.173 10.287C153.173 7.63037 151.998 6.50188 150.281 6.50188C148.589 6.50188 147.413 7.63037 147.413 10.287C147.413 12.9202 148.589 14.0487 150.281 14.0487ZM161.026 16H158.393V0.248163H161.026V7.4658L160.932 9.67575L162.813 7.60686L165.94 4.55053H169.16L164.529 9.06449L169.16 16H166.081L162.742 10.6397L161.026 12.3324V16Z" fill="white"/>
<path opacity="0.5" d="M80.9153 38.7551H79.3953L78.4513 36.3711H73.1393L72.1953 38.7551H70.6753L74.9793 28.0831H76.6273L80.9153 38.7551ZM78.0673 35.2031L75.7953 29.4431L73.5393 35.2031H78.0673ZM88.651 38.7551H87.451V37.6671C86.859 38.3391 85.851 38.9471 84.699 38.9471C83.083 38.9471 82.235 38.1471 82.235 36.4831V31.0271H83.435V36.1151C83.435 37.4751 84.123 37.8751 85.179 37.8751C86.107 37.8751 87.003 37.3311 87.451 36.7071V31.0271H88.651V38.7551ZM93.1755 38.9471C92.0235 38.9471 91.4475 38.2911 91.4475 37.1391V32.0831H90.1675V31.0271H91.4475V28.9151H92.6635V31.0271H94.2315V32.0831H92.6635V36.8831C92.6635 37.4591 92.9195 37.8751 93.4315 37.8751C93.7835 37.8751 94.0875 37.7151 94.2475 37.5391L94.5995 38.4511C94.2955 38.7391 93.8635 38.9471 93.1755 38.9471ZM99.4466 38.9471C97.0946 38.9471 95.6226 37.1231 95.6226 34.8831C95.6226 32.6431 97.0946 30.8351 99.4466 30.8351C101.799 30.8351 103.271 32.6431 103.271 34.8831C103.271 37.1231 101.799 38.9471 99.4466 38.9471ZM99.4466 37.8751C101.095 37.8751 102.007 36.4671 102.007 34.8831C102.007 33.3151 101.095 31.9071 99.4466 31.9071C97.7986 31.9071 96.8866 33.3151 96.8866 34.8831C96.8866 36.4671 97.7986 37.8751 99.4466 37.8751ZM115.915 38.7551H114.715V33.5071C114.715 32.5311 114.299 31.9071 113.291 31.9071C112.491 31.9071 111.643 32.4671 111.243 33.0911V38.7551H110.043V33.5071C110.043 32.5311 109.643 31.9071 108.619 31.9071C107.835 31.9071 107.003 32.4831 106.587 33.1071V38.7551H105.387V31.0271H106.587V32.1471C106.923 31.6511 107.947 30.8351 109.099 30.8351C110.267 30.8351 110.939 31.4751 111.163 32.2751C111.595 31.5711 112.635 30.8351 113.755 30.8351C115.163 30.8351 115.915 31.6191 115.915 33.1711V38.7551ZM124.501 38.7551H123.301V37.8751C122.677 38.5791 121.781 38.9471 120.741 38.9471C119.445 38.9471 118.053 38.0671 118.053 36.3871C118.053 34.6431 119.429 33.8431 120.741 33.8431C121.797 33.8431 122.677 34.1791 123.301 34.8831V33.4911C123.301 32.4671 122.469 31.8751 121.349 31.8751C120.421 31.8751 119.669 32.1951 118.981 32.9471L118.421 32.1151C119.253 31.2511 120.245 30.8351 121.509 30.8351C123.157 30.8351 124.501 31.5711 124.501 33.4431V38.7551ZM121.189 38.0831C122.021 38.0831 122.837 37.7631 123.301 37.1231V35.6511C122.837 35.0271 122.021 34.7071 121.189 34.7071C120.053 34.7071 119.269 35.4111 119.269 36.3871C119.269 37.3791 120.053 38.0831 121.189 38.0831ZM129.05 38.9471C127.898 38.9471 127.322 38.2911 127.322 37.1391V32.0831H126.042V31.0271H127.322V28.9151H128.538V31.0271H130.106V32.0831H128.538V36.8831C128.538 37.4591 128.794 37.8751 129.306 37.8751C129.658 37.8751 129.962 37.7151 130.122 37.5391L130.474 38.4511C130.17 38.7391 129.738 38.9471 129.05 38.9471ZM135.449 38.9471C133.145 38.9471 131.497 37.2991 131.497 34.8831C131.497 32.6431 133.097 30.8351 135.305 30.8351C137.641 30.8351 139.017 32.6591 139.017 34.9791V35.2831H132.777C132.873 36.7391 133.881 37.9551 135.545 37.9551C136.441 37.9551 137.321 37.6031 137.945 36.9631L138.521 37.7471C137.737 38.5151 136.697 38.9471 135.449 38.9471ZM137.833 34.3871C137.817 33.2511 137.049 31.8271 135.289 31.8271C133.641 31.8271 132.825 33.2191 132.761 34.3871H137.833ZM153.325 38.7551H152.109L150.093 32.5471L148.077 38.7551H146.877L144.413 31.0271H145.661L147.549 37.1871L149.581 31.0271H150.621L152.637 37.1871L154.525 31.0271H155.789L153.325 38.7551ZM160.707 38.9471C158.355 38.9471 156.883 37.1231 156.883 34.8831C156.883 32.6431 158.355 30.8351 160.707 30.8351C163.059 30.8351 164.531 32.6431 164.531 34.8831C164.531 37.1231 163.059 38.9471 160.707 38.9471ZM160.707 37.8751C162.355 37.8751 163.267 36.4671 163.267 34.8831C163.267 33.3151 162.355 31.9071 160.707 31.9071C159.059 31.9071 158.147 33.3151 158.147 34.8831C158.147 36.4671 159.059 37.8751 160.707 37.8751ZM167.848 38.7551H166.648V31.0271H167.848V32.2591C168.472 31.4591 169.368 30.8511 170.424 30.8511V32.0831C170.28 32.0671 170.136 32.0511 169.96 32.0511C169.208 32.0511 168.2 32.6591 167.848 33.2831V38.7551ZM178.889 38.7551H177.353L174.585 35.2831L173.289 36.5471V38.7551H172.089V28.0831H173.289V35.1391L177.353 31.0271H178.873L175.449 34.5311L178.889 38.7551ZM182.004 38.7551H180.804V32.0831H179.524V31.0271H180.804V30.4351C180.804 28.8351 181.716 27.9231 183.044 27.9231C183.508 27.9231 183.908 28.0031 184.228 28.1791L183.924 29.0911C183.732 28.9791 183.524 28.9151 183.236 28.9151C182.436 28.9151 182.004 29.4431 182.004 30.4351V31.0271H183.572V32.0831H182.004V38.7551ZM186.212 38.7551H185.012V28.0831H186.212V38.7551ZM192.144 38.9471C189.792 38.9471 188.32 37.1231 188.32 34.8831C188.32 32.6431 189.792 30.8351 192.144 30.8351C194.496 30.8351 195.968 32.6431 195.968 34.8831C195.968 37.1231 194.496 38.9471 192.144 38.9471ZM192.144 37.8751C193.792 37.8751 194.704 36.4671 194.704 34.8831C194.704 33.3151 193.792 31.9071 192.144 31.9071C190.496 31.9071 189.584 33.3151 189.584 34.8831C189.584 36.4671 190.496 37.8751 192.144 37.8751ZM205.988 38.7551H204.772L202.756 32.5471L200.74 38.7551H199.54L197.076 31.0271H198.324L200.212 37.1871L202.244 31.0271H203.284L205.3 37.1871L207.188 31.0271H208.452L205.988 38.7551ZM212.458 38.9471C211.178 38.9471 210.122 38.5471 209.338 37.7311L209.946 36.8671C210.458 37.4591 211.434 37.9711 212.49 37.9711C213.674 37.9711 214.33 37.4111 214.33 36.6431C214.33 34.7711 209.546 35.9231 209.546 33.0591C209.546 31.8431 210.57 30.8351 212.41 30.8351C213.738 30.8351 214.666 31.3311 215.274 31.9551L214.714 32.7871C214.25 32.2271 213.418 31.8111 212.41 31.8111C211.354 31.8111 210.698 32.3391 210.698 33.0271C210.698 34.7071 215.482 33.6031 215.482 36.6111C215.482 37.9071 214.442 38.9471 212.458 38.9471ZM229.797 38.7551H228.581L226.565 32.5471L224.549 38.7551H223.349L220.885 31.0271H222.133L224.021 37.1871L226.053 31.0271H227.093L229.109 37.1871L230.997 31.0271H232.261L229.797 38.7551ZM234.41 29.9231C233.962 29.9231 233.594 29.5711 233.594 29.1231C233.594 28.6751 233.962 28.3071 234.41 28.3071C234.858 28.3071 235.21 28.6751 235.21 29.1231C235.21 29.5711 234.858 29.9231 234.41 29.9231ZM235.002 38.7551H233.802V31.0271H235.002V38.7551ZM239.524 38.9471C238.372 38.9471 237.796 38.2911 237.796 37.1391V32.0831H236.516V31.0271H237.796V28.9151H239.012V31.0271H240.58V32.0831H239.012V36.8831C239.012 37.4591 239.268 37.8751 239.78 37.8751C240.132 37.8751 240.436 37.7151 240.596 37.5391L240.948 38.4511C240.644 38.7391 240.212 38.9471 239.524 38.9471ZM248.851 38.7551H247.651V33.6671C247.651 32.2911 246.963 31.9071 245.907 31.9071C244.979 31.9071 244.083 32.4831 243.635 33.1071V38.7551H242.435V28.0831H243.635V32.1471C244.163 31.4911 245.219 30.8351 246.387 30.8351C248.003 30.8351 248.851 31.6191 248.851 33.2991V38.7551ZM74.1953 54.9471C72.9153 54.9471 71.8593 54.5471 71.0753 53.7311L71.6833 52.8671C72.1953 53.4591 73.1713 53.9711 74.2273 53.9711C75.4113 53.9711 76.0673 53.4111 76.0673 52.6431C76.0673 50.7711 71.2833 51.9231 71.2833 49.0591C71.2833 47.8431 72.3073 46.8351 74.1473 46.8351C75.4753 46.8351 76.4033 47.3311 77.0113 47.9551L76.4513 48.7871C75.9873 48.2271 75.1553 47.8111 74.1473 47.8111C73.0913 47.8111 72.4353 48.3391 72.4353 49.0271C72.4353 50.7071 77.2193 49.6031 77.2193 52.6111C77.2193 53.9071 76.1793 54.9471 74.1953 54.9471ZM82.8327 54.9471C80.5287 54.9471 78.8807 53.2991 78.8807 50.8831C78.8807 48.6431 80.4807 46.8351 82.6888 46.8351C85.0248 46.8351 86.4008 48.6591 86.4008 50.9791V51.2831H80.1607C80.2567 52.7391 81.2648 53.9551 82.9288 53.9551C83.8247 53.9551 84.7048 53.6031 85.3288 52.9631L85.9048 53.7471C85.1207 54.5151 84.0807 54.9471 82.8327 54.9471ZM85.2168 50.3871C85.2008 49.2511 84.4328 47.8271 82.6727 47.8271C81.0247 47.8271 80.2088 49.2191 80.1447 50.3871H85.2168ZM94.5364 54.7551H93.3364V53.8751C92.7124 54.5791 91.8164 54.9471 90.7764 54.9471C89.4804 54.9471 88.0884 54.0671 88.0884 52.3871C88.0884 50.6431 89.4644 49.8431 90.7764 49.8431C91.8324 49.8431 92.7124 50.1791 93.3364 50.8831V49.4911C93.3364 48.4671 92.5044 47.8751 91.3844 47.8751C90.4564 47.8751 89.7044 48.1951 89.0164 48.9471L88.4564 48.1151C89.2884 47.2511 90.2804 46.8351 91.5444 46.8351C93.1924 46.8351 94.5364 47.5711 94.5364 49.4431V54.7551ZM91.2244 54.0831C92.0564 54.0831 92.8724 53.7631 93.3364 53.1231V51.6511C92.8724 51.0271 92.0564 50.7071 91.2244 50.7071C90.0884 50.7071 89.3044 51.4111 89.3044 52.3871C89.3044 53.3791 90.0884 54.0831 91.2244 54.0831ZM107.646 54.7551H106.446V49.5071C106.446 48.5311 106.03 47.9071 105.021 47.9071C104.222 47.9071 103.373 48.4671 102.973 49.0911V54.7551H101.773V49.5071C101.773 48.5311 101.373 47.9071 100.349 47.9071C99.5655 47.9071 98.7335 48.4831 98.3175 49.1071V54.7551H97.1175V47.0271H98.3175V48.1471C98.6535 47.6511 99.6775 46.8351 100.829 46.8351C101.997 46.8351 102.669 47.4751 102.893 48.2751C103.326 47.5711 104.365 46.8351 105.486 46.8351C106.894 46.8351 107.646 47.6191 107.646 49.1711V54.7551ZM111.399 54.7551H110.199V44.0831H111.399V54.7551ZM117.457 54.9471C115.153 54.9471 113.505 53.2991 113.505 50.8831C113.505 48.6431 115.105 46.8351 117.313 46.8351C119.649 46.8351 121.025 48.6591 121.025 50.9791V51.2831H114.785C114.881 52.7391 115.889 53.9551 117.553 53.9551C118.449 53.9551 119.329 53.6031 119.953 52.9631L120.529 53.7471C119.745 54.5151 118.705 54.9471 117.457 54.9471ZM119.841 50.3871C119.825 49.2511 119.057 47.8271 117.297 47.8271C115.649 47.8271 114.833 49.2191 114.769 50.3871H119.841ZM125.593 54.9471C124.313 54.9471 123.257 54.5471 122.473 53.7311L123.081 52.8671C123.593 53.4591 124.569 53.9711 125.625 53.9711C126.809 53.9711 127.465 53.4111 127.465 52.6431C127.465 50.7711 122.681 51.9231 122.681 49.0591C122.681 47.8431 123.705 46.8351 125.545 46.8351C126.873 46.8351 127.801 47.3311 128.409 47.9551L127.849 48.7871C127.385 48.2271 126.553 47.8111 125.545 47.8111C124.489 47.8111 123.833 48.3391 123.833 49.0271C123.833 50.7071 128.617 49.6031 128.617 52.6111C128.617 53.9071 127.577 54.9471 125.593 54.9471ZM133.19 54.9471C131.91 54.9471 130.854 54.5471 130.07 53.7311L130.678 52.8671C131.19 53.4591 132.166 53.9711 133.222 53.9711C134.406 53.9711 135.062 53.4111 135.062 52.6431C135.062 50.7711 130.278 51.9231 130.278 49.0591C130.278 47.8431 131.302 46.8351 133.142 46.8351C134.47 46.8351 135.398 47.3311 136.006 47.9551L135.446 48.7871C134.982 48.2271 134.15 47.8111 133.142 47.8111C132.086 47.8111 131.43 48.3391 131.43 49.0271C131.43 50.7071 136.214 49.6031 136.214 52.6111C136.214 53.9071 135.174 54.9471 133.19 54.9471ZM143.232 45.9231C142.784 45.9231 142.416 45.5711 142.416 45.1231C142.416 44.6751 142.784 44.3071 143.232 44.3071C143.68 44.3071 144.032 44.6751 144.032 45.1231C144.032 45.5711 143.68 45.9231 143.232 45.9231ZM143.824 54.7551H142.624V47.0271H143.824V54.7551ZM152.794 54.7551H151.61V49.6991C151.61 48.3231 150.906 47.9071 149.866 47.9071C148.922 47.9071 148.042 48.4831 147.578 49.1071V54.7551H146.378V47.0271H147.578V48.1471C148.122 47.4911 149.178 46.8351 150.346 46.8351C151.946 46.8351 152.794 47.6511 152.794 49.3311V54.7551ZM157.334 54.9471C156.182 54.9471 155.606 54.2911 155.606 53.1391V48.0831H154.326V47.0271H155.606V44.9151H156.822V47.0271H158.39V48.0831H156.822V52.8831C156.822 53.4591 157.078 53.8751 157.59 53.8751C157.942 53.8751 158.246 53.7151 158.406 53.5391L158.758 54.4511C158.454 54.7391 158.022 54.9471 157.334 54.9471ZM163.733 54.9471C161.429 54.9471 159.781 53.2991 159.781 50.8831C159.781 48.6431 161.381 46.8351 163.589 46.8351C165.925 46.8351 167.301 48.6591 167.301 50.9791V51.2831H161.061C161.157 52.7391 162.165 53.9551 163.829 53.9551C164.725 53.9551 165.605 53.6031 166.229 52.9631L166.805 53.7471C166.021 54.5151 164.981 54.9471 163.733 54.9471ZM166.117 50.3871C166.101 49.2511 165.333 47.8271 163.573 47.8271C161.925 47.8271 161.109 49.2191 161.045 50.3871H166.117ZM172.509 57.8911C171.213 57.8911 170.317 57.6351 169.389 56.7231L169.997 55.8591C170.637 56.6111 171.405 56.8991 172.509 56.8991C173.789 56.8991 175.005 56.2751 175.005 54.6431V53.4751C174.429 54.2591 173.485 54.8511 172.397 54.8511C170.381 54.8511 168.957 53.3471 168.957 50.8511C168.957 48.3711 170.365 46.8351 172.397 46.8351C173.437 46.8351 174.381 47.3471 175.005 48.1951V47.0271H176.205V54.6431C176.205 57.0911 174.397 57.8911 172.509 57.8911ZM172.701 53.7791C173.645 53.7791 174.573 53.2031 175.005 52.5311V49.1391C174.573 48.4831 173.645 47.9071 172.701 47.9071C171.133 47.9071 170.205 49.1391 170.205 50.8511C170.205 52.5471 171.133 53.7791 172.701 53.7791ZM179.968 54.7551H178.768V47.0271H179.968V48.2591C180.592 47.4591 181.488 46.8511 182.544 46.8511V48.0831C182.4 48.0671 182.256 48.0511 182.08 48.0511C181.328 48.0511 180.32 48.6591 179.968 49.2831V54.7551ZM190.241 54.7551H189.041V53.8751C188.417 54.5791 187.521 54.9471 186.481 54.9471C185.185 54.9471 183.793 54.0671 183.793 52.3871C183.793 50.6431 185.169 49.8431 186.481 49.8431C187.537 49.8431 188.417 50.1791 189.041 50.8831V49.4911C189.041 48.4671 188.209 47.8751 187.089 47.8751C186.161 47.8751 185.409 48.1951 184.721 48.9471L184.161 48.1151C184.993 47.2511 185.985 46.8351 187.249 46.8351C188.897 46.8351 190.241 47.5711 190.241 49.4431V54.7551ZM186.929 54.0831C187.761 54.0831 188.577 53.7631 189.041 53.1231V51.6511C188.577 51.0271 187.761 50.7071 186.929 50.7071C185.793 50.7071 185.009 51.4111 185.009 52.3871C185.009 53.3791 185.793 54.0831 186.929 54.0831ZM194.79 54.9471C193.638 54.9471 193.062 54.2911 193.062 53.1391V48.0831H191.782V47.0271H193.062V44.9151H194.278V47.0271H195.846V48.0831H194.278V52.8831C194.278 53.4591 194.534 53.8751 195.046 53.8751C195.398 53.8751 195.702 53.7151 195.862 53.5391L196.214 54.4511C195.91 54.7391 195.478 54.9471 194.79 54.9471ZM198.294 45.9231C197.846 45.9231 197.478 45.5711 197.478 45.1231C197.478 44.6751 197.846 44.3071 198.294 44.3071C198.742 44.3071 199.094 44.6751 199.094 45.1231C199.094 45.5711 198.742 45.9231 198.294 45.9231ZM198.886 54.7551H197.686V47.0271H198.886V54.7551ZM204.815 54.9471C202.463 54.9471 200.991 53.1231 200.991 50.8831C200.991 48.6431 202.463 46.8351 204.815 46.8351C207.167 46.8351 208.639 48.6431 208.639 50.8831C208.639 53.1231 207.167 54.9471 204.815 54.9471ZM204.815 53.8751C206.463 53.8751 207.375 52.4671 207.375 50.8831C207.375 49.3151 206.463 47.9071 204.815 47.9071C203.167 47.9071 202.255 49.3151 202.255 50.8831C202.255 52.4671 203.167 53.8751 204.815 53.8751ZM217.172 54.7551H215.988V49.6991C215.988 48.3231 215.284 47.9071 214.244 47.9071C213.3 47.9071 212.42 48.4831 211.956 49.1071V54.7551H210.756V47.0271H211.956V48.1471C212.5 47.4911 213.556 46.8351 214.724 46.8351C216.324 46.8351 217.172 47.6511 217.172 49.3311V54.7551ZM220.384 54.9151C219.904 54.9151 219.504 54.5151 219.504 54.0351C219.504 53.5551 219.904 53.1551 220.384 53.1551C220.864 53.1551 221.264 53.5551 221.264 54.0351C221.264 54.5151 220.864 54.9151 220.384 54.9151Z" fill="#F9F2F2"/>
<defs>
<linearGradient id="paint0_linear_3355_920" x1="0" y1="20.389" x2="40.4082" y2="20.389" gradientUnits="userSpaceOnUse">
<stop offset="0.6" stop-color="#4AC29A"/>
<stop offset="1" stop-color="#BDFFF3"/>
</linearGradient>
<linearGradient id="paint1_linear_3355_920" x1="17.5586" y1="32.1559" x2="47.0188" y2="32.1559" gradientUnits="userSpaceOnUse">
<stop offset="0.6" stop-color="#4AC29A"/>
<stop offset="1" stop-color="#BDFFF3"/>
</linearGradient>
<clipPath id="clip0_3355_920">
<rect width="47.02" height="47.02" fill="white"/>
</clipPath>
<clipPath id="clip1_3355_920">
<rect width="24.9794" height="17.6325" fill="white" transform="translate(7.34766 12.2443)"/>
</clipPath>
</defs>
</svg>
