<svg width="291" height="58" viewBox="0 0 291 58" fill="none" xmlns="http://www.w3.org/2000/svg">
<g clip-path="url(#clip0_3355_973)">
<path d="M39.4517 7.78639C37.5706 3.2135 33.0989 0 27.886 0H12.5222C5.60749 0 0 5.65881 0 12.6368V28.1412C0 32.9192 2.62639 37.0738 6.50022 39.2215C8.28569 40.2149 10.3382 40.778 12.5222 40.778H27.886C30.07 40.778 32.1265 40.2149 33.9119 39.2215C36.3909 37.846 38.3597 35.6501 39.4517 32.9916C40.0694 31.4995 40.4082 29.8626 40.4082 28.1412V12.6368C40.4082 10.9154 40.0694 9.27852 39.4517 7.78639Z" fill="url(#paint0_linear_3355_973)"/>
<g clip-path="url(#clip1_3355_973)">
<path d="M21.0293 28H18.4857V12.9182H21.0293V28Z" fill="white"/>
</g>
<path d="M28.5105 47.0208H17.5586V43.8516H28.5105C36.9835 43.8516 43.8783 36.8937 43.8783 28.3432V17.291H47.0188V28.3432C47.0188 38.6432 38.7172 47.0208 28.5105 47.0208Z" fill="url(#paint1_linear_3355_973)"/>
</g>
<path d="M74.7396 16H72.0829V0.248163H74.7396V16ZM80.6871 16H78.054V4.55053H80.6871V7.67739C81.1103 5.8671 82.2858 4.31543 84.5663 4.31543C86.7998 4.31543 88.1634 5.65551 88.1634 8.03004V16H85.5067V8.82939C85.5067 7.41878 85.0365 6.45486 83.2732 6.45486C81.3454 6.45486 80.6871 7.7009 80.6871 9.58171V16ZM95.0276 16.2586C92.2064 16.2586 90.4196 13.9781 90.4196 10.287C90.4196 6.59592 92.2064 4.31543 94.9806 4.31543C97.2611 4.31543 98.272 5.84359 98.6482 7.63037V0.248163H101.281V16H98.6482V12.9672C98.272 14.7304 97.3081 16.2586 95.0276 16.2586ZM93.1233 10.287C93.1233 12.8731 94.3693 14.1192 96.0385 14.1192C97.8723 14.1192 98.6482 12.8967 98.6482 11.0158V9.58171C98.6482 7.7009 97.8723 6.45486 96.015 6.45486C94.3693 6.45486 93.1233 7.72441 93.1233 10.287ZM106.918 2.92833H104.284V0.248163H106.918V2.92833ZM106.918 16H104.284V4.55053H106.918V16ZM114.898 16.2351C111.49 16.2351 109.35 13.8371 109.35 10.287C109.35 6.71347 111.49 4.31543 114.898 4.31543C117.767 4.31543 119.577 5.93763 120.188 8.10057L117.814 9.27608C117.555 7.63037 116.709 6.52539 114.946 6.52539C113.135 6.52539 112.03 7.86547 112.03 10.287C112.03 12.6851 113.135 14.0251 114.946 14.0251C116.732 14.0251 117.555 12.9202 117.814 11.2744L120.188 12.45C119.577 14.6129 117.767 16.2351 114.898 16.2351ZM125.015 16.2351C123.135 16.2351 122.006 15.1771 122.006 13.5314C122.006 11.9092 123.135 10.9218 124.992 10.193L128.824 8.57078C128.73 7.41878 128.213 6.64294 126.638 6.64294C125.109 6.64294 123.91 7.53633 123.252 8.73535L121.677 6.85453C122.57 5.632 124.357 4.31543 126.896 4.31543C129.741 4.31543 131.34 5.93763 131.34 8.75886V13.0612C131.34 13.5784 131.528 13.743 131.951 13.743H132.68V16H131.058C129.835 16 128.871 15.4358 128.871 13.79V12.9437C128.518 14.4483 127.413 16.2351 125.015 16.2351ZM124.545 13.1318C124.545 13.79 124.992 14.1897 125.956 14.1897C127.696 14.1897 128.871 13.1553 128.871 11.6036V10.3811L125.932 11.6976C124.945 12.1443 124.545 12.544 124.545 13.1318ZM138.768 16.2586C136.605 16.2586 135.359 14.895 135.359 12.8731V6.59592H133.572V4.55053H135.359V3.16343L137.992 1.4942V4.55053H141.495V6.59592H137.992V12.2384C137.992 13.4844 138.58 13.79 139.356 13.79C140.249 13.79 140.907 13.0612 141.236 12.4029L142.059 14.754C141.565 15.4828 140.437 16.2586 138.768 16.2586ZM148.134 16.2351C144.842 16.2351 142.585 13.8371 142.585 10.287C142.585 6.71347 144.842 4.31543 148.134 4.31543C151.472 4.31543 153.729 6.71347 153.729 10.287C153.729 13.8371 151.472 16.2351 148.134 16.2351ZM148.157 14.0487C149.873 14.0487 151.049 12.9202 151.049 10.287C151.049 7.63037 149.873 6.50188 148.157 6.50188C146.464 6.50188 145.289 7.63037 145.289 10.287C145.289 12.9202 146.464 14.0487 148.157 14.0487ZM158.856 16H156.223V4.55053H158.856V7.79494C159.279 5.96114 160.431 4.31543 162.476 4.31543C163.91 4.31543 164.968 5.25584 164.968 6.94857C164.968 8.05355 164.663 8.87641 164.451 9.22906H161.748C162.124 8.8529 162.476 8.10057 162.476 7.44229C162.476 6.80751 162.171 6.29029 161.395 6.29029C160.078 6.29029 158.856 7.79494 158.856 9.69927V16ZM171.354 16.2351C168.909 16.2351 166.676 15.2477 165.806 13.4374L167.357 11.7917C167.992 12.9437 169.403 14.1192 171.448 14.1192C172.577 14.1192 173.306 13.7195 173.306 12.8967C173.306 12.0503 172.436 11.7682 171.166 11.4625L169.638 11.0864C167.828 10.6632 166.158 9.86384 166.158 7.77143C166.158 5.632 167.875 4.33894 170.508 4.33894C172.953 4.33894 174.669 5.51445 175.374 6.80751L173.823 8.45322C173.023 7.18367 171.801 6.43135 170.32 6.43135C169.309 6.43135 168.627 6.85453 168.627 7.63037C168.627 8.45322 169.238 8.75886 170.79 9.15853L172.177 9.51118C174.74 10.1695 175.68 11.2039 175.68 12.8496C175.68 15.1066 173.776 16.2351 171.354 16.2351Z" fill="white"/>
<path opacity="0.5" d="M75.4273 38.7551H71.7793V28.0831H75.4273C78.7552 28.0831 80.8993 30.4031 80.8993 33.4271C80.8993 36.4671 78.7552 38.7551 75.4273 38.7551ZM75.4273 37.5711C78.0193 37.5711 79.5233 35.7151 79.5233 33.4271C79.5233 31.1231 78.0673 29.2671 75.4273 29.2671H73.1073V37.5711H75.4273ZM86.5984 38.9471C84.2944 38.9471 82.6464 37.2991 82.6464 34.8831C82.6464 32.6431 84.2464 30.8351 86.4544 30.8351C88.7904 30.8351 90.1664 32.6591 90.1664 34.9791V35.2831H83.9264C84.0224 36.7391 85.0304 37.9551 86.6944 37.9551C87.5904 37.9551 88.4704 37.6031 89.0944 36.9631L89.6704 37.7471C88.8864 38.5151 87.8464 38.9471 86.5984 38.9471ZM88.9824 34.3871C88.9664 33.2511 88.1984 31.8271 86.4384 31.8271C84.7904 31.8271 83.9744 33.2191 83.9104 34.3871H88.9824ZM95.678 38.9471C93.374 38.9471 91.822 37.1711 91.822 34.8831C91.822 32.5951 93.374 30.8351 95.678 30.8351C97.086 30.8351 97.918 31.4111 98.51 32.1791L97.71 32.8991C97.198 32.1951 96.542 31.9071 95.742 31.9071C94.11 31.9071 93.07 33.1711 93.07 34.8831C93.07 36.5951 94.11 37.8751 95.742 37.8751C96.542 37.8751 97.198 37.5551 97.71 36.8671L98.51 37.6031C97.918 38.3711 97.086 38.9471 95.678 38.9471ZM103.743 38.9471C101.391 38.9471 99.9195 37.1231 99.9195 34.8831C99.9195 32.6431 101.391 30.8351 103.743 30.8351C106.095 30.8351 107.568 32.6431 107.568 34.8831C107.568 37.1231 106.095 38.9471 103.743 38.9471ZM103.743 37.8751C105.391 37.8751 106.303 36.4671 106.303 34.8831C106.303 33.3151 105.391 31.9071 103.743 31.9071C102.095 31.9071 101.183 33.3151 101.183 34.8831C101.183 36.4671 102.095 37.8751 103.743 37.8751ZM116.484 38.7551H115.284V37.6031C114.708 38.3871 113.764 38.9471 112.676 38.9471C110.66 38.9471 109.236 37.4111 109.236 34.8991C109.236 32.4191 110.66 30.8351 112.676 30.8351C113.716 30.8351 114.66 31.3471 115.284 32.1951V28.0831H116.484V38.7551ZM112.98 37.8751C113.924 37.8751 114.868 37.3151 115.284 36.6431V33.1551C114.868 32.4831 113.924 31.9071 112.98 31.9071C111.412 31.9071 110.484 33.1871 110.484 34.8991C110.484 36.6111 111.412 37.8751 112.98 37.8751ZM122.551 38.9471C120.247 38.9471 118.599 37.2991 118.599 34.8831C118.599 32.6431 120.199 30.8351 122.407 30.8351C124.743 30.8351 126.119 32.6591 126.119 34.9791V35.2831H119.879C119.975 36.7391 120.983 37.9551 122.647 37.9551C123.543 37.9551 124.423 37.6031 125.047 36.9631L125.623 37.7471C124.839 38.5151 123.799 38.9471 122.551 38.9471ZM124.935 34.3871C124.919 33.2511 124.151 31.8271 122.391 31.8271C120.743 31.8271 119.927 33.2191 119.863 34.3871H124.935ZM134.491 38.9471C133.339 38.9471 132.763 38.2911 132.763 37.1391V32.0831H131.483V31.0271H132.763V28.9151H133.979V31.0271H135.547V32.0831H133.979V36.8831C133.979 37.4591 134.235 37.8751 134.747 37.8751C135.099 37.8751 135.403 37.7151 135.563 37.5391L135.915 38.4511C135.611 38.7391 135.179 38.9471 134.491 38.9471ZM138.586 38.7551H137.386V31.0271H138.586V32.2591C139.21 31.4591 140.106 30.8511 141.162 30.8511V32.0831C141.018 32.0671 140.874 32.0511 140.698 32.0511C139.946 32.0511 138.938 32.6591 138.586 33.2831V38.7551ZM146.332 38.9471C144.028 38.9471 142.38 37.2991 142.38 34.8831C142.38 32.6431 143.98 30.8351 146.188 30.8351C148.524 30.8351 149.9 32.6591 149.9 34.9791V35.2831H143.66C143.756 36.7391 144.764 37.9551 146.428 37.9551C147.324 37.9551 148.204 37.6031 148.828 36.9631L149.404 37.7471C148.62 38.5151 147.58 38.9471 146.332 38.9471ZM148.716 34.3871C148.7 33.2511 147.932 31.8271 146.172 31.8271C144.524 31.8271 143.708 33.2191 143.644 34.3871H148.716ZM158.419 38.7551H157.235V33.6991C157.235 32.3231 156.531 31.9071 155.491 31.9071C154.547 31.9071 153.667 32.4831 153.203 33.1071V38.7551H152.003V31.0271H153.203V32.1471C153.747 31.4911 154.803 30.8351 155.971 30.8351C157.571 30.8351 158.419 31.6511 158.419 33.3311V38.7551ZM167.791 38.7551H166.591V37.6031C166.015 38.3871 165.071 38.9471 163.983 38.9471C161.967 38.9471 160.543 37.4111 160.543 34.8991C160.543 32.4191 161.967 30.8351 163.983 30.8351C165.023 30.8351 165.967 31.3471 166.591 32.1951V28.0831H167.791V38.7551ZM164.287 37.8751C165.231 37.8751 166.175 37.3151 166.591 36.6431V33.1551C166.175 32.4831 165.231 31.9071 164.287 31.9071C162.719 31.9071 161.791 33.1871 161.791 34.8991C161.791 36.6111 162.719 37.8751 164.287 37.8751ZM172.818 38.9471C171.538 38.9471 170.482 38.5471 169.698 37.7311L170.306 36.8671C170.818 37.4591 171.794 37.9711 172.85 37.9711C174.034 37.9711 174.69 37.4111 174.69 36.6431C174.69 34.7711 169.906 35.9231 169.906 33.0591C169.906 31.8431 170.93 30.8351 172.77 30.8351C174.098 30.8351 175.026 31.3311 175.634 31.9551L175.074 32.7871C174.61 32.2271 173.778 31.8111 172.77 31.8111C171.714 31.8111 171.058 32.3391 171.058 33.0271C171.058 34.7071 175.842 33.6031 175.842 36.6111C175.842 37.9071 174.802 38.9471 172.818 38.9471ZM190.156 38.7551H188.94L186.924 32.5471L184.908 38.7551H183.708L181.244 31.0271H182.492L184.38 37.1871L186.412 31.0271H187.452L189.468 37.1871L191.356 31.0271H192.62L190.156 38.7551ZM194.771 29.9231C194.323 29.9231 193.955 29.5711 193.955 29.1231C193.955 28.6751 194.323 28.3071 194.771 28.3071C195.219 28.3071 195.571 28.6751 195.571 29.1231C195.571 29.5711 195.219 29.9231 194.771 29.9231ZM195.363 38.7551H194.163V31.0271H195.363V38.7551ZM199.884 38.9471C198.732 38.9471 198.156 38.2911 198.156 37.1391V32.0831H196.876V31.0271H198.156V28.9151H199.372V31.0271H200.94V32.0831H199.372V36.8831C199.372 37.4591 199.628 37.8751 200.14 37.8751C200.492 37.8751 200.796 37.7151 200.956 37.5391L201.308 38.4511C201.004 38.7391 200.572 38.9471 199.884 38.9471ZM209.211 38.7551H208.011V33.6671C208.011 32.2911 207.323 31.9071 206.267 31.9071C205.339 31.9071 204.443 32.4831 203.995 33.1071V38.7551H202.795V28.0831H203.995V32.1471C204.523 31.4911 205.579 30.8351 206.747 30.8351C208.363 30.8351 209.211 31.6191 209.211 33.2991V38.7551ZM218.532 38.9471C217.252 38.9471 216.196 38.5471 215.412 37.7311L216.02 36.8671C216.532 37.4591 217.508 37.9711 218.564 37.9711C219.748 37.9711 220.404 37.4111 220.404 36.6431C220.404 34.7711 215.62 35.9231 215.62 33.0591C215.62 31.8431 216.644 30.8351 218.484 30.8351C219.812 30.8351 220.74 31.3311 221.348 31.9551L220.788 32.7871C220.324 32.2271 219.492 31.8111 218.484 31.8111C217.428 31.8111 216.772 32.3391 216.772 33.0271C216.772 34.7071 221.556 33.6031 221.556 36.6111C221.556 37.9071 220.516 38.9471 218.532 38.9471ZM234.194 38.7551H232.994V33.5071C232.994 32.5311 232.578 31.9071 231.57 31.9071C230.77 31.9071 229.922 32.4671 229.522 33.0911V38.7551H228.322V33.5071C228.322 32.5311 227.922 31.9071 226.898 31.9071C226.114 31.9071 225.282 32.4831 224.866 33.1071V38.7551H223.666V31.0271H224.866V32.1471C225.202 31.6511 226.226 30.8351 227.378 30.8351C228.546 30.8351 229.218 31.4751 229.442 32.2751C229.874 31.5711 230.914 30.8351 232.034 30.8351C233.442 30.8351 234.194 31.6191 234.194 33.1711V38.7551ZM242.78 38.7551H241.58V37.8751C240.956 38.5791 240.06 38.9471 239.02 38.9471C237.724 38.9471 236.332 38.0671 236.332 36.3871C236.332 34.6431 237.708 33.8431 239.02 33.8431C240.076 33.8431 240.956 34.1791 241.58 34.8831V33.4911C241.58 32.4671 240.748 31.8751 239.628 31.8751C238.7 31.8751 237.948 32.1951 237.26 32.9471L236.7 32.1151C237.532 31.2511 238.524 30.8351 239.788 30.8351C241.436 30.8351 242.78 31.5711 242.78 33.4431V38.7551ZM239.468 38.0831C240.3 38.0831 241.116 37.7631 241.58 37.1231V35.6511C241.116 35.0271 240.3 34.7071 239.468 34.7071C238.332 34.7071 237.548 35.4111 237.548 36.3871C237.548 37.3791 238.332 38.0831 239.468 38.0831ZM246.561 38.7551H245.361V31.0271H246.561V32.2591C247.185 31.4591 248.081 30.8511 249.137 30.8511V32.0831C248.993 32.0671 248.849 32.0511 248.673 32.0511C247.921 32.0511 246.913 32.6591 246.561 33.2831V38.7551ZM252.77 38.9471C251.618 38.9471 251.042 38.2911 251.042 37.1391V32.0831H249.762V31.0271H251.042V28.9151H252.258V31.0271H253.826V32.0831H252.258V36.8831C252.258 37.4591 252.514 37.8751 253.026 37.8751C253.378 37.8751 253.682 37.7151 253.842 37.5391L254.194 38.4511C253.89 38.7391 253.458 38.9471 252.77 38.9471ZM72.3393 45.9231C71.8913 45.9231 71.5233 45.5711 71.5233 45.1231C71.5233 44.6751 71.8913 44.3071 72.3393 44.3071C72.7873 44.3071 73.1393 44.6751 73.1393 45.1231C73.1393 45.5711 72.7873 45.9231 72.3393 45.9231ZM72.9313 54.7551H71.7313V47.0271H72.9313V54.7551ZM81.901 54.7551H80.717V49.6991C80.717 48.3231 80.013 47.9071 78.973 47.9071C78.029 47.9071 77.149 48.4831 76.685 49.1071V54.7551H75.485V47.0271H76.685V48.1471C77.229 47.4911 78.285 46.8351 79.453 46.8351C81.053 46.8351 81.901 47.6511 81.901 49.3311V54.7551ZM86.9371 54.9471C85.6571 54.9471 84.6011 54.5471 83.8171 53.7311L84.4251 52.8671C84.9371 53.4591 85.9131 53.9711 86.9691 53.9711C88.1531 53.9711 88.8091 53.4111 88.8091 52.6431C88.8091 50.7711 84.0251 51.9231 84.0251 49.0591C84.0251 47.8431 85.0491 46.8351 86.8891 46.8351C88.2171 46.8351 89.1451 47.3311 89.7531 47.9551L89.1931 48.7871C88.7291 48.2271 87.8971 47.8111 86.8891 47.8111C85.8331 47.8111 85.1771 48.3391 85.1771 49.0271C85.1771 50.7071 89.9611 49.6031 89.9611 52.6111C89.9611 53.9071 88.9211 54.9471 86.9371 54.9471ZM92.6786 45.9231C92.2306 45.9231 91.8626 45.5711 91.8626 45.1231C91.8626 44.6751 92.2306 44.3071 92.6786 44.3071C93.1266 44.3071 93.4786 44.6751 93.4786 45.1231C93.4786 45.5711 93.1266 45.9231 92.6786 45.9231ZM93.2706 54.7551H92.0706V47.0271H93.2706V54.7551ZM98.9284 57.8911C97.6324 57.8911 96.7364 57.6351 95.8084 56.7231L96.4164 55.8591C97.0564 56.6111 97.8244 56.8991 98.9284 56.8991C100.208 56.8991 101.424 56.2751 101.424 54.6431V53.4751C100.848 54.2591 99.9044 54.8511 98.8164 54.8511C96.8004 54.8511 95.3764 53.3471 95.3764 50.8511C95.3764 48.3711 96.7844 46.8351 98.8164 46.8351C99.8564 46.8351 100.8 47.3471 101.424 48.1951V47.0271H102.624V54.6431C102.624 57.0911 100.816 57.8911 98.9284 57.8911ZM99.1204 53.7791C100.064 53.7791 100.992 53.2031 101.424 52.5311V49.1391C100.992 48.4831 100.064 47.9071 99.1204 47.9071C97.5524 47.9071 96.6244 49.1391 96.6244 50.8511C96.6244 52.5471 97.5524 53.7791 99.1204 53.7791ZM111.619 54.7551H110.419V49.6671C110.419 48.2911 109.731 47.9071 108.675 47.9071C107.747 47.9071 106.851 48.4831 106.403 49.1071V54.7551H105.203V44.0831H106.403V48.1471C106.931 47.4911 107.987 46.8351 109.155 46.8351C110.771 46.8351 111.619 47.6191 111.619 49.2991V54.7551ZM116.144 54.9471C114.992 54.9471 114.416 54.2911 114.416 53.1391V48.0831H113.136V47.0271H114.416V44.9151H115.632V47.0271H117.2V48.0831H115.632V52.8831C115.632 53.4591 115.888 53.8751 116.4 53.8751C116.752 53.8751 117.056 53.7151 117.216 53.5391L117.568 54.4511C117.264 54.7391 116.832 54.9471 116.144 54.9471ZM121.503 54.9471C120.223 54.9471 119.167 54.5471 118.383 53.7311L118.991 52.8671C119.503 53.4591 120.479 53.9711 121.535 53.9711C122.719 53.9711 123.375 53.4111 123.375 52.6431C123.375 50.7711 118.591 51.9231 118.591 49.0591C118.591 47.8431 119.615 46.8351 121.455 46.8351C122.783 46.8351 123.711 47.3311 124.319 47.9551L123.759 48.7871C123.295 48.2271 122.463 47.8111 121.455 47.8111C120.399 47.8111 119.743 48.3391 119.743 49.0271C119.743 50.7071 124.527 49.6031 124.527 52.6111C124.527 53.9071 123.487 54.9471 121.503 54.9471ZM127.276 54.9151C126.796 54.9151 126.396 54.5151 126.396 54.0351C126.396 53.5551 126.796 53.1551 127.276 53.1551C127.756 53.1551 128.156 53.5551 128.156 54.0351C128.156 54.5151 127.756 54.9151 127.276 54.9151Z" fill="#F9F2F2"/>
<defs>
<linearGradient id="paint0_linear_3355_973" x1="0" y1="20.389" x2="40.4082" y2="20.389" gradientUnits="userSpaceOnUse">
<stop stop-color="#1D6B83"/>
<stop offset="1" stop-color="#40B0E8"/>
</linearGradient>
<linearGradient id="paint1_linear_3355_973" x1="17.5586" y1="32.1559" x2="47.0188" y2="32.1559" gradientUnits="userSpaceOnUse">
<stop stop-color="#1D6B83"/>
<stop offset="1" stop-color="#40B0E8"/>
</linearGradient>
<clipPath id="clip0_3355_973">
<rect width="47.02" height="47.02" fill="white"/>
</clipPath>
<clipPath id="clip1_3355_973">
<rect width="24.9794" height="17.6325" fill="white" transform="translate(7.34766 12.2443)"/>
</clipPath>
</defs>
</svg>
