<svg width="291" height="58" viewBox="0 0 291 58" fill="none" xmlns="http://www.w3.org/2000/svg">
<g clip-path="url(#clip0_3355_937)">
<path d="M39.4517 7.78639C37.5706 3.2135 33.0989 0 27.886 0H12.5222C5.60749 0 0 5.65881 0 12.6368V28.1412C0 32.9192 2.62639 37.0738 6.50022 39.2215C8.28569 40.2149 10.3382 40.778 12.5222 40.778H27.886C30.07 40.778 32.1265 40.2149 33.9119 39.2215C36.3909 37.846 38.3597 35.6501 39.4517 32.9916C40.0694 31.4995 40.4082 29.8626 40.4082 28.1412V12.6368C40.4082 10.9154 40.0694 9.27852 39.4517 7.78639Z" fill="url(#paint0_linear_3355_937)"/>
<g clip-path="url(#clip1_3355_937)">
<path d="M15.6535 28.2251C12.7722 28.2251 10.1385 27.1896 8.96794 24.646L10.7688 22.8227C11.5791 25.0287 13.8527 25.884 15.6985 25.884C17.2067 25.884 18.4222 25.3438 18.4222 23.9707C18.4222 22.5075 17.2067 22.1023 15.2483 21.6746L13.8301 21.3595C11.6917 20.9093 9.41814 19.9413 9.41814 17.0826C9.41814 14.2463 11.8718 12.7156 14.708 12.7156C17.4768 12.7156 19.6828 13.8636 20.7633 15.9345L18.8499 17.7579C18.017 15.8895 16.3963 15.0791 14.5505 15.0791C13.1098 15.0791 12.0743 15.7544 12.0743 16.9025C12.0743 18.2306 13.1098 18.7033 14.7531 19.1085L16.4413 19.5137C18.8499 20.0989 21.0109 21.0443 21.0109 23.9257C21.0109 26.6494 18.7149 28.2251 15.6535 28.2251ZM26.7081 28.2251C23.4441 28.2251 21.3957 25.9291 21.3957 22.53C21.3957 19.1085 23.4441 16.8124 26.7081 16.8124C29.4543 16.8124 31.1876 18.3656 31.7729 20.4366L29.4994 21.5621C29.2517 19.9864 28.4414 18.9284 26.7531 18.9284C25.0198 18.9284 23.9618 20.2115 23.9618 22.53C23.9618 24.8261 25.0198 26.1091 26.7531 26.1091C28.4639 26.1091 29.2517 25.0512 29.4994 23.4754L31.7729 24.601C31.1876 26.6719 29.4543 28.2251 26.7081 28.2251Z" fill="white"/>
</g>
<path d="M28.5105 47.0208H17.5586V43.8516H28.5105C36.9835 43.8516 43.8783 36.8937 43.8783 28.3432V17.291H47.0188V28.3432C47.0188 38.6432 38.7172 47.0208 28.5105 47.0208Z" fill="url(#paint1_linear_3355_937)"/>
</g>
<path d="M78.5247 16.2351C75.5154 16.2351 72.7647 15.1536 71.5422 12.497L73.423 10.5927C74.2694 12.8967 76.6439 13.79 78.5717 13.79C80.1469 13.79 81.4165 13.2258 81.4165 11.7917C81.4165 10.2635 80.1469 9.84033 78.1015 9.39363L76.6204 9.06449C74.3869 8.59428 72.0124 7.58335 72.0124 4.59755C72.0124 1.63527 74.575 0.0365708 77.5373 0.0365708C80.429 0.0365708 82.733 1.23559 83.8615 3.39853L81.8632 5.30286C80.9933 3.35151 79.3006 2.50514 77.3727 2.50514C75.8681 2.50514 74.7866 3.21045 74.7866 4.40947C74.7866 5.79657 75.8681 6.29029 77.5843 6.71347L79.3476 7.13665C81.8632 7.74792 84.1201 8.73535 84.1201 11.7447C84.1201 14.5894 81.7221 16.2351 78.5247 16.2351ZM91.7161 16.2351C88.3072 16.2351 86.1677 13.8371 86.1677 10.287C86.1677 6.71347 88.3072 4.31543 91.7161 4.31543C94.5844 4.31543 96.3947 5.93763 97.0059 8.10057L94.6314 9.27608C94.3728 7.63037 93.5264 6.52539 91.7632 6.52539C89.9529 6.52539 88.8479 7.86547 88.8479 10.287C88.8479 12.6851 89.9529 14.0251 91.7632 14.0251C93.5499 14.0251 94.3728 12.9202 94.6314 11.2744L97.0059 12.45C96.3947 14.6129 94.5844 16.2351 91.7161 16.2351ZM101.654 16H99.0212V4.55053H101.654V7.79494C102.078 5.96114 103.23 4.31543 105.275 4.31543C106.709 4.31543 107.767 5.25584 107.767 6.94857C107.767 8.05355 107.461 8.87641 107.25 9.22906H104.546C104.922 8.8529 105.275 8.10057 105.275 7.44229C105.275 6.80751 104.969 6.29029 104.193 6.29029C102.877 6.29029 101.654 7.79494 101.654 9.69927V16ZM114.551 16.2351C111.142 16.2351 108.909 13.8606 108.909 10.287C108.909 6.68996 111.142 4.31543 114.363 4.31543C117.796 4.31543 119.7 6.59592 119.7 9.7698C119.7 10.193 119.653 10.6867 119.606 10.9218H111.424C111.566 12.9672 112.765 14.0722 114.575 14.0722C116.573 14.0722 117.467 13.0377 117.89 12.0738L119.512 13.7665C118.642 15.0831 117.09 16.2351 114.551 16.2351ZM114.363 6.43135C112.741 6.43135 111.66 7.37175 111.448 9.22906H117.326C117.137 7.41878 116.103 6.43135 114.363 6.43135ZM127.552 16.2351C124.143 16.2351 121.909 13.8606 121.909 10.287C121.909 6.68996 124.143 4.31543 127.364 4.31543C130.796 4.31543 132.7 6.59592 132.7 9.7698C132.7 10.193 132.653 10.6867 132.606 10.9218H124.425C124.566 12.9672 125.765 14.0722 127.575 14.0722C129.574 14.0722 130.467 13.0377 130.89 12.0738L132.512 13.7665C131.643 15.0831 130.091 16.2351 127.552 16.2351ZM127.364 6.43135C125.741 6.43135 124.66 7.37175 124.448 9.22906H130.326C130.138 7.41878 129.103 6.43135 127.364 6.43135ZM137.878 16H135.244V4.55053H137.878V7.67739C138.301 5.8671 139.476 4.31543 141.757 4.31543C143.99 4.31543 145.354 5.65551 145.354 8.03004V16H142.697V8.82939C142.697 7.41878 142.227 6.45486 140.464 6.45486C138.536 6.45486 137.878 7.7009 137.878 9.58171V16ZM153.323 16.2351C149.914 16.2351 147.681 13.8606 147.681 10.287C147.681 6.68996 149.914 4.31543 153.135 4.31543C156.567 4.31543 158.472 6.59592 158.472 9.7698C158.472 10.193 158.425 10.6867 158.378 10.9218H150.196C150.337 12.9672 151.536 14.0722 153.346 14.0722C155.345 14.0722 156.238 13.0377 156.661 12.0738L158.284 13.7665C157.414 15.0831 155.862 16.2351 153.323 16.2351ZM153.135 6.43135C151.513 6.43135 150.431 7.37175 150.22 9.22906H156.097C155.909 7.41878 154.875 6.43135 153.135 6.43135ZM163.649 16H161.016V4.55053H163.649V7.79494C164.072 5.96114 165.224 4.31543 167.269 4.31543C168.703 4.31543 169.761 5.25584 169.761 6.94857C169.761 8.05355 169.456 8.87641 169.244 9.22906H166.54C166.917 8.8529 167.269 8.10057 167.269 7.44229C167.269 6.80751 166.964 6.29029 166.188 6.29029C164.871 6.29029 163.649 7.79494 163.649 9.69927V16ZM176.147 16.2351C173.702 16.2351 171.469 15.2477 170.599 13.4374L172.15 11.7917C172.785 12.9437 174.196 14.1192 176.241 14.1192C177.37 14.1192 178.099 13.7195 178.099 12.8967C178.099 12.0503 177.229 11.7682 175.959 11.4625L174.431 11.0864C172.621 10.6632 170.951 9.86384 170.951 7.77143C170.951 5.632 172.668 4.33894 175.301 4.33894C177.746 4.33894 179.462 5.51445 180.167 6.80751L178.616 8.45322C177.816 7.18367 176.594 6.43135 175.113 6.43135C174.102 6.43135 173.42 6.85453 173.42 7.63037C173.42 8.45322 174.031 8.75886 175.583 9.15853L176.97 9.51118C179.533 10.1695 180.473 11.2039 180.473 12.8496C180.473 15.1066 178.569 16.2351 176.147 16.2351Z" fill="white"/>
<path opacity="0.5" d="M75.4273 38.7551H71.7793V28.0831H75.4273C78.7552 28.0831 80.8993 30.4031 80.8993 33.4271C80.8993 36.4671 78.7552 38.7551 75.4273 38.7551ZM75.4273 37.5711C78.0193 37.5711 79.5233 35.7151 79.5233 33.4271C79.5233 31.1231 78.0673 29.2671 75.4273 29.2671H73.1073V37.5711H75.4273ZM83.7024 29.9231C83.2544 29.9231 82.8864 29.5711 82.8864 29.1231C82.8864 28.6751 83.2544 28.3071 83.7024 28.3071C84.1504 28.3071 84.5024 28.6751 84.5024 29.1231C84.5024 29.5711 84.1504 29.9231 83.7024 29.9231ZM84.2944 38.7551H83.0944V31.0271H84.2944V38.7551ZM89.3121 38.9471C88.0321 38.9471 86.9761 38.5471 86.1921 37.7311L86.8001 36.8671C87.3121 37.4591 88.2881 37.9711 89.3441 37.9711C90.5281 37.9711 91.1841 37.4111 91.1841 36.6431C91.1841 34.7711 86.4001 35.9231 86.4001 33.0591C86.4001 31.8431 87.4241 30.8351 89.2641 30.8351C90.5921 30.8351 91.5201 31.3311 92.1281 31.9551L91.5681 32.7871C91.1041 32.2271 90.2721 31.8111 89.2641 31.8111C88.2081 31.8111 87.5521 32.3391 87.5521 33.0271C87.5521 34.7071 92.3361 33.6031 92.3361 36.6111C92.3361 37.9071 91.2961 38.9471 89.3121 38.9471ZM97.8536 38.9471C95.5496 38.9471 93.9976 37.1711 93.9976 34.8831C93.9976 32.5951 95.5496 30.8351 97.8536 30.8351C99.2616 30.8351 100.094 31.4111 100.686 32.1791L99.8856 32.8991C99.3736 32.1951 98.7176 31.9071 97.9176 31.9071C96.2856 31.9071 95.2456 33.1711 95.2456 34.8831C95.2456 36.5951 96.2856 37.8751 97.9176 37.8751C98.7176 37.8751 99.3736 37.5551 99.8856 36.8671L100.686 37.6031C100.094 38.3711 99.2616 38.9471 97.8536 38.9471ZM105.919 38.9471C103.567 38.9471 102.095 37.1231 102.095 34.8831C102.095 32.6431 103.567 30.8351 105.919 30.8351C108.271 30.8351 109.743 32.6431 109.743 34.8831C109.743 37.1231 108.271 38.9471 105.919 38.9471ZM105.919 37.8751C107.567 37.8751 108.479 36.4671 108.479 34.8831C108.479 33.3151 107.567 31.9071 105.919 31.9071C104.271 31.9071 103.359 33.3151 103.359 34.8831C103.359 36.4671 104.271 37.8751 105.919 37.8751ZM115.235 38.7551H113.923L110.707 31.0271H112.019L114.579 37.3631L117.155 31.0271H118.451L115.235 38.7551ZM123.367 38.9471C121.063 38.9471 119.415 37.2991 119.415 34.8831C119.415 32.6431 121.015 30.8351 123.223 30.8351C125.559 30.8351 126.935 32.6591 126.935 34.9791V35.2831H120.695C120.791 36.7391 121.799 37.9551 123.463 37.9551C124.359 37.9551 125.239 37.6031 125.863 36.9631L126.439 37.7471C125.655 38.5151 124.615 38.9471 123.367 38.9471ZM125.751 34.3871C125.735 33.2511 124.967 31.8271 123.207 31.8271C121.559 31.8271 120.743 33.2191 120.679 34.3871H125.751ZM130.239 38.7551H129.039V31.0271H130.239V32.2591C130.863 31.4591 131.759 30.8511 132.815 30.8511V32.0831C132.671 32.0671 132.527 32.0511 132.351 32.0511C131.599 32.0511 130.591 32.6591 130.239 33.2831V38.7551ZM140.749 38.9471C139.597 38.9471 139.021 38.2911 139.021 37.1391V32.0831H137.741V31.0271H139.021V28.9151H140.237V31.0271H141.805V32.0831H140.237V36.8831C140.237 37.4591 140.493 37.8751 141.005 37.8751C141.357 37.8751 141.661 37.7151 141.821 37.5391L142.173 38.4511C141.869 38.7391 141.437 38.9471 140.749 38.9471ZM144.844 38.7551H143.644V31.0271H144.844V32.2591C145.468 31.4591 146.364 30.8511 147.42 30.8511V32.0831C147.276 32.0671 147.132 32.0511 146.956 32.0511C146.204 32.0511 145.196 32.6591 144.844 33.2831V38.7551ZM155.117 38.7551H153.917V37.8751C153.293 38.5791 152.397 38.9471 151.357 38.9471C150.061 38.9471 148.669 38.0671 148.669 36.3871C148.669 34.6431 150.045 33.8431 151.357 33.8431C152.413 33.8431 153.293 34.1791 153.917 34.8831V33.4911C153.917 32.4671 153.085 31.8751 151.965 31.8751C151.037 31.8751 150.285 32.1951 149.597 32.9471L149.037 32.1151C149.869 31.2511 150.861 30.8351 152.125 30.8351C153.773 30.8351 155.117 31.5711 155.117 33.4431V38.7551ZM151.805 38.0831C152.637 38.0831 153.453 37.7631 153.917 37.1231V35.6511C153.453 35.0271 152.637 34.7071 151.805 34.7071C150.669 34.7071 149.885 35.4111 149.885 36.3871C149.885 37.3791 150.669 38.0831 151.805 38.0831ZM164.498 38.7551H163.298V37.6031C162.722 38.3871 161.778 38.9471 160.69 38.9471C158.674 38.9471 157.25 37.4111 157.25 34.8991C157.25 32.4191 158.674 30.8351 160.69 30.8351C161.73 30.8351 162.674 31.3471 163.298 32.1951V28.0831H164.498V38.7551ZM160.994 37.8751C161.938 37.8751 162.882 37.3151 163.298 36.6431V33.1551C162.882 32.4831 161.938 31.9071 160.994 31.9071C159.426 31.9071 158.498 33.1871 158.498 34.8991C158.498 36.6111 159.426 37.8751 160.994 37.8751ZM167.669 29.9231C167.221 29.9231 166.853 29.5711 166.853 29.1231C166.853 28.6751 167.221 28.3071 167.669 28.3071C168.117 28.3071 168.469 28.6751 168.469 29.1231C168.469 29.5711 168.117 29.9231 167.669 29.9231ZM168.261 38.7551H167.061V31.0271H168.261V38.7551ZM177.231 38.7551H176.047V33.6991C176.047 32.3231 175.343 31.9071 174.303 31.9071C173.359 31.9071 172.479 32.4831 172.015 33.1071V38.7551H170.815V31.0271H172.015V32.1471C172.559 31.4911 173.615 30.8351 174.783 30.8351C176.383 30.8351 177.231 31.6511 177.231 33.3311V38.7551ZM182.907 41.8911C181.611 41.8911 180.715 41.6351 179.787 40.7231L180.395 39.8591C181.035 40.6111 181.803 40.8991 182.907 40.8991C184.187 40.8991 185.403 40.2751 185.403 38.6431V37.4751C184.827 38.2591 183.883 38.8511 182.795 38.8511C180.779 38.8511 179.355 37.3471 179.355 34.8511C179.355 32.3711 180.763 30.8351 182.795 30.8351C183.835 30.8351 184.779 31.3471 185.403 32.1951V31.0271H186.603V38.6431C186.603 41.0911 184.795 41.8911 182.907 41.8911ZM183.099 37.7791C184.043 37.7791 184.971 37.2031 185.403 36.5311V33.1391C184.971 32.4831 184.043 31.9071 183.099 31.9071C181.531 31.9071 180.603 33.1391 180.603 34.8511C180.603 36.5471 181.531 37.7791 183.099 37.7791ZM196.843 38.9471C194.491 38.9471 193.019 37.1231 193.019 34.8831C193.019 32.6431 194.491 30.8351 196.843 30.8351C199.195 30.8351 200.667 32.6431 200.667 34.8831C200.667 37.1231 199.195 38.9471 196.843 38.9471ZM196.843 37.8751C198.491 37.8751 199.403 36.4671 199.403 34.8831C199.403 33.3151 198.491 31.9071 196.843 31.9071C195.195 31.9071 194.283 33.3151 194.283 34.8831C194.283 36.4671 195.195 37.8751 196.843 37.8751ZM206.591 38.9471C205.535 38.9471 204.623 38.4351 203.983 37.5871V41.6991H202.783V31.0271H203.983V32.1791C204.543 31.3951 205.503 30.8351 206.591 30.8351C208.623 30.8351 210.031 32.3711 210.031 34.8831C210.031 37.3791 208.623 38.9471 206.591 38.9471ZM206.287 37.8751C207.839 37.8751 208.767 36.5951 208.767 34.8831C208.767 33.1711 207.839 31.9071 206.287 31.9071C205.343 31.9071 204.399 32.4671 203.983 33.1391V36.6271C204.399 37.2991 205.343 37.8751 206.287 37.8751ZM215.907 38.9471C214.851 38.9471 213.939 38.4351 213.299 37.5871V41.6991H212.099V31.0271H213.299V32.1791C213.859 31.3951 214.819 30.8351 215.907 30.8351C217.939 30.8351 219.347 32.3711 219.347 34.8831C219.347 37.3791 217.939 38.9471 215.907 38.9471ZM215.603 37.8751C217.155 37.8751 218.083 36.5951 218.083 34.8831C218.083 33.1711 217.155 31.9071 215.603 31.9071C214.659 31.9071 213.715 32.4671 213.299 33.1391V36.6271C213.715 37.2991 214.659 37.8751 215.603 37.8751ZM224.792 38.9471C222.44 38.9471 220.968 37.1231 220.968 34.8831C220.968 32.6431 222.44 30.8351 224.792 30.8351C227.144 30.8351 228.616 32.6431 228.616 34.8831C228.616 37.1231 227.144 38.9471 224.792 38.9471ZM224.792 37.8751C226.44 37.8751 227.352 36.4671 227.352 34.8831C227.352 33.3151 226.44 31.9071 224.792 31.9071C223.144 31.9071 222.232 33.3151 222.232 34.8831C222.232 36.4671 223.144 37.8751 224.792 37.8751ZM231.932 38.7551H230.732V31.0271H231.932V32.2591C232.556 31.4591 233.452 30.8511 234.508 30.8511V32.0831C234.364 32.0671 234.22 32.0511 234.044 32.0511C233.292 32.0511 232.284 32.6591 231.932 33.2831V38.7551ZM238.141 38.9471C236.989 38.9471 236.413 38.2911 236.413 37.1391V32.0831H235.133V31.0271H236.413V28.9151H237.629V31.0271H239.197V32.0831H237.629V36.8831C237.629 37.4591 237.885 37.8751 238.397 37.8751C238.749 37.8751 239.053 37.7151 239.213 37.5391L239.565 38.4511C239.261 38.7391 238.829 38.9471 238.141 38.9471ZM247.452 38.7551H246.252V37.6671C245.66 38.3391 244.652 38.9471 243.5 38.9471C241.884 38.9471 241.036 38.1471 241.036 36.4831V31.0271H242.236V36.1151C242.236 37.4751 242.924 37.8751 243.98 37.8751C244.908 37.8751 245.804 37.3311 246.252 36.7071V31.0271H247.452V38.7551ZM256.425 38.7551H255.241V33.6991C255.241 32.3231 254.537 31.9071 253.497 31.9071C252.553 31.9071 251.673 32.4831 251.209 33.1071V38.7551H250.009V31.0271H251.209V32.1471C251.753 31.4911 252.809 30.8351 253.977 30.8351C255.577 30.8351 256.425 31.6511 256.425 33.3311V38.7551ZM259.605 29.9231C259.157 29.9231 258.789 29.5711 258.789 29.1231C258.789 28.6751 259.157 28.3071 259.605 28.3071C260.053 28.3071 260.405 28.6751 260.405 29.1231C260.405 29.5711 260.053 29.9231 259.605 29.9231ZM260.197 38.7551H258.997V31.0271H260.197V38.7551ZM264.719 38.9471C263.567 38.9471 262.991 38.2911 262.991 37.1391V32.0831H261.711V31.0271H262.991V28.9151H264.207V31.0271H265.775V32.0831H264.207V36.8831C264.207 37.4591 264.463 37.8751 264.975 37.8751C265.327 37.8751 265.631 37.7151 265.791 37.5391L266.143 38.4511C265.839 38.7391 265.407 38.9471 264.719 38.9471ZM268.222 29.9231C267.774 29.9231 267.406 29.5711 267.406 29.1231C267.406 28.6751 267.774 28.3071 268.222 28.3071C268.67 28.3071 269.022 28.6751 269.022 29.1231C269.022 29.5711 268.67 29.9231 268.222 29.9231ZM268.814 38.7551H267.614V31.0271H268.814V38.7551ZM274.871 38.9471C272.567 38.9471 270.919 37.2991 270.919 34.8831C270.919 32.6431 272.519 30.8351 274.727 30.8351C277.063 30.8351 278.439 32.6591 278.439 34.9791V35.2831H272.199C272.295 36.7391 273.303 37.9551 274.967 37.9551C275.863 37.9551 276.743 37.6031 277.367 36.9631L277.943 37.7471C277.159 38.5151 276.119 38.9471 274.871 38.9471ZM277.255 34.3871C277.239 33.2511 276.471 31.8271 274.711 31.8271C273.063 31.8271 272.247 33.2191 272.183 34.3871H277.255ZM283.007 38.9471C281.727 38.9471 280.671 38.5471 279.887 37.7311L280.495 36.8671C281.007 37.4591 281.983 37.9711 283.039 37.9711C284.223 37.9711 284.879 37.4111 284.879 36.6431C284.879 34.7711 280.095 35.9231 280.095 33.0591C280.095 31.8431 281.119 30.8351 282.959 30.8351C284.287 30.8351 285.215 31.3311 285.823 31.9551L285.263 32.7871C284.799 32.2271 283.967 31.8111 282.959 31.8111C281.903 31.8111 281.247 32.3391 281.247 33.0271C281.247 34.7071 286.031 33.6031 286.031 36.6111C286.031 37.9071 284.991 38.9471 283.007 38.9471ZM74.9793 53.8751C75.9233 53.8751 76.8673 53.2991 77.2833 52.6271V49.1391C76.8673 48.4671 75.9233 47.9071 74.9793 47.9071C73.4273 47.9071 72.4993 49.1711 72.4993 50.8831C72.4993 52.5951 73.4273 53.8751 74.9793 53.8751ZM74.6753 54.9471C72.6432 54.9471 71.2353 53.3791 71.2353 50.8831C71.2353 48.3711 72.6432 46.8351 74.6753 46.8351C75.7633 46.8351 76.7233 47.3951 77.2833 48.1791V47.0271H78.4833V57.6991H77.2833V53.5871C76.6433 54.4351 75.7313 54.9471 74.6753 54.9471ZM87.4635 54.7551H86.2635V53.6671C85.6715 54.3391 84.6635 54.9471 83.5115 54.9471C81.8955 54.9471 81.0475 54.1471 81.0475 52.4831V47.0271H82.2475V52.1151C82.2475 53.4751 82.9355 53.8751 83.9915 53.8751C84.9195 53.8751 85.8155 53.3311 86.2635 52.7071V47.0271H87.4635V54.7551ZM90.628 45.9231C90.18 45.9231 89.812 45.5711 89.812 45.1231C89.812 44.6751 90.18 44.3071 90.628 44.3071C91.076 44.3071 91.428 44.6751 91.428 45.1231C91.428 45.5711 91.076 45.9231 90.628 45.9231ZM91.22 54.7551H90.02V47.0271H91.22V54.7551ZM97.1817 54.9471C94.8777 54.9471 93.3257 53.1711 93.3257 50.8831C93.3257 48.5951 94.8777 46.8351 97.1817 46.8351C98.5897 46.8351 99.4218 47.4111 100.014 48.1791L99.2137 48.8991C98.7017 48.1951 98.0457 47.9071 97.2457 47.9071C95.6137 47.9071 94.5737 49.1711 94.5737 50.8831C94.5737 52.5951 95.6137 53.8751 97.2457 53.8751C98.0457 53.8751 98.7017 53.5551 99.2137 52.8671L100.014 53.6031C99.4218 54.3711 98.5897 54.9471 97.1817 54.9471ZM108.671 54.7551H107.135L104.367 51.2831L103.071 52.5471V54.7551H101.871V44.0831H103.071V51.1391L107.135 47.0271H108.655L105.231 50.5311L108.671 54.7551ZM111.45 54.7551H110.25V44.0831H111.45V54.7551ZM113.588 57.7791L113.764 56.6911C113.94 56.7711 114.228 56.8191 114.42 56.8191C114.948 56.8191 115.3 56.6431 115.572 56.0031L116.084 54.8351L112.852 47.0271H114.164L116.724 53.3631L119.3 47.0271H120.596L116.724 56.3231C116.26 57.4431 115.476 57.8751 114.452 57.8911C114.196 57.8911 113.796 57.8431 113.588 57.7791ZM121.741 54.9151C121.261 54.9151 120.861 54.5151 120.861 54.0351C120.861 53.5551 121.261 53.1551 121.741 53.1551C122.221 53.1551 122.621 53.5551 122.621 54.0351C122.621 54.5151 122.221 54.9151 121.741 54.9151Z" fill="#F9F2F2"/>
<defs>
<linearGradient id="paint0_linear_3355_937" x1="0" y1="20.389" x2="40.4082" y2="20.389" gradientUnits="userSpaceOnUse">
<stop stop-color="#9244AA"/>
<stop offset="1" stop-color="#D740E8"/>
</linearGradient>
<linearGradient id="paint1_linear_3355_937" x1="17.5586" y1="32.1559" x2="47.0188" y2="32.1559" gradientUnits="userSpaceOnUse">
<stop stop-color="#9244AA"/>
<stop offset="1" stop-color="#D740E8"/>
</linearGradient>
<clipPath id="clip0_3355_937">
<rect width="47.02" height="47.02" fill="white"/>
</clipPath>
<clipPath id="clip1_3355_937">
<rect width="24.9794" height="17.6325" fill="white" transform="translate(7.34766 12.2443)"/>
</clipPath>
</defs>
</svg>
