<svg width="291" height="58" viewBox="0 0 291 58" fill="none" xmlns="http://www.w3.org/2000/svg">
<g clip-path="url(#clip0_3355_983)">
<path d="M39.4517 7.78639C37.5706 3.2135 33.0989 0 27.886 0H12.5222C5.60749 0 0 5.65881 0 12.6368V28.1412C0 32.9192 2.62639 37.0738 6.50022 39.2215C8.28569 40.2149 10.3382 40.778 12.5222 40.778H27.886C30.07 40.778 32.1265 40.2149 33.9119 39.2215C36.3909 37.846 38.3597 35.6501 39.4517 32.9916C40.0694 31.4995 40.4082 29.8626 40.4082 28.1412V12.6368C40.4082 10.9154 40.0694 9.27852 39.4517 7.78639Z" fill="url(#paint0_linear_3355_983)"/>
<g clip-path="url(#clip1_3355_983)">
<path d="M18.8901 10.5311H21.8164L30.0012 28.6114H26.1367L24.3675 24.474H16.1247L14.4091 28.6114H10.625L18.8901 10.5311ZM23.1791 21.7143L20.2528 14.3623L17.2729 21.7143H23.1746H23.1791Z" fill="white"/>
</g>
<path d="M28.5105 47.0208H17.5586V43.8516H28.5105C36.9835 43.8516 43.8783 36.8937 43.8783 28.3432V17.291H47.0188V28.3432C47.0188 38.6432 38.7172 47.0208 28.5105 47.0208Z" fill="url(#paint1_linear_3355_983)"/>
</g>
<path d="M73.4465 16H70.6488L76.8085 0.248163H79.8648L86.0245 16H83.1092L81.6046 12.0268H74.9512L73.4465 16ZM77.4433 5.46743L75.821 9.72277H80.7347L79.136 5.46743L78.2896 2.62269L77.4433 5.46743ZM90.3988 16H87.7657V0.248163H90.3988V16ZM98.1447 12.5675C97.2513 12.5675 96.4285 12.4029 95.7467 12.0738C95.5351 12.4264 95.2765 12.8731 95.2765 13.2728C95.2765 13.8606 95.5821 14.1662 96.6401 14.1662H100.331C102.612 14.1662 103.858 15.0831 103.858 16.7993C103.858 18.9623 101.742 20.608 97.5805 20.608C94.3831 20.608 92.5258 19.5971 92.5258 18.1629C92.5258 17.0815 93.5602 16.4937 94.6652 16.2351C93.8424 16 93.3016 15.4593 93.3016 14.5894C93.3016 13.5549 94.195 12.544 95.253 11.8152C94.101 11.1099 93.3957 9.91086 93.3957 8.45322C93.3957 6.03167 95.3235 4.31543 98.1447 4.31543C98.8735 4.31543 99.5318 4.43298 100.12 4.64457L100.684 1.89388L103.223 2.76375L101.083 5.11477C102.212 5.84359 102.87 7.0191 102.87 8.45322C102.87 10.8748 100.966 12.5675 98.1447 12.5675ZM98.1447 10.6867C99.3908 10.6867 100.378 9.88735 100.378 8.45322C100.378 7.0191 99.3908 6.21975 98.1447 6.21975C96.8987 6.21975 95.9113 7.0191 95.9113 8.45322C95.9113 9.88735 96.8987 10.6867 98.1447 10.6867ZM97.698 18.6331C100.167 18.6331 101.483 18.0924 101.483 17.1285C101.483 16.5172 100.989 16.2586 99.9785 16.2586H95.2059C94.9473 16.5172 94.6652 16.8934 94.6652 17.2931C94.6652 18.1394 95.6056 18.6331 97.698 18.6331ZM110.344 16.2351C107.052 16.2351 104.795 13.8371 104.795 10.287C104.795 6.71347 107.052 4.31543 110.344 4.31543C113.682 4.31543 115.939 6.71347 115.939 10.287C115.939 13.8371 113.682 16.2351 110.344 16.2351ZM110.367 14.0487C112.084 14.0487 113.259 12.9202 113.259 10.287C113.259 7.63037 112.084 6.50188 110.367 6.50188C108.675 6.50188 107.499 7.63037 107.499 10.287C107.499 12.9202 108.675 14.0487 110.367 14.0487ZM130.116 16H127.46V2.59918H122.64V0.248163H134.959V2.59918H130.116V16ZM138.847 16H136.214V4.55053H138.847V7.79494C139.27 5.96114 140.422 4.31543 142.468 4.31543C143.902 4.31543 144.96 5.25584 144.96 6.94857C144.96 8.05355 144.654 8.87641 144.443 9.22906H141.739C142.115 8.8529 142.468 8.10057 142.468 7.44229C142.468 6.80751 142.162 6.29029 141.386 6.29029C140.07 6.29029 138.847 7.79494 138.847 9.69927V16ZM149.248 16.2351C147.368 16.2351 146.239 15.1771 146.239 13.5314C146.239 11.9092 147.368 10.9218 149.225 10.193L153.057 8.57078C152.963 7.41878 152.446 6.64294 150.871 6.64294C149.342 6.64294 148.143 7.53633 147.485 8.73535L145.91 6.85453C146.803 5.632 148.59 4.31543 151.129 4.31543C153.974 4.31543 155.573 5.93763 155.573 8.75886V13.0612C155.573 13.5784 155.761 13.743 156.184 13.743H156.913V16H155.29C154.068 16 153.104 15.4358 153.104 13.79V12.9437C152.751 14.4483 151.646 16.2351 149.248 16.2351ZM148.778 13.1318C148.778 13.79 149.225 14.1897 150.189 14.1897C151.929 14.1897 153.104 13.1553 153.104 11.6036V10.3811L150.165 11.6976C149.178 12.1443 148.778 12.544 148.778 13.1318ZM163.089 16.2586C160.267 16.2586 158.481 13.9781 158.481 10.287C158.481 6.59592 160.267 4.31543 163.042 4.31543C165.322 4.31543 166.333 5.84359 166.709 7.63037V0.248163H169.342V16H166.709V12.9672C166.333 14.7304 165.369 16.2586 163.089 16.2586ZM161.184 10.287C161.184 12.8731 162.43 14.1192 164.1 14.1192C165.933 14.1192 166.709 12.8967 166.709 11.0158V9.58171C166.709 7.7009 165.933 6.45486 164.076 6.45486C162.43 6.45486 161.184 7.72441 161.184 10.287ZM174.979 2.92833H172.345V0.248163H174.979V2.92833ZM174.979 16H172.345V4.55053H174.979V16ZM180.632 16H177.999V4.55053H180.632V7.67739C181.055 5.8671 182.231 4.31543 184.511 4.31543C186.745 4.31543 188.108 5.65551 188.108 8.03004V16H185.452V8.82939C185.452 7.41878 184.981 6.45486 183.218 6.45486C181.29 6.45486 180.632 7.7009 180.632 9.58171V16ZM195.61 12.5675C194.717 12.5675 193.894 12.4029 193.212 12.0738C193 12.4264 192.742 12.8731 192.742 13.2728C192.742 13.8606 193.048 14.1662 194.105 14.1662H197.797C200.077 14.1662 201.323 15.0831 201.323 16.7993C201.323 18.9623 199.207 20.608 195.046 20.608C191.848 20.608 189.991 19.5971 189.991 18.1629C189.991 17.0815 191.026 16.4937 192.131 16.2351C191.308 16 190.767 15.4593 190.767 14.5894C190.767 13.5549 191.66 12.544 192.718 11.8152C191.566 11.1099 190.861 9.91086 190.861 8.45322C190.861 6.03167 192.789 4.31543 195.61 4.31543C196.339 4.31543 196.997 4.43298 197.585 4.64457L198.149 1.89388L200.688 2.76375L198.549 5.11477C199.677 5.84359 200.336 7.0191 200.336 8.45322C200.336 10.8748 198.431 12.5675 195.61 12.5675ZM195.61 10.6867C196.856 10.6867 197.844 9.88735 197.844 8.45322C197.844 7.0191 196.856 6.21975 195.61 6.21975C194.364 6.21975 193.377 7.0191 193.377 8.45322C193.377 9.88735 194.364 10.6867 195.61 10.6867ZM195.163 18.6331C197.632 18.6331 198.949 18.0924 198.949 17.1285C198.949 16.5172 198.455 16.2586 197.444 16.2586H192.671C192.413 16.5172 192.131 16.8934 192.131 17.2931C192.131 18.1394 193.071 18.6331 195.163 18.6331Z" fill="white"/>
<path opacity="0.5" d="M80.9153 38.7551H79.3953L78.4513 36.3711H73.1393L72.1953 38.7551H70.6753L74.9793 28.0831H76.6273L80.9153 38.7551ZM78.0673 35.2031L75.7953 29.4431L73.5393 35.2031H78.0673ZM88.651 38.7551H87.451V37.6671C86.859 38.3391 85.851 38.9471 84.699 38.9471C83.083 38.9471 82.235 38.1471 82.235 36.4831V31.0271H83.435V36.1151C83.435 37.4751 84.123 37.8751 85.179 37.8751C86.107 37.8751 87.003 37.3311 87.451 36.7071V31.0271H88.651V38.7551ZM93.1755 38.9471C92.0235 38.9471 91.4475 38.2911 91.4475 37.1391V32.0831H90.1675V31.0271H91.4475V28.9151H92.6635V31.0271H94.2315V32.0831H92.6635V36.8831C92.6635 37.4591 92.9195 37.8751 93.4315 37.8751C93.7835 37.8751 94.0875 37.7151 94.2475 37.5391L94.5995 38.4511C94.2955 38.7391 93.8635 38.9471 93.1755 38.9471ZM99.4466 38.9471C97.0946 38.9471 95.6226 37.1231 95.6226 34.8831C95.6226 32.6431 97.0946 30.8351 99.4466 30.8351C101.799 30.8351 103.271 32.6431 103.271 34.8831C103.271 37.1231 101.799 38.9471 99.4466 38.9471ZM99.4466 37.8751C101.095 37.8751 102.007 36.4671 102.007 34.8831C102.007 33.3151 101.095 31.9071 99.4466 31.9071C97.7986 31.9071 96.8866 33.3151 96.8866 34.8831C96.8866 36.4671 97.7986 37.8751 99.4466 37.8751ZM115.915 38.7551H114.715V33.5071C114.715 32.5311 114.299 31.9071 113.291 31.9071C112.491 31.9071 111.643 32.4671 111.243 33.0911V38.7551H110.043V33.5071C110.043 32.5311 109.643 31.9071 108.619 31.9071C107.835 31.9071 107.003 32.4831 106.587 33.1071V38.7551H105.387V31.0271H106.587V32.1471C106.923 31.6511 107.947 30.8351 109.099 30.8351C110.267 30.8351 110.939 31.4751 111.163 32.2751C111.595 31.5711 112.635 30.8351 113.755 30.8351C115.163 30.8351 115.915 31.6191 115.915 33.1711V38.7551ZM124.501 38.7551H123.301V37.8751C122.677 38.5791 121.781 38.9471 120.741 38.9471C119.445 38.9471 118.053 38.0671 118.053 36.3871C118.053 34.6431 119.429 33.8431 120.741 33.8431C121.797 33.8431 122.677 34.1791 123.301 34.8831V33.4911C123.301 32.4671 122.469 31.8751 121.349 31.8751C120.421 31.8751 119.669 32.1951 118.981 32.9471L118.421 32.1151C119.253 31.2511 120.245 30.8351 121.509 30.8351C123.157 30.8351 124.501 31.5711 124.501 33.4431V38.7551ZM121.189 38.0831C122.021 38.0831 122.837 37.7631 123.301 37.1231V35.6511C122.837 35.0271 122.021 34.7071 121.189 34.7071C120.053 34.7071 119.269 35.4111 119.269 36.3871C119.269 37.3791 120.053 38.0831 121.189 38.0831ZM129.05 38.9471C127.898 38.9471 127.322 38.2911 127.322 37.1391V32.0831H126.042V31.0271H127.322V28.9151H128.538V31.0271H130.106V32.0831H128.538V36.8831C128.538 37.4591 128.794 37.8751 129.306 37.8751C129.658 37.8751 129.962 37.7151 130.122 37.5391L130.474 38.4511C130.17 38.7391 129.738 38.9471 129.05 38.9471ZM135.449 38.9471C133.145 38.9471 131.497 37.2991 131.497 34.8831C131.497 32.6431 133.097 30.8351 135.305 30.8351C137.641 30.8351 139.017 32.6591 139.017 34.9791V35.2831H132.777C132.873 36.7391 133.881 37.9551 135.545 37.9551C136.441 37.9551 137.321 37.6031 137.945 36.9631L138.521 37.7471C137.737 38.5151 136.697 38.9471 135.449 38.9471ZM137.833 34.3871C137.817 33.2511 137.049 31.8271 135.289 31.8271C133.641 31.8271 132.825 33.2191 132.761 34.3871H137.833ZM147.885 38.9471C146.605 38.9471 145.549 38.5471 144.765 37.7311L145.373 36.8671C145.885 37.4591 146.861 37.9711 147.917 37.9711C149.101 37.9711 149.757 37.4111 149.757 36.6431C149.757 34.7711 144.973 35.9231 144.973 33.0591C144.973 31.8431 145.997 30.8351 147.837 30.8351C149.165 30.8351 150.093 31.3311 150.701 31.9551L150.141 32.7871C149.677 32.2271 148.845 31.8111 147.837 31.8111C146.781 31.8111 146.125 32.3391 146.125 33.0271C146.125 34.7071 150.909 33.6031 150.909 36.6111C150.909 37.9071 149.869 38.9471 147.885 38.9471ZM154.987 38.9471C153.835 38.9471 153.259 38.2911 153.259 37.1391V32.0831H151.979V31.0271H153.259V28.9151H154.475V31.0271H156.043V32.0831H154.475V36.8831C154.475 37.4591 154.731 37.8751 155.243 37.8751C155.595 37.8751 155.899 37.7151 156.059 37.5391L156.411 38.4511C156.107 38.7391 155.675 38.9471 154.987 38.9471ZM159.082 38.7551H157.882V31.0271H159.082V32.2591C159.706 31.4591 160.602 30.8511 161.658 30.8511V32.0831C161.514 32.0671 161.37 32.0511 161.194 32.0511C160.442 32.0511 159.434 32.6591 159.082 33.2831V38.7551ZM169.355 38.7551H168.155V37.8751C167.531 38.5791 166.635 38.9471 165.595 38.9471C164.299 38.9471 162.907 38.0671 162.907 36.3871C162.907 34.6431 164.283 33.8431 165.595 33.8431C166.651 33.8431 167.531 34.1791 168.155 34.8831V33.4911C168.155 32.4671 167.323 31.8751 166.203 31.8751C165.275 31.8751 164.523 32.1951 163.835 32.9471L163.275 32.1151C164.107 31.2511 165.099 30.8351 166.363 30.8351C168.011 30.8351 169.355 31.5711 169.355 33.4431V38.7551ZM166.043 38.0831C166.875 38.0831 167.691 37.7631 168.155 37.1231V35.6511C167.691 35.0271 166.875 34.7071 166.043 34.7071C164.907 34.7071 164.123 35.4111 164.123 36.3871C164.123 37.3791 164.907 38.0831 166.043 38.0831ZM173.904 38.9471C172.752 38.9471 172.176 38.2911 172.176 37.1391V32.0831H170.896V31.0271H172.176V28.9151H173.392V31.0271H174.96V32.0831H173.392V36.8831C173.392 37.4591 173.648 37.8751 174.16 37.8751C174.512 37.8751 174.816 37.7151 174.976 37.5391L175.328 38.4511C175.024 38.7391 174.592 38.9471 173.904 38.9471ZM180.303 38.9471C177.999 38.9471 176.351 37.2991 176.351 34.8831C176.351 32.6431 177.951 30.8351 180.159 30.8351C182.495 30.8351 183.871 32.6591 183.871 34.9791V35.2831H177.631C177.727 36.7391 178.735 37.9551 180.399 37.9551C181.295 37.9551 182.175 37.6031 182.799 36.9631L183.375 37.7471C182.591 38.5151 181.551 38.9471 180.303 38.9471ZM182.687 34.3871C182.671 33.2511 181.903 31.8271 180.143 31.8271C178.495 31.8271 177.679 33.2191 177.615 34.3871H182.687ZM189.079 41.8911C187.783 41.8911 186.887 41.6351 185.959 40.7231L186.567 39.8591C187.207 40.6111 187.975 40.8991 189.079 40.8991C190.359 40.8991 191.575 40.2751 191.575 38.6431V37.4751C190.999 38.2591 190.055 38.8511 188.967 38.8511C186.951 38.8511 185.527 37.3471 185.527 34.8511C185.527 32.3711 186.935 30.8351 188.967 30.8351C190.007 30.8351 190.951 31.3471 191.575 32.1951V31.0271H192.775V38.6431C192.775 41.0911 190.967 41.8911 189.079 41.8911ZM189.271 37.7791C190.215 37.7791 191.143 37.2031 191.575 36.5311V33.1391C191.143 32.4831 190.215 31.9071 189.271 31.9071C187.703 31.9071 186.775 33.1391 186.775 34.8511C186.775 36.5471 187.703 37.7791 189.271 37.7791ZM195.946 29.9231C195.498 29.9231 195.13 29.5711 195.13 29.1231C195.13 28.6751 195.498 28.3071 195.946 28.3071C196.394 28.3071 196.746 28.6751 196.746 29.1231C196.746 29.5711 196.394 29.9231 195.946 29.9231ZM196.538 38.7551H195.338V31.0271H196.538V38.7551ZM202.596 38.9471C200.292 38.9471 198.644 37.2991 198.644 34.8831C198.644 32.6431 200.244 30.8351 202.452 30.8351C204.788 30.8351 206.164 32.6591 206.164 34.9791V35.2831H199.924C200.02 36.7391 201.028 37.9551 202.692 37.9551C203.588 37.9551 204.468 37.6031 205.092 36.9631L205.668 37.7471C204.884 38.5151 203.844 38.9471 202.596 38.9471ZM204.98 34.3871C204.964 33.2511 204.196 31.8271 202.436 31.8271C200.788 31.8271 199.972 33.2191 199.908 34.3871H204.98ZM210.732 38.9471C209.452 38.9471 208.396 38.5471 207.612 37.7311L208.22 36.8671C208.732 37.4591 209.708 37.9711 210.764 37.9711C211.948 37.9711 212.604 37.4111 212.604 36.6431C212.604 34.7711 207.82 35.9231 207.82 33.0591C207.82 31.8431 208.844 30.8351 210.684 30.8351C212.012 30.8351 212.94 31.3311 213.548 31.9551L212.988 32.7871C212.524 32.2271 211.692 31.8111 210.684 31.8111C209.628 31.8111 208.972 32.3391 208.972 33.0271C208.972 34.7071 213.756 33.6031 213.756 36.6111C213.756 37.9071 212.716 38.9471 210.732 38.9471ZM221.702 38.7551H220.502V32.0831H219.222V31.0271H220.502V30.4351C220.502 28.8511 221.382 27.9231 222.742 27.9231C223.366 27.9231 223.894 28.0671 224.374 28.5151L223.878 29.2831C223.622 29.0591 223.318 28.9151 222.934 28.9151C222.134 28.9151 221.702 29.4431 221.702 30.4351V31.0271H223.27V32.0831H221.702V38.7551ZM228.249 38.9471C225.897 38.9471 224.425 37.1231 224.425 34.8831C224.425 32.6431 225.897 30.8351 228.249 30.8351C230.601 30.8351 232.073 32.6431 232.073 34.8831C232.073 37.1231 230.601 38.9471 228.249 38.9471ZM228.249 37.8751C229.897 37.8751 230.809 36.4671 230.809 34.8831C230.809 33.3151 229.897 31.9071 228.249 31.9071C226.601 31.9071 225.689 33.3151 225.689 34.8831C225.689 36.4671 226.601 37.8751 228.249 37.8751ZM235.389 38.7551H234.189V31.0271H235.389V32.2591C236.013 31.4591 236.909 30.8511 237.965 30.8511V32.0831C237.821 32.0671 237.677 32.0511 237.501 32.0511C236.749 32.0511 235.741 32.6591 235.389 33.2831V38.7551ZM74.1953 54.9471C72.9153 54.9471 71.8593 54.5471 71.0753 53.7311L71.6833 52.8671C72.1953 53.4591 73.1713 53.9711 74.2273 53.9711C75.4113 53.9711 76.0673 53.4111 76.0673 52.6431C76.0673 50.7711 71.2833 51.9231 71.2833 49.0591C71.2833 47.8431 72.3073 46.8351 74.1473 46.8351C75.4753 46.8351 76.4033 47.3311 77.0113 47.9551L76.4513 48.7871C75.9873 48.2271 75.1553 47.8111 74.1473 47.8111C73.0913 47.8111 72.4353 48.3391 72.4353 49.0271C72.4353 50.7071 77.2193 49.6031 77.2193 52.6111C77.2193 53.9071 76.1793 54.9471 74.1953 54.9471ZM89.8568 54.7551H88.6568V49.5071C88.6568 48.5311 88.2408 47.9071 87.2327 47.9071C86.4328 47.9071 85.5848 48.4671 85.1848 49.0911V54.7551H83.9848V49.5071C83.9848 48.5311 83.5848 47.9071 82.5608 47.9071C81.7768 47.9071 80.9448 48.4831 80.5287 49.1071V54.7551H79.3287V47.0271H80.5287V48.1471C80.8647 47.6511 81.8888 46.8351 83.0408 46.8351C84.2088 46.8351 84.8808 47.4751 85.1048 48.2751C85.5368 47.5711 86.5767 46.8351 87.6968 46.8351C89.1048 46.8351 89.8568 47.6191 89.8568 49.1711V54.7551ZM98.4426 54.7551H97.2426V53.8751C96.6186 54.5791 95.7226 54.9471 94.6826 54.9471C93.3866 54.9471 91.9946 54.0671 91.9946 52.3871C91.9946 50.6431 93.3706 49.8431 94.6826 49.8431C95.7386 49.8431 96.6186 50.1791 97.2426 50.8831V49.4911C97.2426 48.4671 96.4106 47.8751 95.2906 47.8751C94.3626 47.8751 93.6106 48.1951 92.9226 48.9471L92.3626 48.1151C93.1946 47.2511 94.1866 46.8351 95.4506 46.8351C97.0986 46.8351 98.4426 47.5711 98.4426 49.4431V54.7551ZM95.1306 54.0831C95.9626 54.0831 96.7786 53.7631 97.2426 53.1231V51.6511C96.7786 51.0271 95.9626 50.7071 95.1306 50.7071C93.9946 50.7071 93.2106 51.4111 93.2106 52.3871C93.2106 53.3791 93.9946 54.0831 95.1306 54.0831ZM102.224 54.7551H101.024V47.0271H102.224V48.2591C102.848 47.4591 103.744 46.8511 104.8 46.8511V48.0831C104.656 48.0671 104.512 48.0511 104.336 48.0511C103.584 48.0511 102.576 48.6591 102.224 49.2831V54.7551ZM108.433 54.9471C107.281 54.9471 106.705 54.2911 106.705 53.1391V48.0831H105.425V47.0271H106.705V44.9151H107.921V47.0271H109.489V48.0831H107.921V52.8831C107.921 53.4591 108.177 53.8751 108.689 53.8751C109.041 53.8751 109.345 53.7151 109.505 53.5391L109.857 54.4511C109.553 54.7391 109.121 54.9471 108.433 54.9471ZM114.832 54.9471C112.528 54.9471 110.88 53.2991 110.88 50.8831C110.88 48.6431 112.48 46.8351 114.688 46.8351C117.024 46.8351 118.4 48.6591 118.4 50.9791V51.2831H112.16C112.256 52.7391 113.264 53.9551 114.928 53.9551C115.824 53.9551 116.704 53.6031 117.328 52.9631L117.904 53.7471C117.12 54.5151 116.08 54.9471 114.832 54.9471ZM117.216 50.3871C117.2 49.2511 116.432 47.8271 114.672 47.8271C113.024 47.8271 112.208 49.2191 112.144 50.3871H117.216ZM121.704 54.7551H120.504V47.0271H121.704V48.2591C122.328 47.4591 123.224 46.8511 124.28 46.8511V48.0831C124.136 48.0671 123.992 48.0511 123.816 48.0511C123.064 48.0511 122.056 48.6591 121.704 49.2831V54.7551ZM132.214 54.9471C131.062 54.9471 130.486 54.2911 130.486 53.1391V48.0831H129.206V47.0271H130.486V44.9151H131.702V47.0271H133.27V48.0831H131.702V52.8831C131.702 53.4591 131.958 53.8751 132.47 53.8751C132.822 53.8751 133.126 53.7151 133.286 53.5391L133.638 54.4511C133.334 54.7391 132.902 54.9471 132.214 54.9471ZM136.309 54.7551H135.109V47.0271H136.309V48.2591C136.933 47.4591 137.829 46.8511 138.885 46.8511V48.0831C138.741 48.0671 138.597 48.0511 138.421 48.0511C137.669 48.0511 136.661 48.6591 136.309 49.2831V54.7551ZM146.582 54.7551H145.382V53.8751C144.758 54.5791 143.862 54.9471 142.822 54.9471C141.526 54.9471 140.134 54.0671 140.134 52.3871C140.134 50.6431 141.51 49.8431 142.822 49.8431C143.878 49.8431 144.758 50.1791 145.382 50.8831V49.4911C145.382 48.4671 144.55 47.8751 143.43 47.8751C142.502 47.8751 141.75 48.1951 141.062 48.9471L140.502 48.1151C141.334 47.2511 142.326 46.8351 143.59 46.8351C145.238 46.8351 146.582 47.5711 146.582 49.4431V54.7551ZM143.27 54.0831C144.102 54.0831 144.918 53.7631 145.382 53.1231V51.6511C144.918 51.0271 144.102 50.7071 143.27 50.7071C142.134 50.7071 141.35 51.4111 141.35 52.3871C141.35 53.3791 142.134 54.0831 143.27 54.0831ZM155.963 54.7551H154.763V53.6031C154.187 54.3871 153.243 54.9471 152.155 54.9471C150.139 54.9471 148.715 53.4111 148.715 50.8991C148.715 48.4191 150.139 46.8351 152.155 46.8351C153.195 46.8351 154.139 47.3471 154.763 48.1951V44.0831H155.963V54.7551ZM152.459 53.8751C153.403 53.8751 154.347 53.3151 154.763 52.6431V49.1551C154.347 48.4831 153.403 47.9071 152.459 47.9071C150.891 47.9071 149.963 49.1871 149.963 50.8991C149.963 52.6111 150.891 53.8751 152.459 53.8751ZM159.134 45.9231C158.686 45.9231 158.318 45.5711 158.318 45.1231C158.318 44.6751 158.686 44.3071 159.134 44.3071C159.582 44.3071 159.934 44.6751 159.934 45.1231C159.934 45.5711 159.582 45.9231 159.134 45.9231ZM159.726 54.7551H158.526V47.0271H159.726V54.7551ZM168.696 54.7551H167.512V49.6991C167.512 48.3231 166.808 47.9071 165.768 47.9071C164.824 47.9071 163.944 48.4831 163.48 49.1071V54.7551H162.28V47.0271H163.48V48.1471C164.024 47.4911 165.08 46.8351 166.248 46.8351C167.848 46.8351 168.696 47.6511 168.696 49.3311V54.7551ZM174.372 57.8911C173.076 57.8911 172.18 57.6351 171.252 56.7231L171.86 55.8591C172.5 56.6111 173.268 56.8991 174.372 56.8991C175.652 56.8991 176.868 56.2751 176.868 54.6431V53.4751C176.292 54.2591 175.348 54.8511 174.26 54.8511C172.244 54.8511 170.82 53.3471 170.82 50.8511C170.82 48.3711 172.228 46.8351 174.26 46.8351C175.3 46.8351 176.244 47.3471 176.868 48.1951V47.0271H178.068V54.6431C178.068 57.0911 176.26 57.8911 174.372 57.8911ZM174.564 53.7791C175.508 53.7791 176.436 53.2031 176.868 52.5311V49.1391C176.436 48.4831 175.508 47.9071 174.564 47.9071C172.996 47.9071 172.068 49.1391 172.068 50.8511C172.068 52.5471 172.996 53.7791 174.564 53.7791ZM181.271 54.9151C180.791 54.9151 180.391 54.5151 180.391 54.0351C180.391 53.5551 180.791 53.1551 181.271 53.1551C181.751 53.1551 182.151 53.5551 182.151 54.0351C182.151 54.5151 181.751 54.9151 181.271 54.9151Z" fill="#F9F2F2"/>
<defs>
<linearGradient id="paint0_linear_3355_983" x1="0" y1="20.389" x2="40.4082" y2="20.389" gradientUnits="userSpaceOnUse">
<stop stop-color="#1D831D"/>
<stop offset="1" stop-color="#32BB32"/>
</linearGradient>
<linearGradient id="paint1_linear_3355_983" x1="17.5586" y1="32.1559" x2="47.0188" y2="32.1559" gradientUnits="userSpaceOnUse">
<stop stop-color="#1D831D"/>
<stop offset="1" stop-color="#32BB32"/>
</linearGradient>
<clipPath id="clip0_3355_983">
<rect width="47.02" height="47.02" fill="white"/>
</clipPath>
<clipPath id="clip1_3355_983">
<rect width="22.0406" height="20.5713" fill="white" transform="translate(10.2891 10.2856)"/>
</clipPath>
</defs>
</svg>
