<svg width="32" height="32" viewBox="0 0 32 32" fill="none" xmlns="http://www.w3.org/2000/svg">
<path d="M28 1H12C11.2044 1 10.4413 1.31607 9.87868 1.87868C9.31607 2.44129 9 3.20435 9 4V12C9 12.2652 9.10536 12.5196 9.29289 12.7071C9.48043 12.8946 9.73478 13 10 13C10.2652 13 10.5196 12.8946 10.7071 12.7071C10.8946 12.5196 11 12.2652 11 12V4C11 3.73478 11.1054 3.48043 11.2929 3.29289C11.4804 3.10536 11.7348 3 12 3H26.152L20.652 5.063C20.4607 5.13401 20.2957 5.26184 20.1792 5.42933C20.0626 5.59682 20.0001 5.79595 20 6V26C19.9999 26.2037 20.062 26.4026 20.1779 26.57C20.2939 26.7375 20.4583 26.8655 20.649 26.937L26.152 29H12C11.7348 29 11.4804 28.8946 11.2929 28.7071C11.1054 28.5196 11 28.2652 11 28V20C11 19.7348 10.8946 19.4804 10.7071 19.2929C10.5196 19.1054 10.2652 19 10 19C9.73478 19 9.48043 19.1054 9.29289 19.2929C9.10536 19.4804 9 19.7348 9 20V28C9 28.7956 9.31607 29.5587 9.87868 30.1213C10.4413 30.6839 11.2044 31 12 31H28C28.7956 31 29.5587 30.6839 30.1213 30.1213C30.6839 29.5587 31 28.7956 31 28V4C31 3.20435 30.6839 2.44129 30.1213 1.87868C29.5587 1.31607 28.7956 1 28 1ZM22 6.693L29 4.068V27.932L22 25.307V6.693Z" fill="white"/>
<path d="M12.293 18.2929C12.1975 18.3852 12.1213 18.4955 12.0689 18.6175C12.0165 18.7395 11.9889 18.8707 11.9877 19.0035C11.9866 19.1363 12.0119 19.268 12.0622 19.3909C12.1125 19.5138 12.1867 19.6254 12.2806 19.7193C12.3745 19.8132 12.4861 19.8875 12.609 19.9377C12.7319 19.988 12.8636 20.0133 12.9964 20.0122C13.1292 20.011 13.2604 19.9834 13.3824 19.931C13.5044 19.8786 13.6148 19.8024 13.707 19.7069L16.707 16.7069C16.8945 16.5194 16.9998 16.2651 16.9998 15.9999C16.9998 15.7348 16.8945 15.4804 16.707 15.2929L13.707 12.2929C13.5184 12.1108 13.2658 12.01 13.0036 12.0122C12.7414 12.0145 12.4906 12.1197 12.3052 12.3051C12.1198 12.4905 12.0146 12.7413 12.0123 13.0035C12.01 13.2657 12.1108 13.5183 12.293 13.7069L13.586 14.9999H2C1.73478 14.9999 1.48043 15.1053 1.29289 15.2928C1.10536 15.4803 1 15.7347 1 15.9999C1 16.2651 1.10536 16.5195 1.29289 16.707C1.48043 16.8946 1.73478 16.9999 2 16.9999H13.586L12.293 18.2929Z" fill="white"/>
</svg>
