<svg width="32" height="32" viewBox="0 0 32 32" fill="none" xmlns="http://www.w3.org/2000/svg">
<g clip-path="url(#clip0_400_6233)">
<path d="M27.7735 13.2622C29.5629 10.224 30.7272 6.60966 31.2254 2.51966C31.2656 2.18167 31.2286 1.83897 31.1171 1.51735C31.0057 1.19574 30.8228 0.903593 30.5821 0.662916C30.3414 0.422239 30.0493 0.239303 29.7277 0.12788C29.4061 0.016458 29.0634 -0.0205456 28.7254 0.0196556C24.6354 0.519656 21.021 1.67903 17.9829 3.47091C15.6556 4.83413 13.6103 6.62969 11.9572 8.76091L11.0585 8.71528C10.4673 8.68551 9.87651 8.77991 9.32407 8.9924C8.77162 9.2049 8.26982 9.53077 7.851 9.94903L5.77475 12.0197C5.65543 12.1391 5.56738 12.2861 5.51838 12.4476C5.46938 12.6092 5.46094 12.7803 5.49381 12.9459C5.52668 13.1115 5.59985 13.2665 5.70684 13.397C5.81384 13.5276 5.95136 13.6299 6.10725 13.6947L8.69225 14.7672C8.42956 15.512 8.21249 16.2722 8.04225 17.0434L7.91725 17.6153C7.88783 17.7487 7.89251 17.8873 7.93085 18.0184C7.9692 18.1495 8.03997 18.2688 8.13662 18.3653L12.8754 23.1034C12.9719 23.2001 13.0912 23.2708 13.2223 23.3092C13.3534 23.3475 13.492 23.3522 13.6254 23.3228L14.1972 23.1978C14.9687 23.0276 15.7291 22.8105 16.4741 22.5478L17.5472 25.1334C17.6119 25.2895 17.7141 25.4273 17.8447 25.5344C17.9753 25.6416 18.1304 25.7149 18.2961 25.7478C18.4619 25.7807 18.6332 25.7722 18.7948 25.723C18.9565 25.6738 19.1035 25.5855 19.2229 25.4659L21.296 23.3928C21.7138 22.9742 22.0393 22.4727 22.2517 21.9208C22.4641 21.3688 22.5586 20.7785 22.5291 20.1878L22.4835 19.2884C24.6148 17.6352 26.4104 15.5897 27.7735 13.2622ZM21.1666 18.2459C21.0594 18.3254 20.9734 18.4302 20.9163 18.5509C20.8592 18.6715 20.8327 18.8044 20.8391 18.9378L20.9066 20.2665C20.9249 20.6306 20.8667 20.9946 20.7358 21.3348C20.6049 21.6751 20.4042 21.9842 20.1466 22.2422L18.7054 23.6878L17.6754 21.2034C17.5938 21.0062 17.438 20.849 17.2416 20.7657C17.0451 20.6825 16.8238 20.6798 16.6254 20.7584C15.7244 21.1155 14.7965 21.4006 13.8504 21.6109L13.7122 21.6409L9.60037 17.5272L9.63037 17.389C9.84053 16.4432 10.1254 15.5155 10.4822 14.6147C10.56 14.4166 10.557 14.1959 10.4738 14C10.3906 13.8041 10.2338 13.6487 10.0372 13.5672L7.55475 12.5372L8.996 11.0959C9.254 10.8383 9.56309 10.6376 9.90335 10.5067C10.2436 10.3758 10.6075 10.3177 10.9716 10.3359L12.3004 10.4034C12.4342 10.4102 12.5676 10.3838 12.6888 10.3266C12.8099 10.2693 12.915 10.183 12.9947 10.0753C16.5097 5.33028 21.8697 2.48903 28.9179 1.63028C29.0117 1.61745 29.1073 1.62695 29.1968 1.65801C29.2863 1.68907 29.3672 1.74081 29.4329 1.80903C29.5005 1.87506 29.5518 1.9559 29.5828 2.04517C29.6139 2.13443 29.6237 2.22968 29.6116 2.32341C28.7535 9.37528 25.9122 14.7315 21.1666 18.2459ZM1.11162 24.3447C1.24961 24.4825 1.41933 24.5845 1.60589 24.6414C1.79244 24.6984 1.99014 24.7088 2.18162 24.6715C2.22996 24.6624 2.27787 24.6544 2.32537 24.6478C1.10412 26.1222 0.256623 28.2465 1.10475 31.1422C1.17639 31.3903 1.327 31.6084 1.53374 31.7632C1.74048 31.9181 1.99207 32.0013 2.25037 32.0003H2.2885C2.45276 31.9945 2.6141 31.9551 2.76263 31.8847C2.91116 31.8144 3.04374 31.7144 3.15225 31.5909C3.82537 30.8253 5.611 30.2159 7.9285 29.9622C9.206 29.8222 10.3322 29.2247 11.0997 28.2797C11.9122 27.2834 12.1622 26.1128 11.8304 24.894C11.5766 23.9609 11.0391 23.2278 10.741 22.874C10.6483 22.7635 10.5325 22.6746 10.4017 22.6137C10.2709 22.5528 10.1284 22.5214 9.98412 22.5215H9.9785C9.83251 22.5222 9.68847 22.5551 9.55667 22.6179C9.42486 22.6807 9.30854 22.7717 9.216 22.8847C8.72492 23.4974 8.01722 23.8982 7.23912 24.004C7.34475 23.2226 7.74772 22.512 8.36412 22.0203C8.47165 21.9326 8.55957 21.8234 8.62221 21.6996C8.68485 21.5758 8.72081 21.4402 8.72777 21.3017C8.73472 21.1631 8.71251 21.0246 8.66257 20.8952C8.61263 20.7658 8.53608 20.6483 8.43787 20.5503C8.40816 20.5206 8.37619 20.4932 8.34225 20.4684C6.96725 19.4684 5.63787 19.1259 4.38662 19.4565C2.4885 19.9565 1.36537 21.894 0.864748 23.0065C0.763815 23.228 0.733365 23.4751 0.777522 23.7145C0.821678 23.9538 0.938308 24.1738 1.11162 24.3447ZM4.61162 24.6747C4.72275 24.5857 4.80855 24.4691 4.86044 24.3365C4.91233 24.204 4.92848 24.0601 4.90728 23.9194C4.88608 23.7786 4.82826 23.6459 4.73963 23.5345C4.65099 23.4231 4.53465 23.3369 4.40225 23.2847C3.86777 23.0908 3.3033 22.9926 2.73475 22.9947H2.69037C3.14162 22.1978 3.84912 21.279 4.80225 21.0272C5.3785 20.8747 6.02162 20.9865 6.71975 21.359C5.95412 22.2503 5.55475 23.3703 5.58412 24.5928C5.59229 24.872 5.70686 25.1375 5.90437 25.335C6.10189 25.5325 6.36742 25.6471 6.64662 25.6553C7.8423 25.6974 9.00898 25.2816 9.9085 24.4928C10.351 25.2278 10.6454 26.2559 9.836 27.2528C9.34662 27.8547 8.586 28.2528 7.7485 28.3447C6.03912 28.5322 3.851 28.9697 2.49475 29.9959C2.08975 27.8853 2.78662 26.1384 4.6135 24.6747H4.61162Z" fill="white"/>
<path d="M19.1391 7.31737C18.666 7.79043 18.3439 8.39314 18.2134 9.04927C18.0829 9.70541 18.1499 10.3855 18.4059 11.0036C18.662 11.6216 19.0955 12.1499 19.6517 12.5215C20.208 12.8932 20.862 13.0916 21.5309 13.0916C22.1999 13.0916 22.8539 12.8932 23.4101 12.5215C23.9664 12.1499 24.3999 11.6216 24.6559 11.0036C24.912 10.3855 24.979 9.70541 24.8485 9.04927C24.718 8.39314 24.3958 7.79043 23.9228 7.31737C23.288 6.68389 22.4278 6.32812 21.5309 6.32812C20.6341 6.32812 19.7739 6.68389 19.1391 7.31737ZM22.7734 10.9517C22.4859 11.2392 22.1075 11.4181 21.7028 11.4578C21.2982 11.4976 20.8923 11.3958 20.5542 11.1699C20.2162 10.9439 19.9669 10.6077 19.849 10.2186C19.7311 9.82944 19.7517 9.41145 19.9074 9.03582C20.0631 8.6602 20.3442 8.35018 20.7028 8.15859C21.0615 7.967 21.4755 7.9057 21.8742 7.98512C22.273 8.06455 22.6319 8.27979 22.8898 8.59418C23.1477 8.90856 23.2885 9.30263 23.2884 9.70925C23.289 9.94012 23.2438 10.1688 23.1554 10.3821C23.067 10.5954 22.9372 10.789 22.7734 10.9517Z" fill="white"/>
</g>
<defs>
<clipPath id="clip0_400_6233">
<rect width="32" height="32" fill="white"/>
</clipPath>
</defs>
</svg>
