<svg width="26" height="26" viewBox="0 0 26 26" fill="none" xmlns="http://www.w3.org/2000/svg">
<g clip-path="url(#clip0_2527_1061)">
<path d="M12.9994 0.703125C9.73898 0.703125 6.60919 1.99942 4.30556 4.30459C1.99954 6.61068 0.703764 9.73818 0.703125 12.9994C0.703125 16.2593 2 19.3891 4.30556 21.6942C6.60919 23.9994 9.73898 25.2957 12.9994 25.2957C16.2599 25.2957 19.3897 23.9994 21.6933 21.6942C23.9988 19.3891 25.2957 16.2593 25.2957 12.9994C25.2957 9.73956 23.9988 6.60977 21.6933 4.30459C19.3897 1.99942 16.2599 0.703125 12.9994 0.703125Z" fill="url(#paint0_linear_2527_1061)"/>
<path d="M6.26939 12.8697C9.85453 11.3081 12.2446 10.2784 13.4397 9.78101C16.8557 8.36059 17.5647 8.1139 18.0277 8.10554C18.1296 8.10391 18.3563 8.12908 18.5042 8.24868C18.6272 8.34955 18.6617 8.48596 18.679 8.58173C18.6944 8.67742 18.7155 8.89548 18.6983 9.06571C18.5138 11.0101 17.7126 15.7284 17.3053 17.9062C17.1343 18.8276 16.7943 19.1366 16.4657 19.1667C15.751 19.2324 15.2092 18.6949 14.5175 18.2416C13.4358 17.5321 12.8249 17.0906 11.7739 16.3983C10.5596 15.5983 11.3474 15.1585 12.039 14.44C12.2196 14.2519 15.3667 11.3901 15.4263 11.1305C15.434 11.0981 15.4417 10.977 15.3686 10.9132C15.2976 10.8492 15.1919 10.8712 15.115 10.8884C15.0055 10.913 13.2783 12.0558 9.92754 14.3166C9.43761 14.6536 8.99379 14.8179 8.59416 14.8092C8.1561 14.7998 7.31073 14.561 6.68247 14.357C5.91395 14.1066 5.30106 13.9742 5.35485 13.5491C5.38175 13.3277 5.68724 13.1012 6.26939 12.8697Z" fill="#F3F8F9"/>
</g>
<defs>
<linearGradient id="paint0_linear_2527_1061" x1="1230.33" y1="0.703125" x2="1230.33" y2="2459.96" gradientUnits="userSpaceOnUse">
<stop stop-color="#2AABEE"/>
<stop offset="1" stop-color="#229ED9"/>
</linearGradient>
<clipPath id="clip0_2527_1061">
<rect width="24.5926" height="24.5926" fill="white" transform="translate(0.703125 0.703125)"/>
</clipPath>
</defs>
</svg>
