<svg width="52" height="52" viewBox="0 0 52 52" fill="none" xmlns="http://www.w3.org/2000/svg">
<rect x="0.25" y="0.00341797" width="51.5668" height="51.5668" rx="8.00175" fill="white" fill-opacity="0.1"/>
<g clip-path="url(#clip0_2588_2168)">
<path d="M29.2086 12.0895C32.7292 12.0895 35.5934 14.8896 35.5934 18.3314V28.5533C35.5934 31.9951 32.7292 34.7952 29.2086 34.7952H18.7526C15.232 34.7952 12.3678 31.9951 12.3678 28.5533V18.3314C12.3678 14.8896 15.232 12.0895 18.7526 12.0895H29.2086ZM29.2086 10H18.7526C14.0467 10 10.2305 13.7308 10.2305 18.3314V28.5533C10.2305 33.1539 14.0467 36.8847 18.7526 36.8847H29.2086C33.9145 36.8847 37.7307 33.1539 37.7307 28.5533V18.3314C37.7307 13.7308 33.9145 10 29.2086 10Z" fill="#B59EFF"/>
<path d="M29.6332 41.0001H22.1797V38.9107H29.6332C35.3996 38.9107 40.0919 34.3234 40.0919 28.686V21.3994H42.2292V28.686C42.2292 35.4742 36.5794 41.0001 29.6332 41.0001Z" fill="#B59EFF"/>
<path d="M16.0273 17.769H18.2759L20.443 25.8909H20.4756L23.0658 17.769H25.0865L27.628 25.8909H27.6605L29.9253 17.769H32.0111L28.6559 29.0437H26.7003L24.0287 20.4604H23.9962L21.3245 29.0437H19.434L16.0301 17.769H16.0273Z" fill="#B59EFF"/>
</g>
<defs>
<clipPath id="clip0_2588_2168">
<rect width="32" height="31" fill="white" transform="translate(10.2305 10)"/>
</clipPath>
</defs>
</svg>
