<svg width="29" height="28" viewBox="0 0 29 28" fill="none" xmlns="http://www.w3.org/2000/svg">
<g clip-path="url(#clip0_2527_1056)">
<path d="M1.47704 14.0402C1.4764 16.3342 2.08047 18.5741 3.2291 20.5483L1.36719 27.2938L8.32424 25.4837C10.2485 26.5232 12.4044 27.0678 14.5953 27.0679H14.6011C21.8336 27.0679 27.7211 21.2282 27.7241 14.0505C27.7255 10.5724 26.3617 7.30177 23.8838 4.84115C21.4063 2.38074 18.1113 1.02502 14.6005 1.02344C7.36716 1.02344 1.48013 6.86281 1.47714 14.0402" fill="url(#paint0_linear_2527_1056)"/>
<path d="M1.00865 14.0364C1.0079 16.4129 1.63362 18.7329 2.82321 20.7778L0.894531 27.7651L8.10104 25.8902C10.0867 26.9644 12.3223 27.5308 14.5971 27.5317H14.603C22.095 27.5317 28.194 21.4819 28.1972 14.0472C28.1984 10.4441 26.7855 7.05595 24.2191 4.50717C21.6523 1.95871 18.2395 0.554216 14.603 0.552734C7.10972 0.552734 1.01163 6.60164 1.00865 14.0364ZM5.30039 20.4257L5.03131 20.0018C3.90017 18.2172 3.30314 16.1549 3.30399 14.0373C3.30633 7.85767 8.37481 2.83007 14.6073 2.83007C17.6255 2.83134 20.462 3.99879 22.5954 6.11697C24.7288 8.23536 25.9027 11.0513 25.9019 14.0464C25.8992 20.226 20.8306 25.2542 14.603 25.2542H14.5985C12.5708 25.2532 10.5821 24.7128 8.8477 23.6917L8.43496 23.4488L4.15848 24.5614L5.30039 20.4257Z" fill="url(#paint1_linear_2527_1056)"/>
<path d="M11.2052 8.39879C10.9507 7.8376 10.6829 7.82628 10.4409 7.81644C10.2428 7.80797 10.0162 7.8086 9.78994 7.8086C9.56341 7.8086 9.19536 7.89316 8.88426 8.23021C8.57284 8.56758 7.69531 9.38284 7.69531 11.041C7.69531 12.6993 8.91252 14.3018 9.0822 14.5269C9.2521 14.7515 11.432 18.2632 14.8845 19.6141C17.7539 20.7368 18.3378 20.5135 18.9605 20.4572C19.5834 20.4011 20.9703 19.6422 21.2532 18.8552C21.5364 18.0683 21.5364 17.3937 21.4515 17.2528C21.3666 17.1123 21.14 17.028 20.8004 16.8595C20.4606 16.691 18.7906 15.8756 18.4793 15.7631C18.1679 15.6507 17.9415 15.5946 17.715 15.9321C17.4884 16.269 16.838 17.028 16.6397 17.2528C16.4416 17.4781 16.2434 17.5061 15.9038 17.3375C15.5639 17.1684 14.47 16.813 13.1722 15.6649C12.1624 14.7715 11.4807 13.6683 11.2825 13.3308C11.0844 12.9939 11.2613 12.8112 11.4316 12.6433C11.5842 12.4923 11.7714 12.2497 11.9414 12.053C12.1108 11.8562 12.1673 11.7157 12.2806 11.491C12.3939 11.266 12.3372 11.0692 12.2524 10.9006C12.1673 10.732 11.5072 9.06516 11.2052 8.39879Z" fill="#F3F8F9"/>
</g>
<defs>
<linearGradient id="paint0_linear_2527_1056" x1="1319.22" y1="2628.06" x2="1319.22" y2="1.02344" gradientUnits="userSpaceOnUse">
<stop stop-color="#1FAF38"/>
<stop offset="1" stop-color="#60D669"/>
</linearGradient>
<linearGradient id="paint1_linear_2527_1056" x1="1366.03" y1="2721.79" x2="1366.03" y2="0.552734" gradientUnits="userSpaceOnUse">
<stop stop-color="#F9F9F9"/>
<stop offset="1" stop-color="white"/>
</linearGradient>
<clipPath id="clip0_2527_1056">
<rect width="27.3026" height="27.3026" fill="white" transform="translate(0.894531 0.552734)"/>
</clipPath>
</defs>
</svg>
