<svg width="76" height="76" viewBox="0 0 76 76" fill="none" xmlns="http://www.w3.org/2000/svg">
<path d="M34.4172 63.3311C38.4543 63.3311 41.7271 60.0583 41.7271 56.0212C41.7271 51.9841 38.4543 48.7114 34.4172 48.7114C30.3801 48.7114 27.1074 51.9841 27.1074 56.0212C27.1074 60.0583 30.3801 63.3311 34.4172 63.3311Z" fill="#0A8D12"/>
<path d="M33.8157 63.3298C37.8528 63.3298 41.1255 60.0571 41.1255 56.02C41.1255 51.9829 37.8528 48.7102 33.8157 48.7102C29.7786 48.7102 26.5059 51.9829 26.5059 56.02C26.5059 60.0571 29.7786 63.3298 33.8157 63.3298Z" fill="#09A463"/>
<path d="M33.8156 60.6339C36.363 60.6339 38.4281 58.5689 38.4281 56.0214C38.4281 53.474 36.363 51.4089 33.8156 51.4089C31.2682 51.4089 29.2031 53.474 29.2031 56.0214C29.2031 58.5689 31.2682 60.6339 33.8156 60.6339Z" fill="black"/>
<path d="M33.2726 60.6031C35.5212 60.6031 37.344 58.5518 37.344 56.0214C37.344 53.491 35.5212 51.4397 33.2726 51.4397C31.024 51.4397 29.2012 53.491 29.2012 56.0214C29.2012 58.5518 31.024 60.6031 33.2726 60.6031Z" fill="#0A8D12"/>
<path d="M55.1932 63.0165C58.9048 63.0165 61.9137 60.0076 61.9137 56.296C61.9137 52.5843 58.9048 49.5754 55.1932 49.5754C51.4815 49.5754 48.4727 52.5843 48.4727 56.296C48.4727 60.0076 51.4815 63.0165 55.1932 63.0165Z" fill="#0A8D12"/>
<path d="M54.6405 63.0153C58.3521 63.0153 61.361 60.0064 61.361 56.2948C61.361 52.5831 58.3521 49.5742 54.6405 49.5742C50.9288 49.5742 47.9199 52.5831 47.9199 56.2948C47.9199 60.0064 50.9288 63.0153 54.6405 63.0153Z" fill="#09A463"/>
<path d="M58.8809 56.296C58.8809 58.8741 56.5894 60.8284 54.1416 60.5087C52.0352 60.2597 50.3984 58.4664 50.3984 56.296C50.3984 54.1255 52.0352 52.3322 54.1416 52.0832C56.5949 51.7629 58.8809 53.7213 58.8809 56.296Z" fill="black"/>
<path d="M54.1417 60.5095C56.2091 60.5095 57.885 58.6231 57.885 56.2962C57.885 53.9692 56.2091 52.0828 54.1417 52.0828C52.0744 52.0828 50.3984 53.9692 50.3984 56.2962C50.3984 58.6231 52.0744 60.5095 54.1417 60.5095Z" fill="#0A8D12"/>
<path d="M23.6393 26.9581C21.7518 22.5925 21.6596 22.3153 21.2881 21.8508C19.8457 19.9567 12.1768 17.3538 9.92124 16.6034C9.90603 16.6034 9.89045 16.5879 9.87486 16.5723C9.35873 16.4002 9.20154 15.6822 9.68783 15.2644C9.73459 15.2176 9.78135 15.1864 9.8281 15.1864C10.0178 15.0782 10.2364 15.0665 10.4196 15.1398C10.5542 15.1398 16.4424 17.1176 20.0271 19.0013C23.0789 20.64 22.9484 21.4322 24.8539 25.8837L25.0565 26.3509C25.4713 27.2948 24.0463 27.9238 23.6393 26.9581Z" fill="#019A5A"/>
<path d="M56.8326 44.4526H54.1406V57.591H56.8326V44.4526Z" fill="#2FF7A3"/>
<path d="M34.6021 44.4526H31.9102V57.591H34.6021V44.4526Z" fill="#2FF7A3"/>
<path d="M68.1174 34.3834C66.4315 38.9224 64.7484 41.0056 58.0427 41.5927C48.5363 42.4624 38.8944 43.0073 29.3924 42.1377C18.8865 41.2054 19.1286 37.0383 16.9512 30.6931C16.6227 29.7633 16.4483 29.679 16.8889 29.3852C18.5977 28.3801 18.6392 28.2126 19.6138 28.1083C33.2695 26.9249 46.8785 24.2312 60.581 24.8073L66.7782 24.9007C69.2474 28.1328 69.7391 29.6878 68.1174 34.3834Z" fill="#28FFA5"/>
<path d="M68.8804 31.7208C58.6502 32.2813 48.3888 32.437 38.159 32.1567C33.3163 32.0321 27.9132 32.0011 24.3786 35.3177C22.6657 36.8749 22.2037 38.7085 23.2731 40.8142C18.7447 38.8452 18.6049 35.5122 16.9512 30.6931C16.6227 29.7633 16.4483 29.679 16.8889 29.3852C18.5977 28.3801 18.6392 28.2126 19.6138 28.1083C33.2695 26.9249 46.8785 24.2312 60.581 24.8073L66.7782 24.9007C68.5283 27.1915 69.4746 28.7899 68.8804 31.7208Z" fill="#1CFFA0"/>
<path d="M45.8352 27.7033C42.8293 27.9151 56.7243 26.9362 16.4375 29.7743L18.9286 26.5043L43.9824 24.6514C44.0652 24.7878 45.9543 27.8995 45.8352 27.7033Z" fill="#0A8D12"/>
<path d="M45.8362 27.7035L19.5059 29.5557L21.2027 27.3298L44.5599 25.6008L45.8362 27.7035Z" fill="black"/>
<path d="M69.3179 30.584C62.6992 30.6567 65.0845 30.1457 59.8351 30.4595C59.0721 30.5217 58.2936 30.4283 57.515 30.4439C53.5444 30.5529 49.6049 29.603 45.6346 29.7432C44.6559 29.7748 44.1955 29.6829 43.8593 28.731C42.3075 24.4387 40.1014 12.6512 39.2348 6.37119C39.188 6.02868 39.5305 5.7639 39.8419 5.8885C39.9822 5.93525 40.1068 5.98192 40.2467 6.01309V6.02868C44.0463 7.321 48.0634 7.74144 52.0808 8.23972C54.1201 8.50007 57.1719 8.84708 59.228 8.5044C60.1731 8.36915 58.9607 9.57998 63.4632 13.9698C67.363 17.7225 68.1241 17.5685 67.9631 18.1584C67.7141 19.186 67.8539 20.2604 68.041 21.3037C68.0877 21.5217 68.1189 21.7241 68.1653 21.9265C69.6907 29.5461 69.5211 28.7358 70.0497 29.7898C70.1428 30.0234 70.1378 30.584 69.3179 30.584Z" fill="#2FF7A3"/>
<path d="M58.9699 45.0982C58.5339 45.1145 38.158 45.6121 38.0115 45.6121C33.8521 45.6121 29.5671 44.7992 26.9563 41.5792C25.327 39.5423 24.593 36.3914 21.8178 30.6639C20.1382 27.2212 19.1994 23.3978 15.8229 21.5862C15.2158 21.2747 14.5308 21.0411 13.8765 20.8231C11.5257 20.0291 9.09653 19.2038 6.62061 19.1103C5.85845 19.0772 5.49994 18.0358 6.40279 17.5844C8.71496 16.3512 9.55395 15.2644 9.68804 15.2644C9.7348 15.2176 9.78155 15.1864 9.82831 15.1864C10.018 15.0782 10.2366 15.0665 10.4198 15.1398C10.7803 15.1398 11.2441 15.9053 10.7 16.4477C10.5794 16.5685 9.58177 17.402 8.98742 17.8179C10.8687 18.1662 12.0496 18.5869 14.3749 19.3439C16.7783 20.1799 18.6044 21.0094 20.5253 24.2021C21.6756 26.2053 21.6381 26.779 23.2191 29.9944C26.329 36.3586 26.5503 38.5934 28.1709 40.5982C31.0865 44.2149 36.4191 44.1529 40.752 43.9771C47.0641 43.7873 54.8765 43.6921 58.9235 43.5411C59.2348 43.51 59.5618 43.7436 59.6864 44.0706C59.8698 44.5285 59.5232 45.0785 58.9699 45.0982Z" fill="#019A5A"/>
<path d="M69.3179 30.584C62.6992 30.6567 65.0845 30.1457 59.8351 30.4595C59.0721 30.5217 58.2936 30.4283 57.515 30.4439C53.5444 30.5529 49.6049 29.603 45.6346 29.7432C44.6559 29.7748 44.1955 29.6829 43.8593 28.731C42.2887 24.3868 40.1295 12.8286 39.2348 6.37119C39.188 6.02868 39.5305 5.7639 39.8419 5.8885C39.9822 5.93525 40.1068 5.98192 40.2467 6.02868C40.2467 6.68758 40.5523 7.46832 40.6893 8.11519C43.3602 20.7288 43.2091 21.0457 44.3549 22.0782C45.6635 23.2575 48.1324 23.7876 49.0873 22.1742C49.3942 21.6556 49.807 21.1983 50.1711 20.712C52.6434 17.4098 56.3166 10.4821 58.6673 8.56665C59.9445 8.46065 59.4073 8.39763 60.1932 9.90582C59.5329 11.336 58.3485 13.3634 55.7819 17.9262C54.9557 19.3949 52.4382 22.6799 53.5019 24.0022C53.6512 24.1877 53.7918 24.1976 53.9878 24.1665C55.7745 23.883 56.4273 22.738 60.3566 20.385C62.539 19.0782 64.86 17.9737 67.3248 17.3176C67.7372 17.6892 68.0643 17.7876 67.9631 18.1584C67.7141 19.186 67.8539 20.2604 68.041 21.3037C65.3787 22.8288 61.9276 23.2703 59.3279 24.5792C58.1561 25.1693 56.7561 26.7537 56.6445 27.0915C56.1428 28.6113 59.6018 28.7879 60.3824 28.9392C63.346 29.5136 66.6275 29.0368 70.0029 29.6809C70.2551 30.2478 70.1831 30.584 69.3179 30.584Z" fill="#21E22D"/>
<path d="M69.3163 30.5841C62.6977 30.6569 65.0829 30.1458 59.8335 30.4596C59.0705 30.5218 58.292 30.4284 57.5135 30.444C53.5428 30.553 49.6033 29.6031 45.633 29.7433C45.1502 29.7589 44.6207 29.7744 44.2782 29.4474C43.3624 28.6633 41.3757 18.7442 41.1328 17.4734C43.4816 24.2433 43.5465 26.3762 44.7765 26.8938C45.259 27.0962 45.8353 26.9249 46.3025 26.6758C47.8297 25.8447 48.7281 24.2012 51.0517 20.8834C55.9033 13.9902 56.2264 11.7 58.2452 9.93701C58.3232 10.4665 58.0426 10.9803 57.7936 11.4474C47.6401 29.399 46.8128 29.1024 59.9738 21.8176C60.7675 21.3817 61.6864 20.9924 62.387 20.4163C63.7262 19.3419 65.47 18.6724 67.1518 18.3453C67.1206 18.7502 66.7625 19.0461 66.4356 19.2952C64.4736 20.79 62.387 22.1447 60.2228 23.3436C58.2066 24.4517 53.6363 26.6918 53.6363 27.8436C53.6659 30.7696 63.671 29.3141 70.0481 29.7899C70.2417 30.2754 70.1363 30.5841 69.3163 30.5841Z" fill="black"/>
<path d="M45.7036 39.153C48.5064 40.022 46.4632 35.6114 42.8604 35.444C42.4427 35.4246 41.9266 35.5324 41.808 35.9334C41.612 36.5957 42.6283 37.557 43.0935 37.9487C43.7922 38.5371 44.8446 38.8866 45.7036 39.153Z" fill="#1CFFA0"/>
<path d="M50.2194 37.7595C50.8788 37.9639 51.2299 37.6376 50.9189 37.0459C49.8119 34.9399 46.2549 35.0269 48.6278 37.0251C49.0538 37.3839 49.6956 37.5971 50.2194 37.7595Z" fill="#1CFFA0"/>
<path d="M24.8537 25.8837C24.3865 25.7902 23.982 25.4321 23.7326 25.0273C23.0491 23.9529 23.2645 22.8057 22.1132 21.337C20.8054 19.6709 18.5162 19.2349 16.6166 18.3162C15.1842 17.6311 13.8917 16.619 12.3346 16.3543C9.46988 15.8332 8.15696 18.169 6.40234 17.5844C8.71452 16.3512 9.55351 15.2644 9.6876 15.2644C9.73435 15.2176 9.78111 15.1864 9.82787 15.1864C10.0176 15.0782 10.2362 15.0665 10.4194 15.1398C10.554 15.1398 16.4422 17.1176 20.0269 19.0013C23.0786 20.64 22.9481 21.4322 24.8537 25.8837Z" fill="#52CC99"/>
<path d="M59.6858 44.0706C58.8137 44.2575 57.8949 44.2419 57.0076 44.2419C50.39 44.1795 43.7875 45.2385 37.1699 45.1139C32.3161 45.0026 29.6325 44.0132 26.9245 39.6173C23.8511 34.6332 22.5824 30.9474 20.4623 25.5412C19.7677 23.7425 19.4236 23.1561 17.691 21.8665C16.1184 20.7609 14.4054 19.8734 12.5837 19.2506C11.7584 18.9702 10.8552 18.69 10.2637 18.0828C11.6649 18.4409 13.035 18.908 14.3742 19.344C16.7777 20.1799 18.6038 21.0095 20.5247 24.2021C21.6749 26.2054 21.6374 26.7791 23.2184 29.9945C26.3283 36.3586 26.5496 38.5934 28.1702 40.5983C31.0858 44.215 36.4184 44.153 40.7513 43.9771C47.0634 43.7874 54.8759 43.6921 58.9228 43.5412C59.2341 43.51 59.5611 43.7436 59.6858 44.0706Z" fill="#52CC99"/>
<path d="M49.9613 15.4036C50.3105 14.9264 50.8726 14.7211 51.0089 15.2937C51.185 16.0334 50.6309 19.0487 49.5904 18.2411C48.7492 17.5883 49.4859 16.0535 49.9613 15.4036Z" fill="#21E22D"/>
<path d="M50.1541 13.994C50.0439 14.457 49.8106 14.9665 49.4333 14.6737C48.4842 13.937 50.847 11.0812 50.1541 13.994Z" fill="#21E22D"/>
<path d="M55.2736 69.2789C59.199 69.2789 62.3812 66.0967 62.3812 62.1713C62.3812 58.2459 59.199 55.0637 55.2736 55.0637C51.3482 55.0637 48.166 58.2459 48.166 62.1713C48.166 66.0967 51.3482 69.2789 55.2736 69.2789Z" fill="#0A8D12"/>
<path d="M54.6701 69.2227C58.5955 69.2227 61.7777 66.0406 61.7777 62.1152C61.7777 58.1897 58.5955 55.0076 54.6701 55.0076C50.7447 55.0076 47.5625 58.1897 47.5625 62.1152C47.5625 66.0406 50.7447 69.2227 54.6701 69.2227Z" fill="#09A463"/>
<path d="M59.1571 62.1155C59.1571 64.8422 56.7335 66.9092 54.1445 66.5711C51.9167 66.3077 50.1855 64.411 50.1855 62.1155C50.1855 59.6536 52.1852 57.6296 54.6713 57.6296C57.1476 57.6296 59.1571 59.6393 59.1571 62.1155Z" fill="black"/>
<path d="M54.1445 66.571C56.3309 66.571 58.1034 64.5761 58.1034 62.1152C58.1034 59.6544 56.3309 57.6594 54.1445 57.6594C51.958 57.6594 50.1855 59.6544 50.1855 62.1152C50.1855 64.5761 51.958 66.571 54.1445 66.571Z" fill="#0A8D12"/>
<path d="M34.4999 70.1428C38.7692 70.1428 42.2302 66.6818 42.2302 62.4125C42.2302 58.1431 38.7692 54.6821 34.4999 54.6821C30.2305 54.6821 26.7695 58.1431 26.7695 62.4125C26.7695 66.6818 30.2305 70.1428 34.4999 70.1428Z" fill="#0A8D12"/>
<path d="M33.8456 70.0813C38.115 70.0813 41.5759 66.6203 41.5759 62.351C41.5759 58.0816 38.115 54.6206 33.8456 54.6206C29.5762 54.6206 26.1152 58.0816 26.1152 62.351C26.1152 66.6203 29.5762 70.0813 33.8456 70.0813Z" fill="#09A463"/>
<path d="M38.7248 62.3512C38.7248 65.0444 36.5391 67.2302 33.8458 67.2302C31.1375 67.2302 28.9668 65.0252 28.9668 62.3512C28.9668 59.8543 30.8497 57.7914 33.2728 57.5049C36.095 57.1364 38.7248 59.3894 38.7248 62.3512Z" fill="black"/>
<path d="M33.2726 67.1979C35.6506 67.1979 37.5784 65.0279 37.5784 62.351C37.5784 59.6742 35.6506 57.5042 33.2726 57.5042C30.8946 57.5042 28.9668 59.6742 28.9668 62.351C28.9668 65.0279 30.8946 67.1979 33.2726 67.1979Z" fill="#0A8D12"/>
</svg>
