<svg width="54" height="41" viewBox="0 0 54 41" fill="none" xmlns="http://www.w3.org/2000/svg">
<path d="M52.8654 26.2854V33.4632L47.2168 30.2638V23.084L52.8654 26.2854Z" fill="#00B852"/>
<path d="M33.6665 21.8034L39.3151 18.6061L33.6665 15.3591H52.6864L52.8646 26.2854L47.216 23.084L31.0536 32.4084L19.9491 26.4822L8.44687 33.0446L0.392578 28.6559L11.5364 22.2903C13.4966 23.2808 15.2662 23.3264 16.5737 22.5659L19.9947 20.5891C20.8526 20.0939 21.5115 19.2547 21.9011 18.1192L31.3167 23.1358L33.6665 21.8034Z" fill="#F3F8F9"/>
<path d="M47.2167 23.084V30.2638L31.0625 39.5904V32.4105L47.2167 23.084Z" fill="#2F2F2F"/>
<path d="M39.3147 18.6061L33.6641 21.8034V15.3591L39.3147 18.6061Z" fill="#00B852"/>
<path d="M31.0619 32.4105V39.5903L19.9492 33.66V26.4822L31.0619 32.4105Z" fill="#00B852"/>
<path d="M22.2949 15.5063C22.3079 16.3929 22.1749 17.2757 21.9012 18.1192C21.5116 19.2547 20.8527 20.0939 19.9949 20.5891L16.6795 22.4975C18.0388 21.6542 18.8739 19.9198 18.8739 17.481C18.8739 13.9832 17.1581 9.95921 14.6447 7.00024C13.6246 5.76566 12.401 4.71448 11.0268 3.89208C8.90286 2.66539 6.97373 2.52863 5.56055 3.29531L8.89872 1.36203C10.316 0.54562 12.2783 0.665802 14.4458 1.91528C18.7785 4.41839 22.2949 10.5042 22.2949 15.5063Z" fill="#F3F8F9"/>
<path d="M19.9495 26.4822V33.66L8.44727 40.2223V33.0445L19.9495 26.4822Z" fill="#2F2F2F"/>
<path d="M18.874 17.483C18.874 19.9219 18.0451 21.6562 16.6796 22.4996L16.5739 22.5618C15.2643 23.3264 13.4989 23.2725 11.5366 22.2903C11.3688 22.2074 11.1968 22.1142 11.0269 22.0168C6.6941 19.5095 3.17773 13.43 3.17773 8.42375C3.17773 6.78264 3.55693 5.46478 4.21379 4.51782L11.0269 12.9534L14.6448 7.00228C17.1583 9.96125 18.874 13.9853 18.874 17.483Z" fill="#F3F8F9"/>
<path d="M14.6451 7.00239L11.0272 12.9535L4.22656 4.51378C4.54906 4.03563 4.9737 3.63505 5.46983 3.34097L5.55271 3.29331C6.96589 2.52663 8.89503 2.67168 11.0189 3.89008C12.3964 4.71295 13.6229 5.7656 14.6451 7.00239Z" fill="#2F2F2F"/>
<path d="M8.44687 33.0446V40.2224L0.392578 35.8337V28.6559L8.44687 33.0446Z" fill="#00B852"/>
<path d="M0.392578 28.6558V35.8336L8.44687 40.2223L19.9491 33.6599L31.0619 39.5903L47.216 30.2637L52.8646 33.4631V26.2853" stroke="#2F2F2F" stroke-width="0.621633" stroke-linecap="round" stroke-linejoin="round"/>
<path d="M11.5364 22.2903L0.392578 28.6559L8.44687 33.0446L19.9491 26.4822L31.0619 32.4105L47.216 23.084L52.8646 26.2854L52.6864 15.3591H33.6644L39.3151 18.6061L31.3167 23.1358L21.9011 18.1192" stroke="#2F2F2F" stroke-width="0.621633" stroke-linecap="round" stroke-linejoin="round"/>
<path d="M33.666 15.3591V21.82" stroke="#2F2F2F" stroke-width="0.621633" stroke-linecap="round" stroke-linejoin="round"/>
<path d="M47.2168 30.2638V23.084" stroke="#2F2F2F" stroke-width="0.621633" stroke-linecap="round" stroke-linejoin="round"/>
<path d="M8.44727 33.0447V40.2225" stroke="#2F2F2F" stroke-width="0.621633" stroke-linecap="round" stroke-linejoin="round"/>
<path d="M19.9492 33.66V26.4822" stroke="#2F2F2F" stroke-width="0.621633" stroke-linecap="round" stroke-linejoin="round"/>
<path d="M31.0625 39.5883V32.4105" stroke="#2F2F2F" stroke-width="0.621633" stroke-linecap="round" stroke-linejoin="round"/>
<path d="M5.46877 3.34094C4.97264 3.63503 4.548 4.0356 4.22551 4.51376C3.5645 5.46071 3.18945 6.77857 3.18945 8.41968C3.18945 13.4259 6.71204 19.5055 11.0386 22.0127C11.2085 22.1101 11.3805 22.2034 11.5483 22.2862C13.5106 23.2726 15.2781 23.3223 16.5856 22.5618" stroke="#2F2F2F" stroke-width="0.621633" stroke-linecap="round" stroke-linejoin="round"/>
<path d="M16.6795 22.4975C18.0388 21.6542 18.8738 19.9198 18.8738 17.4809C18.8738 13.9832 17.1561 9.96124 14.6447 7.00019C13.6241 5.76607 12.4006 4.71496 11.0268 3.89203C8.90286 2.66534 6.97373 2.52858 5.56055 3.29526" stroke="#2F2F2F" stroke-width="0.621633" stroke-linecap="round" stroke-linejoin="round"/>
<path d="M4.21875 4.51379L11.0277 12.9535L14.6456 7.0024" stroke="#2F2F2F" stroke-width="0.621633" stroke-linecap="round" stroke-linejoin="round"/>
<path d="M5.46875 3.3409L8.89809 1.36203C10.3154 0.54562 12.2777 0.665802 14.4451 1.91528C18.7779 4.41839 22.2943 10.5042 22.2943 15.5062C22.3073 16.3929 22.1743 17.2757 21.9006 18.1192C21.511 19.2547 20.8521 20.0939 19.9942 20.5891L16.5732 22.5618" stroke="#2F2F2F" stroke-width="0.621633" stroke-linecap="round" stroke-linejoin="round"/>
</svg>
