<svg width="45" height="61" viewBox="0 0 45 61" fill="none" xmlns="http://www.w3.org/2000/svg">
<g clip-path="url(#clip0_792_813)">
<path d="M37.5083 6.30101C42.1295 10.9222 43.7724 15.5898 43.6418 20.0746C43.0961 6.26328 29.6331 4.37648 22.0859 4.37648C25.4183 2.23135 28.2398 1.94397 32.2369 2.85544C34.1992 3.65434 35.989 4.82424 37.5083 6.30101Z" fill="#F3F8F9"/>
<path d="M43.6409 20.0746C43.4609 26.2053 39.9311 31.944 36.1256 36.6204C48.1634 17.4825 30.4188 7.28219 22.0879 4.38234C29.6322 4.37653 43.0951 6.26332 43.6409 20.0746Z" fill="#00B852"/>
<path d="M22.0879 4.38232C30.4188 7.28508 48.1634 17.4825 36.1256 36.6203C34.0763 39.137 31.9457 41.3431 30.2127 43.1312C28.4798 44.9193 27.1387 46.2865 26.6888 47.1312C26.6381 47.225 26.5935 47.322 26.5552 47.4215C26.2865 47.8821 25.893 48.2575 25.4203 48.5042C24.9799 48.7562 24.5059 48.9439 24.0124 49.0616C25.6089 40.2836 33.9457 33.8685 30.979 19.3693C29.2403 10.8613 22.3056 4.57681 22.0879 4.38232Z" fill="#F3F8F9"/>
<path d="M30.9798 19.3809C33.9464 33.8801 25.6097 40.2807 24.0132 49.0732C23.4074 49.2243 22.7855 49.3003 22.1612 49.2996H22.0625V4.38232H22.0857C22.3063 4.57681 29.241 10.8613 30.9798 19.3809Z" fill="#00B852"/>
<path d="M32.2367 2.85532C28.2396 1.94385 25.4181 2.23123 22.0857 4.37636H22.0625V0.968528C25.546 0.909901 29.0058 1.55152 32.2367 2.85532Z" fill="#00B852"/>
<path d="M26.6882 47.134C26.6545 47.2354 26.6097 47.3328 26.5547 47.4243C26.5929 47.3248 26.6375 47.2278 26.6882 47.134Z" fill="#F3F8F9"/>
<path d="M25.6583 54.4373V57.7755C25.6583 58.3038 25.3099 58.8321 24.6104 59.2268C23.2141 60.0309 20.9529 60.0309 19.5538 59.2268C18.8571 58.8234 18.5059 58.295 18.5059 57.7755V54.4141C18.5059 54.9424 18.8571 55.4736 19.5538 55.8654C20.3369 56.2643 21.2032 56.4723 22.0821 56.4723C22.9609 56.4723 23.8273 56.2643 24.6104 55.8654C25.3012 55.4765 25.6495 54.9598 25.6583 54.4373Z" fill="#F3F8F9"/>
<path d="M25.659 54.4141V54.4373C25.659 54.9598 25.3019 55.4765 24.6111 55.8887C23.826 56.3074 22.9461 56.5163 22.0566 56.4954V52.3473C22.9459 52.3288 23.8251 52.5377 24.6111 52.954C25.3106 53.3633 25.659 53.8887 25.659 54.4141Z" fill="#2F2F2F"/>
<path d="M22.0623 0.968625V4.37356C18.727 2.23133 15.9171 1.94395 11.9316 2.85542C15.1471 1.55094 18.5928 0.909187 22.0623 0.968625Z" fill="#F3F8F9"/>
<path d="M22.0774 4.37646C13.7262 7.28213 -3.98064 17.4824 8.04258 36.6203C4.23707 31.9498 0.710217 26.2052 0.527344 20.0746C1.07596 6.26616 14.5273 4.38227 22.0774 4.37646Z" fill="#F3F8F9"/>
<path d="M22.0619 4.37346C14.5147 4.37346 1.06044 6.26315 0.511824 20.0716C0.392811 15.5984 2.04158 10.9221 6.65696 6.30089C8.17753 4.82437 9.96825 3.65454 11.9313 2.85532C15.9168 1.94385 18.7266 2.23122 22.0619 4.37346Z" fill="#00B852"/>
<path d="M22.0623 4.38232V49.2996C21.4189 49.3 20.7777 49.224 20.1523 49.0732C18.5558 40.2952 10.219 33.8801 13.1857 19.3809C14.9302 10.8671 21.8359 4.59713 22.0623 4.38232Z" fill="#F3F8F9"/>
<path d="M22.0559 52.3475V56.481C21.1841 56.4929 20.3234 56.2842 19.5538 55.8744C18.8571 55.4738 18.5059 54.9426 18.5059 54.423C18.5059 53.9034 18.8571 53.3693 19.5538 52.9716C20.3223 52.557 21.1827 52.3423 22.0559 52.3475Z" fill="#2F2F2F"/>
<path d="M20.1513 49.0732C19.6591 48.9545 19.1862 48.7668 18.7464 48.5159C18.2735 48.2682 17.8793 47.8932 17.6085 47.4331C17.5733 47.3324 17.5286 47.2352 17.475 47.1428C16.5606 45.4563 12.1426 41.6653 8.04394 36.6291C-3.98218 17.4825 13.7246 7.28218 22.0614 4.38232C21.8349 4.58552 14.9293 10.8671 13.1847 19.3809C10.2181 33.8801 18.5548 40.301 20.1513 49.0732Z" fill="#00B852"/>
<path d="M17.4746 47.1399C17.5282 47.2322 17.5729 47.3294 17.6081 47.4302C17.5573 47.3364 17.5127 47.2395 17.4746 47.1399Z" fill="#F3F8F9"/>
<path d="M26.688 47.134C26.6526 47.2347 26.6079 47.3319 26.5544 47.4243C26.2841 47.8837 25.891 48.2586 25.4195 48.507C24.9791 48.759 24.5051 48.9467 24.0116 49.0644C23.4059 49.2155 22.7839 49.2915 22.1597 49.2908H22.061C21.4176 49.2912 20.7764 49.2152 20.151 49.0644C19.6587 48.9456 19.1858 48.758 18.746 48.507C18.2737 48.2585 17.8798 47.8837 17.6081 47.4243C17.5573 47.3306 17.5127 47.2336 17.4746 47.134" stroke="#2F2F2F" stroke-width="0.870827" stroke-linecap="round" stroke-linejoin="round"/>
<path d="M8.04492 36.6204C12.1436 41.6566 16.5616 45.4476 17.476 47.1341C17.5296 47.2265 17.5743 47.3237 17.6095 47.4244" stroke="#2F2F2F" stroke-width="0.870827" stroke-linecap="round" stroke-linejoin="round"/>
<path d="M26.556 47.4361C26.5943 47.3366 26.6389 47.2397 26.6895 47.1459C27.1395 46.3012 28.4805 44.934 30.2135 43.1459C31.9464 41.3578 34.077 39.1517 36.1264 36.635C39.9319 31.9586 43.4588 26.2199 43.6416 20.0893C43.7723 15.6132 42.1293 10.9369 37.5081 6.31568C35.9901 4.8337 34.2002 3.65883 32.2367 2.8556C29.1685 1.56097 25.5894 0.974609 22.077 0.974609C18.5647 0.974609 14.9972 1.55226 11.9319 2.8556C9.96888 3.65482 8.17816 4.82465 6.6576 6.30117C2.04221 10.9224 0.393446 15.5987 0.526973 20.0748C0.709847 26.2054 4.2367 31.9499 8.04221 36.6205" stroke="#2F2F2F" stroke-width="0.870827" stroke-linecap="round" stroke-linejoin="round"/>
<path d="M11.6931 2.90182L11.9312 2.85538C15.9021 1.88296 18.7265 2.23709 22.0618 4.37933C14.5146 4.37933 1.06034 6.26902 0.511719 20.0774" stroke="#2F2F2F" stroke-width="0.870827" stroke-linecap="round" stroke-linejoin="round"/>
<path d="M32.4622 2.90195L32.2358 2.8555C28.2649 1.88308 25.4172 2.23722 22.0762 4.38235C29.6233 4.38235 43.0863 6.26915 43.632 20.0805" stroke="#2F2F2F" stroke-width="0.870827" stroke-linecap="round" stroke-linejoin="round"/>
<path d="M22.0879 4.38232C22.3056 4.57681 29.2403 10.8613 30.979 19.3809C33.9457 33.8801 25.6089 40.2807 24.0124 49.0732" stroke="#2F2F2F" stroke-width="0.870827" stroke-linecap="round" stroke-linejoin="round"/>
<path d="M20.1523 49.0732C18.5558 40.2952 10.219 33.8801 13.1857 19.3809C14.9273 10.8671 21.8359 4.57681 22.0623 4.38232" stroke="#2F2F2F" stroke-width="0.870827" stroke-linecap="round" stroke-linejoin="round"/>
<path d="M22.0625 0.968506V49.3023" stroke="#2F2F2F" stroke-width="0.870827" stroke-linecap="round" stroke-linejoin="round"/>
<path d="M8.04394 36.6203C-3.98218 17.4825 13.7246 7.28218 22.0614 4.38232H22.0846C30.4155 7.28508 48.1601 17.4825 36.1223 36.6203" stroke="#2F2F2F" stroke-width="0.870827" stroke-linecap="round" stroke-linejoin="round"/>
<path d="M25.6583 54.4374C25.6583 54.9599 25.3012 55.4765 24.6104 55.8887C23.8273 56.2876 22.9609 56.4956 22.0821 56.4956C21.2032 56.4956 20.3369 56.2876 19.5538 55.8887C18.8571 55.4882 18.5059 54.957 18.5059 54.4374C18.5059 53.9178 18.8571 53.3837 19.5538 52.986C20.3369 52.5871 21.2032 52.3792 22.0821 52.3792C22.9609 52.3792 23.8273 52.5871 24.6104 52.986C25.3099 53.3924 25.6583 53.9207 25.6583 54.4374Z" stroke="#2F2F2F" stroke-width="0.870827" stroke-linecap="round" stroke-linejoin="round"/>
<path d="M25.6583 54.4141V57.7755C25.6583 58.3038 25.3099 58.8321 24.6104 59.2268C23.2141 60.0309 20.9529 60.0309 19.5538 59.2268C18.8571 58.8234 18.5059 58.295 18.5059 57.7755V54.4141" stroke="#2F2F2F" stroke-width="0.870827" stroke-linecap="round" stroke-linejoin="round"/>
<path d="M22.0566 56.481V49.3025" stroke="#2F2F2F" stroke-width="0.870827" stroke-linecap="round" stroke-linejoin="round"/>
</g>
<defs>
<clipPath id="clip0_792_813">
<rect width="44" height="59.7417" fill="white" transform="translate(0.0820312 0.533203)"/>
</clipPath>
</defs>
</svg>
