<svg width="52" height="76" viewBox="0 0 52 76" fill="none" xmlns="http://www.w3.org/2000/svg">
<g clip-path="url(#clip0_792_775)">
<path d="M50.5883 73.2412L47.4601 75.0406V29.8206L0.576172 2.82523L3.70111 1.02576L50.5883 28.0212V73.2412Z" fill="#D6D6D6"/>
<path d="M39.0621 62.51L21.0566 52.1433C22.0445 50.0746 22.8776 49.7823 23.5954 50.1961C24.5504 50.7445 25.3308 52.5571 26.154 53.0332C28.3075 54.2679 28.2153 47.6512 30.5039 48.968C32.0252 49.848 32.7068 56.6978 34.7122 57.8504C35.7428 58.4448 36.7472 57.6107 37.5605 58.0803C38.5352 58.6549 38.7427 60.8222 39.0621 62.51Z" fill="#DAE0E5"/>
<path d="M37.529 36.8248C37.7502 36.9692 37.9344 37.1632 38.0671 37.3912C38.1997 37.6193 38.2771 37.8751 38.2929 38.1383C38.2929 38.6242 37.9636 38.8246 37.529 38.5783C37.2523 38.4028 37.0344 38.149 36.9033 37.8493C36.8152 37.6631 36.767 37.4607 36.7617 37.2549C36.7617 36.7788 37.1075 36.5818 37.529 36.8248Z" fill="#F3F8F9"/>
<path d="M33.3134 38.7523C33.4022 38.9383 33.4504 39.1408 33.455 39.3467C33.455 39.8327 33.1257 40.033 32.6911 39.79C32.4989 39.6637 32.3338 39.5005 32.2055 39.3099C32.0772 39.1194 31.9881 38.9053 31.9436 38.6801C31.9306 38.6086 31.924 38.536 31.9238 38.4634C31.9238 37.9741 32.2531 37.7771 32.6911 38.0233C32.9665 38.1993 33.1832 38.4531 33.3134 38.7523Z" fill="#F3F8F9"/>
<path d="M36.9031 37.8624C37.0342 38.1621 37.2521 38.416 37.5288 38.5914C37.9503 38.8377 38.2927 38.6374 38.2927 38.1514C38.2769 37.8882 38.1995 37.6324 38.0669 37.4043C37.9342 37.1763 37.75 36.9823 37.5288 36.8379C37.1073 36.5949 36.7615 36.7919 36.7615 37.2812C36.7686 37.4825 36.8168 37.6803 36.9031 37.8624ZM33.3139 38.7523C33.181 38.4517 32.9608 38.1978 32.6817 38.0233C32.2602 37.7771 31.9144 37.9741 31.9144 38.4634C31.9146 38.536 31.9212 38.6086 31.9342 38.6801C31.9787 38.9053 32.0678 39.1194 32.1961 39.3099C32.3244 39.5005 32.4895 39.6637 32.6817 39.79C33.1032 40.033 33.4456 39.8327 33.4456 39.3467C33.4441 39.1415 33.3993 38.939 33.3139 38.7523ZM28.5985 37.672C28.5552 37.4472 28.467 37.2334 28.3391 37.0433C28.2113 36.8532 28.0464 36.6907 27.8543 36.5654C27.4328 36.3191 27.0871 36.5194 27.0871 37.0054C27.1038 37.2687 27.1819 37.5245 27.315 37.7525C27.4482 37.9805 27.6329 38.1744 27.8543 38.3189C28.2791 38.5619 28.6216 38.3648 28.6216 37.8756C28.621 37.8071 28.6133 37.7389 28.5985 37.672ZM47.4601 29.8206V75.0406L0.576172 48.0452V2.83179L47.4601 29.8206ZM21.0578 52.1499L39.0633 62.5165C38.734 60.8287 38.5364 58.6483 37.5617 58.0868C36.7484 57.6172 35.744 58.4513 34.7134 57.857C32.708 56.6847 32.0231 49.848 30.5051 48.9679C28.2001 47.6545 28.3087 54.2679 26.1552 53.0332C25.332 52.557 24.5516 50.7346 23.5966 50.1961C22.8788 49.7889 22.0622 50.0746 21.0578 52.1433V52.1499ZM15.7036 30.9765C17.1722 30.1293 17.6793 28.0441 17.2315 25.6175C16.952 24.2007 16.4355 22.8408 15.7036 21.5949C15.0663 20.485 14.2698 19.4739 13.3393 18.5936C11.3636 16.7482 9.12117 16.0093 7.55706 16.9123C5.30474 18.2061 5.30474 22.406 7.55706 26.2906C9.80938 30.1753 13.4513 32.2736 15.7036 30.9765ZM17.5345 44.0719C17.4772 42.2324 16.9853 40.4322 16.0988 38.818C15.0187 36.7591 13.425 34.9301 11.6402 33.8924C8.38686 32.0141 5.74927 33.5345 5.74927 37.2845C5.74927 41.0345 8.38357 45.5857 11.6402 47.464C13.0364 48.2652 14.3173 48.4491 15.3282 48.0912C16.6586 47.6249 17.5345 46.2129 17.5345 44.0719Z" fill="#F3F8F9"/>
<path d="M28.5993 37.6719C28.615 37.7431 28.6227 37.8157 28.6224 37.8886C28.6224 38.3779 28.2931 38.5749 27.8551 38.3319C27.6337 38.1875 27.449 37.9936 27.3159 37.7656C27.1827 37.5376 27.1046 37.2818 27.0879 37.0184C27.0879 36.5324 27.4172 36.3321 27.8551 36.5784C28.0458 36.7022 28.2098 36.8627 28.3376 37.0504C28.4654 37.2382 28.5544 37.4495 28.5993 37.6719Z" fill="#F3F8F9"/>
<path d="M15.7028 21.5951C16.4347 22.841 16.9512 24.2008 17.2307 25.6176L11.6328 23.9429L13.3385 18.5938C14.2689 19.4741 15.0654 20.4852 15.7028 21.5951Z" fill="#00B852"/>
<path d="M16.0864 38.8049L13.9362 39.7079C13.4173 38.6651 12.6196 37.7855 11.6312 37.1663C9.94852 36.1812 8.58198 36.9824 8.58198 38.9231C8.58198 40.8638 9.94852 43.2182 11.6312 44.177V47.4607C8.37782 45.5825 5.74023 41.0279 5.74023 37.2812C5.74023 33.5345 8.37453 32.0273 11.6312 33.8891C13.4126 34.917 15.0064 36.746 16.0864 38.8049Z" fill="#F3F8F9"/>
<path d="M13.5368 44.5154L15.315 48.0913C14.3041 48.446 13.01 48.2654 11.627 47.4641V44.1804C12.3514 44.604 13.0165 44.6992 13.5368 44.5154Z" fill="#DAE0E5"/>
<path d="M13.9356 39.708C14.3952 40.5453 14.6492 41.4793 14.6765 42.4335C14.6765 43.5368 14.2353 44.269 13.5372 44.5153C13.0169 44.6992 12.3518 44.604 11.6273 44.187C9.94467 43.2183 8.57812 40.8606 8.57812 38.933C8.57812 37.0055 9.94467 36.2042 11.6273 37.1762C12.6156 37.7923 13.4144 38.6684 13.9356 39.708Z" fill="#F3F8F9"/>
<path d="M13.5371 44.5152C14.2352 44.2689 14.6764 43.5301 14.6764 42.4333C14.6491 41.4792 14.3952 40.5451 13.9355 39.7078L16.0858 38.8048C16.9723 40.419 17.4642 42.2192 17.5215 44.0588C17.5215 46.1997 16.6588 47.6117 15.3153 48.078L13.5371 44.5152Z" fill="#A3ACB1"/>
<path d="M7.55654 16.9058C9.12065 16.0028 11.3598 16.7416 13.3388 18.5871L11.6265 23.9428L17.2244 25.6175C17.6755 28.0442 17.1651 30.1293 15.6965 30.9765C13.4442 32.29 9.79898 30.172 7.54995 26.2841C5.30092 22.3962 5.30421 18.1996 7.55654 16.9058Z" fill="#2F2F2F"/>
<path d="M0.576172 2.82523L3.70111 1.02576L50.5883 28.0212V73.2412L47.4601 75.0406" stroke="#2F2F2F" stroke-width="1.00723" stroke-linecap="round" stroke-linejoin="round"/>
<path d="M0.576172 48.0453V2.82532L47.4601 29.8207V75.0407" stroke="#2F2F2F" stroke-width="1.00723" stroke-linecap="round" stroke-linejoin="round"/>
<path d="M0.576172 48.0452L47.4601 75.0406" stroke="#2F2F2F" stroke-width="1.00723" stroke-linecap="round" stroke-linejoin="round"/>
<path d="M17.2316 25.6175C17.6827 28.0442 17.1723 30.1293 15.7037 30.9765C13.4514 32.29 9.80618 30.172 7.55715 26.2841C5.30812 22.3962 5.30482 18.1996 7.55715 16.9058C9.12126 16.0028 11.3637 16.7416 13.3394 18.5871C14.2704 19.4694 15.0669 20.4827 15.7037 21.595C16.4356 22.8409 16.9521 24.2007 17.2316 25.6175Z" stroke="#2F2F2F" stroke-width="1.00723" stroke-linecap="round" stroke-linejoin="round"/>
<path d="M16.0858 38.805C16.9723 40.4192 17.4642 42.2193 17.5215 44.0589C17.5215 46.1999 16.6588 47.6086 15.3153 48.0782C14.3044 48.4328 13.0103 48.2522 11.6273 47.451C8.37392 45.576 5.73633 41.0182 5.73633 37.2715C5.73633 33.5247 8.37063 32.0175 11.6273 33.8794C13.412 34.917 15.0058 36.7461 16.0858 38.805Z" stroke="#2F2F2F" stroke-width="1.00723" stroke-linecap="round" stroke-linejoin="round"/>
<path d="M13.9356 39.708C14.3952 40.5453 14.6492 41.4793 14.6765 42.4335C14.6765 43.5368 14.2353 44.269 13.5372 44.5153C13.0136 44.6992 12.3518 44.604 11.6273 44.187C9.94467 43.2183 8.57812 40.8606 8.57812 38.933C8.57812 37.0055 9.94467 36.2042 11.6273 37.1762C12.6156 37.7923 13.4144 38.6684 13.9356 39.708Z" stroke="#2F2F2F" stroke-width="1.00723" stroke-linecap="round" stroke-linejoin="round"/>
<path d="M17.2314 25.6175L11.627 23.9428L13.3392 18.587" stroke="#2F2F2F" stroke-width="1.00723" stroke-linecap="round" stroke-linejoin="round"/>
<path d="M13.9355 39.7078L16.0858 38.8048" stroke="#2F2F2F" stroke-width="1.00723" stroke-linecap="round" stroke-linejoin="round"/>
<path d="M13.5371 44.5153L15.3153 48.0912" stroke="#2F2F2F" stroke-width="1.00723" stroke-linecap="round" stroke-linejoin="round"/>
<path d="M11.627 44.1869V47.464" stroke="#2F2F2F" stroke-width="1.00723" stroke-linecap="round" stroke-linejoin="round"/>
<path d="M23.8672 26.3169V40.8276L38.6686 49.3456" stroke="#2F2F2F" stroke-width="1.00723" stroke-linecap="round" stroke-linejoin="round"/>
<path d="M28.6224 37.8886C28.6224 38.3779 28.2931 38.5749 27.8551 38.3319C27.6337 38.1875 27.449 37.9936 27.3159 37.7656C27.1827 37.5376 27.1046 37.2818 27.0879 37.0184C27.0879 36.5324 27.4172 36.3321 27.8551 36.5784C28.0472 36.7037 28.2121 36.8662 28.3399 37.0563C28.4678 37.2465 28.556 37.4602 28.5993 37.685C28.6141 37.7519 28.6218 37.8201 28.6224 37.8886Z" stroke="#2F2F2F" stroke-width="1.00723" stroke-linecap="round" stroke-linejoin="round"/>
<path d="M33.3134 38.7523C33.4022 38.9383 33.4504 39.1408 33.455 39.3467C33.455 39.8327 33.1257 40.033 32.6911 39.79C32.4989 39.6637 32.3338 39.5005 32.2055 39.3099C32.0772 39.1194 31.9881 38.9053 31.9436 38.6801C31.9306 38.6086 31.924 38.536 31.9238 38.4634C31.9238 37.9741 32.2531 37.7771 32.6911 38.0233C32.9665 38.1993 33.1832 38.4531 33.3134 38.7523Z" stroke="#2F2F2F" stroke-width="1.00723" stroke-linecap="round" stroke-linejoin="round"/>
<path d="M38.2792 38.1514C38.2792 38.6374 37.9499 38.8377 37.5153 38.5915C37.2386 38.416 37.0207 38.1622 36.8896 37.8625C36.8015 37.6763 36.7533 37.4739 36.748 37.2681C36.748 36.7788 37.0773 36.5818 37.5153 36.8248C37.7382 36.9705 37.9236 37.1666 38.0563 37.3971C38.189 37.6276 38.2654 37.886 38.2792 38.1514Z" stroke="#2F2F2F" stroke-width="1.00723" stroke-linecap="round" stroke-linejoin="round"/>
<path d="M28.5977 37.672L31.9432 38.6801" stroke="#2F2F2F" stroke-width="1.00723" stroke-linecap="round" stroke-linejoin="round"/>
<path d="M33.3145 38.7523L36.9037 37.8624" stroke="#2F2F2F" stroke-width="1.00723" stroke-linecap="round" stroke-linejoin="round"/>
<path d="M37.502 47.3359L38.6676 49.3456L37.502 50.0154" stroke="#2F2F2F" stroke-width="1.00723" stroke-linecap="round" stroke-linejoin="round"/>
<path d="M22.7051 26.9868L23.8675 26.3169L25.0331 28.3298" stroke="#2F2F2F" stroke-width="1.00723" stroke-linecap="round" stroke-linejoin="round"/>
<path d="M21.0566 52.1433C22.0445 50.0746 22.8776 49.7823 23.5954 50.1961C24.5504 50.7445 25.3308 52.5571 26.154 53.0332C28.3075 54.2679 28.2153 47.6512 30.5039 48.968C32.0252 49.848 32.7068 56.6978 34.7122 57.8504C35.7428 58.4448 36.7472 57.6107 37.5605 58.0803C38.5484 58.6418 38.7427 60.8222 39.0621 62.51L21.0566 52.1433Z" stroke="#2F2F2F" stroke-width="1.00723" stroke-linecap="round" stroke-linejoin="round"/>
</g>
<defs>
<clipPath id="clip0_792_775">
<rect width="51" height="75" fill="white" transform="translate(0.0820312 0.533203)"/>
</clipPath>
</defs>
</svg>
