<svg width="28" height="28" viewBox="0 0 28 28" fill="none" xmlns="http://www.w3.org/2000/svg">
<g clip-path="url(#clip0_792_680)">
<path d="M21.4375 0H6.5625C2.93813 0 0 2.93813 0 6.5625V21.4375C0 25.0619 2.93813 28 6.5625 28H21.4375C25.0619 28 28 25.0619 28 21.4375V6.5625C28 2.93813 25.0619 0 21.4375 0Z" fill="#F4F2ED"/>
<path d="M4.55394 22.2072H8.03403V13.7554L3.0625 10.0269V20.7157C3.0625 21.541 3.73122 22.2072 4.55394 22.2072Z" fill="#4285F4"/>
<path d="M19.9668 22.2073H23.447C24.2722 22.2073 24.9384 21.5386 24.9384 20.7159V10.0269L19.9668 13.7556" fill="#34A853"/>
<path d="M19.9668 7.29266V13.7557L24.9384 10.0271V8.03827C24.9384 6.19388 22.833 5.14235 21.3589 6.24857" fill="#FBBC04"/>
<path d="M8.0332 13.7557V7.2927L13.9991 11.7669L19.9649 7.29248V13.7556L13.9991 18.2301" fill="#EA4335"/>
<path d="M3.0625 8.03827V10.0269L8.03403 13.7556V7.29266L6.64202 6.24857C5.16545 5.14235 3.0625 6.19388 3.0625 8.03827Z" fill="#C5221F"/>
</g>
<defs>
<clipPath id="clip0_792_680">
<rect width="28" height="28" fill="white"/>
</clipPath>
</defs>
</svg>
