<svg width="26" height="19" viewBox="0 0 26 19" fill="none" xmlns="http://www.w3.org/2000/svg">
<path d="M10.7411 14.9341L17.2317 8.44354L15.566 6.7778L10.7181 11.6371L8.30568 9.22471L6.66293 10.856M6.31829 18.3805C4.57215 18.3805 3.08256 17.7793 1.84954 16.5769C0.616512 15.3669 0 13.8926 0 12.1541C0 10.6607 0.448024 9.3281 1.34407 8.15634C2.24778 6.98459 3.4272 6.23788 4.88232 5.91622C5.3648 4.15476 6.32212 2.73027 7.75427 1.64276C9.19407 0.547585 10.8215 0 12.6366 0C14.8805 0 16.7799 0.781171 18.3345 2.34351C19.8969 3.8982 20.678 5.79751 20.678 8.04146C22.003 8.19463 23.0981 8.76902 23.9636 9.76463C24.8366 10.7449 25.2732 11.8937 25.2732 13.211C25.2732 14.6508 24.7715 15.8723 23.7683 16.8756C22.765 17.8789 21.5435 18.3805 20.1037 18.3805H6.31829Z" fill="#00B852"/>
</svg>
