<svg width="78" height="78" viewBox="0 0 78 78" fill="none" xmlns="http://www.w3.org/2000/svg">
<path d="M32.7804 4.94214H31.5958V7.90368H32.7804C34.7054 7.90368 36.3342 9.53252 36.3342 11.4575V24.6364C36.3342 32.3364 30.5592 38.9998 22.8592 39.4441C14.4188 40.0364 7.45922 33.3729 7.45922 25.0806V11.4575C7.45922 9.53252 9.08807 7.90368 11.0131 7.90368H12.1977V4.94214H10.865C7.31115 4.94214 4.34961 7.90368 4.34961 11.4575V24.6364C4.34961 33.6691 11.0131 41.6652 20.1938 42.5537C30.5592 43.5902 39.2958 35.2979 39.2958 25.2287V11.4575C39.2958 7.7556 36.3342 4.94214 32.7804 4.94214Z" fill="#E5E6E6"/>
<path d="M39.4436 21.5269C38.9994 21.0827 38.4071 20.7865 37.8148 20.7865H37.3706C36.334 20.9346 35.4456 21.9711 35.4456 23.1557V24.9327C35.4456 32.4846 29.3744 38.5557 21.8225 38.5557H20.934C13.8263 38.1115 8.1994 31.8923 8.1994 24.4884V23.0077C8.1994 21.675 7.16286 20.6384 5.83017 20.6384C4.49748 20.6384 3.46094 21.675 3.46094 23.0077V24.9327C3.46094 35.0019 11.6052 43.1461 21.6744 43.1461C22.2667 43.1461 22.859 43.1461 23.4513 42.998C32.6321 42.1096 39.8879 33.9654 39.8879 24.3404V23.0077C40.0359 22.5634 39.8879 21.9711 39.4436 21.5269Z" fill="#52CC99"/>
<path d="M29.819 9.3845C31.4546 9.3845 32.7805 8.05858 32.7805 6.42296C32.7805 4.78735 31.4546 3.46143 29.819 3.46143C28.1833 3.46143 26.8574 4.78735 26.8574 6.42296C26.8574 8.05858 28.1833 9.3845 29.819 9.3845Z" fill="#676767"/>
<path d="M13.8268 9.3845C15.4624 9.3845 16.7883 8.05858 16.7883 6.42296C16.7883 4.78735 15.4624 3.46143 13.8268 3.46143C12.1912 3.46143 10.8652 4.78735 10.8652 6.42296C10.8652 8.05858 12.1912 9.3845 13.8268 9.3845Z" fill="#676767"/>
<path d="M62.9871 13.2346C57.9525 13.2346 53.8063 16.4923 52.3255 20.9346C50.8448 16.4923 46.5505 13.2346 41.664 13.2346C35.4448 13.2346 30.4102 18.2692 30.4102 24.4885C30.4102 37.2231 52.4736 50.55 52.4736 50.55C52.4736 50.55 74.5371 37.5192 74.5371 24.4885C74.389 18.2692 69.3544 13.2346 62.9871 13.2346Z" fill="#72ECB9"/>
<path d="M62.0995 29.8191V53.5114C62.0995 65.0614 52.7706 74.3902 41.2206 74.3902C29.6706 74.3902 20.3418 65.0614 20.3418 53.5114V43.146H23.3033V53.5114C23.3033 63.4326 31.2995 71.4287 41.2206 71.4287C51.1418 71.4287 59.138 63.4326 59.138 53.5114V29.8191H62.0995Z" fill="#0A8D12"/>
<path d="M60.4708 38.1114C64.8869 38.1114 68.4669 34.5314 68.4669 30.1153C68.4669 25.6991 64.8869 22.1191 60.4708 22.1191C56.0546 22.1191 52.4746 25.6991 52.4746 30.1153C52.4746 34.5314 56.0546 38.1114 60.4708 38.1114Z" fill="#E5E6E6"/>
<path d="M60.4711 33.9654C62.5974 33.9654 64.3211 32.2417 64.3211 30.1154C64.3211 27.9891 62.5974 26.2654 60.4711 26.2654C58.3448 26.2654 56.6211 27.9891 56.6211 30.1154C56.6211 32.2417 58.3448 33.9654 60.4711 33.9654Z" fill="#CCCDCD"/>
</svg>
