<svg width="72" height="72" viewBox="0 0 72 72" fill="none" xmlns="http://www.w3.org/2000/svg">
<path d="M57.8058 14.1939C54.338 10.7261 49.7269 8.81641 44.8219 8.81641C39.9169 8.81641 35.3044 10.7261 31.8366 14.1953C29.3306 16.6998 27.615 19.847 26.8725 23.2952C26.5955 24.5805 26.4577 25.8827 26.4577 27.1834C26.4577 29.1325 26.767 31.0745 27.3816 32.9392L26.317 34.0037L15.8067 34.1064C15.7969 34.1064 15.787 34.1092 15.7786 34.1092C15.7533 34.1106 15.7294 34.1134 15.7055 34.1177C15.683 34.1219 15.6619 34.1247 15.6408 34.1303C15.6183 34.1359 15.5972 34.143 15.5761 34.1514C15.5536 34.1584 15.5325 34.1669 15.51 34.1767C15.4917 34.1866 15.4734 34.1964 15.4552 34.2077C15.4327 34.2203 15.4116 34.2344 15.3919 34.2498C15.3834 34.2555 15.375 34.2597 15.368 34.2653L2.98031 44.3805C2.98031 44.3805 2.97891 44.3805 2.97891 44.3819H2.9775C2.94938 44.4058 2.92266 44.4311 2.89875 44.4578C2.89453 44.4634 2.88891 44.4705 2.88328 44.4761C2.85938 44.5042 2.83828 44.5337 2.81859 44.5661C2.81859 44.5675 2.81719 44.5689 2.81719 44.5689C2.79891 44.5998 2.78344 44.6322 2.77078 44.6659C2.76797 44.673 2.76375 44.68 2.76234 44.687C2.74969 44.7208 2.73984 44.7545 2.73281 44.7883L2.72859 44.815C2.72297 44.8502 2.72016 44.8853 2.71875 44.9205V44.9261C2.71875 44.9584 2.72156 44.9894 2.72578 45.0231C2.72578 45.0259 2.72719 45.0288 2.72719 45.0316C2.73422 45.0752 2.74406 45.1188 2.75953 45.1609C2.75953 45.1638 2.76094 45.1652 2.76234 45.168C2.77641 45.2059 2.79328 45.2425 2.81297 45.2777C2.82281 45.2931 2.83266 45.3058 2.8425 45.3198C2.85375 45.3367 2.86359 45.355 2.87766 45.3719C2.88047 45.3761 2.88469 45.3789 2.8875 45.3817C2.90578 45.4014 2.92406 45.4197 2.94375 45.4366C2.95781 45.452 2.97328 45.4661 2.98875 45.4787C3.00703 45.4928 3.02672 45.5041 3.045 45.5167C3.06469 45.5294 3.08297 45.542 3.10406 45.5533C3.12375 45.5631 3.14484 45.5702 3.16594 45.5786C3.18703 45.587 3.20672 45.5955 3.22922 45.6025C3.25031 45.6081 3.27281 45.6109 3.29531 45.6152C3.31781 45.6194 3.34031 45.625 3.36281 45.6264C3.38391 45.6278 3.40359 45.6264 3.42469 45.6264C3.45141 45.6264 3.47672 45.6264 3.50344 45.6236H3.5175L18.2044 43.6042L20.2013 45.6011L18.6347 47.1677C18.5692 47.2327 18.5173 47.31 18.4818 47.3952C18.4463 47.4804 18.428 47.5718 18.428 47.6641C18.428 47.8511 18.5025 48.0297 18.6347 48.1619L23.8378 53.3664C23.97 53.4972 24.1486 53.5717 24.3356 53.5717C24.5227 53.5717 24.7013 53.4972 24.832 53.3664L26.4 51.7984L28.3969 53.7953L26.3775 68.4822C26.3733 68.5145 26.3705 68.5469 26.3705 68.5792C26.3705 68.5806 26.3719 68.5834 26.3719 68.5848C26.3719 68.62 26.3747 68.6552 26.3803 68.6903C26.3817 68.6987 26.3831 68.7072 26.3845 68.717C26.3916 68.7508 26.4014 68.7845 26.4141 68.8183L26.4225 68.8394C26.4352 68.8731 26.4506 68.9041 26.4689 68.935C26.4689 68.9364 26.4703 68.9378 26.4703 68.9392C26.49 68.9716 26.5111 69.0011 26.535 69.0292C26.5406 69.0348 26.5462 69.0419 26.5505 69.0475C26.5758 69.0742 26.6011 69.0995 26.6292 69.1234C26.6644 69.1516 26.7023 69.1769 26.7431 69.198C26.7572 69.205 26.7712 69.2106 26.7853 69.2163C26.812 69.2289 26.8373 69.2402 26.8641 69.2486C26.8837 69.2542 26.9048 69.2584 26.9245 69.2627C26.9428 69.2669 26.9597 69.2725 26.978 69.2753H26.9934C27.0188 69.2781 27.0455 69.2781 27.0708 69.2781C27.0919 69.2781 27.113 69.2795 27.1341 69.2781C27.1566 69.2767 27.1777 69.2711 27.2002 69.2669C27.2227 69.2627 27.2452 69.2598 27.2677 69.2542C27.2888 69.2472 27.3098 69.2387 27.3309 69.2303C27.3506 69.2219 27.3731 69.2148 27.3928 69.205C27.4125 69.1937 27.4308 69.1811 27.4505 69.1684C27.4702 69.1558 27.4898 69.1445 27.5067 69.1305C27.5236 69.1178 27.5377 69.1023 27.5531 69.0883C27.5714 69.0714 27.5911 69.0531 27.608 69.0334C27.6108 69.0306 27.615 69.0278 27.6192 69.0236L37.7358 56.6331C37.7414 56.6261 37.7456 56.6177 37.7498 56.6106C37.7653 56.5895 37.7794 56.5684 37.792 56.5459C37.8033 56.5277 37.8145 56.5108 37.823 56.4911C37.8328 56.47 37.8413 56.4475 37.8497 56.425C37.8581 56.4039 37.8652 56.3828 37.8708 56.3617C37.8764 56.3392 37.8792 56.3167 37.8834 56.2956C37.8862 56.2703 37.8891 56.2478 37.8905 56.2225L37.8947 56.1944L37.9973 45.6841L39.0633 44.6167C42.1711 45.6419 45.4941 45.8205 48.7045 45.1286C52.1541 44.3861 55.2998 42.6691 57.8058 40.1645C64.965 33.0038 64.965 21.3545 57.8058 14.1939ZM34.493 47.1985L24.8011 37.508L26.4548 35.8542L36.1453 45.5461L34.493 47.1985ZM34.1234 41.5353L30.4674 37.8788L31.7045 36.6417L41.6383 26.708L45.2945 30.3642L34.1234 41.5353ZM42.9488 26.0303L47.4023 24.5987L45.9708 29.0523L42.9488 26.0303ZM33.4973 48.1942L31.845 49.848L22.1531 40.1561L23.8069 38.5023L33.4973 48.1942ZM34.9894 48.6906L36.577 47.1044L36.4898 55.9342L28.1114 66.197L29.8045 53.8755L34.9894 48.6906ZM21.1955 46.5953L25.4044 50.8042L24.3356 51.8744L20.1253 47.6641L21.1955 46.5953ZM19.4489 42.8603L21.1589 41.1503L30.8494 50.8422L29.1408 52.5508L26.8978 50.3092C26.8978 50.3092 26.8978 50.3078 26.8964 50.3078C26.8964 50.3064 26.895 50.3064 26.895 50.3064L21.6961 45.1075C21.6947 45.1061 21.6947 45.1047 21.6933 45.1033C21.6905 45.1019 21.6891 45.1005 21.6877 45.0991L19.4489 42.8603ZM24.8967 35.4241L23.3105 37.0103L23.3091 37.0117L20.6611 39.6597L18.1242 42.1966L5.80406 43.8897L16.0669 35.5112L24.8967 35.4241ZM44.8219 10.2225C49.3514 10.2225 53.6095 11.986 56.8116 15.188C63.4238 21.8002 63.4223 32.558 56.8116 39.1688C52.2019 43.7785 45.2536 45.3408 39.1111 43.1499C39.0956 43.1442 39.0802 43.1428 39.0661 43.1386C39.0408 43.1316 39.0155 43.1231 38.9902 43.1189C38.9677 43.1161 38.9452 43.1147 38.9227 43.1133C38.9002 43.1119 38.8777 43.1091 38.8552 43.1105C38.8312 43.1105 38.8088 43.1133 38.7863 43.1175C38.7638 43.1189 38.7427 43.1217 38.7202 43.1274C38.6991 43.1316 38.678 43.1386 38.6569 43.1456C38.6344 43.1527 38.6119 43.1597 38.5908 43.1695C38.5697 43.1794 38.5514 43.1906 38.5317 43.2005C38.512 43.2117 38.4923 43.223 38.4727 43.2356C38.4516 43.2511 38.4319 43.268 38.4122 43.2849C38.4009 43.2947 38.3883 43.3031 38.377 43.3144L37.1395 44.5519L35.1175 42.5296L36.354 41.2929L46.785 30.8606C46.792 30.855 46.7948 30.848 46.8019 30.841C46.8173 30.8241 46.8328 30.8044 46.8469 30.7847C46.8609 30.7664 46.875 30.7481 46.8877 30.7285C46.8975 30.7102 46.9073 30.6919 46.9158 30.6722C46.9284 30.6483 46.9397 30.6244 46.9481 30.5991C46.9509 30.592 46.9552 30.5864 46.958 30.578L49.1587 23.7267C49.1602 23.7225 49.1602 23.7197 49.1616 23.7169C49.17 23.6902 49.1742 23.662 49.1784 23.6353C49.1827 23.617 49.1869 23.5988 49.1897 23.5805C49.1911 23.5566 49.1897 23.5341 49.1897 23.5102C49.1897 23.4877 49.1911 23.4638 49.1897 23.4413C49.1869 23.423 49.1827 23.4047 49.1784 23.3864C49.1742 23.3597 49.17 23.3316 49.1616 23.3049C49.1602 23.302 49.1602 23.2992 49.1587 23.2964C49.1545 23.2795 49.1461 23.2655 49.1391 23.25C49.1292 23.2261 49.1208 23.2022 49.1081 23.1783C49.0969 23.1586 49.0842 23.1403 49.0716 23.1206C49.0589 23.1024 49.0462 23.0827 49.0322 23.0658C49.0181 23.0475 49.0013 23.032 48.9844 23.0152C48.9689 22.9997 48.9534 22.9828 48.9352 22.9688C48.9183 22.9533 48.8986 22.942 48.8789 22.9294C48.8606 22.9167 48.8423 22.9041 48.8227 22.8928C48.7988 22.8802 48.7734 22.8703 48.7481 22.8605C48.7341 22.8549 48.72 22.8464 48.7045 22.8422C48.7017 22.8408 48.6989 22.8408 48.6961 22.8394C48.668 22.831 48.6398 22.8267 48.6103 22.8211C48.5934 22.8183 48.5766 22.8141 48.5597 22.8113C48.5372 22.8099 48.5133 22.8113 48.4894 22.8113C48.4669 22.8113 48.443 22.8099 48.4205 22.8113C48.4036 22.8141 48.3867 22.8183 48.3698 22.8211C48.3403 22.8267 48.3122 22.831 48.2841 22.8394C48.2812 22.8408 48.2784 22.8408 48.2742 22.8422L41.4216 25.0444C41.4103 25.0472 41.3991 25.0542 41.3864 25.0585C41.3752 25.0627 41.3639 25.0669 41.3527 25.0725C41.3217 25.0866 41.2908 25.102 41.2627 25.1203L41.2416 25.133C41.2008 25.1611 41.1642 25.192 41.1305 25.2272L29.4732 36.8845L27.4491 34.86L28.6866 33.6239C28.6978 33.6127 28.7048 33.5986 28.7161 33.5874C28.733 33.5677 28.7498 33.548 28.7653 33.5269C28.778 33.5086 28.7892 33.4889 28.7991 33.4692C28.8103 33.4495 28.8216 33.4299 28.8314 33.4088C28.8398 33.3877 28.8469 33.3666 28.8553 33.3441C28.8609 33.323 28.868 33.3019 28.8736 33.2808C28.8778 33.2583 28.8806 33.2358 28.8834 33.2147C28.8862 33.1908 28.8905 33.1683 28.8905 33.1458C28.8905 33.1233 28.8891 33.1008 28.8877 33.0783C28.8862 33.0558 28.8848 33.0333 28.8806 33.0108C28.8764 32.9841 28.8694 32.9602 28.8623 32.9335C28.8581 32.9194 28.8567 32.9039 28.8511 32.8899C26.6602 26.746 28.2225 19.7977 32.8308 15.1894C36.0342 11.9861 40.2923 10.2225 44.8219 10.2225Z" fill="#0A8D12"/>
<path d="M24.8014 37.508L26.4552 35.8542L36.1456 45.546L34.4933 47.1983L24.8014 37.508ZM31.8453 49.8478L22.1534 40.156L23.8072 38.5022L33.4977 48.1941L31.8453 49.8478ZM21.1592 41.1502L30.8497 50.8421L29.1411 52.5507L26.8981 50.3091C26.8981 50.3091 26.8981 50.3077 26.8967 50.3077C26.8967 50.3063 26.8953 50.3063 26.8953 50.3063L21.6964 45.1074C21.695 45.106 21.695 45.1046 21.6936 45.1032C21.6908 45.1017 21.6894 45.1003 21.688 45.0989L19.4492 42.8602L21.1592 41.1502Z" fill="#E1E5E3"/>
<path d="M24.3373 51.8741L20.127 47.6638L21.1971 46.5952L25.406 50.804L24.3373 51.8741Z" fill="#52CC99"/>
<path d="M23.3097 37.0115L20.6617 39.6595L18.1248 42.1963L5.80469 43.8895L16.0675 35.511L24.8973 35.4238L23.3111 37.0101L23.3097 37.0115Z" fill="#63ECB3"/>
<path opacity="0.4" d="M24.8975 35.4241L23.7908 36.5308L17.1524 36.5965L8.70916 43.4905L5.80469 43.8891L16.0675 35.5117L24.8975 35.4241Z" fill="white"/>
<path opacity="0.2" d="M24.8965 35.4236L23.3105 37.0096L23.3086 37.0115L18.1239 42.1962L5.80469 43.8896L7.62339 42.4051L17.0391 41.1114L22.2238 35.9267L22.2257 35.9248L22.705 35.4455L24.8965 35.4236Z" fill="black"/>
<path d="M36.5789 47.1042L36.4917 55.9341L28.1133 66.1969L29.8064 53.8753L34.9912 48.6905L36.5789 47.1042Z" fill="#63ECB3"/>
<path d="M32.8308 15.1891C32.2672 15.7523 31.7451 16.3555 31.2686 16.9939C30.1748 18.4536 29.3346 20.0715 28.7628 21.7749C28.5624 22.3749 28.3948 22.9854 28.2606 23.6036C28.1319 24.1996 28.0353 24.802 27.9712 25.4084C27.934 25.7472 27.9078 26.0871 27.8926 26.4276C27.8459 27.421 27.8867 28.4203 28.0169 29.4158C28.1708 30.6003 28.4508 31.765 28.8522 32.89C28.8562 32.904 28.8581 32.9199 28.8622 32.9338C28.8691 32.9606 28.8771 32.9845 28.8811 33.0104C28.885 33.0343 28.887 33.0561 28.888 33.079C28.8899 33.101 28.8909 33.1238 28.8909 33.1457C28.8899 33.1686 28.887 33.1914 28.884 33.2143C28.8811 33.2353 28.8781 33.2581 28.873 33.281C28.8681 33.3018 28.8611 33.3227 28.8552 33.3447C28.8472 33.3666 28.8403 33.3874 28.8323 33.4094C28.8213 33.4302 28.8103 33.4492 28.7995 33.47C28.7896 33.4899 28.7783 33.5092 28.7657 33.5276C28.7508 33.5486 28.733 33.5684 28.716 33.5873C28.705 33.5982 28.6981 33.6131 28.6871 33.6241L27.4492 34.8601L29.4738 36.8846L41.1308 25.2277C41.1645 25.1918 41.2014 25.161 41.2412 25.1332C41.2492 25.1292 41.2561 25.1242 41.2631 25.1212C41.2919 25.1024 41.3217 25.0863 41.3535 25.0726C41.3645 25.0676 41.3755 25.0626 41.3873 25.0586C41.3992 25.0547 41.4102 25.0477 41.421 25.0447L45.9067 23.6039L48.2742 22.8432C48.2782 22.8413 48.2823 22.8413 48.2842 22.8393C48.3121 22.8313 48.3399 22.8273 48.3697 22.8214C48.3866 22.8185 48.4045 22.8144 48.4215 22.8114C48.4434 22.8095 48.4672 22.8114 48.4891 22.8114C48.513 22.8114 48.5378 22.8105 48.5607 22.8114C48.5776 22.8144 48.5935 22.8183 48.6105 22.8214C48.6403 22.8273 48.6681 22.8314 48.697 22.8403C48.6999 22.8413 48.7019 22.8413 48.705 22.8422C48.7209 22.8462 48.7338 22.8552 48.7487 22.8601C48.7736 22.8711 48.7995 22.8809 48.8232 22.8929C48.8431 22.9048 48.8611 22.9168 48.8799 22.9297C48.8988 22.9426 48.9187 22.9546 48.9356 22.9695C48.9535 22.9834 48.9693 22.9993 48.9854 23.0152C49.0022 23.0321 49.0181 23.048 49.0321 23.066C49.047 23.0828 49.0589 23.1028 49.0719 23.1217C49.0848 23.1405 49.0977 23.1595 49.1087 23.1783C49.1216 23.2032 49.1295 23.2271 49.1395 23.2509C49.1465 23.2658 49.1544 23.2797 49.1593 23.2966L49.1623 23.3056C49.1703 23.3315 49.1752 23.3603 49.1782 23.3872C49.1821 23.405 49.1872 23.424 49.1901 23.4409C49.1911 23.4638 49.1901 23.4886 49.1901 23.5105C49.1901 23.5344 49.1911 23.5572 49.1901 23.5801C49.1893 23.5883 49.1873 23.5964 49.1842 23.604C49.1832 23.6148 49.1812 23.6254 49.1783 23.6358C49.1759 23.6635 49.1706 23.6908 49.1624 23.7173C49.1613 23.7208 49.16 23.7241 49.1585 23.7273L48.6185 25.4088L48.2914 26.428L47.3318 29.4162L46.9588 30.5786C46.9559 30.5876 46.9508 30.5925 46.9479 30.5994C46.9396 30.6248 46.9289 30.6495 46.9161 30.6729C46.908 30.6921 46.8987 30.7107 46.8882 30.7286C46.8763 30.7485 46.8614 30.7674 46.8475 30.7853C46.8336 30.805 46.8187 30.8239 46.8027 30.842C46.7958 30.8489 46.7928 30.8559 46.7859 30.8608L36.356 41.2928L35.1181 42.5307L37.1397 44.5522L38.3776 43.3143C38.3886 43.3033 38.4015 43.2945 38.4123 43.2855C38.4332 43.2686 38.4521 43.2517 38.473 43.2368C38.4928 43.2229 38.5128 43.2129 38.5326 43.2009C38.5524 43.191 38.5704 43.179 38.5912 43.1701C38.6132 43.1602 38.635 43.1523 38.6569 43.1462C38.6788 43.1382 38.6996 43.1313 38.7206 43.1284C38.7435 43.1215 38.7643 43.1184 38.7873 43.1174C38.8092 43.1135 38.832 43.1105 38.8559 43.1105C38.8788 43.1095 38.9016 43.1125 38.9235 43.1145C38.9464 43.1154 38.9682 43.1174 38.9902 43.1194C39.016 43.1233 39.0409 43.1323 39.0668 43.1382C39.0817 43.1431 39.0966 43.1441 39.1125 43.1502C45.2547 45.3408 52.2023 43.7786 56.8123 39.1687C59.5488 36.4321 61.1517 32.9857 61.6231 29.4159C61.7541 28.4256 61.7983 27.4258 61.7553 26.4278C61.7401 26.0873 61.7146 25.7474 61.6787 25.4085C61.6164 24.8022 61.5211 24.1997 61.3934 23.6037C61.2619 22.9853 61.0945 22.375 60.8922 21.776C60.3195 20.0563 59.4708 18.4412 58.3794 16.9941C57.9004 16.3559 57.3767 15.7524 56.8123 15.1883C53.6104 11.9864 49.3525 10.2224 44.8222 10.2224C40.2935 10.2223 36.0347 11.9853 32.8308 15.1891Z" fill="#39F9A9"/>
<path opacity="0.2" d="M56.8132 39.1689C52.2034 43.7787 45.2557 45.3409 39.1135 43.1504C39.0976 43.1445 39.0827 43.1435 39.0677 43.1385C39.0419 43.1326 39.017 43.1236 38.9911 43.1196C38.9692 43.1177 38.9474 43.1157 38.9245 43.1147C38.9025 43.1127 38.8797 43.1098 38.8568 43.1108C38.8329 43.1108 38.8101 43.1137 38.7882 43.1177C38.7656 43.1184 38.7432 43.122 38.7215 43.1286C38.6998 43.1324 38.6784 43.1384 38.6578 43.1465C38.6353 43.1526 38.6134 43.1606 38.5922 43.1704C38.5713 43.1794 38.5533 43.1914 38.5335 43.2012C38.5137 43.2132 38.4937 43.2231 38.4739 43.2371C38.4531 43.252 38.4341 43.2688 38.4133 43.2857C38.4023 43.2947 38.3894 43.3036 38.3785 43.3145L37.1406 44.5525L35.1191 42.5308L36.1304 41.5196L37.1575 42.5467L38.3954 41.3088C38.4064 41.2978 38.4193 41.289 38.4302 41.28C38.451 41.2631 38.47 41.2462 38.4908 41.2313C38.5106 41.2174 38.5306 41.2074 38.5504 41.1955C38.5702 41.1855 38.5882 41.1735 38.609 41.1647C38.631 41.1547 38.6528 41.1468 38.6747 41.1408C38.6966 41.1327 38.7175 41.1259 38.7384 41.1229C38.7613 41.116 38.7821 41.1129 38.8051 41.1119C38.827 41.108 38.8498 41.105 38.8737 41.105C38.8966 41.1041 38.9194 41.107 38.9413 41.109C38.9643 41.11 38.986 41.1119 39.008 41.1139C39.0339 41.1178 39.0588 41.1268 39.0846 41.1327C39.0995 41.1377 39.1144 41.1387 39.1303 41.1447C45.2725 43.3354 52.2203 41.7731 56.8301 37.1632C59.5667 34.4266 61.1695 30.9802 61.6409 27.4104C61.6895 27.0475 61.7254 26.6835 61.7503 26.3186C61.7532 26.3554 61.7552 26.3912 61.7562 26.428C61.7992 27.426 61.7549 28.4258 61.624 29.4161C61.1526 32.9859 59.5498 36.4324 56.8132 39.1689Z" fill="black"/>
<path d="M34.1249 41.5352L45.2958 30.3643L41.6396 26.708L31.7058 36.6418L30.4688 37.8788L34.1249 41.5352ZM33.9193 38.8552C33.7871 38.9869 33.6081 39.0608 33.4215 39.0608C33.2348 39.0608 33.0558 38.9869 32.9236 38.8552C32.7922 38.7229 32.7183 38.5439 32.7183 38.3574C32.7183 38.1708 32.7922 37.9919 32.9236 37.8596L40.9575 29.8271C41.0895 29.6954 41.2682 29.6214 41.4547 29.6214C41.6411 29.6214 41.8199 29.6954 41.9518 29.8271C42.0835 29.959 42.1575 30.1378 42.1575 30.3242C42.1575 30.5106 42.0835 30.6894 41.9518 30.8213L33.9193 38.8552Z" fill="#63ECB3"/>
<path d="M59.6051 11.693C59.6051 11.5132 59.6737 11.333 59.811 11.1959L61.7799 9.22673C61.8448 9.16008 61.9224 9.10699 62.0081 9.07054C62.0937 9.0341 62.1858 9.01502 62.2788 9.01443C62.3719 9.01383 62.4642 9.03172 62.5503 9.06707C62.6364 9.10241 62.7147 9.1545 62.7805 9.22032C62.8463 9.28614 62.8984 9.36437 62.9338 9.45048C62.9691 9.53659 62.987 9.62886 62.9865 9.72194C62.9859 9.81503 62.9668 9.90707 62.9304 9.99273C62.8939 10.0784 62.8409 10.156 62.7742 10.2209L60.8053 12.1901C60.707 12.2884 60.5817 12.3554 60.4454 12.3825C60.309 12.4096 60.1676 12.3957 60.0392 12.3425C59.9107 12.2893 59.8009 12.1992 59.7236 12.0836C59.6464 11.968 59.6051 11.8321 59.6051 11.693ZM65.2077 21.5372C65.1595 21.3571 65.1848 21.1652 65.278 21.0037C65.3712 20.8422 65.5247 20.7243 65.7048 20.676L68.3942 19.9549C68.4837 19.9297 68.5774 19.9225 68.6698 19.9338C68.7622 19.9451 68.8514 19.9746 68.9323 20.0206C69.0132 20.0666 69.0841 20.1282 69.141 20.2019C69.1979 20.2755 69.2396 20.3597 69.2637 20.4496C69.2878 20.5395 69.2938 20.6333 69.2814 20.7255C69.269 20.8177 69.2384 20.9066 69.1914 20.9869C69.1444 21.0672 69.0819 21.1374 69.0076 21.1934C68.9333 21.2493 68.8485 21.29 68.7584 21.313L66.0691 22.0342C65.9799 22.0581 65.8868 22.0642 65.7953 22.0522C65.7037 22.0402 65.6154 22.0102 65.5355 21.9641C65.4555 21.9179 65.3854 21.8565 65.3291 21.7832C65.2729 21.71 65.2317 21.6264 65.2077 21.5372ZM65.7047 33.1913C65.5246 33.143 65.3711 33.0251 65.2779 32.8637C65.1846 32.7022 65.1593 32.5103 65.2075 32.3302C65.2557 32.15 65.3735 31.9965 65.535 31.9032C65.6965 31.81 65.8884 31.7847 66.0685 31.8329L68.7584 32.5533C68.8476 32.5772 68.9312 32.6184 69.0045 32.6746C69.0777 32.7308 69.1392 32.8009 69.1854 32.8809C69.2316 32.9608 69.2615 33.0491 69.2736 33.1407C69.2857 33.2322 69.2796 33.3252 69.2557 33.4144C69.2318 33.5036 69.1906 33.5873 69.1344 33.6605C69.0782 33.7338 69.0081 33.7953 68.9281 33.8414C68.8482 33.8876 68.7599 33.9176 68.6684 33.9297C68.5768 33.9417 68.4838 33.9356 68.3946 33.9118L65.7047 33.1913ZM59.8112 42.6719C59.6739 42.5346 59.6054 42.3547 59.6054 42.1747C59.6054 41.9947 59.674 41.8147 59.8114 41.6775C59.9433 41.5456 60.1221 41.4716 60.3086 41.4716C60.495 41.4716 60.6739 41.5456 60.8057 41.6775L62.7745 43.6465C62.9064 43.7784 62.9804 43.9572 62.9804 44.1437C62.9804 44.3302 62.9064 44.509 62.7745 44.6409C62.6426 44.7727 62.4638 44.8468 62.2773 44.8468C62.0908 44.8468 61.912 44.7727 61.7801 44.6409L59.8112 42.6719ZM50.6883 50.6246L49.9667 47.9352C49.9237 47.7568 49.952 47.5688 50.0457 47.411C50.1394 47.2533 50.291 47.1384 50.4682 47.0909C50.6453 47.0434 50.8341 47.0669 50.9941 47.1565C51.1542 47.2462 51.2729 47.3948 51.325 47.5707L52.0466 50.2601C52.0706 50.3493 52.0767 50.4423 52.0647 50.5339C52.0527 50.6254 52.0227 50.7137 51.9766 50.7937C51.9305 50.8737 51.869 50.9438 51.7958 51.0001C51.7225 51.0563 51.6389 51.0976 51.5497 51.1215C51.4606 51.1455 51.3675 51.1516 51.276 51.1396C51.1844 51.1275 51.0961 51.0976 51.0161 51.0515C50.9361 51.0053 50.866 50.9439 50.8098 50.8706C50.7535 50.7974 50.7123 50.7138 50.6883 50.6246ZM24.4301 20.6771C24.6102 20.7255 24.7637 20.8434 24.8569 21.0049C24.95 21.1663 24.9753 21.3582 24.9271 21.5383C24.9032 21.6275 24.862 21.7111 24.8058 21.7844C24.7496 21.8576 24.6795 21.9191 24.5995 21.9652C24.5195 22.0114 24.4312 22.0413 24.3397 22.0533C24.2481 22.0654 24.1551 22.0592 24.0659 22.0353L21.3765 21.3143C21.1964 21.2659 21.0429 21.148 20.9497 20.9866C20.8566 20.8251 20.8313 20.6332 20.8795 20.4531C20.9034 20.3639 20.9446 20.2803 21.0008 20.207C21.057 20.1338 21.1271 20.0723 21.2071 20.0262C21.2871 19.98 21.3754 19.9501 21.4669 19.9381C21.5585 19.9261 21.6515 19.9322 21.7407 19.9561L24.4301 20.6771ZM30.3232 11.196C30.4506 11.3288 30.5209 11.5063 30.519 11.6903C30.5171 11.8743 30.4431 12.0502 30.313 12.1803C30.1828 12.3104 30.0069 12.3843 29.8228 12.3862C29.6388 12.3881 29.4614 12.3177 29.3287 12.1903L27.3606 10.2219C27.2234 10.0845 27.1548 9.90468 27.1548 9.72482C27.1548 9.54496 27.2234 9.36482 27.3608 9.22757C27.4926 9.09573 27.6715 9.02168 27.858 9.02171C28.0445 9.02174 28.2233 9.09584 28.3551 9.22772L30.3232 11.196ZM39.4478 3.24314L40.1679 5.93217C40.2117 6.11079 40.1838 6.29945 40.0901 6.45772C39.9964 6.61599 39.8445 6.73128 39.6669 6.77888C39.4892 6.82647 39.3 6.80259 39.1398 6.71235C38.9795 6.62211 38.861 6.47268 38.8096 6.29611L38.0893 3.60707C38.0479 3.42923 38.0772 3.24223 38.171 3.08559C38.2649 2.92896 38.416 2.81497 38.5924 2.76771C38.7688 2.72045 38.9567 2.74363 39.1163 2.83235C39.2759 2.92107 39.3948 3.06838 39.4478 3.24314ZM49.9426 6.11456C49.9426 6.05437 49.9505 5.9932 49.9668 5.93217L50.6872 3.24271C50.7105 3.1529 50.7514 3.06859 50.8075 2.99465C50.8635 2.9207 50.9337 2.85858 51.0139 2.81188C51.094 2.76517 51.1827 2.73479 51.2746 2.7225C51.3666 2.71021 51.4601 2.71625 51.5498 2.74026C51.6394 2.76428 51.7234 2.8058 51.7969 2.86243C51.8704 2.91906 51.932 2.98968 51.9781 3.07022C52.0241 3.15076 52.0538 3.23962 52.0654 3.33169C52.077 3.42376 52.0702 3.51721 52.0455 3.60665L51.3251 6.29611C51.2811 6.46101 51.1786 6.60428 51.0368 6.6992C50.8949 6.79412 50.7234 6.83421 50.5542 6.81198C50.385 6.78976 50.2296 6.70675 50.1171 6.57843C50.0046 6.4501 49.9425 6.28523 49.9426 6.11456ZM19.1445 52.9936C19.2763 53.1254 19.3504 53.3043 19.3504 53.4908C19.3504 53.6772 19.2763 53.8561 19.1445 53.9879L8.45402 64.6785C8.35573 64.777 8.23043 64.8441 8.094 64.8713C7.95757 64.8984 7.81614 64.8845 7.68761 64.8313C7.55909 64.778 7.44926 64.6879 7.37203 64.5721C7.2948 64.4564 7.25365 64.3204 7.25378 64.1813C7.25378 64.0014 7.32241 63.8213 7.4598 63.684L18.1503 52.9935C18.2821 52.8617 18.4609 52.7876 18.6474 52.7877C18.8338 52.7877 19.0126 52.8618 19.1445 52.9936ZM13.1529 64.64C13.0546 64.7385 12.9293 64.8055 12.7928 64.8327C12.6564 64.8599 12.515 64.846 12.3865 64.7928C12.2579 64.7395 12.1481 64.6493 12.0709 64.5336C11.9936 64.4179 11.9525 64.2819 11.9526 64.1428C11.9526 63.9628 12.0213 63.7829 12.1586 63.6455L21.6172 54.1871C21.6822 54.1204 21.7598 54.0673 21.8454 54.0309C21.9311 53.9945 22.0231 53.9754 22.1162 53.9748C22.2093 53.9743 22.3016 53.9922 22.3877 54.0275C22.4738 54.0629 22.552 54.115 22.6178 54.1808C22.6837 54.2466 22.7358 54.3249 22.7711 54.411C22.8064 54.4971 22.8243 54.5894 22.8237 54.6825C22.8231 54.7755 22.8041 54.8676 22.7676 54.9532C22.7312 55.0389 22.6781 55.1165 22.6114 55.1814L13.1529 64.64ZM16.462 64.0027L25.6525 54.8126C25.7174 54.7459 25.795 54.6929 25.8807 54.6564C25.9663 54.62 26.0584 54.6009 26.1515 54.6003C26.2445 54.5998 26.3368 54.6177 26.4229 54.653C26.509 54.6884 26.5873 54.7405 26.6531 54.8063C26.7189 54.8721 26.771 54.9504 26.8063 55.0365C26.8417 55.1226 26.8596 55.2149 26.859 55.308C26.8584 55.401 26.8393 55.4931 26.8029 55.5787C26.7664 55.6644 26.7133 55.742 26.6467 55.8069L17.4563 64.9971C17.358 65.0955 17.2327 65.1626 17.0963 65.1898C16.9598 65.217 16.8184 65.203 16.6899 65.1498C16.5613 65.0966 16.4515 65.0064 16.3743 64.8907C16.2971 64.7749 16.2559 64.6389 16.256 64.4998C16.2559 64.4075 16.274 64.316 16.3094 64.2307C16.3447 64.1454 16.3966 64.0679 16.462 64.0027ZM17.3259 45.4915C17.4578 45.6234 17.5318 45.8022 17.5318 45.9887C17.5318 46.1752 17.4578 46.354 17.3259 46.4859L8.13578 55.6763C8.03749 55.7747 7.9122 55.8418 7.77577 55.869C7.63933 55.8962 7.4979 55.8823 7.36938 55.829C7.24086 55.7758 7.13103 55.6856 7.0538 55.5699C6.97657 55.4542 6.93541 55.3182 6.93555 55.179C6.93555 54.9992 7.00417 54.8192 7.14156 54.6818L16.3317 45.4914C16.397 45.4261 16.4745 45.3743 16.5598 45.339C16.6451 45.3037 16.7365 45.2855 16.8288 45.2855C16.9211 45.2855 17.0126 45.3037 17.0979 45.3391C17.1831 45.3744 17.2606 45.4262 17.3259 45.4915ZM17.9513 49.5269C18.0831 49.6588 18.1572 49.8376 18.1572 50.0241C18.1572 50.2106 18.0831 50.3894 17.9513 50.5213L8.49255 59.9797C8.39426 60.0781 8.26896 60.1452 8.13253 60.1724C7.9961 60.1996 7.85467 60.1857 7.72614 60.1324C7.59762 60.0792 7.48779 59.989 7.41056 59.8733C7.33333 59.7576 7.29218 59.6216 7.29231 59.4824C7.29231 59.3024 7.36094 59.1226 7.49833 58.9852L16.957 49.5268C17.0223 49.4615 17.0998 49.4097 17.1851 49.3744C17.2704 49.3391 17.3619 49.3209 17.4542 49.3209C17.5465 49.3209 17.6379 49.3391 17.7232 49.3745C17.8085 49.4098 17.886 49.4616 17.9513 49.5269Z" fill="#0A8D12"/>
<path d="M47.4028 24.5986L45.9712 29.0522L42.9492 26.0302L47.4028 24.5986Z" fill="#E1E5E3"/>
<path opacity="0.2" d="M45.9715 29.0521L44.9434 28.0239L45.8889 25.0855L47.4025 24.5984L45.9715 29.0521Z" fill="black"/>
<path d="M32.924 38.8552C32.7926 38.7228 32.7188 38.5439 32.7188 38.3573C32.7188 38.1708 32.7926 37.9918 32.924 37.8595L40.9579 29.827C41.0899 29.6953 41.2686 29.6213 41.4551 29.6213C41.6415 29.6213 41.8203 29.6953 41.9522 29.827C42.0839 29.9589 42.1579 30.1377 42.1579 30.3241C42.1579 30.5105 42.0839 30.6893 41.9522 30.8212L33.9197 38.8552C33.7875 38.9868 33.6085 39.0608 33.4219 39.0608C33.2352 39.0608 33.0562 38.9868 32.924 38.8552Z" fill="#0A8D12"/>
<path opacity="0.4" d="M36.5783 47.1038L35.4716 48.2105L35.406 54.849L28.512 63.2921L28.1133 66.1967L36.4909 55.9337L36.5783 47.1038Z" fill="white"/>
<path opacity="0.2" d="M36.5774 47.1042L34.9914 48.6902L34.9894 48.6922L29.8047 53.8769L28.1113 66.1961L29.5959 64.3774L30.8897 54.9617L36.0744 49.7771L36.0763 49.7751L36.5556 49.2959L36.5774 47.1042Z" fill="black"/>
<g opacity="0.4">
<path d="M31.2695 16.9939C30.1757 18.4536 29.3355 20.0715 28.7637 21.7749L60.8927 21.7758C60.32 20.0561 59.4713 18.4411 58.3799 16.9939H31.2695ZM61.3939 23.6034H49.185C49.184 23.6142 49.182 23.6248 49.1791 23.6352C49.1767 23.6629 49.1714 23.6902 49.1632 23.7168C49.1621 23.7202 49.1608 23.7235 49.1592 23.7267L48.6192 25.4082H61.6792C61.6169 24.8019 61.5217 24.1994 61.3939 23.6034ZM28.2615 23.6034C28.1328 24.1994 28.0362 24.8019 27.9721 25.4082H40.9507L41.1317 25.2272C41.1654 25.1913 41.2023 25.1606 41.2421 25.1327C41.2501 25.1288 41.257 25.1237 41.264 25.1208C41.2928 25.1019 41.3226 25.0859 41.3544 25.0721C41.3654 25.0672 41.3764 25.0621 41.3882 25.0582C41.4001 25.0542 41.4111 25.0472 41.4219 25.0443L45.9076 23.6034H28.2615ZM61.7559 26.4274H48.2922L47.3325 29.4156H61.6237C61.7546 28.4253 61.7989 27.4254 61.7559 26.4274ZM27.8937 26.4274C27.847 27.4208 27.8877 28.4201 28.018 29.4156H36.9434L39.9316 26.4274H27.8937Z" fill="black"/>
</g>
<path opacity="0.4" d="M41.6383 26.7075L42.3675 27.4368L31.1959 38.6081L30.4668 37.8791L41.6383 26.7075Z" fill="white"/>
<path opacity="0.2" d="M44.5661 29.6345L45.2952 30.3637L34.1237 41.5352L33.3945 40.8059L44.5661 29.6345Z" fill="black"/>
<path opacity="0.5" d="M26.4565 35.8538L36.1484 45.5456L35.5845 46.1095L25.8926 36.4178L26.4565 35.8538Z" fill="white"/>
<path opacity="0.2" d="M25.3666 36.9436L35.0585 46.6355L34.4946 47.1995L24.8027 37.5077L25.3666 36.9436Z" fill="black"/>
<path opacity="0.5" d="M23.8082 38.5017L33.5001 48.1936L32.936 48.7575L23.2441 39.0658L23.8082 38.5017Z" fill="white"/>
<path opacity="0.2" d="M22.7183 39.5916L32.4102 49.2834L31.8462 49.8473L22.1543 40.1555L22.7183 39.5916Z" fill="black"/>
<path opacity="0.5" d="M21.1593 41.1497L30.8512 50.8415L30.268 51.4247L20.5762 41.7328L21.1593 41.1497Z" fill="white"/>
<path opacity="0.2" d="M20.0322 42.2766L29.7241 51.9685L29.1411 52.5515L19.4492 42.8596L20.0322 42.2766Z" fill="black"/>
<path opacity="0.5" d="M21.191 46.5889L25.4129 50.8109L25.0482 51.1756L20.8262 46.9535L21.191 46.5889Z" fill="white"/>
<path opacity="0.2" d="M20.4857 47.2937L24.7079 51.5158L24.3431 51.8805L20.1211 47.6585L20.4857 47.2937Z" fill="black"/>
</svg>
