<svg width="24" height="25" viewBox="0 0 24 25" fill="none" xmlns="http://www.w3.org/2000/svg">
<path d="M6 5C5.20435 5 4.44129 5.31607 3.87868 5.87868C3.31607 6.44129 3 7.20435 3 8V8.3015L12 13.148L21 8.303V8C21 7.20435 20.6839 6.44129 20.1213 5.87868C19.5587 5.31607 18.7956 5 18 5H6ZM21 10.0055L12.3555 14.66C12.2462 14.7188 12.1241 14.7496 12 14.7496C11.8759 14.7496 11.7538 14.7188 11.6445 14.66L3 10.0055V17C3 17.7956 3.31607 18.5587 3.87868 19.1213C4.44129 19.6839 5.20435 20 6 20H18C18.7956 20 19.5587 19.6839 20.1213 19.1213C20.6839 18.5587 21 17.7956 21 17V10.0055Z" fill="#00B852"/>
</svg>
