<svg width="76" height="76" viewBox="0 0 76 76" fill="none" xmlns="http://www.w3.org/2000/svg">
<path d="M71.549 53.1269C71.5634 53.0981 71.5778 53.026 71.5778 52.8817C71.474 55.6726 71.8071 56.4038 71.1451 57.6558C70.9331 58.1101 70.3922 58.8024 69.6307 59.3735C69.5153 59.4889 69.3855 59.5899 69.2413 59.662C69.0826 59.7918 68.9096 59.8784 68.7365 59.9937C68.5346 60.1091 68.3326 60.2101 68.1019 60.3255C67.9865 60.3832 67.8567 60.4553 67.7124 60.513C67.3519 60.6716 66.9913 60.8159 66.6019 60.9312C66.4721 60.9745 66.3422 61.0178 66.198 61.0466C65.8374 61.162 65.4624 61.2485 65.073 61.3351C64.9432 61.3639 64.799 61.3784 64.6692 61.4072C64.2942 61.4793 63.9321 61.5226 63.5571 61.5514C63.4273 61.5659 63.2831 61.5803 63.1677 61.5803C62.7783 61.638 62.4033 61.6524 62.0283 61.6524H61.6389C61.2495 61.6524 60.8745 61.6091 60.5139 61.5803C60.3841 61.5803 60.2543 61.5659 60.1245 61.5514C59.7495 61.5226 59.36 61.4649 58.985 61.3928C58.8552 61.3784 58.7254 61.3495 58.5956 61.3207C58.2206 61.2341 57.8312 61.1476 57.4692 61.0322C57.3358 61.0071 57.2053 60.9685 57.0797 60.9168C56.6903 60.8014 56.3153 60.6572 55.9403 60.4841C55.8105 60.4409 55.6807 60.3687 55.5509 60.3111C55.5105 60.288 54.7432 59.8827 54.4403 59.662C54.2961 59.561 54.1663 59.4745 54.0365 59.3591C53.5894 59.0274 53.1999 58.6524 52.9259 58.263C52.7619 58.077 52.6258 57.868 52.5221 57.6428C51.824 56.3519 52.1874 55.6178 52.1038 52.824L52.1052 52.8817C52.1038 52.7303 52.1052 52.5774 52.1168 52.4202V52.3913C52.1023 52.2471 52.0879 52.1173 52.0879 51.9731L52.1023 49.0019V48.8144L52.1052 48.8909C52.0706 47.4269 53.0168 45.9572 54.9307 44.8466C58.724 42.6543 64.8841 42.6543 68.6932 44.8466C70.7124 46.0149 71.6644 47.5726 71.549 49.1014C71.5634 49.087 71.5778 49.0149 71.5778 48.8707C71.5778 48.8851 71.5634 53.0303 71.549 53.1269Z" fill="#0A8D12"/>
<path d="M60.1229 40.7636C59.3959 41.1847 51.3435 45.8405 50.6166 46.2588C50.6166 47.4227 50.6267 47.5381 50.5878 47.6737C50.6022 47.6881 50.6022 47.7025 50.5878 47.7169C50.6584 48.1395 50.6195 51.529 50.6022 51.6112C50.6166 51.741 50.631 51.8708 50.631 52.0006L50.6166 55.1607C50.6166 55.2617 50.6166 55.3626 50.5878 55.4636C50.6022 55.478 50.6022 55.4924 50.5878 55.5069C50.6657 55.977 50.6166 56.042 50.6166 59.1703C50.6166 59.2424 50.6166 59.329 50.6022 59.4011C50.6166 59.5323 50.631 59.6607 50.631 59.7919L50.6166 62.9506C50.6166 63.0516 50.6166 63.1669 50.5878 63.2679C50.6628 63.4194 50.6123 65.7718 50.6166 66.9617C50.6166 67.5242 50.4724 68.0722 50.1983 68.5915C50.0974 68.7934 49.9676 68.9953 49.8089 69.1828C49.5205 69.5867 49.1455 69.9617 48.6983 70.3078C48.5685 70.4232 48.4387 70.5097 48.2945 70.5963C48.1358 70.7117 47.9628 70.8126 47.7897 70.928C47.5878 71.029 47.3858 71.1443 47.1695 71.2453C47.0397 71.3174 46.9099 71.3751 46.7657 71.4472C46.4051 71.6059 46.0445 71.7357 45.6551 71.8655C45.5253 71.8943 45.3955 71.952 45.2512 71.9809C44.8907 72.0819 44.5142 72.1843 44.1248 72.2549C43.995 72.2982 43.8508 72.3126 43.7354 72.3429C43.3459 72.4006 42.9854 72.4439 42.6104 72.4871C42.4806 72.5016 42.3363 72.516 42.2209 72.516C41.8315 72.5593 41.4565 72.5737 41.0815 72.5737H40.6921C40.3171 72.5737 39.9277 72.5448 39.5671 72.516C39.4517 72.516 39.3075 72.5016 39.1777 72.4871C38.8027 72.4439 38.4277 72.3862 38.0368 72.3285C37.9214 72.3141 37.7772 72.2708 37.6474 72.242C37.2724 72.1698 36.8974 72.0689 36.5224 71.9679C36.3926 71.9246 36.2628 71.8958 36.133 71.8525C35.7435 71.7227 35.3685 71.5785 35.008 71.4054C34.8637 71.3621 34.7339 71.3045 34.6041 71.2323C34.4022 71.1314 34.2147 71.0304 34.0272 70.9295C33.8397 70.8141 33.6522 70.6987 33.4935 70.5977C33.3493 70.4968 33.2195 70.4102 33.0897 70.2948C32.6426 69.9631 32.2676 69.5881 31.9791 69.1842C31.8205 68.9967 31.6762 68.7948 31.5883 68.5785C31.2854 68.0448 31.1411 67.4823 31.1411 66.9198L31.1556 63.7597C31.1556 63.6444 31.1556 63.5145 31.1844 63.3992C31.1051 62.965 31.1556 59.6246 31.17 59.5468C31.1137 58.9886 31.1556 59.2987 31.1556 57.4987L22.6301 62.4314V62.4169L4.43825 51.8578L4.42383 46.3035L5.75075 45.5391L4.43825 44.7746L4.42383 39.2347L5.75075 38.4703L4.43825 37.7059L4.42383 32.1516L5.75075 31.3871L4.43825 30.6227L4.42383 25.0684L8.63537 22.6453L15.619 18.6054L29.5979 10.5256L33.1604 8.4631H33.1748L33.6363 8.18906L37.7181 5.8381C37.7181 5.8381 37.7325 5.8381 37.7325 5.85252L41.9325 3.42944L46.6921 6.19867L55.3488 11.2179L60.1084 13.9871H60.1229V19.5285L58.7815 20.3073L60.1084 21.0718H60.1229V26.6102L58.7959 27.3746L60.1084 28.1405H60.1229V33.6934L58.7959 34.4593L60.1084 35.2237H60.1229V40.7636Z" fill="#0A8D12"/>
<path d="M4.42773 46.3062L4.44504 51.8547L22.6311 62.4239L22.6138 56.8754L4.42773 46.3062Z" fill="#52CC99"/>
<path d="M60.1198 35.2251V40.7664C51.2684 45.8794 31.4785 57.3126 22.6241 62.4256L22.5996 56.8842L26.8083 54.4366L50.7938 40.6092L51.4054 40.266V40.2414L51.8958 39.9732L55.9083 37.6482L60.1184 35.2251H60.1198Z" fill="#52CC99"/>
<path d="M4.42773 46.3063L22.6138 56.8755L60.1109 35.225L41.9249 24.6572L4.42773 46.3063Z" fill="#0A8D12"/>
<path d="M55.9089 37.6451L26.8118 54.448C24.1781 52.9076 20.1728 52.7605 17.855 54.1134L9.19396 49.0682C11.5305 47.7341 11.2709 45.4163 8.63867 43.8759L37.7156 27.0745C40.3492 28.6134 44.3733 28.762 46.6911 27.4278L55.3521 32.4528C53.0343 33.7884 53.2752 36.1249 55.9089 37.6451Z" fill="#6EBA9A"/>
<path d="M41.4614 33.3587C40.4446 33.9472 40.4273 34.8832 41.4383 35.4717C42.4508 36.0601 44.0676 36.0529 45.0859 35.4645C46.0926 34.8832 46.11 33.9472 45.0975 33.3587C44.0864 32.7717 42.4681 32.7789 41.4614 33.3587ZM19.1576 46.1779C18.1508 46.7592 18.1335 47.6952 19.146 48.2837C20.1571 48.8707 21.7739 48.865 22.7806 48.2837C23.7989 47.6952 23.8162 46.7592 22.8037 46.1707C21.7926 45.5837 20.1758 45.5895 19.1576 46.1779ZM39.4047 44.8366C36.2705 46.6539 30.5965 46.2457 26.646 43.9467C22.7143 41.665 22.0292 38.365 25.1446 36.565C28.2412 34.7664 33.9527 35.1746 37.9032 37.4549C41.835 39.7366 42.5027 43.0553 39.4047 44.8366Z" fill="#0A8D12"/>
<path d="M37.6177 41.9764C37.811 41.7457 37.9076 41.5135 37.9264 41.2827C37.9653 40.762 37.6769 40.299 37.0019 39.8937C36.3386 39.5194 35.5833 39.3395 34.8225 39.3745C34.0509 39.412 33.1264 39.624 32.0259 40.0091L31.9884 40.0293L31.7374 39.8937V39.875L29.8278 38.776C30.5028 38.4875 31.2557 38.2928 32.1427 38.1976L31.8543 37.1562C30.5807 37.2904 29.4817 37.5803 28.5744 38.0433L27.9773 37.7144L27.2446 38.1385L27.823 38.4673C27.0903 38.9288 26.7052 39.412 26.685 39.9327C26.6628 40.1413 26.7105 40.3513 26.8206 40.5298C26.9547 40.7995 27.2057 41.0505 27.611 41.2827C27.9384 41.4745 28.2658 41.6101 28.6134 41.6865H28.6321C28.9797 41.7832 29.3461 41.8221 29.7139 41.8019C30.4639 41.7644 31.3898 41.5712 32.4687 41.1673L34.7071 42.4582C33.8966 42.8043 32.8942 42.9976 31.6985 43.0365L31.8341 44.1168C33.435 44.0591 34.8038 43.7505 35.9591 43.1909L36.8086 43.6726L37.5413 43.2486L36.7119 42.787C37.1158 42.5159 37.4259 42.2462 37.6177 41.9764ZM30.8692 40.3755C30.8504 40.3957 30.8317 40.3957 30.8317 40.3957C30.3485 40.5298 29.9821 40.6077 29.7326 40.6077C29.424 40.6077 29.1528 40.5298 28.8831 40.3769C28.7948 40.3274 28.7166 40.2619 28.6523 40.1837C28.6034 40.1416 28.5669 40.087 28.5465 40.0258C28.5262 39.9646 28.5229 39.899 28.5369 39.8361C28.5369 39.624 28.749 39.412 29.0562 39.1798L30.6773 40.1245L30.9845 40.2976L31.0047 40.3178L31.0437 40.338C30.986 40.3567 30.9268 40.3755 30.8692 40.3755ZM36.0369 41.3779C35.9793 41.5913 35.8062 41.8221 35.4773 42.0529L33.3961 40.8587C33.6845 40.762 33.9543 40.6856 34.1865 40.6452C34.4172 40.5875 34.6105 40.5687 34.7836 40.5687C35.111 40.5687 35.4196 40.6264 35.6908 40.7808C35.9028 40.8962 36.0182 41.0692 36.0369 41.2423V41.3779Z" fill="#6EBA9A"/>
<path d="M51.8876 39.9572L47.852 42.3024L29.5996 31.7649L33.6352 29.4197L51.8876 39.9572Z" fill="#E4F4ED"/>
<path d="M51.8875 39.9572L51.4087 40.2355L33.1562 29.698L33.6351 29.4197L51.8875 39.9572Z" fill="#60F9B9"/>
<path d="M51.8959 39.947V45.5143L47.8574 47.8393V42.298L50.7954 40.609L51.4069 40.2413L51.8973 39.9485L51.8959 39.947Z" fill="#CADDD5"/>
<path d="M51.8971 39.9485V45.5144L51.4082 45.8071V40.2413L51.8971 39.9485Z" fill="#60F9B9"/>
<path d="M4.42773 39.2288L4.44504 44.7773L22.6311 55.3451L22.6138 49.7966L4.42773 39.2288Z" fill="#52CC99"/>
<path d="M60.1203 28.1462V33.6876L51.8963 38.4357L51.4073 38.7299L22.6261 55.3482L22.6016 49.8068L26.8102 47.3592L47.8592 35.2193L49.352 34.3626L50.7943 33.5304L51.4073 33.1885V33.164L51.8977 32.8943L55.9102 30.5693L60.1203 28.1462Z" fill="#52CC99"/>
<path d="M4.42773 39.2289L22.6138 49.7967L60.1109 28.1476L41.9249 17.5798L4.42773 39.2289Z" fill="#0A8D12"/>
<path d="M55.9089 30.5677L26.8118 47.3692C24.1781 45.8302 20.1728 45.6817 17.855 47.0345L9.19396 41.9908C11.5305 40.6552 11.2709 38.3374 8.63867 36.7985L37.7156 19.9956C40.3492 21.536 44.3733 21.6845 46.6911 20.349L55.3521 25.3754C53.0343 26.7095 53.2752 29.0461 55.9089 30.5677Z" fill="#6EBA9A"/>
<path d="M41.4609 26.2812C40.4441 26.8696 40.4268 27.8057 41.4378 28.3942C42.4503 28.9812 44.0671 28.974 45.0854 28.3869C46.0921 27.8057 46.1094 26.8696 45.0969 26.2812C44.0859 25.6927 42.4676 25.6999 41.4609 26.2812ZM19.1556 39.099C18.1489 39.6788 18.1316 40.6163 19.1441 41.2047C20.1551 41.7918 21.7719 41.7845 22.7787 41.2047C23.7969 40.6163 23.8143 39.6802 22.8018 39.0918C21.7907 38.5033 20.1739 38.5105 19.1556 39.099ZM39.4027 37.7576C36.2686 39.5749 30.5945 39.1653 26.6441 36.8663C22.7123 34.586 22.0272 31.2845 25.1426 29.486C28.2393 27.6874 33.9508 28.0956 37.9013 30.3759C41.833 32.6562 42.5008 35.9764 39.4027 37.7562V37.7576Z" fill="#0A8D12"/>
<path d="M37.6178 34.899C37.8111 34.6668 37.9078 34.436 37.9265 34.2038C37.9654 33.6846 37.677 33.2202 37.002 32.8163C36.3389 32.4414 35.5836 32.261 34.8227 32.2957C34.051 32.3332 33.1265 32.5452 32.026 32.9303L31.9885 32.9505L31.7376 32.8163V32.7961L29.8279 31.6971C30.5029 31.4086 31.2558 31.2154 32.1428 31.1202L31.8544 30.0774C30.5808 30.213 29.4818 30.5014 28.5746 30.9644L27.9775 30.637L27.2448 31.061L27.8231 31.3885C27.0904 31.8514 26.7053 32.3332 26.6852 32.8538C26.6626 33.0629 26.7103 33.2735 26.8207 33.4524C26.9549 33.7221 27.2058 33.9716 27.6111 34.2038C27.9385 34.3971 28.2659 34.5312 28.6135 34.6077H28.6323C28.9799 34.7058 29.3462 34.7447 29.714 34.7245C30.464 34.6856 31.39 34.4937 32.4688 34.0885L34.7073 35.3808C33.8967 35.7269 32.8943 35.9202 31.6986 35.9577L31.8342 37.0394C33.4352 36.9817 34.8039 36.6716 35.9592 36.1134L36.8087 36.5952L37.5414 36.1711L36.7121 35.7082C37.1159 35.4384 37.426 35.1702 37.6178 34.899ZM30.8693 33.2981C30.8505 33.3168 30.8318 33.3168 30.8318 33.3168C30.3486 33.4524 29.9823 33.5288 29.7328 33.5288C29.4241 33.5288 29.1529 33.4524 28.8832 33.2981C28.795 33.2486 28.7167 33.183 28.6525 33.1048C28.6038 33.0629 28.5674 33.0085 28.5471 32.9476C28.5268 32.8867 28.5233 32.8214 28.5371 32.7586C28.5371 32.5452 28.7491 32.3332 29.0563 32.1024L30.6775 33.0471L30.9847 33.2202L31.0049 33.2404L31.0438 33.2591C30.9861 33.2779 30.927 33.2981 30.8693 33.2981ZM36.0371 34.3005C35.9794 34.5125 35.8063 34.7447 35.4775 34.9755L33.3962 33.7798C33.6847 33.6832 33.9544 33.6067 34.1866 33.5678C34.4174 33.5101 34.6106 33.4899 34.7837 33.4899C35.1111 33.4899 35.4198 33.5476 35.6909 33.7034C35.9029 33.8187 36.0183 33.9918 36.0371 34.1649V34.3005Z" fill="#6EBA9A"/>
<path d="M51.8876 32.8798L47.852 35.225L29.5996 24.686L33.6352 22.3408L51.8876 32.8798Z" fill="#E4F4ED"/>
<path d="M51.8875 32.8798L51.4087 33.1581L33.1562 22.6192L33.6351 22.3408L51.8875 32.8798Z" fill="#60F9B9"/>
<path d="M51.8964 32.8696V38.4355L51.4075 38.7297L47.8594 40.7605V35.2191L49.3522 34.3624L50.7959 33.5302L51.4075 33.1639L51.8964 32.8696Z" fill="#CADDD5"/>
<path d="M51.8971 32.8696V38.4355L51.4082 38.7297V33.1639L51.8971 32.8696Z" fill="#60F9B9"/>
<path d="M4.42773 32.1499L4.44504 37.6985L22.6311 48.2677L22.6138 42.7191L4.42773 32.1499Z" fill="#52CC99"/>
<path d="M60.1203 21.0688V26.6102L51.8963 31.3583L51.4073 31.6525L47.8592 33.6833L22.6261 48.2693L22.6016 42.728L26.8102 40.2804L47.8592 28.1419L49.352 27.2852L50.7958 26.453L51.4073 26.1097V26.0866L51.8963 25.8169L55.9102 23.4919L60.1203 21.0688Z" fill="#52CC99"/>
<path d="M4.42773 32.15L22.6138 42.7192L60.1109 21.0702L41.9249 10.501L4.42773 32.15Z" fill="#0A8D12"/>
<path d="M55.9089 23.4903L26.8118 40.2889C24.1781 38.7499 20.1728 38.6014 17.855 39.9557L9.19396 34.9134C11.5305 33.5778 11.2709 31.26 8.63867 29.7211L37.7156 12.9182C40.3492 14.4586 44.3733 14.6057 46.6911 13.2716L55.3521 18.2966C53.0343 19.6322 53.2752 21.9701 55.9089 23.4903Z" fill="#6EBA9A"/>
<path d="M41.4609 19.2039C40.4441 19.7909 40.4268 20.7284 41.4378 21.3154C42.4503 21.9039 44.0671 21.8967 45.0854 21.3082C46.0921 20.7284 46.1094 19.7909 45.0969 19.2025C44.0859 18.6154 42.4691 18.6226 41.4623 19.2025L41.4609 19.2039ZM19.1556 32.0202C18.1489 32.6015 18.1316 33.5376 19.1441 34.126C20.1551 34.7145 21.7719 34.7073 22.7787 34.126C23.7969 33.5376 23.8143 32.6015 22.8018 32.013C21.7907 31.426 20.1739 31.4332 19.1556 32.0202ZM39.4027 30.6789C36.2686 32.4962 30.5945 32.088 26.6441 29.789C22.7123 27.5073 22.0272 24.2073 25.1426 22.4073C28.2393 20.6087 33.9508 21.0169 37.9013 23.2986C41.833 25.5789 42.5008 28.8991 39.4027 30.6789Z" fill="#0A8D12"/>
<path d="M37.6177 27.8202C37.811 27.5894 37.9076 27.3587 37.9264 27.1264C37.9653 26.6058 37.6769 26.1428 37.0019 25.7375C36.3386 25.3632 35.5833 25.1832 34.8225 25.2183C34.0509 25.2558 33.1264 25.4678 32.0259 25.8529L31.9884 25.8731L31.7374 25.7375V25.7188L29.8278 24.6197C30.5028 24.3312 31.2557 24.1365 32.1427 24.0413L31.8543 23C30.5807 23.1341 29.4817 23.424 28.5744 23.887L27.9773 23.5582L27.2446 23.9837L27.823 24.3111C27.0903 24.7726 26.7052 25.2558 26.685 25.7764C26.6628 25.985 26.7105 26.195 26.8206 26.3736C26.9547 26.6433 27.2057 26.8942 27.611 27.1264C27.9384 27.3183 28.2658 27.4538 28.6134 27.5303H28.6321C28.9797 27.6269 29.3461 27.6659 29.7139 27.6457C30.4639 27.6082 31.3898 27.4149 32.4687 27.0111L34.7071 28.3019C33.8966 28.6481 32.8942 28.8428 31.6985 28.8803L31.8341 29.9606C33.435 29.9029 34.8038 29.5942 35.9591 29.0346L36.8086 29.5163L37.5413 29.0923L36.7119 28.6308C37.1158 28.3596 37.4259 28.0899 37.6177 27.8202ZM30.8692 26.2192C30.8504 26.2394 30.8317 26.2394 30.8317 26.2394C30.3485 26.3736 29.9821 26.4514 29.7326 26.4514C29.424 26.4514 29.1528 26.3736 28.8831 26.2207C28.7948 26.1712 28.7166 26.1056 28.6523 26.0274C28.6034 25.9853 28.5669 25.9308 28.5465 25.8696C28.5262 25.8083 28.5229 25.7428 28.5369 25.6798C28.5369 25.4678 28.749 25.2558 29.0562 25.025L30.6773 25.9697L30.9845 26.1428L31.0047 26.1615L31.0437 26.1817C30.986 26.2005 30.9268 26.2192 30.8692 26.2192ZM36.0369 27.2231C35.9793 27.4351 35.8062 27.6659 35.4773 27.8966L33.3961 26.7024C33.6845 26.6058 33.9543 26.5293 34.1865 26.4889C34.4172 26.4312 34.6105 26.4125 34.7836 26.4125C35.111 26.4125 35.4196 26.4702 35.6908 26.6245C35.9028 26.7399 36.0182 26.913 36.0369 27.0861V27.2231Z" fill="#6EBA9A"/>
<path d="M51.8876 25.8009L47.852 28.1461L29.5996 17.6086L33.6352 15.2634L51.8876 25.8009Z" fill="#E4F4ED"/>
<path d="M51.8875 25.8009L51.4087 26.0793L33.1562 15.5418L33.6351 15.2634L51.8875 25.8009Z" fill="#60F9B9"/>
<path d="M51.8964 25.7922V31.3581L51.4075 31.6523L47.8594 33.6831V28.1418L49.3522 27.285L50.7959 26.4528L51.4075 26.0865L51.8964 25.7922Z" fill="#CADDD5"/>
<path d="M51.8971 25.7922V31.3581L51.4082 31.6523V26.0865L51.8971 25.7922Z" fill="#60F9B9"/>
<path d="M4.42773 25.0725L4.44504 30.6211L22.6311 41.1889L22.6138 35.6403L4.42773 25.0725Z" fill="#52CC99"/>
<path d="M60.1203 13.99V19.5313L51.8963 24.2794L51.4073 24.5736L47.8592 26.6044L22.6261 41.1919L22.6016 35.6506L26.8102 33.203L47.8592 21.0631L49.352 20.2078L50.7958 19.3756L51.4073 19.0323V19.0078L51.8963 18.7381L55.9102 16.4131L60.1203 13.99Z" fill="#52CC99"/>
<path d="M4.42773 25.0726L22.6138 35.6404L60.1109 13.9914L41.9249 3.42358L4.42773 25.0726Z" fill="#0A8D12"/>
<path d="M55.9089 16.4115L26.8118 33.2115C24.1781 31.6725 20.1728 31.524 17.855 32.8769L9.19396 27.8331C11.5305 26.4975 11.2709 24.1797 8.63867 22.6408L37.7156 5.83936C40.3492 7.3783 44.3733 7.52686 46.6911 6.19128L55.3521 11.2177C53.0343 12.5519 53.2752 14.8913 55.9089 16.4115Z" fill="#6EBA9A"/>
<path d="M41.4609 12.1251C40.4441 12.7136 40.4268 13.6496 41.4378 14.2381C42.4503 14.8251 44.0671 14.8193 45.0854 14.2309C46.0921 13.6496 46.1094 12.7136 45.0969 12.1251C44.0859 11.5381 42.4676 11.5439 41.4609 12.1251ZM19.1556 24.9429C18.1489 25.5242 18.1316 26.4602 19.1441 27.0487C20.1551 27.6357 21.7719 27.6285 22.7787 27.0487C23.7969 26.4602 23.8143 25.5242 22.8018 24.9357C21.7907 24.3472 20.1739 24.3544 19.1556 24.9429ZM39.4027 23.6016C36.2686 25.4189 30.5945 25.0107 26.6441 22.7102C22.7123 20.4299 22.0272 17.1285 25.1426 15.3299C28.2393 13.5314 33.9508 13.9395 37.9013 16.2198C41.833 18.5016 42.5008 21.8217 39.4027 23.6016Z" fill="#0A8D12"/>
<path d="M37.6178 20.7413C37.8111 20.5106 37.9078 20.2798 37.9265 20.049C37.9654 19.5269 37.677 19.0639 37.002 18.6601C36.3389 18.2852 35.5836 18.1047 34.8227 18.1394C34.051 18.1769 33.1265 18.3904 32.026 18.774L31.9885 18.7942L31.7376 18.6601V18.6399L29.8279 17.5409C30.5029 17.2524 31.2558 17.0591 32.1428 16.9639L31.8544 15.9211C30.5808 16.0567 29.4818 16.3452 28.5746 16.8082L27.9775 16.4808L27.2448 16.9048L27.8231 17.2322C27.0904 17.6952 26.7053 18.1769 26.6852 18.6976C26.6626 18.9066 26.7103 19.1172 26.8207 19.2961C26.9549 19.5659 27.2058 19.8154 27.6111 20.0476C27.9385 20.2409 28.2659 20.375 28.6135 20.4529H28.6323C28.9799 20.5495 29.3462 20.5884 29.714 20.5683C30.464 20.5293 31.39 20.3375 32.4688 19.9322L34.7073 21.2245C33.8967 21.5707 32.8943 21.7639 31.6986 21.8014L31.8342 22.8832C33.4352 22.8255 34.8039 22.5168 35.9592 21.9572L36.8087 22.4389L37.5414 22.0149L36.7121 21.5534C37.1159 21.2822 37.426 21.0125 37.6178 20.7413ZM30.8693 19.1404C30.8505 19.1606 30.8318 19.1606 30.8318 19.1606C30.3486 19.2961 29.9823 19.3726 29.7328 19.3726C29.4241 19.3726 29.1529 19.2961 28.8832 19.1418C28.795 19.0923 28.7167 19.0268 28.6525 18.9485C28.6038 18.9066 28.5674 18.8523 28.5471 18.7914C28.5268 18.7304 28.5233 18.6651 28.5371 18.6024C28.5371 18.3904 28.7491 18.1769 29.0563 17.9461L30.6775 18.8909L30.9847 19.0639L31.0049 19.0841L31.0438 19.1029C30.9861 19.1231 30.9284 19.1418 30.8707 19.1418L30.8693 19.1404ZM36.0371 20.1442C35.9794 20.3562 35.8063 20.5885 35.4775 20.8192L33.3962 19.6235C33.6847 19.5269 33.9544 19.4505 34.1866 19.4115C34.4174 19.3538 34.6106 19.3351 34.7837 19.3351C35.1111 19.3351 35.4198 19.3928 35.6909 19.5471C35.9029 19.6625 36.0183 19.8356 36.0371 20.0086V20.1442Z" fill="#6EBA9A"/>
<path d="M51.8876 18.7235L47.852 21.0687L29.5996 10.5298L33.6352 8.18604L51.8876 18.7235Z" fill="#E4F4ED"/>
<path d="M51.8875 18.7235L51.4087 19.0019L33.1562 8.4644L33.6351 8.18604L51.8875 18.7235Z" fill="#60F9B9"/>
<path d="M51.8964 18.7134V24.2792L51.4075 24.5735L47.8594 26.6042V21.0629L49.3522 20.2076L50.7959 19.3754L51.4075 19.0076L51.8964 18.7134Z" fill="#CADDD5"/>
<path d="M51.8971 18.7134V24.2792L51.4082 24.5735V19.0076L51.8971 18.7134Z" fill="#60F9B9"/>
<path d="M71.5743 52.8875C71.4704 55.6682 71.795 56.4067 71.1488 57.6615C70.8315 58.2485 70.3195 58.8601 69.6358 59.3778C69.5151 59.4864 69.3831 59.5817 69.2421 59.662C69.0834 59.7889 68.9103 59.8827 68.7373 59.9937C68.5339 60.1033 68.3291 60.2129 68.1084 60.324C67.9815 60.3875 67.856 60.4495 67.7147 60.5129C67.3512 60.6716 66.9892 60.8129 66.5954 60.9384C66.47 60.9702 66.343 61.0177 66.2017 61.048C65.8282 61.1613 65.4494 61.2561 65.0666 61.3322C64.9411 61.3639 64.7998 61.3798 64.6728 61.4115C64.3024 61.474 63.9294 61.5212 63.555 61.5528C63.4281 61.5673 63.2868 61.5846 63.1613 61.5846C62.7846 61.6288 62.4055 61.6496 62.0262 61.6466H61.6325C61.2546 61.6466 60.8767 61.6163 60.5147 61.5846C60.3877 61.5846 60.2464 61.5687 60.1209 61.5528C59.2241 61.4654 58.3377 61.2915 57.4743 61.0336C56.7675 61.0297 56.0855 60.7729 55.5517 60.3096C55.3252 60.1855 54.8031 59.9216 54.4325 59.662C54.2947 59.5713 54.1632 59.4716 54.0387 59.3634C53.6099 59.0573 53.2326 58.6848 52.9209 58.2601C52.7608 58.0752 52.6282 57.8683 52.5272 57.6456C51.8233 56.3851 52.1825 55.5947 52.1017 52.8254C52.1017 53.3923 52.243 52.8067 52.5272 53.3418C52.9003 54.0222 53.4164 54.6137 54.0401 55.0754C54.1656 55.1851 54.2911 55.2803 54.4325 55.374C54.6055 55.4851 54.7786 55.5947 54.969 55.7057C55.1565 55.8153 55.3469 55.9105 55.5517 56.0202C55.6772 56.0836 55.8041 56.1456 55.9454 56.1932C56.3075 56.3663 56.6853 56.5091 57.0791 56.6346C57.206 56.6822 57.3474 56.7139 57.4743 56.7456C58.0873 56.9331 58.8502 57.0918 58.9858 57.1062C59.3334 57.1653 60.1613 57.2966 60.5147 57.2966C64.4954 57.6428 68.1531 56.4024 69.6358 55.1072C70.2704 54.6254 70.7594 54.112 71.1488 53.3894C71.4315 52.8543 71.5743 53.4399 71.5743 52.8875Z" fill="#4AF9B0"/>
<path d="M68.694 48.8678C72.5074 51.0687 72.5348 54.6428 68.7473 56.8437C64.9512 59.0505 58.781 59.0447 54.969 56.8437C51.157 54.6428 51.1368 51.0745 54.9315 48.8678C58.7204 46.6668 64.882 46.6668 68.694 48.8678Z" fill="#7AFEC7"/>
<path d="M67.2753 50.0576C70.2983 51.6023 70.32 54.1105 67.3171 55.6538C64.307 57.1999 59.4133 57.197 56.3902 55.6538C53.3671 54.1105 53.3512 51.6066 56.3613 50.0576C59.3657 48.5143 64.2508 48.5143 67.2753 50.0576Z" fill="#41EFA6"/>
<path d="M71.149 54.5259V57.6614C71.0382 57.8737 70.9063 58.0743 70.7552 58.26V55.1403C70.9124 54.9355 71.0379 54.7307 71.149 54.5259ZM69.636 56.2422V59.3792C69.5152 59.4873 69.3832 59.5821 69.2422 59.6619V56.5278C69.3836 56.4485 69.5105 56.3533 69.636 56.2422ZM68.1072 57.1884V60.3239C67.9817 60.3874 67.8562 60.4494 67.7134 60.5129V57.3614C67.8562 57.2994 67.9802 57.2518 68.1072 57.1884ZM66.5956 57.7869V60.9384C66.4701 60.9701 66.3432 61.0177 66.2019 61.048V57.898C66.3432 57.8663 66.4701 57.8345 66.5956 57.7869ZM65.0668 58.1807V61.3321C64.9413 61.3638 64.7999 61.3797 64.673 61.4114V58.26C64.7999 58.2283 64.9413 58.2124 65.0668 58.1807ZM63.5552 58.4014V61.5528C63.4283 61.5672 63.287 61.5845 63.1615 61.5845V58.4331C63.287 58.4331 63.4283 58.4187 63.5552 58.4014ZM62.0264 58.4965V61.6465H61.6326V58.4807C61.7596 58.4951 61.9009 58.4965 62.0264 58.4965ZM60.5148 58.4331V61.5845C60.3879 61.5845 60.2466 61.5687 60.1211 61.5528V58.4014C60.2466 58.4172 60.3721 58.4331 60.5148 58.4331ZM58.986 58.2456V61.3956C58.8533 61.3767 58.7219 61.3503 58.5923 61.3163V58.1648C58.7192 58.1965 58.8447 58.2297 58.986 58.2456ZM57.4745 57.8821V61.0321C57.3403 61.005 57.2082 60.9684 57.0793 60.9225V57.7711C57.2062 57.8187 57.3475 57.8504 57.4745 57.8821ZM55.9456 57.3312V60.4812C55.8103 60.4331 55.6787 60.3752 55.5519 60.3081V57.1566C55.6773 57.2201 55.8043 57.285 55.9456 57.3312ZM54.4326 56.5119V59.6619C54.2949 59.5713 54.1633 59.4715 54.0389 59.3634V56.2119C54.1658 56.323 54.2913 56.4167 54.4326 56.5119ZM52.9211 55.0927V58.26C52.761 58.0752 52.6284 57.8682 52.5273 57.6456V54.4783C52.637 54.6831 52.7639 54.8879 52.9211 55.0927Z" fill="#39D896"/>
<path d="M65.3615 51.2073L66.1403 50.7559L65.549 50.4141L64.76 50.8713L64.6735 50.8323C64.0902 50.5666 63.4568 50.4284 62.8158 50.427H62.8014C62.1725 50.427 61.61 50.5684 61.1297 50.8453C60.6855 51.1049 60.4677 51.3645 60.485 51.617C60.5067 51.8982 60.7374 52.2559 61.1745 52.6843L61.349 52.8544L59.6658 53.8323C59.6196 53.766 59.1956 53.4429 59.0471 52.5977L57.5586 52.6814C57.7605 53.7198 58.6461 54.2463 58.7586 54.3602L58.1413 54.7179L58.7326 55.0597L59.3543 54.6992C59.4495 54.7309 60.1735 55.165 61.3634 55.1751C61.9966 55.1838 62.585 55.0395 63.0711 54.7569C63.8514 54.304 64.0144 53.8525 62.9961 52.8544L62.8216 52.6843L64.4557 51.7338C64.5091 51.8001 64.8567 52.0713 65.0759 52.6944L66.4966 52.5458C66.3025 52.0808 65.9866 51.6767 65.5822 51.3761L65.3615 51.2073ZM61.1067 54.4424C60.7389 54.4424 60.4634 54.3155 60.1547 54.2319L61.7802 53.2871C61.835 53.3823 62.0932 53.6448 62.037 53.916C62.0096 54.0559 61.4644 54.4424 61.1067 54.4424ZM62.386 52.2501C62.3384 52.1492 62.1365 51.9343 62.2086 51.6559C62.2461 51.5117 62.3499 51.3891 62.5172 51.2924C62.8014 51.1251 63.149 51.1006 63.5485 51.2102L63.9725 51.3299L62.386 52.2501Z" fill="#7AFEC7"/>
<path d="M71.5743 48.8691C71.4704 51.6485 71.795 52.3884 71.1488 53.6432C70.8315 54.2302 70.3195 54.8417 69.6358 55.3595C69.3719 55.5903 68.8411 55.909 68.7387 55.9739C68.4416 56.134 68.0248 56.3561 67.7147 56.4932C66.8652 56.8642 65.977 57.1395 65.0666 57.3138C64.5679 57.4192 64.063 57.4929 63.555 57.5345C63.3675 57.5576 62.632 57.6283 62.0262 57.6283C61.6339 57.6182 61.5863 57.6586 60.5147 57.5662C60.1815 57.5662 59.3118 57.4307 58.9858 57.3773C58.4756 57.2845 57.9709 57.1631 57.4743 57.0138C56.7675 57.0099 56.0855 56.7531 55.5517 56.2898C55.3469 56.1787 55.1579 56.085 54.969 55.9739C54.6393 55.7943 54.3278 55.5832 54.0387 55.3436C53.2584 54.7783 52.693 54.0167 52.5272 53.6273C51.8233 52.3667 52.1825 51.5749 52.1017 48.8057C52.1017 49.3739 52.243 48.7884 52.5272 49.3235C52.8993 50.0158 53.4041 50.5739 54.0387 51.0571C54.3142 51.298 54.6488 51.4999 54.969 51.6859C55.1248 51.7783 55.6757 52.0855 55.9454 52.1763C57.0791 52.7172 58.9339 53.147 60.1209 53.2465C60.2464 53.261 60.3719 53.2783 60.5147 53.2783C63.3849 53.5278 66.9618 52.9667 69.2421 51.3715C69.3834 51.2922 69.5103 51.1985 69.6358 51.0874C70.093 50.7412 70.4709 50.3792 70.755 49.9855C70.9123 49.7807 71.0377 49.5759 71.1488 49.371C71.4315 48.8345 71.5743 49.4201 71.5743 48.8691Z" fill="#4AF9B0"/>
<path d="M68.694 44.8495C72.5074 47.0504 72.5348 50.6244 68.7473 52.8254C64.9512 55.0321 58.781 55.0264 54.969 52.8254C51.157 50.6244 51.1368 47.0562 54.9315 44.8495C58.7204 42.6485 64.882 42.6485 68.694 44.8495Z" fill="#7AFEC7"/>
<path d="M67.2753 46.0408C70.2983 47.584 70.32 50.0908 67.3171 51.634C64.307 53.1816 59.4133 53.1773 56.3902 51.634C53.3671 50.0908 53.3512 47.5869 56.3613 46.0408C59.3657 44.4975 64.2508 44.4975 67.2753 46.0408Z" fill="#41EFA6"/>
<path d="M71.149 50.5078V53.6434C71.0382 53.8557 70.9063 54.0562 70.7552 54.2419V51.1222C70.9124 50.9174 71.0379 50.7126 71.149 50.5078ZM69.636 52.2241V55.3597C69.5153 55.4683 69.3833 55.5635 69.2422 55.6439V52.5083C69.3836 52.4304 69.5105 52.3338 69.636 52.2241ZM68.1072 53.1703V56.3059C67.9817 56.3679 67.8562 56.4314 67.7134 56.4934V53.3434C67.8562 53.2814 67.9802 53.2338 68.1072 53.1703ZM66.5956 53.7689V56.9203C66.4701 56.952 66.3432 56.9982 66.2019 57.0299V53.8799C66.3432 53.8482 66.4701 53.8165 66.5956 53.7689ZM65.0668 54.1626V57.314C64.9413 57.3458 64.7999 57.3616 64.673 57.3919V54.2419C64.7999 54.2102 64.9413 54.1943 65.0668 54.1626ZM63.5552 54.3833V57.5347C63.4283 57.5491 63.287 57.5665 63.1615 57.5665V54.4136C63.287 54.4136 63.4283 54.4006 63.5552 54.3833ZM62.0264 54.4785V57.6285H61.6326V54.4626C61.7596 54.477 61.9009 54.4785 62.0264 54.4785ZM60.5148 54.415V57.5665C60.3879 57.5665 60.2466 57.5506 60.1211 57.5347V54.3833C60.2466 54.3991 60.3721 54.415 60.5148 54.415ZM58.986 54.2261V57.3775C58.8533 57.3587 58.7219 57.3322 58.5923 57.2982V54.1467C58.7192 54.1785 58.8447 54.2102 58.986 54.2261ZM57.4745 53.8641V57.014C57.3403 56.9869 57.2082 56.9503 57.0793 56.9044V53.753C57.2062 53.8006 57.3475 53.8323 57.4745 53.8641ZM55.9456 53.3116V56.4631C55.8103 56.415 55.6787 56.3572 55.5519 56.29V53.1386C55.6773 53.202 55.8043 53.2655 55.9456 53.3116ZM54.4326 52.4924V55.6439C54.2948 55.5528 54.1633 55.4525 54.0389 55.3439V52.1939C54.1658 52.3035 54.2913 52.3987 54.4326 52.4924ZM52.9211 51.0746V54.2419C52.761 54.0571 52.6284 53.8502 52.5273 53.6275V50.4602C52.637 50.665 52.7639 50.8698 52.9211 51.0746Z" fill="#39D896"/>
<path d="M65.3615 47.1876L66.1403 46.7376L65.549 46.3958L64.76 46.853L64.6735 46.814C64.0902 46.5483 63.4568 46.4101 62.8158 46.4087H62.8014C62.1725 46.4087 61.61 46.5501 61.1297 46.827C60.6855 47.0866 60.4677 47.3462 60.485 47.5986C60.5067 47.8784 60.7374 48.2376 61.1745 48.6659L61.349 48.8361L59.6658 49.814L59.5648 49.7044C59.3023 49.4232 59.1293 49.0438 59.0471 48.5794L57.5586 48.6631C57.6697 49.2328 58.0014 49.7405 58.5451 50.1717L58.7586 50.3419L58.1413 50.6996L58.7326 51.0414L59.3543 50.6808L59.4408 50.7198C60.0653 51.0039 60.71 51.151 61.3634 51.1568C61.9966 51.1655 62.585 51.0212 63.0711 50.7385C63.5182 50.4789 63.7346 50.2135 63.7115 49.9482C63.6855 49.651 63.4447 49.276 62.9961 48.8376L62.8216 48.6659L64.4557 47.7155L64.5567 47.8193C64.7831 48.0501 64.9562 48.3385 65.0759 48.676L66.4966 48.5275C66.3025 48.0625 65.9866 47.6584 65.5822 47.3578L65.3615 47.1876ZM61.7341 50.2626C61.5434 50.3722 61.3266 50.4285 61.1067 50.4256C60.9379 50.4256 60.7576 50.3967 60.5644 50.339L60.1547 50.215L61.7802 49.2703L61.8783 49.4073C62.0153 49.5948 62.0658 49.7563 62.037 49.8991C62.0096 50.0376 61.9086 50.1616 61.7341 50.2626ZM62.386 48.2333L62.2908 48.0746C62.2483 48.0114 62.2191 47.9401 62.205 47.8653C62.1909 47.7904 62.1921 47.7134 62.2086 47.639C62.2461 47.4948 62.3499 47.3722 62.5172 47.2756C62.8014 47.1083 63.149 47.0837 63.5485 47.1934L63.9725 47.3116L62.386 48.2333Z" fill="#7AFEC7"/>
<path d="M50.6291 63.8174L50.6132 66.9688C50.6132 67.5198 50.4704 68.0707 50.2036 68.5914C50.0929 68.8037 49.9609 69.0042 49.8099 69.19C49.494 69.6158 49.1168 69.9925 48.6906 70.3078C48.5699 70.4163 48.4379 70.5116 48.2969 70.5919C48.1382 70.7174 47.9651 70.8126 47.7921 70.9236C47.5873 71.0332 47.3825 71.1428 47.1632 71.2539C47.0363 71.3159 46.9108 71.3794 46.768 71.4414C46.4074 71.6001 46.044 71.7414 45.6502 71.8683C45.5248 71.9001 45.3978 71.9462 45.2565 71.9779C44.883 72.0912 44.5042 72.186 44.1214 72.2621C43.9959 72.2938 43.8546 72.3097 43.7276 72.34C43.3572 72.403 42.9843 72.4506 42.6099 72.4828C42.4829 72.4972 42.3416 72.5145 42.2161 72.5145C41.8394 72.5587 41.4603 72.5795 41.081 72.5765H40.6873C40.3094 72.5765 39.9315 72.5448 39.5695 72.5145C39.4425 72.5145 39.3012 72.4986 39.1757 72.4828C38.2789 72.3952 37.3925 72.2214 36.5291 71.9635C35.8223 71.9597 35.1402 71.7029 34.6065 71.2395C34.4017 71.127 34.2127 71.0332 34.0238 70.9222C33.8407 70.8192 33.6617 70.709 33.4873 70.5919C33.3495 70.5008 33.2179 70.4006 33.0935 70.2919C32.6648 69.9862 32.2875 69.6142 31.9757 69.19C31.8156 69.0051 31.683 68.7982 31.582 68.5755C31.2936 68.0718 31.1415 67.5016 31.1406 66.9212L31.155 63.7539C31.155 64.3222 31.2993 63.7366 31.582 64.2717C31.9541 64.964 32.4589 65.5222 33.0935 66.0053C33.369 66.2462 33.7036 66.4481 34.0238 66.6342C34.1796 66.7265 34.7305 67.0337 35.0002 67.1246C35.4373 67.3323 36.0156 67.5457 36.5291 67.6741C39.5651 68.5986 43.4897 68.3895 45.6502 67.5803C46.1651 67.4086 46.6702 67.2088 47.1632 66.9818C47.7935 66.6659 48.0012 66.526 48.2969 66.3198C48.7296 66.0789 49.6743 65.3015 50.2036 64.3193C50.4863 63.7828 50.6291 64.3683 50.6291 63.8174Z" fill="#4AF9B0"/>
<path d="M47.7501 59.7977C51.5621 61.9987 51.5895 65.5727 47.802 67.7737C44.0059 69.9804 37.8357 69.9746 34.0237 67.7737C30.2116 65.5727 30.1914 62.0044 33.9862 59.7977C37.7751 57.5967 43.9381 57.5967 47.7501 59.7977Z" fill="#7AFEC7"/>
<path d="M46.33 60.989C49.353 62.5323 49.3747 65.039 46.3718 66.5823C43.3617 68.1299 38.4679 68.1255 35.4449 66.5823C32.4218 65.039 32.4059 62.5351 35.416 60.989C38.4203 59.4457 43.3054 59.4457 46.33 60.989Z" fill="#41EFA6"/>
<path d="M50.2022 65.4558V68.5914C50.0919 68.8036 49.9605 69.0041 49.8099 69.1899V66.0702C49.9671 65.8654 50.0912 65.6606 50.2022 65.4558ZM48.6907 67.1722V70.3077C48.57 70.4163 48.438 70.5115 48.2969 70.5919V67.4563C48.4383 67.3784 48.5652 67.2818 48.6907 67.1722ZM47.1618 68.1183V71.2539C47.0364 71.3159 46.9109 71.3794 46.7681 71.4414V68.2914C46.9109 68.2294 47.0349 68.1818 47.1618 68.1183ZM45.6503 68.7169V71.8683C45.5248 71.9 45.3979 71.9462 45.2566 71.9779V68.8279C45.3979 68.7962 45.5248 68.7645 45.6503 68.7169ZM44.1215 69.1106V72.2621C43.996 72.2938 43.8546 72.3096 43.7277 72.3399V69.1899C43.8546 69.1582 43.996 69.1423 44.1215 69.1106ZM42.6099 69.3313V72.4827C42.483 72.4971 42.3416 72.5145 42.2162 72.5145V69.363C42.3416 69.363 42.483 69.3486 42.6099 69.3313ZM41.0811 69.4265V72.5765H40.6873V69.4106C40.8142 69.425 40.9556 69.425 41.0811 69.425V69.4265ZM39.5695 69.363V72.5145C39.4426 72.5145 39.3013 72.4986 39.1758 72.4827V69.3313C39.3013 69.3471 39.4267 69.363 39.5695 69.363ZM38.0407 69.1741V72.3255C37.908 72.3067 37.7765 72.2802 37.6469 72.2462V69.0947C37.7724 69.1265 37.8993 69.1582 38.0407 69.1741ZM36.5291 68.8121V71.9621C36.395 71.9349 36.2629 71.8983 36.134 71.8524V68.701C36.2609 68.7486 36.4022 68.7803 36.5291 68.8121ZM35.0003 68.2596V71.4111C34.865 71.363 34.7334 71.3052 34.6066 71.238V68.0866C34.732 68.15 34.859 68.2135 35.0003 68.2596ZM33.4873 67.4404V70.5919C33.3495 70.5007 33.218 70.4005 33.0936 70.2919V67.1419C33.2205 67.2515 33.346 67.3467 33.4873 67.4404ZM31.9758 66.0226V69.1899C31.8157 69.0051 31.6831 68.7982 31.582 68.5755V65.4082C31.6916 65.613 31.8186 65.8178 31.9758 66.0226Z" fill="#39D896"/>
<path d="M44.4157 62.137L45.1945 61.6856L44.6032 61.3438L43.8142 61.801C43.7205 61.7692 43.0469 61.3596 41.87 61.3567H41.8556C41.2267 61.3567 40.6642 61.4981 40.1839 61.775C39.7397 62.0346 39.5219 62.2942 39.5392 62.5466C39.5782 63.0716 40.3209 63.6904 40.4032 63.7841L38.72 64.762C38.6738 64.6942 38.2498 64.3726 38.1012 63.5274L36.6113 63.6111C36.8133 64.6495 37.7003 65.176 37.8128 65.2899L37.1955 65.6476L37.7868 65.9894L38.4084 65.6288C38.5036 65.6606 39.2277 66.0947 40.4161 66.1048C41.0507 66.1135 41.6392 65.9692 42.1253 65.6865C42.5724 65.4269 42.7887 65.1615 42.7657 64.8962C42.7397 64.599 42.4988 64.224 42.0488 63.7856L41.8758 63.6139L43.5099 62.6635C43.5632 62.7298 43.9108 63.001 44.1286 63.624L45.5508 63.4755C45.3567 63.0105 45.0408 62.6064 44.6363 62.3058L44.4157 62.137ZM40.1608 65.3736C39.7931 65.3736 39.5176 65.2452 39.2089 65.163L40.8344 64.2183C40.8892 64.312 41.1474 64.576 41.0911 64.8471C41.0637 64.9856 40.5185 65.3736 40.1608 65.3736ZM41.4402 63.1812L41.345 63.0226C41.3025 62.9593 41.2733 62.8881 41.2592 62.8132C41.245 62.7384 41.2463 62.6614 41.2628 62.587C41.3003 62.4428 41.4041 62.3202 41.5714 62.2236C41.8556 62.0562 42.2032 62.0317 42.6027 62.1413L43.0253 62.2596L41.4387 63.1827L41.4402 63.1812Z" fill="#7AFEC7"/>
<path d="M50.629 59.7991C50.5251 62.5784 50.8496 63.3183 50.2035 64.5731C49.8862 65.1601 49.3742 65.7702 48.6905 66.2894C48.4266 66.5202 47.8944 66.839 47.792 66.9039C47.4963 67.064 47.0794 67.2861 46.7679 67.4231C46.3136 67.6221 45.6645 67.8688 45.2564 67.9596C44.1602 68.2928 42.7626 68.4947 42.216 68.4947C41.554 68.5784 40.9684 68.5553 40.6871 68.5582C40.2501 68.5582 39.3242 68.4832 39.1756 68.4644C38.1097 68.375 36.5795 68.0015 36.1338 67.8342C35.6114 67.6639 35.1011 67.4586 34.6064 67.2197C34.3799 67.0971 33.8578 66.8332 33.4871 66.5736C32.9477 66.213 32.3564 65.701 31.9756 65.1717C31.8155 64.9868 31.6829 64.7799 31.5819 64.5572C30.878 63.2967 31.2371 62.5048 31.1564 59.7356C31.1564 60.3024 31.2977 59.7183 31.5819 60.2534C31.6915 60.4582 31.8184 60.663 31.9756 60.8678C32.7444 61.9351 33.865 62.5322 34.6064 62.9303C34.8761 63.0659 35.5093 63.3457 36.1352 63.5462C36.2073 63.575 37.028 63.8116 37.6468 63.9399C37.9237 64.0092 38.7256 64.139 39.1756 64.1765C39.4439 64.2096 40.2732 64.2717 40.6871 64.2543C40.8891 64.2803 41.6045 64.2832 42.216 64.2082C42.3415 64.2082 42.4828 64.1923 42.6097 64.1765C43.7304 64.0827 45.1482 63.7495 45.6501 63.562C46.8112 63.1899 47.6679 62.7399 48.2968 62.3015C48.604 62.1298 49.3972 61.4866 49.8097 60.9154C49.967 60.7106 50.0924 60.5058 50.2035 60.301C50.4862 59.7644 50.629 60.35 50.629 59.7991Z" fill="#4AF9B0"/>
<path d="M47.7501 55.7794C51.5621 57.9803 51.5895 61.5544 47.802 63.7553C44.0059 65.9621 37.8357 65.9563 34.0237 63.7553C30.2116 61.5544 30.1914 57.9847 33.9862 55.7794C37.7751 53.5784 43.9381 53.5784 47.7501 55.7794Z" fill="#7AFEC7"/>
<path d="M46.33 56.9707C49.353 58.514 49.3747 61.0207 46.3718 62.564C43.3617 64.1115 38.4679 64.1072 35.4449 62.564C32.4218 61.0207 32.4059 58.5168 35.416 56.9707C38.4203 55.4274 43.3054 55.4274 46.33 56.9707Z" fill="#41EFA6"/>
<path d="M50.2022 61.4375V64.5731C50.0919 64.7853 49.9605 64.9858 49.8099 65.1716V62.0519C49.9671 61.8471 50.0912 61.6423 50.2022 61.4375ZM48.6907 63.1538V66.2894C48.57 66.398 48.438 66.4932 48.2969 66.5735V63.438C48.4383 63.3601 48.5652 63.2649 48.6907 63.1553V63.1538ZM47.1618 64.1V67.2356C47.0364 67.2976 46.9109 67.3611 46.7681 67.4231V64.2731C46.9109 64.2096 47.0349 64.1635 47.1618 64.1ZM45.6503 64.6986V67.85C45.5248 67.8803 45.3979 67.9279 45.2566 67.9596V64.8096C45.3979 64.7779 45.5248 64.7461 45.6503 64.6986ZM44.1215 65.0923V68.2437C43.996 68.274 43.8546 68.2899 43.7277 68.3216V65.1731C43.8546 65.1413 43.996 65.124 44.1215 65.0923ZM42.6099 65.313V68.4644C42.483 68.4788 42.3416 68.4947 42.2162 68.4947V65.3461C42.3416 65.3461 42.483 65.3288 42.6099 65.313ZM41.0811 65.4082V68.5582H40.6873V65.3923C40.8142 65.4067 40.9556 65.4082 41.0811 65.4082ZM39.5695 65.3447V68.4947C39.4426 68.4947 39.3013 68.4803 39.1758 68.4644V65.313C39.3013 65.3274 39.4267 65.3447 39.5695 65.3447ZM38.0407 65.1558V68.3058C37.908 68.2874 37.7766 68.2614 37.6469 68.2279V65.0764C37.7724 65.1082 37.8993 65.1399 38.0407 65.1558ZM36.5291 64.7937V67.9437C36.395 67.9166 36.2629 67.88 36.134 67.8341V64.6827C36.2609 64.7303 36.4022 64.762 36.5291 64.7937ZM35.0003 64.2413V67.3928C34.865 67.3447 34.7334 67.2869 34.6066 67.2197V64.0683C34.732 64.1317 34.859 64.1937 35.0003 64.2413ZM33.4873 63.4221V66.5735C33.3495 66.4824 33.218 66.3822 33.0936 66.2735V63.125C33.2205 63.2346 33.346 63.3284 33.4873 63.4221ZM31.9758 62.0043V65.1716C31.8157 64.9868 31.6831 64.7799 31.582 64.5572V61.3899C31.6916 61.5947 31.8186 61.7995 31.9758 62.0043Z" fill="#39D896"/>
<path d="M44.4162 58.1187L45.195 57.6672L44.6037 57.324L43.8147 57.7826L43.7282 57.7422C43.1447 57.477 42.5114 57.3393 41.8705 57.3384H41.8561C41.2272 57.3384 40.6647 57.4797 40.1844 57.7567C39.7402 58.0163 39.5224 58.2759 39.5397 58.5283C39.5614 58.8081 39.7921 59.1672 40.2291 59.5956L40.4022 59.7658L38.7205 60.7437C38.6743 60.6759 38.2503 60.3543 38.1017 59.5091L36.6133 59.5927C36.8152 60.6312 37.7008 61.1576 37.8133 61.2716L37.196 61.6293L37.7873 61.9711L38.409 61.6105C38.5041 61.6422 39.2282 62.0764 40.4166 62.0865C41.0513 62.0937 41.6397 61.9509 42.1258 61.6682C42.5729 61.4086 42.7892 61.1432 42.7662 60.8778C42.7402 60.5793 42.4993 60.2057 42.0493 59.7672L41.8763 59.5942L43.5104 58.6451L43.6114 58.749C43.8378 58.9797 44.0109 59.2668 44.1291 59.6057L45.5513 59.4571C45.3574 58.9916 45.0415 58.587 44.6368 58.286L44.4162 58.1187ZM40.7888 61.1922C40.5979 61.3014 40.3812 61.3572 40.1614 61.3538C39.9926 61.3538 39.8123 61.3249 39.6191 61.2672L39.2094 61.1447L40.8349 60.1999L40.933 60.337C41.0686 60.5245 41.1205 60.686 41.0916 60.8288C41.0642 60.9672 40.9633 61.0913 40.7888 61.1922ZM41.4407 59.1629L41.3455 59.0043C41.303 58.941 41.2738 58.8698 41.2597 58.7949C41.2455 58.72 41.2468 58.6431 41.2633 58.5687C41.3008 58.4245 41.4046 58.3019 41.5719 58.2052C41.8561 58.0379 42.2037 58.0134 42.6032 58.123L43.0258 58.2413L41.4407 59.1629Z" fill="#7AFEC7"/>
<path d="M50.6286 56.0232L50.6127 59.1746C50.6127 60.0112 50.2694 60.8434 49.8093 61.3958C49.2728 62.1386 48.569 62.6347 47.7916 63.128C47.0718 63.5174 46.1185 63.9919 45.256 64.1838C44.542 64.4001 43.5973 64.6049 42.6093 64.6886C42.4218 64.7116 41.6863 64.7823 41.0805 64.7823C41.0444 64.7809 40.0622 64.7982 39.1752 64.6886C38.6616 64.6385 38.1511 64.5595 37.6464 64.452C37.1369 64.3416 36.6321 64.2102 36.1334 64.0583C35.611 63.888 35.1007 63.6827 34.606 63.4439C34.3795 63.3213 33.8574 63.0573 33.4867 62.7977C32.9473 62.4371 32.356 61.9251 31.9752 61.3958C31.5223 60.852 31.1387 59.9881 31.1387 59.127L31.156 55.9597C31.156 56.5265 31.2973 55.941 31.5815 56.4775C32.894 58.9193 36.4579 60.1741 39.1752 60.4006C39.3007 60.415 39.4262 60.4309 39.569 60.4309C39.9295 60.4626 40.3089 60.4943 40.6868 60.4785C40.8137 60.4943 40.955 60.4943 41.0805 60.4943C41.4584 60.4943 41.8377 60.4799 42.2156 60.4309C42.3411 60.4309 42.4824 60.4164 42.6093 60.4006C43.1176 60.3611 43.6226 60.2873 44.1209 60.1799C44.7252 60.0588 45.5574 59.8193 45.6497 59.7862C46.1646 59.6144 46.6697 59.4146 47.1627 59.1876C47.5596 59.0006 47.9389 58.7785 48.2964 58.5241C48.4377 58.4463 48.5646 58.3511 48.6901 58.2414C49.1473 57.8953 49.5252 57.5333 49.8093 57.1395C49.9666 56.9347 50.092 56.7299 50.2031 56.5251C50.4858 55.9886 50.6286 56.5741 50.6286 56.0232Z" fill="#4AF9B0"/>
<path d="M47.7501 52.0034C51.5621 54.2043 51.5895 57.7784 47.802 59.9793C44.0059 62.1846 37.8357 62.1803 34.0237 59.9793C30.2116 57.7784 30.1914 54.2087 33.9862 52.0034C37.7751 49.801 43.9381 49.801 47.7501 52.0034Z" fill="#7AFEC7"/>
<path d="M46.33 53.1948C49.353 54.7381 49.3747 57.2448 46.3718 58.7881C43.3617 60.3357 38.4679 60.3313 35.4449 58.7881C32.4218 57.2448 32.4059 54.741 35.416 53.1948C38.4203 51.6515 43.3054 51.6515 46.33 53.1948Z" fill="#41EFA6"/>
<path d="M50.2022 57.6616V60.7972C50.0919 61.0094 49.9605 61.2099 49.8099 61.3957V58.276C49.9671 58.0712 50.0912 57.8664 50.2022 57.6616ZM48.6907 59.378V62.5135C48.57 62.6221 48.438 62.7173 48.2969 62.7977V59.6621C48.4383 59.5828 48.5652 59.489 48.6907 59.378ZM47.1618 60.3241V63.4597C47.0364 63.5217 46.9109 63.5852 46.7681 63.6472V60.4972C46.9109 60.4337 47.0349 60.3876 47.1618 60.3241ZM45.6503 60.9227V64.0741C45.5248 64.1044 45.3979 64.152 45.2566 64.1837V61.0323C45.3979 61.002 45.5248 60.9703 45.6503 60.9227ZM44.1215 61.3164V64.4679C43.996 64.4982 43.8546 64.514 43.7277 64.5457V61.3957C43.8546 61.364 43.996 61.3482 44.1215 61.3164ZM42.6099 61.5371V64.6885C42.483 64.703 42.3416 64.7188 42.2162 64.7188V61.5688C42.3416 61.5688 42.483 61.553 42.6099 61.5371ZM41.0811 61.6323V64.7823H40.6873V61.6164C40.8142 61.6308 40.9556 61.6323 41.0811 61.6323ZM39.5695 61.5688V64.7188C39.4426 64.7188 39.3013 64.7044 39.1758 64.6885V61.5371C39.3013 61.5515 39.4267 61.5688 39.5695 61.5688ZM38.0407 61.3799V64.5299C37.908 64.5115 37.7766 64.4855 37.6469 64.452V61.3006C37.7724 61.3323 37.8993 61.364 38.0407 61.3799ZM36.5291 61.0164V64.1679C36.395 64.1407 36.2629 64.1041 36.134 64.0582V60.9068C36.2609 60.9544 36.4022 60.9861 36.5291 61.0164ZM35.0003 60.4655V63.6169C34.865 63.5688 34.7334 63.511 34.6066 63.4438V60.2924C34.732 60.3558 34.859 60.4179 35.0003 60.4655ZM33.4873 59.6462V62.7977C33.3495 62.7066 33.218 62.6063 33.0936 62.4977V59.3477C33.2205 59.4573 33.346 59.5525 33.4873 59.6462ZM31.9758 58.2284V61.3957C31.8157 61.2109 31.6831 61.004 31.582 60.7813V57.614C31.6916 57.8188 31.8186 58.0236 31.9758 58.2284Z" fill="#39D896"/>
<path d="M44.4162 54.3414L45.195 53.8899L44.6037 53.5481L43.8147 54.0068C43.721 53.975 43.0474 53.5654 41.8705 53.5611H41.8561C41.2272 53.5611 40.6647 53.7039 40.1844 53.9808C39.3912 54.4423 39.2541 54.8664 40.2277 55.8183L40.4037 55.9899L38.7205 56.9678C38.6743 56.9 38.2503 56.5784 38.1017 55.7317L36.6133 55.8168C36.8152 56.8553 37.7008 57.3817 37.8133 57.4957L37.196 57.8534L37.7873 58.1952L38.409 57.8346C38.5041 57.8664 39.2282 58.3005 40.4166 58.3106C41.0513 58.3178 41.6397 58.175 42.1258 57.8923C42.5729 57.6327 42.7892 57.3659 42.7662 57.1019C42.7402 56.8034 42.4993 56.4298 42.0493 55.9914L41.8763 55.8183L43.5104 54.8693C43.5638 54.9356 43.9114 55.2068 44.1291 55.8298L45.5513 55.6813C45.3574 55.2157 45.0415 54.8111 44.6368 54.5101L44.4162 54.3414ZM40.7888 57.4164C40.2306 57.7409 39.694 57.4986 39.2094 57.3688L40.8349 56.4241L40.933 56.5611C41.0686 56.7486 41.1205 56.9101 41.0916 57.0529C41.0642 57.1914 40.9633 57.3154 40.7888 57.4164ZM41.4407 55.387L41.3455 55.2284C41.303 55.1651 41.2738 55.0939 41.2597 55.019C41.2455 54.9442 41.2468 54.8672 41.2633 54.7928C41.3008 54.6486 41.4046 54.526 41.5719 54.4279C42.1416 54.0947 42.7748 54.4221 43.0258 54.4654L41.4407 55.387Z" fill="#7AFEC7"/>
<path d="M50.6291 52.0049C50.5252 54.7842 50.8498 55.5241 50.2036 56.7789C50.0928 56.9907 49.9609 57.1907 49.8099 57.376C48.3733 59.3707 45.0964 60.4626 42.6099 60.6688C42.4829 60.6847 42.3416 60.7005 42.2161 60.7005C41.8394 60.7453 41.4603 60.7665 41.081 60.764H40.6873C40.3094 60.764 39.9315 60.7323 39.5695 60.7005C39.1815 60.7005 37.7853 60.5318 36.5291 60.1496C35.1416 59.8409 32.9349 58.7102 31.9757 57.376C31.8156 57.1912 31.683 56.9843 31.582 56.7616C31.2939 56.2583 31.1418 55.6886 31.1406 55.1087L31.155 51.9414C31.155 52.5082 31.2993 51.9227 31.582 52.4592C31.6916 52.664 31.8185 52.8688 31.9757 53.0736C32.3911 53.6505 33.069 54.213 33.4873 54.4914C34.3066 55.0326 35.1974 55.4569 36.1339 55.752C36.2089 55.7794 37.0281 56.0159 37.6483 56.1457C38.1526 56.2532 38.6625 56.3322 39.1757 56.3823C39.3012 56.3967 39.4267 56.4126 39.5695 56.4126C39.93 56.4443 40.3094 56.476 40.6873 56.4602C40.8142 56.476 40.9555 56.476 41.081 56.476C41.4589 56.476 41.8382 56.4616 42.2161 56.4126C42.3416 56.4126 42.4829 56.3981 42.6099 56.3823C45.343 56.1529 48.8983 54.9299 50.2036 52.5053C50.4863 51.9703 50.6291 52.5558 50.6291 52.0049Z" fill="#4AF9B0"/>
<path d="M47.7501 47.9837C51.5621 50.1861 51.5895 53.7587 47.802 55.9597C44.0059 58.1664 37.8357 58.1621 34.0237 55.9597C30.2116 53.7587 30.1914 50.1905 33.9862 47.9837C37.7751 45.7828 43.9381 45.7828 47.7501 47.9837Z" fill="#7AFEC7"/>
<path d="M46.33 49.175C49.353 50.7183 49.3747 53.2265 46.3718 54.7712C43.3617 56.3173 38.4679 56.3144 35.4449 54.7712C32.4218 53.2265 32.4059 50.7226 35.416 49.175C38.4203 47.6318 43.3054 47.6318 46.33 49.175Z" fill="#41EFA6"/>
<path d="M50.2022 53.6433V56.7774C50.0919 56.9896 49.9605 57.1902 49.8099 57.376V54.2577C49.9671 54.0529 50.0912 53.8481 50.2022 53.6433ZM48.6907 55.3596V58.4952C48.57 58.6038 48.438 58.699 48.2969 58.7794V55.6438C48.4383 55.5645 48.5652 55.4707 48.6907 55.3596ZM47.1618 56.3058V59.4399C47.0364 59.5034 46.9109 59.5669 46.7681 59.6289V56.4789C46.9109 56.4154 47.0349 56.3678 47.1618 56.3058ZM45.6503 56.9044V60.0544C45.5248 60.0861 45.3979 60.1337 45.2566 60.1654V57.014C45.3979 56.9822 45.5248 56.952 45.6503 56.9044ZM44.1215 57.2981V60.4481C43.996 60.4798 43.8546 60.4957 43.7277 60.5274V57.376C43.8546 57.3457 43.996 57.3298 44.1215 57.2981ZM42.6099 57.5188V60.6688C42.483 60.6846 42.3416 60.7005 42.2162 60.7005V57.5505C42.3416 57.5505 42.483 57.5346 42.6099 57.5188ZM41.0811 57.6125V60.764H40.6873V57.5967C40.8142 57.6125 40.9556 57.6125 41.0811 57.6125ZM39.5695 57.5505V60.7005C39.4426 60.7005 39.3013 60.6861 39.1758 60.6688V57.5188C39.3013 57.5332 39.4267 57.5505 39.5695 57.5505ZM38.0407 57.3616V60.5116C37.908 60.4932 37.7766 60.4672 37.6469 60.4337V57.2822C37.7724 57.314 37.8993 57.3457 38.0407 57.3616ZM36.5291 56.9981V60.1495C36.395 60.1219 36.2629 60.0848 36.134 60.0385V56.8885C36.2609 56.9361 36.4022 56.9664 36.5291 56.9981ZM35.0003 56.4471V59.5986C34.865 59.5505 34.7334 59.4927 34.6066 59.4255V56.2741C34.732 56.3375 34.859 56.3996 35.0003 56.4471ZM33.4873 55.6279V58.7794C33.3495 58.6882 33.218 58.588 33.0936 58.4794V55.3294C33.2205 55.439 33.346 55.5342 33.4873 55.6279ZM31.9758 54.2101V57.376C31.8157 57.1912 31.6831 56.9842 31.582 56.7616V53.5957C31.6916 53.8005 31.8186 54.0053 31.9758 54.2101Z" fill="#39D896"/>
<path d="M44.4162 50.3231L45.195 49.8716L44.6037 49.5298L43.8147 49.9884C43.8003 49.987 41.8388 49.0048 40.1844 49.9625C39.3912 50.424 39.2541 50.8481 40.2277 51.8L40.4037 51.9702L38.7205 52.9481C38.6743 52.8817 38.2503 52.5586 38.1017 51.7134L36.6133 51.7985C36.8152 52.837 37.7008 53.362 37.8133 53.4759L37.196 53.8351L37.7873 54.1769L38.409 53.8149C38.4234 53.8163 40.4354 54.8548 42.1258 53.8726C42.5729 53.613 42.7892 53.3476 42.7662 53.0836C42.7171 52.5298 41.9585 51.8937 41.8763 51.8L43.5104 50.8509C43.5638 50.9173 43.9114 51.1884 44.1291 51.8115L45.5513 51.663C45.2051 50.812 44.5373 50.4356 44.4162 50.3231ZM40.1614 53.5596C39.7936 53.5596 39.5181 53.4327 39.2094 53.3505L40.8349 52.4057L40.933 52.5428C41.0686 52.7303 41.1205 52.8918 41.0916 53.0332C41.0253 53.3793 40.519 53.5596 40.1614 53.5596ZM41.4407 51.3673C41.3916 51.2663 41.1912 51.0529 41.2633 50.7731C41.37 50.3562 41.9931 50.1601 42.6032 50.3274L43.0258 50.4471L41.4392 51.3687L41.4407 51.3673Z" fill="#7AFEC7"/>
<path d="M50.6291 63.8174L50.6132 66.9688C50.6132 67.5198 50.4704 68.0707 50.2036 68.5914C50.0929 68.8037 49.9609 69.0042 49.8099 69.19C49.494 69.6158 49.1168 69.9925 48.6906 70.3078C48.5699 70.4163 48.4379 70.5116 48.2969 70.5919C48.1382 70.7174 47.9651 70.8126 47.7921 70.9236C47.5873 71.0332 47.3825 71.1428 47.1632 71.2539C47.0363 71.3159 46.9108 71.3794 46.768 71.4414C46.4074 71.6001 46.044 71.7414 45.6502 71.8683C45.5248 71.9001 45.3978 71.9462 45.2565 71.9779C44.883 72.0912 44.5042 72.186 44.1214 72.2621C43.9959 72.2938 43.8546 72.3097 43.7276 72.34C43.3572 72.403 42.9843 72.4506 42.6099 72.4828C42.4829 72.4972 42.3416 72.5145 42.2161 72.5145C41.8394 72.5587 41.4603 72.5795 41.081 72.5765H40.6873C40.3094 72.5765 39.9315 72.5448 39.5695 72.5145C39.4425 72.5145 39.3012 72.4986 39.1757 72.4828C38.2789 72.3952 37.3925 72.2214 36.5291 71.9635C35.8223 71.9597 35.1402 71.7029 34.6065 71.2395C34.4017 71.127 34.2127 71.0332 34.0238 70.9222C33.8407 70.8192 33.6617 70.709 33.4873 70.5919C33.3495 70.5008 33.2179 70.4006 33.0935 70.2919C32.6648 69.9862 32.2875 69.6142 31.9757 69.19C31.8156 69.0051 31.683 68.7982 31.582 68.5755C31.2936 68.0718 31.1415 67.5016 31.1406 66.9212L31.155 63.7539C31.155 64.3222 31.2993 63.7366 31.582 64.2717C31.9541 64.964 32.4589 65.5222 33.0935 66.0053C33.369 66.2462 33.7036 66.4481 34.0238 66.6342C34.1796 66.7265 34.7305 67.0337 35.0002 67.1246C35.4373 67.3323 36.0156 67.5457 36.5291 67.6741C39.5651 68.5986 43.4897 68.3895 45.6502 67.5803C46.1651 67.4086 46.6702 67.2088 47.1632 66.9818C47.7935 66.6659 48.0012 66.526 48.2969 66.3198C48.7296 66.0789 49.6743 65.3015 50.2036 64.3193C50.4863 63.7828 50.6291 64.3683 50.6291 63.8174Z" fill="#4AF9B0"/>
<path d="M47.7501 59.7977C51.5621 61.9987 51.5895 65.5727 47.802 67.7737C44.0059 69.9804 37.8357 69.9746 34.0237 67.7737C30.2116 65.5727 30.1914 62.0044 33.9862 59.7977C37.7751 57.5967 43.9381 57.5967 47.7501 59.7977Z" fill="#7AFEC7"/>
<path d="M46.33 60.989C49.353 62.5323 49.3747 65.039 46.3718 66.5823C43.3617 68.1299 38.4679 68.1255 35.4449 66.5823C32.4218 65.039 32.4059 62.5351 35.416 60.989C38.4203 59.4457 43.3054 59.4457 46.33 60.989Z" fill="#41EFA6"/>
<path d="M50.2022 65.4558V68.5914C50.0919 68.8036 49.9605 69.0041 49.8099 69.1899V66.0702C49.9671 65.8654 50.0912 65.6606 50.2022 65.4558ZM48.6907 67.1722V70.3077C48.57 70.4163 48.438 70.5115 48.2969 70.5919V67.4563C48.4383 67.3784 48.5652 67.2818 48.6907 67.1722ZM47.1618 68.1183V71.2539C47.0364 71.3159 46.9109 71.3794 46.7681 71.4414V68.2914C46.9109 68.2294 47.0349 68.1818 47.1618 68.1183ZM45.6503 68.7169V71.8683C45.5248 71.9 45.3979 71.9462 45.2566 71.9779V68.8279C45.3979 68.7962 45.5248 68.7645 45.6503 68.7169ZM44.1215 69.1106V72.2621C43.996 72.2938 43.8546 72.3096 43.7277 72.3399V69.1899C43.8546 69.1582 43.996 69.1423 44.1215 69.1106ZM42.6099 69.3313V72.4827C42.483 72.4971 42.3416 72.5145 42.2162 72.5145V69.363C42.3416 69.363 42.483 69.3486 42.6099 69.3313ZM41.0811 69.4265V72.5765H40.6873V69.4106C40.8142 69.425 40.9556 69.425 41.0811 69.425V69.4265ZM39.5695 69.363V72.5145C39.4426 72.5145 39.3013 72.4986 39.1758 72.4827V69.3313C39.3013 69.3471 39.4267 69.363 39.5695 69.363ZM38.0407 69.1741V72.3255C37.908 72.3067 37.7765 72.2802 37.6469 72.2462V69.0947C37.7724 69.1265 37.8993 69.1582 38.0407 69.1741ZM36.5291 68.8121V71.9621C36.395 71.9349 36.2629 71.8983 36.134 71.8524V68.701C36.2609 68.7486 36.4022 68.7803 36.5291 68.8121ZM35.0003 68.2596V71.4111C34.865 71.363 34.7334 71.3052 34.6066 71.238V68.0866C34.732 68.15 34.859 68.2135 35.0003 68.2596ZM33.4873 67.4404V70.5919C33.3495 70.5007 33.218 70.4005 33.0936 70.2919V67.1419C33.2205 67.2515 33.346 67.3467 33.4873 67.4404ZM31.9758 66.0226V69.1899C31.8157 69.0051 31.6831 68.7982 31.582 68.5755V65.4082C31.6916 65.613 31.8186 65.8178 31.9758 66.0226Z" fill="#39D896"/>
<path d="M44.4157 62.137L45.1945 61.6856L44.6032 61.3438L43.8142 61.801C43.7205 61.7692 43.0469 61.3596 41.87 61.3567H41.8556C41.2267 61.3567 40.6642 61.4981 40.1839 61.775C39.7397 62.0346 39.5219 62.2942 39.5392 62.5466C39.5782 63.0716 40.3209 63.6904 40.4032 63.7841L38.72 64.762C38.6738 64.6942 38.2498 64.3726 38.1012 63.5274L36.6113 63.6111C36.8133 64.6495 37.7003 65.176 37.8128 65.2899L37.1955 65.6476L37.7868 65.9894L38.4084 65.6288C38.5036 65.6606 39.2277 66.0947 40.4161 66.1048C41.0507 66.1135 41.6392 65.9692 42.1253 65.6865C42.5724 65.4269 42.7887 65.1615 42.7657 64.8962C42.7397 64.599 42.4988 64.224 42.0488 63.7856L41.8758 63.6139L43.5099 62.6635C43.5632 62.7298 43.9108 63.001 44.1286 63.624L45.5508 63.4755C45.3567 63.0105 45.0408 62.6064 44.6363 62.3058L44.4157 62.137ZM40.1608 65.3736C39.7931 65.3736 39.5176 65.2452 39.2089 65.163L40.8344 64.2183C40.8892 64.312 41.1474 64.576 41.0911 64.8471C41.0637 64.9856 40.5185 65.3736 40.1608 65.3736ZM41.4402 63.1812L41.345 63.0226C41.3025 62.9593 41.2733 62.8881 41.2592 62.8132C41.245 62.7384 41.2463 62.6614 41.2628 62.587C41.3003 62.4428 41.4041 62.3202 41.5714 62.2236C41.8556 62.0562 42.2032 62.0317 42.6027 62.1413L43.0253 62.2596L41.4387 63.1827L41.4402 63.1812Z" fill="#7AFEC7"/>
<path d="M50.629 59.7991C50.5251 62.5784 50.8496 63.3183 50.2035 64.5731C49.8862 65.1601 49.3742 65.7702 48.6905 66.2894C48.4266 66.5202 47.8944 66.839 47.792 66.9039C47.4963 67.064 47.0794 67.2861 46.7679 67.4231C46.3136 67.6221 45.6645 67.8688 45.2564 67.9596C44.1602 68.2928 42.7626 68.4947 42.216 68.4947C41.554 68.5784 40.9684 68.5553 40.6871 68.5582C40.2501 68.5582 39.3242 68.4832 39.1756 68.4644C38.1097 68.375 36.5795 68.0015 36.1338 67.8342C35.6114 67.6639 35.1011 67.4586 34.6064 67.2197C34.3799 67.0971 33.8578 66.8332 33.4871 66.5736C32.9477 66.213 32.3564 65.701 31.9756 65.1717C31.8155 64.9868 31.6829 64.7799 31.5819 64.5572C30.878 63.2967 31.2371 62.5048 31.1564 59.7356C31.1564 60.3024 31.2977 59.7183 31.5819 60.2534C31.6915 60.4582 31.8184 60.663 31.9756 60.8678C32.7444 61.9351 33.865 62.5322 34.6064 62.9303C34.8761 63.0659 35.5093 63.3457 36.1352 63.5462C36.2073 63.575 37.028 63.8116 37.6468 63.9399C37.9237 64.0092 38.7256 64.139 39.1756 64.1765C39.4439 64.2096 40.2732 64.2717 40.6871 64.2543C40.8891 64.2803 41.6045 64.2832 42.216 64.2082C42.3415 64.2082 42.4828 64.1923 42.6097 64.1765C43.7304 64.0827 45.1482 63.7495 45.6501 63.562C46.8112 63.1899 47.6679 62.7399 48.2968 62.3015C48.604 62.1298 49.3972 61.4866 49.8097 60.9154C49.967 60.7106 50.0924 60.5058 50.2035 60.301C50.4862 59.7644 50.629 60.35 50.629 59.7991Z" fill="#4AF9B0"/>
<path d="M47.7501 55.7794C51.5621 57.9803 51.5895 61.5544 47.802 63.7553C44.0059 65.9621 37.8357 65.9563 34.0237 63.7553C30.2116 61.5544 30.1914 57.9847 33.9862 55.7794C37.7751 53.5784 43.9381 53.5784 47.7501 55.7794Z" fill="#7AFEC7"/>
<path d="M46.33 56.9707C49.353 58.514 49.3747 61.0207 46.3718 62.564C43.3617 64.1115 38.4679 64.1072 35.4449 62.564C32.4218 61.0207 32.4059 58.5168 35.416 56.9707C38.4203 55.4274 43.3054 55.4274 46.33 56.9707Z" fill="#41EFA6"/>
<path d="M50.2022 61.4375V64.5731C50.0919 64.7853 49.9605 64.9858 49.8099 65.1716V62.0519C49.9671 61.8471 50.0912 61.6423 50.2022 61.4375ZM48.6907 63.1538V66.2894C48.57 66.398 48.438 66.4932 48.2969 66.5735V63.438C48.4383 63.3601 48.5652 63.2649 48.6907 63.1553V63.1538ZM47.1618 64.1V67.2356C47.0364 67.2976 46.9109 67.3611 46.7681 67.4231V64.2731C46.9109 64.2096 47.0349 64.1635 47.1618 64.1ZM45.6503 64.6986V67.85C45.5248 67.8803 45.3979 67.9279 45.2566 67.9596V64.8096C45.3979 64.7779 45.5248 64.7461 45.6503 64.6986ZM44.1215 65.0923V68.2437C43.996 68.274 43.8546 68.2899 43.7277 68.3216V65.1731C43.8546 65.1413 43.996 65.124 44.1215 65.0923ZM42.6099 65.313V68.4644C42.483 68.4788 42.3416 68.4947 42.2162 68.4947V65.3461C42.3416 65.3461 42.483 65.3288 42.6099 65.313ZM41.0811 65.4082V68.5582H40.6873V65.3923C40.8142 65.4067 40.9556 65.4082 41.0811 65.4082ZM39.5695 65.3447V68.4947C39.4426 68.4947 39.3013 68.4803 39.1758 68.4644V65.313C39.3013 65.3274 39.4267 65.3447 39.5695 65.3447ZM38.0407 65.1558V68.3058C37.908 68.2874 37.7766 68.2614 37.6469 68.2279V65.0764C37.7724 65.1082 37.8993 65.1399 38.0407 65.1558ZM36.5291 64.7937V67.9437C36.395 67.9166 36.2629 67.88 36.134 67.8341V64.6827C36.2609 64.7303 36.4022 64.762 36.5291 64.7937ZM35.0003 64.2413V67.3928C34.865 67.3447 34.7334 67.2869 34.6066 67.2197V64.0683C34.732 64.1317 34.859 64.1937 35.0003 64.2413ZM33.4873 63.4221V66.5735C33.3495 66.4824 33.218 66.3822 33.0936 66.2735V63.125C33.2205 63.2346 33.346 63.3284 33.4873 63.4221ZM31.9758 62.0043V65.1716C31.8157 64.9868 31.6831 64.7799 31.582 64.5572V61.3899C31.6916 61.5947 31.8186 61.7995 31.9758 62.0043Z" fill="#39D896"/>
<path d="M44.4162 58.1187L45.195 57.6672L44.6037 57.324L43.8147 57.7826L43.7282 57.7422C43.1447 57.477 42.5114 57.3393 41.8705 57.3384H41.8561C41.2272 57.3384 40.6647 57.4797 40.1844 57.7567C39.7402 58.0163 39.5224 58.2759 39.5397 58.5283C39.5614 58.8081 39.7921 59.1672 40.2291 59.5956L40.4022 59.7658L38.7205 60.7437C38.6743 60.6759 38.2503 60.3543 38.1017 59.5091L36.6133 59.5927C36.8152 60.6312 37.7008 61.1576 37.8133 61.2716L37.196 61.6293L37.7873 61.9711L38.409 61.6105C38.5041 61.6422 39.2282 62.0764 40.4166 62.0865C41.0513 62.0937 41.6397 61.9509 42.1258 61.6682C42.5729 61.4086 42.7892 61.1432 42.7662 60.8778C42.7402 60.5793 42.4993 60.2057 42.0493 59.7672L41.8763 59.5942L43.5104 58.6451L43.6114 58.749C43.8378 58.9797 44.0109 59.2668 44.1291 59.6057L45.5513 59.4571C45.3574 58.9916 45.0415 58.587 44.6368 58.286L44.4162 58.1187ZM40.7888 61.1922C40.5979 61.3014 40.3812 61.3572 40.1614 61.3538C39.9926 61.3538 39.8123 61.3249 39.6191 61.2672L39.2094 61.1447L40.8349 60.1999L40.933 60.337C41.0686 60.5245 41.1205 60.686 41.0916 60.8288C41.0642 60.9672 40.9633 61.0913 40.7888 61.1922ZM41.4407 59.1629L41.3455 59.0043C41.303 58.941 41.2738 58.8698 41.2597 58.7949C41.2455 58.72 41.2468 58.6431 41.2633 58.5687C41.3008 58.4245 41.4046 58.3019 41.5719 58.2052C41.8561 58.0379 42.2037 58.0134 42.6032 58.123L43.0258 58.2413L41.4407 59.1629Z" fill="#7AFEC7"/>
<path d="M50.6286 56.0232L50.6127 59.1746C50.6127 60.0112 50.2694 60.8434 49.8093 61.3958C49.2728 62.1386 48.569 62.6347 47.7916 63.128C47.0718 63.5174 46.1185 63.9919 45.256 64.1838C44.542 64.4001 43.5973 64.6049 42.6093 64.6886C42.4218 64.7116 41.6863 64.7823 41.0805 64.7823C41.0444 64.7809 40.0622 64.7982 39.1752 64.6886C38.6616 64.6385 38.1511 64.5595 37.6464 64.452C37.1369 64.3416 36.6321 64.2102 36.1334 64.0583C35.611 63.888 35.1007 63.6827 34.606 63.4439C34.3795 63.3213 33.8574 63.0573 33.4867 62.7977C32.9473 62.4371 32.356 61.9251 31.9752 61.3958C31.5223 60.852 31.1387 59.9881 31.1387 59.127L31.156 55.9597C31.156 56.5265 31.2973 55.941 31.5815 56.4775C32.894 58.9193 36.4579 60.1741 39.1752 60.4006C39.3007 60.415 39.4262 60.4309 39.569 60.4309C39.9295 60.4626 40.3089 60.4943 40.6868 60.4785C40.8137 60.4943 40.955 60.4943 41.0805 60.4943C41.4584 60.4943 41.8377 60.4799 42.2156 60.4309C42.3411 60.4309 42.4824 60.4164 42.6093 60.4006C43.1176 60.3611 43.6226 60.2873 44.1209 60.1799C44.7252 60.0588 45.5574 59.8193 45.6497 59.7862C46.1646 59.6144 46.6697 59.4146 47.1627 59.1876C47.5596 59.0006 47.9389 58.7785 48.2964 58.5241C48.4377 58.4463 48.5646 58.3511 48.6901 58.2414C49.1473 57.8953 49.5252 57.5333 49.8093 57.1395C49.9666 56.9347 50.092 56.7299 50.2031 56.5251C50.4858 55.9886 50.6286 56.5741 50.6286 56.0232Z" fill="#4AF9B0"/>
<path d="M47.7501 52.0034C51.5621 54.2043 51.5895 57.7784 47.802 59.9793C44.0059 62.1846 37.8357 62.1803 34.0237 59.9793C30.2116 57.7784 30.1914 54.2087 33.9862 52.0034C37.7751 49.801 43.9381 49.801 47.7501 52.0034Z" fill="#7AFEC7"/>
<path d="M46.33 53.1948C49.353 54.7381 49.3747 57.2448 46.3718 58.7881C43.3617 60.3357 38.4679 60.3313 35.4449 58.7881C32.4218 57.2448 32.4059 54.741 35.416 53.1948C38.4203 51.6515 43.3054 51.6515 46.33 53.1948Z" fill="#41EFA6"/>
<path d="M50.2022 57.6616V60.7972C50.0919 61.0094 49.9605 61.2099 49.8099 61.3957V58.276C49.9671 58.0712 50.0912 57.8664 50.2022 57.6616ZM48.6907 59.378V62.5135C48.57 62.6221 48.438 62.7173 48.2969 62.7977V59.6621C48.4383 59.5828 48.5652 59.489 48.6907 59.378ZM47.1618 60.3241V63.4597C47.0364 63.5217 46.9109 63.5852 46.7681 63.6472V60.4972C46.9109 60.4337 47.0349 60.3876 47.1618 60.3241ZM45.6503 60.9227V64.0741C45.5248 64.1044 45.3979 64.152 45.2566 64.1837V61.0323C45.3979 61.002 45.5248 60.9703 45.6503 60.9227ZM44.1215 61.3164V64.4679C43.996 64.4982 43.8546 64.514 43.7277 64.5457V61.3957C43.8546 61.364 43.996 61.3482 44.1215 61.3164ZM42.6099 61.5371V64.6885C42.483 64.703 42.3416 64.7188 42.2162 64.7188V61.5688C42.3416 61.5688 42.483 61.553 42.6099 61.5371ZM41.0811 61.6323V64.7823H40.6873V61.6164C40.8142 61.6308 40.9556 61.6323 41.0811 61.6323ZM39.5695 61.5688V64.7188C39.4426 64.7188 39.3013 64.7044 39.1758 64.6885V61.5371C39.3013 61.5515 39.4267 61.5688 39.5695 61.5688ZM38.0407 61.3799V64.5299C37.908 64.5115 37.7766 64.4855 37.6469 64.452V61.3006C37.7724 61.3323 37.8993 61.364 38.0407 61.3799ZM36.5291 61.0164V64.1679C36.395 64.1407 36.2629 64.1041 36.134 64.0582V60.9068C36.2609 60.9544 36.4022 60.9861 36.5291 61.0164ZM35.0003 60.4655V63.6169C34.865 63.5688 34.7334 63.511 34.6066 63.4438V60.2924C34.732 60.3558 34.859 60.4179 35.0003 60.4655ZM33.4873 59.6462V62.7977C33.3495 62.7066 33.218 62.6063 33.0936 62.4977V59.3477C33.2205 59.4573 33.346 59.5525 33.4873 59.6462ZM31.9758 58.2284V61.3957C31.8157 61.2109 31.6831 61.004 31.582 60.7813V57.614C31.6916 57.8188 31.8186 58.0236 31.9758 58.2284Z" fill="#39D896"/>
<path d="M44.4162 54.3414L45.195 53.8899L44.6037 53.5481L43.8147 54.0068C43.721 53.975 43.0474 53.5654 41.8705 53.5611H41.8561C41.2272 53.5611 40.6647 53.7039 40.1844 53.9808C39.3912 54.4423 39.2541 54.8664 40.2277 55.8183L40.4037 55.9899L38.7205 56.9678C38.6743 56.9 38.2503 56.5784 38.1017 55.7317L36.6133 55.8168C36.8152 56.8553 37.7008 57.3817 37.8133 57.4957L37.196 57.8534L37.7873 58.1952L38.409 57.8346C38.5041 57.8664 39.2282 58.3005 40.4166 58.3106C41.0513 58.3178 41.6397 58.175 42.1258 57.8923C42.5729 57.6327 42.7892 57.3659 42.7662 57.1019C42.7402 56.8034 42.4993 56.4298 42.0493 55.9914L41.8763 55.8183L43.5104 54.8693C43.5638 54.9356 43.9114 55.2068 44.1291 55.8298L45.5513 55.6813C45.3574 55.2157 45.0415 54.8111 44.6368 54.5101L44.4162 54.3414ZM40.7888 57.4164C40.2306 57.7409 39.694 57.4986 39.2094 57.3688L40.8349 56.4241L40.933 56.5611C41.0686 56.7486 41.1205 56.9101 41.0916 57.0529C41.0642 57.1914 40.9633 57.3154 40.7888 57.4164ZM41.4407 55.387L41.3455 55.2284C41.303 55.1651 41.2738 55.0939 41.2597 55.019C41.2455 54.9442 41.2468 54.8672 41.2633 54.7928C41.3008 54.6486 41.4046 54.526 41.5719 54.4279C42.1416 54.0947 42.7748 54.4221 43.0258 54.4654L41.4407 55.387Z" fill="#7AFEC7"/>
<path d="M50.6291 52.0049C50.5252 54.7842 50.8498 55.5241 50.2036 56.7789C50.0928 56.9907 49.9609 57.1907 49.8099 57.376C48.3733 59.3707 45.0964 60.4626 42.6099 60.6688C42.4829 60.6847 42.3416 60.7005 42.2161 60.7005C41.8394 60.7453 41.4603 60.7665 41.081 60.764H40.6873C40.3094 60.764 39.9315 60.7323 39.5695 60.7005C39.1815 60.7005 37.7853 60.5318 36.5291 60.1496C35.1416 59.8409 32.9349 58.7102 31.9757 57.376C31.8156 57.1912 31.683 56.9843 31.582 56.7616C31.2939 56.2583 31.1418 55.6886 31.1406 55.1087L31.155 51.9414C31.155 52.5082 31.2993 51.9227 31.582 52.4592C31.6916 52.664 31.8185 52.8688 31.9757 53.0736C32.3911 53.6505 33.069 54.213 33.4873 54.4914C34.3066 55.0326 35.1974 55.4569 36.1339 55.752C36.2089 55.7794 37.0281 56.0159 37.6483 56.1457C38.1526 56.2532 38.6625 56.3322 39.1757 56.3823C39.3012 56.3967 39.4267 56.4126 39.5695 56.4126C39.93 56.4443 40.3094 56.476 40.6873 56.4602C40.8142 56.476 40.9555 56.476 41.081 56.476C41.4589 56.476 41.8382 56.4616 42.2161 56.4126C42.3416 56.4126 42.4829 56.3981 42.6099 56.3823C45.343 56.1529 48.8983 54.9299 50.2036 52.5053C50.4863 51.9703 50.6291 52.5558 50.6291 52.0049Z" fill="#4AF9B0"/>
<path d="M47.7501 47.9837C51.5621 50.1861 51.5895 53.7587 47.802 55.9597C44.0059 58.1664 37.8357 58.1621 34.0237 55.9597C30.2116 53.7587 30.1914 50.1905 33.9862 47.9837C37.7751 45.7828 43.9381 45.7828 47.7501 47.9837Z" fill="#7AFEC7"/>
<path d="M46.33 49.175C49.353 50.7183 49.3747 53.2265 46.3718 54.7712C43.3617 56.3173 38.4679 56.3144 35.4449 54.7712C32.4218 53.2265 32.4059 50.7226 35.416 49.175C38.4203 47.6318 43.3054 47.6318 46.33 49.175Z" fill="#41EFA6"/>
<path d="M50.2022 53.6433V56.7774C50.0919 56.9896 49.9605 57.1902 49.8099 57.376V54.2577C49.9671 54.0529 50.0912 53.8481 50.2022 53.6433ZM48.6907 55.3596V58.4952C48.57 58.6038 48.438 58.699 48.2969 58.7794V55.6438C48.4383 55.5645 48.5652 55.4707 48.6907 55.3596ZM47.1618 56.3058V59.4399C47.0364 59.5034 46.9109 59.5669 46.7681 59.6289V56.4789C46.9109 56.4154 47.0349 56.3678 47.1618 56.3058ZM45.6503 56.9044V60.0544C45.5248 60.0861 45.3979 60.1337 45.2566 60.1654V57.014C45.3979 56.9822 45.5248 56.952 45.6503 56.9044ZM44.1215 57.2981V60.4481C43.996 60.4798 43.8546 60.4957 43.7277 60.5274V57.376C43.8546 57.3457 43.996 57.3298 44.1215 57.2981ZM42.6099 57.5188V60.6688C42.483 60.6846 42.3416 60.7005 42.2162 60.7005V57.5505C42.3416 57.5505 42.483 57.5346 42.6099 57.5188ZM41.0811 57.6125V60.764H40.6873V57.5967C40.8142 57.6125 40.9556 57.6125 41.0811 57.6125ZM39.5695 57.5505V60.7005C39.4426 60.7005 39.3013 60.6861 39.1758 60.6688V57.5188C39.3013 57.5332 39.4267 57.5505 39.5695 57.5505ZM38.0407 57.3616V60.5116C37.908 60.4932 37.7766 60.4672 37.6469 60.4337V57.2822C37.7724 57.314 37.8993 57.3457 38.0407 57.3616ZM36.5291 56.9981V60.1495C36.395 60.1219 36.2629 60.0848 36.134 60.0385V56.8885C36.2609 56.9361 36.4022 56.9664 36.5291 56.9981ZM35.0003 56.4471V59.5986C34.865 59.5505 34.7334 59.4927 34.6066 59.4255V56.2741C34.732 56.3375 34.859 56.3996 35.0003 56.4471ZM33.4873 55.6279V58.7794C33.3495 58.6882 33.218 58.588 33.0936 58.4794V55.3294C33.2205 55.439 33.346 55.5342 33.4873 55.6279ZM31.9758 54.2101V57.376C31.8157 57.1912 31.6831 56.9842 31.582 56.7616V53.5957C31.6916 53.8005 31.8186 54.0053 31.9758 54.2101Z" fill="#39D896"/>
<path d="M44.4162 50.3231L45.195 49.8716L44.6037 49.5298L43.8147 49.9884C43.8003 49.987 41.8388 49.0048 40.1844 49.9625C39.3912 50.424 39.2541 50.8481 40.2277 51.8L40.4037 51.9702L38.7205 52.9481C38.6743 52.8817 38.2503 52.5586 38.1017 51.7134L36.6133 51.7985C36.8152 52.837 37.7008 53.362 37.8133 53.4759L37.196 53.8351L37.7873 54.1769L38.409 53.8149C38.4234 53.8163 40.4354 54.8548 42.1258 53.8726C42.5729 53.613 42.7892 53.3476 42.7662 53.0836C42.7171 52.5298 41.9585 51.8937 41.8763 51.8L43.5104 50.8509C43.5638 50.9173 43.9114 51.1884 44.1291 51.8115L45.5513 51.663C45.2051 50.812 44.5373 50.4356 44.4162 50.3231ZM40.1614 53.5596C39.7936 53.5596 39.5181 53.4327 39.2094 53.3505L40.8349 52.4057L40.933 52.5428C41.0686 52.7303 41.1205 52.8918 41.0916 53.0332C41.0253 53.3793 40.519 53.5596 40.1614 53.5596ZM41.4407 51.3673C41.3916 51.2663 41.1912 51.0529 41.2633 50.7731C41.37 50.3562 41.9931 50.1601 42.6032 50.3274L43.0258 50.4471L41.4392 51.3687L41.4407 51.3673Z" fill="#7AFEC7"/>
<path d="M50.6291 48.2287L50.6132 51.3787C50.6132 52.2153 50.27 53.0489 49.8099 53.5999C49.3512 54.236 48.5695 54.8504 48.2969 55.0033C48.0228 55.2225 47.4776 55.5081 47.1632 55.6638C46.6584 55.9162 46.1522 56.1182 45.6502 56.2783C45.2738 56.3735 44.919 56.5134 44.1214 56.672C43.7608 56.7629 43.0541 56.8566 42.6099 56.8927C42.4829 56.9086 42.3416 56.9244 42.2161 56.9244C41.8394 56.9692 41.4603 56.9904 41.081 56.9879H40.6873C40.2502 56.9879 39.3243 56.9114 39.1757 56.8927C37.4738 56.7513 35.0478 56.0951 33.4873 55.0033C32.9478 54.6427 32.3565 54.1292 31.9757 53.5999C31.8156 53.4151 31.683 53.2081 31.582 52.9855C31.2936 52.4817 31.1415 51.9116 31.1406 51.3311L31.155 48.1653C31.155 48.7321 31.2993 48.1465 31.582 48.6831C31.9551 49.3635 32.4713 49.955 33.095 50.4167C33.2204 50.5263 33.3459 50.6201 33.4873 50.7153C35.3377 51.8922 37.7089 52.6999 41.081 52.6999C41.4589 52.6999 41.8382 52.684 42.2161 52.6364C43.6469 52.6364 46.3844 51.9225 47.8079 51.0456C47.981 50.9504 48.1397 50.8408 48.2969 50.7311C48.6041 50.5595 49.3974 49.9162 49.8099 49.3437C49.9671 49.1388 50.0925 48.934 50.2036 48.7292C50.4863 48.1941 50.6291 48.7797 50.6291 48.2287Z" fill="#4AF9B0"/>
<path d="M47.7501 44.2076C51.5621 46.41 51.5895 49.9826 47.802 52.1836C44.0059 54.3903 37.8357 54.386 34.0237 52.1836C30.2116 49.9826 30.1914 46.4143 33.9862 44.2076C37.7751 42.0066 43.9381 42.0066 47.7501 44.2076Z" fill="#7AFEC7"/>
<path d="M46.33 45.3992C49.353 46.9424 49.3747 49.4506 46.3718 50.9939C43.3617 52.5415 38.4679 52.5371 35.4449 50.9939C32.4218 49.4506 32.4059 46.9467 35.416 45.3992C38.4203 43.8559 43.3054 43.8559 46.33 45.3992Z" fill="#41EFA6"/>
<path d="M50.2022 49.8674V53.0001C50.0919 53.2123 49.9605 53.4129 49.8099 53.5987V50.4804C49.9671 50.2756 50.0926 50.0708 50.2037 49.866L50.2022 49.8674ZM48.6907 51.5838V54.7193C48.57 54.8279 48.438 54.9232 48.2969 55.0035V51.8679C48.4383 51.7886 48.5652 51.6948 48.6907 51.5838ZM47.1618 52.5299V55.6641C47.0364 55.7275 46.9109 55.791 46.7681 55.853V52.703C46.9109 52.6395 47.0349 52.5919 47.1618 52.5299ZM45.6503 53.1285V56.2785C45.5248 56.3102 45.3979 56.3578 45.2566 56.3895V53.2381C45.3979 53.2064 45.5248 53.1746 45.6503 53.1285ZM44.1215 53.5222V56.6722C43.996 56.704 43.8546 56.7198 43.7277 56.7516V53.6001C43.8546 53.5698 43.996 53.554 44.1215 53.5222ZM42.6099 53.7429V56.8929C42.483 56.9088 42.3416 56.9246 42.2162 56.9246V53.7746C42.3416 53.7746 42.483 53.7588 42.6099 53.7429ZM41.0811 53.8367V56.9881H40.6873V53.8208C40.8142 53.8367 40.9556 53.8367 41.0811 53.8367ZM39.5695 53.7746V56.9246C39.4426 56.9246 39.3013 56.9102 39.1758 56.8929V53.7429C39.3013 53.7573 39.4267 53.7746 39.5695 53.7746ZM38.0407 53.5842V56.7357C37.908 56.7169 37.7765 56.6904 37.6469 56.6564V53.5064C37.7724 53.5381 37.8993 53.5698 38.0407 53.5842ZM36.5291 53.2237V56.3737C36.3949 56.3461 36.2629 56.309 36.134 56.2626V53.1126C36.2609 53.1602 36.4022 53.1919 36.5291 53.2237ZM35.0003 52.6713V55.8227C34.865 55.7747 34.7334 55.7168 34.6066 55.6496V52.4982C34.732 52.5616 34.859 52.6237 35.0003 52.6713ZM33.4873 51.852V55.0035C33.3495 54.9124 33.218 54.8121 33.0936 54.7035V51.552C33.2205 51.6631 33.346 51.7568 33.4873 51.852ZM31.9758 50.4342V53.6001C31.8157 53.4153 31.6831 53.2083 31.582 52.9857V49.8198C31.6916 50.0246 31.8186 50.2294 31.9758 50.4342Z" fill="#39D896"/>
<path d="M44.4157 46.5472L45.1945 46.0957L44.6032 45.7539L43.8142 46.2126C43.7998 46.2111 41.8382 45.2289 40.1839 46.1866C39.7397 46.4462 39.5219 46.7058 39.5392 46.9568C39.5782 47.4832 40.3209 48.102 40.4032 48.1943L38.72 49.1722C38.6738 49.1058 38.2498 48.7828 38.1012 47.9376L36.6113 48.0227C36.8133 49.0611 37.7003 49.5861 37.8128 49.7001L37.1955 50.0578L37.7868 50.401L38.4084 50.039C38.4229 50.039 40.4349 51.0789 42.1253 50.0967C42.5724 49.8371 42.7887 49.5717 42.7657 49.3078C42.7166 48.7539 41.958 48.1179 41.8758 48.0241L43.5099 47.0751C43.5632 47.1414 43.9108 47.4126 44.1286 48.0356L45.5508 47.8856C45.2046 47.0361 44.5368 46.6597 44.4157 46.5472ZM40.1608 49.7837C39.7931 49.7837 39.5176 49.6568 39.2089 49.5746L40.8344 48.6299C40.8892 48.7236 41.1474 48.9861 41.0911 49.2587C41.0248 49.6034 40.5185 49.7837 40.1608 49.7837ZM41.4402 47.5914C41.3911 47.4904 41.1907 47.2755 41.2628 46.9972C41.3695 46.5803 41.9926 46.3842 42.6027 46.5515L43.0253 46.6712L41.4387 47.5929L41.4402 47.5914Z" fill="#7AFEC7"/>
<path d="M50.6291 44.2107C50.5252 46.9886 50.9392 48.2261 49.8099 49.5818C49.3512 50.2179 48.5695 50.8323 48.2969 50.9838C48.0228 51.2044 47.4776 51.4886 47.1632 51.6472C45.8724 52.2905 44.1329 52.7477 42.6099 52.8746C42.4829 52.8905 42.3416 52.9064 42.2161 52.9064C40.0368 53.1789 36.77 52.7131 34.6065 51.6299C34.38 51.5088 33.8579 51.2434 33.4873 50.9838C33.3495 50.8931 33.218 50.7934 33.0935 50.6852C32.6647 50.3791 32.2874 50.0066 31.9757 49.5818C31.8156 49.397 31.683 49.1901 31.582 48.9674C31.2936 48.4637 31.1415 47.8935 31.1406 47.3131L31.155 44.1472C31.155 44.714 31.2993 44.1285 31.582 44.6636C31.9551 45.344 32.4713 45.9354 33.095 46.3972C33.2204 46.5068 33.3459 46.602 33.4873 46.6972C34.3066 47.2379 35.1974 47.6617 36.1339 47.9564C37.7002 48.5434 40.6296 48.8174 42.2161 48.6198C42.7743 48.6198 44.1531 48.4179 45.2565 48.0833C46.2084 47.8713 47.9565 47.0708 48.6906 46.4289C49.3252 45.9472 49.8142 45.4338 50.2036 44.7126C50.4863 44.1761 50.6291 44.7616 50.6291 44.2107Z" fill="#4AF9B0"/>
<path d="M47.7501 40.1895C51.5621 42.3905 51.5895 45.9645 47.802 48.1655C44.0059 50.3722 37.8357 50.3679 34.0237 48.1655C30.2116 45.9645 30.1914 42.3963 33.9862 40.1895C37.7751 37.9886 43.9381 37.9886 47.7501 40.1895Z" fill="#7AFEC7"/>
<path d="M46.33 41.3808C49.353 42.9241 49.3747 45.4308 46.3718 46.9756C43.3617 48.5217 38.4679 48.5188 35.4449 46.9756C32.4218 45.4323 32.4059 42.9284 35.416 41.3808C38.4203 39.8376 43.3054 39.8376 46.33 41.3808Z" fill="#41EFA6"/>
<path d="M50.2022 45.8491V48.9833C50.0919 49.1955 49.9605 49.396 49.8099 49.5818V46.4636C49.9671 46.2587 50.0912 46.0539 50.2022 45.8491ZM48.6907 47.5655V50.7011C48.5699 50.8091 48.4379 50.9039 48.2969 50.9837V47.8511C48.4383 47.7717 48.5652 47.6765 48.6907 47.5655ZM47.1618 48.5116V51.6458C47.0364 51.7092 46.9109 51.7727 46.7681 51.8347V48.6847C46.9109 48.6212 47.0349 48.5736 47.1618 48.5116ZM45.6503 49.1102V52.2602C45.5248 52.2919 45.3979 52.3395 45.2566 52.3712V49.2198C45.3979 49.1881 45.5248 49.1563 45.6503 49.1102ZM44.1215 49.5039V52.6539C43.996 52.6857 43.8546 52.7015 43.7277 52.7333V49.5818C43.8546 49.5501 43.996 49.5342 44.1215 49.5039ZM42.6099 49.7246V52.8746C42.483 52.8905 42.3416 52.9063 42.2162 52.9063V49.7549C42.3416 49.7549 42.483 49.7405 42.6099 49.7246ZM41.0811 49.8184V52.9698H40.6873V49.8025C40.8142 49.8184 40.9556 49.8184 41.0811 49.8184ZM39.5695 49.7549V52.9063C39.4426 52.9063 39.3013 52.8919 39.1758 52.8746V49.7261C39.3013 49.7405 39.4267 49.7549 39.5695 49.7549ZM38.0407 49.5674V52.7174C37.908 52.6986 37.7765 52.6721 37.6469 52.6381V49.4881C37.7724 49.5198 37.8993 49.5515 38.0407 49.5674ZM36.5291 49.2039V52.3554C36.395 52.3278 36.2629 52.2907 36.134 52.2443V49.0943C36.2609 49.1405 36.4022 49.1722 36.5291 49.2039ZM35.0003 48.653V51.803C34.865 51.7549 34.7334 51.6971 34.6066 51.6299V48.4799C34.732 48.5419 34.859 48.6054 35.0003 48.653ZM33.4873 47.8337V50.9837C33.3496 50.8931 33.218 50.7934 33.0936 50.6852V47.5337C33.2205 47.6448 33.346 47.7386 33.4873 47.8337ZM31.9758 46.416V49.5818C31.8157 49.397 31.6831 49.1901 31.582 48.9674V45.803C31.6916 46.0078 31.8186 46.2126 31.9758 46.4174V46.416Z" fill="#39D896"/>
<path d="M44.4157 42.5289L45.1945 42.0774L44.6032 41.7356L43.8142 42.1943C43.7205 42.1625 43.0469 41.7529 41.87 41.7486H41.8556C41.2267 41.7486 40.6642 41.8899 40.1839 42.1683C39.7397 42.4279 39.5219 42.6875 39.5392 42.9385C39.5782 43.4649 40.3209 44.0837 40.4032 44.176L38.72 45.1539C38.6738 45.0875 38.2498 44.7644 38.1012 43.9192L36.6113 44.0029C36.8133 45.0414 37.7003 45.5678 37.8128 45.6817L37.1955 46.0394L37.7868 46.3813L38.4084 46.0207C38.4229 46.0207 40.4349 47.0606 42.1253 46.0784C42.5724 45.8188 42.7887 45.5534 42.7657 45.2894C42.7397 44.9909 42.4988 44.6173 42.0488 44.1774L41.8758 44.0058L43.5099 43.0567C43.5632 43.1231 43.9108 43.3943 44.1286 44.0173L45.5508 43.8673C45.2046 43.0178 44.5368 42.6414 44.4157 42.5289ZM40.1608 45.7654C39.7931 45.7654 39.5176 45.6385 39.2089 45.5563L40.8344 44.6116L40.9325 44.7471C41.0681 44.9346 41.12 45.0962 41.0911 45.2404C41.0248 45.5851 40.5185 45.7654 40.1608 45.7654ZM41.4402 43.5731L41.345 43.4159C41.3023 43.3524 41.273 43.281 41.2589 43.2058C41.2447 43.1307 41.2461 43.0535 41.2628 42.9789C41.3003 42.8346 41.4041 42.7135 41.5714 42.6154C42.1411 42.2808 42.7743 42.6082 43.0253 42.6529L41.4402 43.5731Z" fill="#7AFEC7"/>
</svg>
