<svg width="40" height="40" viewBox="0 0 40 40" fill="none" xmlns="http://www.w3.org/2000/svg">
<rect x="0.888672" y="0.949219" width="38.2177" height="38.2177" rx="6.6146" fill="#F6F6F6" fill-opacity="0.1"/>
<g clip-path="url(#clip0_924_2091)">
<path d="M31.426 18.6245H20.0808V13.7691C20.0808 13.3119 19.709 12.9401 19.2519 12.9401H18.7782C18.321 12.9401 17.9492 13.3119 17.9492 13.7691V18.6245H17.2386V12.3479C17.2386 11.8908 16.8668 11.519 16.4096 11.519H15.9359C15.4788 11.519 15.107 11.8908 15.107 12.3479V18.6245H14.3964V10.9268C14.3964 10.4697 14.0246 10.0979 13.5674 10.0979H13.0937C12.6366 10.0979 12.2647 10.4697 12.2647 10.9268V18.6245H11.5542V9.50574C11.5542 9.04861 11.1823 8.67676 10.7252 8.67676H10.2515C9.79439 8.67676 9.42254 9.04861 9.42254 9.50574V18.6245H8.59356C8.39745 18.6245 8.23828 18.7837 8.23828 18.9798V19.6903C8.23828 20.2782 8.71625 20.7562 9.30411 20.7562H20.6493V25.6116C20.6493 26.0687 21.0211 26.4406 21.4783 26.4406H21.952C22.4091 26.4406 22.7809 26.0687 22.7809 25.6116V20.7562H23.4915V27.0327C23.4915 27.4898 23.8633 27.8617 24.3205 27.8617H24.7942C25.2513 27.8617 25.6231 27.4898 25.6231 27.0327V20.7562H26.3337V28.4538C26.3337 28.9109 26.7056 29.2828 27.1627 29.2828H27.6364C28.0935 29.2828 28.4654 28.9109 28.4654 28.4538V20.7562H29.1759V29.8749C29.1759 30.332 29.5478 30.7039 30.0049 30.7039H30.4786C30.9357 30.7039 31.3076 30.332 31.3076 29.8749V20.7562H32.1365C32.3327 20.7562 32.4918 20.597 32.4918 20.4009V19.6903C32.4918 19.1025 32.0139 18.6245 31.426 18.6245ZM18.6597 13.7691C18.6597 13.7037 18.7128 13.6506 18.7782 13.6506H19.2519C19.3172 13.6506 19.3703 13.7037 19.3703 13.7691V18.6245H18.6597V13.7691ZM15.8175 12.3479C15.8175 12.2826 15.8706 12.2295 15.9359 12.2295H16.4096C16.475 12.2295 16.5281 12.2826 16.5281 12.3479V18.6245H15.8175V12.3479ZM12.9753 10.9268C12.9753 10.8615 13.0284 10.8084 13.0937 10.8084H13.5674C13.6328 10.8084 13.6859 10.8615 13.6859 10.9268V18.6245H12.9753V10.9268ZM10.1331 9.50574C10.1331 9.44037 10.1861 9.38731 10.2515 9.38731H10.7252C10.7906 9.38731 10.8436 9.44037 10.8436 9.50574V18.6245H10.1331V9.50574ZM22.0704 25.6116C22.0704 25.677 22.0173 25.73 21.952 25.73H21.4783C21.4129 25.73 21.3598 25.677 21.3598 25.6116V20.7562H22.0704V25.6116ZM24.9126 27.0327C24.9126 27.0981 24.8595 27.1511 24.7942 27.1511H24.3205C24.2551 27.1511 24.202 27.0981 24.202 27.0327V20.7562H24.9126V27.0327ZM27.7548 28.4538C27.7548 28.5192 27.7017 28.5722 27.6364 28.5722H27.1627C27.0973 28.5722 27.0443 28.5192 27.0443 28.4538V20.7562H27.7548V28.4538ZM30.597 29.8749C30.597 29.9403 30.544 29.9933 30.4786 29.9933H30.0049C29.9395 29.9933 29.8865 29.9403 29.8865 29.8749V20.7562H30.597V29.8749ZM31.7813 20.0456H9.30411C9.108 20.0456 8.94883 19.8864 8.94883 19.6903V19.3351H31.426C31.6221 19.3351 31.7813 19.4942 31.7813 19.6903V20.0456Z" fill="#F3F8F9"/>
<path d="M27.6367 17.2744C30.3141 17.2744 32.4921 15.0963 32.4921 12.4189C32.4921 9.74156 30.3141 7.56348 27.6367 7.56348C24.9593 7.56348 22.7812 9.74156 22.7812 12.4189C22.7812 15.0963 24.9593 17.2744 27.6367 17.2744ZM27.6367 8.27403C29.9223 8.27403 31.7816 10.1333 31.7816 12.4189C31.7816 14.7045 29.9223 16.5638 27.6367 16.5638C25.3511 16.5638 23.4918 14.7045 23.4918 12.4189C23.4918 10.1333 25.3511 8.27403 27.6367 8.27403Z" fill="#F3F8F9"/>
<path d="M13.0937 22.1064C10.4164 22.1064 8.23828 24.2845 8.23828 26.9619C8.23828 29.6393 10.4164 31.8173 13.0937 31.8173C15.7711 31.8173 17.9492 29.6393 17.9492 26.9619C17.9492 24.2845 15.7711 22.1064 13.0937 22.1064ZM13.0937 31.1068C10.8081 31.1068 8.94883 29.2475 8.94883 26.9619C8.94883 24.6763 10.8081 22.817 13.0937 22.817C15.3793 22.817 17.2386 24.6763 17.2386 26.9619C17.2386 29.2475 15.3793 31.1068 13.0937 31.1068Z" fill="#F3F8F9"/>
<path d="M29.8464 12.2572L28.5882 9.80386C28.4039 9.44479 28.0387 9.22168 27.6351 9.22168C27.2315 9.22168 26.8663 9.44479 26.682 9.80386L25.4239 12.2572C25.3604 12.3808 25.3751 12.53 25.4613 12.6394C25.5475 12.7489 25.6892 12.7977 25.8242 12.7645L26.5508 12.5873V15.2614C26.5508 15.4575 26.71 15.6167 26.9061 15.6167H28.3637C28.5598 15.6167 28.719 15.4575 28.719 15.2614V12.5873L29.4456 12.7645C29.5806 12.7977 29.7227 12.7484 29.8085 12.6394C29.8947 12.5305 29.9089 12.3808 29.8459 12.2572H29.8464Z" fill="#00B852"/>
<path d="M14.9044 26.6168L14.1777 26.794V24.1199C14.1777 23.9238 14.0186 23.7646 13.8225 23.7646H12.3649C12.1688 23.7646 12.0096 23.9238 12.0096 24.1199V26.794L11.2829 26.6168C11.1479 26.5836 11.0058 26.6329 10.9201 26.7419C10.8339 26.8508 10.8197 27.0005 10.8827 27.1241L12.1408 29.5774C12.3251 29.9365 12.6903 30.1596 13.0939 30.1596C13.4975 30.1596 13.8627 29.9365 14.047 29.5774L15.3051 27.1241C15.3686 27.0005 15.3539 26.8513 15.2677 26.7419C15.1815 26.6324 15.0399 26.5836 14.9049 26.6168H14.9044Z" fill="#00B852"/>
</g>
<defs>
<clipPath id="clip0_924_2091">
<rect width="24.2535" height="24.2535" fill="white" transform="translate(8.23828 7.56348)"/>
</clipPath>
</defs>
</svg>
