<svg width="24" height="25" viewBox="0 0 24 25" fill="none" xmlns="http://www.w3.org/2000/svg">
<path d="M22.4503 17.85C22.2056 17.5894 21.3417 16.8188 19.7536 15.7992C18.1537 14.7708 16.9739 14.1295 16.6354 13.98C16.6056 13.9668 16.5727 13.9619 16.5404 13.966C16.508 13.97 16.4773 13.9828 16.4517 14.003C15.9065 14.4281 14.9887 15.2091 14.9395 15.2513C14.6217 15.5236 14.6217 15.5236 14.3615 15.4388C13.904 15.2888 12.4828 14.5341 11.2443 13.2928C10.0059 12.0516 9.21231 10.5952 9.06231 10.1381C8.97653 9.87751 8.97653 9.87751 9.24981 9.5597C9.292 9.51048 10.0734 8.59267 10.4986 8.04798C10.5187 8.02233 10.5315 7.99167 10.5356 7.95929C10.5396 7.92692 10.5348 7.89405 10.5215 7.86423C10.372 7.52532 9.73075 6.34595 8.70231 4.7461C7.68137 3.15845 6.91168 2.29454 6.65106 2.04985C6.62714 2.02728 6.59758 2.01158 6.56549 2.00441C6.5334 1.99723 6.49997 1.99884 6.46871 2.00907C5.55769 2.32216 4.67869 2.72163 3.84371 3.20204C3.03766 3.67062 2.27455 4.20943 1.56325 4.8122C1.53842 4.83331 1.5198 4.86078 1.5094 4.89166C1.49899 4.92254 1.49719 4.95568 1.50418 4.98751C1.60215 5.44407 2.07043 7.35001 3.52356 9.99001C5.00621 12.6844 6.03371 14.0649 8.21106 16.2347C10.3884 18.4045 11.8125 19.4939 14.5097 20.9766C17.1497 22.4297 19.0565 22.8984 19.5122 22.9955C19.5441 23.0024 19.5772 23.0006 19.6082 22.9902C19.6391 22.9798 19.6667 22.9612 19.6879 22.9364C20.2906 22.2251 20.8293 21.462 21.2976 20.6559C21.778 19.8209 22.1774 18.9419 22.4906 18.0309C22.5006 17.9999 22.5022 17.9668 22.4951 17.935C22.488 17.9032 22.4725 17.8738 22.4503 17.85Z" fill="#00B852"/>
</svg>
