<svg width="126" height="28" viewBox="0 0 126 28" fill="none" xmlns="http://www.w3.org/2000/svg">
<path d="M0 28V4.86957V0H126L112.067 14L126 28H0Z" fill="#017AFF"/>
<path d="M10.2664 19H8.28238C8.28238 13.992 10.5704 11.608 12.2504 9.944H6.63438V8.28H13.9464V10.136C11.8024 12.248 10.2664 14.52 10.2664 19ZM19.4478 19H15.3997V8.28H19.4478C22.7598 8.28 24.5518 10.328 24.5518 13.64C24.5518 16.952 22.7758 19 19.4478 19ZM19.2238 9.88H17.2078V17.4H19.2398C21.4478 17.4 22.6638 16.328 22.6638 13.64C22.6638 10.952 21.4478 9.88 19.2238 9.88ZM27.842 19.16C26.562 19.16 25.794 18.44 25.794 17.32C25.794 16.216 26.562 15.544 27.826 15.048L30.434 13.944C30.37 13.16 30.018 12.632 28.946 12.632C27.906 12.632 27.09 13.24 26.642 14.056L25.57 12.776C26.178 11.944 27.394 11.048 29.122 11.048C31.058 11.048 32.146 12.152 32.146 14.072V17C32.146 17.352 32.274 17.464 32.562 17.464H33.058V19H31.954C31.122 19 30.466 18.616 30.466 17.496V16.92C30.226 17.944 29.474 19.16 27.842 19.16ZM27.522 17.048C27.522 17.496 27.826 17.768 28.482 17.768C29.666 17.768 30.466 17.064 30.466 16.008V15.176L28.466 16.072C27.794 16.376 27.522 16.648 27.522 17.048ZM35.7296 21.672C34.6096 21.672 33.6976 21.096 33.2656 20.488L34.1136 19.048C34.5296 19.64 35.0096 20.088 35.7296 20.088C36.3376 20.088 36.7216 19.816 37.0096 18.952L37.1536 18.52H36.0496L33.4736 11.208H35.4416L36.8496 15.624L37.4096 17.704L37.9696 15.624L39.3616 11.208H41.3456L38.4656 19.544C37.9056 21.112 36.9936 21.672 35.7296 21.672ZM45.3006 19.16C43.6366 19.16 42.1166 18.488 41.5246 17.256L42.5806 16.136C43.0126 16.92 43.9726 17.72 45.3646 17.72C46.1326 17.72 46.6286 17.448 46.6286 16.888C46.6286 16.312 46.0366 16.12 45.1726 15.912L44.1326 15.656C42.9006 15.368 41.7646 14.824 41.7646 13.4C41.7646 11.944 42.9326 11.064 44.7246 11.064C46.3886 11.064 47.5566 11.864 48.0366 12.744L46.9806 13.864C46.4366 13 45.6046 12.488 44.5966 12.488C43.9086 12.488 43.4446 12.776 43.4446 13.304C43.4446 13.864 43.8606 14.072 44.9166 14.344L45.8606 14.584C47.6046 15.032 48.2446 15.736 48.2446 16.856C48.2446 18.392 46.9486 19.16 45.3006 19.16ZM58.1109 19H56.0469L52.1269 8.28H54.1909L56.3189 14.536L57.1189 17.624L57.9349 14.536L60.0629 8.28H62.0309L58.1109 19ZM64.2483 19.16C62.9683 19.16 62.2003 18.44 62.2003 17.32C62.2003 16.216 62.9683 15.544 64.2323 15.048L66.8403 13.944C66.7763 13.16 66.4243 12.632 65.3523 12.632C64.3123 12.632 63.4963 13.24 63.0483 14.056L61.9763 12.776C62.5843 11.944 63.8003 11.048 65.5283 11.048C67.4643 11.048 68.5523 12.152 68.5523 14.072V17C68.5523 17.352 68.6803 17.464 68.9683 17.464H69.4643V19H68.3603C67.5283 19 66.8723 18.616 66.8723 17.496V16.92C66.6323 17.944 65.8802 19.16 64.2483 19.16ZM63.9283 17.048C63.9283 17.496 64.2323 17.768 64.8883 17.768C66.0723 17.768 66.8723 17.064 66.8723 16.008V15.176L64.8723 16.072C64.2003 16.376 63.9283 16.648 63.9283 17.048ZM72.6266 19H70.8346V8.28H72.6266V19ZM76.3141 10.104H74.5221V8.28H76.3141V10.104ZM76.3141 19H74.5221V11.208H76.3141V19ZM80.9136 19.176C78.9936 19.176 77.7776 17.624 77.7776 15.112C77.7776 12.6 78.9936 11.048 80.8816 11.048C82.4336 11.048 83.1216 12.088 83.3776 13.304V8.28H85.1696V19H83.3776V16.936C83.1216 18.136 82.4656 19.176 80.9136 19.176ZM79.6176 15.112C79.6176 16.872 80.4656 17.72 81.6016 17.72C82.8496 17.72 83.3776 16.888 83.3776 15.608V14.632C83.3776 13.352 82.8496 12.504 81.5856 12.504C80.4656 12.504 79.6176 13.368 79.6176 15.112ZM88.8454 10.104H87.0534V8.28H88.8454V10.104ZM88.8454 19H87.0534V11.208H88.8454V19ZM93.5569 19.176C92.0849 19.176 91.2369 18.248 91.2369 16.872V12.6H90.0209V11.208H91.2369V10.264L93.0289 9.128V11.208H95.4129V12.6H93.0289V16.44C93.0289 17.288 93.4289 17.496 93.9569 17.496C94.5649 17.496 95.0129 17 95.2369 16.552L95.7969 18.152C95.4609 18.648 94.6929 19.176 93.5569 19.176ZM98.0734 21.672C96.9534 21.672 96.0414 21.096 95.6094 20.488L96.4574 19.048C96.8734 19.64 97.3534 20.088 98.0734 20.088C98.6814 20.088 99.0654 19.816 99.3534 18.952L99.4974 18.52H98.3934L95.8174 11.208H97.7854L99.1934 15.624L99.7534 17.704L100.313 15.624L101.705 11.208H103.689L100.809 19.544C100.249 21.112 99.3374 21.672 98.0734 21.672Z" fill="white"/>
</svg>
