<svg width="46" height="46" viewBox="0 0 46 46" fill="none" xmlns="http://www.w3.org/2000/svg">
<path d="M22.9487 35.2664C23.7815 35.1383 25.6094 35.6497 25.6298 34.3905C25.4732 33.1827 23.7793 33.8745 22.9487 33.7329C22.1183 33.8746 20.4192 33.1823 20.2676 34.3903C20.2867 35.6495 22.1169 35.1383 22.9487 35.2664Z" fill="#00B852"/>
<path d="M10.1805 28.7084C10.1112 28.2913 9.71816 28.0023 9.29851 28.078C7.5852 28.6142 9.72444 31.4063 10.8891 32.1613C11.2252 32.4129 11.7074 32.3463 11.9616 32.0049C12.2147 31.665 12.1443 31.1851 11.8048 30.932C10.8682 30.2342 10.3063 29.4653 10.1805 28.7084Z" fill="#00B852"/>
<path d="M17.6496 34.7807C18.0101 34.7807 18.3313 34.5254 18.4017 34.1586C18.4818 33.743 18.2093 33.341 17.7934 33.2609C16.6516 33.0415 15.587 32.751 14.629 32.3961C13.6809 32.0601 13.1558 33.468 14.0967 33.8336C15.1694 34.2191 16.3873 34.5851 17.6496 34.7807Z" fill="#00B852"/>
<path d="M14.196 23.6636C14.0257 23.2765 13.575 23.1006 13.1857 23.2701C12.1051 23.8071 9.05852 25.1856 10.0852 26.3311C10.3814 26.6338 10.8671 26.6394 11.1694 26.3432C11.8021 25.7255 12.6878 25.164 13.8026 24.6736C14.1901 24.5036 14.3664 24.0514 14.196 23.6636Z" fill="#00B852"/>
<path d="M34.1027 30.9227C33.7635 31.1757 33.6939 31.6564 33.9477 31.9956C34.2025 32.3365 34.6847 32.4029 35.0206 32.1505C36.2799 31.2094 37.0443 30.0991 37.2311 28.9409C37.3743 27.9438 35.8928 27.7035 35.7173 28.6968C35.5952 29.4545 35.0367 30.2241 34.1027 30.9227Z" fill="#00B852"/>
<path d="M32.6977 23.2627C32.3114 23.0942 31.858 23.2698 31.6877 23.6573C31.5177 24.0451 31.6944 24.4973 32.0823 24.6672C33.1967 25.1554 34.0839 25.7162 34.7195 26.3338C35.441 27.0281 36.5044 25.9356 35.7879 25.2332C35.0202 24.4883 33.9806 23.825 32.6977 23.2627Z" fill="#00B852"/>
<path d="M31.2832 32.391C30.326 32.7467 29.2617 33.0387 28.1196 33.2588C27.7041 33.3389 27.4319 33.7402 27.512 34.1565C27.5903 34.5747 28.0046 34.8456 28.4101 34.7637C29.6346 34.5278 30.7808 34.2134 31.817 33.8285C32.7552 33.463 32.2336 32.0539 31.2832 32.391Z" fill="#00B852"/>
<path d="M30.4773 17.4953C32.0183 13.915 32.7773 11.3927 32.7773 9.82867C32.7773 4.40833 28.369 0 22.9486 0C17.5283 0 13.12 4.40833 13.12 9.82867C13.12 11.3927 13.879 13.915 15.42 17.4953C-2.66568 20.378 -6.15405 33.557 12.016 38.5097C12.43 38.617 12.844 38.3717 12.9589 37.9653C13.0663 37.5513 12.8209 37.1373 12.4146 37.0223C-4.47505 32.3993 -0.465351 21.505 16.0563 18.9367C16.524 19.9563 16.9993 20.976 17.5053 21.988C16.8459 22.103 15.8186 22.1643 16.0026 23.0843C16.3016 24.1193 17.4593 23.4677 18.1953 23.3986C18.4023 23.8127 18.6093 24.219 18.8163 24.6177C19.79 26.519 20.7023 28.198 21.3387 29.3633C21.9213 30.4137 22.2816 31.05 22.2816 31.05C22.4196 31.2877 22.6726 31.4333 22.9486 31.4333C23.2246 31.4333 23.4776 31.2877 23.6156 31.05C24.6353 29.2713 26.4446 25.9133 27.702 23.3986C28.4379 23.4677 29.5956 24.1193 29.8946 23.0843C30.0786 22.1643 29.0513 22.103 28.3919 21.988C28.898 20.976 29.3733 19.9563 29.841 18.9367C46.3703 21.505 50.3723 32.3993 33.4826 37.0223C33.0763 37.1373 32.831 37.5513 32.9383 37.9653C33.0456 38.3793 33.4826 38.617 33.8813 38.5097C52.0513 33.557 48.5629 20.3703 30.4773 17.4953ZM22.9486 14.5667C20.411 14.5667 18.3486 12.5043 18.3486 9.96667C18.5633 3.87933 27.3339 3.87933 27.5486 9.96667C27.5486 12.5043 25.4863 14.5667 22.9486 14.5667Z" fill="#222426"/>
<path d="M31.3823 37.5665V45.2331C31.3823 45.6548 31.0373 45.9998 30.6156 45.9998H15.2823C14.8606 45.9998 14.5156 45.6548 14.5156 45.2331V37.5665C14.5156 37.1448 14.8606 36.7998 15.2823 36.7998H30.6156C31.0373 36.7998 31.3823 37.1448 31.3823 37.5665Z" fill="#00B852"/>
</svg>
