<svg width="44" height="46" viewBox="0 0 44 46" fill="none" xmlns="http://www.w3.org/2000/svg">
<path d="M35.3241 36.5461L39.2852 33.8896C41.5417 32.46 40.8143 28.7794 38.172 28.3322C37.3634 28.1722 36.5475 28.3393 35.868 28.7949L31.9061 31.4506L25.2262 27.9065C23.7447 27.0841 22.138 28.9864 23.2209 30.3022C23.2209 30.3021 26.7981 34.8087 26.7981 34.8087L24.7548 36.1787L21.3518 35.6553C19.8726 35.3563 18.7522 37.3107 19.8021 38.4143C19.8021 38.4143 22.7968 41.2229 22.7968 41.2229L24.2866 45.0997C24.3087 45.1564 24.3363 45.21 24.3702 45.2597C25.1323 46.483 27.1427 46.1138 27.4271 44.7102C27.4271 44.7103 28.2343 41.3648 28.2343 41.3648L30.2775 39.9956L33.0885 45.0075C33.4614 45.672 34.2284 45.9786 34.9623 45.7484C35.6891 45.5198 36.1455 44.8317 36.0706 44.0741L35.3241 36.5461ZM34.4964 44.2176L31.2581 38.4435C31.0423 38.0396 30.4811 37.9044 30.1049 38.1676C30.1049 38.1676 27.074 40.199 27.074 40.199C26.9061 40.3117 26.7862 40.4835 26.7389 40.6806L25.8584 44.3319C25.8537 44.35 25.845 44.3847 25.7914 44.3942C25.7694 44.3989 25.7552 44.3965 25.7441 44.391C25.6764 44.3093 24.1551 40.0311 24.0359 40.1722C24.0359 40.1722 21.0081 37.3328 21.0081 37.3328C21.0154 37.2781 21.0716 37.2349 21.1067 37.2508C21.1067 37.2508 24.8203 37.8223 24.8203 37.8223C25.0213 37.8546 25.2254 37.8081 25.3926 37.6954L28.4235 35.6632C28.8102 35.4156 28.8991 34.8429 28.6064 34.4902C28.6064 34.4902 24.4695 29.3325 24.4695 29.3325L31.5758 33.1036C31.8383 33.2416 32.156 33.2266 32.4035 33.0611L36.7666 30.1366C38.3663 29.097 39.9694 31.4521 38.3865 32.5487C38.3865 32.5487 34.0234 35.474 34.0234 35.474C33.7759 35.6403 33.6403 35.9281 33.6695 36.2245L34.4964 44.2176Z" fill="#00B852"/>
<path d="M43.3078 10.7726C43.2998 10.759 43.3069 5.7957 43.3046 5.77963C43.3046 4.38205 42.164 3.24456 40.7616 3.24456H35.6741V2.32858C35.6741 1.04447 34.6249 0 33.336 0C32.0464 0 30.9972 1.04447 30.9972 2.32858V3.24456H12.3134V2.32858C12.2418 -0.72915 7.71597 -0.750525 7.63657 2.32866C7.63657 2.32858 7.63657 3.24456 7.63657 3.24456H2.54902C1.14668 3.24456 0.00603503 4.38205 0.00603503 5.77967V10.757C-0.0127485 10.7799 0.0195717 35.3105 0.00599461 35.3394C0.00603497 36.737 1.14668 37.8737 2.54902 37.8737H17.7967C18.8639 37.8474 18.8549 36.2807 17.7967 36.2593C17.7967 36.2593 2.54902 36.2593 2.54902 36.2593C2.02797 36.2593 1.62043 35.8549 1.62043 35.3393V11.5798H41.6902V35.3393C41.6902 35.8549 41.2827 36.2593 40.7616 36.2593H37.4438C36.3784 36.272 36.3884 37.8612 37.4438 37.8736C37.4438 37.8736 40.7616 37.8736 40.7616 37.8736C42.164 37.8736 43.3046 36.7369 43.3046 35.3393C43.3118 35.3271 43.2957 10.7833 43.3078 10.7726ZM32.6116 2.32858C32.6281 1.39055 34.0431 1.3897 34.0597 2.32861C34.0597 2.32858 34.0597 3.24456 34.0597 3.24456H32.6116L32.6116 2.32858ZM9.25095 2.32858C9.26761 1.38976 10.6826 1.3905 10.699 2.32861C10.699 2.32858 10.699 3.24456 10.699 3.24456H9.25095L9.25095 2.32858ZM1.62041 9.96543V5.77967C1.62041 5.26334 2.02795 4.85896 2.54901 4.85896H7.63656V5.77731C7.63656 7.06063 8.68575 8.1051 9.97459 8.1051C11.0413 8.08534 11.031 6.50769 9.97456 6.4907C9.57572 6.4907 9.25095 6.17067 9.25095 5.77731V4.85896C9.86378 4.86041 29.7768 4.8579 30.9972 4.85896V5.7773C30.9972 7.06062 32.0464 8.10509 33.336 8.10509C34.3888 8.08961 34.404 6.5092 33.336 6.49069C32.9364 6.49069 32.6116 6.17065 32.6116 5.7773V4.85895C34.1613 4.85845 39.1445 4.85931 40.7616 4.85895C41.2827 4.85895 41.6902 5.26334 41.6902 5.77967V9.96543H1.62041Z" fill="#222426"/>
<path d="M15.1082 17.4596H19.0086C20.0686 17.4424 20.0705 15.8627 19.0086 15.8452H15.1082C14.0482 15.8624 14.0463 17.4421 15.1082 17.4596Z" fill="#222426"/>
<path d="M24.3016 17.4596H28.202C29.2619 17.4424 29.2639 15.8627 28.2019 15.8452H24.3016C23.2416 15.8624 23.2396 17.4421 24.3016 17.4596Z" fill="#222426"/>
<path d="M33.4949 17.4596H37.3953C38.4553 17.4424 38.4573 15.8627 37.3953 15.8452C37.3953 15.8452 33.4949 15.8452 33.4949 15.8452C32.435 15.8624 32.433 17.4421 33.4949 17.4596Z" fill="#222426"/>
<path d="M9.81525 20.5488H5.91485C4.85488 20.566 4.85292 22.1457 5.91488 22.1632H9.81525C10.8752 22.146 10.8772 20.5664 9.81525 20.5488Z" fill="#222426"/>
<path d="M9.81525 15.8452H5.91485C4.85488 15.8624 4.85292 17.4421 5.91488 17.4596H9.81525C10.8752 17.4424 10.8772 15.8627 9.81525 15.8452Z" fill="#222426"/>
<path d="M15.1082 22.1632H19.0086C20.0686 22.146 20.0705 20.5664 19.0086 20.5488H15.1082C14.0482 20.566 14.0463 22.1457 15.1082 22.1632Z" fill="#222426"/>
<path d="M24.3016 22.1632H28.202C29.2619 22.146 29.2639 20.5664 28.2019 20.5488H24.3016C23.2416 20.566 23.2396 22.1457 24.3016 22.1632Z" fill="#222426"/>
<path d="M33.4949 22.1632H37.3953C38.4553 22.146 38.4573 20.5664 37.3953 20.5488C37.3953 20.5488 33.4949 20.5488 33.4949 20.5488C32.435 20.566 32.433 22.1457 33.4949 22.1632Z" fill="#222426"/>
<path d="M9.81525 25.2534H5.91485C4.85488 25.2706 4.85292 26.8503 5.91488 26.8678H9.81525C10.8752 26.8506 10.8772 25.2709 9.81525 25.2534Z" fill="#222426"/>
<path d="M15.1082 26.8678H19.0086C20.0686 26.8506 20.0705 25.2709 19.0086 25.2534H15.1082C14.0482 25.2706 14.0463 26.8503 15.1082 26.8678Z" fill="#222426"/>
<path d="M24.3016 26.8678H28.202C29.2619 26.8506 29.2639 25.2709 28.2019 25.2534H24.3016C23.2416 25.2706 23.2396 26.8503 24.3016 26.8678Z" fill="#222426"/>
<path d="M33.4949 26.8678H37.3953C38.4553 26.8506 38.4573 25.2709 37.3953 25.2534C37.3953 25.2534 33.4949 25.2534 33.4949 25.2534C32.435 25.2706 32.433 26.8503 33.4949 26.8678Z" fill="#222426"/>
<path d="M9.81525 29.957H5.91485C4.85488 29.9742 4.85292 31.5539 5.91488 31.5714H9.81525C10.8752 31.5542 10.8772 29.9746 9.81525 29.957Z" fill="#222426"/>
<path d="M15.1082 31.5714H19.0086C20.0686 31.5542 20.0705 29.9746 19.0086 29.957H15.1082C14.0482 29.9742 14.0463 31.5539 15.1082 31.5714Z" fill="#222426"/>
</svg>
