<svg width="46" height="46" viewBox="0 0 46 46" fill="none" xmlns="http://www.w3.org/2000/svg">
<path d="M23.0006 36.2222C25.611 36.2234 28.1631 35.4503 30.334 34.0007C32.5049 32.5512 34.1972 30.4903 35.1966 28.0789C36.1961 25.6674 36.4579 23.0137 35.9489 20.4534C35.44 17.8932 34.1831 15.5414 32.3372 13.6955C30.4914 11.8497 28.1396 10.5928 25.5793 10.0838C23.0191 9.57487 20.3654 9.83667 17.9539 10.8361C15.5424 11.8356 13.4816 13.5279 12.0321 15.6988C10.5825 17.8697 9.80941 20.4218 9.81055 23.0322C9.81965 26.5276 11.2122 29.8772 13.6839 32.3489C16.1555 34.8205 19.5052 36.2131 23.0006 36.2222ZM27.1865 33.6923C27.7194 32.9444 28.1651 32.1381 28.5147 31.2889C29.0675 31.4812 29.6024 31.7217 30.1132 32.0076C29.2268 32.7116 28.2404 33.2794 27.1865 33.6923ZM31.4241 30.7657C30.7 30.3134 29.9288 29.9413 29.1242 29.6559C29.6735 27.7865 29.9789 25.8539 30.0327 23.9061H34.4485C34.2433 26.4684 33.1774 28.8859 31.4241 30.7657ZM34.4255 22.1409H30.0097C29.9558 20.1932 29.6505 18.2606 29.1012 16.3911C29.9058 16.1057 30.677 15.7336 31.4011 15.2814C33.1603 17.1687 34.2266 19.5973 34.4255 22.1697V22.1409ZM30.1132 14.0222C29.6024 14.3081 29.0675 14.5486 28.5147 14.7409C28.1631 13.9017 27.7175 13.1051 27.1865 12.3662C28.2393 12.7813 29.2254 13.349 30.1132 14.0509V14.0222ZM23.8631 11.7223C24.9613 12.1535 26.0308 13.384 26.8473 15.2239C25.8647 15.4306 24.8664 15.5537 23.8631 15.5919V11.7223ZM23.8631 17.3283C25.0694 17.2817 26.2688 17.1219 27.4452 16.8511C27.9538 18.5741 28.2341 20.3565 28.279 22.1524H23.8631V17.3283ZM23.8631 23.8774H28.279C28.2341 25.6715 27.9538 27.4519 27.4452 29.173C26.2677 28.9096 25.0688 28.7537 23.8631 28.7072V23.8774ZM23.8631 30.4322C24.8662 30.4732 25.8642 30.5963 26.8473 30.8002C26.0308 32.6401 24.9613 33.8706 23.8631 34.3018V30.4322ZM15.8881 32.0076C16.3989 31.7217 16.9337 31.4812 17.4866 31.2889C17.8362 32.1381 18.2818 32.9444 18.8148 33.6923C17.7608 33.2794 16.7744 32.7116 15.8881 32.0076ZM22.1382 34.3075C21.0399 33.8763 19.9705 32.6458 19.154 30.8059C20.137 30.602 21.1351 30.479 22.1382 30.4379V34.3075ZM22.1382 28.713C20.9325 28.7595 19.7335 28.9154 18.556 29.1787C18.0474 27.4576 17.7671 25.6772 17.7223 23.8831H22.1382V28.713ZM22.1382 22.1582H17.7223C17.7671 20.3622 18.0474 18.5799 18.556 16.8568C19.7325 17.1277 20.9318 17.2874 22.1382 17.3341V22.1582ZM22.1382 11.728V15.5976C21.1352 15.5632 20.1369 15.4439 19.154 15.2411C19.9705 13.4012 21.0399 12.1707 22.1382 11.7395V11.728ZM18.8148 12.3662C18.2818 13.1141 17.8362 13.9205 17.4866 14.7697C16.9337 14.5773 16.3989 14.3368 15.8881 14.0509C16.7758 13.349 17.7619 12.7813 18.8148 12.3662ZM14.5771 15.2814C15.3013 15.7336 16.0725 16.1057 16.8771 16.3911C16.3278 18.2606 16.0225 20.1932 15.9686 22.1409H11.5757C11.7746 19.5815 12.8323 17.1644 14.5771 15.2814ZM15.9916 23.9061C16.0454 25.8539 16.3507 27.7865 16.9001 29.6559C16.0955 29.9413 15.3243 30.3134 14.6001 30.7657C12.847 28.8721 11.7887 26.4394 11.5987 23.8659L15.9916 23.9061Z" fill="#222426"/>
<path d="M0.362971 23.4176C0.24578 23.5014 0.151305 23.6131 0.088066 23.7426C0.0248274 23.8721 -0.00518591 24.0153 0.00073269 24.1593C0.138857 27.1562 0.865654 30.0966 2.13966 32.8128C2.19286 32.9244 2.269 33.0236 2.36312 33.1039C2.45724 33.1841 2.56722 33.2436 2.6859 33.2785H2.79514L8.17122 34.2215C8.47021 34.6297 8.79795 35.0379 9.16019 35.4519L8.88995 40.7418C8.88353 40.8832 8.91158 41.0241 8.97168 41.1523C9.03177 41.2805 9.12212 41.3922 9.23494 41.4777C11.7082 43.3352 14.5328 44.6713 17.5377 45.4049C17.6728 45.4382 17.8139 45.4384 17.9491 45.4053C18.0843 45.3723 18.2094 45.307 18.3139 45.2151L22.2123 41.7652C22.7367 41.8055 23.2633 41.8055 23.7877 41.7652L27.6861 45.2151C27.8452 45.3548 28.0494 45.4323 28.2611 45.4336C28.331 45.4325 28.4005 45.4229 28.4681 45.4049C31.4711 44.6782 34.2957 43.3501 36.7708 41.5007C36.8836 41.4152 36.974 41.3035 37.0341 41.1753C37.0942 41.0471 37.1222 40.9062 37.1158 40.7648L36.8456 35.4749C37.2078 35.061 37.5355 34.6527 37.8345 34.2445L43.1876 33.3073C43.2711 33.2966 43.3525 33.2733 43.4291 33.2383C43.6223 33.1553 43.778 33.0037 43.8661 32.8128C45.1381 30.0962 45.8629 27.1558 45.9993 24.1593C46.0052 24.0153 45.9752 23.8721 45.9119 23.7426C45.8487 23.6131 45.7542 23.5014 45.637 23.4176L41.0372 20.1229C40.9452 19.5824 40.8302 19.065 40.6979 18.582L43.5268 13.4071C43.5918 13.2829 43.6258 13.1448 43.6258 13.0046C43.6258 12.8645 43.5918 12.7264 43.5268 12.6022C42.2164 10.0307 40.4358 7.72746 38.2773 5.81163C38.1683 5.7156 38.037 5.64843 37.8954 5.61629C37.7537 5.58415 37.6063 5.58805 37.4665 5.62764L31.6765 7.26633C31.2107 7.01334 30.7278 6.78335 30.2333 6.5706L27.8586 0.901285C27.8027 0.768325 27.7145 0.651389 27.6021 0.56104C27.4897 0.470692 27.3565 0.409778 27.2146 0.383801C24.4282 -0.127934 21.5718 -0.127934 18.7854 0.383801C18.6435 0.409778 18.5103 0.470692 18.3979 0.56104C18.2855 0.651389 18.1973 0.768325 18.1414 0.901285L15.7667 6.5706C15.2722 6.78335 14.7893 7.01334 14.3235 7.26633L8.52196 5.62189C8.38222 5.5823 8.23478 5.5784 8.09315 5.61054C7.95151 5.64268 7.8202 5.70985 7.71124 5.80588C5.55268 7.72171 3.77211 10.0249 2.46165 12.5964C2.39667 12.7206 2.36273 12.8587 2.36273 12.9989C2.36273 13.1391 2.39667 13.2772 2.46165 13.4014L5.29056 18.5762C5.15832 19.0592 5.04332 19.5767 4.95133 20.1172L0.362971 23.4176ZM6.98101 18.0587L4.2096 12.9816C5.32446 10.9006 6.77794 9.01961 8.51046 7.41583L14.197 9.02003C14.3086 9.0477 14.4245 9.05281 14.5381 9.03503C14.6516 9.01726 14.7605 8.97697 14.8583 8.91653C15.4668 8.57357 16.0967 8.27012 16.7442 8.00806C16.8499 7.96591 16.9462 7.90297 17.0271 7.82298C17.1081 7.74298 17.1722 7.64754 17.2157 7.54232L19.5501 2.01675C21.8353 1.64876 24.1647 1.64876 26.4499 2.01675L28.7843 7.58257C28.8278 7.68779 28.8919 7.78323 28.9729 7.86322C29.0538 7.94322 29.1501 8.00616 29.2558 8.04831C29.9023 8.2973 30.5322 8.5873 31.1417 8.91653C31.241 8.97342 31.3506 9.00985 31.4642 9.02367C31.5778 9.0375 31.693 9.02844 31.803 8.99703L37.4895 7.39283C39.2221 8.99661 40.6755 10.8776 41.7904 12.9586L39.019 18.0587C38.9149 18.2525 38.8881 18.4785 38.9442 18.6912C39.1379 19.3615 39.2896 20.0432 39.3985 20.7324C39.414 20.8466 39.4526 20.9565 39.512 21.0553C39.5713 21.1541 39.65 21.2399 39.7435 21.3074L44.2743 24.5445C44.1108 27.0066 43.5132 29.4204 42.5091 31.6743L37.1848 32.6058C37.0699 32.6234 36.9597 32.664 36.8609 32.7253C36.7621 32.7866 36.6767 32.8672 36.6098 32.9623C36.213 33.5327 35.7789 34.0763 35.3104 34.5895C35.2314 34.6719 35.1699 34.7693 35.1294 34.876C35.0889 34.9827 35.0703 35.0964 35.0746 35.2104L35.3391 40.3853C33.2541 41.8731 30.9162 42.9699 28.4393 43.6224L24.6099 40.23C24.4514 40.0895 24.2469 40.0118 24.035 40.0115H23.9775H23.7877C23.225 40.0518 22.66 40.0518 22.0973 40.0115H21.9075C21.794 40.0013 21.6796 40.0149 21.5716 40.0516C21.4637 40.0882 21.3646 40.147 21.2808 40.2243L17.4514 43.6167C14.9745 42.9641 12.6367 41.8673 10.5516 40.3795L10.8161 35.2047C10.822 35.0915 10.8052 34.9782 10.7667 34.8716C10.7282 34.7649 10.6688 34.6671 10.5919 34.5837C10.1234 34.0705 9.68927 33.5269 9.29244 32.9565C9.22557 32.8614 9.14017 32.7808 9.04136 32.7195C8.94255 32.6583 8.83237 32.6176 8.71745 32.6L3.42187 31.6686C2.41779 29.4146 1.82019 27.0008 1.65668 24.5388L6.15879 21.3131C6.25223 21.2457 6.331 21.1599 6.3903 21.0611C6.4496 20.9622 6.48821 20.8524 6.50378 20.7382C6.64449 20.0449 6.82886 19.3612 7.05576 18.6912C7.11186 18.4785 7.08514 18.2525 6.98101 18.0587Z" fill="#00B852"/>
</svg>
