<svg width="46" height="46" viewBox="0 0 46 46" fill="none" xmlns="http://www.w3.org/2000/svg">
<path d="M37.6926 15.8014L36.0366 12.2671L34.3806 15.8014L30.6699 16.3688L33.3533 19.1134L32.7169 23.0004L36.0366 21.1681L39.3562 23.0004L38.7199 19.1134L41.4032 16.3688L37.6926 15.8014Z" fill="#00B852"/>
<path d="M9.97018 12.2671L8.31418 15.8014L4.60352 16.3688L7.28685 19.1134L6.65051 23.0004L9.97018 21.1681L13.2898 23.0004L12.6535 19.1134L15.3368 16.3688L11.6262 15.8014L9.97018 12.2671Z" fill="#00B852"/>
<path d="M23.0047 3.06689L20.1603 9.12355L13.8047 10.0972L18.4047 14.8122L17.316 21.4669L23.0047 18.3235L28.6933 21.4669L27.6047 14.8122L32.2047 10.0972L25.849 9.12355L23.0047 3.06689Z" fill="#00B852"/>
<path d="M23.0042 9.63978e-07C17.6434 -0.00155044 12.4504 1.86955 8.32254 5.28999L9.30387 6.47066C13.4335 3.08264 18.678 1.35596 24.0126 1.62796C29.3473 1.89995 34.3889 4.15108 38.1526 7.94155C41.9162 11.732 44.1315 16.7895 44.3656 22.126C44.5997 27.4624 42.8358 32.6945 39.4185 36.8C39.0699 35.9398 38.5307 35.17 37.8415 34.5485C37.1523 33.927 36.331 33.47 35.4395 33.212C35.9861 32.8461 36.4005 32.3143 36.6217 31.6949C36.8429 31.0755 36.8591 30.4014 36.6679 29.7721C36.4767 29.1428 36.0883 28.5917 35.56 28.2C35.0316 27.8083 34.3914 27.5969 33.7337 27.5969C33.076 27.5969 32.4357 27.8083 31.9074 28.2C31.379 28.5917 30.9906 29.1428 30.7994 29.7721C30.6082 30.4014 30.6245 31.0755 30.8456 31.6949C31.0668 32.3143 31.4813 32.8461 32.0278 33.212C31.2419 33.4394 30.5093 33.8217 29.8734 34.3366C29.2374 34.8514 28.7109 35.4882 28.3248 36.2096C29.3468 36.9347 30.2099 37.8608 30.8611 38.9313C31.5124 40.0018 31.9381 41.1941 32.1122 42.4349C31.6266 42.6547 31.136 42.8617 30.6402 43.056C30.5055 41.4709 29.8812 39.9671 28.8537 38.7528C27.8262 37.5384 26.4464 36.6738 24.9055 36.2786C25.6363 35.8567 26.2075 35.2054 26.5304 34.4258C26.8533 33.6462 26.91 32.7818 26.6916 31.9667C26.4732 31.1516 25.9919 30.4314 25.3224 29.9177C24.653 29.404 23.8327 29.1255 22.9889 29.1255C22.145 29.1255 21.3247 29.404 20.6553 29.9177C19.9858 30.4314 19.5045 31.1516 19.2861 31.9667C19.0677 32.7818 19.1244 33.6462 19.4473 34.4258C19.7702 35.2054 20.3414 35.8567 21.0722 36.2786C19.5313 36.6738 18.1516 37.5384 17.124 38.7528C16.0965 39.9671 15.4722 41.4709 15.3375 43.056C14.8392 42.8719 14.3485 42.6573 13.8732 42.4349C14.1868 40.171 15.332 38.1049 17.0855 36.639C16.7254 35.817 16.1893 35.0842 15.515 34.492C14.8407 33.8999 14.0447 33.4629 13.1832 33.212C13.7289 32.8455 14.1424 32.3134 14.3627 31.6942C14.5831 31.0749 14.5986 30.4012 14.4071 29.7725C14.2156 29.1437 13.8271 28.5931 13.2989 28.2019C12.7707 27.8106 12.1308 27.5994 11.4735 27.5994C10.8162 27.5994 10.1763 27.8106 9.64815 28.2019C9.11998 28.5931 8.73149 29.1437 8.53995 29.7725C8.34842 30.4012 8.36398 31.0749 8.58434 31.6942C8.8047 32.3134 9.21819 32.8455 9.76387 33.212C8.99252 33.4474 8.27518 33.8328 7.65293 34.3458C7.03068 34.8589 6.51572 35.4896 6.13754 36.202C3.01253 32.2038 1.40493 27.2279 1.60002 22.1571C1.7951 17.0863 3.78025 12.2486 7.2032 8.50232L6.0302 7.47499C2.46814 11.3686 0.353319 16.3686 0.0404718 21.6365C-0.272375 26.9043 1.23578 32.1195 4.31197 36.4073C7.38816 40.6951 11.8453 43.7947 16.9357 45.1861C22.0261 46.5775 27.4401 46.1761 32.2697 44.0492C37.0992 41.9224 41.0505 38.1995 43.4608 33.5049C45.8711 28.8104 46.5937 23.4298 45.5074 18.2657C44.4212 13.1016 41.5922 8.46802 37.4949 5.1423C33.3976 1.81658 28.2813 0.000962756 23.0042 9.63978e-07Z" fill="#222426"/>
</svg>
