<svg width="82" height="83" viewBox="0 0 82 83" fill="none" xmlns="http://www.w3.org/2000/svg">
<path d="M79.9178 28.8599C81.1963 32.8139 81.8871 37.028 81.8871 41.408C81.8871 59.4883 70.1203 74.8159 53.8226 80.1687C49.8121 81.4912 45.5189 82.204 41.0643 82.204C36.6097 82.204 32.3166 81.4912 28.3016 80.1687C23.6586 73.5472 20.9355 65.4866 20.9355 56.7894C20.9355 55.0366 21.0477 53.3106 21.2585 51.616C27.1487 54.911 33.9405 56.7894 41.1675 56.7894C48.3945 56.7894 55.0338 54.9559 60.8746 51.7281C69.7883 46.8101 76.6609 38.6599 79.9178 28.8599Z" fill="url(#paint0_linear_792_601)"/>
<path d="M74.5178 18.0286C76.8281 21.3147 78.6584 24.9594 79.919 28.8597C76.6621 38.6597 69.7895 46.8099 60.8758 51.7279C59.2878 38.8883 51.7333 27.9003 41.0655 21.615C34.996 18.042 27.9215 15.9933 20.367 15.9933C15.9124 15.9933 11.6238 16.7061 7.61328 18.0286C14.9883 7.49783 27.2217 0.611816 41.0655 0.611816C54.9094 0.611816 67.1383 7.49783 74.5178 18.0286Z" fill="url(#paint1_linear_792_601)"/>
<path d="M20.3665 15.9932C27.9209 15.9932 34.9954 18.0419 41.065 21.6149C30.4286 27.8778 22.8831 38.8255 21.2592 51.6157C21.0484 53.3103 20.9362 55.0363 20.9362 56.7892C20.9362 65.4864 23.6592 73.5469 28.3023 80.1684C12.0045 74.8156 0.242188 59.4835 0.242188 41.4077C0.242188 36.9112 0.968923 32.585 2.31473 28.5413C3.57082 24.7621 5.36522 21.2249 7.61272 18.0285C11.6232 16.706 15.9119 15.9932 20.3665 15.9932Z" fill="url(#paint2_linear_792_601)"/>
<path style="mix-blend-mode:soft-light" d="M41.0636 0.611816C33.9263 0.611816 27.2152 2.4454 21.3789 5.66425C32.8721 4.86626 59.4742 7.1885 71.9005 42.8245C75.431 38.7897 78.1854 34.0601 79.917 28.8597C78.6564 24.9594 76.8261 21.3147 74.5158 18.0286C67.1363 7.49783 54.903 0.611816 41.0636 0.611816Z" fill="url(#paint3_linear_792_601)"/>
<path style="mix-blend-mode:soft-light" d="M74.1072 65.8225C78.3286 60.0707 80.8138 53.5792 81.6662 46.9712C75.5158 56.704 57.9127 76.7747 21.8047 65.7194C22.9755 70.9512 25.1602 75.9677 28.3363 80.4374C32.2302 81.7285 36.2542 82.4054 40.2692 82.4861C53.1306 82.7641 65.9202 76.9764 74.1027 65.8225H74.1072Z" fill="url(#paint4_linear_792_601)"/>
<path style="mix-blend-mode:soft-light" d="M27.1802 16.6072C15.3506 14.7512 7.61218 18.0328 7.6077 18.0328C0.717165 27.8911 -1.7636 40.6948 1.95531 53.1129C4.00542 59.9451 7.68844 65.8404 12.4436 70.5073C8.68883 60.5593 3.79458 37.5028 27.1802 16.6072Z" fill="url(#paint5_linear_792_601)"/>
<g style="mix-blend-mode:soft-light">
<path d="M41.0636 0.611816C33.9263 0.611816 27.2152 2.4454 21.3789 5.66425C32.8721 4.86626 59.4742 7.1885 71.9005 42.8245C75.431 38.7897 78.1854 34.0601 79.917 28.8597C78.6564 24.9594 76.8261 21.3147 74.5158 18.0286C67.1363 7.49783 54.903 0.611816 41.0636 0.611816Z" fill="url(#paint6_linear_792_601)"/>
</g>
<g style="mix-blend-mode:soft-light">
<path d="M74.1072 65.8225C78.3286 60.0707 80.8138 53.5792 81.6662 46.9712C75.5158 56.704 57.9127 76.7747 21.8047 65.7194C22.9755 70.9512 25.1602 75.9677 28.3363 80.4374C32.2302 81.7285 36.2542 82.4054 40.2692 82.4861C53.1306 82.7641 65.9202 76.9764 74.1027 65.8225H74.1072Z" fill="url(#paint7_linear_792_601)"/>
</g>
<g style="mix-blend-mode:soft-light">
<path d="M27.1802 16.6077C15.3506 14.7517 7.61218 18.0333 7.6077 18.0333C0.717165 27.8916 -1.7636 40.6953 1.95531 53.1134C4.00542 59.9456 7.68844 65.8409 12.4436 70.5077C8.68883 60.5598 3.79458 37.5033 27.1802 16.6077Z" fill="url(#paint8_linear_792_601)"/>
<path d="M13.0176 71.3773L12.2909 70.6645C7.37418 65.8452 3.72704 59.7975 1.74422 53.176C-1.876 41.1031 0.196544 28.2456 7.42801 17.9032L7.45941 17.8539L7.51325 17.827C7.55362 17.8045 12.3447 15.8096 19.9889 15.8096C22.3665 15.8096 24.7979 16.0023 27.2159 16.3834L27.6824 16.4551L27.328 16.7689C17.2031 25.8203 11.3219 36.221 9.85944 47.6843C8.64821 57.1436 10.7118 65.2714 12.6542 70.4224L13.0131 71.3728L13.0176 71.3773Z" fill="url(#paint9_linear_792_601)"/>
</g>
<defs>
<linearGradient id="paint0_linear_792_601" x1="20.9355" y1="55.5342" x2="81.8871" y2="55.5342" gradientUnits="userSpaceOnUse">
<stop stop-color="#6665E9"/>
<stop offset="0.76" stop-color="#4AD2D3"/>
<stop offset="1" stop-color="#4AD2D3"/>
</linearGradient>
<linearGradient id="paint1_linear_792_601" x1="7.61328" y1="26.1698" x2="79.919" y2="26.1698" gradientUnits="userSpaceOnUse">
<stop stop-color="#FDAA87"/>
<stop offset="0.24" stop-color="#FDAA87"/>
<stop offset="1" stop-color="#FC476E"/>
</linearGradient>
<linearGradient id="paint2_linear_792_601" x1="19.7698" y1="15.2669" x2="23.13" y2="79.1465" gradientUnits="userSpaceOnUse">
<stop stop-color="#620CC7"/>
<stop offset="0.76" stop-color="#FDAA87"/>
<stop offset="1" stop-color="#FDAA87"/>
</linearGradient>
<linearGradient id="paint3_linear_792_601" x1="31.7192" y1="0.176956" x2="92.9229" y2="42.5752" gradientUnits="userSpaceOnUse">
<stop stop-color="white"/>
<stop offset="1"/>
</linearGradient>
<linearGradient id="paint4_linear_792_601" x1="79.9845" y1="58.5552" x2="9.60538" y2="82.8911" gradientUnits="userSpaceOnUse">
<stop stop-color="white"/>
<stop offset="1"/>
</linearGradient>
<linearGradient id="paint5_linear_792_601" x1="1.98671" y1="31.222" x2="34.9046" y2="54.0253" gradientUnits="userSpaceOnUse">
<stop stop-color="white"/>
<stop offset="1"/>
</linearGradient>
<linearGradient id="paint6_linear_792_601" x1="31.7192" y1="0.176956" x2="92.9229" y2="42.5752" gradientUnits="userSpaceOnUse">
<stop stop-color="white"/>
<stop offset="1"/>
</linearGradient>
<linearGradient id="paint7_linear_792_601" x1="79.9845" y1="58.5552" x2="9.60538" y2="82.8911" gradientUnits="userSpaceOnUse">
<stop stop-color="white"/>
<stop offset="1"/>
</linearGradient>
<linearGradient id="paint8_linear_792_601" x1="1.98671" y1="31.2225" x2="34.9046" y2="54.0258" gradientUnits="userSpaceOnUse">
<stop stop-color="white"/>
<stop offset="1"/>
</linearGradient>
<linearGradient id="paint9_linear_792_601" x1="-0.00084037" y1="43.5957" x2="27.6824" y2="43.5957" gradientUnits="userSpaceOnUse">
<stop stop-color="#CAC2B8"/>
<stop offset="0.06" stop-color="#BBB3A9"/>
<stop offset="0.15" stop-color="#9E968E"/>
<stop offset="0.52" stop-color="#DEDEDE"/>
<stop offset="0.61" stop-color="#D2D0CF"/>
<stop offset="0.78" stop-color="#B3ADA8"/>
<stop offset="0.88" stop-color="#9E968E"/>
<stop offset="1" stop-color="#999999"/>
</linearGradient>
</defs>
</svg>
