<svg width="52" height="52" viewBox="0 0 52 52" fill="none" xmlns="http://www.w3.org/2000/svg">
<rect x="0.203125" y="0.00341797" width="51.5668" height="51.5668" rx="8.00175" fill="white" fill-opacity="0.1"/>
<g clip-path="url(#clip0_2588_2160)">
<path d="M28.5811 12.9547C31.8816 12.9547 34.5668 15.5741 34.5668 18.7939V28.3563C34.5668 31.5761 31.8816 34.1955 28.5811 34.1955H18.7786C15.478 34.1955 12.7928 31.5761 12.7928 28.3563V18.7939C12.7928 15.5741 15.478 12.9547 18.7786 12.9547H28.5811ZM28.5811 11H18.7786C14.3668 11 10.7891 14.4901 10.7891 18.7939V28.3563C10.7891 32.6601 14.3668 36.1502 18.7786 36.1502H28.5811C32.9928 36.1502 36.5706 32.6601 36.5706 28.3563V18.7939C36.5706 14.4901 32.9928 11 28.5811 11Z" fill="#DFFF76"/>
<path d="M28.9798 40.0002H21.9922V38.0456H28.9798C34.3858 38.0456 38.7849 33.7542 38.7849 28.4806V21.6641H40.7886V28.4806C40.7886 34.8333 35.4919 40.0002 28.9798 40.0002Z" fill="#DFFF76"/>
<path d="M23.2134 18.2681H24.8789L29.5373 28.8153H27.3378L26.3308 26.4018H21.6419L20.6655 28.8153H18.5117L23.2159 18.2681H23.2134ZM25.657 24.7919L23.9915 20.503L22.2954 24.7919H25.6545H25.657Z" fill="#DFFF76"/>
</g>
<defs>
<clipPath id="clip0_2588_2160">
<rect width="30" height="29" fill="white" transform="translate(10.7891 11)"/>
</clipPath>
</defs>
</svg>
