<svg width="24" height="25" viewBox="0 0 24 25" fill="none" xmlns="http://www.w3.org/2000/svg">
<path d="M22.4503 17.8505C22.2056 17.5899 21.3417 16.8192 19.7536 15.7997C18.1537 14.7713 16.9739 14.13 16.6354 13.9805C16.6056 13.9673 16.5727 13.9624 16.5404 13.9665C16.508 13.9705 16.4773 13.9833 16.4517 14.0035C15.9065 14.4286 14.9887 15.2096 14.9395 15.2517C14.6217 15.5241 14.6217 15.5241 14.3615 15.4392C13.904 15.2892 12.4828 14.5346 11.2443 13.2933C10.0059 12.0521 9.21231 10.5957 9.06231 10.1386C8.97653 9.878 8.97653 9.878 9.24981 9.56019C9.292 9.51097 10.0734 8.59315 10.4986 8.04847C10.5187 8.02282 10.5315 7.99216 10.5356 7.95978C10.5396 7.92741 10.5348 7.89454 10.5215 7.86472C10.372 7.52581 9.73075 6.34644 8.70231 4.74659C7.68137 3.15894 6.91168 2.29503 6.65106 2.05034C6.62714 2.02777 6.59758 2.01207 6.56549 2.0049C6.5334 1.99772 6.49997 1.99933 6.46871 2.00956C5.55769 2.32265 4.67869 2.72212 3.84371 3.20253C3.03766 3.6711 2.27455 4.20991 1.56325 4.81269C1.53842 4.83379 1.5198 4.86126 1.5094 4.89215C1.49899 4.92303 1.49719 4.95617 1.50418 4.988C1.60215 5.44456 2.07043 7.3505 3.52356 9.9905C5.00621 12.6849 6.03371 14.0653 8.21106 16.2352C10.3884 18.405 11.8125 19.4944 14.5097 20.9771C17.1497 22.4302 19.0565 22.8989 19.5122 22.996C19.5441 23.0029 19.5772 23.0011 19.6082 22.9907C19.6391 22.9803 19.6667 22.9617 19.6879 22.9369C20.2906 22.2256 20.8293 21.4625 21.2976 20.6564C21.778 19.8214 22.1774 18.9424 22.4906 18.0314C22.5006 18.0004 22.5022 17.9673 22.4951 17.9355C22.488 17.9037 22.4725 17.8743 22.4503 17.8505Z" fill="#00B852"/>
</svg>
