<svg width="28" height="30" viewBox="0 0 28 30" fill="none" xmlns="http://www.w3.org/2000/svg">
<path d="M26.7047 21.8021L26.7462 21.7189C26.9016 21.4081 26.9769 21.0634 26.9655 20.7161C26.9541 20.3688 26.8563 20.0299 26.6809 19.7299L23.3737 14.0002C23.0821 13.4869 22.6171 13.0943 22.0621 12.893C21.5071 12.6917 20.8985 12.6948 20.3456 12.9018L15.0019 14.7186L14.23 13.4955C14.2503 13.4381 14.2623 13.3782 14.2656 13.3174V0.848633C14.2656 0.691161 14.2031 0.540137 14.0917 0.428788C13.9804 0.317438 13.8293 0.254883 13.6719 0.254883H1.20312C1.04565 0.254883 0.89463 0.317438 0.78328 0.428788C0.671931 0.540137 0.609375 0.691161 0.609375 0.848633V13.3174C0.609375 13.4749 0.671931 13.6259 0.78328 13.7372C0.89463 13.8486 1.04565 13.9111 1.20312 13.9111H9.06437L11.1128 17.7408L10.3588 18.5899C10.071 18.9086 9.89271 19.3111 9.84998 19.7384C9.80725 20.1657 9.90231 20.5955 10.1213 20.9649L12.4488 24.9905C12.6762 25.3878 13.0322 25.6956 13.4581 25.8633L15.6372 26.7124L16.6584 28.4936C16.7986 28.7371 16.9855 28.9505 17.2084 29.1215C17.4313 29.2925 17.6858 29.4177 17.9573 29.49C18.2288 29.5623 18.5119 29.5802 18.7903 29.5427C19.0687 29.5052 19.337 29.413 19.5797 29.2715L25.9447 25.5961C26.1974 25.4517 26.4186 25.258 26.5951 25.0265C26.7715 24.795 26.8997 24.5303 26.9719 24.2483C27.0407 23.9924 27.0567 23.7251 27.0189 23.4628C26.9812 23.2004 26.8904 22.9485 26.7522 22.7224C26.6641 22.5867 26.6133 22.4302 26.6049 22.2686C26.5966 22.107 26.631 21.9461 26.7047 21.8021ZM1.76719 12.7236V1.44238H13.0484V11.6668L11.2019 8.75145C11.5612 7.93167 11.6462 7.0178 11.4444 6.1458C11.2426 5.27379 10.7646 4.49024 10.0817 3.9117C9.39873 3.33315 8.54726 2.99054 7.65394 2.93482C6.76061 2.8791 5.87317 3.11326 5.12362 3.60245C4.37407 4.09164 3.80247 4.80973 3.49385 5.6499C3.18522 6.49007 3.15606 7.40742 3.41071 8.26549C3.66536 9.12356 4.19021 9.8765 4.90719 10.4123C5.62416 10.9481 6.49494 11.2381 7.39 11.2393H7.59188L8.39344 12.7414L1.76719 12.7236ZM6.09562 8.3477L6.98625 10.0161C6.54809 9.94785 6.13079 9.78227 5.76501 9.53157C5.39923 9.28087 5.09426 8.9514 4.8725 8.56738C4.67449 8.22963 4.54525 7.85604 4.49221 7.46813C4.43917 7.08022 4.46338 6.68565 4.56346 6.30714C4.66353 5.92862 4.83748 5.57364 5.07531 5.26263C5.31313 4.95162 5.61012 4.69072 5.94918 4.49496C6.28825 4.2992 6.66268 4.17243 7.05094 4.12197C7.43919 4.0715 7.83359 4.09833 8.21143 4.20092C8.58927 4.3035 8.94309 4.4798 9.25252 4.71968C9.56194 4.95956 9.82086 5.25828 10.0144 5.59863C10.328 6.13656 10.4612 6.76079 10.3944 7.37988L9.65812 6.28145C9.35766 5.86065 8.91073 5.56738 8.4051 5.45924C7.89947 5.3511 7.37168 5.4359 6.92538 5.69699C6.47908 5.95808 6.14651 6.37659 5.99298 6.87033C5.83946 7.36407 5.87607 7.89738 6.09562 8.36551V8.3477ZM25.8081 23.9158C25.7352 24.1674 25.5669 24.3804 25.3391 24.5096L18.9741 28.2086C18.7557 28.3341 18.4966 28.3683 18.2531 28.3039C18.0096 28.2394 17.8014 28.0814 17.6737 27.8643L16.5456 25.9108C16.4794 25.7924 16.3747 25.7002 16.2487 25.6496L13.8737 24.7293C13.6988 24.6581 13.5525 24.5307 13.4581 24.3671L11.1425 20.3414C11.0538 20.1909 11.0152 20.016 11.0323 19.8421C11.0494 19.6681 11.1212 19.5041 11.2375 19.3736L11.7006 18.8571L12.3775 20.1277C12.4108 20.202 12.4591 20.2686 12.5193 20.3234C12.5794 20.3782 12.6502 20.4201 12.7272 20.4464C12.8043 20.4727 12.8859 20.4829 12.967 20.4764C13.0482 20.4698 13.1271 20.4466 13.1989 20.4083C13.2707 20.3699 13.3338 20.3172 13.3844 20.2534C13.435 20.1897 13.4719 20.1161 13.4929 20.0375C13.5139 19.9588 13.5184 19.8767 13.5063 19.7962C13.4942 19.7157 13.4657 19.6386 13.4225 19.5696L7.12875 7.78957C7.0075 7.58722 6.97159 7.34499 7.02894 7.11616C7.08628 6.88734 7.23218 6.69067 7.43453 6.56942C7.63688 6.44816 7.87912 6.41226 8.10794 6.4696C8.33676 6.52695 8.53343 6.67284 8.65469 6.8752L14.2419 15.7221C14.3125 15.8359 14.4196 15.9225 14.5458 15.9678C14.6719 16.0131 14.8096 16.0144 14.9366 15.9714L20.7672 14.0002C21.058 13.8952 21.3768 13.8973 21.6663 14.0061C21.9557 14.1149 22.1969 14.3233 22.3466 14.5939L25.6537 20.3236C25.731 20.4539 25.7747 20.6013 25.7809 20.7526C25.7871 20.9039 25.7557 21.0544 25.6894 21.1905L25.6478 21.2736C25.4899 21.5918 25.4148 21.9447 25.4293 22.2996C25.4438 22.6545 25.5476 23 25.7309 23.3043C25.7858 23.3952 25.821 23.4965 25.8343 23.6019C25.8476 23.7072 25.8387 23.8141 25.8081 23.9158Z" fill="white"/>
</svg>
