<svg width="120" height="120" viewBox="0 0 120 120" fill="none" xmlns="http://www.w3.org/2000/svg">
<g clip-path="url(#clip0_2527_271)">
<mask id="mask0_2527_271" style="mask-type:luminance" maskUnits="userSpaceOnUse" x="0" y="0" width="120" height="120">
<path d="M120 0H0V120H120V0Z" fill="white"/>
</mask>
<g mask="url(#mask0_2527_271)">
<path d="M36.8421 33.0517L25.8555 46.3121H94.0692L83.8979 33.0517H36.8421Z" fill="#FCF7EB"/>
<path d="M36.8421 33.0517L25.8555 46.3121H94.0692L83.8979 33.0517H36.8421Z" fill="url(#paint0_linear_2527_271)"/>
<path d="M80.5746 46.273L93.9618 46.2909L60.1211 86.9158L80.5746 46.273Z" fill="#FCE8AF"/>
<path d="M83.9229 33.0436L80.707 46.286L94.0942 46.3039L83.9229 33.0436Z" fill="#FFF3D9"/>
<path d="M25.8555 46.3121L35.2342 46.2902L60.2286 86.937L25.8555 46.3121Z" fill="#D09C02"/>
<path d="M36.8421 33.0517L25.8555 46.3121L35.2342 46.2902L36.8421 33.0517Z" fill="#F2BC31"/>
<path d="M35.2461 46.3035H58.2483L60.2158 86.9284L35.2461 46.3035Z" fill="#E9B41E"/>
<path d="M46.294 33.0878L35.207 46.3482H58.2093L46.294 33.0878Z" fill="#F9D061"/>
<path d="M58.1992 46.2909H80.6046L60.1667 86.9158L58.1992 46.2909Z" fill="#F9D061"/>
<path d="M69.8325 33.1022L58.1953 46.3626H80.6006L69.8325 33.1022Z" fill="#FCE6A8"/>
<path d="M80.5746 46.273L93.9618 46.2909L60.1211 86.9158L80.5746 46.273Z" fill="#FCE8AF"/>
<path d="M83.9229 33.0436L80.707 46.286L94.0942 46.3039L83.9229 33.0436Z" fill="#FFF3D9"/>
<path d="M34.0021 25.1329C34.0021 25.2403 33.915 25.3273 33.8077 25.3273C33.7003 25.3273 33.6133 25.2403 33.6133 25.1329C33.6133 25.0255 33.7003 24.9385 33.8077 24.9385C33.915 24.9385 34.0021 25.0255 34.0021 25.1329Z" fill="#FFFDF1"/>
<path d="M30.4744 26.7655L31.0304 23.809C31.0846 23.5208 31.4984 23.5235 31.5487 23.8124L32.0358 26.609C32.055 26.7191 32.1415 26.805 32.2516 26.8235L33.4917 27.032C33.7604 27.0772 33.792 27.4508 33.5346 27.5405L32.3476 27.9538C32.2631 27.9832 32.1994 28.0535 32.1783 28.1405L31.5196 30.8599C31.4531 31.1343 31.06 31.126 31.0053 30.8489L30.4966 28.2718C30.4764 28.1697 30.398 28.089 30.2965 28.066L29.0645 27.7864C28.7937 27.725 28.79 27.3406 29.0595 27.2739L30.2788 26.9725C30.3789 26.9478 30.4553 26.8669 30.4744 26.7655Z" fill="#FFFDF1"/>
<path d="M95.5084 41.1572L96.5575 35.5783C96.6598 35.0345 97.4405 35.0397 97.5355 35.5849L98.4547 40.8619C98.4909 41.0695 98.6541 41.2318 98.8619 41.2667L101.202 41.66C101.709 41.7453 101.768 42.4504 101.283 42.6195L99.0431 43.3993C98.8836 43.4548 98.7632 43.5876 98.7235 43.7516L97.4806 48.883C97.3552 49.4009 96.6133 49.3851 96.5101 48.8623L95.5502 43.9994C95.5122 43.8067 95.3642 43.6545 95.1727 43.611L92.8479 43.0836C92.3371 42.9677 92.33 42.2422 92.8386 42.1165L95.1393 41.5477C95.3282 41.5011 95.4724 41.3483 95.5084 41.1572Z" fill="#FFFDF1"/>
<path d="M46.5001 78.6901L47.5759 72.9691C47.6808 72.4115 48.4814 72.4169 48.5789 72.9759L49.5215 78.3874C49.5586 78.6003 49.7259 78.7666 49.9391 78.8024L52.3386 79.2058C52.8586 79.2933 52.9196 80.0163 52.4217 80.1897L50.1248 80.9894C49.9613 81.0463 49.8378 81.1825 49.7971 81.3507L48.5226 86.6128C48.394 87.1439 47.6332 87.1277 47.5273 86.5916L46.543 81.6048C46.504 81.4072 46.3522 81.2511 46.1558 81.2065L43.7719 80.6657C43.248 80.5468 43.2407 79.8029 43.7622 79.6739L46.1216 79.0907C46.3153 79.0428 46.4632 78.8862 46.5001 78.6901Z" fill="#FFFDF1"/>
</g>
</g>
<defs>
<linearGradient id="paint0_linear_2527_271" x1="88.9129" y1="40.0543" x2="26.0179" y2="40.8364" gradientUnits="userSpaceOnUse">
<stop stop-color="#FFF1CF"/>
<stop offset="0.5" stop-color="#FDE8AF"/>
<stop offset="1" stop-color="#FBDF8F"/>
</linearGradient>
<clipPath id="clip0_2527_271">
<rect width="120" height="120" fill="white"/>
</clipPath>
</defs>
</svg>
