<svg width="28" height="20" viewBox="0 0 28 20" fill="none" xmlns="http://www.w3.org/2000/svg">
<path fill-rule="evenodd" clip-rule="evenodd" d="M26.7974 0.933664C26.9375 1.03872 27.0555 1.17034 27.1447 1.32101C27.2339 1.47167 27.2926 1.63843 27.3173 1.81177C27.3421 1.98511 27.3325 2.16162 27.289 2.33124C27.2456 2.50086 27.1691 2.66025 27.0641 2.80033L19.0641 13.467C18.8596 13.7398 18.5583 13.9238 18.2223 13.9813C17.8863 14.0389 17.541 13.9655 17.2574 13.7763L10.3067 9.143L3.06406 18.8003C2.959 18.9404 2.82739 19.0584 2.67672 19.1476C2.52605 19.2368 2.35929 19.2955 2.18596 19.3203C2.01262 19.345 1.83611 19.3354 1.66649 19.292C1.49687 19.2485 1.33747 19.1721 1.1974 19.067C1.05732 18.9619 0.939307 18.8303 0.850096 18.6797C0.760886 18.529 0.702226 18.3622 0.677463 18.1889C0.652701 18.0156 0.662322 17.839 0.705778 17.6694C0.749233 17.4998 0.825672 17.3404 0.930729 17.2003L8.93073 6.53366C9.13524 6.26091 9.43646 6.07685 9.77248 6.01932C10.1085 5.96179 10.4538 6.03515 10.7374 6.22433L17.6881 10.8577L24.9307 1.20033C25.1429 0.917434 25.4588 0.730408 25.8088 0.680398C26.1589 0.630389 26.5145 0.721491 26.7974 0.933664Z" fill="white"/>
</svg>
