<svg width="32" height="28" viewBox="0 0 32 28" fill="none" xmlns="http://www.w3.org/2000/svg">
<path d="M30.765 6.48002C30.765 6.15017 30.634 5.83383 30.4008 5.6006C30.1675 5.36736 29.8512 5.23633 29.5213 5.23633H2.47087C2.30749 5.23625 2.1457 5.26836 1.99474 5.33082C1.84378 5.39329 1.7066 5.48488 1.59105 5.60038C1.4755 5.71588 1.38383 5.85301 1.32129 6.00394C1.25875 6.15487 1.22656 6.31664 1.22656 6.48002V24.8345C1.22656 25.347 1.43014 25.8385 1.79252 26.2008C2.1549 26.5632 2.64639 26.7668 3.15887 26.7668H28.8327C29.3452 26.7668 29.8367 26.5632 30.1991 26.2008C30.5614 25.8385 30.765 25.347 30.765 24.8345V6.4794V6.48002Z" stroke="white" stroke-width="2" stroke-miterlimit="10" stroke-linecap="round" stroke-linejoin="round"/>
<path d="M25.9158 26.7653V9.42381M6.06964 26.7653V9.42381M18.6235 11.91C25.0419 10.87 30.765 6.48227 30.765 6.48227M1.22656 6.48227C1.22656 6.48227 6.95579 10.87 13.3619 11.91M20.0555 5.23673H11.9318V2.34811C11.9318 1.73211 12.4309 1.23242 13.0475 1.23242H18.9392C19.5558 1.23242 20.0555 1.73211 20.0555 2.34811V5.23673Z" stroke="white" stroke-width="2" stroke-miterlimit="10" stroke-linecap="round" stroke-linejoin="round"/>
<path d="M18.6893 12.1378C18.6893 12.8492 17.4831 13.4215 16.0001 13.4215C14.5108 13.4215 13.3047 12.8492 13.3047 12.1378C13.3047 12.0424 13.3231 11.9538 13.3662 11.8658C13.6308 11.2861 14.7078 10.8535 16.0001 10.8535C17.2862 10.8535 18.3631 11.2861 18.6278 11.8658C18.6708 11.9538 18.6893 12.0424 18.6893 12.1378Z" stroke="white" stroke-width="2" stroke-miterlimit="10" stroke-linecap="round" stroke-linejoin="round"/>
</svg>
