<svg width="52" height="52" viewBox="0 0 52 52" fill="none" xmlns="http://www.w3.org/2000/svg">
<rect x="0.113281" y="0.00341797" width="51.5668" height="51.5668" rx="8.00175" fill="white" fill-opacity="0.1"/>
<g clip-path="url(#clip0_2588_2133)">
<path d="M28.0748 13.4437C31.1575 13.4437 33.6655 15.9517 33.6655 19.0344V28.19C33.6655 31.2727 31.1575 33.7807 28.0748 33.7807H18.9192C15.8365 33.7807 13.3285 31.2727 13.3285 28.19V19.0344C13.3285 15.9517 15.8365 13.4437 18.9192 13.4437H28.0748ZM28.0748 11.5723H18.9192C14.7986 11.5723 11.457 14.9139 11.457 19.0344V28.19C11.457 32.3106 14.7986 35.6522 18.9192 35.6522H28.0748C32.1953 35.6522 35.5369 32.3106 35.5369 28.19V19.0344C35.5369 14.9139 32.1953 11.5723 28.0748 11.5723Z" fill="#C861FF"/>
<path d="M28.4483 39.3381H21.9219V37.4666H28.4483C33.4975 37.4666 37.6062 33.3579 37.6062 28.3087V21.7822H39.4777V28.3087C39.4777 34.391 34.5306 39.3381 28.4483 39.3381Z" fill="#C861FF"/>
<path d="M22.3633 18.5308H24.1611V28.6292H22.3633V18.5308Z" fill="#C861FF"/>
</g>
<defs>
<clipPath id="clip0_2588_2133">
<rect width="28.02" height="27.7659" fill="white" transform="translate(11.457 11.5723)"/>
</clipPath>
</defs>
</svg>
