<svg width="24" height="27" viewBox="0 0 24 27" fill="none" xmlns="http://www.w3.org/2000/svg">
<path d="M12.0017 26.2954C11.7358 26.2952 11.4775 26.2073 11.2667 26.0454C11.2667 26.0454 10.3442 25.3504 7.79416 23.9529C3.89166 21.8154 2.09666 19.2504 1.59916 15.1004C1.21416 11.8879 0.964159 5.17786 0.954159 4.89286C0.947053 4.72141 0.976648 4.55041 1.04096 4.39132C1.10528 4.23224 1.20283 4.08872 1.32709 3.97037C1.45135 3.85203 1.59946 3.76159 1.76149 3.70511C1.92353 3.64862 2.09576 3.6274 2.26666 3.64286C2.29166 3.64286 4.90166 3.86286 7.14666 3.23286C8.62528 2.80644 10.0091 2.10221 11.2242 1.15786C11.442 0.975143 11.7173 0.875 12.0017 0.875C12.286 0.875 12.5613 0.975143 12.7792 1.15786C13.993 2.10817 15.3769 2.81835 16.8567 3.25036C19.1067 3.88036 21.7117 3.66036 21.7392 3.66036C21.9099 3.64486 22.0821 3.66608 22.244 3.72258C22.4059 3.77908 22.5539 3.86957 22.6779 3.98795C22.802 4.10634 22.8993 4.2499 22.9634 4.40899C23.0274 4.56808 23.0566 4.73903 23.0492 4.91036C23.0492 5.19536 22.7992 11.9104 22.4042 15.1179C21.9042 19.2679 20.1117 21.8329 16.2117 23.9679C13.6617 25.3654 12.7442 26.0579 12.7342 26.0654C12.5216 26.2198 12.2644 26.3006 12.0017 26.2954ZM3.41416 6.09786C3.50166 8.25036 3.71916 12.5304 4.00166 14.8154C4.35166 17.7354 5.27416 19.8154 8.95916 21.8379C10.4592 22.6554 11.4242 23.2504 12.0117 23.6329C12.5992 23.2504 13.5717 22.6554 15.0642 21.8379C18.7517 19.8204 19.6617 17.7354 20.0017 14.8154C20.2842 12.5304 20.5017 8.25036 20.5892 6.09786C19.1102 6.11179 17.6359 5.93108 16.2042 5.56036C14.707 5.12909 13.2883 4.46152 12.0017 3.58286C10.715 4.46152 9.29632 5.12909 7.79916 5.56036C6.36739 5.93108 4.89307 6.11179 3.41416 6.09786Z" fill="white"/>
</svg>
