<svg width="30" height="30" viewBox="0 0 30 30" fill="none" xmlns="http://www.w3.org/2000/svg">
<path fill-rule="evenodd" clip-rule="evenodd" d="M15.0053 0.331055C6.92004 0.331055 0.328125 6.91364 0.328125 14.9975C0.328125 23.0814 6.92137 29.672 15.0053 29.672C23.0892 29.672 29.6691 23.0814 29.6691 14.9975C29.6691 6.91364 23.0892 0.331055 15.0053 0.331055ZM15.0053 2.99769C16.5817 2.99505 18.1432 3.30366 19.6001 3.90581C21.0571 4.50796 22.3808 5.3918 23.4954 6.50665C24.61 7.6215 25.4935 8.94542 26.0954 10.4025C26.6972 11.8595 27.0054 13.4211 27.0025 14.9975C27.0056 16.5744 26.6975 18.1364 26.0959 19.594C25.4942 21.0516 24.6108 22.3761 23.4963 23.4916C22.3817 24.6072 21.058 25.4918 19.6009 26.0947C18.1439 26.6977 16.5822 27.0071 15.0053 27.0054C13.4277 27.0073 11.8653 26.6981 10.4074 26.0953C8.9495 25.4926 7.62483 24.6082 6.5092 23.4928C5.39357 22.3775 4.5089 21.053 3.90584 19.5952C3.30278 18.1375 2.99318 16.5751 2.99476 14.9975C2.99476 8.35495 8.36269 2.99769 15.0053 2.99769ZM14.9839 5.64565C14.8077 5.64738 14.6336 5.68403 14.4716 5.75348C14.3096 5.82294 14.163 5.92382 14.0402 6.05028C13.9175 6.17675 13.821 6.3263 13.7564 6.49029C13.6919 6.65427 13.6604 6.82943 13.664 7.00564V14.9975C13.6647 15.173 13.7001 15.3466 13.768 15.5083C13.836 15.6701 13.9352 15.8168 14.06 15.9402L19.3932 21.2761C19.5166 21.4031 19.664 21.5042 19.8268 21.5736C19.9897 21.6429 20.1647 21.6792 20.3418 21.6802C20.5188 21.6812 20.6942 21.647 20.8579 21.5795C21.0215 21.512 21.1701 21.4126 21.2949 21.287C21.4197 21.1615 21.5183 21.0124 21.5848 20.8484C21.6514 20.6844 21.6847 20.5087 21.6826 20.3317C21.6806 20.1547 21.6434 19.9799 21.5731 19.8174C21.5028 19.655 21.4008 19.5081 21.2732 19.3855L16.3333 14.4455V7.00564C16.3368 6.82696 16.3045 6.64938 16.2381 6.48346C16.1717 6.31754 16.0726 6.16666 15.9467 6.03979C15.8208 5.91293 15.6707 5.81266 15.5054 5.74495C15.34 5.67724 15.1626 5.64347 14.9839 5.64565Z" fill="white"/>
</svg>
