<svg width="255" height="66" viewBox="0 0 255 66" fill="none" xmlns="http://www.w3.org/2000/svg">
<path d="M15.7924 49.9307C12.9733 57.7514 18.7681 66 27.0814 66H227.542C235.96 66 241.761 57.5597 238.746 49.701L229.92 26.701C228.14 22.0621 223.685 19 218.717 19H35.3721C30.3137 19 25.7985 22.172 24.0831 26.9307L15.7924 49.9307Z" fill="#AF6710"/>
<path d="M4.95275 42.3742C2.5005 50.111 8.2758 58 16.3919 58H238.286C246.496 58 252.281 49.9419 249.657 42.1636L238.185 8.16358C236.539 3.28482 231.963 0 226.814 0H27.1686C21.9379 0 17.3098 3.38807 15.7294 8.37424L4.95275 42.3742Z" fill="#EDA54E"/>
<path d="M4.95275 42.3742C2.5005 50.111 8.2758 58 16.3919 58H238.286C246.496 58 252.281 49.9419 249.657 42.1636L238.185 8.16358C236.539 3.28482 231.963 0 226.814 0H27.1686C21.9379 0 17.3098 3.38807 15.7294 8.37424L4.95275 42.3742Z" fill="url(#paint0_linear_252_9738)"/>
<defs>
<linearGradient id="paint0_linear_252_9738" x1="0" y1="29" x2="255" y2="29" gradientUnits="userSpaceOnUse">
<stop stop-color="#EDA54E"/>
<stop offset="0.5" stop-color="#F6AF5A"/>
<stop offset="1" stop-color="#9D5500"/>
</linearGradient>
</defs>
</svg>
