<svg width="24" height="24" viewBox="0 0 24 24" fill="none" xmlns="http://www.w3.org/2000/svg">
<path d="M7.33333 0H3.33333C2.44928 0 1.60143 0.351189 0.976311 0.976311C0.351189 1.60143 0 2.44928 0 3.33333C0 4.21739 0.351189 5.06523 0.976311 5.69036C1.60143 6.31548 2.44928 6.66667 3.33333 6.66667H7.33333C8.21739 6.66667 9.06524 6.31548 9.69036 5.69036C10.3155 5.06523 10.6667 4.21739 10.6667 3.33333C10.6667 2.44928 10.3155 1.60143 9.69036 0.976311C9.06524 0.351189 8.21739 0 7.33333 0ZM7.33333 5.33333H3.33333C2.8029 5.33333 2.29419 5.12262 1.91912 4.74755C1.54405 4.37247 1.33333 3.86377 1.33333 3.33333C1.33333 2.8029 1.54405 2.29419 1.91912 1.91912C2.29419 1.54405 2.8029 1.33333 3.33333 1.33333H7.33333C7.86377 1.33333 8.37247 1.54405 8.74755 1.91912C9.12262 2.29419 9.33333 2.8029 9.33333 3.33333C9.33333 3.86377 9.12262 4.37247 8.74755 4.74755C8.37247 5.12262 7.86377 5.33333 7.33333 5.33333ZM7.33333 9.33333H3.33333C2.44928 9.33333 1.60143 9.68452 0.976311 10.3096C0.351189 10.9348 0 11.7826 0 12.6667V20.6667C0 21.5507 0.351189 22.3986 0.976311 23.0237C1.60143 23.6488 2.44928 24 3.33333 24H7.33333C8.21739 24 9.06524 23.6488 9.69036 23.0237C10.3155 22.3986 10.6667 21.5507 10.6667 20.6667V12.6667C10.6667 11.7826 10.3155 10.9348 9.69036 10.3096C9.06524 9.68452 8.21739 9.33333 7.33333 9.33333ZM9.33333 20.6667C9.33333 21.1971 9.12262 21.7058 8.74755 22.0809C8.37247 22.456 7.86377 22.6667 7.33333 22.6667H3.33333C2.8029 22.6667 2.29419 22.456 1.91912 22.0809C1.54405 21.7058 1.33333 21.1971 1.33333 20.6667V12.6667C1.33333 12.1362 1.54405 11.6275 1.91912 11.2525C2.29419 10.8774 2.8029 10.6667 3.33333 10.6667H7.33333C7.86377 10.6667 8.37247 10.8774 8.74755 11.2525C9.12262 11.6275 9.33333 12.1362 9.33333 12.6667V20.6667ZM20.6667 17.3333H16.6667C15.7826 17.3333 14.9348 17.6845 14.3096 18.3096C13.6845 18.9348 13.3333 19.7826 13.3333 20.6667C13.3333 21.5507 13.6845 22.3986 14.3096 23.0237C14.9348 23.6488 15.7826 24 16.6667 24H20.6667C21.5507 24 22.3986 23.6488 23.0237 23.0237C23.6488 22.3986 24 21.5507 24 20.6667C24 19.7826 23.6488 18.9348 23.0237 18.3096C22.3986 17.6845 21.5507 17.3333 20.6667 17.3333ZM20.6667 22.6667H16.6667C16.1362 22.6667 15.6275 22.456 15.2525 22.0809C14.8774 21.7058 14.6667 21.1971 14.6667 20.6667C14.6667 20.1362 14.8774 19.6275 15.2525 19.2525C15.6275 18.8774 16.1362 18.6667 16.6667 18.6667H20.6667C21.1971 18.6667 21.7058 18.8774 22.0809 19.2525C22.456 19.6275 22.6667 20.1362 22.6667 20.6667C22.6667 21.1971 22.456 21.7058 22.0809 22.0809C21.7058 22.456 21.1971 22.6667 20.6667 22.6667ZM20.6667 0H16.6667C15.7826 0 14.9348 0.351189 14.3096 0.976311C13.6845 1.60143 13.3333 2.44928 13.3333 3.33333V11.3333C13.3333 12.2174 13.6845 13.0652 14.3096 13.6904C14.9348 14.3155 15.7826 14.6667 16.6667 14.6667H20.6667C21.5507 14.6667 22.3986 14.3155 23.0237 13.6904C23.6488 13.0652 24 12.2174 24 11.3333V3.33333C24 2.44928 23.6488 1.60143 23.0237 0.976311C22.3986 0.351189 21.5507 0 20.6667 0ZM22.6667 11.3333C22.6667 11.8638 22.456 12.3725 22.0809 12.7475C21.7058 13.1226 21.1971 13.3333 20.6667 13.3333H16.6667C16.1362 13.3333 15.6275 13.1226 15.2525 12.7475C14.8774 12.3725 14.6667 11.8638 14.6667 11.3333V3.33333C14.6667 2.8029 14.8774 2.29419 15.2525 1.91912C15.6275 1.54405 16.1362 1.33333 16.6667 1.33333H20.6667C21.1971 1.33333 21.7058 1.54405 22.0809 1.91912C22.456 2.29419 22.6667 2.8029 22.6667 3.33333V11.3333Z" fill="white"/>
</svg>
