<svg width="52" height="52" viewBox="0 0 52 52" fill="none" xmlns="http://www.w3.org/2000/svg">
<rect x="0.265625" y="0.00341797" width="51.5668" height="51.5668" rx="8.00175" fill="white" fill-opacity="0.1"/>
<g clip-path="url(#clip0_2588_2175)">
<path d="M29.0654 12.9547C32.366 12.9547 35.0512 15.5741 35.0512 18.7939V28.3563C35.0512 31.5761 32.366 34.1955 29.0654 34.1955H19.2629C15.9624 34.1955 13.2772 31.5761 13.2772 28.3563V18.7939C13.2772 15.5741 15.9624 12.9547 19.2629 12.9547H29.0654ZM29.0654 11H19.2629C14.8512 11 11.2734 14.4901 11.2734 18.7939V28.3563C11.2734 32.6601 14.8512 36.1502 19.2629 36.1502H29.0654C33.4772 36.1502 37.0549 32.6601 37.0549 28.3563V18.7939C37.0549 14.4901 33.4772 11 29.0654 11Z" fill="#FFB452"/>
<path d="M29.4642 40.0002H22.4766V38.0456H29.4642C34.8702 38.0456 39.2692 33.7542 39.2692 28.4806V21.6641H41.273V28.4806C41.273 34.8308 35.9763 40.0002 29.4642 40.0002Z" fill="#FFB452"/>
<path d="M26.0106 20.5326C25.8072 20.2449 25.5351 20.034 25.1944 19.9001C24.8537 19.7661 24.4951 19.6992 24.1188 19.6992C23.895 19.6992 23.6789 19.724 23.4704 19.7736C23.2619 19.8232 23.0737 19.9026 22.9059 20.0117C22.738 20.1209 22.6033 20.2623 22.5016 20.4359C22.3999 20.6095 22.349 20.8154 22.349 21.0535C22.349 21.4107 22.4761 21.6836 22.7304 21.8721C22.9847 22.0606 23.3 22.2244 23.6763 22.3633C24.0527 22.5022 24.4646 22.6361 24.9121 22.7651C25.3597 22.8941 25.7716 23.0727 26.1479 23.3009C26.5243 23.5291 26.8396 23.8318 27.0939 24.2088C27.3482 24.5858 27.4753 25.0869 27.4753 25.712C27.4753 26.2776 27.3685 26.7712 27.1549 27.1954C26.9413 27.6171 26.654 27.9668 26.2929 28.2446C25.9318 28.5225 25.5122 28.7308 25.0342 28.8697C24.5562 29.0086 24.0527 29.0781 23.5212 29.0781C22.8499 29.0781 22.2015 28.9689 21.5811 28.7507C20.9606 28.5324 20.4266 28.1653 19.9766 27.6493L21.426 26.28C21.6599 26.6273 21.9676 26.8977 22.349 27.0912C22.7304 27.2847 23.1347 27.3814 23.5619 27.3814C23.7857 27.3814 24.0094 27.3516 24.2332 27.2921C24.457 27.2326 24.6604 27.1433 24.8435 27.0242C25.0266 26.9051 25.1741 26.7538 25.2859 26.5703C25.3978 26.3867 25.4538 26.1759 25.4538 25.9377C25.4538 25.5508 25.3266 25.2531 25.0723 25.0447C24.8181 24.8364 24.5028 24.6603 24.1264 24.5164C23.7501 24.3725 23.3381 24.2361 22.8906 24.1071C22.4431 23.9781 22.0311 23.802 21.6548 23.5787C21.2785 23.3555 20.9632 23.0578 20.7089 22.6857C20.4546 22.3137 20.3275 21.8151 20.3275 21.1875C20.3275 20.6418 20.4419 20.1705 20.6707 19.7711C20.8996 19.3742 21.1997 19.0443 21.5709 18.7814C21.9421 18.5184 22.3668 18.3225 22.8448 18.1935C23.3229 18.0645 23.8111 18 24.3095 18C24.8791 18 25.4309 18.0843 25.9674 18.253C26.5014 18.4217 26.982 18.6995 27.4092 19.0865L26.0056 20.5302L26.0106 20.5326Z" fill="#FFB452"/>
</g>
<defs>
<clipPath id="clip0_2588_2175">
<rect width="30" height="29" fill="white" transform="translate(11.2734 11)"/>
</clipPath>
</defs>
</svg>
