<svg width="103" height="18" viewBox="0 0 103 18" fill="#ffffff" xmlns="http://www.w3.org/2000/svg">
<path d="M15.5385 17.105C15.4771 17.1663 15.3313 17.1817 15.1011 17.151C14.8709 17.1357 14.6868 17.0282 14.5486 16.8287C14.4412 16.6139 14.3798 16.3683 14.3645 16.0921C14.3491 15.8158 14.3491 15.4322 14.3645 14.9411C14.4566 14.4039 14.61 13.698 14.8249 12.8232C15.0397 11.9485 15.2776 10.974 15.5385 9.8997C15.8147 8.81009 16.091 7.69745 16.3672 6.5618C16.5053 6.02467 16.6128 5.57194 16.6895 5.20362C16.7816 4.8353 16.843 4.55906 16.8737 4.3749C16.9197 4.17539 16.9427 4.07564 16.9427 4.07564C16.9274 4.10633 16.9044 4.13703 16.8737 4.16772C16.8583 4.19841 16.843 4.22911 16.8276 4.2598C16.8123 4.29049 16.7969 4.32119 16.7816 4.35188C16.7816 4.35188 16.7509 4.40559 16.6895 4.51302C16.6435 4.62045 16.536 4.80461 16.3672 5.0655C16.2444 5.24966 16.1293 5.46451 16.0219 5.71006C15.9145 5.95561 15.7303 6.27789 15.4694 6.6769C15.2239 7.1373 14.9477 7.66676 14.6407 8.26528C14.3338 8.8638 14.0729 9.33955 13.858 9.69252C13.7506 9.86133 13.6509 10.0071 13.5588 10.1299C13.482 10.2527 13.4283 10.3524 13.3976 10.4292C13.3363 10.598 13.2365 10.8052 13.0984 11.0507C12.9603 11.2962 12.7991 11.5341 12.615 11.7643C12.5229 11.9024 12.4001 12.0636 12.2466 12.2477C12.1085 12.4319 11.9857 12.6007 11.8783 12.7542C11.7709 12.8923 11.7172 12.9614 11.7172 12.9614C11.6865 13.0534 11.5867 13.1992 11.4179 13.3987C11.2491 13.5982 11.0419 13.8208 10.7964 14.0663C10.5662 14.2965 10.3283 14.5114 10.0828 14.7109C9.54563 15.1406 9.10057 15.4092 8.7476 15.5166C8.40997 15.624 8.01863 15.4936 7.57358 15.1252C7.37407 14.8797 7.21293 14.6341 7.09016 14.3886C6.96739 14.1277 6.906 13.7747 6.906 13.3297C6.906 12.8846 6.98273 12.2631 7.1362 11.4651C7.24363 10.9586 7.35873 10.4215 7.4815 9.85366C7.61962 9.28583 7.75774 8.74103 7.89586 8.21924C8.03398 7.68211 8.15675 7.22171 8.26418 6.83804C8.38695 6.43903 8.47136 6.16279 8.5174 6.00932C8.56344 5.62565 8.57111 5.42615 8.54042 5.4108C8.50973 5.38011 8.43299 5.46451 8.31022 5.66402C8.20279 5.83283 8.00329 6.18581 7.7117 6.72294C7.42011 7.26007 7.09016 7.88929 6.72184 8.61058C6.36887 9.33187 6.02357 10.0532 5.68594 10.7745C5.05673 11.9408 4.52727 12.9153 4.09756 13.698C3.66785 14.4807 3.31488 15.1099 3.03864 15.5856C2.7624 16.046 2.54755 16.3913 2.39408 16.6215C2.25596 16.8671 2.14853 17.0359 2.0718 17.128C2.01041 17.2354 1.96437 17.3045 1.93368 17.3352C1.70348 17.3198 1.50397 17.2124 1.33516 17.0129C1.16635 16.8134 1.02823 16.5755 0.9208 16.2993C0.890107 16.1458 0.867087 15.9847 0.85174 15.8158C0.836393 15.647 0.85174 15.4629 0.89778 15.2634C0.959167 15.0485 1.05125 14.8183 1.17402 14.5728C1.37353 14.1737 1.56536 13.8361 1.74952 13.5599C1.93368 13.2836 2.04878 13.1148 2.09482 13.0534C2.17155 12.946 2.23294 12.8309 2.27898 12.7081C2.32502 12.5854 2.35571 12.4703 2.37106 12.3628C2.44779 12.2708 2.56289 12.0789 2.71636 11.7873C2.88517 11.4958 3.05399 11.1811 3.2228 10.8435C3.34557 10.644 3.51439 10.3678 3.72924 10.0148C3.94409 9.64648 4.17429 9.25514 4.41984 8.84078C4.66539 8.41107 4.88024 8.01973 5.0644 7.66676C5.73965 6.45437 6.27679 5.48753 6.6758 4.76624C7.07481 4.0296 7.35873 3.56153 7.52754 3.36202C7.63497 3.28529 7.72705 3.13949 7.80378 2.92464C7.89586 2.69444 7.97259 2.52563 8.03398 2.4182C8.24883 1.98849 8.46369 1.63552 8.67854 1.35928C8.90874 1.06769 9.10825 0.921899 9.27706 0.921899C9.39983 0.921899 9.5533 0.967939 9.73746 1.06002C9.93697 1.1521 10.1288 1.28255 10.313 1.45136C10.4818 1.65087 10.6352 1.91943 10.7734 2.25706C10.9268 2.57934 10.9575 3.00905 10.8654 3.54618C10.8501 3.79173 10.8117 4.09099 10.7503 4.44396C10.689 4.78159 10.6276 5.11921 10.5662 5.45684C10.5048 5.79447 10.4434 6.07838 10.382 6.30858C10.2592 6.99918 10.1211 7.65909 9.96766 8.2883C9.82954 8.90217 9.69909 9.46999 9.57632 9.99178C9.45355 10.5136 9.35379 10.974 9.27706 11.373C9.20033 11.7566 9.14661 12.0713 9.11592 12.3168C9.10057 12.5623 9.13127 12.7235 9.208 12.8002C9.25404 12.8156 9.31543 12.8002 9.39216 12.7542C9.48424 12.6928 9.5533 12.6314 9.59934 12.57C9.69142 12.4472 9.77583 12.3245 9.85256 12.2017C9.92929 12.0789 10.029 11.9255 10.1518 11.7413C10.3974 11.4037 10.6506 11.0354 10.9115 10.6363C11.1877 10.222 11.51 9.71554 11.8783 9.11702C12.262 8.50315 12.7147 7.75117 13.2365 6.86106C13.7583 5.95561 14.3952 4.8353 15.1472 3.50014C15.5001 2.96301 15.8378 2.42587 16.16 1.88874C16.4823 1.35161 16.7739 0.937246 17.0348 0.645658C17.265 0.400112 17.5489 0.315706 17.8865 0.392439C18.2395 0.469172 18.5618 0.661005 18.8534 0.967938C19.145 1.27487 19.3061 1.65087 19.3368 2.09592C19.3521 2.31077 19.3061 2.69444 19.1987 3.24692C19.1066 3.78405 18.9762 4.39025 18.8073 5.0655C18.6385 5.74075 18.4467 6.40066 18.2318 7.04522C18.1858 7.30611 18.1091 7.65141 18.0016 8.08112C17.8942 8.51083 17.7791 8.94821 17.6563 9.39326C17.5336 9.83831 17.4185 10.2373 17.311 10.5903C17.2036 11.1121 17.1115 11.5264 17.0348 11.8334C16.9734 12.1403 16.9427 12.4933 16.9427 12.8923C16.8046 13.1378 16.7125 13.4908 16.6665 13.9512C16.6204 14.4116 16.5974 14.8874 16.5974 15.3785C16.536 15.977 16.4056 16.399 16.2061 16.6446C16.0219 16.8901 15.8991 17.0052 15.8378 16.9899C15.715 16.9438 15.6152 16.9822 15.5385 17.105ZM23.2621 16.9668C23.2007 17.0282 23.1316 17.0512 23.0549 17.0359C22.9782 17.0359 22.8554 16.9975 22.6866 16.9208C22.395 16.8441 22.1341 16.6753 21.9039 16.4144C21.689 16.1535 21.6583 15.8542 21.8118 15.5166C21.8732 15.4092 21.9499 15.179 22.042 14.826C22.1494 14.4577 22.2645 14.0356 22.3873 13.5599C22.5101 13.0841 22.6329 12.6084 22.7556 12.1326C22.8784 11.6569 22.9858 11.2425 23.0779 10.8896C23.17 10.5212 23.2314 10.2757 23.2621 10.1529C23.2621 10.0301 23.2928 9.7846 23.3542 9.41628C23.4309 9.04796 23.4999 8.6336 23.5613 8.1732C23.7301 7.85092 23.8452 7.49795 23.9066 7.11428C23.9834 6.73061 24.0371 6.45437 24.0678 6.28556C24.1292 6.04001 24.1982 5.77912 24.2749 5.50288C24.367 5.22664 24.4438 4.9504 24.5052 4.67416C24.5665 4.42861 24.6279 4.17539 24.6893 3.9145C24.766 3.65361 24.8044 3.48479 24.8044 3.40806V3.03974H23.9527C23.7225 3.05509 23.4616 3.05509 23.17 3.03974C22.8784 3.02439 22.5561 3.01672 22.2032 3.01672C21.4819 2.98603 20.9984 2.91697 20.7529 2.80954C20.5227 2.68677 20.3922 2.45657 20.3615 2.11894C20.3309 1.93478 20.3692 1.77364 20.4766 1.63552C20.5841 1.48205 20.8373 1.35928 21.2363 1.2672C21.6353 1.17512 22.2492 1.14443 23.0779 1.17512C23.7225 1.14443 24.2289 1.14443 24.5972 1.17512C24.9656 1.19047 25.1804 1.19814 25.2418 1.19814C25.3032 1.13675 25.3415 1.07537 25.3569 1.01398C25.3722 0.952592 25.3953 0.891206 25.426 0.829819C25.426 0.753086 25.4336 0.668679 25.449 0.576599C25.4797 0.469172 25.5564 0.392439 25.6792 0.3464C25.8019 0.116199 26.0321 0.0241186 26.3698 0.070159C26.7227 0.100852 26.9836 0.238972 27.1525 0.484519C27.2138 0.622639 27.2292 0.768432 27.1985 0.921899C27.1831 1.07537 27.2292 1.21349 27.3366 1.33626C27.398 1.27487 27.5591 1.23651 27.82 1.22116C28.0809 1.20581 28.3572 1.19047 28.6488 1.17512C29.0017 1.17512 29.3163 1.16745 29.5926 1.1521C29.8688 1.12141 30.0606 1.10606 30.1681 1.10606C30.3062 1.02933 30.4827 0.990959 30.6975 0.990959C30.9277 0.990959 31.1579 1.00631 31.3881 1.037C31.7411 1.037 31.9867 1.12908 32.1248 1.31324C32.2782 1.48205 32.378 1.60483 32.424 1.68156C32.424 1.74295 32.424 1.80433 32.424 1.86572C32.4394 1.92711 32.4777 1.98849 32.5391 2.04988C32.6005 2.11127 32.6312 2.15731 32.6312 2.188C32.6312 2.20335 32.6005 2.27241 32.5391 2.39518C32.4777 2.45657 32.3703 2.51028 32.2169 2.55632C32.0634 2.58701 31.8946 2.60236 31.7104 2.60236C31.603 2.60236 31.4188 2.61771 31.1579 2.6484C30.897 2.66375 30.6745 2.67142 30.4904 2.67142C30.1374 2.73281 29.7921 2.78652 29.4544 2.83256C29.1168 2.86325 28.6794 2.89395 28.1423 2.92464C27.9121 2.92464 27.6973 2.93999 27.4978 2.97068C27.2982 2.98603 27.1985 3.03207 27.1985 3.1088C27.1371 3.1088 27.0527 3.26994 26.9453 3.59222C26.8532 3.9145 26.7611 4.25213 26.669 4.6051C26.577 5.00411 26.4772 5.34941 26.3698 5.641C26.2777 5.93259 26.201 6.12442 26.1396 6.2165C26.201 6.27789 26.224 6.35462 26.2086 6.4467C26.2086 6.53878 26.1626 6.69992 26.0705 6.93012C26.0091 7.14497 25.9477 7.31379 25.8864 7.43656C25.8403 7.55933 25.8173 7.68211 25.8173 7.80488C25.8173 7.80488 25.7789 7.92765 25.7022 8.1732C25.6408 8.4034 25.5794 8.69499 25.518 9.04796C25.4873 9.38559 25.4413 9.6695 25.3799 9.8997C25.3339 10.1299 25.2802 10.2757 25.2188 10.3371C25.2188 10.3371 25.1881 10.3908 25.1267 10.4982C25.0653 10.5903 25.0346 10.6977 25.0346 10.8205C25.0346 10.9586 25.0039 11.1888 24.9425 11.5111C24.8965 11.818 24.8428 12.1096 24.7814 12.3859C24.72 12.6621 24.6663 12.8156 24.6203 12.8463C24.7737 12.877 24.7507 13.0841 24.5512 13.4678C24.5512 13.6213 24.5282 13.7747 24.4821 13.9282C24.4361 14.0817 24.4131 14.1891 24.4131 14.2505C24.321 14.5421 24.1905 14.895 24.0217 15.3094C23.8529 15.7238 23.6918 16.0921 23.5383 16.4144C23.4002 16.7366 23.3081 16.9208 23.2621 16.9668ZM31.4212 16.8978C31.145 16.9899 30.8918 17.0052 30.6616 16.9438C30.4314 16.8824 30.2549 16.7136 30.1321 16.4374C30.0247 16.1765 29.994 15.7928 30.04 15.2864C30.1014 14.7646 30.2779 14.1047 30.5695 13.3067C30.6155 13.1685 30.7076 12.8923 30.8457 12.4779C30.9992 12.0482 31.168 11.5725 31.3522 11.0507C31.5363 10.5289 31.7128 10.0455 31.8816 9.60044C32.0658 9.15539 32.2116 8.84845 32.319 8.67964C32.3804 8.54152 32.4111 8.42642 32.4111 8.33434C32.4264 8.24226 32.4341 8.16553 32.4341 8.10414C32.4341 8.02741 32.4648 7.92765 32.5262 7.80488C32.6029 7.66676 32.672 7.52864 32.7334 7.39052C32.8101 7.23705 32.8715 7.09893 32.9175 6.97616C32.9789 6.83804 33.0096 6.72294 33.0096 6.63086C33.0096 6.63086 33.048 6.50041 33.1247 6.23952C33.2014 5.96328 33.3012 5.64867 33.424 5.2957C33.5467 4.94273 33.6849 4.65114 33.8383 4.42094C33.9764 4.06797 34.0915 3.82242 34.1836 3.6843C34.291 3.53083 34.3448 3.40806 34.3448 3.31598C34.3448 3.28529 34.1836 3.26994 33.8613 3.26994C33.5544 3.26994 33.1861 3.28529 32.7564 3.31598C32.3267 3.33133 31.9123 3.35435 31.5133 3.38504C31.1296 3.41573 30.8534 3.4541 30.6846 3.50014C30.5465 3.53083 30.4237 3.56153 30.3163 3.59222C30.2088 3.60757 30.1398 3.60757 30.1091 3.59222C30.0477 3.56153 29.9479 3.44643 29.8098 3.24692C29.687 3.03207 29.595 2.80187 29.5336 2.55632C29.4875 2.31077 29.5489 2.14196 29.7177 2.04988C29.994 1.88107 30.2702 1.77364 30.5465 1.7276C30.838 1.68156 31.145 1.65087 31.4673 1.63552C31.7895 1.62017 32.1425 1.58948 32.5262 1.54344C32.8792 1.54344 33.1861 1.52809 33.447 1.4974C33.7079 1.45136 33.869 1.42834 33.9304 1.42834C34.0839 1.42834 34.268 1.39765 34.4829 1.33626C34.7131 1.27487 34.974 1.24418 35.2656 1.24418C35.4651 1.24418 35.6646 1.22883 35.8641 1.19814C36.0636 1.1521 36.2401 1.12908 36.3935 1.12908C36.4703 1.12908 36.6544 1.12908 36.946 1.12908C37.2376 1.12908 37.5292 1.12908 37.8208 1.12908C38.0356 1.12908 38.3272 1.09839 38.6955 1.037C39.0639 0.975612 39.3631 0.914225 39.5933 0.852839C40.2993 0.699372 40.8824 0.676352 41.3428 0.783779C41.8032 0.891206 42.0872 1.1521 42.1946 1.56646C42.256 1.90409 42.0334 2.19567 41.527 2.44122C41.0206 2.68677 40.0844 2.84791 38.7186 2.92464C38.0587 2.98603 37.6059 3.03207 37.3604 3.06276C37.1148 3.09345 36.9921 3.17786 36.9921 3.31598C36.9921 3.40806 36.9537 3.49247 36.877 3.5692C36.8156 3.63059 36.7542 3.69965 36.6928 3.77638C36.6314 3.80707 36.5393 3.93752 36.4166 4.16772C36.2938 4.38257 36.171 4.64347 36.0482 4.9504C35.9408 5.24199 35.8411 5.51055 35.749 5.7561C35.6722 6.00165 35.6339 6.16279 35.6339 6.23952C35.6339 6.23952 35.6032 6.29323 35.5418 6.40066C35.4958 6.49274 35.4727 6.56947 35.4727 6.63086C35.4114 6.78433 35.3269 6.96081 35.2195 7.16032C35.1274 7.35983 35.043 7.53631 34.9663 7.68978C34.7361 8.30365 34.5443 8.79474 34.3908 9.16306C34.2527 9.53138 34.1376 9.82297 34.0455 10.0378C33.9688 10.2373 33.8997 10.4138 33.8383 10.5673C33.7769 10.7668 33.6772 11.1044 33.5391 11.5802C33.4009 12.0559 33.2551 12.4779 33.1017 12.8463C33.0249 12.9537 32.9559 13.0304 32.8945 13.0765C32.8485 13.1072 32.8254 13.1839 32.8254 13.3067C32.8254 13.322 32.7794 13.4601 32.6873 13.721C32.6106 13.9666 32.5032 14.2658 32.365 14.6188C32.2269 14.9718 32.0888 15.3247 31.9507 15.6777C31.8279 16.0153 31.7128 16.2993 31.6054 16.5295C31.5133 16.775 31.4519 16.8978 31.4212 16.8978ZM43.4652 16.7597C43.1889 16.6062 43.0355 16.4374 43.0048 16.2532C42.9894 16.0691 43.0969 15.7468 43.3271 15.2864C43.5573 14.826 43.9179 14.1124 44.409 13.1455C44.7773 12.4549 45.0229 11.9178 45.1456 11.5341C45.2838 11.1351 45.3605 10.8512 45.3758 10.6824C45.3912 10.5136 45.3989 10.4061 45.3989 10.3601C45.3682 10.222 45.3835 10.1146 45.4449 10.0378C45.5063 9.94574 45.606 9.86901 45.7442 9.80762C45.8209 9.73089 45.9974 9.59277 46.2736 9.39326C46.5499 9.19375 46.7647 8.95588 46.9182 8.67964C47.0563 8.35736 47.2098 8.02741 47.3786 7.68978C47.5627 7.35215 47.8006 6.93012 48.0922 6.42368C48.3838 5.90189 48.7751 5.22664 49.2662 4.39792C49.5732 3.86079 49.9338 3.25459 50.3482 2.57934C50.7779 1.90409 51.1999 1.29022 51.6143 0.737739C51.7831 0.522885 51.9596 0.354072 52.1437 0.231298C52.3279 0.108526 52.489 0.0471393 52.6271 0.0471393C52.9648 0.0471393 53.3024 0.139219 53.64 0.323378C53.9776 0.492192 54.2769 0.707046 54.5378 0.967938C54.7987 1.22883 54.9752 1.47438 55.0673 1.70458C55.144 1.82735 55.1747 2.08825 55.1593 2.48726C55.144 2.88627 55.1133 3.36969 55.0673 3.93752C55.0212 4.50535 54.9675 5.11154 54.9061 5.7561C54.8601 6.38531 54.791 7.12963 54.6989 7.98904C54.6069 8.84845 54.5148 9.74623 54.4227 10.6824C54.346 11.6185 54.2846 12.524 54.2385 13.3987C54.1925 14.2582 54.1925 15.0101 54.2385 15.6547C54.2539 15.7928 54.2539 15.9233 54.2385 16.046C54.2232 16.1688 54.2155 16.2686 54.2155 16.3453C54.1234 16.4374 53.9239 16.4757 53.617 16.4604C53.3101 16.4604 53.0108 16.4144 52.7192 16.3223C52.4276 16.2302 52.2665 16.1151 52.2358 15.977C52.1898 15.9309 52.1591 15.8926 52.1437 15.8619C52.1284 15.8312 52.1284 15.6854 52.1437 15.4245C52.1591 15.1483 52.1821 14.6495 52.2128 13.9282L52.3279 10.4061L52.0286 10.4292C51.8905 10.4292 51.6373 10.4445 51.269 10.4752C50.916 10.5059 50.5246 10.5519 50.0949 10.6133C49.6806 10.6594 49.2969 10.7131 48.9439 10.7745C48.591 10.8205 48.3454 10.8665 48.2073 10.9126C48.0692 10.9126 47.9004 11.0047 47.7009 11.1888C47.5167 11.373 47.3402 11.6109 47.1714 11.9024C47.11 12.1173 46.9949 12.3475 46.8261 12.593C46.6726 12.8232 46.5959 12.9767 46.5959 13.0534C46.4885 13.1302 46.3964 13.2223 46.3197 13.3297C46.2583 13.4371 46.2276 13.4908 46.2276 13.4908C46.2276 13.5829 46.1585 13.8131 46.0204 14.1814C45.8823 14.5344 45.7135 14.9334 45.514 15.3785C45.3145 15.8082 45.1073 16.1842 44.8924 16.5064L44.2709 17.3812L43.4652 16.7597ZM48.967 8.84078C48.967 8.84078 49.0514 8.82543 49.2202 8.79474C49.389 8.76405 49.5885 8.73335 49.8187 8.70266C50.0642 8.65662 50.2791 8.6336 50.4633 8.6336C50.8162 8.54152 51.1078 8.47246 51.338 8.42642C51.5836 8.38038 51.7831 8.35736 51.9365 8.35736C52.09 8.34201 52.2128 8.35736 52.3049 8.4034C52.3662 8.48013 52.42 8.52617 52.466 8.54152C52.5274 8.55687 52.5581 8.56454 52.5581 8.56454C52.5734 8.53385 52.6041 8.37271 52.6502 8.08112C52.6962 7.78953 52.7499 7.42889 52.8113 6.99918C52.8727 6.56947 52.9341 6.12442 52.9955 5.66402C53.0568 5.18827 53.1106 4.75089 53.1566 4.35188C53.2026 3.93752 53.2333 3.61524 53.2487 3.38504C53.264 3.09345 53.2564 2.83256 53.2257 2.60236C53.195 2.35681 53.1796 2.23404 53.1796 2.23404C53.0875 2.23404 52.9111 2.40285 52.6502 2.74048C52.4046 3.06276 52.113 3.50014 51.7754 4.05262C51.4531 4.58975 51.1308 5.17293 50.8086 5.80214C50.6551 6.09373 50.5093 6.32393 50.3712 6.49274C50.2484 6.66155 50.1487 6.74596 50.0719 6.74596C50.0412 6.77665 49.9568 6.89943 49.8187 7.11428C49.6959 7.31379 49.5578 7.54399 49.4043 7.80488C49.2662 8.05043 49.1434 8.28063 49.036 8.49548C48.9439 8.69499 48.9209 8.81009 48.967 8.84078ZM62.4277 16.4374C62.2282 16.4834 62.0287 16.4297 61.8292 16.2762C61.645 16.1381 61.5146 15.9847 61.4379 15.8158C61.3458 15.5703 61.2844 15.3401 61.2537 15.1252C61.2384 14.895 61.223 14.6341 61.2077 14.3426L61.1846 13.5599L60.2408 14.4116C59.719 14.9027 59.2279 15.2557 58.7675 15.4705C58.3225 15.67 57.9158 15.7698 57.5475 15.7698C57.3787 15.7391 57.1715 15.6317 56.9259 15.4475C56.6957 15.248 56.4809 15.0332 56.2814 14.803C56.0972 14.5574 55.9668 14.3579 55.89 14.2044C55.798 13.9896 55.7673 13.6903 55.798 13.3067C55.844 12.923 55.9361 12.501 56.0742 12.0406C56.2277 11.5802 56.4118 11.1274 56.6267 10.6824C56.8569 10.2373 57.1178 9.85366 57.4094 9.53138C57.9158 8.76405 58.545 8.2883 59.297 8.10414C60.049 7.90463 60.7166 7.96602 61.2997 8.2883C61.576 8.42642 61.7755 8.48013 61.8983 8.44944C62.021 8.41875 62.0978 8.31899 62.1285 8.15018C62.1898 7.90463 62.2589 7.67443 62.3356 7.45958C62.4124 7.24473 62.5198 6.92245 62.6579 6.49274C63.0416 5.32639 63.3715 4.41327 63.6478 3.75336C63.9394 3.09345 64.2003 2.51795 64.4305 2.02686C64.5993 1.67389 64.7681 1.42834 64.9369 1.29022C65.1057 1.1521 65.2515 1.09071 65.3743 1.10606C65.5431 1.10606 65.7503 1.16745 65.9958 1.29022C66.2567 1.41299 66.4255 1.58181 66.5023 1.79666C66.5636 1.93478 66.5867 2.08057 66.5713 2.23404C66.5713 2.38751 66.5253 2.54865 66.4332 2.71746C66.2337 3.08578 65.9958 3.57687 65.7196 4.19074C65.4587 4.78926 65.1901 5.44917 64.9139 6.17046C64.653 6.89175 64.4074 7.60537 64.1772 8.31132C63.947 9.01727 63.7552 9.63881 63.6017 10.1759C63.5097 10.5136 63.4329 10.9433 63.3715 11.4651C63.3255 11.9868 63.2871 12.524 63.2564 13.0765C63.2411 13.6136 63.2411 14.097 63.2564 14.5267C63.2718 14.9411 63.2948 15.2096 63.3255 15.3324C63.4176 15.6394 63.4176 15.8696 63.3255 16.023C63.2334 16.1765 63.103 16.2762 62.9342 16.3223C62.7653 16.3837 62.5965 16.422 62.4277 16.4374ZM58.6294 13.652C58.8443 13.5752 59.0361 13.4831 59.2049 13.3757C59.3737 13.2683 59.5732 13.1302 59.8034 12.9614C60.2638 12.6084 60.5938 12.3015 60.7933 12.0406C61.0082 11.7797 61.177 11.4574 61.2997 11.0737C61.3765 10.8435 61.3765 10.644 61.2997 10.4752C61.2384 10.3064 61.1233 10.1452 60.9544 9.99178C60.7856 9.85366 60.5708 9.79995 60.3099 9.83064C60.049 9.84599 59.7497 10.0071 59.4121 10.3141C59.0438 10.6517 58.7292 11.043 58.4683 11.4881C58.2074 11.9331 57.9925 12.57 57.8237 13.3987C57.793 13.5522 57.8467 13.6596 57.9849 13.721C58.123 13.7824 58.3378 13.7594 58.6294 13.652ZM68.1446 15.4015C67.9911 15.5089 67.7993 15.5703 67.5691 15.5856C67.3542 15.5856 67.1624 15.5012 66.9936 15.3324C66.702 15.0562 66.4488 14.5114 66.2339 13.698C66.0191 12.8693 65.9117 11.749 65.9117 10.3371C65.973 9.70787 66.0037 9.12469 66.0037 8.58756C66.0191 8.05043 66.0268 7.75117 66.0268 7.68978C66.1956 7.58235 66.4104 7.55166 66.6713 7.5977C66.9476 7.62839 67.1701 7.68211 67.3389 7.75884C67.4924 7.83557 67.5998 7.95067 67.6612 8.10414C67.7379 8.25761 67.784 8.53385 67.7993 8.93286C67.83 9.31653 67.8453 9.90737 67.8453 10.7054C67.7993 11.3193 67.7686 11.8104 67.7533 12.1787C67.7379 12.547 67.7533 12.7619 67.7993 12.8232C67.8607 12.9307 67.8914 12.9921 67.8914 13.0074C67.8914 13.0074 68.0065 12.8923 68.2367 12.6621C68.3594 12.4933 68.4899 12.2708 68.628 11.9945C68.7815 11.7183 68.9119 11.4958 69.0194 11.3269C69.1882 11.1121 69.3416 10.9049 69.4798 10.7054C69.6332 10.5059 69.7407 10.3754 69.802 10.3141C69.8634 10.1913 69.9402 10.0762 70.0322 9.96876C70.1243 9.86133 70.2011 9.75391 70.2624 9.64648C70.4313 9.35489 70.6077 9.11702 70.7919 8.93286C70.9761 8.73335 71.0988 8.6336 71.1602 8.6336C71.2216 8.67964 71.3367 8.67197 71.5055 8.61058C71.6743 8.53385 71.7894 8.49548 71.8508 8.49548C71.9582 8.38805 72.104 8.38805 72.2882 8.49548C72.3496 8.54152 72.4033 8.59523 72.4493 8.65662C72.4954 8.70266 72.5184 8.75637 72.5184 8.81776C72.5184 8.89449 72.4724 9.08633 72.3803 9.39326C72.3035 9.68485 72.2038 9.97643 72.081 10.268C71.9736 10.5443 71.8815 10.7054 71.8048 10.7514C71.8048 10.7514 71.7818 10.7745 71.7357 10.8205C71.6897 10.8665 71.636 10.9203 71.5746 10.9816C71.5439 11.0891 71.4365 11.2886 71.2523 11.5802C71.0835 11.8564 70.8686 12.1787 70.6077 12.547C70.3622 12.9 70.109 13.2529 69.8481 13.6059C69.5872 13.9435 69.357 14.2428 69.1575 14.5037C69.004 14.7186 68.8275 14.9104 68.628 15.0792C68.4285 15.2327 68.2674 15.3401 68.1446 15.4015ZM73.0721 15.6087C72.9494 15.4859 72.8573 15.3017 72.7959 15.0562C72.7499 14.8106 72.7345 14.5728 72.7499 14.3426C72.7652 14.097 72.8036 13.9129 72.865 13.7901C72.865 13.6673 72.8803 13.5752 72.911 13.5138C72.957 13.4371 72.9724 13.368 72.957 13.3067C72.9417 13.2453 72.957 13.1378 73.0031 12.9844C73.0491 12.8309 73.0952 12.6851 73.1412 12.547C73.2486 12.3015 73.3714 11.9868 73.5095 11.6032C73.6476 11.2042 73.7858 10.8052 73.9239 10.4061C74.062 9.99178 74.1771 9.63881 74.2692 9.34722C74.3613 9.04029 74.415 8.85613 74.4303 8.79474C74.4303 8.61058 74.5531 8.51083 74.7986 8.49548C74.9828 8.43409 75.2053 8.51083 75.4662 8.72568C75.7271 8.94053 75.9343 9.17073 76.0878 9.41628C76.2105 9.53905 76.2566 9.70019 76.2259 9.8997C76.1952 10.0992 76.0954 10.3831 75.9266 10.7514C75.8652 10.8742 75.7885 11.0814 75.6964 11.373C75.6197 11.6492 75.566 11.8794 75.5353 12.0636C75.4739 12.1864 75.3972 12.3628 75.3051 12.593C75.2283 12.8079 75.1593 13.0151 75.0979 13.2146C75.0672 13.2913 75.0365 13.4371 75.0058 13.652C74.9751 13.8515 74.9368 14.0586 74.8907 14.2735C74.8447 14.4884 74.7833 14.6572 74.7066 14.7799C74.5684 15.4092 74.3229 15.7775 73.9699 15.8849C73.6323 15.9923 73.333 15.9002 73.0721 15.6087ZM75.5583 6.37764C75.3895 6.25487 75.259 6.10907 75.167 5.94026C75.0902 5.7561 75.0442 5.59496 75.0288 5.45684C75.0288 5.31872 75.0442 5.23431 75.0749 5.20362C75.2283 5.03481 75.3588 4.81228 75.4662 4.53604C75.589 4.2598 75.7194 4.00658 75.8576 3.77638C75.8882 3.73034 75.9266 3.66895 75.9727 3.59222C76.034 3.50014 76.0954 3.44643 76.1568 3.43108C76.341 3.30831 76.5942 3.31598 76.9165 3.4541C77.2541 3.59222 77.4996 3.78405 77.6531 4.0296C77.7912 4.32119 77.8296 4.62045 77.7682 4.92738C77.7222 5.23431 77.561 5.55659 77.2848 5.89422C77.0546 6.20115 76.763 6.40066 76.41 6.49274C76.0571 6.56947 75.7731 6.53111 75.5583 6.37764ZM79.8006 16.1611C78.9873 16.1611 78.3887 15.9002 78.0051 15.3785C77.8976 15.1329 77.8439 14.8874 77.8439 14.6418C77.8593 14.3809 77.9207 14.1968 78.0281 14.0893C78.1355 13.9666 78.266 13.9896 78.4194 14.1584C78.6189 14.2812 78.9029 14.3426 79.2712 14.3426C79.4553 14.3426 79.6165 14.3426 79.7546 14.3426C79.9081 14.3272 80.0845 14.3119 80.2841 14.2965C80.637 14.2658 80.8596 14.1584 80.9516 13.9742C81.0591 13.7901 81.036 13.6366 80.8826 13.5138H80.9056C80.4912 13.4064 80.0845 13.2529 79.6855 13.0534C79.2865 12.8539 78.9489 12.6314 78.6727 12.3859C78.3964 12.125 78.2353 11.8794 78.1892 11.6492C78.0665 11.1428 78.0972 10.621 78.2813 10.0839C78.4655 9.54673 78.734 9.07865 79.087 8.67964C79.2251 8.58756 79.417 8.45711 79.6625 8.2883C79.9081 8.10414 80.0845 8.00439 80.192 7.98904V8.01206C80.4836 7.70513 80.8135 7.45958 81.1818 7.27542C81.5502 7.07591 81.9799 6.89175 82.471 6.72294L82.8393 6.6769C83.0234 6.64621 83.1846 6.63086 83.3227 6.63086C83.3073 6.63086 83.3457 6.64621 83.4378 6.6769C83.5299 6.70759 83.6066 6.73061 83.668 6.74596C83.7601 6.792 83.8522 6.81502 83.9442 6.81502C84.1591 6.84571 84.3663 6.96081 84.5658 7.16032C84.7806 7.34448 84.9494 7.56701 85.0722 7.8279C85.2103 8.07345 85.264 8.30365 85.2334 8.5185C85.1873 8.87147 85.0569 9.22445 84.842 9.57742C84.6272 9.91505 84.397 10.1069 84.1514 10.1529C84.1821 10.1376 84.1514 10.1069 84.0593 10.0608C83.9673 10.0148 83.8828 9.96876 83.8061 9.92272L83.714 9.96876C83.714 9.96876 83.7064 9.94574 83.691 9.8997C83.691 9.85366 83.6757 9.79995 83.645 9.73856C83.5836 9.63113 83.5375 9.51603 83.5069 9.39326C83.4915 9.27049 83.4915 9.13237 83.5069 8.9789C83.5375 8.81009 83.5452 8.71033 83.5299 8.67964C83.5145 8.64895 83.4224 8.62593 83.2536 8.61058C83.0541 8.56454 82.8009 8.58756 82.494 8.67964C82.187 8.75637 81.9031 8.89449 81.6422 9.094C81.3353 9.29351 81.1051 9.45465 80.9516 9.57742C80.8135 9.70019 80.7061 9.82297 80.6294 9.94574C80.5526 10.0532 80.4682 10.2143 80.3761 10.4292C80.3147 10.5366 80.261 10.6363 80.215 10.7284C80.169 10.8052 80.1459 10.8819 80.1459 10.9586C80.1459 11.1121 80.2764 11.2732 80.5373 11.442C80.7982 11.5955 81.1895 11.7797 81.7113 11.9945C82.1257 12.1633 82.3942 12.3935 82.517 12.6851C82.6551 12.9767 82.7779 13.2529 82.8853 13.5138C82.916 13.5752 82.9467 13.6903 82.9774 13.8591C83.0234 14.0126 83.0311 14.1047 83.0004 14.1354C83.0311 14.1661 83.0465 14.1968 83.0465 14.2275V14.2044C83.1692 14.4346 83.1462 14.6802 82.9774 14.9411C82.8239 15.1866 82.5784 15.4168 82.2408 15.6317C81.9031 15.8312 81.5195 15.977 81.0898 16.0691H81.1128C80.8826 16.0998 80.6524 16.1228 80.4222 16.1381C80.2073 16.1535 80.0001 16.1611 79.8006 16.1611ZM87.7566 15.8158C87.4343 15.8772 87.1887 15.8619 87.0199 15.7698C86.8664 15.6624 86.7053 15.5319 86.5365 15.3785C86.2909 15.2557 86.0684 15.0869 85.8689 14.872C85.6694 14.6418 85.5159 14.4039 85.4085 14.1584C85.3011 13.9129 85.255 13.721 85.2704 13.5829C85.3164 13.0458 85.4392 12.4626 85.6387 11.8334C85.8536 11.2042 86.1221 10.5903 86.4444 9.99178C86.782 9.39326 87.158 8.8638 87.5724 8.4034C88.0021 7.92765 88.4625 7.58235 88.9536 7.3675C89.2605 7.24473 89.5905 7.19869 89.9435 7.22938C90.2964 7.26007 90.5343 7.40587 90.6571 7.66676C90.8873 8.11181 90.8336 8.39573 90.4959 8.5185C90.4499 8.5185 90.3962 8.54152 90.3348 8.58756C90.2734 8.61825 90.2427 8.66429 90.2427 8.72568C90.3041 8.75637 90.4729 8.76405 90.7492 8.7487C91.0254 8.71801 91.3016 8.67197 91.5779 8.61058C91.8695 8.53385 92.0613 8.45711 92.1534 8.38038C92.2455 8.33434 92.3145 8.31132 92.3606 8.31132C92.4066 8.31132 92.5217 8.32667 92.7059 8.35736C92.9667 8.43409 93.0972 8.52617 93.0972 8.6336C93.0972 8.69499 93.1202 8.79474 93.1663 8.93286C93.2123 9.05563 93.266 9.11702 93.3274 9.11702C93.4348 9.13237 93.4578 9.23979 93.3965 9.4393C93.3504 9.63881 93.1739 9.84599 92.867 10.0608C92.5754 10.245 92.3912 10.3678 92.3145 10.4292C92.2531 10.4752 92.2455 10.5826 92.2915 10.7514C92.4143 11.043 92.4066 11.396 92.2685 11.8104C92.1304 12.2247 91.9002 12.6544 91.5779 13.0995C91.2556 13.5445 90.8719 13.9666 90.4269 14.3656C89.9972 14.7492 89.5444 15.0792 89.0687 15.3554C88.6083 15.6163 88.1709 15.7698 87.7566 15.8158ZM87.8256 13.8822C87.887 13.8822 87.9944 13.8515 88.1479 13.7901C88.3014 13.7133 88.4241 13.652 88.5162 13.6059C88.5776 13.5445 88.6543 13.4755 88.7464 13.3987C88.8538 13.3067 88.9382 13.2529 88.9996 13.2376C89.061 13.2376 89.0994 13.2146 89.1147 13.1685C89.1301 13.1072 89.1838 12.9921 89.2759 12.8232C89.368 12.6391 89.5521 12.3705 89.8284 12.0175C90.1353 11.6799 90.3348 11.4113 90.4269 11.2118C90.519 10.997 90.5266 10.7668 90.4499 10.5212C90.4345 10.4599 90.3885 10.4215 90.3118 10.4061C90.2504 10.3908 90.166 10.3524 90.0586 10.291C89.9051 10.291 89.7977 10.3294 89.7363 10.4061C89.6902 10.4675 89.5828 10.4292 89.414 10.291L89.0457 9.83064L88.6543 10.222C88.4088 10.4675 88.1863 10.7745 87.9868 11.1428C87.8026 11.5111 87.6568 11.8871 87.5494 12.2708C87.4419 12.6544 87.3729 12.9921 87.3422 13.2836C87.3268 13.5138 87.3652 13.6673 87.4573 13.744C87.5494 13.8208 87.6721 13.8668 87.8256 13.8822ZM94.3473 15.3785C94.2092 15.271 94.0557 15.1329 93.8869 14.9641C93.7334 14.7953 93.6797 14.5574 93.7258 14.2505C93.7718 13.8208 93.8332 13.4448 93.9099 13.1225C93.9866 12.7849 94.0787 12.4012 94.1862 11.9715C94.2168 11.7873 94.2936 11.4727 94.4164 11.0277C94.5545 10.5826 94.7156 10.0992 94.8998 9.57742C95.0839 9.05563 95.2758 8.56454 95.4753 8.10414C95.6748 7.62839 95.8513 7.27542 96.0047 7.04522C96.1735 6.89175 96.4191 6.81502 96.7414 6.81502C97.079 6.81502 97.3092 6.87641 97.432 6.99918C97.6008 7.1373 97.6545 7.38285 97.5931 7.73582C97.5317 8.07345 97.3169 8.60291 96.9486 9.3242C96.8718 9.50836 96.7721 9.70787 96.6493 9.92272C96.5419 10.1222 96.4651 10.291 96.4191 10.4292C96.3731 10.5519 96.3884 10.6056 96.4651 10.5903C96.5572 10.4215 96.726 10.2297 96.9716 10.0148C97.2171 9.7846 97.478 9.56207 97.7543 9.34722C98.0305 9.13237 98.2914 8.94053 98.5369 8.77172C98.7825 8.60291 98.9513 8.49548 99.0434 8.44944C99.1661 8.37271 99.3043 8.31132 99.4577 8.26528C99.6265 8.20389 99.7416 8.15785 99.803 8.12716C100.156 7.95835 100.54 7.89696 100.954 7.943C101.384 7.97369 101.645 8.10414 101.737 8.33434C101.752 8.45711 101.798 8.54919 101.875 8.61058C101.967 8.67197 102.013 8.70266 102.013 8.70266C102.074 8.70266 102.105 8.72568 102.105 8.77172C102.12 8.81776 102.128 8.84078 102.128 8.84078C102.128 8.94821 102.021 9.10167 101.806 9.30118C101.606 9.50069 101.384 9.60811 101.138 9.62346C100.939 9.63881 100.762 9.67717 100.609 9.73856C100.455 9.79995 100.271 9.87668 100.056 9.96876C99.4731 10.3064 98.9436 10.6056 98.4679 10.8665C98.0075 11.1274 97.5317 11.5264 97.0406 12.0636C96.9332 12.1864 96.8181 12.3015 96.6953 12.4089C96.5726 12.5163 96.4498 12.6698 96.327 12.8693C96.2503 12.946 96.1735 13.1148 96.0968 13.3757C96.0201 13.6366 95.951 13.8898 95.8896 14.1354C95.8436 14.3656 95.8206 14.5037 95.8206 14.5497C95.8206 14.5497 95.7976 14.6265 95.7515 14.7799C95.7055 14.9181 95.6287 15.0562 95.5213 15.1943C95.3372 15.4398 95.153 15.5933 94.9688 15.6547C94.8 15.7161 94.5928 15.624 94.3473 15.3785Z" fill="#ffffff"/>
</svg>
