<svg width="41" height="41" viewBox="0 0 41 41" fill="none" xmlns="http://www.w3.org/2000/svg">
<path d="M28.7565 12.25L20.501 20.5164L15.5298 15.5102L15.5298 15.5102L15.5275 15.5079C15.1996 15.182 14.7561 14.999 14.2937 14.999C13.8317 14.999 13.3884 15.1817 13.0606 15.5073C13.0604 15.5075 13.0602 15.5077 13.06 15.5079L6.88214 21.6125H6.82214L6.67265 21.7845C6.38341 22.1172 6.23041 22.5468 6.24423 22.9874C6.25805 23.4281 6.43767 23.8473 6.74719 24.1612C7.05671 24.4752 7.47331 24.6607 7.91371 24.6808C8.35412 24.7008 8.78587 24.5539 9.12265 24.2695L9.13737 24.257L9.15109 24.2435L14.2471 19.2176L19.2585 24.2406L19.2584 24.2407L19.2674 24.2494C19.5982 24.5648 20.036 24.7436 20.493 24.75L20.4971 24.75C20.7274 24.7513 20.9557 24.7072 21.1689 24.6201C21.3822 24.533 21.5761 24.4047 21.7396 24.2425L21.7423 24.2398L31.25 14.6633V15.5C31.25 15.9641 31.4344 16.4092 31.7626 16.7374C32.0908 17.0656 32.5359 17.25 33 17.25C33.4641 17.25 33.9092 17.0656 34.2374 16.7374C34.5656 16.4092 34.75 15.9641 34.75 15.5V10.5C34.75 10.0359 34.5656 9.59075 34.2374 9.26256C33.9092 8.93437 33.4641 8.75 33 8.75H28C27.5359 8.75 27.0908 8.93437 26.7626 9.26256C26.4344 9.59075 26.25 10.0359 26.25 10.5C26.25 10.9641 26.4344 11.4092 26.7626 11.7374C27.0908 12.0656 27.5359 12.25 28 12.25H28.7565ZM37.5 10.5V25H3.5V10.5C3.5 9.63805 3.84241 8.8114 4.4519 8.2019C5.0614 7.59241 5.88805 7.25 6.75 7.25H34.25C35.112 7.25 35.9386 7.59241 36.5481 8.2019C37.1576 8.8114 37.5 9.63805 37.5 10.5ZM37.0659 32.0659C35.9875 33.1442 34.525 33.75 33 33.75H8C7.2449 33.75 6.49719 33.6013 5.79957 33.3123C5.10195 33.0233 4.46807 32.5998 3.93414 32.0659C2.97429 31.106 2.38883 29.8418 2.27176 28.5H38.7282C38.6112 29.8418 38.0257 31.106 37.0659 32.0659Z" fill="url(#paint0_linear_1150_9723)" fill-opacity="0.32" stroke="white"/>
<defs>
<linearGradient id="paint0_linear_1150_9723" x1="20.5" y1="6.75" x2="20.5" y2="34.25" gradientUnits="userSpaceOnUse">
<stop stop-color="white" stop-opacity="0"/>
<stop offset="1" stop-color="white"/>
</linearGradient>
</defs>
</svg>
