<svg width="76" height="76" viewBox="0 0 76 76" fill="none" xmlns="http://www.w3.org/2000/svg">
<path d="M34.4114 63.3316C38.4485 63.3316 41.7212 60.0588 41.7212 56.0217C41.7212 51.9846 38.4485 48.7119 34.4114 48.7119C30.3743 48.7119 27.1016 51.9846 27.1016 56.0217C27.1016 60.0588 30.3743 63.3316 34.4114 63.3316Z" fill="#0A8D12"/>
<path d="M33.8098 63.3301C37.8469 63.3301 41.1196 60.0574 41.1196 56.0203C41.1196 51.9832 37.8469 48.7104 33.8098 48.7104C29.7727 48.7104 26.5 51.9832 26.5 56.0203C26.5 60.0574 29.7727 63.3301 33.8098 63.3301Z" fill="#09A463"/>
<path d="M33.8078 60.6342C36.3552 60.6342 38.4203 58.5691 38.4203 56.0217C38.4203 53.4743 36.3552 51.4092 33.8078 51.4092C31.2604 51.4092 29.1953 53.4743 29.1953 56.0217C29.1953 58.5691 31.2604 60.6342 33.8078 60.6342Z" fill="black"/>
<path d="M33.2667 60.6033C35.5153 60.6033 37.3382 58.552 37.3382 56.0216C37.3382 53.4912 35.5153 51.4399 33.2667 51.4399C31.0182 51.4399 29.1953 53.4912 29.1953 56.0216C29.1953 58.552 31.0182 60.6033 33.2667 60.6033Z" fill="#0A8D12"/>
<path d="M55.1971 63.0163C58.9088 63.0163 61.9176 60.0074 61.9176 56.2957C61.9176 52.5841 58.9088 49.5752 55.1971 49.5752C51.4855 49.5752 48.4766 52.5841 48.4766 56.2957C48.4766 60.0074 51.4855 63.0163 55.1971 63.0163Z" fill="#0A8D12"/>
<path d="M54.6424 63.0153C58.3541 63.0153 61.3629 60.0064 61.3629 56.2948C61.3629 52.5831 58.3541 49.5742 54.6424 49.5742C50.9308 49.5742 47.9219 52.5831 47.9219 56.2948C47.9219 60.0064 50.9308 63.0153 54.6424 63.0153Z" fill="#09A463"/>
<path d="M58.8809 56.296C58.8809 58.8741 56.5894 60.8284 54.1416 60.5087C52.0352 60.2597 50.3984 58.4664 50.3984 56.296C50.3984 54.1255 52.0352 52.3322 54.1416 52.0832C56.5949 51.7629 58.8809 53.7213 58.8809 56.296Z" fill="black"/>
<path d="M54.1417 60.5098C56.2091 60.5098 57.885 58.6234 57.885 56.2964C57.885 53.9694 56.2091 52.083 54.1417 52.083C52.0744 52.083 50.3984 53.9694 50.3984 56.2964C50.3984 58.6234 52.0744 60.5098 54.1417 60.5098Z" fill="#0A8D12"/>
<path d="M23.6354 26.9581C21.7479 22.5925 21.6557 22.3153 21.2842 21.8508C19.8418 19.9567 12.1729 17.3538 9.91733 16.6034C9.90213 16.6034 9.88654 16.5879 9.87096 16.5723C9.35482 16.4002 9.19764 15.6822 9.68392 15.2644C9.73068 15.2176 9.77744 15.1864 9.8242 15.1864C10.0139 15.0782 10.2325 15.0665 10.4157 15.1398C10.5503 15.1398 16.4385 17.1176 20.0232 19.0013C23.0749 20.64 22.9445 21.4322 24.85 25.8837L25.0526 26.3509C25.4674 27.2948 24.0424 27.9238 23.6354 26.9581Z" fill="#019A5A"/>
<path d="M56.8326 44.4531H54.1406V57.5915H56.8326V44.4531Z" fill="#2FF7A3"/>
<path d="M34.5982 44.4531H31.9062V57.5915H34.5982V44.4531Z" fill="#2FF7A3"/>
<path d="M68.1174 34.3834C66.4315 38.9224 64.7484 41.0056 58.0427 41.5927C48.5363 42.4624 38.8944 43.0073 29.3924 42.1377C18.8865 41.2054 19.1286 37.0383 16.9512 30.6931C16.6227 29.7633 16.4483 29.679 16.8889 29.3852C18.5977 28.3801 18.6392 28.2126 19.6138 28.1083C33.2695 26.9249 46.8785 24.2312 60.581 24.8073L66.7782 24.9007C69.2474 28.1328 69.7391 29.6878 68.1174 34.3834Z" fill="#28FFA5"/>
<path d="M68.8804 31.7208C58.6502 32.2813 48.3888 32.437 38.159 32.1567C33.3163 32.0321 27.9132 32.0011 24.3786 35.3177C22.6657 36.8749 22.2037 38.7085 23.2731 40.8142C18.7447 38.8452 18.6049 35.5122 16.9512 30.6931C16.6227 29.7633 16.4483 29.679 16.8889 29.3852C18.5977 28.3801 18.6392 28.2126 19.6138 28.1083C33.2695 26.9249 46.8785 24.2312 60.581 24.8073L66.7782 24.9007C68.5283 27.1915 69.4746 28.7899 68.8804 31.7208Z" fill="#1CFFA0"/>
<path d="M45.8352 27.7033C42.8293 27.9151 56.7243 26.9362 16.4375 29.7743L18.9286 26.5043L43.9824 24.6514C44.0652 24.7878 45.9543 27.8995 45.8352 27.7033Z" fill="#0A8D12"/>
<path d="M45.8304 27.7038L19.5 29.556L21.1969 27.3301L44.554 25.6011L45.8304 27.7038Z" fill="black"/>
<path d="M69.314 30.5842C62.6953 30.657 65.0806 30.146 59.8312 30.4597C59.0682 30.522 58.2897 30.4285 57.5111 30.4441C53.5405 30.5531 49.601 29.6032 45.6307 29.7434C44.652 29.775 44.1916 29.6832 43.8554 28.7313C42.3036 24.439 40.0975 12.6514 39.2309 6.37144C39.1841 6.02892 39.5266 5.76415 39.838 5.88874C39.9782 5.9355 40.1029 5.98216 40.2428 6.01333V6.02892C44.0424 7.32124 48.0595 7.74168 52.0769 8.23997C54.1162 8.50031 57.168 8.84733 59.2241 8.50464C60.1692 8.3694 58.9568 9.58022 63.4593 13.9701C67.3591 17.7228 68.1202 17.5687 67.9591 18.1586C67.7101 19.1863 67.85 20.2607 68.0371 21.304C68.0838 21.5219 68.115 21.7243 68.1614 21.9268C69.6868 29.5463 69.5172 28.736 70.0458 29.7901C70.1389 30.0237 70.1339 30.5842 69.314 30.5842Z" fill="#2FF7A3"/>
<path d="M58.9679 45.0982C58.532 45.1145 38.156 45.6121 38.0095 45.6121C33.8501 45.6121 29.5651 44.7992 26.9544 41.5792C25.325 39.5423 24.591 36.3914 21.8159 30.6639C20.1362 27.2212 19.1975 23.3978 15.8209 21.5862C15.2138 21.2747 14.5288 21.0411 13.8746 20.8231C11.5237 20.0291 9.09457 19.2038 6.61866 19.1103C5.85649 19.0772 5.49799 18.0358 6.40083 17.5844C8.71301 16.3512 9.552 15.2644 9.68609 15.2644C9.73284 15.2176 9.7796 15.1864 9.82636 15.1864C10.0161 15.0782 10.2347 15.0665 10.4179 15.1398C10.7783 15.1398 11.2421 15.9053 10.698 16.4477C10.5775 16.5685 9.57982 17.402 8.98547 17.8179C10.8668 18.1662 12.0477 18.5869 14.3729 19.3439C16.7764 20.1799 18.6025 21.0094 20.5234 24.2021C21.6737 26.2053 21.6361 26.779 23.2171 29.9944C26.327 36.3586 26.5483 38.5934 28.169 40.5982C31.0845 44.2149 36.4172 44.1529 40.75 43.9771C47.0621 43.7873 54.8746 43.6921 58.9215 43.5411C59.2329 43.51 59.5598 43.7436 59.6845 44.0706C59.8679 44.5285 59.5212 45.0785 58.9679 45.0982Z" fill="#019A5A"/>
<path d="M69.314 30.5842C62.6953 30.657 65.0806 30.146 59.8312 30.4597C59.0682 30.522 58.2897 30.4285 57.5111 30.4441C53.5405 30.5531 49.601 29.6032 45.6307 29.7434C44.652 29.775 44.1916 29.6832 43.8554 28.7313C42.2848 24.387 40.1256 12.8289 39.2309 6.37144C39.1841 6.02892 39.5266 5.76415 39.838 5.88874C39.9782 5.9355 40.1029 5.98216 40.2428 6.02892C40.2428 6.68782 40.5484 7.46857 40.6854 8.11543C43.3563 20.729 43.2052 21.0459 44.351 22.0785C45.6596 23.2577 48.1285 23.7878 49.0834 22.1744C49.3903 21.6558 49.8031 21.1985 50.1672 20.7122C52.6395 17.4101 56.3127 10.4824 58.6634 8.5669C59.9406 8.46089 59.4034 8.39787 60.1893 9.90607C59.529 11.3363 58.3446 13.3636 55.778 17.9265C54.9518 19.3952 52.4343 22.6801 53.498 24.0024C53.6472 24.188 53.7879 24.1979 53.9839 24.1668C55.7706 23.8832 56.4234 22.7382 60.3527 20.3853C62.5351 19.0784 64.8561 17.974 67.3209 17.3178C67.7333 17.6894 68.0604 17.7878 67.9592 18.1586C67.7101 19.1863 67.85 20.2607 68.0371 21.304C65.3748 22.8291 61.9237 23.2705 59.324 24.5795C58.1522 25.1695 56.7522 26.754 56.6406 27.0917C56.1389 28.6115 59.5979 28.7882 60.3785 28.9394C63.3421 29.5138 66.6236 29.037 69.999 29.6812C70.2512 30.248 70.1792 30.5842 69.314 30.5842Z" fill="#21E22D"/>
<path d="M69.3163 30.5846C62.6977 30.6574 65.0829 30.1463 59.8335 30.4601C59.0705 30.5223 58.292 30.4289 57.5135 30.4445C53.5428 30.5535 49.6033 29.6036 45.633 29.7438C45.1502 29.7594 44.6207 29.7749 44.2782 29.4479C43.3624 28.6638 41.3757 18.7447 41.1328 17.4739C43.4816 24.2438 43.5465 26.3767 44.7765 26.8943C45.259 27.0967 45.8353 26.9254 46.3025 26.6762C47.8297 25.8452 48.7281 24.2017 51.0517 20.8839C55.9033 13.9907 56.2264 11.7005 58.2452 9.9375C58.3232 10.467 58.0426 10.9808 57.7936 11.4479C47.6401 29.3995 46.8128 29.1029 59.9738 21.8181C60.7675 21.3822 61.6864 20.9929 62.387 20.4168C63.7262 19.3424 65.47 18.6729 67.1518 18.3458C67.1206 18.7507 66.7625 19.0465 66.4356 19.2956C64.4736 20.7905 62.387 22.1451 60.2228 23.3441C58.2066 24.4521 53.6363 26.6923 53.6363 27.8441C53.6659 30.7701 63.671 29.3146 70.0481 29.7904C70.2417 30.2759 70.1363 30.5846 69.3163 30.5846Z" fill="black"/>
<path d="M45.7017 39.1535C48.5045 40.0225 46.4612 35.6119 42.8585 35.4445C42.4408 35.4251 41.9247 35.5329 41.806 35.9339C41.6101 36.5962 42.6264 37.5575 43.0915 37.9492C43.7902 38.5376 44.8426 38.8871 45.7017 39.1535Z" fill="#1CFFA0"/>
<path d="M50.2194 37.7597C50.8788 37.9642 51.2299 37.6379 50.9189 37.0462C49.8119 34.9402 46.2549 35.0271 48.6278 37.0254C49.0538 37.3842 49.6956 37.5973 50.2194 37.7597Z" fill="#1CFFA0"/>
<path d="M24.8498 25.8841C24.3825 25.7907 23.9781 25.4326 23.7287 25.0278C23.0452 23.9534 23.2606 22.8062 22.1093 21.3375C20.8015 19.6714 18.5123 19.2354 16.6127 18.3167C15.1803 17.6316 13.8878 16.6195 12.3307 16.3547C9.46597 15.8336 8.15305 18.1695 6.39844 17.5849C8.71061 16.3517 9.5496 15.2649 9.68369 15.2649C9.73045 15.2181 9.77721 15.1869 9.82396 15.1869C10.0137 15.0787 10.2323 15.067 10.4155 15.1403C10.5501 15.1403 16.4383 17.118 20.023 19.0018C23.0747 20.6405 22.9442 21.4327 24.8498 25.8841Z" fill="#52CC99"/>
<path d="M59.6877 44.0709C58.8157 44.2577 57.8968 44.2421 57.0096 44.2421C50.3919 44.1798 43.7895 45.2387 37.1718 45.1141C32.318 45.0028 29.6344 44.0134 26.9264 39.6175C23.853 34.6335 22.5843 30.9476 20.4643 25.5414C19.7696 23.7427 19.4256 23.1563 17.693 21.8667C16.1203 20.7612 14.4074 19.8736 12.5857 19.2508C11.7604 18.9705 10.8571 18.6902 10.2656 18.083C11.6669 18.4411 13.0369 18.9082 14.3762 19.3442C16.7796 20.1802 18.6057 21.0097 20.5266 24.2024C21.6769 26.2056 21.6394 26.7793 23.2204 29.9947C26.3302 36.3589 26.5516 38.5937 28.1722 40.5985C31.0877 44.2152 36.4204 44.1532 40.7532 43.9774C47.0654 43.7876 54.8778 43.6924 58.9248 43.5414C59.2361 43.5103 59.563 43.7439 59.6877 44.0709Z" fill="#52CC99"/>
<path d="M49.9574 15.4041C50.3066 14.9269 50.8687 14.7216 51.005 15.2942C51.1811 16.0339 50.627 19.0492 49.5865 18.2416C48.7453 17.5888 49.482 16.054 49.9574 15.4041Z" fill="#21E22D"/>
<path d="M50.1521 13.9942C50.042 14.4573 49.8086 14.9667 49.4313 14.6739C48.4822 13.9373 50.8451 11.0815 50.1521 13.9942Z" fill="#21E22D"/>
<path d="M55.2717 69.2791C59.1971 69.2791 62.3792 66.097 62.3792 62.1716C62.3792 58.2461 59.1971 55.064 55.2717 55.064C51.3462 55.064 48.1641 58.2461 48.1641 62.1716C48.1641 66.097 51.3462 69.2791 55.2717 69.2791Z" fill="#0A8D12"/>
<path d="M54.6701 69.223C58.5955 69.223 61.7777 66.0408 61.7777 62.1154C61.7777 58.19 58.5955 55.0078 54.6701 55.0078C50.7447 55.0078 47.5625 58.19 47.5625 62.1154C47.5625 66.0408 50.7447 69.223 54.6701 69.223Z" fill="#09A463"/>
<path d="M59.159 62.1157C59.159 64.8425 56.7355 66.9094 54.1465 66.5714C51.9186 66.308 50.1875 64.4113 50.1875 62.1157C50.1875 59.6539 52.1871 57.6299 54.6733 57.6299C57.1495 57.6299 59.159 59.6395 59.159 62.1157Z" fill="black"/>
<path d="M54.1464 66.5713C56.3329 66.5713 58.1054 64.5763 58.1054 62.1155C58.1054 59.6546 56.3329 57.6597 54.1464 57.6597C51.96 57.6597 50.1875 59.6546 50.1875 62.1155C50.1875 64.5763 51.96 66.5713 54.1464 66.5713Z" fill="#0A8D12"/>
<path d="M34.496 70.1433C38.7653 70.1433 42.2263 66.6823 42.2263 62.413C42.2263 58.1436 38.7653 54.6826 34.496 54.6826C30.2266 54.6826 26.7656 58.1436 26.7656 62.413C26.7656 66.6823 30.2266 70.1433 34.496 70.1433Z" fill="#0A8D12"/>
<path d="M33.8397 70.0818C38.1091 70.0818 41.5701 66.6208 41.5701 62.3514C41.5701 58.0821 38.1091 54.6211 33.8397 54.6211C29.5704 54.6211 26.1094 58.0821 26.1094 62.3514C26.1094 66.6208 29.5704 70.0818 33.8397 70.0818Z" fill="#09A463"/>
<path d="M38.719 62.3516C38.719 65.0449 36.5333 67.2307 33.8399 67.2307C31.1317 67.2307 28.9609 65.0257 28.9609 62.3516C28.9609 59.8548 30.8438 57.7919 33.2669 57.5054C36.0892 57.1369 38.719 59.3899 38.719 62.3516Z" fill="black"/>
<path d="M33.2667 67.1981C35.6448 67.1981 37.5725 65.0281 37.5725 62.3513C37.5725 59.6744 35.6448 57.5044 33.2667 57.5044C30.8887 57.5044 28.9609 59.6744 28.9609 62.3513C28.9609 65.0281 30.8887 67.1981 33.2667 67.1981Z" fill="#0A8D12"/>
</svg>
