<svg width="74" height="74" viewBox="0 0 74 74" fill="none" xmlns="http://www.w3.org/2000/svg">
<g clip-path="url(#clip0_789_574)">
<path d="M37.0837 13.918L23.7555 27.6631C22.9003 28.545 22.422 29.7252 22.4219 30.9536V69.8785C22.4219 70.5446 22.6865 71.1834 23.1575 71.6544C23.6285 72.1254 24.2673 72.39 24.9334 72.39H49.2339C49.9 72.39 50.5388 72.1254 51.0098 71.6544C51.4808 71.1834 51.7454 70.5446 51.7454 69.8785V30.9541C51.7454 29.7256 51.267 28.5454 50.4118 27.6635L37.0837 13.918ZM37.0837 30.0431C36.3385 30.0431 35.6101 29.8221 34.9905 29.4081C34.3709 28.9941 33.888 28.4057 33.6028 27.7173C33.3177 27.0288 33.2431 26.2713 33.3884 25.5405C33.5338 24.8096 33.8927 24.1383 34.4196 23.6114C34.9465 23.0845 35.6178 22.7257 36.3486 22.5803C37.0795 22.4349 37.837 22.5095 38.5255 22.7947C39.2139 23.0798 39.8023 23.5627 40.2163 24.1823C40.6303 24.8019 40.8513 25.5303 40.8513 26.2755C40.8513 26.7703 40.7538 27.2602 40.5645 27.7173C40.3752 28.1744 40.0977 28.5898 39.7478 28.9396C39.3979 29.2895 38.9826 29.567 38.5255 29.7563C38.0684 29.9457 37.5784 30.0431 37.0837 30.0431Z" fill="white" fill-opacity="0.1"/>
<path d="M36.7645 34.6997C35.1101 34.6997 33.7642 35.971 33.7642 37.5336V39.1287C31.197 39.7733 29.3314 41.9966 29.3314 44.5277V46.9145C29.3314 49.9956 32.0105 52.5024 35.3033 52.5024H37.4542V54.7284H32.3318C30.6773 54.7284 29.3314 55.9999 29.3314 57.5624C29.3314 59.1249 30.6768 60.3963 32.3318 60.3963H33.7642V61.8025C33.7642 63.3651 35.1097 64.6365 36.7645 64.6365C38.4193 64.6365 39.7647 63.3651 39.7647 61.8025V59.9737C41.9934 59.1162 43.4547 57.1017 43.4547 54.809V52.4224C43.4547 49.3411 40.7756 46.8345 37.4827 46.8345H35.3319V44.6077H40.4544C42.1086 44.6077 43.4547 43.3364 43.4547 41.7738C43.4547 40.2111 42.1092 38.9398 40.4544 38.9398H39.7647V37.5336C39.7647 35.971 38.4188 34.6997 36.7645 34.6997ZM40.4544 40.4023C41.3027 40.4023 41.9922 41.0175 41.9922 41.7738C41.9922 42.53 41.3024 43.1453 40.4544 43.1453H35.3033C34.9301 43.1392 34.5698 43.2813 34.3011 43.5404C34.0325 43.7995 33.8775 44.1546 33.8701 44.5277V46.9145C33.8775 47.2876 34.0325 47.6427 34.3011 47.9018C34.5698 48.1609 34.9301 48.303 35.3033 48.2969H37.4824C39.9686 48.2969 41.9919 50.1475 41.9919 52.4224V54.809C41.9919 56.6198 40.7216 58.2019 38.8311 58.7458C38.6786 58.7897 38.5445 58.8819 38.4491 59.0087C38.3536 59.1355 38.302 59.2898 38.302 59.4485V61.8031C38.302 62.5593 37.6121 63.1746 36.7642 63.1746C35.9163 63.1746 35.2264 62.5593 35.2264 61.8031V59.6657C35.2264 59.4717 35.1494 59.2858 35.0122 59.1486C34.8751 59.0115 34.6891 58.9344 34.4952 58.9344H32.3318C31.4835 58.9344 30.7938 58.3192 30.7938 57.563C30.7938 56.8067 31.4838 56.1915 32.3318 56.1915H37.4827C37.856 56.1978 38.2166 56.0558 38.4854 55.7966C38.7542 55.5375 38.9093 55.1823 38.9167 54.809V52.4224C38.9093 52.0491 38.7542 51.6939 38.4854 51.4348C38.2166 51.1756 37.856 51.0336 37.4827 51.0399H35.3036C32.8174 51.0399 30.7941 49.1892 30.7941 46.9145V44.5277C30.7941 42.517 32.4303 40.7652 34.6 40.4529C34.7741 40.4278 34.9333 40.3408 35.0485 40.2079C35.1636 40.0749 35.227 39.905 35.227 39.7291V37.5336C35.227 36.7774 35.917 36.1621 36.7648 36.1621C37.6126 36.1621 38.3026 36.7774 38.3026 37.5336V39.671C38.3026 39.865 38.3796 40.051 38.5167 40.1881C38.6539 40.3252 38.8399 40.4023 39.0338 40.4023H40.4544ZM66.0129 15.789C65.8189 15.789 65.633 15.866 65.4958 16.0032C65.3587 16.1403 65.2817 16.3263 65.2817 16.5202C65.2751 17.6313 64.8291 18.6946 64.0412 19.4779C63.2532 20.2612 62.1873 20.7009 61.0763 20.7009C59.9652 20.7009 58.8993 20.2612 58.1113 19.4779C57.3234 18.6946 56.8774 17.6313 56.8709 16.5202V10.5652C56.8605 7.75956 55.7386 5.07235 53.751 3.09211C51.7634 1.11187 49.072 0 46.2663 0C43.4606 0 40.7693 1.11187 38.7817 3.09211C36.7941 5.07235 35.6722 7.75956 35.6618 10.5652V21.7999C34.5472 21.9835 33.5424 22.5797 32.8471 23.4701C32.1519 24.3605 31.8171 25.4798 31.9092 26.6057C32.0013 27.7316 32.5136 28.7817 33.3443 29.5472C34.175 30.3127 35.2634 30.7377 36.393 30.7377C37.5227 30.7377 38.611 30.3127 39.4417 29.5472C40.2724 28.7817 40.7848 27.7316 40.8769 26.6057C40.969 25.4798 40.6342 24.3605 39.9389 23.4701C39.2437 22.5797 38.2389 21.9835 37.1243 21.7999V10.5652C37.1196 9.3616 37.3526 8.16889 37.81 7.05555C38.2674 5.9422 38.9401 4.93013 39.7896 4.07742C40.6391 3.2247 41.6486 2.54813 42.7602 2.08652C43.8718 1.62491 45.0636 1.38735 46.2673 1.38748C47.4709 1.38761 48.6627 1.62541 49.7742 2.08725C50.8857 2.54909 51.8951 3.22587 52.7444 4.07876C53.5937 4.93165 54.2662 5.94386 54.7234 7.0573C55.1806 8.17075 55.4133 9.3635 55.4084 10.5671V16.5194C55.416 18.0176 56.0165 19.4518 57.0786 20.5086C58.1407 21.5653 59.578 22.1585 61.0763 22.1585C62.5745 22.1585 64.0118 21.5653 65.0739 20.5086C66.136 19.4518 66.7365 18.0176 66.7441 16.5194C66.744 16.3255 66.6669 16.1397 66.5297 16.0027C66.3926 15.8657 66.2067 15.7887 66.0129 15.7887V15.789ZM39.4294 26.2382C39.4294 26.8387 39.2514 27.4258 38.9177 27.9251C38.5841 28.4245 38.1099 28.8137 37.5551 29.0435C37.0003 29.2733 36.3898 29.3335 35.8007 29.2163C35.2117 29.0992 34.6707 28.81 34.246 28.3854C33.8214 27.9608 33.5322 27.4197 33.415 26.8307C33.2978 26.2417 33.358 25.6312 33.5878 25.0764C33.8176 24.5215 34.2068 24.0473 34.7061 23.7137C35.2054 23.38 35.7925 23.2019 36.393 23.2019C37.198 23.2028 37.9698 23.5229 38.5391 24.0922C39.1083 24.6614 39.4285 25.4332 39.4294 26.2382ZM50.2462 27.1168C51.2363 28.1336 51.789 29.4975 51.786 30.9167V69.8412C51.785 70.7009 51.443 71.5251 50.8351 72.133C50.2272 72.7409 49.403 73.0829 48.5433 73.0839H24.2427C23.383 73.0829 22.5588 72.7409 21.9509 72.133C21.343 71.5251 21.0011 70.7009 21 69.8412V46.1746C21 45.9807 21.0771 45.7947 21.2142 45.6575C21.3513 45.5204 21.5373 45.4434 21.7312 45.4434C21.9252 45.4434 22.1112 45.5204 22.2483 45.6575C22.3854 45.7947 22.4625 45.9807 22.4625 46.1746V69.8412C22.463 70.3132 22.6508 70.7657 22.9845 71.0994C23.3182 71.4332 23.7707 71.6209 24.2427 71.6215H48.5433C49.0153 71.6209 49.4678 71.4332 49.8015 71.0994C50.1353 70.7657 50.323 70.3132 50.3236 69.8412V30.9167C50.3258 29.8777 49.9211 28.8791 49.1962 28.1347L39.229 17.8558C39.094 17.7165 39.0199 17.5293 39.0229 17.3354C39.0259 17.1415 39.1058 16.9567 39.245 16.8217C39.3843 16.6867 39.5715 16.6126 39.7654 16.6156C39.9593 16.6186 40.1441 16.6985 40.2791 16.8377L50.2462 27.1168ZM21 43.1167V41.9335C21 41.7395 21.0771 41.5535 21.2142 41.4164C21.3513 41.2793 21.5373 41.2022 21.7312 41.2022C21.9252 41.2022 22.1112 41.2793 22.2483 41.4164C22.3854 41.5535 22.4625 41.7395 22.4625 41.9335V43.1167C22.4625 43.3107 22.3854 43.4967 22.2483 43.6338C22.1112 43.7709 21.9252 43.848 21.7312 43.848C21.5373 43.848 21.3513 43.7709 21.2142 43.6338C21.0771 43.4967 21 43.3107 21 43.1167ZM21 39.0085V30.9167C20.9971 29.4976 21.5498 28.1336 22.5398 27.1168L32.507 16.8376C32.642 16.6983 32.8267 16.6184 33.0207 16.6154C33.2146 16.6124 33.4018 16.6866 33.541 16.8216C33.6802 16.9566 33.7602 17.1414 33.7632 17.3353C33.7662 17.5292 33.692 17.7164 33.557 17.8556L23.5897 28.1345C22.865 28.879 22.4604 29.8776 22.4625 30.9166V39.0085C22.4625 39.2025 22.3854 39.3885 22.2483 39.5256C22.1112 39.6627 21.9252 39.7398 21.7312 39.7398C21.5373 39.7398 21.3513 39.6627 21.2142 39.5256C21.0771 39.3885 21 39.2025 21 39.0085Z" fill="white" fill-opacity="0.9"/>
<rect width="18.5733" height="31.7355" transform="translate(27.6406 33.1602)" fill="#33373A"/>
</g>
<defs>
<clipPath id="clip0_789_574">
<rect width="73.1232" height="73.1232" fill="white"/>
</clipPath>
</defs>
</svg>
