<svg width="61" height="61" viewBox="0 0 61 61" fill="none" xmlns="http://www.w3.org/2000/svg">
<path d="M59.7528 1.83758C58.9188 0.758164 57.8572 0.169609 56.6063 0.104082C56.2302 0.0847318 55.8532 0.10912 55.4828 0.176758C55.2969 0.210117 55.1134 0.253008 54.9323 0.304238L54.9061 0.311387C54.8239 0.335215 54.7417 0.359043 54.6607 0.385254L54.6214 0.399551C54.5419 0.424967 54.4657 0.451178 54.3926 0.478184L54.3402 0.499629C54.2703 0.52584 54.2 0.553242 54.1293 0.581836L54.0805 0.60209L53.8708 0.692637L53.8136 0.720039C53.7469 0.749824 53.6813 0.780801 53.617 0.811777L53.5777 0.832031C53.5074 0.866582 53.4383 0.902324 53.3692 0.938066L53.2763 0.988105L53.1273 1.07389L53.0416 1.12273C52.9915 1.15133 52.9415 1.17992 52.8926 1.20971L52.8188 1.25379L52.6651 1.34791L52.5984 1.3908L52.4447 1.4885L52.3791 1.53258C52.3303 1.56594 52.2803 1.59811 52.2326 1.63146L52.1706 1.67436L52.0301 1.77324L51.9586 1.82447L51.8394 1.91383L51.7715 1.96387L51.6524 2.05203L51.6059 2.08897L51.4784 2.18785L51.4332 2.22479L51.314 2.31771L51.2545 2.36775L51.1627 2.44281L51.1151 2.48451L51.0233 2.56195L50.9852 2.59531L50.897 2.67275L50.8518 2.71326L50.7827 2.77522L50.7064 2.84432L50.6826 2.86576C50.5253 3.01111 50.4276 3.10404 50.3978 3.13979L17.5746 35.7974C14.0468 35.1136 10.2999 36.3562 8.31617 38.9141C5.55807 42.4574 5.20898 45.8243 4.87301 49.0685C4.5418 52.2591 4.22965 55.2733 1.48822 58.2125L0.0859375 59.7149H2.14111C2.70703 59.7149 16.0806 59.6387 21.4657 52.9239C23.6103 50.2647 24.7695 46.7643 24.5634 43.6881L29.6364 38.6949L54.3092 14.426L57.5332 11.2568C58.2287 10.6696 58.8536 10.0035 59.3953 9.27195C59.4061 9.25766 59.4168 9.24098 59.4287 9.22668C59.6026 8.9884 59.773 8.73344 59.9338 8.46418C61.3385 6.10281 61.2766 3.81412 59.7528 1.83758ZM24.1821 41.5591C23.8814 40.55 23.3878 39.6089 22.7286 38.7878C21.8681 37.7368 20.7638 36.9119 19.5118 36.3848L23.6103 32.3126C25.9537 33.2109 27.3775 35.029 27.9505 37.8526L24.1821 41.5591ZM56.3811 9.89029L56.3441 9.91889L54.1674 12.0634C53.3335 9.48521 51.7262 7.68619 49.3661 6.69256L51.6738 4.39434C52.3887 3.66162 54.6619 1.78635 56.5074 1.89238C57.2222 1.93408 57.8274 2.27602 58.3386 2.93605C60.8882 6.23268 56.5681 9.74018 56.3811 9.89029Z" fill="#33373A"/>
<path d="M59.3568 2.14286C58.6021 1.16633 57.6702 0.660628 56.5806 0.603421L59.3568 2.14286ZM59.3568 2.14286C60.0612 3.05652 60.4145 4.02256 60.4417 5.0202C60.4689 6.02115 60.1688 7.091 59.5046 8.20777L59.3568 2.14286ZM52.7184 1.90699L52.8666 1.81277L52.8688 1.81138L52.9309 1.77144L53.075 1.68315L53.0799 1.68018L53.1489 1.63909L53.1529 1.6366C53.1945 1.61125 53.2382 1.58626 53.289 1.55723L52.7184 1.90699ZM53.2896 1.55686L53.3748 1.50838L53.3769 1.50715L53.5196 1.42494L53.6026 1.38028C53.671 1.34489 53.7345 1.31211 53.7983 1.28076L53.7983 1.28084L53.8067 1.27651L53.8399 1.25938C53.9002 1.23038 53.9589 1.20271 54.0174 1.1766L54.0175 1.17677L54.0296 1.17095L54.078 1.14778L54.272 1.06396L54.2787 1.06112L54.3168 1.04535C54.3175 1.04508 54.3181 1.04481 54.3188 1.04455C54.3849 1.01781 54.4506 0.99223 54.5158 0.967791L54.5227 0.965198L54.5295 0.962402L54.5738 0.944294C54.6371 0.921016 54.7038 0.898159 54.7738 0.875762L54.7831 0.872786L54.7922 0.86945L54.8229 0.858314C54.8917 0.836232 54.9627 0.815555 55.0415 0.792716L55.0639 0.78662L55.0639 0.786642L55.0684 0.785357C55.2347 0.738309 55.4023 0.699194 55.5711 0.668896L55.5726 0.668625C55.9049 0.607948 56.2431 0.586065 56.5805 0.603416L53.2896 1.55686ZM23.703 41.7019L23.9403 42.4982L24.5327 41.9155L28.3012 38.2091L28.4945 38.0189L28.4406 37.7532C27.8394 34.7912 26.3184 32.8152 23.7892 31.8457L23.4872 31.7299L23.2578 31.9579L19.1594 36.0301L18.6301 36.5561L19.3178 36.8456C20.494 37.3408 21.5316 38.1157 22.3403 39.1029C22.9582 39.873 23.4209 40.7556 23.703 41.7019ZM56.6872 10.2857L56.6872 10.2857L56.694 10.2802C56.8 10.1952 57.9834 9.23597 58.8148 7.85037C59.6509 6.45699 60.1892 4.51168 58.7341 2.63016L58.7339 2.62993C58.1492 1.87485 57.4181 1.44466 56.5365 1.39323L56.536 1.39321C55.455 1.33109 54.315 1.84223 53.4044 2.4031C52.4801 2.97238 51.7028 3.64914 51.3185 4.04252C51.3177 4.04341 51.3168 4.04429 51.3159 4.04517L49.0133 6.33827L48.4852 6.86419L49.1721 7.15339C51.3894 8.08686 52.8995 9.76819 53.6917 12.2173L53.9411 12.9883L54.5184 12.4196L56.6738 10.296L56.6872 10.2857Z" stroke="white" stroke-opacity="0.8"/>
</svg>
