<svg width="480" height="422" viewBox="0 0 480 422" fill="none" xmlns="http://www.w3.org/2000/svg">
<g clip-path="url(#clip0_1617_2556)">
<path fill-rule="evenodd" clip-rule="evenodd" d="M10.6939 271.263C16.5511 271.711 22.4082 272.159 28.2635 272.606C56.3145 274.278 84.352 277.766 112.188 279.86C112.881 278.981 114.236 279.126 115.061 279.736C117.837 279.547 120.951 277.892 123.467 279.613C123.548 279.604 123.63 279.594 123.712 279.587C128.192 272.886 131.289 265.737 134.294 258.579C136.212 254.179 138.792 249.919 143.562 246.963C151.7 242.56 170.349 233.629 179.907 234.006C180.066 232.672 180.862 231.296 182.172 230.409C179.286 226.572 190.829 224.069 191.642 224.514C191.12 211.698 198.855 200.568 215.908 198.014C231.186 195.534 252.918 195.116 261.134 207.562C262.039 207.484 271.27 207.446 272.165 207.523C273.553 206.153 288.807 219.147 282.555 223.669C338.448 242.943 370.228 240.642 385.698 294.823C387.789 299.912 387.942 305.482 390.15 310.458C398.007 324.759 404.38 339.988 405.966 355.549C409.797 356.312 410.237 361.578 405.8 362.339C404.105 362.631 402.688 363.029 401.452 363.782C402.418 376.534 398.462 405.664 395.969 405.575C390.886 418.184 368.212 421.744 352.159 417.311C354.927 421.37 352.159 423.92 352.159 426.09C294.399 427.793 231.245 426.811 173.5 429.148C166.113 429.067 158.344 430.563 151.058 429.7C146.616 428.87 146.608 423.426 151.114 422.751L131.423 419.417C131.863 419.289 123.306 414.852 116.837 406.561C110.817 397.287 114.915 386.091 112.188 376.002C90.8808 374.643 69.2247 374.062 48.1529 371.25C45.2797 377.951 32.8412 369.937 28.8886 366.714C28.8944 366.709 28.8983 366.705 28.9041 366.699C26.9899 366.292 25.4562 364.894 25.4038 363.239C24.0623 361.744 23.7808 359.637 25.0679 358.194C19.17 331.668 10.1795 304.585 6.9296 277.81C5.78223 277.612 4.69894 277.22 3.78262 276.615L3.85638 276.558C2.30325 275.207 2.0004 272.876 4.59216 271.728C6.68109 270.802 8.42639 271.089 10.6939 271.263Z" fill="white"/>
<path fill-rule="evenodd" clip-rule="evenodd" d="M260.078 204.671C258.337 201.261 252.454 202.588 253.111 206.168C253.503 208.313 255.011 210.579 256.364 212.46C257.467 213.991 258.725 215.484 260.43 216.63C257.393 218.839 254.244 220.966 251.014 222.983C247.488 225.187 243.782 227.218 239.95 229.084C236.591 230.721 233.079 232.172 229.913 234.04C226.968 235.776 224.287 237.864 222.922 240.59C221.468 243.493 222.099 246.491 223.171 249.392L223.293 249.72C224.386 252.594 226.281 256.058 223.654 258.768C222.318 260.146 220.375 261.121 218.698 262.224C217.205 263.204 215.805 264.269 214.522 265.413C211.722 267.907 209.445 270.715 208.008 273.842L207.88 274.126C206.65 276.894 205.749 280.286 207.412 283.004C207.89 283.783 209.43 283.53 209.697 282.771C210.303 281.052 210.27 279.252 210.777 277.51C211.305 275.696 212.182 273.976 213.33 272.349C215.547 269.199 218.55 266.508 222.101 264.234L223.163 263.561C225.931 261.79 228.475 259.911 229.038 256.98C229.637 253.844 228.026 250.856 226.989 247.888C226.267 245.819 226.032 243.837 226.813 241.968C227.766 243.181 229.067 244.332 230.096 245.359C232.146 247.406 234.213 249.44 236.277 251.478C238.393 253.567 240.457 255.689 242.421 257.868C243.301 258.842 244.171 259.822 245.036 260.802C245.689 261.539 246.597 262.276 247.308 263.027C247.135 263.43 247.149 263.894 247.461 264.224C251.228 268.19 256.588 259.913 257.985 257.821C260.832 253.561 262.95 249.036 265.807 244.778C268.766 240.363 272.136 236.067 275.891 232.035C278.162 229.598 280.709 227.308 282.787 224.793C287.684 228.254 294.126 230.574 300.044 232.677C306.546 234.988 313.301 236.876 319.967 238.882L321.936 239.478C333.422 242.972 345.189 246.81 354.736 253.016C365.955 260.311 372.592 270.476 377.533 281.003C383.221 293.121 387.927 305.566 392.313 318.004C394.558 324.368 396.688 330.761 398.691 337.173C400.455 342.823 401.918 348.529 403.96 354.121C399.818 354.006 395.093 355.257 391.556 355.617C375.438 357.262 359.536 359.883 344.318 364.423C342.439 364.984 341.895 366.447 342.304 367.633C341.22 367.395 340.137 367.153 339.053 366.916C340.241 365.497 339.674 362.961 339.58 361.388L339.575 361.281C339.479 359.186 339.187 357.088 338.998 354.997C338.638 351.011 338.169 347.054 337.546 343.089L337.387 342.098C336.681 337.787 336.158 333.449 335.388 329.144L335.297 328.652C335.666 327.551 336.096 326.462 336.548 325.379C337.751 322.494 339.45 319.777 340.938 316.983C341.114 316.655 340.513 316.466 340.232 316.663C337.711 318.431 335.709 320.673 334.1 323.017C334.072 322.907 334.047 322.797 334.018 322.686L333.835 321.981C333.382 320.264 332.831 318.457 331.48 317.064C331.336 316.917 331.051 316.885 330.915 317.064C329.622 318.77 329.477 320.931 329.278 322.874C329.053 325.069 329.024 327.294 329.064 329.496C329.142 333.8 329.531 338.117 329.841 342.413C330.145 346.637 330.743 350.806 331.512 354.987L331.659 355.772C332.035 357.761 332.343 359.776 332.84 361.753L332.98 362.291C333.245 363.272 333.408 364.653 333.937 365.801C320.345 362.846 306.733 359.959 293.094 357.122C283.237 355.071 273.369 353.052 263.507 351.019C262.986 350.288 262.338 349.604 261.529 348.995C258.865 346.983 255.334 346.086 252.093 347.633C251.831 347.76 251.808 348.081 252.093 348.204C252.715 348.468 253.336 348.739 253.947 349.022L248.024 347.771C243.598 346.836 239.117 345.667 234.586 345.015C226.242 341.805 217.265 339.482 208.474 337.185L207.44 336.911C202.938 335.716 198.282 334.376 193.631 333.714C190.225 333.228 186.23 333.813 184.861 336.533C183.128 337.423 181.497 338.47 179.923 339.498C178.785 340.242 177.694 341.034 176.585 341.803L176.381 341.943C175.475 342.555 174.756 342.967 174.533 343.942C174.419 344.446 174.83 345.128 175.628 345.062C178.068 344.858 180.053 342.652 181.709 341.336C182.988 340.318 184.277 339.265 185.444 338.147C186.123 338.435 187.057 338.383 187.49 337.743C189.736 334.429 195.888 336.727 199.292 337.512L204.168 338.637C206.607 339.2 209.045 339.767 211.478 340.344C218.166 341.926 224.819 343.697 231.567 345.151C230.963 345.668 231.047 346.588 232.194 346.939C237.475 348.555 243.27 349.39 248.758 350.498C252.222 351.199 255.685 351.904 259.146 352.612C259.739 353.362 260.166 354.209 260.346 355.195C261.006 358.824 259.733 363.011 258.492 366.521L258.304 367.046C257.285 369.867 255.784 373.326 252.66 375.108C251.897 375.542 250.927 375.845 249.948 375.913C243.835 373.46 237.721 371.007 231.604 368.558C230.47 368.106 229.422 368.72 229.168 369.449C227.011 369.174 224.86 368.738 222.899 368.221C219.606 367.348 217.034 365.686 213.947 364.536C207.972 362.311 201.872 365.044 196.521 367.121L195.289 367.593C192.891 368.501 187.9 370.244 186.75 367.763C185.636 365.362 189.156 362.797 191.429 361.716C194.137 360.428 197.294 359.739 200.356 359.165C202.105 358.836 203.873 358.569 205.654 358.373C207.675 358.153 209.76 358.186 211.705 357.675C212.67 357.422 212.819 356.225 211.705 356.027C208.711 355.496 205.139 356.076 202.015 356.669L200.383 356.982C197.236 357.584 194.058 358.339 191.19 359.54C189.107 360.413 186.906 361.741 185.469 363.364C184.221 362.461 182.668 362.491 181.05 362.827L180.171 363.016C178.721 363.331 177.546 363.545 176.135 363.329C175.947 362.529 175.754 361.727 175.551 360.927C173.539 353.058 171.334 345.219 168.901 337.421C164.702 323.972 159.847 310.671 154.37 297.504L153.821 296.188C152.559 293.177 151.541 289.897 149.505 287.13C147.579 284.515 144.494 283.007 140.829 282.21C136.67 281.304 132.298 280.83 128.055 280.219C127.109 280.083 126.16 279.953 125.212 279.82C126.012 278.693 126.61 277.413 127.148 276.431L127.243 276.262C128.4 274.206 129.439 272.114 130.442 270.01L131.192 268.429C133.003 264.62 134.873 260.875 137.42 257.314C140.101 253.565 143.657 250.501 148.09 247.966C157.129 242.794 168.024 240.156 176.791 234.628C177.15 234.403 176.69 234.016 176.325 234.159C170.406 236.477 164.015 238.053 157.859 239.941L156.643 240.314C151.776 241.818 146.834 243.456 142.623 245.89C137.926 248.605 134.226 251.977 131.446 255.986C128.707 259.938 126.954 264.362 125.022 268.583L124.504 269.709C123.725 271.396 122.92 273.076 121.997 274.719C121.264 276.021 119.897 277.508 119.276 278.997C117.575 278.767 115.876 278.537 114.174 278.316C77.3146 273.519 40.0439 270.7 2.68973 269.875C1.2298 269.843 0.472656 270.93 0.688171 271.923C4.2739 288.447 7.45972 305.026 10.9542 321.561C12.4801 328.778 14.0371 335.989 15.6291 343.197C16.4347 346.848 17.3686 350.486 18.1315 354.144C18.7489 357.097 19.1973 360.074 20.2554 362.958C21.2066 365.545 22.6646 368.04 25.0584 370.014C27.6385 372.14 31.2397 373.171 34.8662 373.656C44.0703 374.892 53.5113 375.396 62.7911 376.219L112.192 380.599C111.469 385.714 111.415 390.749 111.747 395.924L111.935 398.749C112.091 401.021 112.275 403.296 112.692 405.545C113.219 408.365 114.875 410.753 117.313 412.86C119.551 414.795 122.271 416.447 124.917 418.029C127.664 419.671 130.501 421.257 133.731 422.272L134.149 422.402C136.983 423.265 142.297 424.599 146.168 424.112C145.663 426.087 144.682 428.214 145.552 430.17C145.954 431.078 147.478 431.532 148.412 430.759C150.26 429.226 150.406 427.204 150.843 425.205C151.299 423.126 151.691 421.04 152.04 418.947C152.716 414.903 153.242 410.821 153.401 406.742C153.566 402.553 153.502 398.358 153.213 394.174C153.065 392.026 152.879 389.878 152.53 387.744C152.38 386.833 152.229 385.921 152.054 385.013C151.99 384.682 151.92 384.352 151.844 384.023L156.278 384.413C163.077 385.004 169.88 385.54 176.727 385.621C177.537 385.632 178.162 385.345 178.569 384.924C179.002 385.476 179.759 385.871 180.843 385.868C190.404 385.839 199.309 383.402 208.005 380.53C212.388 379.082 216.704 377.515 221.095 376.078C225.194 374.738 229.573 373.782 233.573 372.272L244.081 376.568C244.157 376.78 244.256 376.98 244.361 377.147C245.046 378.235 246.395 378.827 247.772 379.271C249.094 379.699 250.465 379.831 251.798 379.724C259.768 382.979 267.739 386.231 275.716 389.476L283.693 392.717C299.59 399.169 315.423 405.727 331.419 412.025L332.596 412.488C338.122 414.647 344.054 416.836 350.186 418.47C350.295 419.68 350.226 420.856 350.096 422.136L350.065 422.416C349.882 423.929 349.49 425.824 351.047 426.901C351.857 427.462 353.304 427.464 353.855 426.62C354.855 425.087 353.957 422.673 353.64 421.009C353.528 420.418 353.391 419.808 353.188 419.218C360.218 420.85 367.46 421.64 374.613 420.725C381.577 419.834 386.971 416.414 391.319 412.231C395.909 407.817 399.17 402.673 400.919 397.157C402.911 390.883 403.041 384.402 402.994 377.975C402.944 371.13 402.619 364.252 401.551 357.452C402.722 357.237 404.019 357.053 405.202 357.116C405.787 357.847 406.924 358.154 407.95 358.06C410.183 359.978 404.52 361.94 402.71 362.432C402.082 362.601 402.149 363.397 402.874 363.373L403.331 363.356C406.127 363.241 409.016 362.869 410.66 360.844C411.977 359.219 411.581 357.296 410.011 355.973C408.973 348.328 406.494 340.884 404.186 333.426C401.921 326.106 399.402 318.833 396.732 311.597L395.536 308.358C391.332 297.013 386.939 285.575 381.141 274.68C378.245 269.24 374.91 263.9 370.389 259.156C366.175 254.735 361.199 250.952 355.48 247.719C344.818 241.694 332.307 238.053 320.015 234.586L319.465 234.43C313.095 232.634 306.74 230.816 300.443 228.871C294.874 227.149 289.538 224.967 283.994 223.221C284.175 222.965 284.349 222.708 284.516 222.448L284.619 222.515C284.637 222.525 284.654 222.536 284.672 222.546C285.231 222.847 286.051 222.699 286.51 222.362C287.807 221.407 287.368 220.348 286.502 219.359L286.389 219.232C285.33 218.076 284.386 216.854 283.408 215.656L282.796 214.906C281.156 212.904 279.432 210.89 277.244 209.235C276.231 208.468 275.122 207.894 273.948 207.466C274.049 207.301 273.167 206.963 272.917 207.134C269.193 206.072 264.91 206.294 260.851 206.586M114.581 380.811L119.757 381.27C125.453 381.775 131.149 382.263 136.847 382.747L149.221 383.796C149.254 384.345 149.34 384.883 149.355 385.298C149.435 387.44 149.495 389.582 149.553 391.722C149.668 396.015 149.542 400.313 149.179 404.598C148.827 408.749 148.365 412.901 147.645 417.026L147.499 417.849L147.414 418.283C146.826 418.327 146.249 418.545 145.77 418.991C144.723 419.966 140.934 419.019 139.452 418.609C137.018 417.932 134.727 416.792 132.611 415.648C130.545 414.532 128.686 413.23 126.897 411.858L125.436 410.729C123.982 409.604 122.526 408.403 121.634 406.985C120.425 405.063 120.27 402.704 119.914 400.611C119.478 398.035 118.959 395.46 118.41 392.899M264.842 353.782L265.38 353.893C284.883 357.932 304.357 362.09 323.92 365.952C333.601 367.863 343.329 369.635 353.022 371.51L354.591 371.815C362.238 373.322 369.977 375.136 375.832 379.459C376.048 379.618 376.362 379.373 376.159 379.203C369.848 373.968 360.872 371.75 352.254 369.829C350.661 369.474 349.066 369.126 347.472 368.773C359.193 365.516 371.098 362.683 383.278 360.662C386.415 360.142 389.588 359.759 392.722 359.237C394.908 358.873 397.042 358.345 399.205 357.908L400.906 357.575L400.928 361.765C400.957 367.701 400.943 373.632 400.554 379.566L400.481 380.664C400.028 387.269 399.32 394.011 396.314 400.239C393.87 405.299 389.976 410.065 384.883 413.751C382.306 415.617 379.536 417.067 376.111 417.784C372.931 418.45 369.599 418.528 366.33 418.35C350.651 417.498 336.693 410.859 323.073 405.362C300.795 396.371 278.514 387.384 256.213 378.427C256.817 378.106 257.384 377.736 257.9 377.32C260.89 374.912 262.468 371.617 263.505 368.425C264.608 365.028 265.266 361.387 265.343 357.88M236.467 381.897C236.271 381.816 236.042 381.918 236.034 382.092C235.964 383.419 236.906 384.729 237.609 385.926L237.683 386.053C238.539 387.535 239.472 388.996 240.441 390.435C242.375 393.309 244.384 396.153 246.483 398.956C250.699 404.597 255.388 409.998 260.927 414.91C262.179 416.019 264.237 414.597 263.433 413.402C259.562 407.645 255.048 402.208 250.402 396.818C248.077 394.12 245.751 391.42 243.404 388.733C242.423 387.612 241.431 386.496 240.412 385.396L239.797 384.738M5.16113 273.173C24.7322 273.634 44.28 274.628 63.7579 276.188C81.8729 277.638 99.922 279.569 117.868 281.974C121.617 282.476 125.36 282.999 129.099 283.544L131.343 283.872C135.082 284.424 139.65 284.653 142.98 286.209C146.49 287.852 147.439 291.283 148.608 294.112C149.981 297.439 151.32 300.776 152.621 304.122C157.793 317.404 162.516 330.8 166.731 344.286C168.822 350.979 170.678 357.709 172.633 364.429C174.37 370.398 176.288 376.299 178.29 382.207C178.043 382.058 177.74 381.944 177.375 381.884C167.43 380.235 157.278 379.518 147.185 378.606L146.208 378.518C135.766 377.56 125.323 376.61 114.876 375.694L45.6992 369.631C41.6203 369.272 37.2502 369.224 33.2801 368.371C26.5299 366.92 24.9477 361.037 23.8139 356.353L23.7809 356.21C20.366 342.056 17.6481 327.779 14.4623 313.589M176.68 365.754C179.367 365.615 183.042 363.698 185.081 363.836C184.011 365.235 183.528 366.831 184.143 368.534C185.859 373.276 193.619 370.823 197.356 369.374C200.42 368.186 203.378 366.733 206.772 366.176C210.614 365.545 213.217 366.737 216.465 368.109C219.131 369.238 222.035 370.047 225.023 370.466C226.611 370.69 228.119 370.712 229.626 370.626C229.715 370.684 229.818 370.737 229.934 370.785L230.73 371.11C227.129 371.239 223.46 372.106 220.109 372.898C216.636 373.72 213.227 374.71 209.835 375.724L206.498 376.724C198.269 379.18 189.75 381.513 180.843 381.492C180.202 381.49 179.678 381.63 179.264 381.855M191.707 350.896C189.053 350.642 186.605 350.914 184.485 352.261C181.928 353.884 180.21 356.576 176.535 356.753C175.463 356.805 175.213 357.979 176.279 358.225C179.014 358.856 181.231 357.702 183.095 356.204L184.347 355.183C186.189 353.696 187.888 352.547 191.016 352.636C194.362 352.731 197.715 353.333 201.041 353.64C204.809 353.988 208.575 354.283 212.355 354.539C212.532 354.551 212.561 354.336 212.396 354.304L208.164 353.483M194.267 342.44L193.831 342.407C189.977 342.115 186.453 342.103 183.013 343.719L182.353 344.03C179.251 345.501 175.873 347.231 173.933 349.612C173.617 350.001 174.141 350.459 174.671 350.361C178.4 349.662 181.126 347.531 184.261 345.935C187.781 344.144 191.415 344.439 195.428 344.717C199.313 344.986 203.196 345.357 207.044 345.861C210.658 346.336 214.285 347.083 217.935 347.322V347.316C218.352 347.316 218.589 346.827 218.164 346.661C214.46 345.219 210.167 344.537 206.137 343.877M77.2253 312.757C77.598 311.37 75.4062 310.725 74.3908 311.827L74.1754 312.06C71.9816 314.401 68.8074 317.342 68.9686 320.322C67.0408 320.355 65.0411 321.267 64.2898 322.624C63.9423 323.252 63.8258 323.996 63.9016 324.766C62.1485 324.872 60.2362 325.769 59.1646 326.642C57.3882 328.089 57.2484 330.136 58.5239 331.827C61.302 335.517 67.3708 336.857 72.4961 337.157L72.6785 337.167C77.9708 337.453 85.5965 337.376 89.2269 333.836C92.7272 330.422 88.858 327.658 84.8899 326.156C85.9227 325.421 86.4585 324.368 85.9557 323.256C85.0723 321.302 81.9545 320.547 80.1936 319.189C78.0445 317.534 76.6254 315.262 77.1923 312.887M74.3171 315.76C74.8995 317.737 76.3342 319.546 78.3299 320.978C79.0948 321.526 79.9296 322.015 80.8168 322.434L80.9236 322.482C81.7118 322.825 83.6474 323.471 83.4998 324.246C83.3464 325.04 80.1917 326.283 79.3317 326.285C79.1356 326.285 79.0249 326.522 79.2249 326.592C80.7838 327.129 82.1447 327.359 83.6668 326.792C84.686 327.601 85.6742 328.44 86.6546 329.271C88.3863 330.741 87.7942 332.293 85.746 333.388C82.4573 335.148 77.4602 335.104 73.6221 334.977C69.7607 334.848 65.6313 334.177 62.6163 332.171L62.4843 332.081C60.8439 330.945 59.3471 329.02 61.8573 327.925C62.8416 327.497 63.9035 327.522 64.8373 327.313C65.7109 328.648 67.1281 329.717 68.856 329.923C70.2538 330.089 71.2167 328.72 69.9451 328.065L69.6597 327.928C68.0639 327.133 66.701 325.91 66.7379 324.317C66.7612 323.211 68.7433 321.815 70.0344 322.854L70.0926 322.904C71.172 323.852 73.0746 322.656 72.3641 321.605L72.331 321.558M326.198 260.776C326.203 260.539 325.775 260.451 325.625 260.655C323.118 264.094 321.807 268.308 320.472 272.096C319.073 276.064 317.944 280.071 316.93 284.108C314.876 292.283 313.781 300.412 313.707 308.744C313.696 309.933 316.183 310.25 316.426 309.031C318.041 300.926 319.588 292.812 321.215 284.71C322.034 280.635 322.986 276.575 323.898 272.512M301.38 266.765C301.565 266.29 300.68 266.133 300.453 266.566C295.423 276.192 293.719 287.1 296.949 297.256C297.443 298.81 300.362 298.137 299.989 296.603M236.487 258.211C236.514 257.857 235.922 257.801 235.698 258.045C233.316 260.663 232.326 264.169 228.144 265.522C226.056 266.198 223.707 266.08 221.862 267.22C220.627 267.984 219.682 269.189 220.608 270.344C220.907 270.718 221.742 270.905 222.148 270.5C222.74 269.909 223.052 269.201 223.856 268.757C224.99 268.133 226.518 268.093 227.816 267.8C229.498 267.42 230.979 266.755 232.192 265.768M196.663 214.544C196.416 214.447 196.182 214.509 196.024 214.676C195.799 214.912 195.826 215.14 196.102 215.302C195.735 215.887 195.302 217.352 195.24 217.565C194.988 218.43 194.722 219.29 194.442 220.147C193.879 221.879 193.384 223.625 192.821 225.357C192.223 227.193 191.511 229.012 190.717 230.801C190.666 230.918 190.61 231.036 190.552 231.157L190.46 231.338L190.439 231.309C190.278 231.111 189.942 231.25 189.981 231.459C190.018 231.651 190.068 231.842 190.111 232.032L190.027 232.203C189.509 233.291 189.154 234.438 190.105 235.398C190.46 235.757 190.852 235.97 191.34 236.032C192.124 238.044 193.104 240.016 194.157 241.912L194.463 242.465C196.011 245.231 197.659 247.961 200.123 250.315C202.809 252.885 206.508 254.641 208.849 257.458C209.938 258.768 210.697 260.144 211.311 261.625L211.544 262.186C211.981 263.233 212.483 264.247 213.743 264.861C214.145 265.056 214.747 264.994 215.071 264.728C217.653 262.598 214.951 258.621 213.392 256.559C211.227 253.693 208.094 251.858 204.959 249.695C201.577 247.363 199.42 244.244 197.333 241.172C196.055 239.289 194.821 237.366 193.522 235.475C194.879 234.54 195.314 232.683 195.774 231.393L195.815 231.276C196.576 229.21 197.179 227.089 197.56 224.958C197.927 222.909 198.08 220.891 197.983 218.831L197.956 218.306M191.617 224.293C191.916 223.973 191.419 223.61 191.01 223.676C188.507 224.08 186.063 225.26 183.817 226.215L183.578 226.316C181.786 227.069 179.983 227.992 179.041 229.455C178.018 231.045 178.103 232.876 178.243 234.605L178.255 234.767C178.426 236.84 178.455 238.994 179.016 241.028C179.305 242.071 180.515 242.364 181.549 242.117C182.782 245.147 186.24 247.38 188.767 249.772C191.988 252.821 191.382 256.937 191.045 260.609C190.909 262.096 193.281 262.518 194.502 261.725L197.319 259.902C197.787 259.598 198.255 259.293 198.723 258.987C199.123 258.724 199.519 258.461 199.913 258.193L200.499 257.789C200.759 257.606 201.909 256.606 202.245 256.565C203.058 256.464 204.992 258.135 205.654 258.66L205.737 258.725C206.981 259.677 208.107 260.701 209.156 261.787C209.348 261.987 209.725 261.82 209.587 261.59C208.647 260.022 207.556 258.523 206.259 257.12L205.997 256.84C205.135 255.934 203.978 254.335 202.454 254.068C200.596 253.741 198.74 255.195 197.387 256.001L197.302 256.051C196.657 256.427 196.022 256.81 195.388 257.196C195.454 254.463 195.011 251.7 193.2 249.344C191.922 247.683 190.01 246.451 188.373 245.025C186.55 243.435 185.599 241.481 183.949 239.824C183.737 239.611 183.444 239.497 183.128 239.46C183.064 238.129 182.811 236.785 182.617 235.468L182.561 235.074C182.365 233.643 181.901 231.896 182.8 230.556C183.648 229.29 185.595 228.397 187.038 227.538L188.216 226.826M272.792 209.165C273.544 209.504 274.248 209.927 274.887 210.455C276.896 212.116 278.335 214.186 279.733 216.175C280.486 217.247 281.212 218.33 281.971 219.4C282.301 219.864 282.641 220.324 282.985 220.784C283.144 220.996 283.614 221.416 283.849 221.677C283.588 221.959 283.321 222.239 283.047 222.515C282.942 222.62 275.732 228.744 273.218 231.14C269.368 234.81 265.928 238.688 262.987 242.837C260.107 246.901 257.914 251.204 255.246 255.346C253.911 257.42 252.42 259.479 250.519 261.274C250.445 261.344 250.368 261.41 250.292 261.48C249.568 259.952 247.708 258.315 246.795 257.376L246.71 257.288C244.638 255.111 242.451 253.001 240.216 250.927C238.176 249.032 236.083 247.179 233.94 245.356L233.134 244.674C231.641 243.417 229.744 241.535 227.556 240.637C227.791 240.311 228.063 239.989 228.374 239.671C230.422 237.585 233.318 236.071 236.174 234.705L238.028 233.826C245.011 230.509 251.888 227.037 257.951 222.726C261.158 220.447 264.322 218.057 267.019 215.397L267.972 214.456M261.138 207.522C264.41 207.737 267.941 207.686 270.964 208.516C268.277 210.496 265.722 212.634 263.099 214.647C262.866 213.286 262.389 211.941 261.983 210.613" fill="black"/>
<path fill-rule="evenodd" clip-rule="evenodd" d="M227.672 81.6079C204.383 81.6079 180.294 95.6789 171.758 104.658C164.581 112.207 160.715 146.344 160.715 169.415C160.715 174.238 157.301 183.334 158.296 187.949C161.95 204.861 177.864 219.046 209.363 219.046C240.862 219.046 263.448 209.313 286.859 183.183C298.219 183.183 303.724 176.393 303.804 165.677C303.884 154.959 292.839 151.061 292.839 151.061C292.839 151.061 296.777 108.771 286.859 97.7602C276.94 86.7497 250.959 81.6079 227.672 81.6079Z" fill="white"/>
<path fill-rule="evenodd" clip-rule="evenodd" d="M237.472 75.6289C222.768 74.4684 208.359 75.4435 193.869 77.4612C192.762 77.6175 192.133 78.1837 191.9 78.8644C185.074 79.1074 178.243 79.4978 171.426 79.7887C168.953 79.8943 167.549 81.7993 168.677 83.5197C168.903 83.8614 169.138 84.1939 169.374 84.5264L169.075 84.4496C167.025 83.9369 164.81 83.684 162.812 84.498C160.269 85.5339 159.273 87.8194 159.834 89.9231C159.978 90.4602 160.221 90.9748 160.494 91.4772C159.937 91.4485 159.374 91.458 158.817 91.5155C155.849 91.8224 153.641 93.5968 153.486 95.9594C153.255 99.5271 156.204 103.147 159.679 105.701C159.174 106.51 158.982 107.463 159.192 108.428C159.609 110.337 161.413 111.48 163.504 112.225C162.632 114.383 162.22 116.64 162.463 118.946C162.545 119.716 163.409 120.352 164.319 120.508C160.922 127.802 159.202 135.633 157.965 143.263C157.082 148.692 156.647 154.153 156.594 159.623C156.569 162.091 156.621 164.564 156.753 167.035L156.808 167.96C156.971 170.63 156.981 173.433 157.596 176.074C155.495 178.859 154.651 182.316 154.294 185.435C153.851 189.297 154.552 193.281 156.115 196.954C162.013 210.836 179.813 219.596 197.691 221.873C214.242 223.98 233.391 221.143 243.061 209.426C243.215 209.24 242.891 209.087 242.702 209.21C235.781 213.595 227.756 215.551 219.035 216.504C203.958 218.148 187.012 215.36 174.911 207.968C169.105 204.419 164.917 199.253 163.075 193.693C162.135 190.852 161.811 187.887 162.182 184.963C162.558 181.995 164.243 179.463 165.305 176.66C165.662 175.713 165.286 174.834 164.542 174.208C164.335 171.931 163.841 169.635 163.653 167.366C163.443 164.785 163.317 162.206 163.271 159.623C163.185 154.265 163.473 148.896 164.051 143.561C165.109 133.79 167.918 124.257 169.567 114.569C170.178 114.996 171.054 115.171 171.97 114.798L172.065 114.758L172.566 114.534C172.595 114.534 172.626 114.538 172.655 114.541C176.08 114.8 179.633 114.429 182.914 113.632C186.348 112.802 189.534 111.523 192.38 109.819C192.921 111.957 193.147 114.118 193.15 116.299C193.154 117.661 195.005 118.368 196.474 117.786C202.982 115.209 209.2 112.239 215.102 108.901C215.791 111.654 216.48 114.406 217.173 117.162C217.441 118.224 219.175 118.652 220.287 118.147C224.708 116.142 228.526 113.518 231.636 110.397C232.256 111.322 232.879 112.247 233.506 113.17L234.45 114.553C235.379 115.912 236.628 117.415 238.666 117.849C240.823 118.31 242.625 117.22 243.349 115.698C243.57 115.225 243.776 114.739 243.964 114.249C245.803 117.521 247.878 120.718 250.223 123.768C253.743 128.342 257.967 132.419 262.18 136.6C263.46 137.87 265.649 136.658 265.826 135.424C265.929 134.698 266.014 133.969 266.088 133.243C268.542 137.104 271.105 140.929 273.895 144.643L273.495 145.863C272.343 149.468 271.388 153.1 270.348 156.724C270.012 157.894 270.81 159.567 272.563 159.765C274.658 160.004 276.638 160.837 278.783 160.264C281.122 159.638 281.584 158.061 282.689 156.568C282.91 156.27 283.167 155.997 283.442 155.738L283.512 155.808C283.683 155.984 284.095 155.792 283.992 155.591L283.871 155.358C284.821 154.573 285.955 153.918 286.999 153.215C289.48 152.888 292.27 153.245 293.979 154.032C297.871 155.821 299.659 159.511 299.696 162.904C299.741 166.874 298.162 171.337 295.497 174.731C294.323 176.226 292.715 177.574 290.591 178.236C288.482 178.894 286.198 178.69 284.054 179.31C282.635 179.723 281.761 180.95 282.617 182.063C282.675 182.139 282.739 182.21 282.802 182.284L282.165 182.944C281.726 183.4 281.268 183.891 280.841 184.4C279.75 185.378 278.602 186.321 277.49 187.283C275.436 189.058 273.442 190.881 271.421 192.679C269.513 194.378 267.496 195.972 265.417 197.543C263.452 199.029 260.998 200.279 259.194 201.866C257.439 203.413 256.962 206.113 259.851 207.009C263.044 208.003 265.873 205.675 268.024 204.123L268.115 204.058C272.056 201.23 275.617 197.999 278.443 194.442C281.245 195.927 285.294 196.069 288.084 194.584C289.551 193.802 290.677 192.487 291.224 191.059C291.74 191.148 292.256 191.201 292.759 191.195C293.018 191.313 293.277 191.427 293.54 191.533C295.62 192.377 298.174 192 299.126 190.206C299.992 188.577 299.1 186.727 298.319 185.158L298.158 184.834C297.715 183.939 297.227 182.965 296.62 182.047C298.31 181.056 299.754 179.824 300.976 178.425C305.081 173.709 307.132 166.812 306.226 161.187C305.68 157.791 303.634 154.274 300.283 151.985L300.406 151.735C301.345 149.878 302.198 148.014 302.752 146.051C303.4 143.756 303.716 141.377 304.003 139.04C304.61 134.104 304.446 129.056 303.638 124.138C302.12 114.883 298.273 105.797 291.444 98.095C293.38 96.2884 294.914 94.1624 294.114 91.717C293.749 90.5944 292.917 89.5302 291.661 88.8872C290.968 88.5326 290.144 88.4783 289.45 88.1842L289.242 88.0947C288.938 87.9563 289.171 87.9709 289.352 87.3273C290.07 84.7566 289.475 82.2728 285.845 81.4192C282.429 80.6167 279.196 82.3208 277.175 84.3509C271.883 81.4252 264.912 79.8943 258.779 78.593C251.807 77.1188 244.653 76.1983 237.472 75.6289ZM294.623 161.854C294.648 159.76 292.101 158.468 289.595 158.81C287.912 159.039 286.508 159.822 285.19 160.631L284.547 161.028C282.941 162.01 281.097 163.068 280.142 164.46C278.738 166.513 281.703 169.275 284.471 167.836C286.371 166.844 287.588 165.254 288.834 163.778L288.963 163.625C289.529 162.964 290.025 162.261 290.801 161.73L290.968 161.615C291.223 161.445 291.497 161.291 291.826 161.218C292.461 161.076 293.637 161.274 293.918 161.864L293.943 161.925C294.045 162.221 294.619 162.158 294.623 161.854Z" fill="black"/>
<path fill-rule="evenodd" clip-rule="evenodd" d="M188.374 190.839C191.158 191.692 194.447 191.893 197.32 191.167C200.067 190.471 202.562 188.925 204.073 186.98C205.416 185.246 205.979 183.191 205.183 181.141C205.146 181.043 205.022 180.979 204.903 180.955C204.253 181.416 203.851 181.874 203.449 182.33C202.774 183.098 202.096 183.859 201.164 184.517C199.811 185.473 197.986 186.249 196.175 186.506C194.402 186.757 192.587 186.535 191.001 185.874C190.034 185.472 189.254 184.933 188.481 184.395C187.641 183.806 186.812 183.209 185.653 182.877C184.723 182.611 183.748 182.835 182.999 183.281C182.193 183.759 181.613 184.508 181.646 185.29C181.694 186.503 182.376 187.515 183.364 188.35C184.701 189.479 186.59 190.293 188.374 190.839ZM191.679 160.611C188.582 162.078 183.863 165.5 187.194 169.138C191.116 172.346 196.763 168.669 199.545 167.005C202.125 165.716 205.026 169.032 202.632 170.537C182.523 182.141 174.364 160.995 190.112 158.886C191.846 158.653 192.49 160.157 191.679 160.611ZM224.255 140.278C220.035 140.121 216.315 141.598 212.292 142.27C208.575 142.891 204.911 142.518 201.296 141.728C195.429 140.446 193.003 147.448 198.79 148.812C203.005 149.806 207.443 149.875 211.768 149.363C215.61 148.908 218.831 147.45 222.494 146.601C225.637 145.873 229.336 146.176 232.655 146.518L233.945 146.654C235.859 146.855 237.785 147.056 239.681 147.348C241.328 147.602 242.97 148.066 244.649 148.119C244.84 148.126 245.001 147.933 244.88 147.804C242.931 145.716 239.171 144.069 236.179 142.97L235.975 142.896C232.285 141.554 228.367 140.431 224.255 140.278ZM225.802 155.673L225.804 155.602C225.799 153.563 224.275 148.908 220.51 148.908C218.157 148.908 216.728 152.076 216.482 155.342L216.474 155.475C216.363 157.505 217.08 161.943 220.51 161.943C223.976 161.943 225.767 157.74 225.802 155.673ZM170.368 155.673V155.602C170.374 153.563 171.898 148.908 175.662 148.908C177.955 148.908 179.37 151.92 179.669 155.097L179.691 155.342C179.838 157.304 179.17 161.943 175.662 161.943C172.195 161.943 170.405 157.74 170.368 155.673ZM170.426 137.795L170.157 137.799C165.757 137.918 161.232 139.95 160.056 143.363C159.995 143.54 160.275 143.659 160.442 143.538C164.061 140.897 168.926 143.42 172.548 144.743L173.88 145.222C178.549 146.916 183.863 148.907 189.048 147.645C191.51 147.045 193.075 145.073 192.372 143.08C191.747 141.308 189.002 139.818 186.623 140.458L186.517 140.488C184.585 141.064 182.209 140.481 180.215 139.905L178.574 139.425C175.94 138.646 173.292 137.774 170.426 137.795Z" fill="black"/>
<circle cx="79.5525" cy="324.934" r="37.5213" fill="white"/>
</g>
<defs>
<clipPath id="clip0_1617_2556">
<rect width="479.522" height="490.11" fill="white" transform="matrix(-1 0 0 1 479.523 0)"/>
</clipPath>
</defs>
</svg>
