<svg width="41" height="41" viewBox="0 0 41 41" fill="none" xmlns="http://www.w3.org/2000/svg">
<path d="M20.4531 17.3866C20.4531 17.7599 20.7531 18.0532 21.1198 18.0532C21.8798 18.0532 22.4931 18.6732 22.4931 19.4266C22.4931 19.7932 22.7931 20.0932 23.1598 20.0932C23.5265 20.0932 23.8265 19.7932 23.8265 19.4266C23.8265 17.9332 22.6131 16.7199 21.1198 16.7199C20.7531 16.7199 20.4531 17.0199 20.4531 17.3866ZM31.3065 20.0932C31.6798 20.0932 31.9731 19.7932 31.9731 19.4266C31.9731 13.4399 27.1065 8.57324 21.1198 8.57324C20.7531 8.57324 20.4531 8.87324 20.4531 9.23991C20.4531 9.60658 20.7531 9.90658 21.1198 9.90658C26.3731 9.90658 30.6398 14.1799 30.6398 19.4266C30.6398 19.7932 30.9398 20.0932 31.3065 20.0932Z" fill="url(#paint0_linear_1239_9980)" fill-opacity="0.32"/>
<path d="M14.0868 14.447L14.0866 14.4474C13.1732 16.1232 13.4828 18.231 14.8321 19.5802L21.8721 26.6202C23.2206 27.9688 25.3282 28.2795 26.9981 27.3658C26.9984 27.3656 26.9987 27.3654 26.9991 27.3652L27.8705 26.893C29.6696 25.9182 31.9416 26.2438 33.3913 27.6928C34.2594 28.5711 34.7501 29.7537 34.7589 30.9885C34.759 31.6008 34.6385 32.2071 34.4042 32.7727C34.1697 33.3388 33.8258 33.8532 33.3923 34.2863L33.3921 34.2864L33.0454 34.6331C32.137 35.5415 30.8322 36 29.2189 36C27.1697 36 24.6673 35.2581 21.9888 33.8265C19.3166 32.3983 16.4988 30.2995 13.8258 27.6264C10.3161 24.1167 7.66404 20.203 6.35523 16.6217L6.35457 16.6199C4.95688 12.8402 5.23719 9.99553 6.82583 8.40689L6.82585 8.4069L6.82924 8.40344L7.16751 8.05854C8.04586 7.18107 9.21755 6.7 10.4656 6.7C11.7138 6.7 12.8797 7.1812 13.7587 8.06022L13.7602 8.06166C14.4736 8.76929 14.934 9.69223 15.0702 10.6878L15.0702 10.6878L15.0708 10.6915C15.2155 11.6925 15.041 12.6903 14.5595 13.5814C14.5594 13.5817 14.5592 13.582 14.5591 13.5822L14.0868 14.447ZM27.2323 19.5933C27.1418 19.5933 27.0656 19.5172 27.0656 19.4267C27.0656 16.1509 24.4021 13.48 21.1189 13.48C21.0251 13.48 20.9523 13.4073 20.9523 13.3133C20.9523 13.2228 21.0284 13.1467 21.1189 13.1467C24.5828 13.1467 27.3989 15.9628 27.3989 19.4267C27.3989 19.5172 27.3228 19.5933 27.2323 19.5933ZM20.9523 5.16667C20.9523 5.07614 21.0284 5 21.1189 5C29.0764 5 35.5523 11.4698 35.5523 19.4267C35.5523 19.5172 35.4761 19.5933 35.3856 19.5933C35.2917 19.5933 35.2189 19.5205 35.2189 19.4267C35.2189 11.657 28.8949 5.33333 21.1189 5.33333C21.0284 5.33333 20.9523 5.25719 20.9523 5.16667Z" fill="url(#paint1_linear_1239_9980)" fill-opacity="0.32" stroke="white"/>
<defs>
<linearGradient id="paint0_linear_1239_9980" x1="26.2131" y1="8.57324" x2="26.2131" y2="20.0932" gradientUnits="userSpaceOnUse">
<stop stop-color="white" stop-opacity="0"/>
<stop offset="1" stop-color="white"/>
</linearGradient>
<linearGradient id="paint1_linear_1239_9980" x1="20.5027" y1="4.5" x2="20.5027" y2="36.5" gradientUnits="userSpaceOnUse">
<stop stop-color="white" stop-opacity="0"/>
<stop offset="1" stop-color="white"/>
</linearGradient>
</defs>
</svg>
