<svg width="35" height="27" viewBox="0 0 35 27" fill="none" xmlns="http://www.w3.org/2000/svg">
<path d="M7.50314 22.6521H7.00314V23.1521V25.1669C7.00314 25.8118 6.48075 26.3337 5.83634 26.3337C5.19192 26.3337 4.66954 25.8118 4.66954 25.1669V23.1521V22.6521H4.16954H3.82034C2.45105 22.6521 1.33594 21.5365 1.33594 20.1669V11.4845C1.33594 10.115 2.45088 9.0001 3.82034 9.0001H4.16954H4.66954V8.5001V6.8333C4.66954 6.18905 5.19208 5.6665 5.83634 5.6665C6.4806 5.6665 7.00314 6.18905 7.00314 6.8333V8.5001V9.0001H7.50314H7.85234C9.22171 9.0001 10.3363 10.115 10.3363 11.4845V20.1669C10.3363 21.5365 9.22122 22.6521 7.85194 22.6521H7.50314ZM30.3363 8.5001V9.0001H30.8363H31.1847C32.5543 9.0001 33.6699 10.1152 33.6703 11.4845C33.6703 11.4845 33.6703 11.4846 33.6703 11.4846V20.1669C33.6703 21.5364 32.5546 22.6521 31.1851 22.6521H30.8367H30.3367V23.1521V25.1669C30.3367 25.812 29.815 26.3337 29.1699 26.3337C28.5249 26.3337 28.0031 25.812 28.0031 25.1669V23.1521V22.6521H27.5031H27.1543C25.7849 22.6521 24.6691 21.5364 24.6691 20.1669V11.4845C24.6691 10.1152 25.7847 9.0001 27.1543 9.0001H27.5027H28.0027V8.5001V6.8333C28.0027 6.18889 28.5246 5.6665 29.1695 5.6665C29.8144 5.6665 30.3363 6.18889 30.3363 6.8333V8.5001ZM18.6695 3.5001V4.0001H19.1695H19.5179C20.8876 4.0001 22.0031 5.11522 22.0031 6.4845V15.5149C22.0031 16.8844 20.8874 18.0001 19.5179 18.0001H19.1695H18.6695V18.5001V20.1673C18.6695 20.8122 18.1472 21.3341 17.5027 21.3341C16.8583 21.3341 16.3359 20.8122 16.3359 20.1673V18.5005V18.0005H15.8359H15.4867C14.1175 18.0005 13.0023 16.8849 13.0023 15.5153V6.4845C13.0023 5.11505 14.1173 4.0001 15.4867 4.0001H15.8359H16.3359V3.5001V1.8333C16.3359 1.18905 16.8585 0.666504 17.5027 0.666504C18.147 0.666504 18.6695 1.18905 18.6695 1.8333V3.5001Z" fill="url(#paint0_linear_1150_9730)" fill-opacity="0.35" stroke="white"/>
<defs>
<linearGradient id="paint0_linear_1150_9730" x1="17.5031" y1="0.166504" x2="17.5031" y2="26.8337" gradientUnits="userSpaceOnUse">
<stop offset="0.025" stop-color="white" stop-opacity="0"/>
<stop offset="1" stop-color="white"/>
</linearGradient>
</defs>
</svg>
