<svg width="26" height="20" viewBox="0 0 26 20" fill="none" xmlns="http://www.w3.org/2000/svg">
<path d="M10.7411 15.8066L17.2317 9.31597L15.566 7.65024L10.7181 12.5096L8.30568 10.0971L6.66293 11.7284M6.31829 19.2529C4.57215 19.2529 3.08256 18.6517 1.84954 17.4493C0.616512 16.2393 0 14.765 0 13.0265C0 11.5331 0.448025 10.2005 1.34407 9.02878C2.24778 7.85702 3.4272 7.11031 4.88232 6.78866C5.3648 5.02719 6.32212 3.6027 7.75427 2.51519C9.19407 1.42002 10.8215 0.872437 12.6366 0.872437C14.8805 0.872437 16.7799 1.65361 18.3345 3.21595C19.8969 4.77063 20.678 6.66995 20.678 8.9139C22.003 9.06707 23.0981 9.64146 23.9636 10.6371C24.8366 11.6174 25.2732 12.7661 25.2732 14.0834C25.2732 15.5232 24.7715 16.7448 23.7683 17.748C22.765 18.7513 21.5435 19.2529 20.1037 19.2529H6.31829Z" fill="#00B852"/>
</svg>
