<svg width="129" height="105" viewBox="0 0 129 105" fill="none" xmlns="http://www.w3.org/2000/svg">
<path d="M1 69.6991C1 42.1682 16.8633 16.4425 37.7122 2L54.482 15.5398C39.9784 25.0177 27.2878 43.0708 25.4748 57.5133C25.9281 57.5133 29.1007 56.6106 31.3669 56.6106C44.0576 56.6106 53.5755 66.5398 53.5755 79.6283C53.5755 93.1681 42.6979 104 29.1007 104C14.1439 104 1 91.8142 1 69.6991ZM73.518 69.6991C73.518 42.1682 89.3813 16.4425 110.23 2L127 15.5398C112.496 25.0177 99.8058 43.0708 97.9928 57.5133C98.8993 57.5133 102.072 56.6106 103.885 56.6106C116.576 56.6106 126.094 66.5398 126.094 79.6283C126.094 93.1681 115.216 104 101.619 104C86.6619 104 73.518 91.8142 73.518 69.6991Z" fill="url(#paint0_linear_3350_900)" fill-opacity="0.17"/>
<path d="M38.0263 1.61097L37.7351 1.37588L37.4275 1.58898C16.4629 16.1116 0.5 41.9821 0.5 69.6991C0.5 80.856 3.81678 89.5564 9.06754 95.4745C14.3194 101.394 21.4815 104.5 29.1007 104.5C42.972 104.5 54.0755 93.4463 54.0755 79.6283C54.0755 66.2816 44.3513 56.1106 31.3669 56.1106C30.181 56.1106 28.78 56.3452 27.6433 56.5716C27.2063 56.6586 26.8011 56.746 26.4592 56.8197C26.3544 56.8423 26.2556 56.8636 26.1636 56.8833C26.1289 56.8907 26.0953 56.8978 26.0627 56.9047C27.0899 49.9571 30.6086 42.1789 35.6301 34.9501C40.8108 27.492 47.5648 20.6574 54.7555 15.9584L55.3308 15.5825L54.7961 15.1508L38.0263 1.61097ZM110.544 1.61097L110.253 1.37588L109.945 1.58898C88.9809 16.1116 73.018 41.9821 73.018 69.6991C73.018 80.856 76.3348 89.5564 81.5855 95.4745C86.8374 101.394 93.9995 104.5 101.619 104.5C115.49 104.5 126.594 93.4463 126.594 79.6283C126.594 66.2816 116.869 56.1106 103.885 56.1106C102.921 56.1106 101.625 56.3477 100.501 56.5716C100.303 56.6111 100.109 56.6503 99.9232 56.688C99.571 56.7594 99.2433 56.8258 98.9492 56.8807C98.8119 56.9064 98.6869 56.9285 98.5745 56.9469C99.5937 49.9886 103.116 42.1935 108.148 34.9501C113.329 27.492 120.083 20.6574 127.274 15.9584L127.849 15.5825L127.314 15.1508L110.544 1.61097Z" stroke="url(#paint1_linear_3350_900)" stroke-opacity="0.4"/>
<defs>
<linearGradient id="paint0_linear_3350_900" x1="74" y1="2" x2="74" y2="104" gradientUnits="userSpaceOnUse">
<stop stop-color="#D9D9D9"/>
<stop offset="0.73" stop-color="#1D2125"/>
</linearGradient>
<linearGradient id="paint1_linear_3350_900" x1="74" y1="2" x2="74" y2="104" gradientUnits="userSpaceOnUse">
<stop stop-color="white"/>
<stop offset="1" stop-color="#1D2125"/>
</linearGradient>
</defs>
</svg>
