<svg width="24" height="24" viewBox="0 0 24 24" fill="none" xmlns="http://www.w3.org/2000/svg">
<g clip-path="url(#clip0_3172_1776)">
<path d="M21 3H3C2.20435 3 1.44129 3.31607 0.87868 3.87868C0.31607 4.44129 0 5.20435 0 6L0 18C0 18.7956 0.31607 19.5587 0.87868 20.1213C1.44129 20.6839 2.20435 21 3 21H21C21.7956 21 22.5587 20.6839 23.1213 20.1213C23.6839 19.5587 24 18.7956 24 18V6C24 5.20435 23.6839 4.44129 23.1213 3.87868C22.5587 3.31607 21.7956 3 21 3ZM22 18C22 18.2652 21.8946 18.5196 21.7071 18.7071C21.5196 18.8946 21.2652 19 21 19H3C2.73478 19 2.48043 18.8946 2.29289 18.7071C2.10536 18.5196 2 18.2652 2 18V6C2 5.73478 2.10536 5.48043 2.29289 5.29289C2.48043 5.10536 2.73478 5 3 5H21C21.2652 5 21.5196 5.10536 21.7071 5.29289C21.8946 5.48043 22 5.73478 22 6V18Z" fill="white"/>
<path d="M18.5017 7.13202L12.0017 10.848L5.50171 7.13202C5.38772 7.06636 5.26192 7.02379 5.13148 7.00675C5.00104 6.98971 4.86853 6.99853 4.7415 7.0327C4.61446 7.06687 4.49541 7.12573 4.39112 7.20591C4.28684 7.2861 4.19937 7.38603 4.13371 7.50002C4.06805 7.61401 4.02548 7.73981 4.00844 7.87025C3.9914 8.00069 4.00022 8.13321 4.03439 8.26024C4.06856 8.38727 4.12742 8.50632 4.2076 8.61061C4.28778 8.71489 4.38772 8.80236 4.50171 8.86802L11.5017 12.868C11.6538 12.9512 11.8244 12.9948 11.9977 12.9948C12.1711 12.9948 12.3416 12.9512 12.4937 12.868L19.4937 8.86802C19.611 8.80464 19.7144 8.71844 19.7979 8.61451C19.8814 8.51057 19.9432 8.39099 19.9798 8.2628C20.0164 8.1346 20.027 8.00039 20.011 7.86804C19.995 7.7357 19.9526 7.60789 19.8865 7.49214C19.8204 7.37639 19.7317 7.27504 19.6259 7.19404C19.52 7.11304 19.399 7.05402 19.2699 7.02047C19.1409 6.98692 19.0065 6.9795 18.8746 6.99866C18.7426 7.01782 18.6159 7.06316 18.5017 7.13202Z" fill="white"/>
</g>
<defs>
<clipPath id="clip0_3172_1776">
<rect width="24" height="24" fill="white"/>
</clipPath>
</defs>
</svg>
