<svg width="153" height="148" viewBox="0 0 153 148" fill="none" xmlns="http://www.w3.org/2000/svg">
<path opacity="0.5" d="M26.9185 34.3075C20.1042 40.1875 16.0076 49.0674 15.9607 58.0474C15.9205 65.3407 18.404 72.4006 19.2942 79.6473C20.1778 86.8872 19.0399 95.1272 13.3769 99.7605C9.31372 103.08 3.18216 104.4 1.12046 109.214C-0.666798 113.38 1.60241 118.154 4.3335 121.774C16.0678 137.314 38.0838 144.267 56.6659 138.294C65.1939 135.554 72.7579 130.467 81.0114 126.987C95.3296 120.954 111.736 119.98 126.677 124.267C133.21 126.14 140.587 128.9 146.39 125.38C152.187 121.86 153.138 113.667 151.297 107.16C149.449 100.654 145.54 94.8738 143.746 88.3539C141.658 80.7739 142.548 72.734 143.458 64.9273C144.703 54.2741 145.942 43.6208 147.187 32.9742C147.762 28.0342 148.318 22.8942 146.665 18.2009C144.362 11.6743 137.963 7.14099 131.168 5.69434C117.734 2.82769 104.547 10.3943 92.6721 17.2743C81.5938 23.6876 70.395 28.6675 57.3554 27.2075C46.411 25.9809 35.654 26.7742 26.9185 34.3075Z" fill="#FFF5A8"/>
<path d="M85.9348 53.7612C87.461 53.0478 88.6792 51.7612 89.2616 50.1879C89.8507 48.6145 89.7837 46.8145 89.0942 45.2812C88.4918 43.9346 87.4476 42.8412 86.3832 41.8146C85.2921 40.7612 84.1542 39.7479 82.9828 38.7746C82.1527 38.0946 81.2692 37.4146 80.2249 37.1679C79.1807 36.9279 77.9222 37.2479 77.3934 38.1813C76.9315 39.0013 77.1324 40.0213 77.3466 40.9346C77.7281 42.5412 78.0695 44.0079 78.451 45.6212L85.9348 53.7612Z" fill="#FFF5A8"/>
<path d="M85.9392 54.1273C85.7986 54.1273 85.6714 54.0473 85.6045 53.914C85.5174 53.7273 85.5978 53.514 85.7785 53.4274C87.2311 52.7474 88.3757 51.5207 88.9179 50.0607C89.4735 48.5674 89.4133 46.8807 88.764 45.4274C88.1682 44.1007 87.0905 43.0007 86.1333 42.0741C85.0489 41.0274 83.9176 40.0141 82.7529 39.0541C81.963 38.4008 81.1129 37.7474 80.149 37.5274C79.2922 37.3274 78.181 37.5541 77.7258 38.3608C77.3376 39.0474 77.5049 39.9274 77.7191 40.8474L78.8236 45.5341C78.8705 45.7341 78.75 45.9274 78.5491 45.9741C78.3483 46.0207 78.1542 45.9007 78.1074 45.7007L77.0029 41.0141C76.7619 39.9874 76.5678 38.9074 77.0832 37.9941C77.7191 36.8741 79.1918 36.5474 80.3163 36.8074C81.4409 37.0674 82.3713 37.7808 83.2281 38.4874C84.3996 39.4541 85.5509 40.4874 86.6487 41.5407C87.6595 42.5141 88.7907 43.6741 89.44 45.1207C90.1697 46.7474 90.2366 48.634 89.6141 50.3074C89.0049 51.9474 87.7197 53.3273 86.0998 54.0873C86.0396 54.114 85.986 54.1273 85.9392 54.1273Z" fill="#151515"/>
<path d="M87.4648 72.4877C84.3856 70.3011 81.3131 68.1211 78.2339 65.9344C76.9353 65.0145 75.5096 64.0478 73.9164 64.1078C72.1024 64.1745 70.6431 65.5278 69.3579 66.8011C67.7581 68.3878 66.1449 69.9944 65.0069 71.9277C63.4473 74.5877 62.885 77.8144 63.4473 80.8477C64.0162 83.881 65.7031 86.6877 68.1262 88.6143C69.9135 90.041 72.0555 90.9676 74.2511 91.621C80.8044 93.5743 88.0605 93.0943 94.2925 90.2943C96.5483 89.281 98.7037 87.9543 100.397 86.1543C102.091 84.3543 103.309 82.0477 103.53 79.5877C103.744 77.1944 103.021 74.8277 102.305 72.5344C101.515 69.9944 100.725 67.4611 99.9354 64.9211C98.8108 61.3078 97.5791 57.5278 94.8012 54.9478C91.7957 52.1612 86.4004 50.9345 82.6787 53.0745C80.8713 54.1145 81.0655 55.7012 82.3774 56.9478C84.0911 58.5678 84.332 60.7945 84.9278 63.0078C85.7712 66.1744 86.6146 69.3344 87.4648 72.4877Z" fill="#FFF5A8"/>
<path d="M66.8696 68.6274C64.5736 69.3074 62.9068 71.3008 61.7956 73.4141C60.2159 76.4007 59.4729 79.8207 59.667 83.1874C59.8611 86.5607 60.9857 89.8673 62.8934 92.6606C63.2549 93.1873 63.6632 93.714 64.2389 93.9873C65.1292 94.4073 66.2537 94.1006 66.9499 93.4073C67.646 92.714 67.9674 91.714 68.0209 90.734C68.0745 89.754 68.0075 88.554 67.8201 87.594L66.8696 68.6274Z" fill="#FFF5A8"/>
<path d="M65.126 94.5471C64.7645 94.5471 64.403 94.4738 64.0817 94.3204C63.4324 94.0138 62.9773 93.4404 62.589 92.8671C60.6344 90.0071 59.4965 86.6671 59.2956 83.2072C59.1015 79.7538 59.8512 76.3005 61.4711 73.2406C62.4418 71.4072 64.1487 69.0539 66.766 68.2739C66.9601 68.2139 67.1676 68.3272 67.2212 68.5206C67.2814 68.7139 67.1676 68.9206 66.9735 68.9739C64.5972 69.6806 63.0241 71.8672 62.1204 73.5805C60.5675 76.5272 59.8445 79.8405 60.032 83.1672C60.2194 86.4938 61.3172 89.7005 63.1982 92.4538C63.5797 93.0138 63.9345 93.4338 64.3964 93.6538C65.0925 93.9871 66.0564 93.7738 66.6923 93.1471C67.2613 92.5871 67.6027 91.7204 67.6496 90.7138C67.7031 89.7071 67.6295 88.5405 67.4554 87.6605C67.4153 87.4605 67.5492 87.2671 67.7433 87.2271C67.9441 87.1871 68.1382 87.3205 68.1784 87.5138C68.3658 88.4605 68.4394 89.6671 68.3859 90.7471C68.3256 91.9338 67.9039 92.9738 67.2078 93.6604C66.6321 94.2404 65.8623 94.5471 65.126 94.5471Z" fill="#151515"/>
<path d="M66.9806 10.6942C60.1663 0.214279 46.1092 -2.7857 35.5865 4.00092C25.0637 10.7876 22.0515 24.7875 28.8658 35.2674C30.6598 38.0341 32.9625 40.2741 35.5731 41.954C42.0929 46.1607 47.6956 51.6273 51.9194 58.1206L52.0132 58.2673L78.581 41.1341L78.4873 40.9874C74.2635 34.4941 71.5525 27.1608 70.3677 19.5142C69.8924 16.4675 68.7745 13.4609 66.9806 10.6942Z" fill="white"/>
<path d="M52.0155 58.6412C51.9888 58.6412 51.962 58.6412 51.9352 58.6345C51.8415 58.6145 51.7545 58.5545 51.7009 58.4745L51.6072 58.3278C47.457 51.9479 41.9949 46.5412 35.368 42.2679C32.6302 40.5013 30.3409 38.2146 28.5536 35.468C26.8601 32.8613 25.7288 30.008 25.1933 26.9813C24.6779 24.0547 24.7314 21.0947 25.3607 18.1747C25.9899 15.2547 27.1546 12.5281 28.8281 10.0748C30.5618 7.52811 32.764 5.38145 35.3813 3.69479C37.9986 2.00814 40.8636 0.881476 43.9026 0.348146C46.8412 -0.165185 49.8133 -0.111852 52.7452 0.514811C55.6771 1.14147 58.4148 2.30147 60.8782 3.96812C63.4352 5.69478 65.5907 7.8881 67.2842 10.4948C69.0714 13.2414 70.2295 16.2614 70.7248 19.468C71.9297 27.2347 74.6407 34.4146 78.7909 40.7946L78.8846 40.9413C78.9984 41.1146 78.9449 41.3412 78.7775 41.4479L52.2096 58.5812C52.1561 58.6212 52.0825 58.6412 52.0155 58.6412ZM47.8787 0.734809C43.6215 0.734809 39.4445 1.9548 35.783 4.31479C25.4477 10.9814 22.4823 24.7813 29.1762 35.0746C30.9032 37.7346 33.1255 39.9479 35.7696 41.6546C39.063 43.7812 42.122 46.2279 44.8665 48.9279C47.6043 51.6279 50.0476 54.6012 52.1226 57.7678L78.0747 41.0346C76.0197 37.8546 74.2926 34.4146 72.9405 30.8213C71.5883 27.228 70.5976 23.4414 70.0019 19.5814C69.5199 16.4747 68.4021 13.5547 66.675 10.8948C63.4352 5.90811 58.4349 2.4748 52.5979 1.23481C51.0248 0.894809 49.4451 0.734809 47.8787 0.734809Z" fill="#151515"/>
<path d="M78.5628 41.1517L52.0195 58.2686L60.6275 71.5086L87.1708 54.3918L78.5628 41.1517Z" fill="#151515"/>
<path d="M60.6375 71.8742C60.5171 71.8742 60.3966 71.8142 60.3296 71.7075L51.7213 58.4676C51.6678 58.3876 51.6477 58.2876 51.6678 58.1943C51.6879 58.1009 51.7481 58.0143 51.8284 57.9609L78.3695 40.8477C78.5369 40.7344 78.7712 40.7877 78.8783 40.9544L87.4865 54.1943C87.5401 54.2743 87.5602 54.3743 87.5401 54.4676C87.52 54.5609 87.4598 54.6476 87.3794 54.7009L60.8384 71.8142C60.7714 71.8542 60.7045 71.8742 60.6375 71.8742ZM52.538 58.3743L60.7446 71.0009L86.6699 54.2809L78.4632 41.6543L52.538 58.3743Z" fill="#151515"/>
<path d="M84.8027 55.9161L62.9961 69.9785L65.5174 73.8565L87.324 59.7942L84.8027 55.9161Z" fill="#151515"/>
<path d="M65.5219 74.2209C65.4014 74.2209 65.2809 74.1609 65.214 74.0542L62.6904 70.1742C62.6368 70.0942 62.6168 69.9942 62.6368 69.9009C62.6569 69.8076 62.7172 69.7209 62.7975 69.6676L84.606 55.6076C84.7801 55.4943 85.0077 55.5476 85.1148 55.7143L87.6383 59.5943C87.6919 59.6743 87.712 59.7743 87.6919 59.8676C87.6718 59.9609 87.6116 60.0476 87.5312 60.1009L65.7227 74.1609C65.6625 74.2009 65.5888 74.2209 65.5219 74.2209ZM63.507 70.0876L65.629 73.3475L86.815 59.6809L84.693 56.421L63.507 70.0876ZM56.5655 55.5743C56.3714 55.5743 56.2108 55.4276 56.1974 55.2343C55.6418 46.9144 53.0847 38.6344 48.2451 29.6544C47.4686 29.7811 46.6787 29.8144 45.8955 29.7344C43.9476 29.5345 42.0466 28.6411 40.5472 27.2078C39.0344 25.7611 38.0838 23.9078 37.8562 21.9878C37.6822 20.4945 38.0838 19.2945 38.954 18.6878C39.9983 17.9612 41.3973 18.3012 42.2474 18.9278C42.957 19.4478 43.4121 20.1878 43.8539 20.9012C43.961 21.0812 44.0748 21.2612 44.1886 21.4345C45.8487 23.9811 47.328 26.4345 48.64 28.8278C50.1127 28.4945 51.5117 27.7745 52.6697 26.7678C51.003 23.8411 49.6106 20.7745 48.5128 17.5945C48.1246 16.4745 47.7631 15.2745 47.9104 14.0479C48.051 12.8879 48.8341 11.4945 50.2198 11.1879C51.8263 10.8346 53.1985 12.0812 53.8679 12.8545C55.1665 14.3412 56.0233 16.1945 56.3446 18.2078C56.6726 20.2478 56.4183 22.2678 55.615 24.0411C55.1264 25.1145 54.4369 26.0811 53.6002 26.9011C57.9445 34.3344 64.0559 40.7811 71.4259 45.5744C71.5932 45.6877 71.6468 45.9144 71.533 46.081C71.4192 46.2477 71.1916 46.301 71.0242 46.1877C65.803 42.7877 61.2111 38.6077 57.3755 33.7478C55.7757 31.7211 54.3298 29.6078 53.0379 27.4078C51.8665 28.4011 50.4674 29.1211 48.9948 29.4878C50.454 32.2144 51.6991 34.8544 52.7433 37.4544C55.1665 43.4877 56.5321 49.281 56.927 55.181C56.9404 55.381 56.7864 55.561 56.5856 55.5743C56.5856 55.5743 56.5722 55.5743 56.5655 55.5743ZM40.3263 19.0078C39.9916 19.0078 39.6636 19.0878 39.3824 19.2812C38.4721 19.9145 38.5256 21.3212 38.5926 21.8945C39.0143 25.5011 42.2541 28.6211 45.9692 29.0011C46.6051 29.0678 47.241 29.0545 47.8769 28.9678C46.5984 26.6411 45.1659 24.2678 43.5795 21.8345C43.459 21.6545 43.3452 21.4678 43.2314 21.2812C42.8097 20.5945 42.4147 19.9545 41.819 19.5145C41.4107 19.2145 40.8551 19.0078 40.3263 19.0078ZM50.7821 11.8545C50.6549 11.8545 50.521 11.8679 50.3871 11.8945C49.3496 12.1212 48.7605 13.2079 48.6467 14.1279C48.5128 15.2012 48.8542 16.3079 49.2157 17.3478C50.28 20.4278 51.6255 23.4011 53.232 26.2345C53.9415 25.5078 54.5306 24.6678 54.9523 23.7278C56.4517 20.4212 55.7824 16.1412 53.3257 13.3212C52.9174 12.8612 51.9066 11.8545 50.7821 11.8545Z" fill="#151515"/>
<path d="M56.1808 60.6076C56.0603 60.6076 55.9398 60.5476 55.8728 60.4409C55.759 60.2676 55.8126 60.0409 55.9799 59.9343L78.1299 45.6543C78.3039 45.541 78.5315 45.5943 78.6386 45.761C78.7524 45.9343 78.6988 46.161 78.5315 46.2677L56.3816 60.5476C56.3213 60.5876 56.2477 60.6076 56.1808 60.6076Z" fill="white"/>
<path d="M58.0128 63.4142C57.8923 63.4142 57.7718 63.3542 57.7049 63.2475C57.5911 63.0809 57.6446 62.8476 57.812 62.7409L79.9619 48.461C80.1359 48.3476 80.3635 48.401 80.4706 48.5676C80.5844 48.741 80.5309 48.9676 80.3635 49.0743L58.2136 63.3542C58.1467 63.3942 58.0797 63.4142 58.0128 63.4142Z" fill="white"/>
<path d="M59.8331 66.2209C59.7126 66.2209 59.5921 66.1609 59.5252 66.0542C59.4114 65.8809 59.4649 65.6542 59.6323 65.5475L81.7822 51.2676C81.9495 51.1543 82.1838 51.2076 82.2909 51.3743C82.4047 51.5476 82.3512 51.7743 82.1838 51.8809L60.0339 66.1609C59.9737 66.2009 59.9067 66.2209 59.8331 66.2209Z" fill="white"/>
<path d="M70.7069 89.661C66.9851 99.0876 66.0279 110.134 68.19 120.027C70.5328 130.741 76.2159 140.407 82.1065 149.667H112.081C109.15 145.861 103.453 136.967 101.211 132.721C98.9749 128.474 97.4621 123.747 97.6161 118.954C97.7968 113.407 100.153 108.201 101.974 102.954C107.57 86.8343 107.998 68.2144 99.5372 53.3878C97.7433 50.2545 95.3402 47.1479 91.8728 46.1012C87.1871 44.6879 82.1332 47.6212 79.2683 51.5745C78.1169 53.1612 77.2133 55.3345 78.2374 57.0011C79.2013 58.5678 81.5107 58.8345 83.1909 58.0678C84.871 57.3078 86.0759 55.7945 87.2072 54.3412C89.0814 55.6545 90.8352 56.9211 92.7095 58.2411C93.8742 62.9344 94.5972 67.5811 95.1193 72.3877L70.7069 89.661Z" fill="#FFF5A8"/>
<path d="M112.072 150.041H82.0974C81.9702 150.041 81.8564 149.974 81.7895 149.868C78.9647 145.428 76.006 140.621 73.4824 135.554C70.7513 130.074 68.8971 125.021 67.8261 120.101C65.664 110.214 66.5878 99.0678 70.3631 89.5212C70.4367 89.3345 70.6509 89.2412 70.8384 89.3145C71.0258 89.3879 71.1195 89.6012 71.0459 89.7879C67.3241 99.2011 66.4137 110.194 68.5424 119.941C70.8919 130.708 76.6151 140.348 82.2982 149.294H111.329C108.297 145.228 103.029 136.974 100.874 132.888C98.3166 128.041 97.0983 123.341 97.2389 118.934C97.3861 114.401 98.9793 110.061 100.526 105.861C100.894 104.868 101.269 103.834 101.623 102.828C107.802 85.0212 106.925 67.068 99.2136 53.5614C96.9176 49.5481 94.5546 47.2814 91.7633 46.4414C87.0642 45.0281 82.1443 48.2148 79.5671 51.7747C78.8977 52.6947 77.4653 55.0281 78.5497 56.7947C79.4332 58.228 81.5619 58.388 83.0345 57.7214C84.6745 56.9814 85.8593 55.4547 86.9103 54.1081C87.0308 53.9547 87.2517 53.9214 87.4123 54.0347C88.3495 54.6947 89.2732 55.3481 90.1635 55.9814C91.0538 56.6147 91.9775 57.2747 92.9146 57.928C92.9883 57.9814 93.0418 58.0547 93.0619 58.1414C94.1262 62.4347 94.896 66.948 95.4851 72.3346C95.5052 72.5346 95.3579 72.7146 95.1571 72.7413C94.9563 72.7613 94.7755 72.6146 94.7488 72.4146C94.1731 67.1147 93.4167 62.6747 92.3791 58.4547C91.4822 57.8214 90.5919 57.1947 89.7351 56.5814C88.9385 56.0147 88.1085 55.4281 87.2717 54.8347C86.2208 56.1747 85.0159 57.628 83.3358 58.388C82.4254 58.8014 81.3477 58.9347 80.3704 58.7547C79.2927 58.5547 78.4158 57.9947 77.9137 57.1747C76.5951 55.0347 78.2083 52.3814 78.958 51.3414C80.4708 49.2548 82.5191 47.5281 84.7147 46.4814C87.178 45.3081 89.6882 45.0481 91.9641 45.7348C93.6108 46.2281 95.1638 47.2281 96.5829 48.6881C97.7141 49.8548 98.7785 51.3281 99.8428 53.1881C101.911 56.8147 103.524 60.7947 104.615 65.008C105.66 69.008 106.249 73.268 106.383 77.6546C106.624 85.8946 105.218 94.6745 102.306 103.054C101.951 104.074 101.576 105.101 101.208 106.101C99.6888 110.248 98.1091 114.528 97.9685 118.948C97.8279 123.228 99.0261 127.801 101.523 132.534C103.772 136.801 109.442 145.641 112.36 149.428C112.447 149.541 112.461 149.688 112.4 149.814C112.34 149.961 112.213 150.041 112.072 150.041Z" fill="#151515"/>
<path d="M70.2435 90.1005C70.0828 90.1005 69.9221 90.0805 69.7548 90.0405C68.8177 89.8072 68.2487 88.9939 67.7466 88.1739L63.9445 82.0139C63.4224 81.1606 62.8267 80.2006 62.5723 79.1272C62.2041 77.5739 62.5991 76.0873 62.994 75.1073C63.5094 73.8406 64.2859 72.7273 65.0557 71.7139C66.5618 69.714 68.242 67.8206 70.0359 66.074C71.1672 64.974 72.5461 63.8607 74.1794 63.9073C75.4981 63.9407 76.6361 64.734 77.5464 65.3673C79.2065 66.5206 80.9 67.6806 82.54 68.8006C83.9257 69.7473 85.3582 70.7206 86.7639 71.7006C85.5724 66.4806 84.3407 62.154 82.9149 58.1607C82.848 57.9674 82.9484 57.7607 83.1358 57.694C83.3299 57.6274 83.5374 57.7274 83.6044 57.914C85.1239 62.174 86.4225 66.794 87.6876 72.4606C87.7211 72.6073 87.6608 72.7606 87.5336 72.8473C87.4065 72.9339 87.2391 72.9273 87.1186 72.8406C85.4585 71.6873 83.765 70.5273 82.125 69.4073C80.4783 68.2873 78.7848 67.1273 77.1247 65.9673C76.2947 65.3873 75.2638 64.6673 74.166 64.6407C72.8072 64.6073 71.5755 65.614 70.5581 66.6006C68.7842 68.3206 67.1375 70.1873 65.6515 72.1539C64.9152 73.1273 64.1654 74.1939 63.6835 75.3806C63.3287 76.2606 62.9672 77.5872 63.2952 78.9539C63.5228 79.9072 64.0583 80.7806 64.5805 81.6206L68.3826 87.7805C68.8043 88.4672 69.2728 89.1472 69.9422 89.3205C70.7254 89.5138 71.5354 88.9072 71.8701 88.2005C72.2583 87.3872 72.2114 86.3939 72.1244 85.5339C71.8299 82.8539 70.9865 80.1872 69.6745 77.8273C69.6276 77.7406 69.6142 77.6406 69.641 77.5472C69.6678 77.4539 69.7347 77.3739 69.815 77.3273C70.1631 77.1339 70.6116 76.9006 71.0467 76.6739C71.4818 76.4473 71.9236 76.2139 72.265 76.0273C72.4457 75.9273 72.6666 75.9939 72.767 76.1739C72.8674 76.3539 72.8005 76.5739 72.6198 76.6739C72.2717 76.8673 71.8232 77.1006 71.3881 77.3273C71.0802 77.4873 70.7656 77.6539 70.4911 77.8006C71.7496 80.1606 72.5595 82.8006 72.8474 85.4539C72.9545 86.4139 72.9946 87.5339 72.5327 88.5139C72.1378 89.3472 71.2475 90.1005 70.2435 90.1005Z" fill="#151515"/>
<path d="M80.6805 101.481C78.1636 98.1148 77.2332 93.8548 76.5169 89.7215C75.8007 85.5882 75.2049 81.3282 73.1968 77.6349C70.9209 73.4483 66.9314 70.1816 65.5993 65.6083C65.1575 64.095 65.1039 62.2817 66.2084 61.1483C67.2527 60.075 69.0265 60.015 70.4055 60.6017C71.7844 61.1883 72.8621 62.295 73.8996 63.375C76.7445 66.3283 79.6095 69.315 81.7248 72.8216C83.2041 75.2816 84.2885 77.9683 85.7678 80.4349C87.2405 82.9016 89.2018 85.2149 91.8391 86.3682C91.6852 86.1149 80.6805 101.481 80.6805 101.481Z" fill="#FFF5A8"/>
<path d="M80.6776 101.848C80.5638 101.848 80.4567 101.794 80.3831 101.701C77.7792 98.2211 76.8353 93.7278 76.1526 89.7878C76.0923 89.4345 76.0321 89.0878 75.9718 88.7345C75.3359 85.0011 74.6799 81.1412 72.8726 77.8145C71.9823 76.1745 70.7975 74.6412 69.6461 73.1612C67.8856 70.8879 66.0649 68.5346 65.2483 65.7213C64.6659 63.7146 64.9203 61.9613 65.9444 60.9079C67.1761 59.6413 69.1441 59.6813 70.5498 60.2813C72.0224 60.9079 73.1604 62.0946 74.1645 63.1413C76.9826 66.0679 79.8944 69.0946 82.0364 72.6545C82.7928 73.9079 83.4555 75.2412 84.0914 76.5212C84.714 77.7679 85.3566 79.0545 86.0795 80.2678C87.7998 83.1478 89.7879 85.0945 91.9835 86.0545C92.1709 86.1345 92.2512 86.3545 92.1709 86.5345C92.0906 86.7211 91.8697 86.8011 91.6889 86.7211C89.3193 85.6878 87.2777 83.6945 85.4503 80.6412C84.714 79.4078 84.0647 78.1079 83.4354 76.8479C82.7995 75.5745 82.1502 74.2612 81.4072 73.0279C79.3054 69.5346 76.4203 66.5413 73.6357 63.6413C72.6784 62.6479 71.594 61.5213 70.262 60.9479C69.124 60.4613 67.4572 60.4013 66.4733 61.4146C65.2818 62.6413 65.7169 64.6879 65.9578 65.5146C66.741 68.1946 68.4345 70.3879 70.2352 72.7145C71.3999 74.2212 72.6048 75.7745 73.5219 77.4679C75.3895 80.9012 76.0521 84.8211 76.7014 88.6145C76.7617 88.9678 76.8219 89.3145 76.8822 89.6678C77.5783 93.7011 78.4686 97.9211 80.9788 101.268C81.0993 101.428 81.0658 101.661 80.9052 101.781C80.8315 101.821 80.7579 101.848 80.6776 101.848Z" fill="#151515"/>
</svg>
