<svg width="253" height="167" viewBox="0 0 253 167" fill="none" xmlns="http://www.w3.org/2000/svg">
<g clip-path="url(#clip0_3172_1787)">
<path d="M190.247 166.179L234.815 84.2793L210.437 72.8813L151.931 148.453L122.25 118.852L116.011 113.572C108.086 106.865 97.4182 104.351 87.3208 106.812L50.2283 115.848C37.1386 119.038 27.3323 129.876 25.4901 143.188L23.9688 166.179H190.247Z" fill="#F1EBB7"/>
<path d="M190.244 166.999C190.111 166.999 189.978 166.967 189.852 166.901C189.453 166.684 189.304 166.188 189.522 165.79L233.676 84.6543L210.684 73.9053L152.581 148.956C152.437 149.144 152.219 149.258 151.983 149.274C151.758 149.281 151.518 149.203 151.351 149.036L121.67 119.433L115.479 114.198C107.779 107.681 97.3237 105.22 87.5173 107.61L50.4249 116.645C37.5803 119.774 28.113 130.237 26.3052 143.301L24.7908 166.234C24.761 166.686 24.3806 167.022 23.9155 166.997C23.4619 166.967 23.1205 166.576 23.1502 166.126L24.6716 143.136C26.5779 129.343 36.5309 118.343 50.0353 115.053L87.1278 106.017C97.4428 103.504 108.443 106.095 116.542 112.948L122.784 118.229L151.852 147.217L209.783 72.3834C210.022 72.0795 210.434 71.979 210.782 72.1435L235.161 83.5414C235.365 83.6374 235.523 83.8134 235.592 84.0282C235.663 84.2429 235.642 84.4783 235.532 84.6748L190.968 166.57C190.819 166.844 190.537 166.999 190.244 166.999Z" fill="#515151"/>
<g clip-path="url(#clip1_3172_1787)">
<path d="M230.844 108.516L147.823 109.525C140.782 109.61 135.007 103.972 134.92 96.9314L133.911 13.9125C133.826 6.87208 139.464 1.09694 146.505 1.00999L229.523 0.000941099C236.564 -0.0837183 242.339 5.55414 242.426 12.5946L243.435 95.6134C243.52 102.654 237.882 108.431 230.844 108.516Z" fill="white"/>
</g>
<g clip-path="url(#clip2_3172_1787)">
<path d="M198.078 76.0321C202.204 75.014 205.619 72.1688 207.434 68.3964C208.339 66.5147 208.848 64.3967 208.848 62.1651V44.6439C208.848 42.4123 208.339 40.2988 207.434 38.4171C205.141 33.6494 200.299 30.3633 194.696 30.3633H177.332C169.513 30.3633 163.18 36.7582 163.18 44.6439V62.1651C163.18 68.8782 167.765 74.505 173.945 76.0321C175.03 76.3048 176.165 76.4457 177.332 76.4457H194.696C195.862 76.4457 196.993 76.3048 198.078 76.0321ZM182.224 56.102C181.773 55.7202 181.215 55.3975 180.548 55.1339C179.881 54.8657 179.152 54.6158 178.354 54.3794C177.562 54.1431 176.832 53.8204 176.165 53.4113C175.499 53.0023 174.94 52.4568 174.49 51.7751C174.039 51.0933 173.814 50.1798 173.814 49.0299C173.814 48.03 174.017 47.1664 174.422 46.4392C174.828 45.712 175.359 45.1075 176.017 44.6212C176.674 44.1394 177.427 43.7803 178.273 43.544C179.125 43.3076 179.989 43.1895 180.872 43.1895C181.881 43.1895 182.859 43.344 183.805 43.6531C184.755 43.9621 185.606 44.4712 186.363 45.1847L183.872 47.83C183.512 47.3027 183.03 46.9164 182.426 46.671C181.823 46.4255 181.188 46.3028 180.521 46.3028C180.125 46.3028 179.742 46.3483 179.372 46.4392C178.999 46.5301 178.665 46.6755 178.368 46.8755C178.071 47.0755 177.832 47.3346 177.652 47.6527C177.472 47.9709 177.382 48.3481 177.382 48.7844C177.382 49.4389 177.607 49.9434 178.057 50.2888C178.508 50.6343 179.071 50.9342 179.737 51.1888C180.404 51.4433 181.134 51.6887 181.926 51.9251C182.719 52.1614 183.449 52.4887 184.12 52.9068C184.786 53.325 185.345 53.8794 185.795 54.5703C186.246 55.2657 186.471 56.1838 186.471 57.3292C186.471 58.3654 186.282 59.2699 185.904 60.0426C185.525 60.8198 185.016 61.4606 184.377 61.9697C183.732 62.4787 182.989 62.8605 182.142 63.115C181.296 63.3695 180.404 63.4968 179.467 63.4968C178.273 63.4968 177.129 63.2968 176.03 62.8969C174.931 62.4969 173.985 61.8242 173.188 60.8789L175.76 58.3654C176.174 59.0017 176.719 59.4972 177.395 59.8517C178.071 60.2062 178.791 60.3834 179.548 60.3834C179.944 60.3834 180.341 60.3289 180.737 60.2198C181.134 60.1107 181.494 59.9471 181.818 59.729C182.142 59.5108 182.404 59.2335 182.602 58.8972C182.8 58.5609 182.899 58.1745 182.899 57.7382C182.899 57.0292 182.674 56.4838 182.224 56.102ZM199.209 51.5706L196.966 53.834C196.588 53.434 196.191 53.1159 195.777 52.8795C195.362 52.6432 194.939 52.525 194.502 52.525C193.908 52.525 193.376 52.6341 192.908 52.8523C192.439 53.0704 192.038 53.3613 191.705 53.7249C191.372 54.0885 191.119 54.5067 190.948 54.9794C190.777 55.4566 190.692 55.9475 190.692 56.4565C190.692 56.9656 190.777 57.4564 190.948 57.9291C191.119 58.4018 191.372 58.8199 191.705 59.1835C192.038 59.5471 192.439 59.838 192.908 60.0562C193.376 60.2744 193.908 60.3834 194.502 60.3834C195.007 60.3834 195.479 60.2834 195.912 60.0698C196.344 59.8608 196.714 59.5562 197.02 59.1563L199.182 61.5061C198.858 61.8333 198.484 62.1151 198.06 62.3515C197.637 62.5878 197.209 62.7787 196.777 62.9241C196.344 63.0696 195.93 63.1741 195.534 63.2377C195.137 63.3014 194.79 63.3332 194.502 63.3332C193.529 63.3332 192.61 63.1696 191.745 62.8423C190.881 62.5151 190.133 62.0515 189.498 61.4515C188.867 60.8516 188.367 60.1244 187.998 59.279C187.629 58.4336 187.444 57.4928 187.444 56.4565C187.444 55.4202 187.629 54.4749 187.998 53.6295C188.367 52.7841 188.867 52.0614 189.498 51.4615C190.133 50.8615 190.881 50.3979 191.745 50.0707C192.61 49.7389 193.529 49.5753 194.502 49.5753C195.335 49.5753 196.169 49.7389 197.006 50.0571C197.844 50.3752 198.578 50.8797 199.209 51.5706Z" fill="#515151"/>
<path d="M212.777 49.9072V62.3971C212.777 72.0599 204.985 79.9228 195.409 79.9228H183.031V83.5043H195.409C206.944 83.5043 216.326 74.037 216.326 62.3971V49.9072H212.777Z" fill="#515151"/>
</g>
<path d="M123.178 76.5082L122.641 52.4395C122.598 50.4401 124.268 48.8245 126.271 48.9297C129.398 49.0942 132.081 51.2056 132.973 54.199L135.413 62.3933L123.178 76.5082Z" fill="#F1EBB7"/>
<path d="M123.18 77.3287C123.086 77.3287 122.992 77.3128 122.901 77.2808C122.582 77.1665 122.364 76.8672 122.358 76.5267L121.821 52.458C121.794 51.2766 122.268 50.1295 123.116 49.3069C123.966 48.4843 125.125 48.0661 126.315 48.1095C129.781 48.2946 132.771 50.6459 133.761 53.9639L136.201 62.1581C136.281 62.4255 136.217 62.7157 136.034 62.9282L123.799 77.0454C123.643 77.2282 123.414 77.3287 123.18 77.3287ZM126.085 49.7456C125.4 49.7456 124.756 50.0038 124.262 50.486C123.732 50.9978 123.448 51.6879 123.467 52.4237L123.957 74.3627L134.503 62.1947L132.189 54.4323C131.399 51.7771 129.004 49.8942 126.232 49.7479C126.182 49.7456 126.134 49.7456 126.085 49.7456Z" fill="#515151"/>
<path d="M128.804 64.2348L149.434 43.7034C150.575 42.5678 152.465 42.7232 153.402 44.0302L154.319 45.3076C156.06 47.7343 156.166 50.9654 154.589 53.4996L150.328 60.3456L150.465 61.2985L158.216 55.3619C159.903 54.0685 162.343 54.3793 163.617 56.0771C165.562 58.6707 165.301 62.224 163.156 64.5296C164.769 63.6064 166.852 63.9743 168.018 65.487C170.021 68.0852 169.773 71.6819 167.61 74.0081C169.223 73.0849 171.306 73.4528 172.47 74.9655C174.704 77.8653 174.156 82.0218 171.249 84.2498L155.54 96.283L156.017 99.5689C156.583 103.474 155.391 107.43 152.759 110.375L114.938 164.719C114.938 164.719 81.676 155.322 93.6842 124.195C93.7209 124.101 93.8194 124.049 93.8881 123.973L123.674 91.8659L122.874 89.5146C119.861 80.6508 122.162 70.8478 128.804 64.2348Z" fill="#F1EBB7"/>
<path d="M114.938 165.539C114.862 165.539 114.789 165.527 114.713 165.507C114.081 165.328 99.1833 160.996 92.9168 148.503C89.3562 141.406 89.3562 133.127 92.9145 123.9C93.0107 123.646 93.1894 123.493 93.2765 123.42L122.739 91.6668L122.095 89.7794C118.959 80.5499 121.305 70.539 128.222 63.6564L148.852 43.125C149.567 42.4144 150.555 42.051 151.56 42.1356C152.566 42.2179 153.48 42.7366 154.069 43.5546L154.986 44.832C156.926 47.5352 157.043 51.1068 155.286 53.9334L152.145 58.9811L157.715 54.7126C158.716 53.9471 159.958 53.6227 161.209 53.7917C162.444 53.9608 163.532 54.6007 164.274 55.5901C165.963 57.8386 166.192 60.7795 165.033 63.2154C166.419 63.2154 167.78 63.8369 168.669 64.9909C170.412 67.2554 170.667 70.2283 169.489 72.6916C170.875 72.6939 172.234 73.3154 173.121 74.4671C174.335 76.0438 174.86 77.9975 174.601 79.9673C174.342 81.9393 173.329 83.6896 171.748 84.9007L156.422 96.6414L156.83 99.4521C157.43 103.59 156.184 107.754 153.407 110.882L115.611 165.187C115.455 165.411 115.201 165.539 114.938 165.539ZM94.4015 124.618C91.0655 133.347 91.0609 141.134 94.3877 147.77C99.6713 158.309 111.863 162.847 114.608 163.756L152.087 109.909C152.106 109.881 152.126 109.856 152.149 109.831C154.626 107.059 155.74 103.362 155.206 99.6874L154.729 96.4015C154.686 96.109 154.807 95.8142 155.041 95.6337L170.749 83.6005C171.982 82.6568 172.772 81.2903 172.974 79.7547C173.176 78.2192 172.766 76.695 171.819 75.4657C170.928 74.3071 169.294 73.9872 168.02 74.7207C167.668 74.9241 167.221 74.8373 166.969 74.5196C166.717 74.202 166.733 73.7496 167.01 73.4525C168.946 71.3708 169.097 68.2311 167.37 65.9895C166.478 64.8332 164.843 64.511 163.569 65.2445C163.216 65.4479 162.769 65.3588 162.517 65.0434C162.265 64.7258 162.281 64.2734 162.558 63.9763C164.471 61.922 164.641 58.8098 162.964 56.5727C162.487 55.9374 161.786 55.5284 160.989 55.4187C160.18 55.3068 159.371 55.5193 158.72 56.0174L150.969 61.9563C150.738 62.1323 150.431 62.1734 150.158 62.066C149.888 61.9563 149.695 61.7118 149.654 61.4239L149.517 60.471C149.489 60.2814 149.53 60.0871 149.631 59.9226L153.893 53.0765C155.3 50.8166 155.206 47.9557 153.652 45.794L152.736 44.5166C152.429 44.0893 151.954 43.8197 151.428 43.7763C150.896 43.7283 150.387 43.9202 150.016 44.2927L129.386 64.8241C122.916 71.2634 120.721 80.6254 123.656 89.2607L124.455 91.6097C124.552 91.8953 124.485 92.2084 124.281 92.43L94.4886 124.531C94.4611 124.56 94.4313 124.59 94.4015 124.618ZM94.4519 124.485C94.4519 124.487 94.4519 124.49 94.4496 124.49C94.4496 124.49 94.4519 124.487 94.4519 124.485Z" fill="#515151"/>
<path d="M143.437 80.5962C143.189 80.5962 142.946 80.4865 142.784 80.2763C142.506 79.9175 142.575 79.4034 142.935 79.1269L161.837 64.6487C162.199 64.3722 162.713 64.443 162.99 64.7995C163.267 65.1583 163.198 65.6724 162.839 65.9489L143.936 80.4271C143.787 80.5414 143.611 80.5962 143.437 80.5962Z" fill="#515151"/>
<path d="M138.191 71.5267C137.943 71.5267 137.7 71.417 137.538 71.2068C137.26 70.848 137.329 70.3339 137.689 70.0574L157.778 54.6697C158.14 54.3932 158.656 54.464 158.931 54.8205C159.208 55.1793 159.139 55.6934 158.779 55.9699L138.69 71.3576C138.541 71.4718 138.365 71.5267 138.191 71.5267Z" fill="#515151"/>
<path d="M149.284 88.9363C149.037 88.9363 148.794 88.8266 148.631 88.6164C148.354 88.2577 148.423 87.7435 148.782 87.467L168.87 72.0793C169.232 71.8029 169.745 71.8737 170.022 72.2302C170.299 72.5889 170.231 73.1053 169.871 73.3796L149.784 88.7672C149.635 88.8815 149.458 88.9363 149.284 88.9363Z" fill="#515151"/>
<path d="M82.5776 95.841C75.4313 100.203 63.0015 107.371 53.0508 106.553C43.1 105.735 27.1669 109.417 32.2328 99.2914C37.2987 89.1663 41.5741 87.3999 37.9516 83.5633C34.3269 79.7266 10.7389 62.2024 28.9724 48.2566C47.2082 34.3108 78.8017 42.5896 89.5589 55.2901C100.316 67.9905 84.4106 70.1065 88.489 74.2264C92.5696 78.3464 97.986 79.8203 94.7692 84.4567C91.5523 89.0954 87.7054 92.7081 82.5776 95.841Z" fill="#515151"/>
<path d="M87.5177 106.772C87.4535 106.788 87.3871 106.797 87.3206 106.813L82.1837 108.065L74.2218 73.7754L50.8422 79.1727L58.8683 113.744L50.2282 115.848C49.7676 115.96 49.3208 116.104 48.8672 116.234C49.0826 116.739 49.3117 117.244 49.566 117.742C55.113 128.626 67.5841 133.407 77.4203 128.418C85.1738 124.49 88.9726 115.663 87.5177 106.772Z" fill="#F1EBB7"/>
<path d="M69.106 131.222C66.6109 131.222 64.0745 130.749 61.5955 129.798C56.1447 127.707 51.6149 123.56 48.838 118.115C48.602 117.649 48.3729 117.155 48.1162 116.559C48.0246 116.341 48.0292 116.097 48.13 115.884C48.2308 115.672 48.4164 115.512 48.6432 115.448L49.0213 115.336C49.3581 115.235 49.6949 115.135 50.0363 115.053L57.8883 113.14L50.0454 79.3598C49.9423 78.9188 50.2173 78.4778 50.6595 78.3772L74.039 72.9776C74.2498 72.9296 74.4744 72.9662 74.66 73.0804C74.8455 73.1947 74.9761 73.3798 75.0266 73.59L82.8006 107.071L87.2685 105.988C87.4908 105.935 87.7542 105.972 87.9444 106.097C88.1346 106.223 88.2927 106.415 88.3293 106.639C89.8805 116.122 85.6463 125.169 77.7943 129.152C75.0792 130.529 72.1236 131.222 69.106 131.222ZM50.0042 116.757C50.1004 116.963 50.199 117.169 50.3044 117.372C52.8957 122.454 57.1138 126.323 62.1866 128.267C67.2273 130.198 72.5062 129.995 77.0543 127.689C84.0264 124.154 87.8848 116.229 86.8378 107.777L82.3859 108.86C82.1751 108.91 81.946 108.876 81.7604 108.762C81.5725 108.648 81.4397 108.463 81.3915 108.248L73.6152 74.7554L51.8372 79.7849L59.6777 113.556C59.7785 113.992 59.5082 114.431 59.0728 114.536L50.4327 116.641C50.286 116.68 50.144 116.718 50.0042 116.757Z" fill="#515151"/>
<path d="M37.019 51.615C37.019 51.615 13.7769 61.2169 8.1749 59.5031C0.40998 57.1266 -2.71982 43.6744 4.91221 38.9123C12.5442 34.1479 27.3799 35.4824 37.019 51.615Z" fill="#515151"/>
<path d="M60.5377 87.3695C65.1522 89.7094 75.4626 93.4615 81.1426 89.4375C89.9752 83.1787 83.6446 61.8773 79.305 54.9581C74.9632 48.0389 70.4472 39.3007 53.8817 46.7501C37.3139 54.1994 50.1127 59.2106 50.1127 59.2106C50.1127 59.2106 51.98 65.266 49.9866 67.4734C47.9933 69.6808 35.9667 74.9113 60.5377 87.3695Z" fill="#F1EBB7"/>
<path d="M74.652 92.0357C68.1793 92.0357 61.2095 88.6287 60.167 88.1008C50.0535 82.9731 44.9281 78.4875 44.5019 74.3927C44.1651 71.1684 46.8138 69.0433 48.3947 67.7751C48.8163 67.4369 49.1829 67.1444 49.3799 66.925C50.6538 65.5152 49.9069 61.5368 49.4349 59.8116C48.2343 59.2632 44.6531 57.3826 44.5798 54.3434C44.5088 51.478 47.4416 48.7496 53.5476 46.0029C70.0856 38.5696 75.2867 46.9352 79.4658 53.6579L80.0043 54.524C84.6325 61.9025 90.9311 83.5078 81.6219 90.1071C79.6285 91.517 77.1769 92.0357 74.652 92.0357ZM64.951 44.7027C62.1053 44.7027 58.6158 45.5208 54.219 47.4974C47.5447 50.4977 46.1837 52.8536 46.218 54.2977C46.2662 56.3634 49.2631 57.9927 50.4133 58.4474C50.6447 58.5388 50.8234 58.7308 50.8967 58.9684C51.1029 59.6334 52.8374 65.5403 50.5966 68.0196C50.3124 68.3349 49.9 68.6663 49.4212 69.0502C47.9319 70.2453 45.8904 71.8837 46.1333 74.2213C46.3807 76.5932 49.1439 80.672 60.9093 86.6361C65.8377 89.1337 75.5433 92.3945 80.6664 88.7658C85.4413 85.3816 85.0243 77.1599 84.3507 72.56C83.3472 65.6957 80.7008 58.7262 78.6089 55.39L78.0659 54.5194C75.0507 49.6705 71.9621 44.7027 64.951 44.7027Z" fill="#515151"/>
<path d="M76.3575 71.0924C76.0848 71.0924 75.8168 70.9553 75.6609 70.7085C75.4204 70.3246 75.5372 69.8196 75.9221 69.5797C76.5912 69.1615 77.1594 67.8819 77.4573 66.9153C76.4308 66.0858 74.0388 63.8304 72.9207 60.1309C71.688 56.0589 75.2577 53.2597 77.3175 52.3502C77.7322 52.1651 78.2157 52.3525 78.399 52.7661C78.5845 53.1797 78.3967 53.6641 77.9842 53.8469C77.7941 53.9315 73.3743 55.9561 74.4924 59.6556C75.7411 63.7847 78.8228 65.8961 78.8526 65.9167C79.1344 66.1064 79.2696 66.4491 79.194 66.7805C79.1184 67.1026 78.4219 69.9521 76.7928 70.969C76.6576 71.0535 76.5064 71.0924 76.3575 71.0924Z" fill="#515151"/>
<path d="M70.5193 76.8283C67.3987 76.8283 64.2597 74.5729 64.0833 74.445C63.7167 74.1776 63.6365 73.6658 63.9046 73.3002C64.1726 72.9345 64.6859 72.8546 65.0525 73.1219C65.1006 73.1562 69.935 76.6181 72.6547 74.5158C73.0144 74.2393 73.53 74.3056 73.8072 74.6621C74.0844 75.0208 74.018 75.535 73.6606 75.8115C72.7005 76.5518 71.6099 76.8283 70.5193 76.8283Z" fill="#515151"/>
<path d="M64.9103 62.969C64.5575 61.8128 63.5974 61.0816 62.7634 61.3352C61.9294 61.5888 61.5399 62.7291 61.8905 63.8853C62.2433 65.0416 63.2034 65.7728 64.0374 65.5192C64.8714 65.2678 65.2609 64.1253 64.9103 62.969ZM79.3862 59.1118C79.0333 57.9556 78.0733 57.2244 77.2393 57.478C76.4053 57.7316 76.0158 58.8719 76.3664 60.0281C76.7192 61.1844 77.6792 61.9156 78.5132 61.662C79.3472 61.4106 79.7368 60.2681 79.3862 59.1118Z" fill="#515151"/>
<path d="M39.2275 70.0958C39.3169 70.4774 39.4246 70.8521 39.5437 71.2223C41.9059 71.2749 44.3552 71.0464 46.8343 70.4728C59.2642 67.6027 67.5446 57.5324 65.3267 47.9831C64.7722 45.5952 63.6152 43.4678 61.9953 41.6626C46.4861 48.7897 36.8928 60.0414 39.2275 70.0958Z" fill="#515151"/>
<path d="M51.6334 73.065C52.4147 76.4332 50.3113 79.7946 46.9341 80.5738C43.5568 81.353 40.1864 79.2553 39.4051 75.8871C38.6238 72.5189 40.7272 69.1576 44.1044 68.3783C47.4794 67.5991 50.8498 69.6968 51.6334 73.065Z" fill="#F1EBB7"/>
<path d="M28.7649 102.437C28.4991 102.437 28.2379 102.309 28.0798 102.071C26.7303 100.047 27.5918 97.3867 28.8496 95.5747C29.2185 95.0445 29.6241 94.5373 30.0159 94.0483C30.8636 92.9903 31.6633 91.994 32.0573 90.824C32.6531 89.0577 32.2636 86.8526 30.9919 84.7754C30.0205 83.1896 28.7213 81.862 27.3443 80.4544C27.0602 80.1619 26.7738 79.8717 26.492 79.5792C24.0106 76.9925 20.5669 72.9776 19.3296 67.9961C18.0878 62.9987 19.5634 57.7727 23.0002 54.9872C23.353 54.7039 23.8708 54.7541 24.1572 55.106C24.4436 55.4579 24.3909 55.9744 24.0381 56.26C20.6288 59.0227 20.0193 63.947 20.9266 67.6031C21.795 71.1038 23.9419 74.5497 27.6811 78.4458C27.9584 78.736 28.2402 79.0239 28.522 79.3095C29.9013 80.7194 31.3287 82.1796 32.3964 83.9208C33.9224 86.4115 34.3669 89.1194 33.6177 91.345C33.1319 92.7892 32.2017 93.9477 31.3012 95.0697C30.9094 95.5587 30.5383 96.0203 30.2037 96.5047C29.2529 97.8735 28.5564 99.8158 29.4499 101.159C29.702 101.536 29.5989 102.046 29.2208 102.295C29.0788 102.391 28.9207 102.437 28.7649 102.437Z" fill="#515151"/>
<path d="M242.458 76.2901C242.458 76.2901 256.971 57.5776 248.063 35.8946C240.923 18.5189 228.702 18.1441 226.457 23.9299C225.558 26.2447 229.593 32.0945 229.593 32.0945C229.593 32.0945 226.935 33.7375 228.079 36.7766C229.337 40.1197 225.829 40.6772 224.651 42.7612C223.407 44.9595 224.63 47.8135 226.963 48.4328C229.298 49.052 235.729 52.5482 235.729 52.5482C235.729 52.5482 231.674 54.2414 229.543 56.3528C228.083 57.8016 229.99 62.0998 233.603 63.1806C237.214 64.2638 243.029 64.9881 242.458 76.2901Z" fill="#F1EBB7"/>
<path d="M249.218 39.6205C249.218 39.6205 237.808 30.158 230.696 32.1415C225.596 33.5628 228.684 39.2138 228.684 39.2138L249.218 39.6205Z" fill="#F1EBB7"/>
<path d="M249.219 40.439C249.034 40.439 248.848 40.3773 248.694 40.2493C248.584 40.1579 237.532 31.0862 230.919 32.928C229.826 33.2319 229.134 33.7552 228.807 34.5252C228.057 36.2893 229.396 38.7937 229.409 38.8189C229.625 39.2165 229.478 39.7146 229.079 39.9294C228.681 40.1488 228.184 39.998 227.966 39.6027C227.895 39.4724 226.236 36.3876 227.292 33.8923C227.819 32.6469 228.891 31.7923 230.477 31.3513C237.917 29.2787 249.265 38.5927 249.746 38.9903C250.094 39.2782 250.143 39.7969 249.852 40.1442C249.689 40.3384 249.455 40.439 249.219 40.439Z" fill="#515151"/>
<path d="M250.22 50.2069C243.571 43.5048 228.545 36.5581 225.484 41.5739C222.377 46.6673 227.88 48.4268 230.44 49.7087C233.95 51.4659 236.986 53.8676 236.986 53.8676L250.22 50.2069Z" fill="#F1EBB7"/>
<path d="M236.99 54.6856C236.812 54.6856 236.631 54.6285 236.482 54.5074C236.452 54.4845 233.466 52.1354 230.078 50.4399C229.81 50.3051 229.507 50.1657 229.184 50.0172C227.262 49.1283 224.629 47.9081 223.919 45.5727C223.513 44.2428 223.807 42.7552 224.787 41.1488C225.498 39.9857 226.712 39.2979 228.401 39.0991C234.438 38.3907 245.404 44.1811 250.809 49.6287C251.127 49.9509 251.125 50.4696 250.802 50.7873C250.481 51.1049 249.959 51.1026 249.64 50.7804C243.477 44.5673 233.082 40.1891 228.591 40.7261C227.431 40.8632 226.623 41.2905 226.19 41.9989C225.452 43.2077 225.225 44.22 225.491 45.0951C225.988 46.729 228.236 47.7687 229.874 48.5296C230.211 48.685 230.529 48.8335 230.811 48.9752C234.355 50.7507 237.373 53.1226 237.499 53.2254C237.854 53.5065 237.914 54.0229 237.632 54.3771C237.472 54.5805 237.231 54.6856 236.99 54.6856Z" fill="#515151"/>
<path d="M242.635 77.9011C242.564 77.9011 242.493 77.892 242.425 77.8737C242.115 77.7914 241.882 77.5378 241.827 77.2224L240.014 66.8253L232.559 63.5257C232.485 63.5006 229.738 62.4471 228.89 60.0364C228.405 58.6562 228.636 57.1572 229.578 55.5805C230.325 54.3329 231.443 53.5354 232.902 53.2132C237.996 52.0821 245.751 57.2806 246.079 57.5022C246.455 57.7559 246.553 58.2655 246.297 58.6402C246.042 59.015 245.532 59.1132 245.156 58.8573C245.08 58.807 237.661 53.8393 233.258 54.8127C232.242 55.0367 231.5 55.5645 230.989 56.4191C230.309 57.5571 230.123 58.5877 230.437 59.488C231.024 61.1744 233.161 62.0038 233.182 62.0107L241.08 65.5046C241.332 65.6165 241.508 65.8428 241.556 66.1147L243.112 75.0356C246.867 69.5034 257.991 49.7101 242.381 28.1985C238.653 23.0616 235.196 20.5046 232.394 20.8245C229.844 21.1079 228.405 23.706 228.077 24.3641C228.121 25.2302 228.467 29.1719 231.241 31.5164C231.587 31.8089 231.631 32.3253 231.337 32.6704C231.046 33.0154 230.529 33.0588 230.18 32.7663C226.476 29.6381 226.43 24.4144 226.43 24.195C226.43 24.0853 226.45 23.9757 226.494 23.8751C226.567 23.7014 228.334 19.634 232.199 19.1953C235.668 18.8045 239.554 21.5032 243.712 27.2365C262.796 53.5354 243.465 77.3687 243.268 77.6063C243.11 77.796 242.876 77.9011 242.635 77.9011Z" fill="#515151"/>
<path d="M60.3495 166.541C60.1708 166.541 59.9875 166.481 59.8363 166.36C59.4811 166.077 59.4238 165.56 59.7079 165.209L93.0474 123.682C93.3315 123.33 93.847 123.271 94.2022 123.554C94.555 123.837 94.6146 124.354 94.3305 124.706L60.991 166.232C60.8306 166.436 60.5923 166.541 60.3495 166.541Z" fill="#515151"/>
<path d="M143.008 161.084C142.836 161.084 142.662 161.031 142.515 160.919C142.153 160.647 142.08 160.133 142.352 159.772L151.272 147.963C151.545 147.602 152.06 147.529 152.422 147.801C152.784 148.073 152.858 148.587 152.585 148.948L143.665 160.757C143.503 160.97 143.257 161.084 143.008 161.084Z" fill="#515151"/>
<path d="M128.156 102.958C127.838 102.958 127.535 102.773 127.403 102.465L122.928 92.1932C122.747 91.7773 122.937 91.2952 123.354 91.1147C123.771 90.9319 124.254 91.1238 124.435 91.5397L128.91 101.811C129.091 102.227 128.901 102.709 128.484 102.89C128.376 102.935 128.266 102.958 128.156 102.958Z" fill="#515151"/>
</g>
<defs>
<clipPath id="clip0_3172_1787">
<rect width="251.584" height="167" fill="white" transform="translate(0.535156)"/>
</clipPath>
<clipPath id="clip1_3172_1787">
<rect x="133.91" width="109.526" height="109.526" rx="30.3636" fill="white"/>
</clipPath>
<clipPath id="clip2_3172_1787">
<rect width="53.1364" height="53.1364" fill="white" transform="translate(163.184 30.3633)"/>
</clipPath>
</defs>
</svg>
