<svg width="32" height="32" viewBox="0 0 32 32" fill="none" xmlns="http://www.w3.org/2000/svg">
<path d="M25.393 30.956C24.2452 30.956 23.306 30.0169 23.306 28.8691V3.12993C23.306 1.9821 24.2452 1.04297 25.393 1.04297C26.5408 1.04297 27.48 1.9821 27.48 3.12993V28.8691C27.48 30.0169 26.5408 30.956 25.393 30.956ZM18.0887 28.8691V11.6169C18.0887 10.4691 17.1495 9.52993 16.0017 9.52993C14.8539 9.52993 13.9147 10.4691 13.9147 11.6169V28.8691C13.9147 30.0169 14.8539 30.956 16.0017 30.956C17.1495 30.956 18.0887 30.0169 18.0887 28.8691ZM8.69735 28.8691V20.1038C8.69735 18.956 7.75822 18.0169 6.61039 18.0169C5.46257 18.0169 4.52344 18.956 4.52344 20.1038V28.8691C4.52344 30.0169 5.46257 30.956 6.61039 30.956C7.75822 30.956 8.69735 30.0169 8.69735 28.8691Z" fill="white"/>
</svg>
