<svg width="41" height="41" viewBox="0 0 41 41" fill="none" xmlns="http://www.w3.org/2000/svg">
<path d="M16.9716 9.97578L16.9863 10.0063L17.005 10.0345C17.0587 10.1155 17.1035 10.2016 17.1387 10.2914C17.2637 12.2194 17.3935 14.1322 17.5227 16.0361C17.6254 17.5509 17.7278 19.0601 17.8271 20.5669C17.8236 20.9742 17.8887 21.3792 18.0199 21.7655L18.0246 21.7793L18.0301 21.7929C18.3829 22.6614 19.2564 23.2046 20.1949 23.1554L20.1949 23.1554L20.2007 23.1551L31.1832 22.4514L31.226 22.4682L31.3019 22.4736L31.4894 22.4871C31.7763 22.5266 32.0417 22.6588 32.2429 22.8629C32.4779 23.1013 32.6064 23.4187 32.6041 23.7464C32.1765 29.8825 27.674 35.0174 21.5351 36.3418C15.3904 37.6675 9.09726 34.8533 6.08572 29.4467L6.08573 29.4467L6.08355 29.4428C5.19921 27.8877 4.64062 26.1754 4.44018 24.4064L4.43921 24.3978L4.43795 24.3893C4.36131 23.8725 4.32776 23.3505 4.33762 22.8284L4.33768 22.8284L4.33771 22.8205C4.35798 16.2908 9.00644 10.6438 15.5269 9.25644C16.1248 9.14705 16.7162 9.44765 16.9716 9.97578ZM22.0029 4.33437L22.0029 4.33443L22.0102 4.33465C29.3906 4.55558 35.5478 9.90927 36.6681 17.0508L36.6642 17.0742L36.6638 17.1129L36.662 17.2989C36.6435 17.4615 36.5749 17.6172 36.4619 17.7441C36.3154 17.9086 36.106 18.0111 35.8791 18.0256L35.8781 18.0257L23.0905 18.869L22.9099 18.8726C22.6794 18.8579 22.4604 18.7666 22.2902 18.6134C22.0816 18.4257 21.9656 18.1627 21.9667 17.8899L21.9668 17.8718L21.9655 17.8537L21.1064 5.29861V5.12076C21.1185 4.90647 21.2157 4.70305 21.3806 4.55502C21.5483 4.40446 21.7721 4.32409 22.0029 4.33437Z" fill="url(#paint0_linear_1150_9737)" fill-opacity="0.35" stroke="white"/>
<defs>
<linearGradient id="paint0_linear_1150_9737" x1="20.5026" y1="3.8335" x2="20.5026" y2="37.1668" gradientUnits="userSpaceOnUse">
<stop stop-color="white" stop-opacity="0"/>
<stop offset="1" stop-color="white"/>
</linearGradient>
</defs>
</svg>
