<svg width="33" height="32" viewBox="0 0 33 32" fill="none" xmlns="http://www.w3.org/2000/svg">
<path d="M12.137 6.79791C12.6687 6.75934 13.1585 7.11925 13.2657 7.652C13.3819 8.22915 13.0051 8.7906 12.4242 8.90603C8.26597 9.78475 5.29617 13.4376 5.30628 17.661C5.2966 17.991 5.31616 18.3213 5.36472 18.648C5.87757 22.8647 9.31642 26.1348 13.5793 26.4595C17.8422 26.7842 21.7426 24.0731 22.8965 19.9833L22.946 19.8491C23.1574 19.3761 23.6887 19.1147 24.2055 19.2517C24.4821 19.3173 24.7202 19.4913 24.8655 19.7341C25.0109 19.977 25.051 20.2679 24.9769 20.5406C24.1831 23.4188 22.247 25.8535 19.6122 27.2868C16.3792 29.0671 12.465 29.1265 9.1787 27.4451C5.89245 25.7638 3.66795 22.5636 3.24922 18.915C3.1813 18.4889 3.15391 18.0574 3.16741 17.6262C3.16176 12.3978 6.8515 7.88367 12.0034 6.81599L12.137 6.79791ZM18.42 3.33258C24.1196 3.49826 28.8996 7.65762 29.8157 13.2487H29.8274V13.4345L29.8307 13.6298C29.8157 14.0839 29.6423 14.521 29.3369 14.8645C28.9879 15.257 28.4954 15.4947 27.969 15.5245L19.2031 16.1051H19.0629C17.9513 16.1028 17.0268 15.2549 16.9357 14.1544L16.3513 5.43423C16.3162 4.88416 16.5155 4.34477 16.9006 3.94798C17.2993 3.54236 17.8496 3.31947 18.42 3.33258ZM18.4785 5.44585L19.0629 14.015L27.7119 13.4461C26.9041 8.95776 23.0642 5.6307 18.4785 5.44585Z" fill="white"/>
</svg>
