<svg width="396" height="424" viewBox="0 0 396 424" fill="none" xmlns="http://www.w3.org/2000/svg">
<path fill-rule="evenodd" clip-rule="evenodd" d="M-206.999 375.213V409.446H-260V410.242H-206.999V423.107H-206.203V410.242H-171.976V423.107H-171.18V410.242H-136.945V423.107H-136.148V410.242H-101.913V423.107H-101.117V410.242H-66.8821V423.107H-66.086V410.242H-31.8586V423.107H-31.0625V410.242H3.17261V423.107H3.96872V410.242H38.2039V423.107H39V410.242H73.2273V423.107H74.0234V410.242H108.259V423.107H109.055V410.242H143.29V423.107H144.086V410.242H178.321V423.107H179.117V410.242H213.344V423.107H214.141V410.242H248.376V423.107H249.172V410.242H283.407V423.107H284.203V410.242H318.438V423.107H319.234V410.242H396V409.446H319.234V375.213H396V374.417H319.234V340.184H396V339.388H319.234V305.155H396V304.358H319.234V270.125H396V269.329H319.234V235.097H396V234.301H319.234V200.068H396V199.271H319.234V165.038H396V164.242H319.234V130.009H396V129.212H319.234V94.9792H396V94.1831H319.234V59.9509H396V59.1548H319.234V24.9216H396V24.1255H319.234V-10.1077H396V-10.9038H319.234V-45.137H396V-45.9331H319.234V-88H318.438V-45.9331H284.203V-88H283.407V-45.9331H249.172L249.172 -88H248.376L248.376 -45.9331H214.141L214.141 -88H213.345L213.344 -45.9331H179.117L179.117 -88H178.321L178.321 -45.9331H144.086L144.086 -88H143.29L143.29 -45.9331H109.055L109.055 -88H108.259L108.259 -45.9331H74.0234L74.0234 -88H73.2273L73.2273 -45.9331H39L39 -88H38.2039L38.2039 -45.9331H3.96872L3.96875 -88H3.17264L3.17261 -45.9331H-31.0625L-31.0625 -88H-31.8586L-31.8586 -45.9331H-66.086L-66.0859 -88H-66.882L-66.8821 -45.9331H-101.117L-101.117 -88H-101.913L-101.913 -45.9331H-136.148L-136.148 -88H-136.945L-136.945 -45.9331H-171.18L-171.18 -88H-171.976L-171.976 -45.9331H-206.203L-206.203 -88H-206.999L-206.999 -45.9331H-260V-45.137H-206.999V-10.9038H-260V-10.1077H-206.999L-206.999 24.1255H-260V24.9216H-206.999V59.1548H-260V59.9509H-206.999L-206.999 94.1831H-260V94.9792H-206.999V129.212H-260V130.009H-206.999L-206.999 164.242H-260V165.038H-206.999V199.271H-260V200.068H-206.999L-206.999 234.301H-260V235.097H-206.999V269.329H-260V270.125H-206.999L-206.999 304.358H-260V305.155H-206.999V339.388H-260V340.184H-206.999V374.417H-260V375.213H-206.999ZM-206.203 -45.137V-10.9038H-171.976V-45.137H-206.203ZM-171.18 -45.137V-10.9038H-136.945V-45.137H-171.18ZM-136.148 -45.137V-10.9038H-101.913V-45.137H-136.148ZM-101.117 -45.137V-10.9038H-66.8821V-45.137H-101.117ZM-66.086 -45.137V-10.9038H-31.8586V-45.137H-66.086ZM-31.0625 -45.137V-10.9038H3.17261V-45.137H-31.0625ZM3.96872 -45.137V-10.9038H38.2039V-45.137H3.96872ZM39 -45.137V-10.9038H73.2273V-45.137H39ZM74.0234 -45.137V-10.9038H108.259V-45.137H74.0234ZM109.055 -45.137V-10.9038H143.29V-45.137H109.055ZM144.086 -45.137V-10.9038H178.321V-45.137H144.086ZM179.117 -45.137V-10.9038H213.344V-45.137H179.117ZM214.141 -45.137V-10.9038H248.376V-45.137H214.141ZM249.172 -45.137V-10.9038H283.407V-45.137H249.172ZM284.203 -45.137V-10.9038H318.438V-45.137H284.203ZM284.203 -10.1077H318.438V24.1255H284.203V-10.1077ZM249.172 -10.1077H283.407V24.1255H249.172V-10.1077ZM214.141 -10.1077H248.376V24.1255H214.141V-10.1077ZM179.117 -10.1077H213.344V24.1255H179.117V-10.1077ZM144.086 -10.1077H178.321V24.1255H144.086V-10.1077ZM109.055 -10.1077H143.29V24.1255H109.055V-10.1077ZM74.0234 -10.1077H108.259V24.1255H74.0234V-10.1077ZM39 -10.1077H73.2273V24.1255H39V-10.1077ZM3.96872 -10.1077H38.2039V24.1255H3.96872V-10.1077ZM-31.0625 -10.1077H3.17261V24.1255H-31.0625V-10.1077ZM-66.086 -10.1077H-31.8586V24.1255H-66.086V-10.1077ZM-101.117 -10.1077H-66.8821V24.1255H-101.117L-101.117 -10.1077ZM-136.148 -10.1077H-101.913V24.1255H-136.148L-136.148 -10.1077ZM-171.18 -10.1077H-136.945L-136.945 24.1255H-171.18L-171.18 -10.1077ZM-206.203 -10.1077H-171.976L-171.976 24.1255H-206.203L-206.203 -10.1077ZM-206.203 24.9216V59.1548H-171.976V24.9216H-206.203ZM-171.18 24.9216V59.1548H-136.945V24.9216H-171.18ZM-136.148 24.9216V59.1548H-101.913V24.9216H-136.148ZM-101.117 24.9216V59.1548H-66.8821V24.9216H-101.117ZM-66.086 24.9216V59.1548H-31.8586V24.9216H-66.086ZM-31.0625 24.9216V59.1548H3.17261V24.9216H-31.0625ZM3.96872 24.9216V59.1548H38.2039V24.9216H3.96872ZM39 24.9216V59.1548H73.2273V24.9216H39ZM74.0234 24.9216V59.1548H108.259V24.9216H74.0234ZM109.055 24.9216V59.1548H143.29V24.9216H109.055ZM144.086 24.9216V59.1548H178.321V24.9216H144.086ZM179.117 24.9216V59.1548H213.344V24.9216H179.117ZM214.141 24.9216V59.1548H248.376V24.9216H214.141ZM249.172 24.9216V59.1548H283.407V24.9216H249.172ZM284.203 24.9216V59.1548H318.438V24.9216H284.203ZM284.203 59.9509H318.438V94.1831H284.203V59.9509ZM249.172 59.9509H283.407V94.1831H249.172V59.9509ZM214.141 59.9509H248.376V94.1831H214.141V59.9509ZM179.117 59.9509H213.344V94.1831H179.117V59.9509ZM144.086 59.9509H178.321V94.1831H144.086V59.9509ZM109.055 59.9509H143.29V94.1831H109.055V59.9509ZM74.0234 59.9509H108.259V94.1831H74.0234V59.9509ZM39 59.9509H73.2273V94.1831H39V59.9509ZM3.96872 59.9509H38.2039V94.1831H3.96872V59.9509ZM-31.0625 59.9509H3.17261V94.1831H-31.0625V59.9509ZM-66.086 59.9509H-31.8586V94.1831H-66.086V59.9509ZM-101.117 59.9509H-66.8821V94.1831H-101.117V59.9509ZM-136.148 59.9509H-101.913V94.1831H-136.148L-136.148 59.9509ZM-171.18 59.9509H-136.945L-136.945 94.1831H-171.18L-171.18 59.9509ZM-206.203 59.9509H-171.976V94.1831H-206.203L-206.203 59.9509ZM-206.203 94.9792V129.212H-171.976V94.9792H-206.203ZM-171.18 94.9792V129.212H-136.945V94.9792H-171.18ZM-136.148 94.9792V129.212H-101.913V94.9792H-136.148ZM-101.117 94.9792V129.212H-66.8821V94.9792H-101.117ZM-66.086 94.9792V129.212H-31.8586V94.9792H-66.086ZM-31.0625 94.9792V129.212H3.17261V94.9792H-31.0625ZM3.96872 94.9792V129.212H38.2039V94.9792H3.96872ZM39 94.9792V129.212H73.2273V94.9792H39ZM74.0234 94.9792V129.212H108.259V94.9792H74.0234ZM109.055 94.9792V129.212H143.29V94.9792H109.055ZM144.086 94.9792V129.212H178.321V94.9792H144.086ZM179.117 94.9792V129.212H213.344V94.9792H179.117ZM214.141 94.9792V129.212H248.376V94.9792H214.141ZM249.172 94.9792V129.212H283.407V94.9792H249.172ZM284.203 94.9792V129.212H318.438V94.9792H284.203ZM284.203 130.009H318.438V164.242H284.203V130.009ZM249.172 130.009H283.407V164.242H249.172V130.009ZM214.141 130.009H248.376V164.242H214.141V130.009ZM179.117 130.009H213.344V164.242H179.117V130.009ZM144.086 130.009H178.321V164.242H144.086V130.009ZM109.055 130.009H143.29V164.242H109.055V130.009ZM74.0234 130.009H108.259V164.242H74.0234V130.009ZM39 130.009H73.2273V164.242H39V130.009ZM3.96872 130.009H38.2039V164.242H3.96872V130.009ZM-31.0625 130.009H3.17261V164.242H-31.0625V130.009ZM-66.086 130.009H-31.8586V164.242H-66.086V130.009ZM-101.117 130.009H-66.8821V164.242H-101.117V130.009ZM-136.148 130.009H-101.913V164.242H-136.148V130.009ZM-171.18 130.009H-136.945V164.242H-171.18V130.009ZM-206.203 130.009H-171.976V164.242H-206.203L-206.203 130.009ZM-206.203 165.038V199.271H-171.976V165.038H-206.203ZM-171.18 165.038V199.271H-136.945V165.038H-171.18ZM-136.148 165.038V199.271H-101.913V165.038H-136.148ZM-101.117 165.038V199.271H-66.8821V165.038H-101.117ZM-66.086 165.038V199.271H-31.8586V165.038H-66.086ZM-31.0625 165.038V199.271H3.17261V165.038H-31.0625ZM3.96872 165.038V199.271H38.2039V165.038H3.96872ZM39 165.038V199.271H73.2273V165.038H39ZM74.0234 165.038V199.271H108.259V165.038H74.0234ZM109.055 165.038V199.271H143.29V165.038H109.055ZM144.086 165.038V199.271H178.321V165.038H144.086ZM179.117 165.038V199.271H213.344V165.038H179.117ZM214.141 165.038V199.271H248.376V165.038H214.141ZM249.172 165.038V199.271H283.407V165.038H249.172ZM284.203 165.038V199.271H318.438V165.038H284.203ZM284.203 200.068H318.438V234.301H284.203V200.068ZM249.172 200.068H283.407V234.301H249.172V200.068ZM214.141 200.068H248.376V234.301H214.141V200.068ZM179.117 200.068H213.344V234.301H179.117V200.068ZM144.086 200.068H178.321V234.301H144.086V200.068ZM109.055 200.068H143.29V234.301H109.055V200.068ZM74.0234 200.068H108.259V234.301H74.0234V200.068ZM39 200.068H73.2273V234.301H39V200.068ZM3.96872 200.068H38.2039V234.301H3.96872V200.068ZM-31.0625 200.068H3.17261V234.301H-31.0625V200.068ZM-66.086 200.068H-31.8586V234.301H-66.086V200.068ZM-101.117 200.068H-66.8821V234.301H-101.117V200.068ZM-136.148 200.068H-101.913V234.301H-136.148V200.068ZM-171.18 200.068H-136.945V234.301H-171.18V200.068ZM-206.203 200.068H-171.976V234.301H-206.203L-206.203 200.068ZM-206.203 235.097V269.329H-171.976V235.097H-206.203ZM-171.18 235.097V269.329H-136.945V235.097H-171.18ZM-136.148 235.097V269.329H-101.913V235.097H-136.148ZM-101.117 235.097V269.329H-66.8821V235.097H-101.117ZM-66.086 235.097V269.329H-31.8586V235.097H-66.086ZM-31.0625 235.097V269.329H3.17261V235.097H-31.0625ZM3.96872 235.097V269.329H38.2039V235.097H3.96872ZM39 235.097V269.329H73.2273V235.097H39ZM74.0234 235.097V269.329H108.259V235.097H74.0234ZM109.055 235.097V269.329H143.29V235.097H109.055ZM144.086 235.097V269.329H178.321V235.097H144.086ZM179.117 235.097V269.329H213.344V235.097H179.117ZM214.141 235.097V269.329H248.376V235.097H214.141ZM249.172 235.097V269.329H283.407V235.097H249.172ZM284.203 235.097V269.329H318.438V235.097H284.203ZM284.203 270.125H318.438V304.358H284.203V270.125ZM249.172 270.125H283.407V304.358H249.172V270.125ZM214.141 270.125H248.376V304.358H214.141V270.125ZM179.117 270.125H213.344V304.358H179.117V270.125ZM144.086 270.125H178.321V304.358H144.086V270.125ZM109.055 270.125H143.29V304.358H109.055V270.125ZM74.0234 270.125H108.259V304.358H74.0234V270.125ZM39 270.125H73.2273V304.358H39V270.125ZM3.96872 270.125H38.2039V304.358H3.96872V270.125ZM-31.0625 270.125H3.17261V304.358H-31.0625V270.125ZM-66.086 270.125H-31.8586V304.358H-66.086V270.125ZM-101.117 270.125H-66.8821V304.358H-101.117V270.125ZM-136.148 270.125H-101.913V304.358H-136.148V270.125ZM-171.18 270.125H-136.945V304.358H-171.18V270.125ZM-206.203 270.125H-171.976V304.358H-206.203L-206.203 270.125ZM-206.203 305.155V339.388H-171.976V305.155H-206.203ZM-171.18 305.155V339.388H-136.945V305.155H-171.18ZM-136.148 305.155V339.388H-101.913V305.155H-136.148ZM-101.117 305.155V339.388H-66.8821V305.155H-101.117ZM-66.086 305.155V339.388H-31.8586V305.155H-66.086ZM-31.0625 305.155V339.388H3.17261V305.155H-31.0625ZM3.96872 305.155V339.388H38.2039V305.155H3.96872ZM39 305.155V339.388H73.2273V305.155H39ZM74.0234 305.155V339.388H108.259V305.155H74.0234ZM109.055 305.155V339.388H143.29V305.155H109.055ZM144.086 305.155V339.388H178.321V305.155H144.086ZM179.117 305.155V339.388H213.344V305.155H179.117ZM214.141 305.155V339.388H248.376V305.155H214.141ZM249.172 305.155V339.388H283.407V305.155H249.172ZM284.203 305.155V339.388H318.438V305.155H284.203ZM284.203 340.184H318.438V374.417H284.203V340.184ZM249.172 340.184H283.407V374.417H249.172V340.184ZM214.141 340.184H248.376V374.417H214.141V340.184ZM179.117 340.184H213.344V374.417H179.117V340.184ZM144.086 340.184H178.321V374.417H144.086V340.184ZM109.055 340.184H143.29V374.417H109.055V340.184ZM74.0234 340.184H108.259V374.417H74.0234V340.184ZM39 340.184H73.2273V374.417H39V340.184ZM3.96872 340.184H38.2039V374.417H3.96872V340.184ZM-31.0625 340.184H3.17261V374.417H-31.0625V340.184ZM-66.086 340.184H-31.8586V374.417H-66.086V340.184ZM-101.117 340.184H-66.8821V374.417H-101.117V340.184ZM-136.148 340.184H-101.913V374.417H-136.148V340.184ZM-171.18 340.184H-136.945V374.417H-171.18V340.184ZM-206.203 340.184H-171.976V374.417H-206.203V340.184ZM-206.203 375.213V409.446H-171.976V375.213H-206.203ZM-171.18 375.213V409.446H-136.945V375.213H-171.18ZM-136.148 375.213V409.446H-101.913V375.213H-136.148ZM-101.117 375.213V409.446H-66.8821V375.213H-101.117ZM-66.086 375.213V409.446H-31.8586V375.213H-66.086ZM-31.0625 375.213V409.446H3.17261V375.213H-31.0625ZM3.96872 375.213V409.446H38.2039V375.213H3.96872ZM39 375.213V409.446H73.2273V375.213H39ZM74.0234 375.213V409.446H108.259V375.213H74.0234ZM109.055 375.213V409.446H143.29V375.213H109.055ZM144.086 375.213V409.446H178.321V375.213H144.086ZM179.117 375.213V409.446H213.344V375.213H179.117ZM214.141 375.213V409.446H248.376V375.213H214.141ZM249.172 375.213V409.446H283.407V375.213H249.172ZM284.203 375.213V409.446H318.438V375.213H284.203Z" fill="url(#paint0_radial_1269_9450)"/>
<defs>
<radialGradient id="paint0_radial_1269_9450" cx="0" cy="0" r="1" gradientUnits="userSpaceOnUse" gradientTransform="translate(68 182.553) rotate(90) scale(255.553 328)">
<stop stop-color="#BABDC0"/>
<stop offset="1" stop-color="#00B852"/>
</radialGradient>
</defs>
</svg>
