<svg width="492" height="512" viewBox="0 0 492 512" fill="none" xmlns="http://www.w3.org/2000/svg">
<path fill-rule="evenodd" clip-rule="evenodd" d="M53.0007 463.213V497.446H0V498.242H53.0007V511.107H53.7969V498.242H88.0242V511.107H88.8203V498.242H123.055V511.107H123.852V498.242H158.087V511.107H158.883V498.242H193.118V511.107H193.914V498.242H228.141V511.107H228.937V498.242H263.173V511.107H263.969V498.242H298.204V511.107H299V498.242H333.227V511.107H334.023V498.242H368.259V511.107H369.055V498.242H403.29V511.107H404.086V498.242H438.321V511.107H439.117V498.242H473.344V511.107H474.141V498.242H508.376V511.107H509.172V498.242H543.407V511.107H544.203V498.242H578.438V511.107H579.234V498.242H656V497.446H579.234V463.213H656V462.417H579.234V428.184H656V427.388H579.234V393.155H656V392.358H579.234V358.125H656V357.329H579.234V323.097H656V322.301H579.234V288.068H656V287.271H579.234V253.038H656V252.242H579.234V218.009H656V217.212H579.234V182.979H656V182.183H579.234V147.951H656V147.155H579.234V112.922H656V112.125H579.234V77.8923H656V77.0962H579.234V42.863H656V42.0669H579.234V0H578.438V42.0669H544.203V0H543.407V42.0669H509.172L509.172 0H508.376L508.376 42.0669H474.141L474.141 0H473.345L473.344 42.0669H439.117L439.117 0H438.321L438.321 42.0669H404.086L404.086 0H403.29L403.29 42.0669H369.055L369.055 0H368.259L368.259 42.0669H334.023L334.023 0H333.227L333.227 42.0669H299L299 0H298.204L298.204 42.0669H263.969L263.969 0H263.173L263.173 42.0669H228.937L228.938 0H228.141L228.141 42.0669H193.914L193.914 0H193.118L193.118 42.0669H158.883L158.883 0H158.087L158.087 42.0669H123.852L123.852 0H123.055L123.055 42.0669H88.8203L88.8203 0H88.0242L88.0242 42.0669H53.7969L53.7969 0H53.0008L53.0008 42.0669H0V42.863H53.0008V77.0962H0V77.8923H53.0008L53.0008 112.125H0V112.922H53.0008V147.155H0V147.951H53.0008L53.0007 182.183H0V182.979H53.0007V217.212H0V218.009H53.0007L53.0007 252.242H0V253.038H53.0007V287.271H0V288.068H53.0007L53.0007 322.301H0V323.097H53.0007V357.329H0V358.125H53.0007L53.0007 392.358H0V393.155H53.0007V427.388H0V428.184H53.0007V462.417H0V463.213H53.0007ZM53.7969 42.863V77.0962H88.0242V42.863H53.7969ZM88.8203 42.863V77.0962H123.055V42.863H88.8203ZM123.852 42.863V77.0962H158.087V42.863H123.852ZM158.883 42.863V77.0962H193.118V42.863H158.883ZM193.914 42.863V77.0962H228.141V42.863H193.914ZM228.937 42.863V77.0962H263.173V42.863H228.937ZM263.969 42.863V77.0962H298.204V42.863H263.969ZM299 42.863V77.0962H333.227V42.863H299ZM334.023 42.863V77.0962H368.259V42.863H334.023ZM369.055 42.863V77.0962H403.29V42.863H369.055ZM404.086 42.863V77.0962H438.321V42.863H404.086ZM439.117 42.863V77.0962H473.344V42.863H439.117ZM474.141 42.863V77.0962H508.376V42.863H474.141ZM509.172 42.863V77.0962H543.407V42.863H509.172ZM544.203 42.863V77.0962H578.438V42.863H544.203ZM544.203 77.8923H578.438V112.125H544.203V77.8923ZM509.172 77.8923H543.407V112.125H509.172V77.8923ZM474.141 77.8923H508.376V112.125H474.141V77.8923ZM439.117 77.8923H473.344V112.125H439.117V77.8923ZM404.086 77.8923H438.321V112.125H404.086V77.8923ZM369.055 77.8923H403.29V112.125H369.055V77.8923ZM334.023 77.8923H368.259V112.125H334.023V77.8923ZM299 77.8923H333.227V112.125H299V77.8923ZM263.969 77.8923H298.204V112.125H263.969V77.8923ZM228.937 77.8923H263.173V112.125H228.937V77.8923ZM193.914 77.8923H228.141V112.125H193.914V77.8923ZM158.883 77.8923H193.118V112.125H158.883L158.883 77.8923ZM123.852 77.8923H158.087V112.125H123.852L123.852 77.8923ZM88.8203 77.8923H123.055L123.055 112.125H88.8203L88.8203 77.8923ZM53.7969 77.8923H88.0242L88.0242 112.125H53.7969L53.7969 77.8923ZM53.7969 112.922V147.155H88.0242V112.922H53.7969ZM88.8203 112.922V147.155H123.055V112.922H88.8203ZM123.852 112.922V147.155H158.087V112.922H123.852ZM158.883 112.922V147.155H193.118V112.922H158.883ZM193.914 112.922V147.155H228.141V112.922H193.914ZM228.937 112.922V147.155H263.173V112.922H228.937ZM263.969 112.922V147.155H298.204V112.922H263.969ZM299 112.922V147.155H333.227V112.922H299ZM334.023 112.922V147.155H368.259V112.922H334.023ZM369.055 112.922V147.155H403.29V112.922H369.055ZM404.086 112.922V147.155H438.321V112.922H404.086ZM439.117 112.922V147.155H473.344V112.922H439.117ZM474.141 112.922V147.155H508.376V112.922H474.141ZM509.172 112.922V147.155H543.407V112.922H509.172ZM544.203 112.922V147.155H578.438V112.922H544.203ZM544.203 147.951H578.438V182.183H544.203V147.951ZM509.172 147.951H543.407V182.183H509.172V147.951ZM474.141 147.951H508.376V182.183H474.141V147.951ZM439.117 147.951H473.344V182.183H439.117V147.951ZM404.086 147.951H438.321V182.183H404.086V147.951ZM369.055 147.951H403.29V182.183H369.055V147.951ZM334.023 147.951H368.259V182.183H334.023V147.951ZM299 147.951H333.227V182.183H299V147.951ZM263.969 147.951H298.204V182.183H263.969V147.951ZM228.937 147.951H263.173V182.183H228.937V147.951ZM193.914 147.951H228.141V182.183H193.914V147.951ZM158.883 147.951H193.118V182.183H158.883V147.951ZM123.852 147.951H158.087V182.183H123.852L123.852 147.951ZM88.8203 147.951H123.055L123.055 182.183H88.8203L88.8203 147.951ZM53.7969 147.951H88.0242V182.183H53.7969L53.7969 147.951ZM53.7969 182.979V217.212H88.0242V182.979H53.7969ZM88.8203 182.979V217.212H123.055V182.979H88.8203ZM123.852 182.979V217.212H158.087V182.979H123.852ZM158.883 182.979V217.212H193.118V182.979H158.883ZM193.914 182.979V217.212H228.141V182.979H193.914ZM228.937 182.979V217.212H263.173V182.979H228.937ZM263.969 182.979V217.212H298.204V182.979H263.969ZM299 182.979V217.212H333.227V182.979H299ZM334.023 182.979V217.212H368.259V182.979H334.023ZM369.055 182.979V217.212H403.29V182.979H369.055ZM404.086 182.979V217.212H438.321V182.979H404.086ZM439.117 182.979V217.212H473.344V182.979H439.117ZM474.141 182.979V217.212H508.376V182.979H474.141ZM509.172 182.979V217.212H543.407V182.979H509.172ZM544.203 182.979V217.212H578.438V182.979H544.203ZM544.203 218.009H578.438V252.242H544.203V218.009ZM509.172 218.009H543.407V252.242H509.172V218.009ZM474.141 218.009H508.376V252.242H474.141V218.009ZM439.117 218.009H473.344V252.242H439.117V218.009ZM404.086 218.009H438.321V252.242H404.086V218.009ZM369.055 218.009H403.29V252.242H369.055V218.009ZM334.023 218.009H368.259V252.242H334.023V218.009ZM299 218.009H333.227V252.242H299V218.009ZM263.969 218.009H298.204V252.242H263.969V218.009ZM228.937 218.009H263.173V252.242H228.937V218.009ZM193.914 218.009H228.141V252.242H193.914V218.009ZM158.883 218.009H193.118V252.242H158.883V218.009ZM123.852 218.009H158.087V252.242H123.852V218.009ZM88.8203 218.009H123.055V252.242H88.8203V218.009ZM53.7969 218.009H88.0242V252.242H53.7969L53.7969 218.009ZM53.7969 253.038V287.271H88.0242V253.038H53.7969ZM88.8203 253.038V287.271H123.055V253.038H88.8203ZM123.852 253.038V287.271H158.087V253.038H123.852ZM158.883 253.038V287.271H193.118V253.038H158.883ZM193.914 253.038V287.271H228.141V253.038H193.914ZM228.937 253.038V287.271H263.173V253.038H228.937ZM263.969 253.038V287.271H298.204V253.038H263.969ZM299 253.038V287.271H333.227V253.038H299ZM334.023 253.038V287.271H368.259V253.038H334.023ZM369.055 253.038V287.271H403.29V253.038H369.055ZM404.086 253.038V287.271H438.321V253.038H404.086ZM439.117 253.038V287.271H473.344V253.038H439.117ZM474.141 253.038V287.271H508.376V253.038H474.141ZM509.172 253.038V287.271H543.407V253.038H509.172ZM544.203 253.038V287.271H578.438V253.038H544.203ZM544.203 288.068H578.438V322.301H544.203V288.068ZM509.172 288.068H543.407V322.301H509.172V288.068ZM474.141 288.068H508.376V322.301H474.141V288.068ZM439.117 288.068H473.344V322.301H439.117V288.068ZM404.086 288.068H438.321V322.301H404.086V288.068ZM369.055 288.068H403.29V322.301H369.055V288.068ZM334.023 288.068H368.259V322.301H334.023V288.068ZM299 288.068H333.227V322.301H299V288.068ZM263.969 288.068H298.204V322.301H263.969V288.068ZM228.937 288.068H263.173V322.301H228.937V288.068ZM193.914 288.068H228.141V322.301H193.914V288.068ZM158.883 288.068H193.118V322.301H158.883V288.068ZM123.852 288.068H158.087V322.301H123.852V288.068ZM88.8203 288.068H123.055V322.301H88.8203V288.068ZM53.7969 288.068H88.0242V322.301H53.7969L53.7969 288.068ZM53.7969 323.097V357.329H88.0242V323.097H53.7969ZM88.8203 323.097V357.329H123.055V323.097H88.8203ZM123.852 323.097V357.329H158.087V323.097H123.852ZM158.883 323.097V357.329H193.118V323.097H158.883ZM193.914 323.097V357.329H228.141V323.097H193.914ZM228.937 323.097V357.329H263.173V323.097H228.937ZM263.969 323.097V357.329H298.204V323.097H263.969ZM299 323.097V357.329H333.227V323.097H299ZM334.023 323.097V357.329H368.259V323.097H334.023ZM369.055 323.097V357.329H403.29V323.097H369.055ZM404.086 323.097V357.329H438.321V323.097H404.086ZM439.117 323.097V357.329H473.344V323.097H439.117ZM474.141 323.097V357.329H508.376V323.097H474.141ZM509.172 323.097V357.329H543.407V323.097H509.172ZM544.203 323.097V357.329H578.438V323.097H544.203ZM544.203 358.125H578.438V392.358H544.203V358.125ZM509.172 358.125H543.407V392.358H509.172V358.125ZM474.141 358.125H508.376V392.358H474.141V358.125ZM439.117 358.125H473.344V392.358H439.117V358.125ZM404.086 358.125H438.321V392.358H404.086V358.125ZM369.055 358.125H403.29V392.358H369.055V358.125ZM334.023 358.125H368.259V392.358H334.023V358.125ZM299 358.125H333.227V392.358H299V358.125ZM263.969 358.125H298.204V392.358H263.969V358.125ZM228.937 358.125H263.173V392.358H228.937V358.125ZM193.914 358.125H228.141V392.358H193.914V358.125ZM158.883 358.125H193.118V392.358H158.883V358.125ZM123.852 358.125H158.087V392.358H123.852V358.125ZM88.8203 358.125H123.055V392.358H88.8203V358.125ZM53.7969 358.125H88.0242V392.358H53.7969L53.7969 358.125ZM53.7969 393.155V427.388H88.0242V393.155H53.7969ZM88.8203 393.155V427.388H123.055V393.155H88.8203ZM123.852 393.155V427.388H158.087V393.155H123.852ZM158.883 393.155V427.388H193.118V393.155H158.883ZM193.914 393.155V427.388H228.141V393.155H193.914ZM228.937 393.155V427.388H263.173V393.155H228.937ZM263.969 393.155V427.388H298.204V393.155H263.969ZM299 393.155V427.388H333.227V393.155H299ZM334.023 393.155V427.388H368.259V393.155H334.023ZM369.055 393.155V427.388H403.29V393.155H369.055ZM404.086 393.155V427.388H438.321V393.155H404.086ZM439.117 393.155V427.388H473.344V393.155H439.117ZM474.141 393.155V427.388H508.376V393.155H474.141ZM509.172 393.155V427.388H543.407V393.155H509.172ZM544.203 393.155V427.388H578.438V393.155H544.203ZM544.203 428.184H578.438V462.417H544.203V428.184ZM509.172 428.184H543.407V462.417H509.172V428.184ZM474.141 428.184H508.376V462.417H474.141V428.184ZM439.117 428.184H473.344V462.417H439.117V428.184ZM404.086 428.184H438.321V462.417H404.086V428.184ZM369.055 428.184H403.29V462.417H369.055V428.184ZM334.023 428.184H368.259V462.417H334.023V428.184ZM299 428.184H333.227V462.417H299V428.184ZM263.969 428.184H298.204V462.417H263.969V428.184ZM228.937 428.184H263.173V462.417H228.937V428.184ZM193.914 428.184H228.141V462.417H193.914V428.184ZM158.883 428.184H193.118V462.417H158.883V428.184ZM123.852 428.184H158.087V462.417H123.852V428.184ZM88.8203 428.184H123.055V462.417H88.8203V428.184ZM53.7969 428.184H88.0242V462.417H53.7969V428.184ZM53.7969 463.213V497.446H88.0242V463.213H53.7969ZM88.8203 463.213V497.446H123.055V463.213H88.8203ZM123.852 463.213V497.446H158.087V463.213H123.852ZM158.883 463.213V497.446H193.118V463.213H158.883ZM193.914 463.213V497.446H228.141V463.213H193.914ZM228.937 463.213V497.446H263.173V463.213H228.937ZM263.969 463.213V497.446H298.204V463.213H263.969ZM299 463.213V497.446H333.227V463.213H299ZM334.023 463.213V497.446H368.259V463.213H334.023ZM369.055 463.213V497.446H403.29V463.213H369.055ZM404.086 463.213V497.446H438.321V463.213H404.086ZM439.117 463.213V497.446H473.344V463.213H439.117ZM474.141 463.213V497.446H508.376V463.213H474.141ZM509.172 463.213V497.446H543.407V463.213H509.172ZM544.203 463.213V497.446H578.438V463.213H544.203Z" fill="url(#paint0_radial_1269_9483)"/>
<defs>
<radialGradient id="paint0_radial_1269_9483" cx="0" cy="0" r="1" gradientUnits="userSpaceOnUse" gradientTransform="translate(328 270.553) rotate(90) scale(255.553 328)">
<stop stop-color="#BABDC0"/>
<stop offset="1" stop-color="#00B852"/>
</radialGradient>
</defs>
</svg>
