<svg width="78" height="78" viewBox="0 0 78 78" fill="none" xmlns="http://www.w3.org/2000/svg">
<path d="M32.7823 4.94238H31.5977V7.90392H32.7823C34.7073 7.90392 36.3362 9.53277 36.3362 11.4578V24.6366C36.3362 32.3366 30.5612 39.0001 22.8612 39.4443C14.4208 40.0366 7.46118 33.3732 7.46118 25.0808V11.4578C7.46118 9.53277 9.09002 7.90392 11.015 7.90392H12.1996V4.94238H10.8669C7.3131 4.94238 4.35156 7.90392 4.35156 11.4578V24.6366C4.35156 33.6693 11.015 41.6655 20.1958 42.5539C30.5612 43.5905 39.2977 35.2982 39.2977 25.2289V11.4578C39.2977 7.75584 36.3362 4.94238 32.7823 4.94238Z" fill="#E5E6E6"/>
<path d="M39.4436 21.5266C38.9994 21.0824 38.4071 20.7863 37.8148 20.7863H37.3706C36.334 20.9343 35.4456 21.9709 35.4456 23.1555V24.9324C35.4456 32.4843 29.3744 38.5555 21.8225 38.5555H20.934C13.8263 38.1113 8.1994 31.892 8.1994 24.4882V23.0074C8.1994 21.6747 7.16286 20.6382 5.83017 20.6382C4.49748 20.6382 3.46094 21.6747 3.46094 23.0074V24.9324C3.46094 35.0016 11.6052 43.1459 21.6744 43.1459C22.2667 43.1459 22.859 43.1459 23.4513 42.9978C32.6321 42.1093 39.8879 33.9651 39.8879 24.3401V23.0074C40.0359 22.5632 39.8879 21.9709 39.4436 21.5266Z" fill="#52CC99"/>
<path d="M29.8209 9.3845C31.4565 9.3845 32.7825 8.05858 32.7825 6.42296C32.7825 4.78735 31.4565 3.46143 29.8209 3.46143C28.1853 3.46143 26.8594 4.78735 26.8594 6.42296C26.8594 8.05858 28.1853 9.3845 29.8209 9.3845Z" fill="#676767"/>
<path d="M13.8287 9.3845C15.4643 9.3845 16.7903 8.05858 16.7903 6.42296C16.7903 4.78735 15.4643 3.46143 13.8287 3.46143C12.1931 3.46143 10.8672 4.78735 10.8672 6.42296C10.8672 8.05858 12.1931 9.3845 13.8287 9.3845Z" fill="#676767"/>
<path d="M62.9832 13.2344C57.9486 13.2344 53.8024 16.4921 52.3216 20.9344C50.8409 16.4921 46.5466 13.2344 41.6601 13.2344C35.4409 13.2344 30.4062 18.269 30.4062 24.4882C30.4062 37.2228 52.4697 50.5498 52.4697 50.5498C52.4697 50.5498 74.5332 37.519 74.5332 24.4882C74.3851 18.269 69.3505 13.2344 62.9832 13.2344Z" fill="#72ECB9"/>
<path d="M62.1014 29.8193V53.5116C62.1014 65.0616 52.7726 74.3905 41.2226 74.3905C29.6726 74.3905 20.3438 65.0616 20.3438 53.5116V43.1463H23.3053V53.5116C23.3053 63.4328 31.3014 71.429 41.2226 71.429C51.1438 71.429 59.1399 63.4328 59.1399 53.5116V29.8193H62.1014Z" fill="#0A8D12"/>
<path d="M60.4727 38.1114C64.8889 38.1114 68.4689 34.5314 68.4689 30.1153C68.4689 25.6991 64.8889 22.1191 60.4727 22.1191C56.0566 22.1191 52.4766 25.6991 52.4766 30.1153C52.4766 34.5314 56.0566 38.1114 60.4727 38.1114Z" fill="#E5E6E6"/>
<path d="M60.475 33.9656C62.6013 33.9656 64.325 32.2419 64.325 30.1156C64.325 27.9893 62.6013 26.2656 60.475 26.2656C58.3487 26.2656 56.625 27.9893 56.625 30.1156C56.625 32.2419 58.3487 33.9656 60.475 33.9656Z" fill="#CCCDCD"/>
</svg>
