<svg width="395" height="115" viewBox="0 0 395 115" fill="none" xmlns="http://www.w3.org/2000/svg">
<g filter="url(#filter0_d_3030_153)">
<rect x="41.5" y="37" width="312" height="33" rx="16.5" fill="#1F2327" shape-rendering="crispEdges"/>
<rect x="42" y="37.5" width="311" height="32" rx="16" stroke="#FFCA28" shape-rendering="crispEdges"/>
<path d="M54.396 54.758H55.726L56.076 53.022H54.536L54.858 51.426H56.384L56.902 48.766H58.596L58.078 51.426H59.856L60.374 48.766H62.068L61.55 51.426H62.992L62.67 53.022H61.242L60.906 54.758H62.502L62.18 56.354H60.598L60.08 59H58.386L58.904 56.354H57.112L56.594 59H54.9L55.418 56.354H54.074L54.396 54.758ZM57.42 54.758H59.212L59.548 53.022H57.77L57.42 54.758ZM66.2785 50.376H64.0385V48.766H68.0005V59H66.2785V50.376ZM87.1595 53.876C87.1595 56.984 85.1155 59.168 82.1755 59.168C79.2495 59.168 77.2335 56.998 77.2335 53.876C77.2335 50.768 79.2635 48.584 82.1895 48.584C85.1155 48.584 87.1595 50.754 87.1595 53.876ZM85.2695 53.876C85.2695 51.692 84.0655 50.306 82.1895 50.306C80.3135 50.306 79.1095 51.692 79.1095 53.876C79.1095 56.06 80.3135 57.446 82.1895 57.446C84.0655 57.446 85.2695 56.032 85.2695 53.876ZM90.2834 59H88.5754V52.084H90.1574L90.2974 52.98C90.7314 52.28 91.5714 51.874 92.5094 51.874C94.2454 51.874 95.1414 52.952 95.1414 54.744V59H93.4334V55.15C93.4334 53.988 92.8594 53.428 91.9774 53.428C90.9274 53.428 90.2834 54.156 90.2834 55.276V59ZM99.9135 59.182C97.8555 59.182 96.4135 57.684 96.4135 55.542C96.4135 53.372 97.8275 51.874 99.8575 51.874C101.93 51.874 103.246 53.26 103.246 55.416V55.934L98.0375 55.948C98.1635 57.166 98.8075 57.782 99.9415 57.782C100.88 57.782 101.496 57.418 101.692 56.76H103.274C102.98 58.272 101.72 59.182 99.9135 59.182ZM99.8715 53.274C98.8635 53.274 98.2475 53.82 98.0795 54.856H101.552C101.552 53.904 100.894 53.274 99.8715 53.274ZM107.854 56.9H109.478C109.492 57.502 109.94 57.88 110.724 57.88C111.522 57.88 111.956 57.558 111.956 57.054C111.956 56.704 111.774 56.452 111.158 56.312L109.912 56.018C108.666 55.738 108.064 55.15 108.064 54.044C108.064 52.686 109.212 51.874 110.808 51.874C112.362 51.874 113.412 52.77 113.426 54.114H111.802C111.788 53.526 111.396 53.148 110.738 53.148C110.066 53.148 109.674 53.456 109.674 53.974C109.674 54.366 109.982 54.618 110.57 54.758L111.816 55.052C112.978 55.318 113.566 55.85 113.566 56.914C113.566 58.314 112.376 59.182 110.668 59.182C108.946 59.182 107.854 58.258 107.854 56.9ZM117.218 59H115.51V53.512H114.18V52.084H115.51V49.928H117.218V52.084H118.562V53.512H117.218V59ZM119.15 55.528C119.15 53.372 120.704 51.888 122.846 51.888C124.988 51.888 126.542 53.372 126.542 55.528C126.542 57.684 124.988 59.168 122.846 59.168C120.704 59.168 119.15 57.684 119.15 55.528ZM120.858 55.528C120.858 56.788 121.67 57.642 122.846 57.642C124.022 57.642 124.834 56.788 124.834 55.528C124.834 54.268 124.022 53.414 122.846 53.414C121.67 53.414 120.858 54.268 120.858 55.528ZM127.896 62.206V52.084H129.478L129.59 53.134C130.01 52.336 130.92 51.874 131.97 51.874C133.916 51.874 135.204 53.288 135.204 55.458C135.204 57.614 134.028 59.182 131.97 59.182C130.934 59.182 130.038 58.776 129.604 58.076V62.206H127.896ZM129.618 55.542C129.618 56.788 130.388 57.642 131.564 57.642C132.768 57.642 133.482 56.774 133.482 55.542C133.482 54.31 132.768 53.428 131.564 53.428C130.388 53.428 129.618 54.296 129.618 55.542ZM139.805 56.9H141.429C141.443 57.502 141.891 57.88 142.675 57.88C143.473 57.88 143.907 57.558 143.907 57.054C143.907 56.704 143.725 56.452 143.109 56.312L141.863 56.018C140.617 55.738 140.015 55.15 140.015 54.044C140.015 52.686 141.163 51.874 142.759 51.874C144.313 51.874 145.363 52.77 145.377 54.114H143.753C143.739 53.526 143.347 53.148 142.689 53.148C142.017 53.148 141.625 53.456 141.625 53.974C141.625 54.366 141.933 54.618 142.521 54.758L143.767 55.052C144.929 55.318 145.517 55.85 145.517 56.914C145.517 58.314 144.327 59.182 142.619 59.182C140.897 59.182 139.805 58.258 139.805 56.9ZM146.412 55.528C146.412 53.372 147.966 51.888 150.108 51.888C152.25 51.888 153.804 53.372 153.804 55.528C153.804 57.684 152.25 59.168 150.108 59.168C147.966 59.168 146.412 57.684 146.412 55.528ZM148.12 55.528C148.12 56.788 148.932 57.642 150.108 57.642C151.284 57.642 152.096 56.788 152.096 55.528C152.096 54.268 151.284 53.414 150.108 53.414C148.932 53.414 148.12 54.268 148.12 55.528ZM156.879 59H155.185V48.584H156.879V59ZM163.361 52.084H165.069V59H163.487L163.361 58.076C162.941 58.734 162.045 59.182 161.121 59.182C159.525 59.182 158.587 58.104 158.587 56.41V52.084H160.295V55.808C160.295 57.124 160.813 57.656 161.765 57.656C162.843 57.656 163.361 57.026 163.361 55.71V52.084ZM169.185 59H167.477V53.512H166.147V52.084H167.477V49.928H169.185V52.084H170.529V53.512H169.185V59ZM172.445 50.698C171.857 50.698 171.395 50.236 171.395 49.662C171.395 49.088 171.857 48.64 172.445 48.64C173.005 48.64 173.467 49.088 173.467 49.662C173.467 50.236 173.005 50.698 172.445 50.698ZM171.591 59V52.084H173.299V59H171.591ZM174.658 55.528C174.658 53.372 176.212 51.888 178.354 51.888C180.496 51.888 182.05 53.372 182.05 55.528C182.05 57.684 180.496 59.168 178.354 59.168C176.212 59.168 174.658 57.684 174.658 55.528ZM176.366 55.528C176.366 56.788 177.178 57.642 178.354 57.642C179.53 57.642 180.342 56.788 180.342 55.528C180.342 54.268 179.53 53.414 178.354 53.414C177.178 53.414 176.366 54.268 176.366 55.528ZM185.111 59H183.403V52.084H184.985L185.125 52.98C185.559 52.28 186.399 51.874 187.337 51.874C189.073 51.874 189.969 52.952 189.969 54.744V59H188.261V55.15C188.261 53.988 187.687 53.428 186.805 53.428C185.755 53.428 185.111 54.156 185.111 55.276V59ZM194.735 52.084H195.729V51.244C195.729 49.368 196.723 48.584 198.221 48.584C198.487 48.584 198.809 48.598 199.103 48.654V50.11H198.501C197.633 50.11 197.423 50.558 197.423 51.244V52.084H199.075V53.512H197.423V59H195.729V53.512H194.735V52.084ZM199.554 55.528C199.554 53.372 201.108 51.888 203.25 51.888C205.392 51.888 206.946 53.372 206.946 55.528C206.946 57.684 205.392 59.168 203.25 59.168C201.108 59.168 199.554 57.684 199.554 55.528ZM201.262 55.528C201.262 56.788 202.074 57.642 203.25 57.642C204.426 57.642 205.238 56.788 205.238 55.528C205.238 54.268 204.426 53.414 203.25 53.414C202.074 53.414 201.262 54.268 201.262 55.528ZM212.64 52.056V53.638H212.01C210.778 53.638 210.008 54.296 210.008 55.64V59H208.3V52.098H209.91L210.008 53.106C210.302 52.42 210.96 51.958 211.884 51.958C212.122 51.958 212.36 51.986 212.64 52.056ZM216.968 62.206V60.778H217.99C218.662 60.778 219.082 60.624 219.376 59.812L219.572 59.294L216.786 52.084H218.592L220.37 57.124L222.246 52.084H224.01L220.622 60.54C220.104 61.828 219.376 62.36 218.242 62.36C217.766 62.36 217.346 62.304 216.968 62.206ZM224.259 55.528C224.259 53.372 225.813 51.888 227.955 51.888C230.097 51.888 231.651 53.372 231.651 55.528C231.651 57.684 230.097 59.168 227.955 59.168C225.813 59.168 224.259 57.684 224.259 55.528ZM225.967 55.528C225.967 56.788 226.779 57.642 227.955 57.642C229.131 57.642 229.943 56.788 229.943 55.528C229.943 54.268 229.131 53.414 227.955 53.414C226.779 53.414 225.967 54.268 225.967 55.528ZM237.531 52.084H239.239V59H237.657L237.531 58.076C237.111 58.734 236.215 59.182 235.291 59.182C233.695 59.182 232.757 58.104 232.757 56.41V52.084H234.465V55.808C234.465 57.124 234.983 57.656 235.935 57.656C237.013 57.656 237.531 57.026 237.531 55.71V52.084ZM245.343 52.056V53.638H244.713C243.481 53.638 242.711 54.296 242.711 55.64V59H241.003V52.098H242.613L242.711 53.106C243.005 52.42 243.663 51.958 244.587 51.958C244.825 51.958 245.063 51.986 245.343 52.056ZM249.629 50.418V48.766H257.413V50.418H254.417V59H252.625V50.418H249.629ZM262.036 52.056V53.638H261.406C260.174 53.638 259.404 54.296 259.404 55.64V59H257.696V52.098H259.306L259.404 53.106C259.698 52.42 260.356 51.958 261.28 51.958C261.518 51.958 261.756 51.986 262.036 52.056ZM264.977 59.182C263.507 59.182 262.611 58.328 262.611 57.026C262.611 55.752 263.535 54.954 265.173 54.828L267.245 54.674V54.52C267.245 53.582 266.685 53.204 265.817 53.204C264.809 53.204 264.249 53.624 264.249 54.352H262.793C262.793 52.854 264.025 51.874 265.901 51.874C267.763 51.874 268.911 52.882 268.911 54.8V59H267.413L267.287 57.978C266.993 58.692 266.055 59.182 264.977 59.182ZM265.537 57.894C266.587 57.894 267.259 57.264 267.259 56.2V55.836L265.817 55.948C264.753 56.046 264.347 56.396 264.347 56.956C264.347 57.586 264.767 57.894 265.537 57.894ZM273.431 59.182C271.429 59.182 270.183 57.712 270.183 55.57C270.183 53.414 271.443 51.874 273.529 51.874C274.495 51.874 275.349 52.28 275.783 52.966V48.584H277.477V59H275.909L275.797 57.922C275.377 58.72 274.481 59.182 273.431 59.182ZM273.809 57.614C274.999 57.614 275.769 56.76 275.769 55.514C275.769 54.268 274.999 53.4 273.809 53.4C272.619 53.4 271.891 54.282 271.891 55.514C271.891 56.746 272.619 57.614 273.809 57.614ZM280.111 50.698C279.523 50.698 279.061 50.236 279.061 49.662C279.061 49.088 279.523 48.64 280.111 48.64C280.671 48.64 281.133 49.088 281.133 49.662C281.133 50.236 280.671 50.698 280.111 50.698ZM279.257 59V52.084H280.965V59H279.257ZM284.438 59H282.73V52.084H284.312L284.452 52.98C284.886 52.28 285.726 51.874 286.664 51.874C288.4 51.874 289.296 52.952 289.296 54.744V59H287.588V55.15C287.588 53.988 287.014 53.428 286.132 53.428C285.082 53.428 284.438 54.156 284.438 55.276V59ZM290.582 55.388C290.582 53.372 291.898 51.86 293.872 51.86C294.908 51.86 295.72 52.294 296.126 53.036L296.224 52.084H297.806V58.65C297.806 60.96 296.42 62.402 294.18 62.402C292.192 62.402 290.834 61.268 290.624 59.42H292.332C292.444 60.316 293.13 60.848 294.18 60.848C295.356 60.848 296.112 60.106 296.112 58.958V57.81C295.678 58.454 294.824 58.86 293.83 58.86C291.87 58.86 290.582 57.39 290.582 55.388ZM292.304 55.346C292.304 56.508 293.046 57.376 294.166 57.376C295.342 57.376 296.07 56.55 296.07 55.346C296.07 54.17 295.356 53.358 294.166 53.358C293.032 53.358 292.304 54.212 292.304 55.346ZM305.055 59H303.347V52.084H304.929L305.069 52.98C305.503 52.28 306.343 51.874 307.281 51.874C309.017 51.874 309.913 52.952 309.913 54.744V59H308.205V55.15C308.205 53.988 307.631 53.428 306.749 53.428C305.699 53.428 305.055 54.156 305.055 55.276V59ZM314.685 59.182C312.627 59.182 311.185 57.684 311.185 55.542C311.185 53.372 312.599 51.874 314.629 51.874C316.701 51.874 318.017 53.26 318.017 55.416V55.934L312.809 55.948C312.935 57.166 313.579 57.782 314.713 57.782C315.651 57.782 316.267 57.418 316.463 56.76H318.045C317.751 58.272 316.491 59.182 314.685 59.182ZM314.643 53.274C313.635 53.274 313.019 53.82 312.851 54.856H316.323C316.323 53.904 315.665 53.274 314.643 53.274ZM322.478 59.182C320.42 59.182 318.978 57.684 318.978 55.542C318.978 53.372 320.392 51.874 322.422 51.874C324.494 51.874 325.81 53.26 325.81 55.416V55.934L320.602 55.948C320.728 57.166 321.372 57.782 322.506 57.782C323.444 57.782 324.06 57.418 324.256 56.76H325.838C325.544 58.272 324.284 59.182 322.478 59.182ZM322.436 53.274C321.428 53.274 320.812 53.82 320.644 54.856H324.116C324.116 53.904 323.458 53.274 322.436 53.274ZM330.019 59.182C328.017 59.182 326.771 57.712 326.771 55.57C326.771 53.414 328.031 51.874 330.117 51.874C331.083 51.874 331.937 52.28 332.371 52.966V48.584H334.065V59H332.497L332.385 57.922C331.965 58.72 331.069 59.182 330.019 59.182ZM330.397 57.614C331.587 57.614 332.357 56.76 332.357 55.514C332.357 54.268 331.587 53.4 330.397 53.4C329.207 53.4 328.479 54.282 328.479 55.514C328.479 56.746 329.207 57.614 330.397 57.614ZM335.313 56.9H336.937C336.951 57.502 337.399 57.88 338.183 57.88C338.981 57.88 339.415 57.558 339.415 57.054C339.415 56.704 339.233 56.452 338.617 56.312L337.371 56.018C336.125 55.738 335.523 55.15 335.523 54.044C335.523 52.686 336.671 51.874 338.267 51.874C339.821 51.874 340.871 52.77 340.885 54.114H339.261C339.247 53.526 338.855 53.148 338.197 53.148C337.525 53.148 337.133 53.456 337.133 53.974C337.133 54.366 337.441 54.618 338.029 54.758L339.275 55.052C340.437 55.318 341.025 55.85 341.025 56.914C341.025 58.314 339.835 59.182 338.127 59.182C336.405 59.182 335.313 58.258 335.313 56.9Z" fill="url(#paint0_linear_3030_153)"/>
</g>
<defs>
<filter id="filter0_d_3030_153" x="0.900002" y="0.400002" width="393.2" height="114.2" filterUnits="userSpaceOnUse" color-interpolation-filters="sRGB">
<feFlood flood-opacity="0" result="BackgroundImageFix"/>
<feColorMatrix in="SourceAlpha" type="matrix" values="0 0 0 0 0 0 0 0 0 0 0 0 0 0 0 0 0 0 127 0" result="hardAlpha"/>
<feOffset dy="4"/>
<feGaussianBlur stdDeviation="20.3"/>
<feComposite in2="hardAlpha" operator="out"/>
<feColorMatrix type="matrix" values="0 0 0 0 1 0 0 0 0 1 0 0 0 0 1 0 0 0 0.08 0"/>
<feBlend mode="normal" in2="BackgroundImageFix" result="effect1_dropShadow_3030_153"/>
<feBlend mode="normal" in="SourceGraphic" in2="effect1_dropShadow_3030_153" result="shape"/>
</filter>
<linearGradient id="paint0_linear_3030_153" x1="197.5" y1="44" x2="197.5" y2="63" gradientUnits="userSpaceOnUse">
<stop stop-color="#FFCA28"/>
<stop offset="1" stop-color="#997918"/>
</linearGradient>
</defs>
</svg>
