<svg width="68" height="67" viewBox="0 0 68 67" fill="none" xmlns="http://www.w3.org/2000/svg">
<g clip-path="url(#clip0_3308_396)">
<path d="M41.9249 0.936536L4.11328 47.769L4.43383 48.0285L42.2455 1.19607L41.9249 0.936536Z" fill="url(#paint0_linear_3308_396)"/>
<path d="M52.2329 5.51244L10.7344 56.9114L11.0549 57.1709L52.5535 5.77197L52.2329 5.51244Z" fill="url(#paint1_linear_3308_396)"/>
<path d="M65.6254 23.6195L31.2227 66.2298L31.5432 66.4893L65.9459 23.879L65.6254 23.6195Z" fill="url(#paint2_linear_3308_396)"/>
<path d="M28.3427 0.412723L0.757812 34.5786L1.07836 34.8381L28.6632 0.672257L28.3427 0.412723Z" fill="url(#paint3_linear_3308_396)"/>
<path d="M60.199 12.9887L19.6953 63.1554L20.0159 63.4149L60.5195 13.2482L60.199 12.9887Z" fill="url(#paint4_linear_3308_396)"/>
<path d="M66.266 40.1715L47.5117 63.4001L47.8323 63.6596L66.5866 40.431L66.266 40.1715Z" fill="url(#paint5_linear_3308_396)"/>
<path d="M18.7836 3.57973L1.84766 24.5561L2.16821 24.8156L19.1041 3.83927L18.7836 3.57973Z" fill="url(#paint6_linear_3308_396)"/>
<path d="M47.3975 2.83356L7.11328 52.7285L7.43383 52.988L47.718 3.09309L47.3975 2.83356Z" fill="url(#paint7_linear_3308_396)"/>
<path d="M56.5071 8.89854L14.9375 60.3855L15.2581 60.645L56.8277 9.15807L56.5071 8.89854Z" fill="url(#paint8_linear_3308_396)"/>
<path d="M66.9244 30.6876L38.3906 66.0288L38.7112 66.2883L67.245 30.9472L66.9244 30.6876Z" fill="url(#paint9_linear_3308_396)"/>
<path d="M35.6755 -0.000729963L1.87891 41.8588L2.19946 42.1183L35.9961 0.258804L35.6755 -0.000729963Z" fill="url(#paint10_linear_3308_396)"/>
<path d="M63.2863 17.8438L25.0859 65.1577L25.4065 65.4172L63.6069 18.1033L63.2863 17.8438Z" fill="url(#paint11_linear_3308_396)"/>
<path d="M26.8612 47.7584C26.6595 47.4415 26.3138 47.2398 25.824 47.1534C25.3342 47.0669 24.5851 47.0525 23.5768 47.1102C23.1734 47.1678 22.7557 47.139 22.3235 47.0237C21.8913 46.9085 21.5456 46.7356 21.2863 46.5051C21.027 46.2746 20.9262 46.0442 20.9838 45.8137C21.0126 45.4679 21.416 45.0934 22.1938 44.6901C22.9717 44.2867 23.9801 44.0706 25.219 44.0418L27.0341 43.9986L27.4662 43.1343C27.5815 42.8174 27.6679 42.4716 27.7255 42.0971C27.812 41.7225 27.956 41.2039 28.1577 40.5413C28.2729 40.1379 28.4458 39.5761 28.6763 38.8559C28.9068 38.1356 29.1517 37.3721 29.411 36.5654C29.6703 35.7299 29.9007 34.9808 30.1024 34.3182C30.3041 33.6555 30.4337 33.1945 30.4914 32.9352C30.6066 32.6759 30.7651 32.2438 30.9667 31.6388C31.1684 31.0049 31.3557 30.3711 31.5285 29.7372C31.7302 29.0746 31.8599 28.5992 31.9175 28.3111C32.6666 26.0351 33.1564 24.4505 33.3868 23.5573C33.6173 22.6354 33.675 22.16 33.5597 22.1312C33.4445 22.1312 33.1708 22.1456 32.7386 22.1744C32.3064 22.2032 31.8311 22.2464 31.3125 22.3041C30.7939 22.3329 30.3329 22.3761 29.9295 22.4337C29.5262 22.4913 29.2813 22.5489 29.1949 22.6066C29.0508 22.8082 28.8059 22.7794 28.4602 22.5201C28.1145 22.232 27.8984 21.9439 27.812 21.6558C27.7831 21.3965 27.7831 21.1516 27.812 20.9211C27.8408 20.6906 27.9272 20.5322 28.0713 20.4458C28.2729 20.2729 28.6907 20.0856 29.3245 19.8839C29.9584 19.6535 30.6642 19.4518 31.4421 19.2789C32.2488 19.1061 32.9835 18.9764 33.6461 18.89C34.1359 18.8324 34.6257 18.7315 35.1155 18.5875C35.6053 18.4146 35.9942 18.2129 36.2823 17.9824C36.5416 17.896 36.7865 17.824 37.017 17.7663C37.2763 17.7087 37.5356 17.6943 37.7949 17.7231C38.0254 17.8672 38.4143 17.9392 38.9617 17.9392C39.538 17.9392 40.143 17.9248 40.7768 17.896C42.3902 17.7519 43.5138 17.8096 44.1477 18.0689C44.8103 18.2994 45.2425 18.6163 45.4442 19.0196C45.5882 19.567 45.5594 20.028 45.3577 20.4025C45.1561 20.7483 44.8103 20.9067 44.3206 20.8779C44.0613 20.9355 43.7011 20.9932 43.2401 21.0508C42.7792 21.0796 42.1741 21.1084 41.4251 21.1372C39.5236 21.3101 38.5008 21.5118 38.3567 21.7422C38.2415 21.8575 38.1406 21.9727 38.0542 22.088C37.9966 22.2032 37.9101 22.3329 37.7949 22.4769C37.8237 22.5922 37.7517 22.9379 37.5788 23.5141C37.4348 24.0615 37.2475 24.6521 37.017 25.286C36.9018 25.6605 36.7289 26.1935 36.4984 26.885C36.2679 27.5764 36.023 28.2967 35.7637 29.0458C35.5333 29.7661 35.3172 30.4287 35.1155 31.0337C34.9138 31.6099 34.7698 31.9989 34.6833 32.2006C34.5681 32.4599 34.4673 32.748 34.3808 33.0649C34.3232 33.353 34.28 33.5691 34.2512 33.7131C33.8478 35.1249 33.5021 36.3061 33.214 37.2569C32.9547 38.2076 32.7242 39.0431 32.5225 39.7634C32.3208 40.4549 32.1336 41.1319 31.9607 41.7946C31.7878 42.4284 31.5862 43.1487 31.3557 43.9554C31.3557 43.9554 31.6006 43.941 32.0904 43.9122C32.5801 43.8545 33.1996 43.7969 33.9487 43.7393C35.3028 43.5952 36.2247 43.5088 36.7145 43.48C37.2043 43.4512 37.4924 43.4944 37.5788 43.6096C37.6653 43.6961 37.7517 43.8689 37.8381 44.1282C38.4143 44.9061 38.3711 45.5544 37.7085 46.073C37.0746 46.5916 35.951 46.8365 34.3376 46.8076C32.8394 46.8653 31.7302 46.9085 31.01 46.9373C30.3185 46.9949 29.8719 47.0669 29.6703 47.1534C29.4686 47.2398 29.3677 47.3839 29.3677 47.5855C29.3965 48.0465 29.1084 48.3202 28.5034 48.4066C27.9272 48.5219 27.3798 48.3058 26.8612 47.7584Z" fill="#DA7DFC"/>
</g>
<defs>
<linearGradient id="paint0_linear_3308_396" x1="23.0191" y1="24.3528" x2="23.34" y2="24.6119" gradientUnits="userSpaceOnUse">
<stop/>
<stop offset="1" stop-color="white" stop-opacity="0"/>
</linearGradient>
<linearGradient id="paint1_linear_3308_396" x1="31.4836" y1="31.2119" x2="31.8046" y2="31.471" gradientUnits="userSpaceOnUse">
<stop/>
<stop offset="1" stop-color="white" stop-opacity="0"/>
</linearGradient>
<linearGradient id="paint2_linear_3308_396" x1="48.424" y1="44.9246" x2="48.7449" y2="45.1837" gradientUnits="userSpaceOnUse">
<stop/>
<stop offset="1" stop-color="white" stop-opacity="0"/>
</linearGradient>
<linearGradient id="paint3_linear_3308_396" x1="14.5503" y1="17.4957" x2="14.8712" y2="17.7547" gradientUnits="userSpaceOnUse">
<stop/>
<stop offset="1" stop-color="white" stop-opacity="0"/>
</linearGradient>
<linearGradient id="paint4_linear_3308_396" x1="39.9471" y1="38.072" x2="40.2681" y2="38.3311" gradientUnits="userSpaceOnUse">
<stop/>
<stop offset="1" stop-color="white" stop-opacity="0"/>
</linearGradient>
<linearGradient id="paint5_linear_3308_396" x1="56.8889" y1="51.7858" x2="57.2098" y2="52.0449" gradientUnits="userSpaceOnUse">
<stop/>
<stop offset="1" stop-color="white" stop-opacity="0"/>
</linearGradient>
<linearGradient id="paint6_linear_3308_396" x1="10.3156" y1="14.0679" x2="10.6365" y2="14.327" gradientUnits="userSpaceOnUse">
<stop/>
<stop offset="1" stop-color="white" stop-opacity="0"/>
</linearGradient>
<linearGradient id="paint7_linear_3308_396" x1="27.2554" y1="27.781" x2="27.5763" y2="28.0401" gradientUnits="userSpaceOnUse">
<stop/>
<stop offset="1" stop-color="white" stop-opacity="0"/>
</linearGradient>
<linearGradient id="paint8_linear_3308_396" x1="35.7223" y1="34.642" x2="36.0432" y2="34.9011" gradientUnits="userSpaceOnUse">
<stop/>
<stop offset="1" stop-color="white" stop-opacity="0"/>
</linearGradient>
<linearGradient id="paint9_linear_3308_396" x1="52.6575" y1="48.3582" x2="52.9784" y2="48.6173" gradientUnits="userSpaceOnUse">
<stop/>
<stop offset="1" stop-color="white" stop-opacity="0"/>
</linearGradient>
<linearGradient id="paint10_linear_3308_396" x1="18.7772" y1="20.929" x2="19.0981" y2="21.1881" gradientUnits="userSpaceOnUse">
<stop/>
<stop offset="1" stop-color="white" stop-opacity="0"/>
</linearGradient>
<linearGradient id="paint11_linear_3308_396" x1="44.1861" y1="41.5007" x2="44.507" y2="41.7598" gradientUnits="userSpaceOnUse">
<stop/>
<stop offset="1" stop-color="white" stop-opacity="0"/>
</linearGradient>
<clipPath id="clip0_3308_396">
<rect width="66.4865" height="66.4865" fill="white" transform="translate(0.757812)"/>
</clipPath>
</defs>
</svg>
