<svg width="15" height="15" viewBox="0 0 15 15" fill="none" xmlns="http://www.w3.org/2000/svg">
<path d="M10.6153 3.5154C10.4769 3.5154 10.3415 3.55646 10.2264 3.63338C10.1113 3.71029 10.0216 3.81962 9.96861 3.94753C9.91563 4.07543 9.90177 4.21618 9.92878 4.35197C9.95579 4.48775 10.0225 4.61248 10.1204 4.71038C10.2182 4.80828 10.343 4.87494 10.4788 4.90195C10.6145 4.92896 10.7553 4.9151 10.8832 4.86212C11.0111 4.80914 11.1204 4.71942 11.1974 4.6043C11.2743 4.48919 11.3153 4.35385 11.3153 4.2154C11.3153 4.02975 11.2416 3.8517 11.1103 3.72043C10.979 3.58915 10.801 3.5154 10.6153 3.5154ZM13.2987 4.92707C13.2873 4.44308 13.1967 3.96422 13.0303 3.50957C12.882 3.12056 12.6512 2.76832 12.3537 2.47707C12.0648 2.17807 11.7117 1.94867 11.3212 1.80624C10.8677 1.63483 10.3883 1.54211 9.90366 1.53207C9.28533 1.49707 9.08699 1.49707 7.50033 1.49707C5.91366 1.49707 5.71533 1.49707 5.09699 1.53207C4.61233 1.54211 4.13294 1.63483 3.67949 1.80624C3.28964 1.95012 2.93687 2.17931 2.64699 2.47707C2.34799 2.76592 2.1186 3.11899 1.97616 3.50957C1.80475 3.96302 1.71203 4.44241 1.70199 4.92707C1.66699 5.5454 1.66699 5.74374 1.66699 7.3304C1.66699 8.91707 1.66699 9.1154 1.70199 9.73374C1.71203 10.2184 1.80475 10.6978 1.97616 11.1512C2.1186 11.5418 2.34799 11.8949 2.64699 12.1837C2.93687 12.4815 3.28964 12.7107 3.67949 12.8546C4.13294 13.026 4.61233 13.1187 5.09699 13.1287C5.71533 13.1637 5.91366 13.1637 7.50033 13.1637C9.08699 13.1637 9.28533 13.1637 9.90366 13.1287C10.3883 13.1187 10.8677 13.026 11.3212 12.8546C11.7117 12.7121 12.0648 12.4827 12.3537 12.1837C12.6525 11.8936 12.8835 11.541 13.0303 11.1512C13.1967 10.6966 13.2873 10.2177 13.2987 9.73374C13.2987 9.1154 13.3337 8.91707 13.3337 7.3304C13.3337 5.74374 13.3337 5.5454 13.2987 4.92707ZM12.2487 9.66374C12.2444 10.034 12.1773 10.4009 12.0503 10.7487C11.9572 11.0026 11.8076 11.232 11.6128 11.4196C11.4236 11.6124 11.1947 11.7617 10.942 11.8571C10.5942 11.9841 10.2273 12.0512 9.85699 12.0554C9.27366 12.0846 9.05783 12.0904 7.52366 12.0904C5.98949 12.0904 5.77366 12.0904 5.19033 12.0554C4.80585 12.0626 4.42301 12.0034 4.05866 11.8804C3.81703 11.7801 3.59862 11.6312 3.41699 11.4429C3.22338 11.2555 3.07565 11.0259 2.98533 10.7721C2.84291 10.4192 2.76392 10.044 2.75199 9.66374C2.75199 9.0804 2.71699 8.86457 2.71699 7.3304C2.71699 5.79624 2.71699 5.5804 2.75199 4.99707C2.75461 4.61852 2.82371 4.24337 2.95616 3.88874C3.05885 3.64252 3.21648 3.42304 3.41699 3.24707C3.59422 3.0465 3.81324 2.88721 4.05866 2.7804C4.41423 2.6521 4.78899 2.58503 5.16699 2.58207C5.75033 2.58207 5.96616 2.54707 7.50033 2.54707C9.03449 2.54707 9.25033 2.54707 9.83366 2.58207C10.2039 2.58632 10.5708 2.65338 10.9187 2.7804C11.1837 2.87878 11.4217 3.03873 11.6128 3.24707C11.804 3.42626 11.9534 3.64533 12.0503 3.88874C12.18 4.24395 12.2471 4.61894 12.2487 4.99707C12.2778 5.5804 12.2837 5.79624 12.2837 7.3304C12.2837 8.86457 12.2778 9.0804 12.2487 9.66374ZM7.50033 4.3379C6.90872 4.33906 6.33072 4.51554 5.83937 4.84506C5.34803 5.17458 4.96538 5.64235 4.73978 6.18926C4.51418 6.73617 4.45575 7.33768 4.57187 7.91778C4.688 8.49788 4.97346 9.03055 5.3922 9.44847C5.81094 9.8664 6.34417 10.1508 6.92449 10.2658C7.50482 10.3808 8.10621 10.3212 8.65268 10.0946C9.19915 9.86788 9.66617 9.48433 9.99473 8.99234C10.3233 8.50035 10.4987 7.92202 10.4987 7.3304C10.4994 6.93672 10.4224 6.54676 10.2719 6.18296C10.1214 5.81917 9.90049 5.48871 9.62183 5.2106C9.34318 4.93249 9.0123 4.71222 8.64821 4.56245C8.28412 4.41268 7.89401 4.33637 7.50033 4.3379ZM7.50033 9.2729C7.11614 9.2729 6.74057 9.15898 6.42113 8.94553C6.10169 8.73209 5.85271 8.42871 5.70569 8.07377C5.55867 7.71882 5.5202 7.32825 5.59515 6.95144C5.6701 6.57463 5.85511 6.22851 6.12677 5.95685C6.39843 5.68519 6.74455 5.50018 7.12136 5.42523C7.49817 5.35028 7.88874 5.38874 8.24369 5.53577C8.59863 5.68279 8.90201 5.93177 9.11546 6.25121C9.3289 6.57065 9.44283 6.94621 9.44283 7.3304C9.44283 7.5855 9.39258 7.83809 9.29496 8.07377C9.19734 8.30944 9.05426 8.52358 8.87388 8.70396C8.6935 8.88434 8.47936 9.02742 8.24369 9.12504C8.00801 9.22266 7.75542 9.2729 7.50033 9.2729Z" fill="white"/>
</svg>
