<svg width="32" height="26" viewBox="0 0 32 26" fill="none" xmlns="http://www.w3.org/2000/svg">
<path d="M31.515 20.6697H30.32C30.39 20.4947 30.43 20.3097 30.43 20.1097V2.45969C30.43 1.61469 29.745 0.929688 28.9 0.929688H3.095C2.25 0.929688 1.565 1.61469 1.565 2.45969V20.1097C1.565 20.3097 1.605 20.4947 1.675 20.6697H0.485C0.215 20.6697 0 20.8847 0 21.1547C0 23.3147 1.76 25.0747 3.92 25.0747H28.085C30.245 25.0747 32.005 23.3147 32.005 21.1547C32 20.8847 31.785 20.6697 31.515 20.6697ZM2.54 2.45469C2.54 2.14469 2.79 1.89469 3.1 1.89469H28.905C29.215 1.89469 29.465 2.14469 29.465 2.45469V20.1047C29.465 20.4147 29.215 20.6647 28.905 20.6647H3.095C2.785 20.6647 2.535 20.4147 2.535 20.1047V2.45469H2.54ZM19.03 21.6397C18.84 22.0797 18.405 22.3847 17.9 22.3847H14.1C13.595 22.3847 13.155 22.0747 12.97 21.6397H19.03ZM28.08 24.0997H3.92C2.46 24.0997 1.245 23.0347 1.01 21.6347H11.955C12.175 22.6147 13.05 23.3497 14.1 23.3497H17.9C18.945 23.3497 19.82 22.6147 20.045 21.6347H30.99C30.76 23.0347 29.545 24.0997 28.08 24.0997Z" fill="white"/>
</svg>
