<svg width="72" height="72" viewBox="0 0 72 72" fill="none" xmlns="http://www.w3.org/2000/svg">
<path d="M57.8058 14.1939C54.338 10.7261 49.7269 8.81641 44.8219 8.81641C39.9169 8.81641 35.3044 10.7261 31.8366 14.1953C29.3306 16.6998 27.615 19.847 26.8725 23.2952C26.5955 24.5805 26.4577 25.8827 26.4577 27.1834C26.4577 29.1325 26.767 31.0745 27.3816 32.9392L26.317 34.0037L15.8067 34.1064C15.7969 34.1064 15.787 34.1092 15.7786 34.1092C15.7533 34.1106 15.7294 34.1134 15.7055 34.1177C15.683 34.1219 15.6619 34.1247 15.6408 34.1303C15.6183 34.1359 15.5972 34.143 15.5761 34.1514C15.5536 34.1584 15.5325 34.1669 15.51 34.1767C15.4917 34.1866 15.4734 34.1964 15.4552 34.2077C15.4327 34.2203 15.4116 34.2344 15.3919 34.2498C15.3834 34.2555 15.375 34.2597 15.368 34.2653L2.98031 44.3805C2.98031 44.3805 2.97891 44.3805 2.97891 44.3819H2.9775C2.94938 44.4058 2.92266 44.4311 2.89875 44.4578C2.89453 44.4634 2.88891 44.4705 2.88328 44.4761C2.85938 44.5042 2.83828 44.5337 2.81859 44.5661C2.81859 44.5675 2.81719 44.5689 2.81719 44.5689C2.79891 44.5998 2.78344 44.6322 2.77078 44.6659C2.76797 44.673 2.76375 44.68 2.76234 44.687C2.74969 44.7208 2.73984 44.7545 2.73281 44.7883L2.72859 44.815C2.72297 44.8502 2.72016 44.8853 2.71875 44.9205V44.9261C2.71875 44.9584 2.72156 44.9894 2.72578 45.0231C2.72578 45.0259 2.72719 45.0288 2.72719 45.0316C2.73422 45.0752 2.74406 45.1188 2.75953 45.1609C2.75953 45.1638 2.76094 45.1652 2.76234 45.168C2.77641 45.2059 2.79328 45.2425 2.81297 45.2777C2.82281 45.2931 2.83266 45.3058 2.8425 45.3198C2.85375 45.3367 2.86359 45.355 2.87766 45.3719C2.88047 45.3761 2.88469 45.3789 2.8875 45.3817C2.90578 45.4014 2.92406 45.4197 2.94375 45.4366C2.95781 45.452 2.97328 45.4661 2.98875 45.4787C3.00703 45.4928 3.02672 45.5041 3.045 45.5167C3.06469 45.5294 3.08297 45.542 3.10406 45.5533C3.12375 45.5631 3.14484 45.5702 3.16594 45.5786C3.18703 45.587 3.20672 45.5955 3.22922 45.6025C3.25031 45.6081 3.27281 45.6109 3.29531 45.6152C3.31781 45.6194 3.34031 45.625 3.36281 45.6264C3.38391 45.6278 3.40359 45.6264 3.42469 45.6264C3.45141 45.6264 3.47672 45.6264 3.50344 45.6236H3.5175L18.2044 43.6042L20.2013 45.6011L18.6347 47.1677C18.5692 47.2327 18.5173 47.31 18.4818 47.3952C18.4463 47.4804 18.428 47.5718 18.428 47.6641C18.428 47.8511 18.5025 48.0297 18.6347 48.1619L23.8378 53.3664C23.97 53.4972 24.1486 53.5717 24.3356 53.5717C24.5227 53.5717 24.7013 53.4972 24.832 53.3664L26.4 51.7984L28.3969 53.7953L26.3775 68.4822C26.3733 68.5145 26.3705 68.5469 26.3705 68.5792C26.3705 68.5806 26.3719 68.5834 26.3719 68.5848C26.3719 68.62 26.3747 68.6552 26.3803 68.6903C26.3817 68.6987 26.3831 68.7072 26.3845 68.717C26.3916 68.7508 26.4014 68.7845 26.4141 68.8183L26.4225 68.8394C26.4352 68.8731 26.4506 68.9041 26.4689 68.935C26.4689 68.9364 26.4703 68.9378 26.4703 68.9392C26.49 68.9716 26.5111 69.0011 26.535 69.0292C26.5406 69.0348 26.5462 69.0419 26.5505 69.0475C26.5758 69.0742 26.6011 69.0995 26.6292 69.1234C26.6644 69.1516 26.7023 69.1769 26.7431 69.198C26.7572 69.205 26.7712 69.2106 26.7853 69.2163C26.812 69.2289 26.8373 69.2402 26.8641 69.2486C26.8837 69.2542 26.9048 69.2584 26.9245 69.2627C26.9428 69.2669 26.9597 69.2725 26.978 69.2753H26.9934C27.0188 69.2781 27.0455 69.2781 27.0708 69.2781C27.0919 69.2781 27.113 69.2795 27.1341 69.2781C27.1566 69.2767 27.1777 69.2711 27.2002 69.2669C27.2227 69.2627 27.2452 69.2598 27.2677 69.2542C27.2888 69.2472 27.3098 69.2387 27.3309 69.2303C27.3506 69.2219 27.3731 69.2148 27.3928 69.205C27.4125 69.1937 27.4308 69.1811 27.4505 69.1684C27.4702 69.1558 27.4898 69.1445 27.5067 69.1305C27.5236 69.1178 27.5377 69.1023 27.5531 69.0883C27.5714 69.0714 27.5911 69.0531 27.608 69.0334C27.6108 69.0306 27.615 69.0278 27.6192 69.0236L37.7358 56.6331C37.7414 56.6261 37.7456 56.6177 37.7498 56.6106C37.7653 56.5895 37.7794 56.5684 37.792 56.5459C37.8033 56.5277 37.8145 56.5108 37.823 56.4911C37.8328 56.47 37.8413 56.4475 37.8497 56.425C37.8581 56.4039 37.8652 56.3828 37.8708 56.3617C37.8764 56.3392 37.8792 56.3167 37.8834 56.2956C37.8862 56.2703 37.8891 56.2478 37.8905 56.2225L37.8947 56.1944L37.9973 45.6841L39.0633 44.6167C42.1711 45.6419 45.4941 45.8205 48.7045 45.1286C52.1541 44.3861 55.2998 42.6691 57.8058 40.1645C64.965 33.0038 64.965 21.3545 57.8058 14.1939ZM34.493 47.1985L24.8011 37.508L26.4548 35.8542L36.1453 45.5461L34.493 47.1985ZM34.1234 41.5353L30.4674 37.8788L31.7045 36.6417L41.6383 26.708L45.2945 30.3642L34.1234 41.5353ZM42.9488 26.0303L47.4023 24.5987L45.9708 29.0523L42.9488 26.0303ZM33.4973 48.1942L31.845 49.848L22.1531 40.1561L23.8069 38.5023L33.4973 48.1942ZM34.9894 48.6906L36.577 47.1044L36.4898 55.9342L28.1114 66.197L29.8045 53.8755L34.9894 48.6906ZM21.1955 46.5953L25.4044 50.8042L24.3356 51.8744L20.1253 47.6641L21.1955 46.5953ZM19.4489 42.8603L21.1589 41.1503L30.8494 50.8422L29.1408 52.5508L26.8978 50.3092C26.8978 50.3092 26.8978 50.3078 26.8964 50.3078C26.8964 50.3064 26.895 50.3064 26.895 50.3064L21.6961 45.1075C21.6947 45.1061 21.6947 45.1047 21.6933 45.1033C21.6905 45.1019 21.6891 45.1005 21.6877 45.0991L19.4489 42.8603ZM24.8967 35.4241L23.3105 37.0103L23.3091 37.0117L20.6611 39.6597L18.1242 42.1966L5.80406 43.8897L16.0669 35.5112L24.8967 35.4241ZM44.8219 10.2225C49.3514 10.2225 53.6095 11.986 56.8116 15.188C63.4238 21.8002 63.4223 32.558 56.8116 39.1688C52.2019 43.7785 45.2536 45.3408 39.1111 43.1499C39.0956 43.1442 39.0802 43.1428 39.0661 43.1386C39.0408 43.1316 39.0155 43.1231 38.9902 43.1189C38.9677 43.1161 38.9452 43.1147 38.9227 43.1133C38.9002 43.1119 38.8777 43.1091 38.8552 43.1105C38.8312 43.1105 38.8088 43.1133 38.7863 43.1175C38.7638 43.1189 38.7427 43.1217 38.7202 43.1274C38.6991 43.1316 38.678 43.1386 38.6569 43.1456C38.6344 43.1527 38.6119 43.1597 38.5908 43.1695C38.5697 43.1794 38.5514 43.1906 38.5317 43.2005C38.512 43.2117 38.4923 43.223 38.4727 43.2356C38.4516 43.2511 38.4319 43.268 38.4122 43.2849C38.4009 43.2947 38.3883 43.3031 38.377 43.3144L37.1395 44.5519L35.1175 42.5296L36.354 41.2929L46.785 30.8606C46.792 30.855 46.7948 30.848 46.8019 30.841C46.8173 30.8241 46.8328 30.8044 46.8469 30.7847C46.8609 30.7664 46.875 30.7481 46.8877 30.7285C46.8975 30.7102 46.9073 30.6919 46.9158 30.6722C46.9284 30.6483 46.9397 30.6244 46.9481 30.5991C46.9509 30.592 46.9552 30.5864 46.958 30.578L49.1587 23.7267C49.1602 23.7225 49.1602 23.7197 49.1616 23.7169C49.17 23.6902 49.1742 23.662 49.1784 23.6353C49.1827 23.617 49.1869 23.5988 49.1897 23.5805C49.1911 23.5566 49.1897 23.5341 49.1897 23.5102C49.1897 23.4877 49.1911 23.4638 49.1897 23.4413C49.1869 23.423 49.1827 23.4047 49.1784 23.3864C49.1742 23.3597 49.17 23.3316 49.1616 23.3049C49.1602 23.302 49.1602 23.2992 49.1587 23.2964C49.1545 23.2795 49.1461 23.2655 49.1391 23.25C49.1292 23.2261 49.1208 23.2022 49.1081 23.1783C49.0969 23.1586 49.0842 23.1403 49.0716 23.1206C49.0589 23.1024 49.0462 23.0827 49.0322 23.0658C49.0181 23.0475 49.0013 23.032 48.9844 23.0152C48.9689 22.9997 48.9534 22.9828 48.9352 22.9688C48.9183 22.9533 48.8986 22.942 48.8789 22.9294C48.8606 22.9167 48.8423 22.9041 48.8227 22.8928C48.7988 22.8802 48.7734 22.8703 48.7481 22.8605C48.7341 22.8549 48.72 22.8464 48.7045 22.8422C48.7017 22.8408 48.6989 22.8408 48.6961 22.8394C48.668 22.831 48.6398 22.8267 48.6103 22.8211C48.5934 22.8183 48.5766 22.8141 48.5597 22.8113C48.5372 22.8099 48.5133 22.8113 48.4894 22.8113C48.4669 22.8113 48.443 22.8099 48.4205 22.8113C48.4036 22.8141 48.3867 22.8183 48.3698 22.8211C48.3403 22.8267 48.3122 22.831 48.2841 22.8394C48.2812 22.8408 48.2784 22.8408 48.2742 22.8422L41.4216 25.0444C41.4103 25.0472 41.3991 25.0542 41.3864 25.0585C41.3752 25.0627 41.3639 25.0669 41.3527 25.0725C41.3217 25.0866 41.2908 25.102 41.2627 25.1203L41.2416 25.133C41.2008 25.1611 41.1642 25.192 41.1305 25.2272L29.4732 36.8845L27.4491 34.86L28.6866 33.6239C28.6978 33.6127 28.7048 33.5986 28.7161 33.5874C28.733 33.5677 28.7498 33.548 28.7653 33.5269C28.778 33.5086 28.7892 33.4889 28.7991 33.4692C28.8103 33.4495 28.8216 33.4299 28.8314 33.4088C28.8398 33.3877 28.8469 33.3666 28.8553 33.3441C28.8609 33.323 28.868 33.3019 28.8736 33.2808C28.8778 33.2583 28.8806 33.2358 28.8834 33.2147C28.8862 33.1908 28.8905 33.1683 28.8905 33.1458C28.8905 33.1233 28.8891 33.1008 28.8877 33.0783C28.8862 33.0558 28.8848 33.0333 28.8806 33.0108C28.8764 32.9841 28.8694 32.9602 28.8623 32.9335C28.8581 32.9194 28.8567 32.9039 28.8511 32.8899C26.6602 26.746 28.2225 19.7977 32.8308 15.1894C36.0342 11.9861 40.2923 10.2225 44.8219 10.2225Z" fill="#0A8D12"/>
<path d="M24.8053 37.5082L26.4591 35.8545L36.1495 45.5462L34.4972 47.1986L24.8053 37.5082ZM31.8492 49.8481L22.1573 40.1562L23.8111 38.5025L33.5016 48.1943L31.8492 49.8481ZM21.1631 41.1504L30.8536 50.8423L29.145 52.5509L26.902 50.3093C26.902 50.3093 26.902 50.3079 26.9006 50.3079C26.9006 50.3065 26.8992 50.3065 26.8992 50.3065L21.7003 45.1076C21.6989 45.1062 21.6989 45.1048 21.6975 45.1034C21.6947 45.102 21.6933 45.1006 21.6919 45.0992L19.4531 42.8604L21.1631 41.1504Z" fill="#E1E5E3"/>
<path d="M24.3353 51.8741L20.125 47.6638L21.1952 46.5952L25.4041 50.804L24.3353 51.8741Z" fill="#52CC99"/>
<path d="M23.3097 37.0115L20.6617 39.6595L18.1248 42.1963L5.80469 43.8895L16.0675 35.511L24.8973 35.4238L23.3111 37.0101L23.3097 37.0115Z" fill="#63ECB3"/>
<path opacity="0.4" d="M24.8975 35.4238L23.7908 36.5305L17.1524 36.5962L8.70916 43.4902L5.80469 43.8889L16.0675 35.5114L24.8975 35.4238Z" fill="white"/>
<path opacity="0.2" d="M24.8965 35.4238L23.3105 37.0098L23.3086 37.0118L18.1239 42.1965L5.80469 43.8899L7.62339 42.4053L17.0391 41.1117L22.2238 35.927L22.2257 35.925L22.705 35.4458L24.8965 35.4238Z" fill="black"/>
<path d="M36.575 47.1045L36.4878 55.9343L28.1094 66.1972L29.8025 53.8756L34.9873 48.6907L36.575 47.1045Z" fill="#63ECB3"/>
<path d="M32.8347 15.1894C32.2711 15.7525 31.749 16.3557 31.2725 16.9942C30.1787 18.4539 29.3385 20.0717 28.7667 21.7751C28.5664 22.3752 28.3987 22.9856 28.2645 23.6038C28.1358 24.1998 28.0392 24.8023 27.9751 25.4086C27.9379 25.7474 27.9117 26.0873 27.8965 26.4279C27.8498 27.4212 27.8906 28.4205 28.0208 29.416C28.1747 30.6006 28.4547 31.7653 28.8561 32.8903C28.8601 32.9042 28.862 32.9201 28.8661 32.934C28.873 32.9609 28.881 32.9848 28.885 33.0107C28.8889 33.0346 28.8909 33.0564 28.8919 33.0793C28.8938 33.1012 28.8948 33.124 28.8948 33.1459C28.8938 33.1689 28.8909 33.1916 28.8879 33.2146C28.885 33.2355 28.882 33.2583 28.877 33.2812C28.872 33.302 28.865 33.323 28.8591 33.3449C28.8511 33.3669 28.8442 33.3877 28.8362 33.4096C28.8252 33.4304 28.8142 33.4494 28.8034 33.4702C28.7935 33.4902 28.7822 33.5095 28.7697 33.5279C28.7547 33.5488 28.7369 33.5687 28.7199 33.5875C28.7089 33.5985 28.702 33.6134 28.691 33.6243L27.4531 34.8603L29.4777 36.8849L41.1347 25.2279C41.1684 25.192 41.2053 25.1613 41.2451 25.1334C41.2531 25.1295 41.26 25.1244 41.267 25.1215C41.2958 25.1026 41.3256 25.0866 41.3574 25.0728C41.3684 25.0679 41.3794 25.0628 41.3912 25.0589C41.4031 25.0549 41.4141 25.0479 41.4249 25.045L45.9106 23.6041L48.2781 22.8435C48.2821 22.8415 48.2862 22.8415 48.2881 22.8395C48.316 22.8315 48.3438 22.8276 48.3736 22.8217C48.3905 22.8187 48.4084 22.8146 48.4254 22.8117C48.4473 22.8097 48.4711 22.8117 48.493 22.8117C48.5169 22.8117 48.5417 22.8107 48.5646 22.8117C48.5815 22.8146 48.5974 22.8186 48.6144 22.8217C48.6442 22.8276 48.672 22.8317 48.7009 22.8405C48.7038 22.8415 48.7058 22.8415 48.7089 22.8425C48.7248 22.8464 48.7377 22.8554 48.7526 22.8603C48.7775 22.8713 48.8034 22.8812 48.8271 22.8931C48.847 22.9051 48.865 22.917 48.8838 22.93C48.9027 22.9429 48.9226 22.9548 48.9395 22.9698C48.9574 22.9837 48.9732 22.9996 48.9893 23.0155C49.0062 23.0323 49.022 23.0482 49.036 23.0662C49.0509 23.0831 49.0628 23.1031 49.0758 23.1219C49.0887 23.1408 49.1016 23.1597 49.1126 23.1786C49.1255 23.2035 49.1334 23.2274 49.1434 23.2511C49.1504 23.266 49.1583 23.28 49.1632 23.2968L49.1662 23.3058C49.1742 23.3317 49.1791 23.3605 49.1821 23.3874C49.186 23.4053 49.1911 23.4242 49.194 23.4411C49.195 23.464 49.194 23.4888 49.194 23.5107C49.194 23.5346 49.195 23.5574 49.194 23.5803C49.1932 23.5886 49.1912 23.5966 49.1881 23.6042C49.1871 23.615 49.1851 23.6256 49.1822 23.636C49.1799 23.6637 49.1745 23.6911 49.1663 23.7176C49.1653 23.721 49.1639 23.7243 49.1624 23.7276L48.6224 25.409L48.2953 26.4283L47.3357 29.4164L46.9627 30.5788C46.9598 30.5878 46.9547 30.5928 46.9518 30.5996C46.9435 30.6251 46.9328 30.6497 46.92 30.6732C46.9119 30.6923 46.9026 30.7109 46.8921 30.7289C46.8802 30.7487 46.8653 30.7677 46.8514 30.7855C46.8375 30.8052 46.8226 30.8241 46.8066 30.8422C46.7997 30.8491 46.7967 30.8561 46.7898 30.8611L36.3599 41.293L35.122 42.531L37.1436 44.5525L38.3815 43.3145C38.3925 43.3036 38.4054 43.2947 38.4162 43.2857C38.4371 43.2688 38.456 43.252 38.4769 43.237C38.4967 43.2231 38.5167 43.2131 38.5365 43.2012C38.5563 43.1912 38.5743 43.1793 38.5951 43.1704C38.6171 43.1604 38.6389 43.1525 38.6608 43.1465C38.6827 43.1385 38.7035 43.1316 38.7245 43.1286C38.7474 43.1217 38.7682 43.1186 38.7912 43.1177C38.8131 43.1137 38.8359 43.1108 38.8598 43.1108C38.8827 43.1098 38.9055 43.1127 38.9274 43.1147C38.9503 43.1157 38.9721 43.1177 38.9941 43.1196C39.02 43.1236 39.0448 43.1326 39.0707 43.1385C39.0856 43.1434 39.1005 43.1444 39.1164 43.1504C45.2586 45.3411 52.2062 43.7789 56.8162 39.1689C59.5528 36.4323 61.1556 32.9859 61.627 29.4161C61.758 28.4258 61.8022 27.426 61.7592 26.428C61.744 26.0876 61.7185 25.7476 61.6827 25.4087C61.6203 24.8024 61.525 24.2 61.3973 23.604C61.2658 22.9855 61.0984 22.3753 60.8961 21.7763C60.3234 20.0566 59.4747 18.4415 58.3833 16.9943C57.9043 16.3561 57.3806 15.7527 56.8162 15.1885C53.6143 11.9867 49.3565 10.2227 44.8261 10.2227C40.2974 10.2225 36.0386 11.9855 32.8347 15.1894Z" fill="#39F9A9"/>
<path opacity="0.2" d="M56.8113 39.1687C52.2014 43.7785 45.2537 45.3407 39.1115 43.1502C39.0956 43.1443 39.0807 43.1433 39.0658 43.1382C39.0399 43.1323 39.015 43.1233 38.9892 43.1194C38.9672 43.1174 38.9454 43.1154 38.9225 43.1145C38.9006 43.1125 38.8778 43.1095 38.8549 43.1105C38.831 43.1105 38.8082 43.1135 38.7862 43.1174C38.7636 43.1181 38.7412 43.1218 38.7196 43.1284C38.6978 43.1322 38.6765 43.1382 38.6559 43.1462C38.6334 43.1524 38.6114 43.1604 38.5902 43.1702C38.5694 43.1792 38.5514 43.1911 38.5316 43.201C38.5117 43.2129 38.4918 43.2229 38.4719 43.2368C38.4511 43.2517 38.4321 43.2686 38.4113 43.2855C38.4004 43.2945 38.3874 43.3033 38.3766 43.3143L37.1387 44.5522L35.1172 42.5306L36.1284 41.5194L37.1555 42.5465L38.3935 41.3086C38.4044 41.2976 38.4174 41.2887 38.4282 41.2797C38.449 41.2629 38.468 41.246 38.4888 41.2311C38.5086 41.2172 38.5286 41.2072 38.5484 41.1952C38.5683 41.1852 38.5863 41.1733 38.6071 41.1644C38.629 41.1544 38.6508 41.1466 38.6728 41.1405C38.6947 41.1325 38.7155 41.1256 38.7365 41.1227C38.7594 41.1158 38.7802 41.1127 38.8031 41.1117C38.825 41.1078 38.8478 41.1048 38.8717 41.1048C38.8947 41.1038 38.9174 41.1068 38.9394 41.1087C38.9623 41.1097 38.9841 41.1117 39.006 41.1137C39.0319 41.1176 39.0568 41.1266 39.0827 41.1325C39.0976 41.1374 39.1125 41.1384 39.1284 41.1445C45.2706 43.3351 52.2183 41.7729 56.8281 37.1629C59.5647 34.4264 61.1675 30.9799 61.6389 27.4102C61.6876 27.0472 61.7234 26.6833 61.7483 26.3184C61.7513 26.3552 61.7533 26.3909 61.7542 26.4278C61.7972 27.4258 61.753 28.4256 61.622 29.4159C61.1507 32.9857 59.5478 36.4321 56.8113 39.1687Z" fill="black"/>
<path d="M34.1249 41.5352L45.2958 30.3643L41.6396 26.708L31.7058 36.6418L30.4688 37.8788L34.1249 41.5352ZM33.9193 38.8552C33.7871 38.9869 33.6081 39.0608 33.4215 39.0608C33.2348 39.0608 33.0558 38.9869 32.9236 38.8552C32.7922 38.7229 32.7183 38.5439 32.7183 38.3574C32.7183 38.1708 32.7922 37.9919 32.9236 37.8596L40.9575 29.8271C41.0895 29.6954 41.2682 29.6214 41.4547 29.6214C41.6411 29.6214 41.8199 29.6954 41.9518 29.8271C42.0835 29.959 42.1575 30.1378 42.1575 30.3242C42.1575 30.5106 42.0835 30.6894 41.9518 30.8213L33.9193 38.8552Z" fill="#63ECB3"/>
<path d="M59.607 11.693C59.607 11.5132 59.6757 11.333 59.8129 11.1959L61.7818 9.22673C61.8468 9.16008 61.9244 9.10699 62.01 9.07054C62.0957 9.0341 62.1877 9.01502 62.2808 9.01443C62.3739 9.01383 62.4661 9.03172 62.5523 9.06707C62.6384 9.10241 62.7166 9.1545 62.7824 9.22032C62.8483 9.28614 62.9004 9.36437 62.9357 9.45048C62.9711 9.53659 62.989 9.62886 62.9884 9.72194C62.9878 9.81503 62.9688 9.90707 62.9323 9.99273C62.8959 10.0784 62.8428 10.156 62.7762 10.2209L60.8073 12.1901C60.709 12.2884 60.5837 12.3554 60.4473 12.3825C60.3109 12.4096 60.1696 12.3957 60.0411 12.3425C59.9127 12.2893 59.8029 12.1992 59.7256 12.0836C59.6483 11.968 59.6071 11.8321 59.607 11.693ZM65.2097 21.5372C65.1614 21.3571 65.1867 21.1652 65.2799 21.0037C65.3732 20.8422 65.5267 20.7243 65.7068 20.676L68.3961 19.9549C68.4857 19.9297 68.5794 19.9225 68.6718 19.9338C68.7641 19.9451 68.8533 19.9746 68.9342 20.0206C69.0151 20.0666 69.0861 20.1282 69.1429 20.2019C69.1998 20.2755 69.2415 20.3597 69.2656 20.4496C69.2898 20.5395 69.2958 20.6333 69.2834 20.7255C69.271 20.8177 69.2404 20.9066 69.1934 20.9869C69.1464 21.0672 69.0839 21.1374 69.0095 21.1934C68.9352 21.2493 68.8505 21.29 68.7603 21.313L66.071 22.0342C65.9818 22.0581 65.8888 22.0642 65.7972 22.0522C65.7057 22.0402 65.6174 22.0102 65.5374 21.9641C65.4574 21.9179 65.3873 21.8565 65.3311 21.7832C65.2749 21.71 65.2336 21.6264 65.2097 21.5372ZM65.7067 33.1913C65.5266 33.143 65.373 33.0251 65.2798 32.8637C65.1866 32.7022 65.1613 32.5103 65.2094 32.3302C65.2577 32.15 65.3755 31.9965 65.537 31.9032C65.6984 31.81 65.8903 31.7847 66.0705 31.8329L68.7603 32.5533C68.8495 32.5772 68.9331 32.6184 69.0064 32.6746C69.0797 32.7308 69.1412 32.8009 69.1873 32.8809C69.2335 32.9608 69.2635 33.0491 69.2756 33.1407C69.2876 33.2322 69.2815 33.3252 69.2576 33.4144C69.2338 33.5036 69.1925 33.5873 69.1363 33.6605C69.0801 33.7338 69.0101 33.7953 68.9301 33.8414C68.8501 33.8876 68.7619 33.9176 68.6703 33.9297C68.5788 33.9417 68.4857 33.9356 68.3965 33.9118L65.7067 33.1913ZM59.8132 42.6719C59.6758 42.5346 59.6073 42.3547 59.6073 42.1747C59.6073 41.9947 59.676 41.8147 59.8133 41.6775C59.9452 41.5456 60.124 41.4716 60.3105 41.4716C60.497 41.4716 60.6758 41.5456 60.8077 41.6775L62.7765 43.6465C62.9083 43.7784 62.9824 43.9572 62.9824 44.1437C62.9824 44.3302 62.9083 44.509 62.7765 44.6409C62.6446 44.7727 62.4658 44.8468 62.2793 44.8468C62.0928 44.8468 61.914 44.7727 61.7821 44.6409L59.8132 42.6719ZM50.6903 50.6246L49.9686 47.9352C49.9256 47.7568 49.954 47.5688 50.0477 47.411C50.1413 47.2533 50.2929 47.1384 50.4701 47.0909C50.6473 47.0434 50.836 47.0669 50.9961 47.1565C51.1561 47.2462 51.2749 47.3948 51.3269 47.5707L52.0486 50.2601C52.0725 50.3493 52.0787 50.4423 52.0666 50.5339C52.0546 50.6254 52.0247 50.7137 51.9785 50.7937C51.9324 50.8737 51.871 50.9438 51.7977 51.0001C51.7245 51.0563 51.6409 51.0976 51.5517 51.1215C51.4625 51.1455 51.3695 51.1516 51.2779 51.1396C51.1864 51.1275 51.0981 51.0976 51.0181 51.0515C50.9381 51.0053 50.868 50.9439 50.8117 50.8706C50.7555 50.7974 50.7142 50.7138 50.6903 50.6246ZM24.4321 20.6771C24.6121 20.7255 24.7656 20.8434 24.8588 21.0049C24.952 21.1663 24.9773 21.3582 24.9291 21.5383C24.9052 21.6275 24.8639 21.7111 24.8077 21.7844C24.7515 21.8576 24.6814 21.9191 24.6014 21.9652C24.5215 22.0114 24.4332 22.0413 24.3416 22.0533C24.2501 22.0654 24.1571 22.0592 24.0679 22.0353L21.3784 21.3143C21.1984 21.2659 21.0449 21.148 20.9517 20.9866C20.8585 20.8251 20.8332 20.6332 20.8815 20.4531C20.9053 20.3639 20.9466 20.2803 21.0028 20.207C21.059 20.1338 21.1291 20.0723 21.2091 20.0262C21.2891 19.98 21.3773 19.9501 21.4689 19.9381C21.5604 19.9261 21.6535 19.9322 21.7426 19.9561L24.4321 20.6771ZM30.3251 11.196C30.4525 11.3288 30.5228 11.5063 30.5209 11.6903C30.519 11.8743 30.4451 12.0502 30.3149 12.1803C30.1848 12.3104 30.0088 12.3843 29.8248 12.3862C29.6408 12.3881 29.4634 12.3177 29.3306 12.1903L27.3626 10.2219C27.2253 10.0845 27.1567 9.90468 27.1567 9.72482C27.1567 9.54496 27.2253 9.36482 27.3627 9.22757C27.4946 9.09573 27.6735 9.02168 27.8599 9.02171C28.0464 9.02174 28.2252 9.09584 28.3571 9.22772L30.3251 11.196ZM39.4497 3.24314L40.1699 5.93217C40.2136 6.11079 40.1857 6.29945 40.092 6.45772C39.9984 6.61599 39.8465 6.73128 39.6688 6.77888C39.4912 6.82647 39.302 6.80259 39.1417 6.71235C38.9815 6.62211 38.863 6.47268 38.8116 6.29611L38.0913 3.60707C38.0498 3.42923 38.0791 3.24223 38.173 3.08559C38.2669 2.92896 38.418 2.81497 38.5944 2.76771C38.7708 2.72045 38.9586 2.74363 39.1182 2.83235C39.2779 2.92107 39.3967 3.06838 39.4497 3.24314ZM49.9446 6.11456C49.9446 6.05437 49.9524 5.9932 49.9688 5.93217L50.6892 3.24271C50.7125 3.1529 50.7534 3.06859 50.8094 2.99465C50.8655 2.9207 50.9356 2.85858 51.0158 2.81188C51.096 2.76517 51.1846 2.73479 51.2766 2.7225C51.3686 2.71021 51.4621 2.71625 51.5517 2.74026C51.6413 2.76428 51.7253 2.8058 51.7988 2.86243C51.8723 2.91906 51.9339 2.98968 51.98 3.07022C52.0261 3.15076 52.0558 3.23962 52.0674 3.33169C52.0789 3.42376 52.0722 3.51721 52.0475 3.60665L51.327 6.29611C51.283 6.46101 51.1806 6.60428 51.0387 6.6992C50.8969 6.79412 50.7254 6.83421 50.5561 6.81198C50.3869 6.78976 50.2316 6.70675 50.119 6.57843C50.0065 6.4501 49.9445 6.28523 49.9446 6.11456ZM19.1464 52.9936C19.2783 53.1254 19.3524 53.3043 19.3524 53.4908C19.3524 53.6772 19.2783 53.8561 19.1464 53.9879L8.45597 64.6785C8.35768 64.777 8.23239 64.8441 8.09595 64.8713C7.95952 64.8984 7.81809 64.8845 7.68957 64.8313C7.56104 64.778 7.45122 64.6879 7.37399 64.5721C7.29676 64.4564 7.2556 64.3204 7.25573 64.1813C7.25573 64.0014 7.32436 63.8213 7.46175 63.684L18.1522 52.9935C18.2841 52.8617 18.4629 52.7876 18.6493 52.7877C18.8358 52.7877 19.0146 52.8618 19.1464 52.9936ZM13.1548 64.64C13.0565 64.7385 12.9312 64.8055 12.7948 64.8327C12.6584 64.8599 12.5169 64.846 12.3884 64.7928C12.2599 64.7395 12.1501 64.6493 12.0728 64.5336C11.9956 64.4179 11.9544 64.2819 11.9546 64.1428C11.9546 63.9628 12.0232 63.7829 12.1606 63.6455L21.6192 54.1871C21.6842 54.1204 21.7617 54.0673 21.8474 54.0309C21.9331 53.9945 22.0251 53.9754 22.1182 53.9748C22.2113 53.9743 22.3035 53.9922 22.3896 54.0275C22.4758 54.0629 22.554 54.115 22.6198 54.1808C22.6856 54.2466 22.7377 54.3249 22.7731 54.411C22.8084 54.4971 22.8263 54.5894 22.8257 54.6825C22.8251 54.7755 22.806 54.8676 22.7696 54.9532C22.7331 55.0389 22.68 55.1165 22.6134 55.1814L13.1548 64.64ZM16.464 64.0027L25.6544 54.8126C25.7194 54.7459 25.797 54.6929 25.8826 54.6564C25.9683 54.62 26.0603 54.6009 26.1534 54.6003C26.2465 54.5998 26.3388 54.6177 26.4249 54.653C26.511 54.6884 26.5892 54.7405 26.655 54.8063C26.7209 54.8721 26.7729 54.9504 26.8083 55.0365C26.8436 55.1226 26.8615 55.2149 26.8609 55.308C26.8603 55.401 26.8413 55.4931 26.8048 55.5787C26.7684 55.6644 26.7153 55.742 26.6486 55.8069L17.4582 64.9971C17.3599 65.0955 17.2346 65.1626 17.0982 65.1898C16.9618 65.217 16.8203 65.203 16.6918 65.1498C16.5633 65.0966 16.4535 65.0064 16.3762 64.8907C16.299 64.7749 16.2579 64.6389 16.258 64.4998C16.2579 64.4075 16.276 64.316 16.3113 64.2307C16.3467 64.1454 16.3986 64.0679 16.464 64.0027ZM17.3279 45.4915C17.4597 45.6234 17.5338 45.8022 17.5338 45.9887C17.5338 46.1752 17.4597 46.354 17.3279 46.4859L8.13773 55.6763C8.03945 55.7747 7.91415 55.8418 7.77772 55.869C7.64129 55.8962 7.49985 55.8823 7.37133 55.829C7.24281 55.7758 7.13298 55.6856 7.05575 55.5699C6.97852 55.4542 6.93737 55.3182 6.9375 55.179C6.9375 54.9992 7.00613 54.8192 7.14352 54.6818L16.3336 45.4914C16.3989 45.4261 16.4764 45.3743 16.5617 45.339C16.647 45.3037 16.7385 45.2855 16.8308 45.2855C16.9231 45.2855 17.0145 45.3037 17.0998 45.3391C17.1851 45.3744 17.2626 45.4262 17.3279 45.4915ZM17.9532 49.5269C18.0851 49.6588 18.1592 49.8376 18.1592 50.0241C18.1592 50.2106 18.0851 50.3894 17.9532 50.5213L8.4945 59.9797C8.39621 60.0781 8.27092 60.1452 8.13448 60.1724C7.99805 60.1996 7.85662 60.1857 7.7281 60.1324C7.59958 60.0792 7.48975 59.989 7.41252 59.8733C7.33529 59.7576 7.29413 59.6216 7.29427 59.4824C7.29427 59.3024 7.36289 59.1226 7.50028 58.9852L16.959 49.5268C17.0243 49.4615 17.1018 49.4097 17.1871 49.3744C17.2724 49.3391 17.3638 49.3209 17.4561 49.3209C17.5485 49.3209 17.6399 49.3391 17.7252 49.3745C17.8105 49.4098 17.8879 49.4616 17.9532 49.5269Z" fill="#0A8D12"/>
<path d="M47.4067 24.5986L45.9752 29.0522L42.9531 26.0302L47.4067 24.5986Z" fill="#E1E5E3"/>
<path opacity="0.2" d="M45.9734 29.0524L44.9453 28.0241L45.8909 25.0858L47.4044 24.5986L45.9734 29.0524Z" fill="black"/>
<path d="M32.924 38.8549C32.7926 38.7226 32.7188 38.5436 32.7188 38.3571C32.7188 38.1706 32.7926 37.9916 32.924 37.8593L40.9579 29.8268C41.0899 29.6951 41.2686 29.6211 41.4551 29.6211C41.6415 29.6211 41.8203 29.6951 41.9522 29.8268C42.0839 29.9587 42.1579 30.1375 42.1579 30.3239C42.1579 30.5103 42.0839 30.6891 41.9522 30.821L33.9197 38.8549C33.7875 38.9866 33.6085 39.0605 33.4219 39.0605C33.2352 39.0605 33.0562 38.9866 32.924 38.8549Z" fill="#0A8D12"/>
<path opacity="0.4" d="M36.5744 47.1035L35.4677 48.2102L35.402 54.8487L28.508 63.2918L28.1094 66.1965L36.487 55.9335L36.5744 47.1035Z" fill="white"/>
<path opacity="0.2" d="M36.5754 47.1045L34.9895 48.6905L34.9875 48.6924L29.8028 53.8771L28.1094 66.1963L29.594 64.3776L30.8877 54.9619L36.0724 49.7774L36.0744 49.7754L36.5536 49.2961L36.5754 47.1045Z" fill="black"/>
<g opacity="0.4">
<path d="M31.2695 16.9941C30.1757 18.4538 29.3355 20.0717 28.7637 21.7751L60.8927 21.7761C60.32 20.0564 59.4713 18.4413 58.3799 16.9941H31.2695ZM61.3939 23.6037H49.185C49.184 23.6144 49.182 23.625 49.1791 23.6354C49.1767 23.6631 49.1714 23.6905 49.1632 23.717C49.1621 23.7204 49.1608 23.7238 49.1592 23.727L48.6192 25.4084H61.6792C61.6169 24.8021 61.5217 24.1996 61.3939 23.6037ZM28.2615 23.6037C28.1328 24.1996 28.0362 24.8021 27.9721 25.4084H40.9507L41.1317 25.2275C41.1654 25.1916 41.2023 25.1608 41.2421 25.133C41.2501 25.129 41.257 25.124 41.264 25.121C41.2928 25.1022 41.3226 25.0861 41.3544 25.0723C41.3654 25.0674 41.3764 25.0624 41.3882 25.0584C41.4001 25.0545 41.4111 25.0475 41.4219 25.0445L45.9076 23.6037H28.2615ZM61.7559 26.4277H48.2922L47.3325 29.4158H61.6237C61.7546 28.4255 61.7989 27.4257 61.7559 26.4277ZM27.8937 26.4277C27.847 27.4211 27.8877 28.4203 28.018 29.4158H36.9434L39.9316 26.4277H27.8937Z" fill="black"/>
</g>
<path opacity="0.4" d="M41.6403 26.7075L42.3694 27.4368L31.1979 38.6081L30.4688 37.8791L41.6403 26.7075Z" fill="white"/>
<path opacity="0.2" d="M44.57 29.6348L45.2991 30.3639L34.1276 41.5354L33.3984 40.8062L44.57 29.6348Z" fill="black"/>
<path opacity="0.5" d="M26.4545 35.8535L36.1464 45.5454L35.5825 46.1093L25.8906 36.4176L26.4545 35.8535Z" fill="white"/>
<path opacity="0.2" d="M25.3686 36.9434L35.0605 46.6352L34.4966 47.1993L24.8047 37.5074L25.3686 36.9434Z" fill="black"/>
<path opacity="0.5" d="M23.8062 38.502L33.4981 48.1938L32.9341 48.7577L23.2422 39.066L23.8062 38.502Z" fill="white"/>
<path opacity="0.2" d="M22.7203 39.5918L32.4122 49.2837L31.8481 49.8476L22.1562 40.1557L22.7203 39.5918Z" fill="black"/>
<path opacity="0.5" d="M21.1613 41.1494L30.8532 50.8413L30.27 51.4245L20.5781 41.7326L21.1613 41.1494Z" fill="white"/>
<path opacity="0.2" d="M20.0362 42.2764L29.728 51.9682L29.145 52.5513L19.4531 42.8594L20.0362 42.2764Z" fill="black"/>
<path opacity="0.5" d="M21.1929 46.5889L25.4149 50.8109L25.0501 51.1756L20.8281 46.9535L21.1929 46.5889Z" fill="white"/>
<path opacity="0.2" d="M20.4896 47.2935L24.7118 51.5156L24.347 51.8802L20.125 47.6582L20.4896 47.2935Z" fill="black"/>
</svg>
