<svg width="33" height="32" viewBox="0 0 33 32" fill="none" xmlns="http://www.w3.org/2000/svg">
<g clip-path="url(#clip0_536_7559)">
<path d="M16.8139 7.91052L18.2699 6.45452C18.7805 5.94341 19.3869 5.53791 20.0543 5.26119C20.7217 4.98448 21.437 4.84197 22.1595 4.8418C22.882 4.84163 23.5975 4.98381 24.265 5.26021C24.9325 5.53662 25.539 5.94184 26.0499 6.45271C26.5608 6.96358 26.966 7.57011 27.2424 8.23763C27.5188 8.90515 27.661 9.62059 27.6608 10.3431C27.6606 11.0656 27.5181 11.7809 27.2414 12.4483C26.9647 13.1157 26.5592 13.7221 26.0481 14.2327L22.5126 17.7682C22.0018 18.279 21.3955 18.6841 20.7282 18.9605C20.0609 19.2369 19.3457 19.3791 18.6235 19.3791C17.9012 19.3791 17.186 19.2369 16.5187 18.9605C15.8514 18.6841 15.2451 18.279 14.7344 17.7682" stroke="white" stroke-width="2" stroke-linecap="round" stroke-linejoin="round"/>
<path d="M16.1904 24.0899L14.7346 25.5457C14.224 26.0568 13.6177 26.4623 12.9503 26.739C12.2829 27.0158 11.5675 27.1583 10.845 27.1584C10.1225 27.1586 9.4071 27.0164 8.73958 26.74C8.07206 26.4636 7.46554 26.0584 6.95466 25.5475C6.44379 25.0367 6.03857 24.4301 5.76217 23.7626C5.48576 23.0951 5.34358 22.3796 5.34375 21.6572C5.34392 20.9347 5.48643 20.2193 5.76315 19.5519C6.03986 18.8845 6.44536 18.2782 6.95647 17.7675L10.492 14.232C11.0027 13.7213 11.609 13.3162 12.2763 13.0398C12.9436 12.7634 13.6588 12.6211 14.3811 12.6211C15.1034 12.6211 15.8186 12.7634 16.4859 13.0398C17.1531 13.3162 17.7595 13.7213 18.2702 14.232" stroke="white" stroke-width="2" stroke-linecap="round" stroke-linejoin="round"/>
</g>
<defs>
<clipPath id="clip0_536_7559">
<rect width="32" height="32" fill="white" transform="translate(0.5)"/>
</clipPath>
</defs>
</svg>
