<svg width="15" height="15" viewBox="0 0 15 15" fill="none" xmlns="http://www.w3.org/2000/svg">
<path d="M4.54818 3.24635C4.54802 3.55577 4.42496 3.85246 4.20606 4.07114C3.98715 4.28982 3.69035 4.41259 3.38093 4.41244C3.07151 4.41228 2.77482 4.28922 2.55614 4.07031C2.33746 3.85141 2.21469 3.5546 2.21484 3.24519C2.215 2.93577 2.33806 2.63908 2.55697 2.4204C2.77587 2.20171 3.07267 2.07895 3.38209 2.0791C3.69151 2.07926 3.9882 2.20232 4.20688 2.42122C4.42556 2.64012 4.54833 2.93693 4.54818 3.24635ZM4.58318 5.27635H2.24984V12.5797H4.58318V5.27635ZM8.26984 5.27635H5.94818V12.5797H8.24651V8.74719C8.24651 6.61219 11.029 6.41385 11.029 8.74719V12.5797H13.3332V7.95385C13.3332 4.35468 9.21484 4.48885 8.24651 6.25635L8.26984 5.27635Z" fill="white"/>
</svg>
