<svg width="33" height="32" viewBox="0 0 33 32" fill="none" xmlns="http://www.w3.org/2000/svg">
<g clip-path="url(#clip0_2527_554)">
<path d="M16.81 7.91003L18.266 6.45403C18.7766 5.94292 19.383 5.53742 20.0504 5.26071C20.7178 4.98399 21.4331 4.84148 22.1556 4.84131C22.8781 4.84114 23.5935 4.98332 24.2611 5.25973C24.9286 5.53613 25.5351 5.94135 26.046 6.45222C26.5569 6.9631 26.9621 7.56962 27.2385 8.23714C27.5149 8.90466 27.6571 9.6201 27.6569 10.3426C27.6567 11.0651 27.5142 11.7804 27.2375 12.4478C26.9608 13.1152 26.5553 13.7216 26.0442 14.2322L22.5086 17.7677C21.9979 18.2785 21.3916 18.6836 20.7243 18.96C20.057 19.2364 19.3418 19.3787 18.6196 19.3787C17.8973 19.3787 17.1821 19.2364 16.5148 18.96C15.8475 18.6836 15.2412 18.2785 14.7305 17.7677" stroke="white" stroke-width="2" stroke-linecap="round" stroke-linejoin="round"/>
<path d="M16.1865 24.0902L14.7307 25.546C14.2201 26.0571 13.6138 26.4626 12.9464 26.7393C12.279 27.016 11.5636 27.1585 10.8411 27.1587C10.1186 27.1589 9.4032 27.0167 8.73568 26.7403C8.06815 26.4639 7.46163 26.0586 6.95076 25.5478C6.43988 25.0369 6.03467 24.4304 5.75826 23.7629C5.48186 23.0953 5.33968 22.3799 5.33984 21.6574C5.34001 20.9349 5.48253 20.2195 5.75924 19.5521C6.03596 18.8848 6.44146 18.2784 6.95257 17.7678L10.4881 14.2323C10.9988 13.7215 11.6051 13.3164 12.2724 13.04C12.9397 12.7636 13.6549 12.6213 14.3772 12.6213C15.0995 12.6213 15.8147 12.7636 16.4819 13.04C17.1492 13.3164 17.7556 13.7215 18.2663 14.2323" stroke="white" stroke-width="2" stroke-linecap="round" stroke-linejoin="round"/>
</g>
<defs>
<clipPath id="clip0_2527_554">
<rect width="32" height="32" fill="white" transform="translate(0.5)"/>
</clipPath>
</defs>
</svg>
