<svg width="75" height="75" viewBox="0 0 75 75" fill="none" xmlns="http://www.w3.org/2000/svg">
<path d="M30.7969 59.3926H37.8281V69.1168H30.7969V59.3926Z" fill="#00B852"/>
<path d="M67.125 56.2266V58.5703C67.1231 59.1913 66.8756 59.7864 66.4365 60.2255C65.9973 60.6647 65.4023 60.9122 64.7812 60.9141H6.1875C5.56647 60.9122 4.9714 60.6647 4.53227 60.2255C4.09313 59.7864 3.8456 59.1913 3.84375 58.5703V56.2266H67.125Z" fill="#00B852" fill-opacity="0.05"/>
<path d="M19.0364 43.9296L13.3876 45.4861C12.7636 45.658 12.3972 46.3032 12.5691 46.9271L14.7482 54.8355C14.9201 55.4595 15.5653 55.8259 16.1893 55.654L21.8381 54.0975C22.4621 53.9256 22.8285 53.2804 22.6566 52.6565L20.4775 44.7481C20.3056 44.1241 19.6604 43.7577 19.0364 43.9296Z" fill="#00B852"/>
<path d="M29.5989 33.7269L23.9501 35.2834C23.3261 35.4554 22.9597 36.1005 23.1316 36.7245L27.1785 51.4115C27.3504 52.0355 27.9956 52.4019 28.6195 52.23L34.2684 50.6735C34.8924 50.5016 35.2588 49.8564 35.0869 49.2325L31.04 34.5454C30.8681 33.9215 30.2229 33.555 29.5989 33.7269Z" fill="#00B852"/>
<path d="M39.5364 21.2645L33.8876 22.821C33.2636 22.993 32.8972 23.6381 33.0691 24.2621L39.6064 47.9873C39.7783 48.6113 40.4235 48.9777 41.0474 48.8058L46.6963 47.2493C47.3202 47.0774 47.6867 46.4322 47.5148 45.8082L40.9775 22.083C40.8056 21.4591 40.1604 21.0926 39.5364 21.2645Z" fill="#00B852"/>
<path d="M65.9355 24.4334C72.9609 17.1772 67.6207 4.61235 57.4219 4.68735C55.4096 4.68981 53.432 5.21075 51.6796 6.19992C49.9273 7.18908 48.4594 8.61309 47.4176 10.3346L38.0941 4.85024C37.8426 4.7024 37.5449 4.65362 37.2594 4.71342C36.9738 4.77323 36.7207 4.93732 36.5496 5.17367L21.9762 25.3522L19.4004 23.6342C19.175 23.4839 18.9044 23.4163 18.6347 23.443C18.3651 23.4698 18.1131 23.5891 17.9215 23.7807L10.8902 30.812C10.6768 31.033 10.5587 31.329 10.5613 31.6363C10.564 31.9435 10.6872 32.2374 10.9045 32.4547C11.1218 32.672 11.4157 32.7952 11.723 32.7979C12.0302 32.8006 12.3262 32.6825 12.5473 32.469L18.8988 26.1174L21.6152 27.928C21.8675 28.0964 22.1752 28.1605 22.4738 28.1068C22.7723 28.053 23.0384 27.8856 23.216 27.6397L37.8246 7.40961L46.4027 12.4557C46.2099 12.9794 46.0552 13.5163 45.9398 14.0623H36.5039C36.1931 14.0623 35.895 14.1858 35.6753 14.4056C35.4555 14.6253 35.332 14.9234 35.332 15.2342C35.332 15.545 35.4555 15.8431 35.6753 16.0629C35.895 16.2826 36.1931 16.4061 36.5039 16.4061H45.7031C45.5672 25.7741 56.666 31.4764 64.1625 25.9756L65.625 27.4381V58.5936C65.6247 58.9043 65.5011 59.2022 65.2814 59.4219C65.0617 59.6416 64.7638 59.7652 64.4531 59.7655H5.85938C5.54867 59.7652 5.25078 59.6416 5.03108 59.4219C4.81138 59.2022 4.68781 58.9043 4.6875 58.5936V17.578C4.68781 17.2673 4.81138 16.9694 5.03108 16.7497C5.25078 16.53 5.54867 16.4064 5.85938 16.4061H24.9375C25.2483 16.4061 25.5464 16.2826 25.7661 16.0629C25.9859 15.8431 26.1094 15.545 26.1094 15.2342C26.1094 14.9234 25.9859 14.6253 25.7661 14.4056C25.5464 14.1858 25.2483 14.0623 24.9375 14.0623H5.85938C4.92726 14.0633 4.03359 14.434 3.37448 15.0931C2.71537 15.7522 2.34468 16.6459 2.34375 17.578V58.5936C2.34468 59.5257 2.71537 60.4194 3.37448 61.0785C4.03359 61.7376 4.92726 62.1083 5.85938 62.1092H30.4688V67.9686H26.9531C26.6423 67.9686 26.3443 68.0921 26.1245 68.3118C25.9047 68.5316 25.7812 68.8297 25.7812 69.1405C25.7812 69.4513 25.9047 69.7493 26.1245 69.9691C26.3443 70.1889 26.6423 70.3123 26.9531 70.3123H43.3594C43.6702 70.3123 43.9682 70.1889 44.188 69.9691C44.4078 69.7493 44.5312 69.4513 44.5312 69.1405C44.5312 68.8297 44.4078 68.5316 44.188 68.3118C43.9682 68.0921 43.6702 67.9686 43.3594 67.9686H39.8438V62.1092H64.4531C65.3852 62.1083 66.2789 61.7376 66.938 61.0785C67.5971 60.4194 67.9678 59.5257 67.9688 58.5936V29.7819L70.6559 32.469C70.764 32.5809 70.8933 32.6702 71.0362 32.7316C71.1792 32.793 71.333 32.8254 71.4886 32.8267C71.6442 32.8281 71.7985 32.7984 71.9425 32.7395C72.0865 32.6806 72.2174 32.5935 72.3274 32.4835C72.4374 32.3735 72.5245 32.2426 72.5834 32.0986C72.6423 31.9546 72.672 31.8003 72.6706 31.6447C72.6693 31.4891 72.6369 31.3353 72.5755 31.1923C72.5141 31.0494 72.4248 30.9201 72.3129 30.812L65.9355 24.4334ZM37.5 67.9686H32.8125V62.1092H37.5V67.9686ZM48.0469 16.4061C48.05 13.9206 49.0387 11.5379 50.7962 9.78039C52.5537 8.02291 54.9364 7.0342 57.4219 7.0311C69.8414 7.50219 69.8391 25.3123 57.4219 25.7811C54.9364 25.778 52.5537 24.7893 50.7962 23.0318C49.0387 21.2743 48.05 18.8915 48.0469 16.4061Z" fill="white"/>
<path d="M11.386 57.2342C11.4268 57.3827 11.4964 57.5216 11.591 57.6432C11.6855 57.7647 11.8031 57.8664 11.9369 57.9425C12.0708 58.0185 12.2183 58.0675 12.3711 58.0865C12.5239 58.1055 12.679 58.0943 12.8274 58.0534L16.2141 57.1194C20.9215 55.8221 27.9446 53.8885 32.5969 52.6053L52.3676 47.1573C52.6566 47.0658 52.8989 46.866 53.0437 46.5997C53.1885 46.3335 53.2244 46.0214 53.1441 45.7292C53.0637 45.4369 52.8732 45.1872 52.6126 45.0324C52.352 44.8776 52.0416 44.8298 51.7465 44.8991L49.486 45.5202L42.6375 20.6647C42.5535 20.366 42.3549 20.1125 42.085 19.9596C41.815 19.8066 41.4955 19.7665 41.1961 19.8479L33.2883 22.0276C32.989 22.1103 32.7347 22.3084 32.5813 22.5784C32.4279 22.8485 32.388 23.1684 32.4704 23.4678L39.3188 48.3233L37.0582 48.9455L32.7 33.1287C32.6165 32.8296 32.4181 32.5756 32.1481 32.4222C31.8781 32.2687 31.5584 32.2283 31.2586 32.3096L23.352 34.4893C23.2035 34.5301 23.0646 34.5998 22.943 34.6943C22.8215 34.7888 22.7198 34.9064 22.6437 35.0403C22.5677 35.1741 22.5187 35.3217 22.4997 35.4744C22.4807 35.6272 22.4919 35.7823 22.5328 35.9307L26.8922 51.7475L24.6305 52.3698L22.1414 43.3311C22.0577 43.0322 21.8592 42.7785 21.5892 42.6252C21.3192 42.472 20.9996 42.4317 20.7 42.5131L12.7922 44.6928C12.6439 44.7337 12.505 44.8035 12.3836 44.8981C12.2622 44.9927 12.1607 45.1102 12.0847 45.2441C12.0087 45.3779 11.9599 45.5254 11.9409 45.6782C11.922 45.8309 11.9333 45.9859 11.9743 46.1342L14.4645 55.1717L12.2039 55.794C12.0556 55.8349 11.9167 55.9047 11.7954 55.9993C11.674 56.0938 11.5724 56.2114 11.4964 56.3453C11.4205 56.4791 11.3716 56.6266 11.3527 56.7793C11.3337 56.9321 11.345 57.0859 11.386 57.2342ZM30.7524 34.8807L34.8 49.5678L29.1516 51.1241L25.1051 36.4369L30.7524 34.8807ZM41.577 47.701L35.0403 23.9752L40.6887 22.419L47.2278 46.1436L41.577 47.6998V47.701ZM14.5442 46.6405L20.1926 45.0842L22.3723 52.992L16.7239 54.5483L14.5442 46.6405Z" fill="white"/>
</svg>
