<svg width="75" height="75" viewBox="0 0 75 75" fill="none" xmlns="http://www.w3.org/2000/svg">
<path d="M30.8119 17.7632L30.8204 17.7827L30.8298 17.8018C30.9369 18.0197 31.0088 18.2519 31.0433 18.4903L31.911 31.3919L31.9111 31.3927L32.341 37.8657C32.3491 38.6242 32.4696 39.3774 32.6986 40.1014L32.7125 40.1454L32.7304 40.1879C33.4174 41.8197 35.0613 42.8422 36.8341 42.7709L36.8466 42.7704L36.8592 42.7695L57.6367 41.4105C58.2704 41.4058 58.8776 41.6454 59.328 42.0729C59.6997 42.4256 59.9397 42.8821 60.0209 43.3707L60.048 43.6931C59.1877 55.1256 50.7751 64.6712 39.3277 67.141C27.8527 69.6168 16.0975 64.3843 10.4375 54.3081C8.8087 51.3853 7.79182 48.1736 7.44578 44.8614L7.44358 44.8404L7.4405 44.8195C7.29802 43.8531 7.23528 42.877 7.2529 41.9008L7.25307 41.891L7.25306 41.8813C7.2352 29.5963 15.979 18.9529 28.2535 16.3736C29.3404 16.215 30.3866 16.7957 30.8119 17.7632Z" stroke="white" stroke-width="2"/>
<path d="M40.1936 6.75206L40.1936 6.75215L40.2032 6.7524C54.1829 7.10805 65.9269 17.1338 68.2358 30.6383L68.202 30.7179L68.16 30.8168L68.1623 30.9241L68.1706 31.309C68.1408 31.7318 67.9755 32.1391 67.6922 32.4701C67.3957 32.8164 66.9905 33.055 66.5418 33.1505L66.2343 33.1927L42.2498 34.7467L42.2414 34.7472L42.233 34.7481C41.5724 34.8132 40.9163 34.5999 40.4279 34.1642C40.0255 33.8053 39.7683 33.3237 39.6922 32.8062L38.0824 8.85729L38.0779 8.79055L38.0694 8.76585L38.0807 8.733L38.0833 8.65753C38.1007 8.13363 38.3313 7.63623 38.727 7.27727C39.1229 6.918 39.6511 6.72783 40.1936 6.75206Z" fill="#00B852" stroke="white"/>
</svg>
