<svg width="52" height="52" viewBox="0 0 52 52" fill="none" xmlns="http://www.w3.org/2000/svg">
<g clip-path="url(#clip0_2588_2141)">
<rect x="0.160156" y="0.00341797" width="51.5668" height="51.5668" rx="8.00175" fill="white" fill-opacity="0.1"/>
<path d="M28.8922 12.0895C32.4128 12.0895 35.277 14.8896 35.277 18.3314V28.5533C35.277 31.9951 32.4128 34.7952 28.8922 34.7952H18.4362C14.9156 34.7952 12.0514 31.9951 12.0514 28.5533V18.3314C12.0514 14.8896 14.9156 12.0895 18.4362 12.0895H28.8922ZM28.8922 10H18.4362C13.7303 10 9.91406 13.7308 9.91406 18.3314V28.5533C9.91406 33.1539 13.7303 36.8847 18.4362 36.8847H28.8922C33.5981 36.8847 37.4143 33.1539 37.4143 28.5533V18.3314C37.4143 13.7308 33.5981 10 28.8922 10Z" fill="#6EFFEC"/>
<path d="M29.3167 41.0001H21.8633V38.9107H29.3167C35.0831 38.9107 39.7755 34.3234 39.7755 28.686V21.3994H41.9128V28.686C41.9128 35.4768 36.263 41.0001 29.3167 41.0001Z" fill="#6EFFEC"/>
<path d="M17.043 17.769H20.1703L23.2488 25.6682L26.3598 17.769H29.4546V29.0437H27.499V19.6809H27.4664L23.9648 29.0437H22.5327L19.0311 19.6809H18.9986V29.0437H17.043V17.769Z" fill="#6EFFEC"/>
<g filter="url(#filter0_f_2588_2141)">
<circle cx="4.91406" cy="3" r="26" fill="#6EFFEC"/>
</g>
</g>
<defs>
<filter id="filter0_f_2588_2141" x="-112.286" y="-114.2" width="234.4" height="234.4" filterUnits="userSpaceOnUse" color-interpolation-filters="sRGB">
<feFlood flood-opacity="0" result="BackgroundImageFix"/>
<feBlend mode="normal" in="SourceGraphic" in2="BackgroundImageFix" result="shape"/>
<feGaussianBlur stdDeviation="45.6" result="effect1_foregroundBlur_2588_2141"/>
</filter>
<clipPath id="clip0_2588_2141">
<rect x="0.160156" y="0.00341797" width="51.5668" height="51.5668" rx="8.00175" fill="white"/>
</clipPath>
</defs>
</svg>
