<svg width="75" height="75" viewBox="0 0 75 75" fill="none" xmlns="http://www.w3.org/2000/svg">
<path opacity="0.05" d="M51.5877 37.6255C51.5877 46.5649 44.3423 53.8102 35.403 53.8102C30.1854 53.8102 25.5488 51.3498 22.5938 47.5169C25.3386 49.6559 28.7882 50.917 32.5221 50.917C41.4491 50.917 48.6945 43.6716 48.6945 34.7447C48.6945 30.986 47.4086 27.5364 45.2696 24.7915C49.1149 27.7466 51.5877 32.3955 51.5877 37.6255Z" fill="black"/>
<path d="M47.4393 46.1249C46.92 46.8605 46.3431 47.5384 45.6941 48.1586C43.0402 50.7692 39.4056 52.3701 35.396 52.3701C30.4345 52.3701 26.0354 49.9038 23.3672 46.1249C23.9585 45.375 24.622 44.6682 25.3431 44.0336C27.2326 42.3894 29.5258 41.2211 32.0498 40.6586C30.146 39.5192 28.8479 37.4567 28.8479 35.0769C28.8479 32.1923 30.7374 29.7548 33.3335 28.8894C33.4345 28.8605 33.5354 28.8317 33.6364 28.8029C33.723 28.774 33.8239 28.7451 33.9248 28.7307C33.9681 28.7019 34.0258 28.6874 34.0835 28.6874C34.3287 28.6298 34.5883 28.5865 34.8624 28.5576C35.0354 28.5432 35.2229 28.5288 35.396 28.5288C39.0162 28.5288 41.9441 31.4566 41.9441 35.0769C41.9441 37.4567 40.6605 39.5192 38.7566 40.673C42.2325 41.4374 45.2902 43.399 47.4393 46.1249Z" fill="#00B852"/>
<path opacity="0.1" d="M49.0781 48.7067C48.4435 49.4999 47.7368 50.2355 46.958 50.9134C46.6262 49.947 46.2079 49.0239 45.6887 48.1586C43.5685 44.5239 39.9916 41.8845 35.8233 40.947C37.7271 39.7932 39.0108 37.7307 39.0108 35.3509C39.0108 32.0336 36.5301 29.3221 33.3281 28.8894C33.8186 28.7307 34.3233 28.6009 34.857 28.5576C35.0301 28.5432 35.2175 28.5288 35.3906 28.5288C39.0108 28.5288 41.9388 31.4566 41.9388 35.0769C41.9388 37.4567 40.6551 39.5192 38.7512 40.673C42.2272 41.4374 45.2848 43.399 47.434 46.1249C48.0541 46.9182 48.6165 47.7836 49.0781 48.7067Z" fill="#231F20"/>
<path d="M59.0819 13.9772C62.1431 13.9772 64.6246 11.4956 64.6246 8.43439C64.6246 5.37319 62.1431 2.8916 59.0819 2.8916C56.0207 2.8916 53.5391 5.37319 53.5391 8.43439C53.5391 11.4956 56.0207 13.9772 59.0819 13.9772Z" fill="white"/>
<path d="M64.6226 8.43301C64.6226 11.4907 62.1419 13.9715 59.0697 13.9715C56.7188 13.9715 54.7139 12.5148 53.9062 10.4523C54.5264 10.6974 55.2187 10.8272 55.9254 10.8272C58.9832 10.8272 61.4639 8.34648 61.4639 5.27435C61.4639 4.56764 61.3341 3.88971 61.0889 3.26953C63.1659 4.07721 64.6226 6.08203 64.6226 8.43301Z" fill="black"/>
<path d="M15.6256 72.1213C19.1424 72.1213 21.9934 69.2704 21.9934 65.7535C21.9934 62.2367 19.1424 59.3857 15.6256 59.3857C12.1088 59.3857 9.25781 62.2367 9.25781 65.7535C9.25781 69.2704 12.1088 72.1213 15.6256 72.1213Z" fill="white"/>
<path d="M21.9952 65.7504C21.9952 69.2696 19.1395 72.1254 15.6202 72.1254C12.5337 72.1254 9.93753 69.9042 9.375 66.962C10.4712 67.8129 11.8414 68.3322 13.3413 68.3322C16.8606 68.3322 19.7163 65.4908 19.7163 61.9716C19.7163 61.5678 19.6731 61.1639 19.601 60.7744C21.0577 61.9427 21.9952 63.7312 21.9952 65.7504Z" fill="black"/>
<path d="M7.48726 17.2846C10.0259 17.2846 12.0839 15.2266 12.0839 12.6879C12.0839 10.1493 10.0259 8.09131 7.48726 8.09131C4.94861 8.09131 2.89062 10.1493 2.89062 12.6879C2.89062 15.2266 4.94861 17.2846 7.48726 17.2846Z" fill="#C7C7C7"/>
<path d="M12.0835 12.6881C12.0835 15.2266 10.021 17.2891 7.48257 17.2891C5.57871 17.2891 3.9489 16.1353 3.24219 14.4766C3.79026 14.693 4.38158 14.8227 5.0162 14.8227C7.55467 14.8227 9.61716 12.7602 9.61716 10.2218C9.61716 9.58715 9.48739 8.99583 9.27102 8.44775C10.9297 9.15447 12.0835 10.7843 12.0835 12.6881Z" fill="#231F20"/>
<path d="M64.8627 58.8349C68.8687 58.8349 72.1161 55.5874 72.1161 51.5815C72.1161 47.5756 68.8687 44.3281 64.8627 44.3281C60.8568 44.3281 57.6094 47.5756 57.6094 51.5815C57.6094 55.5874 60.8568 58.8349 64.8627 58.8349Z" fill="white"/>
<path d="M72.1106 51.5871C72.1106 55.5824 68.8654 58.8276 64.8702 58.8276C61.5096 58.8276 58.6827 56.5487 57.875 53.4478C59.0721 54.342 60.5577 54.8612 62.1586 54.8612C66.1683 54.8612 69.4135 51.616 69.4135 47.6208C69.4135 46.9718 69.3269 46.3516 69.1539 45.7603C70.9423 47.0584 72.1106 49.193 72.1106 51.5871Z" fill="black"/>
<path d="M64.8557 42.8799C62.0144 42.8799 59.4759 44.2789 57.8894 46.3991L52.0337 43.3991C52.6682 41.5818 53.0288 39.6491 53.0288 37.6299C53.0288 32.5818 50.8798 28.0385 47.4759 24.8222L56.1442 14.7549C57.0384 15.1732 58.0336 15.4183 59.072 15.4183C62.9231 15.4183 66.0673 12.2886 66.0673 8.43763C66.0673 4.5866 62.9231 1.44238 59.0721 1.44238C55.2211 1.44238 52.0913 4.5866 52.0913 8.43763C52.0913 10.1972 52.7692 11.7837 53.8366 13.0097L45.2259 23.0049C42.4134 21.101 39.0385 19.9904 35.3894 19.9904C30.8605 19.9904 26.7355 21.7357 23.6058 24.5626L12.8317 15.4183C13.2644 14.5962 13.524 13.6731 13.524 12.6924C13.524 9.36064 10.8125 6.6491 7.48077 6.6491C4.14904 6.6491 1.4375 9.36064 1.4375 12.6924C1.4375 16.0241 4.14904 18.7212 7.48077 18.7212C8.77879 18.7212 9.97593 18.303 10.9567 17.6107L21.6154 26.6539C19.2212 29.6684 17.7644 33.4761 17.7644 37.6299C17.7644 42.9936 20.2251 47.8014 23.923 50.9713C23.8228 51.1185 18.3916 59.0994 18.7307 58.6011C17.7789 58.1828 16.7259 57.9376 15.6154 57.9376C11.3173 57.9376 7.81247 61.4424 7.81247 65.7549C7.81247 70.0674 11.3173 73.5578 15.6154 73.5578C19.9279 73.5578 23.4327 70.0674 23.4327 65.7549C23.4327 63.5915 22.5529 61.6299 21.1249 60.2164C21.225 60.0691 26.5983 52.1601 26.2596 52.6587C28.9279 54.2886 32.0432 55.2549 35.3894 55.2549C41.9839 55.2549 47.8581 51.5787 50.8798 46.0385L56.5769 48.9664C56.3029 49.7886 56.1731 50.6684 56.1731 51.577C56.1731 56.3799 60.0673 60.2741 64.8557 60.2741C69.6586 60.2741 73.5529 56.3799 73.5529 51.577C73.5529 46.7885 69.6586 42.8799 64.8557 42.8799ZM59.0721 4.327C61.3365 4.327 63.1827 6.1732 63.1827 8.43763C63.1827 10.702 61.3365 12.5337 59.0721 12.5337C56.8077 12.5337 54.976 10.702 54.976 8.43763C54.976 6.1732 56.8077 4.327 59.0721 4.327ZM7.48077 15.8366C5.73555 15.8366 4.32212 14.4232 4.32212 12.6924C4.32212 10.9472 5.73555 9.53372 7.48077 9.53372C9.2259 9.53372 10.6394 10.9472 10.6394 12.6924C10.6394 14.4232 9.2259 15.8366 7.48077 15.8366ZM15.6154 70.6732C12.9039 70.6732 10.6971 68.4665 10.6971 65.7549C10.6971 63.0434 12.9039 60.8222 15.6154 60.8222C18.3413 60.8222 20.5481 63.0434 20.5481 65.7549C20.5481 68.4665 18.3413 70.6732 15.6154 70.6732ZM35.3894 52.3703C27.2058 52.3703 20.6491 45.6793 20.6491 37.6299C20.6491 29.4953 27.2692 22.8751 35.3894 22.8751C43.524 22.8751 50.1442 29.4953 50.1442 37.6299C50.1442 45.7235 43.542 52.3703 35.3894 52.3703ZM64.8557 57.3895C61.6538 57.3895 59.0577 54.7789 59.0577 51.577C59.0577 48.375 61.6538 45.7645 64.8557 45.7645C68.0721 45.7645 70.6683 48.375 70.6683 51.577C70.6683 54.7789 68.0721 57.3895 64.8557 57.3895Z" fill="white"/>
</svg>
