<svg width="75" height="75" viewBox="0 0 75 75" fill="none" xmlns="http://www.w3.org/2000/svg">
<path d="M10.9375 20.312C10.9375 17.3999 10.9375 15.9444 11.4133 14.7948C11.7275 14.0365 12.188 13.3476 12.7685 12.7673C13.349 12.187 14.0381 11.7267 14.7965 11.4128C15.9449 10.937 17.4004 10.937 20.3125 10.937H24.2195C27.1316 10.937 28.5871 10.937 29.7355 11.4128C30.4939 11.7267 31.1831 12.187 31.7635 12.7673C32.344 13.3476 32.8045 14.0365 33.1187 14.7948C33.5945 15.9433 33.5945 17.3999 33.5945 20.312V24.2179C33.5945 27.13 33.5945 28.5866 33.1187 29.7351C32.4841 31.2664 31.2671 32.4829 29.7355 33.1171C28.5871 33.5929 27.1316 33.5929 24.2195 33.5929H20.3125C17.4004 33.5929 15.9449 33.5929 14.7965 33.1171C14.0381 32.8031 13.349 32.3429 12.7685 31.7626C12.188 31.1823 11.7275 30.4933 11.4133 29.7351C10.9375 28.5866 10.9375 27.13 10.9375 24.2179V20.312Z" fill="#00B852"/>
<path fill-rule="evenodd" clip-rule="evenodd" d="M20.257 9.375H24.2742C25.6828 9.375 26.8195 9.375 27.7453 9.43828C28.6957 9.50273 29.5371 9.63984 30.334 9.96914C32.2478 10.7624 33.7683 12.2832 34.5609 14.1973C34.8914 14.9941 35.0285 15.8355 35.093 16.7871C35.1562 17.7117 35.1562 18.8484 35.1562 20.257V24.2742C35.1562 25.6828 35.1562 26.8195 35.093 27.7453C35.0285 28.6957 34.8914 29.5371 34.5609 30.334C33.7681 32.2477 32.2477 33.7681 30.334 34.5609C29.5371 34.8914 28.6957 35.0285 27.7441 35.093C26.8195 35.1562 25.6828 35.1562 24.2742 35.1562H20.257C18.8484 35.1562 17.7117 35.1562 16.7859 35.093C15.8355 35.0285 14.9941 34.8914 14.1973 34.5609C12.2832 33.7683 10.7624 32.2478 9.96914 30.334C9.63984 29.5371 9.50273 28.6957 9.43828 27.7441C9.375 26.8207 9.375 25.684 9.375 24.2754V20.2582C9.375 18.8496 9.375 17.7129 9.43828 16.7871C9.50273 15.8367 9.63984 14.9953 9.96914 14.1984C10.7621 12.2842 12.283 10.7633 14.1973 9.97031C14.9941 9.64102 15.8355 9.50391 16.7871 9.43945C17.7105 9.375 18.8484 9.375 20.257 9.375ZM16.9992 12.5555C16.207 12.6094 15.7453 12.7113 15.3937 12.8566C14.825 13.0922 14.3082 13.4375 13.8728 13.8728C13.4375 14.3082 13.0922 14.825 12.8566 15.3937C12.7113 15.7453 12.6105 16.207 12.5555 16.9992C12.5004 17.8055 12.5004 18.8355 12.5004 20.3121V24.2191C12.5004 25.6957 12.5004 26.727 12.5555 27.532C12.6094 28.3242 12.7113 28.7859 12.8566 29.1375C13.0922 29.7063 13.4375 30.2231 13.8728 30.6584C14.3082 31.0937 14.825 31.439 15.3937 31.6746C15.7453 31.8199 16.207 31.9207 16.9992 31.9758C17.8055 32.0309 18.8355 32.0309 20.3121 32.0309H24.2191C25.6957 32.0309 26.727 32.0309 27.532 31.9758C28.3242 31.9219 28.7859 31.8199 29.1375 31.6746C29.7063 31.439 30.2231 31.0937 30.6584 30.6584C31.0937 30.2231 31.439 29.7063 31.6746 29.1375C31.8199 28.7859 31.9207 28.3242 31.9758 27.532C32.0309 26.7258 32.0309 25.6957 32.0309 24.2191V20.3121C32.0309 18.8355 32.0309 17.8043 31.9758 16.9992C31.9219 16.207 31.8199 15.7453 31.6746 15.3937C31.439 14.825 31.0937 14.3082 30.6584 13.8728C30.2231 13.4375 29.7063 13.0922 29.1375 12.8566C28.7859 12.7113 28.3242 12.6105 27.532 12.5555C26.7258 12.5004 25.6957 12.5004 24.2191 12.5004H20.3121C18.8355 12.5004 17.8043 12.5004 16.9992 12.5555Z" fill="#00B852"/>
<path d="M14.9877 42.3435L14.9879 42.3435C15.491 42.135 16.0812 42.0218 16.9272 41.9641C17.7776 41.906 18.8496 41.9058 20.3125 41.9058H24.2195C25.6824 41.9058 26.7544 41.906 27.6049 41.9641C28.4508 42.0218 29.041 42.135 29.5442 42.3435L29.5443 42.3435C30.242 42.6323 30.876 43.0558 31.4101 43.5897C31.9441 44.1235 32.3678 44.7573 32.6568 45.4549C32.8653 45.9581 32.9785 46.5485 33.0362 47.3948C33.0943 48.2456 33.0945 49.3179 33.0945 50.7808V54.6866C33.0945 56.1495 33.0943 57.2218 33.0362 58.0726C32.9785 58.9188 32.8653 59.5093 32.6568 60.0124C32.0729 61.4212 30.9533 62.5404 29.5443 63.1239L29.5442 63.1239C29.041 63.3324 28.4508 63.4456 27.6049 63.5033C26.7544 63.5613 25.6824 63.5616 24.2195 63.5616H20.3125C18.8496 63.5616 17.7776 63.5613 16.9272 63.5033C16.0812 63.4456 15.491 63.3324 14.9879 63.1239L14.9877 63.1239C14.29 62.835 13.656 62.4116 13.122 61.8777C12.5879 61.3439 12.1643 60.71 11.8752 60.0124C11.6668 59.5093 11.5535 58.9188 11.4958 58.0726C11.4378 57.2218 11.4375 56.1495 11.4375 54.6866V50.7808C11.4375 49.3179 11.4378 48.2459 11.4958 47.3953C11.5535 46.5493 11.6667 45.9588 11.8752 45.455C12.1643 44.7574 12.5879 44.1235 13.122 43.5897C13.656 43.0558 14.29 42.6323 14.9877 42.3435Z" fill="#D0D2E0" stroke="black"/>
<path d="M27.7115 40.4059L27.7112 40.4059C26.8063 40.344 25.6891 40.3438 24.2742 40.3438H20.257C18.842 40.3438 17.724 40.344 16.8219 40.407L16.8209 40.4071C15.8953 40.4698 15.1145 40.6011 14.3885 40.9011C12.5968 41.6433 11.1733 43.0667 10.4311 44.8584C10.1311 45.5845 9.99983 46.3653 9.93714 47.2897L9.93712 47.29C9.87526 48.1949 9.875 49.3121 9.875 50.727V54.7441C9.875 56.1591 9.87526 57.2762 9.93711 58.1787L9.93714 58.1791C9.99984 59.1048 10.1312 59.8857 10.4312 60.6118C11.1735 62.4034 12.597 63.8268 14.3886 64.5689C15.1146 64.8689 15.8954 65.0002 16.8198 65.0629L16.82 65.0629C17.725 65.1247 18.8421 65.125 20.257 65.125H24.2742C25.6891 65.125 26.8063 65.1247 27.71 65.0629L27.7104 65.0629C28.636 65.0002 29.4169 64.8688 30.143 64.5688L27.7115 40.4059ZM27.7115 40.4059C28.6359 40.4686 29.4168 40.5999 30.1429 40.8999M27.7115 40.4059L30.1429 40.8999M30.1429 40.8999C31.9341 41.6423 33.3572 43.0658 34.099 44.8573L34.0991 44.8576C34.4001 45.5833 34.5314 46.3639 34.5941 47.2896L34.5941 47.29C34.656 48.1937 34.6562 49.3109 34.6562 50.7258V54.743C34.6562 56.1579 34.656 57.275 34.5941 58.18L34.5941 58.1802C34.5314 59.1048 34.4001 59.8854 34.0991 60.6112L34.099 60.6114C33.3572 62.4029 31.9342 63.8264 30.143 64.5688L30.1429 40.8999ZM27.5662 62.9434C28.3842 62.8877 28.9063 62.7799 29.3285 62.6054L29.3288 62.6053C29.9583 62.3446 30.5302 61.9625 31.012 61.4807C31.4937 60.999 31.8759 60.427 32.1366 59.7976L32.1367 59.7972C32.3114 59.3746 32.4178 58.8523 32.4746 58.0355L32.4746 58.0349C32.5309 57.2116 32.5309 56.1674 32.5309 54.7095V54.6879V50.7809V50.7591C32.5309 49.3013 32.5309 48.256 32.4746 47.4338M27.5662 62.9434L32.4746 47.4338M27.5662 62.9434C26.744 62.9996 25.6987 62.9996 24.2409 62.9996M27.5662 62.9434L24.2409 62.9996M32.4746 47.4338C32.4746 47.4339 32.4746 47.434 32.4746 47.434L31.9758 47.468L32.4746 47.4338ZM32.4746 47.4338C32.4189 46.6158 32.3112 46.0937 32.1367 45.6715L32.1366 45.6712C31.8759 45.0417 31.4937 44.4698 31.012 43.988C30.5302 43.5063 29.9583 43.1241 29.3288 42.8634L29.3285 42.8633C28.9059 42.6886 28.3835 42.5822 27.5667 42.5254L27.5661 42.5254C26.7428 42.4691 25.6986 42.4691 24.2407 42.4691H24.2191H20.3121H20.2904C18.8327 42.4691 17.7874 42.4691 16.9653 42.5254L32.4746 47.4338ZM15.2024 42.8634L15.2028 42.8633C15.6249 42.6888 16.1471 42.5811 16.9651 42.5254L15.2024 42.8634ZM15.2024 42.8634C14.573 43.1241 14.001 43.5063 13.5193 43.988C13.0375 44.4698 12.6554 45.0417 12.3947 45.6712L12.3946 45.6715M15.2024 42.8634L12.3946 45.6715M12.3946 45.6715C12.2199 46.0941 12.1135 46.6165 12.0567 47.4333L12.0566 47.4339M12.3946 45.6715L12.0566 47.4339M12.0566 47.4339C12.0004 48.2572 12.0004 49.3014 12.0004 50.7592M12.0566 47.4339L12.0004 50.7592M12.3947 59.7976L12.3946 59.7972C12.22 59.375 12.1123 58.8529 12.0566 58.0349L12.3947 59.7976ZM12.3947 59.7976C12.6554 60.427 13.0375 60.999 13.5193 61.4807C14.001 61.9625 14.573 62.3446 15.2024 62.6053L15.2028 62.6054M12.3947 59.7976L15.2028 62.6054M15.2028 62.6054C15.6254 62.7801 16.1477 62.8865 16.9645 62.9433L16.9651 62.9434M15.2028 62.6054L16.9651 62.9434M16.9651 62.9434C17.7884 62.9996 18.8326 62.9996 20.2905 62.9996M16.9651 62.9434L20.2905 62.9996M12.0004 50.7592V50.7809M12.0004 50.7592V50.7809M12.0004 50.7809V54.6879M12.0004 50.7809V54.6879M12.0004 54.6879V54.7096M12.0004 54.6879V54.7096M12.0004 54.7096C12.0004 56.1673 12.0004 57.2126 12.0566 58.0347L12.0004 54.7096ZM20.2905 62.9996H20.3121M20.2905 62.9996H20.3121M20.3121 62.9996H24.2191M20.3121 62.9996H24.2191M24.2191 62.9996H24.2409M24.2191 62.9996H24.2409M13.8728 44.3416C13.4375 44.7769 13.0922 45.2937 12.8566 45.8625L24.2191 42.9691H20.3121C18.8355 42.9691 17.8043 42.9691 16.9992 43.0242C16.207 43.0781 15.7453 43.1801 15.3937 43.3254C14.825 43.561 14.3082 43.9063 13.8728 44.3416Z" fill="#D0D2E0" stroke="black"/>
<path d="M41.4062 20.312C41.4062 17.3999 41.4062 15.9444 41.882 14.7948C42.1962 14.0365 42.6567 13.3476 43.2372 12.7673C43.8177 12.187 44.5068 11.7267 45.2652 11.4128C46.4137 10.937 47.8691 10.937 50.7812 10.937H54.6883C57.6004 10.937 59.0559 10.937 60.2043 11.4128C60.9627 11.7267 61.6518 12.187 62.2323 12.7673C62.8128 13.3476 63.2733 14.0365 63.5875 14.7948C64.0633 15.9433 64.0633 17.3999 64.0633 20.312V24.2179C64.0633 27.13 64.0633 28.5866 63.5875 29.7351C62.9528 31.2664 61.7359 32.4829 60.2043 33.1171C59.0559 33.5929 57.6004 33.5929 54.6883 33.5929H50.7812C47.8691 33.5929 46.4137 33.5929 45.2652 33.1171C43.7337 32.4829 42.5167 31.2664 41.882 29.7351C41.4062 28.5866 41.4062 27.13 41.4062 24.2179V20.312Z" fill="#D0D2E0"/>
<path d="M58.1802 9.93714L58.18 9.93712C57.275 9.87526 56.1579 9.875 54.743 9.875H50.7258C49.3107 9.875 48.1928 9.87527 47.2907 9.93824L47.2896 9.93831C46.3641 10.001 45.5833 10.1323 44.8572 10.4323C43.0656 11.1745 41.6421 12.598 40.8999 14.3897C40.5999 15.1157 40.4686 15.8966 40.4059 16.8209L40.4059 16.8212C40.344 17.7261 40.3438 18.8433 40.3438 20.2582V24.2754C40.3438 25.6903 40.344 26.8074 40.4059 27.71L40.4059 27.7104C40.4686 28.636 40.5999 29.4168 40.8999 30.1429C41.6423 31.9341 43.0658 33.3572 44.8573 34.099L44.8576 34.0991C45.5834 34.4001 46.364 34.5314 47.2885 34.5941L47.2888 34.5941C48.1937 34.656 49.3109 34.6562 50.7258 34.6562H54.743C56.1579 34.6562 57.275 34.656 58.1788 34.5941L58.1791 34.5941C59.1048 34.5314 59.8854 34.4001 60.6112 34.0991L60.6114 34.099C62.4029 33.3572 63.8264 31.9342 64.5688 30.143L58.1802 9.93714ZM58.1802 9.93714C59.1046 9.99982 59.8854 10.1311 60.6114 10.4311L58.1802 9.93714ZM64.5689 14.3886C63.8268 12.597 62.4034 11.1735 60.6118 10.4312L64.5689 14.3886ZM64.5689 14.3886C64.8689 15.1146 65.0002 15.8954 65.0629 16.8209L65.0629 16.8212C65.1247 17.725 65.125 18.8421 65.125 20.257V24.2742C65.125 25.6891 65.1247 26.8063 65.0629 27.7112L65.0629 27.7115C65.0002 28.636 64.8688 29.4168 64.5688 30.143L64.5689 14.3886ZM45.6712 12.3947L45.6715 12.3946C46.0937 12.22 46.6158 12.1123 47.4338 12.0566L45.6712 12.3947ZM45.6712 12.3947C45.0417 12.6554 44.4698 13.0375 43.988 13.5193C43.5063 14.001 43.1241 14.573 42.8634 15.2024L42.8633 15.2028M45.6712 12.3947L42.8633 15.2028M42.8633 15.2028C42.6886 15.6254 42.5822 16.1477 42.5254 16.9645L42.5254 16.9651M42.8633 15.2028L42.5254 16.9651M42.5254 16.9651C42.4691 17.7885 42.4691 18.8327 42.4691 20.2905M42.5254 16.9651L42.4691 20.2905M42.8634 29.3288L42.8633 29.3285C42.6888 28.9063 42.5811 28.3842 42.5254 27.5662L42.8634 29.3288ZM42.8634 29.3288C43.1241 29.9583 43.5063 30.5302 43.988 31.012C44.4698 31.4937 45.0417 31.8759 45.6712 32.1366L45.6715 32.1367M42.8634 29.3288L45.6715 32.1367M45.6715 32.1367C46.0941 32.3114 46.6165 32.4178 47.4333 32.4746L47.4339 32.4746L45.6715 32.1367ZM59.7976 32.1366L59.7972 32.1367C59.375 32.3112 58.8529 32.4189 58.0349 32.4746C58.0348 32.4746 58.0348 32.4746 58.0347 32.4746L58.0008 31.9758L59.7976 32.1366ZM59.7976 32.1366C60.427 31.8759 60.999 31.4937 61.4807 31.012C61.9625 30.5302 62.3446 29.9583 62.6053 29.3288L62.6054 29.3285M59.7976 32.1366L62.6054 29.3285M62.6054 29.3285C62.7801 28.9059 62.8865 28.3835 62.9433 27.5667L62.9434 27.5661L62.6054 29.3285ZM62.6053 15.2024L62.6054 15.2028C62.7799 15.6249 62.8877 16.1471 62.9434 16.9651C62.9434 16.9652 62.9434 16.9652 62.9434 16.9653L62.4445 16.9992L62.6053 15.2024ZM62.6053 15.2024C62.3446 14.573 61.9625 14.001 61.4807 13.5193C60.999 13.0375 60.427 12.6554 59.7976 12.3947L59.7972 12.3946M62.6053 15.2024L59.7972 12.3946M59.7972 12.3946C59.3746 12.2199 58.8523 12.1135 58.0355 12.0567L58.0349 12.0566M59.7972 12.3946L58.0349 12.0566M58.0349 12.0566C57.2116 12.0004 56.1674 12.0004 54.7096 12.0004M58.0349 12.0566L54.7096 12.0004M42.4691 20.2905V20.3121M42.4691 20.2905V20.3121M42.4691 20.3121V24.2191M42.4691 20.3121V24.2191M42.4691 24.2191V24.2408M42.4691 24.2191V24.2408M42.4691 24.2408C42.4691 25.6985 42.4691 26.7438 42.5254 27.566L42.4691 24.2408ZM54.7096 12.0004H54.6879M54.7096 12.0004H54.6879M54.6879 12.0004H50.7809M54.6879 12.0004H50.7809M50.7809 12.0004H50.7591M50.7809 12.0004H50.7591M50.7591 12.0004C49.3015 12.0004 48.2561 12.0004 47.434 12.0566L50.7591 12.0004Z" fill="#D0D2E0" stroke="black"/>
<path d="M45.4565 42.3435L45.4566 42.3435C45.9597 42.135 46.5499 42.0218 47.3959 41.9641C48.2464 41.906 49.3184 41.9058 50.7812 41.9058H54.6883C56.1512 41.9058 57.2232 41.906 58.0736 41.9641C58.9196 42.0218 59.5098 42.135 60.0129 42.3435L60.0131 42.3435C60.7108 42.6323 61.3448 43.0558 61.8788 43.5897L62.2155 43.2529L61.8788 43.5897C62.4129 44.1235 62.8365 44.7573 63.1256 45.4549C63.334 45.9581 63.4472 46.5485 63.505 47.3948C63.563 48.2456 63.5633 49.3179 63.5633 50.7808V54.6866C63.5633 56.1495 63.563 57.2218 63.505 58.0726C63.4472 58.9188 63.334 59.5093 63.1256 60.0124C62.5417 61.4212 61.4221 62.5404 60.013 63.1239L60.0129 63.1239C59.5098 63.3324 58.9196 63.4456 58.0736 63.5033C57.2232 63.5613 56.1512 63.5616 54.6883 63.5616H50.7812C49.3184 63.5616 48.2464 63.5613 47.3959 63.5033C46.5499 63.4456 45.9597 63.3324 45.4566 63.1239L45.4565 63.1239C44.0475 62.5405 42.9279 61.4213 42.344 60.0124C42.1355 59.5093 42.0223 58.9188 41.9646 58.0726C41.9065 57.2218 41.9062 56.1495 41.9062 54.6866V50.7808C41.9062 49.3179 41.9065 48.2459 41.9646 47.3953C42.0223 46.5493 42.1355 45.9588 42.3439 45.455C42.633 44.7574 43.0567 44.1235 43.5907 43.5897C44.1248 43.0558 44.7588 42.6323 45.4565 42.3435Z" fill="#00B852" stroke="black"/>
<path fill-rule="evenodd" clip-rule="evenodd" d="M50.7258 39.8438H54.743C56.1516 39.8438 57.2883 39.8438 58.2141 39.907C59.1645 39.9715 60.0059 40.1086 60.8027 40.4379C61.7506 40.8305 62.6119 41.4059 63.3374 42.1314C64.0628 42.8569 64.6383 43.7181 65.0309 44.666C65.3602 45.4629 65.4973 46.3043 65.5617 47.2559C65.625 48.1805 65.625 49.3172 65.625 50.7258V54.743C65.625 56.1516 65.625 57.2883 65.5617 58.2141C65.4973 59.1645 65.3602 60.0059 65.0309 60.8027C64.6383 61.7506 64.0628 62.6119 63.3374 63.3374C62.6119 64.0628 61.7506 64.6383 60.8027 65.0309C60.0059 65.3602 59.1645 65.4973 58.2129 65.5617C57.2883 65.625 56.1516 65.625 54.743 65.625H50.7258C49.3172 65.625 48.1805 65.625 47.2547 65.5617C46.3043 65.4973 45.4629 65.3602 44.666 65.0309C43.7181 64.6383 42.8569 64.0628 42.1314 63.3374C41.4059 62.6119 40.8305 61.7506 40.4379 60.8027C40.1086 60.0059 39.9715 59.1645 39.907 58.2129C39.8438 57.2895 39.8438 56.1527 39.8438 54.7441V50.727C39.8438 49.3184 39.8438 48.1816 39.907 47.2559C39.9715 46.3055 40.1086 45.4641 40.4379 44.6672C40.8305 43.7193 41.4059 42.858 42.1314 42.1326C42.8569 41.4071 43.7181 40.8316 44.666 40.4391C45.4629 40.1098 46.3043 39.9727 47.2559 39.9082C48.1793 39.8438 49.3172 39.8438 50.7258 39.8438ZM47.468 43.0242C46.6758 43.0781 46.2141 43.1801 45.8625 43.3254C45.2937 43.561 44.7769 43.9063 44.3416 44.3416C43.9063 44.7769 43.561 45.2937 43.3254 45.8625C43.1801 46.2141 43.0793 46.6758 43.0242 47.468C42.9691 48.2742 42.9691 49.3043 42.9691 50.7809V54.6879C42.9691 56.1645 42.9691 57.1957 43.0242 58.0008C43.0781 58.793 43.1801 59.2547 43.3254 59.6062C43.561 60.175 43.9063 60.6918 44.3416 61.1272C44.7769 61.5625 45.2937 61.9078 45.8625 62.1434C46.2141 62.2887 46.6758 62.3895 47.468 62.4445C48.2742 62.4996 49.3043 62.4996 50.7809 62.4996H54.6879C56.1645 62.4996 57.1957 62.4996 58.0008 62.4445C58.793 62.3906 59.2547 62.2887 59.6062 62.1434C60.175 61.9078 60.6918 61.5625 61.1272 61.1272C61.5625 60.6918 61.9078 60.175 62.1434 59.6062C62.2887 59.2547 62.3895 58.793 62.4445 58.0008C62.4996 57.1945 62.4996 56.1645 62.4996 54.6879V50.7809C62.4996 49.3043 62.4996 48.273 62.4445 47.468C62.3906 46.6758 62.2887 46.2141 62.1434 45.8625C61.9078 45.2937 61.5625 44.7769 61.1272 44.3416C60.6918 43.9063 60.175 43.561 59.6062 43.3254C59.2547 43.1801 58.793 43.0793 58.0008 43.0242C57.1945 42.9691 56.1645 42.9691 54.6879 42.9691H50.7809C49.3043 42.9691 48.273 42.9691 47.468 43.0242Z" fill="#00B852"/>
</svg>
