<svg width="76" height="76" viewBox="0 0 76 76" fill="none" xmlns="http://www.w3.org/2000/svg">
<path d="M71.5451 53.1267C71.5595 53.0978 71.5739 53.0257 71.5739 52.8815C71.4701 55.6723 71.8032 56.4036 71.1412 57.6555C70.9292 58.1098 70.3883 58.8021 69.6268 59.3733C69.5114 59.4887 69.3816 59.5897 69.2374 59.6618C69.0787 59.7916 68.9056 59.8781 68.7326 59.9935C68.5306 60.1089 68.3287 60.2098 68.0979 60.3252C67.9826 60.3829 67.8528 60.455 67.7085 60.5127C67.3479 60.6714 66.9874 60.8156 66.598 60.931C66.4681 60.9743 66.3383 61.0175 66.1941 61.0464C65.8335 61.1618 65.4585 61.2483 65.0691 61.3348C64.9393 61.3637 64.7951 61.3781 64.6653 61.407C64.2903 61.4791 63.9282 61.5223 63.5532 61.5512C63.4234 61.5656 63.2792 61.58 63.1638 61.58C62.7744 61.6377 62.3994 61.6521 62.0244 61.6521H61.635C61.2455 61.6521 60.8705 61.6089 60.51 61.58C60.3802 61.58 60.2504 61.5656 60.1205 61.5512C59.7455 61.5223 59.3561 61.4647 58.9811 61.3925C58.8513 61.3781 58.7215 61.3493 58.5917 61.3204C58.2167 61.2339 57.8273 61.1473 57.4653 61.032C57.3319 61.0069 57.2014 60.9682 57.0758 60.9166C56.6864 60.8012 56.3114 60.657 55.9364 60.4839C55.8066 60.4406 55.6768 60.3685 55.547 60.3108C55.5066 60.2877 54.7393 59.8824 54.4364 59.6618C54.2922 59.5608 54.1624 59.4743 54.0326 59.3589C53.5855 59.0271 53.196 58.6521 52.922 58.2627C52.758 58.0767 52.6219 57.8678 52.5181 57.6425C51.8201 56.3517 52.1835 55.6175 52.0999 52.8238L52.1013 52.8815C52.0999 52.73 52.1013 52.5772 52.1129 52.4199V52.3911C52.0984 52.2469 52.084 52.1171 52.084 51.9728L52.0984 49.0017V48.8142L52.1013 48.8906C52.0667 47.4267 53.0129 45.957 54.9268 44.8464C58.7201 42.6541 64.8802 42.6541 68.6893 44.8464C70.7085 46.0146 71.6604 47.5723 71.5451 49.1012C71.5595 49.0868 71.5739 49.0146 71.5739 48.8704C71.5739 48.8848 71.5595 53.03 71.5451 53.1267Z" fill="#0A8D12"/>
<path d="M60.1209 40.7638C59.394 41.185 51.3416 45.8407 50.6147 46.259C50.6147 47.423 50.6248 47.5383 50.5858 47.6739C50.6002 47.6883 50.6002 47.7028 50.5858 47.7172C50.6565 48.1398 50.6175 51.5292 50.6002 51.6114C50.6147 51.7412 50.6291 51.871 50.6291 52.0008L50.6147 55.1609C50.6147 55.2619 50.6147 55.3629 50.5858 55.4638C50.6002 55.4783 50.6002 55.4927 50.5858 55.5071C50.6637 55.9773 50.6147 56.0422 50.6147 59.1706C50.6147 59.2427 50.6147 59.3292 50.6002 59.4013C50.6147 59.5326 50.6291 59.6609 50.6291 59.7922L50.6147 62.9508C50.6147 63.0518 50.6147 63.1672 50.5858 63.2682C50.6608 63.4196 50.6103 65.772 50.6147 66.9619C50.6147 67.5244 50.4704 68.0725 50.1964 68.5917C50.0954 68.7936 49.9656 68.9956 49.807 69.1831C49.5185 69.5869 49.1435 69.9619 48.6964 70.3081C48.5666 70.4234 48.4368 70.51 48.2926 70.5965C48.1339 70.7119 47.9608 70.8129 47.7877 70.9283C47.5858 71.0292 47.3839 71.1446 47.1675 71.2456C47.0377 71.3177 46.9079 71.3754 46.7637 71.4475C46.4031 71.6061 46.0425 71.7359 45.6531 71.8657C45.5233 71.8946 45.3935 71.9523 45.2493 71.9811C44.8887 72.0821 44.5123 72.1845 44.1228 72.2552C43.993 72.2984 43.8488 72.3129 43.7334 72.3432C43.344 72.4008 42.9834 72.4441 42.6084 72.4874C42.4786 72.5018 42.3344 72.5162 42.219 72.5162C41.8296 72.5595 41.4546 72.5739 41.0796 72.5739H40.6901C40.3151 72.5739 39.9257 72.5451 39.5651 72.5162C39.4498 72.5162 39.3055 72.5018 39.1757 72.4874C38.8007 72.4441 38.4257 72.3864 38.0349 72.3287C37.9195 72.3143 37.7752 72.271 37.6454 72.2422C37.2704 72.1701 36.8954 72.0691 36.5204 71.9681C36.3906 71.9249 36.2608 71.896 36.131 71.8528C35.7416 71.723 35.3666 71.5787 35.006 71.4057C34.8618 71.3624 34.732 71.3047 34.6022 71.2326C34.4002 71.1316 34.2127 71.0307 34.0252 70.9297C33.8377 70.8143 33.6502 70.6989 33.4916 70.598C33.3474 70.497 33.2175 70.4105 33.0877 70.2951C32.6406 69.9633 32.2656 69.5883 31.9772 69.1845C31.8185 68.997 31.6743 68.7951 31.5863 68.5787C31.2834 68.0451 31.1392 67.4826 31.1392 66.9201L31.1536 63.76C31.1536 63.6446 31.1536 63.5148 31.1825 63.3994C31.1031 62.9653 31.1536 59.6249 31.168 59.547C31.1118 58.9888 31.1536 59.2989 31.1536 57.4989L22.6281 62.4316V62.4172L4.4363 51.8581L4.42188 46.3037L5.7488 45.5393L4.4363 44.7749L4.42188 39.235L5.7488 38.4706L4.4363 37.7061L4.42188 32.1518L5.7488 31.3874L4.4363 30.623L4.42188 25.0686L8.63341 22.6456L15.6171 18.6056L29.5959 10.5258L33.1584 8.46334H33.1728L33.6344 8.1893L37.7161 5.83834C37.7161 5.83834 37.7305 5.83834 37.7305 5.85276L41.9305 3.42969L46.6901 6.19892L55.3469 11.2182L60.1065 13.9874H60.1209V19.5287L58.7796 20.3076L60.1065 21.072H60.1209V26.6105L58.794 27.3749L60.1065 28.1407H60.1209V33.6936L58.794 34.4595L60.1065 35.2239H60.1209V40.7638Z" fill="#0A8D12"/>
<path d="M4.42969 46.3062L4.44699 51.8547L22.6331 62.4239L22.6157 56.8754L4.42969 46.3062Z" fill="#52CC99"/>
<path d="M60.1218 35.2251V40.7664C51.2703 45.8794 31.4804 57.3126 22.6261 62.4256L22.6016 56.8842L26.8102 54.4366L50.7958 40.6092L51.4073 40.266V40.2414L51.8977 39.9732L55.9102 37.6482L60.1203 35.2251H60.1218Z" fill="#52CC99"/>
<path d="M4.42969 46.3063L22.6157 56.8755L60.1129 35.225L41.9268 24.6572L4.42969 46.3063Z" fill="#0A8D12"/>
<path d="M55.9108 37.6449L26.8137 54.4478C24.18 52.9074 20.1748 52.7603 17.857 54.1132L9.19591 49.068C11.5325 47.7338 11.2728 45.416 8.64062 43.8757L37.7175 27.0742C40.3512 28.6132 44.3752 28.7617 46.693 27.4276L55.3541 32.4526C53.0363 33.7882 53.2772 36.1247 55.9108 37.6449Z" fill="#6EBA9A"/>
<path d="M41.4653 33.3585C40.4485 33.9469 40.4312 34.883 41.4422 35.4714C42.4547 36.0599 44.0716 36.0527 45.0898 35.4642C46.0966 34.883 46.1139 33.9469 45.1014 33.3585C44.0903 32.7714 42.472 32.7787 41.4653 33.3585ZM19.1615 46.1777C18.1547 46.7589 18.1374 47.695 19.1499 48.2835C20.161 48.8705 21.7778 48.8647 22.7845 48.2835C23.8028 47.695 23.8201 46.7589 22.8076 46.1705C21.7966 45.5835 20.1797 45.5892 19.1615 46.1777ZM39.4086 44.8363C36.2744 46.6537 30.6004 46.2455 26.6499 43.9464C22.7182 41.6647 22.0331 38.3647 25.1485 36.5647C28.2451 34.7662 33.9566 35.1743 37.9071 37.4546C41.8389 39.7363 42.5066 43.0551 39.4086 44.8363Z" fill="#0A8D12"/>
<path d="M37.6177 41.9764C37.811 41.7457 37.9076 41.5135 37.9264 41.2827C37.9653 40.762 37.6769 40.299 37.0019 39.8937C36.3386 39.5194 35.5833 39.3395 34.8225 39.3745C34.0509 39.412 33.1264 39.624 32.0259 40.0091L31.9884 40.0293L31.7374 39.8937V39.875L29.8278 38.776C30.5028 38.4875 31.2557 38.2928 32.1427 38.1976L31.8543 37.1562C30.5807 37.2904 29.4817 37.5803 28.5744 38.0433L27.9773 37.7144L27.2446 38.1385L27.823 38.4673C27.0903 38.9288 26.7052 39.412 26.685 39.9327C26.6628 40.1413 26.7105 40.3513 26.8206 40.5298C26.9547 40.7995 27.2057 41.0505 27.611 41.2827C27.9384 41.4745 28.2658 41.6101 28.6134 41.6865H28.6321C28.9797 41.7832 29.3461 41.8221 29.7139 41.8019C30.4639 41.7644 31.3898 41.5712 32.4687 41.1673L34.7071 42.4582C33.8966 42.8043 32.8942 42.9976 31.6985 43.0365L31.8341 44.1168C33.435 44.0591 34.8038 43.7505 35.9591 43.1909L36.8086 43.6726L37.5413 43.2486L36.7119 42.787C37.1158 42.5159 37.4259 42.2462 37.6177 41.9764ZM30.8692 40.3755C30.8504 40.3957 30.8317 40.3957 30.8317 40.3957C30.3485 40.5298 29.9821 40.6077 29.7326 40.6077C29.424 40.6077 29.1528 40.5298 28.8831 40.3769C28.7948 40.3274 28.7166 40.2619 28.6523 40.1837C28.6034 40.1416 28.5669 40.087 28.5465 40.0258C28.5262 39.9646 28.5229 39.899 28.5369 39.8361C28.5369 39.624 28.749 39.412 29.0562 39.1798L30.6773 40.1245L30.9845 40.2976L31.0047 40.3178L31.0437 40.338C30.986 40.3567 30.9268 40.3755 30.8692 40.3755ZM36.0369 41.3779C35.9793 41.5913 35.8062 41.8221 35.4773 42.0529L33.3961 40.8587C33.6845 40.762 33.9543 40.6856 34.1865 40.6452C34.4172 40.5875 34.6105 40.5687 34.7836 40.5687C35.111 40.5687 35.4196 40.6264 35.6908 40.7808C35.9028 40.8962 36.0182 41.0692 36.0369 41.2423V41.3779Z" fill="#6EBA9A"/>
<path d="M51.8895 39.9574L47.854 42.3026L29.6016 31.7651L33.6371 29.4199L51.8895 39.9574Z" fill="#E4F4ED"/>
<path d="M51.8875 39.9574L51.4087 40.2358L33.1562 29.6983L33.6351 29.4199L51.8875 39.9574Z" fill="#60F9B9"/>
<path d="M51.8978 39.9473V45.5146L47.8594 47.8396V42.2982L50.7974 40.6093L51.4089 40.2415L51.8993 39.9487L51.8978 39.9473Z" fill="#CADDD5"/>
<path d="M51.8952 39.9482V45.5141L51.4062 45.8069V40.241L51.8952 39.9482Z" fill="#60F9B9"/>
<path d="M4.42969 39.2285L4.44699 44.7771L22.6331 55.3449L22.6157 49.7963L4.42969 39.2285Z" fill="#52CC99"/>
<path d="M60.1203 28.1465V33.6878L51.8963 38.4359L51.4073 38.7301L22.6261 55.3484L22.6016 49.8071L26.8102 47.3595L47.8592 35.2196L49.352 34.3628L50.7943 33.5306L51.4073 33.1888V33.1643L51.8977 32.8946L55.9102 30.5696L60.1203 28.1465Z" fill="#52CC99"/>
<path d="M4.42969 39.2291L22.6157 49.7969L60.1129 28.1479L41.9268 17.5801L4.42969 39.2291Z" fill="#0A8D12"/>
<path d="M55.9108 30.5677L26.8137 47.3692C24.18 45.8302 20.1748 45.6817 17.857 47.0345L9.19591 41.9908C11.5325 40.6552 11.2728 38.3374 8.64062 36.7985L37.7175 19.9956C40.3512 21.536 44.3752 21.6845 46.693 20.349L55.3541 25.3754C53.0363 26.7095 53.2772 29.0461 55.9108 30.5677Z" fill="#6EBA9A"/>
<path d="M41.4589 26.2814C40.4421 26.8699 40.4248 27.8059 41.4359 28.3944C42.4484 28.9814 44.0652 28.9742 45.0835 28.3872C46.0902 27.8059 46.1075 26.8699 45.095 26.2814C44.0839 25.693 42.4657 25.7002 41.4589 26.2814ZM19.1536 39.0992C18.1469 39.679 18.1296 40.6165 19.1421 41.205C20.1532 41.792 21.77 41.7848 22.7767 41.205C23.795 40.6165 23.8123 39.6805 22.7998 39.092C21.7887 38.5035 20.1719 38.5107 19.1536 39.0992ZM39.4008 37.7579C36.2666 39.5752 30.5926 39.1656 26.6421 36.8665C22.7104 34.5862 22.0253 31.2848 25.1407 29.4862C28.2373 27.6877 33.9488 28.0958 37.8993 30.3761C41.831 32.6564 42.4988 35.9766 39.4008 37.7564V37.7579Z" fill="#0A8D12"/>
<path d="M37.6178 34.8993C37.8111 34.6671 37.9078 34.4363 37.9265 34.2041C37.9654 33.6848 37.677 33.2204 37.002 32.8166C36.3389 32.4417 35.5836 32.2612 34.8227 32.2959C34.051 32.3334 33.1265 32.5454 32.026 32.9305L31.9885 32.9507L31.7376 32.8166V32.7964L29.8279 31.6973C30.5029 31.4089 31.2558 31.2156 32.1428 31.1204L31.8544 30.0776C30.5808 30.2132 29.4818 30.5017 28.5746 30.9647L27.9775 30.6373L27.2448 31.0613L27.8231 31.3887C27.0904 31.8517 26.7053 32.3334 26.6852 32.8541C26.6626 33.0631 26.7103 33.2737 26.8207 33.4526C26.9549 33.7223 27.2058 33.9719 27.6111 34.2041C27.9385 34.3973 28.2659 34.5315 28.6135 34.6079H28.6323C28.9799 34.706 29.3462 34.7449 29.714 34.7248C30.464 34.6858 31.39 34.494 32.4688 34.0887L34.7073 35.381C33.8967 35.7272 32.8943 35.9204 31.6986 35.9579L31.8342 37.0397C33.4352 36.982 34.8039 36.6719 35.9592 36.1137L36.8087 36.5954L37.5414 36.1714L36.7121 35.7084C37.1159 35.4387 37.426 35.1704 37.6178 34.8993ZM30.8693 33.2983C30.8505 33.3171 30.8318 33.3171 30.8318 33.3171C30.3486 33.4526 29.9823 33.5291 29.7328 33.5291C29.4241 33.5291 29.1529 33.4526 28.8832 33.2983C28.795 33.2488 28.7167 33.1833 28.6525 33.105C28.6038 33.0631 28.5674 33.0088 28.5471 32.9479C28.5268 32.8869 28.5233 32.8216 28.5371 32.7589C28.5371 32.5454 28.7491 32.3334 29.0563 32.1026L30.6775 33.0473L30.9847 33.2204L31.0049 33.2406L31.0438 33.2594C30.9861 33.2781 30.927 33.2983 30.8693 33.2983ZM36.0371 34.3007C35.9794 34.5127 35.8063 34.7449 35.4775 34.9757L33.3962 33.78C33.6847 33.6834 33.9544 33.607 34.1866 33.568C34.4174 33.5103 34.6106 33.4901 34.7837 33.4901C35.1111 33.4901 35.4198 33.5478 35.6909 33.7036C35.9029 33.819 36.0183 33.9921 36.0371 34.1651V34.3007Z" fill="#6EBA9A"/>
<path d="M51.8895 32.8798L47.854 35.225L29.6016 24.686L33.6371 22.3408L51.8895 32.8798Z" fill="#E4F4ED"/>
<path d="M51.8875 32.8798L51.4087 33.1581L33.1562 22.6192L33.6351 22.3408L51.8875 32.8798Z" fill="#60F9B9"/>
<path d="M51.8964 32.8696V38.4355L51.4075 38.7297L47.8594 40.7605V35.2191L49.3522 34.3624L50.7959 33.5302L51.4075 33.1639L51.8964 32.8696Z" fill="#CADDD5"/>
<path d="M51.8952 32.8696V38.4355L51.4062 38.7297V33.1639L51.8952 32.8696Z" fill="#60F9B9"/>
<path d="M4.42969 32.1499L4.44699 37.6985L22.6331 48.2677L22.6157 42.7191L4.42969 32.1499Z" fill="#52CC99"/>
<path d="M60.1203 21.0688V26.6102L51.8963 31.3583L51.4073 31.6525L47.8592 33.6833L22.6261 48.2693L22.6016 42.728L26.8102 40.2804L47.8592 28.1419L49.352 27.2852L50.7958 26.453L51.4073 26.1097V26.0866L51.8963 25.8169L55.9102 23.4919L60.1203 21.0688Z" fill="#52CC99"/>
<path d="M4.42969 32.15L22.6157 42.7192L60.1129 21.0702L41.9268 10.501L4.42969 32.15Z" fill="#0A8D12"/>
<path d="M55.9108 23.4901L26.8137 40.2886C24.18 38.7497 20.1748 38.6011 17.857 39.9555L9.19591 34.9132C11.5325 33.5776 11.2728 31.2598 8.64062 29.7209L37.7175 12.918C40.3512 14.4584 44.3752 14.6055 46.693 13.2713L55.3541 18.2963C53.0363 19.6319 53.2772 21.9699 55.9108 23.4901Z" fill="#6EBA9A"/>
<path d="M41.4589 19.2037C40.4421 19.7907 40.4248 20.7282 41.4359 21.3152C42.4484 21.9037 44.0652 21.8964 45.0835 21.308C46.0902 20.7282 46.1075 19.7907 45.095 19.2022C44.0839 18.6152 42.4671 18.6224 41.4604 19.2022L41.4589 19.2037ZM19.1536 32.02C18.1469 32.6013 18.1296 33.5373 19.1421 34.1258C20.1532 34.7142 21.77 34.707 22.7767 34.1258C23.795 33.5373 23.8123 32.6013 22.7998 32.0128C21.7887 31.4258 20.1719 31.433 19.1536 32.02ZM39.4008 30.6787C36.2666 32.496 30.5926 32.0878 26.6421 29.7888C22.7104 27.507 22.0253 24.207 25.1407 22.407C28.2373 20.6085 33.9488 21.0166 37.8993 23.2984C41.831 25.5787 42.4988 28.8988 39.4008 30.6787Z" fill="#0A8D12"/>
<path d="M37.6177 27.8202C37.811 27.5894 37.9076 27.3587 37.9264 27.1264C37.9653 26.6058 37.6769 26.1428 37.0019 25.7375C36.3386 25.3632 35.5833 25.1832 34.8225 25.2183C34.0509 25.2558 33.1264 25.4678 32.0259 25.8529L31.9884 25.8731L31.7374 25.7375V25.7188L29.8278 24.6197C30.5028 24.3312 31.2557 24.1365 32.1427 24.0413L31.8543 23C30.5807 23.1341 29.4817 23.424 28.5744 23.887L27.9773 23.5582L27.2446 23.9837L27.823 24.3111C27.0903 24.7726 26.7052 25.2558 26.685 25.7764C26.6628 25.985 26.7105 26.195 26.8206 26.3736C26.9547 26.6433 27.2057 26.8942 27.611 27.1264C27.9384 27.3183 28.2658 27.4538 28.6134 27.5303H28.6321C28.9797 27.6269 29.3461 27.6659 29.7139 27.6457C30.4639 27.6082 31.3898 27.4149 32.4687 27.0111L34.7071 28.3019C33.8966 28.6481 32.8942 28.8428 31.6985 28.8803L31.8341 29.9606C33.435 29.9029 34.8038 29.5942 35.9591 29.0346L36.8086 29.5163L37.5413 29.0923L36.7119 28.6308C37.1158 28.3596 37.4259 28.0899 37.6177 27.8202ZM30.8692 26.2192C30.8504 26.2394 30.8317 26.2394 30.8317 26.2394C30.3485 26.3736 29.9821 26.4514 29.7326 26.4514C29.424 26.4514 29.1528 26.3736 28.8831 26.2207C28.7948 26.1712 28.7166 26.1056 28.6523 26.0274C28.6034 25.9853 28.5669 25.9308 28.5465 25.8696C28.5262 25.8083 28.5229 25.7428 28.5369 25.6798C28.5369 25.4678 28.749 25.2558 29.0562 25.025L30.6773 25.9697L30.9845 26.1428L31.0047 26.1615L31.0437 26.1817C30.986 26.2005 30.9268 26.2192 30.8692 26.2192ZM36.0369 27.2231C35.9793 27.4351 35.8062 27.6659 35.4773 27.8966L33.3961 26.7024C33.6845 26.6058 33.9543 26.5293 34.1865 26.4889C34.4172 26.4312 34.6105 26.4125 34.7836 26.4125C35.111 26.4125 35.4196 26.4702 35.6908 26.6245C35.9028 26.7399 36.0182 26.913 36.0369 27.0861V27.2231Z" fill="#6EBA9A"/>
<path d="M51.8895 25.8012L47.854 28.1464L29.6016 17.6089L33.6371 15.2637L51.8895 25.8012Z" fill="#E4F4ED"/>
<path d="M51.8875 25.8012L51.4087 26.0795L33.1562 15.542L33.6351 15.2637L51.8875 25.8012Z" fill="#60F9B9"/>
<path d="M51.8964 25.7925V31.3583L51.4075 31.6526L47.8594 33.6833V28.142L49.3522 27.2853L50.7959 26.4531L51.4075 26.0867L51.8964 25.7925Z" fill="#CADDD5"/>
<path d="M51.8952 25.792V31.3579L51.4062 31.6521V26.0862L51.8952 25.792Z" fill="#60F9B9"/>
<path d="M4.42969 25.0723L4.44699 30.6208L22.6331 41.1886L22.6157 35.6401L4.42969 25.0723Z" fill="#52CC99"/>
<path d="M60.1203 13.9902V19.5316L51.8963 24.2797L51.4073 24.5739L47.8592 26.6047L22.6261 41.1922L22.6016 35.6508L26.8102 33.2032L47.8592 21.0633L49.352 20.208L50.7958 19.3758L51.4073 19.0325V19.008L51.8963 18.7383L55.9102 16.4133L60.1203 13.9902Z" fill="#52CC99"/>
<path d="M4.42969 25.0729L22.6157 35.6407L60.1129 13.9916L41.9268 3.42383L4.42969 25.0729Z" fill="#0A8D12"/>
<path d="M55.9108 16.4115L26.8137 33.2115C24.18 31.6725 20.1748 31.524 17.857 32.8769L9.19591 27.8331C11.5325 26.4975 11.2728 24.1797 8.64062 22.6408L37.7175 5.83936C40.3512 7.3783 44.3752 7.52686 46.693 6.19128L55.3541 11.2177C53.0363 12.5519 53.2772 14.8913 55.9108 16.4115Z" fill="#6EBA9A"/>
<path d="M41.4589 12.1251C40.4421 12.7136 40.4248 13.6496 41.4359 14.2381C42.4484 14.8251 44.0652 14.8193 45.0835 14.2309C46.0902 13.6496 46.1075 12.7136 45.095 12.1251C44.0839 11.5381 42.4657 11.5439 41.4589 12.1251ZM19.1536 24.9429C18.1469 25.5242 18.1296 26.4602 19.1421 27.0487C20.1532 27.6357 21.77 27.6285 22.7767 27.0487C23.795 26.4602 23.8123 25.5242 22.7998 24.9357C21.7887 24.3472 20.1719 24.3544 19.1536 24.9429ZM39.4008 23.6016C36.2666 25.4189 30.5926 25.0107 26.6421 22.7102C22.7104 20.4299 22.0253 17.1285 25.1407 15.3299C28.2373 13.5314 33.9488 13.9395 37.8993 16.2198C41.831 18.5016 42.4988 21.8217 39.4008 23.6016Z" fill="#0A8D12"/>
<path d="M37.6178 20.7416C37.8111 20.5108 37.9078 20.28 37.9265 20.0493C37.9654 19.5272 37.677 19.0642 37.002 18.6603C36.3389 18.2854 35.5836 18.105 34.8227 18.1397C34.051 18.1772 33.1265 18.3906 32.026 18.7743L31.9885 18.7945L31.7376 18.6603V18.6401L29.8279 17.5411C30.5029 17.2526 31.2558 17.0594 32.1428 16.9642L31.8544 15.9214C30.5808 16.057 29.4818 16.3454 28.5746 16.8084L27.9775 16.481L27.2448 16.905L27.8231 17.2324C27.0904 17.6954 26.7053 18.1772 26.6852 18.6978C26.6626 18.9069 26.7103 19.1175 26.8207 19.2964C26.9549 19.5661 27.2058 19.8156 27.6111 20.0478C27.9385 20.2411 28.2659 20.3752 28.6135 20.4531H28.6323C28.9799 20.5498 29.3462 20.5887 29.714 20.5685C30.464 20.5296 31.39 20.3377 32.4688 19.9324L34.7073 21.2248C33.8967 21.5709 32.8943 21.7642 31.6986 21.8017L31.8342 22.8834C33.4352 22.8257 34.8039 22.5171 35.9592 21.9574L36.8087 22.4392L37.5414 22.0151L36.7121 21.5536C37.1159 21.2824 37.426 21.0127 37.6178 20.7416ZM30.8693 19.1406C30.8505 19.1608 30.8318 19.1608 30.8318 19.1608C30.3486 19.2964 29.9823 19.3728 29.7328 19.3728C29.4241 19.3728 29.1529 19.2964 28.8832 19.1421C28.795 19.0926 28.7167 19.027 28.6525 18.9488C28.6038 18.9069 28.5674 18.8525 28.5471 18.7916C28.5268 18.7307 28.5233 18.6654 28.5371 18.6026C28.5371 18.3906 28.7491 18.1772 29.0563 17.9464L30.6775 18.8911L30.9847 19.0642L31.0049 19.0844L31.0438 19.1031C30.9861 19.1233 30.9284 19.1421 30.8707 19.1421L30.8693 19.1406ZM36.0371 20.1445C35.9794 20.3565 35.8063 20.5887 35.4775 20.8195L33.3962 19.6238C33.6847 19.5272 33.9544 19.4507 34.1866 19.4118C34.4174 19.3541 34.6106 19.3353 34.7837 19.3353C35.1111 19.3353 35.4198 19.393 35.6909 19.5473C35.9029 19.6627 36.0183 19.8358 36.0371 20.0089V20.1445Z" fill="#6EBA9A"/>
<path d="M51.8895 18.7235L47.854 21.0687L29.6016 10.5298L33.6371 8.18604L51.8895 18.7235Z" fill="#E4F4ED"/>
<path d="M51.8875 18.7235L51.4087 19.0019L33.1562 8.4644L33.6351 8.18604L51.8875 18.7235Z" fill="#60F9B9"/>
<path d="M51.8964 18.7134V24.2792L51.4075 24.5735L47.8594 26.6042V21.0629L49.3522 20.2076L50.7959 19.3754L51.4075 19.0076L51.8964 18.7134Z" fill="#CADDD5"/>
<path d="M51.8952 18.7134V24.2792L51.4062 24.5735V19.0076L51.8952 18.7134Z" fill="#60F9B9"/>
<path d="M71.5723 52.8877C71.4685 55.6685 71.793 56.4069 71.1469 57.6617C70.8295 58.2488 70.3175 58.8603 69.6339 59.3781C69.5132 59.4866 69.3812 59.5819 69.2401 59.6622C69.0815 59.7891 68.9084 59.8829 68.7353 59.994C68.5319 60.1036 68.3271 60.2132 68.1065 60.3242C67.9795 60.3877 67.8541 60.4497 67.7127 60.5132C67.3493 60.6718 66.9872 60.8132 66.5935 60.9387C66.468 60.9704 66.3411 61.018 66.1997 61.0483C65.8262 61.1615 65.4474 61.2563 65.0646 61.3324C64.9392 61.3641 64.7978 61.38 64.6709 61.4117C64.3004 61.4743 63.9275 61.5214 63.5531 61.5531C63.4262 61.5675 63.2848 61.5848 63.1593 61.5848C62.7826 61.6291 62.4035 61.6498 62.0243 61.6468H61.6305C61.2526 61.6468 60.8747 61.6166 60.5127 61.5848C60.3858 61.5848 60.2444 61.569 60.119 61.5531C59.2221 61.4656 58.3358 61.2917 57.4723 61.0339C56.7655 61.0299 56.0835 60.7731 55.5497 60.3098C55.3233 60.1858 54.8012 59.9218 54.4305 59.6622C54.2928 59.5716 54.1612 59.4718 54.0368 59.3637C53.608 59.0575 53.2307 58.6851 52.919 58.2603C52.7589 58.0755 52.6263 57.8685 52.5252 57.6459C51.8214 56.3853 52.1805 55.5949 52.0997 52.8257C52.0997 53.3925 52.2411 52.8069 52.5252 53.342C52.8983 54.0225 53.4145 54.6139 54.0382 55.0757C54.1637 55.1853 54.2892 55.2805 54.4305 55.3742C54.6036 55.4853 54.7767 55.5949 54.967 55.706C55.1545 55.8156 55.3449 55.9108 55.5497 56.0204C55.6752 56.0839 55.8021 56.1459 55.9435 56.1935C56.3055 56.3665 56.6834 56.5093 57.0771 56.6348C57.2041 56.6824 57.3454 56.7141 57.4723 56.7459C58.0853 56.9334 58.8483 57.092 58.9839 57.1065C59.3315 57.1656 60.1593 57.2968 60.5127 57.2968C64.4935 57.643 68.1512 56.4026 69.6339 55.1074C70.2685 54.6257 70.7574 54.1122 71.1469 53.3896C71.4295 52.8545 71.5723 53.4401 71.5723 52.8877Z" fill="#4AF9B0"/>
<path d="M68.6901 48.868C72.5035 51.069 72.5309 54.643 68.7434 56.844C64.9473 59.0507 58.7771 59.0449 54.9651 56.844C51.153 54.643 51.1329 51.0747 54.9276 48.868C58.7165 46.667 64.878 46.667 68.6901 48.868Z" fill="#7AFEC7"/>
<path d="M67.2714 50.0578C70.2944 51.6026 70.3161 54.1107 67.3132 55.654C64.3031 57.2002 59.4093 57.1973 56.3863 55.654C53.3632 54.1107 53.3473 51.6069 56.3574 50.0578C59.3617 48.5146 64.2468 48.5146 67.2714 50.0578Z" fill="#41EFA6"/>
<path d="M71.1529 54.5261V57.6617C71.0421 57.874 70.9102 58.0745 70.7591 58.2602V55.1405C70.9163 54.9357 71.0418 54.7309 71.1529 54.5261ZM69.6399 56.2425V59.3795C69.5191 59.4875 69.3871 59.5823 69.2462 59.6622V56.528C69.3875 56.4487 69.5144 56.3535 69.6399 56.2425ZM68.1111 57.1886V60.3242C67.9856 60.3877 67.8601 60.4497 67.7173 60.5131V57.3617C67.8601 57.2997 67.9841 57.2521 68.1111 57.1886ZM66.5995 57.7872V60.9386C66.474 60.9703 66.3471 61.0179 66.2058 61.0482V57.8982C66.3471 57.8665 66.474 57.8348 66.5995 57.7872ZM65.0707 58.1809V61.3324C64.9452 61.3641 64.8038 61.38 64.6769 61.4117V58.2602C64.8038 58.2285 64.9452 58.2127 65.0707 58.1809ZM63.5591 58.4016V61.553C63.4322 61.5675 63.2909 61.5848 63.1654 61.5848V58.4333C63.2909 58.4333 63.4322 58.4189 63.5591 58.4016ZM62.0303 58.4968V61.6468H61.6365V58.4809C61.7635 58.4953 61.9048 58.4968 62.0303 58.4968ZM60.5188 58.4333V61.5848C60.3918 61.5848 60.2505 61.5689 60.125 61.553V58.4016C60.2505 58.4175 60.376 58.4333 60.5188 58.4333ZM58.9899 58.2458V61.3958C58.8572 61.377 58.7258 61.3505 58.5962 61.3165V58.1651C58.7231 58.1968 58.8486 58.23 58.9899 58.2458ZM57.4784 57.8824V61.0324C57.3442 61.0052 57.2121 60.9686 57.0832 60.9227V57.7713C57.2101 57.8189 57.3514 57.8506 57.4784 57.8824ZM55.9495 57.3314V60.4814C55.8142 60.4333 55.6826 60.3755 55.5558 60.3083V57.1569C55.6813 57.2203 55.8082 57.2852 55.9495 57.3314ZM54.4365 56.5122V59.6622C54.2988 59.5715 54.1673 59.4718 54.0428 59.3636V56.2122C54.1697 56.3232 54.2952 56.417 54.4365 56.5122ZM52.925 55.0929V58.2602C52.7649 58.0754 52.6323 57.8685 52.5312 57.6458V54.4785C52.6409 54.6833 52.7678 54.8881 52.925 55.0929Z" fill="#39D896"/>
<path d="M65.3654 51.2073L66.1442 50.7559L65.5529 50.4141L64.7639 50.8713L64.6774 50.8323C64.0941 50.5666 63.4607 50.4284 62.8197 50.427H62.8053C62.1764 50.427 61.6139 50.5684 61.1337 50.8453C60.6894 51.1049 60.4716 51.3645 60.4889 51.617C60.5106 51.8982 60.7413 52.2559 61.1784 52.6843L61.3529 52.8544L59.6697 53.8323C59.6236 53.766 59.1995 53.4429 59.051 52.5977L57.5625 52.6814C57.7644 53.7198 58.65 54.2463 58.7625 54.3602L58.1452 54.7179L58.7365 55.0597L59.3582 54.6992C59.4534 54.7309 60.1774 55.165 61.3673 55.1751C62.0005 55.1838 62.5889 55.0395 63.075 54.7569C63.8553 54.304 64.0183 53.8525 63 52.8544L62.8255 52.6843L64.4596 51.7338C64.513 51.8001 64.8606 52.0713 65.0798 52.6944L66.5005 52.5458C66.3064 52.0808 65.9905 51.6767 65.5861 51.3761L65.3654 51.2073ZM61.1106 54.4424C60.7428 54.4424 60.4673 54.3155 60.1587 54.2319L61.7841 53.2871C61.8389 53.3823 62.0971 53.6448 62.0409 53.916C62.0135 54.0559 61.4683 54.4424 61.1106 54.4424ZM62.3899 52.2501C62.3423 52.1492 62.1404 51.9343 62.2125 51.6559C62.25 51.5117 62.3538 51.3891 62.5212 51.2924C62.8053 51.1251 63.1529 51.1006 63.5524 51.2102L63.9764 51.3299L62.3899 52.2501Z" fill="#7AFEC7"/>
<path d="M71.5723 48.8691C71.4685 51.6485 71.793 52.3884 71.1469 53.6432C70.8295 54.2302 70.3175 54.8417 69.6339 55.3595C69.3699 55.5903 68.8392 55.909 68.7368 55.9739C68.4396 56.134 68.0228 56.3561 67.7127 56.4932C66.8632 56.8642 65.9751 57.1395 65.0646 57.3138C64.566 57.4192 64.0611 57.4929 63.5531 57.5345C63.3656 57.5576 62.63 57.6283 62.0243 57.6283C61.6319 57.6182 61.5843 57.6586 60.5127 57.5662C60.1795 57.5662 59.3098 57.4307 58.9839 57.3773C58.4736 57.2845 57.969 57.1631 57.4723 57.0138C56.7655 57.0099 56.0835 56.7531 55.5497 56.2898C55.3449 56.1787 55.156 56.085 54.967 55.9739C54.6374 55.7943 54.3258 55.5832 54.0368 55.3436C53.2565 54.7783 52.6911 54.0167 52.5252 53.6273C51.8214 52.3667 52.1805 51.5749 52.0997 48.8057C52.0997 49.3739 52.2411 48.7884 52.5252 49.3235C52.8973 50.0158 53.4021 50.5739 54.0368 51.0571C54.3122 51.298 54.6468 51.4999 54.967 51.6859C55.1228 51.7783 55.6738 52.0855 55.9435 52.1763C57.0771 52.7172 58.9319 53.147 60.119 53.2465C60.2444 53.261 60.3699 53.2783 60.5127 53.2783C63.3829 53.5278 66.9598 52.9667 69.2401 51.3715C69.3815 51.2922 69.5084 51.1985 69.6339 51.0874C70.0911 50.7412 70.469 50.3792 70.7531 49.9855C70.9103 49.7807 71.0358 49.5759 71.1469 49.371C71.4295 48.8345 71.5723 49.4201 71.5723 48.8691Z" fill="#4AF9B0"/>
<path d="M68.6901 44.8495C72.5035 47.0504 72.5309 50.6244 68.7434 52.8254C64.9473 55.0321 58.7771 55.0264 54.9651 52.8254C51.153 50.6244 51.1329 47.0562 54.9276 44.8495C58.7165 42.6485 64.878 42.6485 68.6901 44.8495Z" fill="#7AFEC7"/>
<path d="M67.2714 46.0408C70.2944 47.584 70.3161 50.0908 67.3132 51.634C64.3031 53.1816 59.4093 53.1773 56.3863 51.634C53.3632 50.0908 53.3473 47.5869 56.3574 46.0408C59.3617 44.4975 64.2468 44.4975 67.2714 46.0408Z" fill="#41EFA6"/>
<path d="M71.1529 50.5076V53.6431C71.0421 53.8554 70.9102 54.0559 70.7591 54.2417V51.122C70.9163 50.9172 71.0418 50.7124 71.1529 50.5076ZM69.6399 52.2239V55.3595C69.5192 55.468 69.3872 55.5633 69.2462 55.6436V52.508C69.3875 52.4302 69.5144 52.3335 69.6399 52.2239ZM68.1111 53.1701V56.3056C67.9856 56.3677 67.8601 56.4311 67.7173 56.4931V53.3431C67.8601 53.2811 67.9841 53.2335 68.1111 53.1701ZM66.5995 53.7686V56.9201C66.474 56.9518 66.3471 56.9979 66.2058 57.0297V53.8797C66.3471 53.8479 66.474 53.8162 66.5995 53.7686ZM65.0707 54.1624V57.3138C64.9452 57.3455 64.8038 57.3614 64.6769 57.3917V54.2417C64.8038 54.21 64.9452 54.1941 65.0707 54.1624ZM63.5591 54.383V57.5345C63.4322 57.5489 63.2909 57.5662 63.1654 57.5662V54.4133C63.2909 54.4133 63.4322 54.4003 63.5591 54.383ZM62.0303 54.4782V57.6282H61.6365V54.4624C61.7635 54.4768 61.9048 54.4782 62.0303 54.4782ZM60.5188 54.4148V57.5662C60.3918 57.5662 60.2505 57.5503 60.125 57.5345V54.383C60.2505 54.3989 60.376 54.4148 60.5188 54.4148ZM58.9899 54.2258V57.3773C58.8572 57.3584 58.7258 57.3319 58.5962 57.2979V54.1465C58.7231 54.1782 58.8486 54.21 58.9899 54.2258ZM57.4784 53.8638V57.0138C57.3442 56.9867 57.2121 56.95 57.0832 56.9042V53.7528C57.2101 53.8003 57.3514 53.8321 57.4784 53.8638ZM55.9495 53.3114V56.4628C55.8142 56.4148 55.6826 56.3569 55.5558 56.2898V53.1383C55.6813 53.2018 55.8082 53.2653 55.9495 53.3114ZM54.4365 52.4922V55.6436C54.2988 55.5525 54.1672 55.4523 54.0428 55.3436V52.1936C54.1697 52.3032 54.2952 52.3984 54.4365 52.4922ZM52.925 51.0744V54.2417C52.7649 54.0569 52.6323 53.8499 52.5312 53.6273V50.46C52.6409 50.6648 52.7678 50.8696 52.925 51.0744Z" fill="#39D896"/>
<path d="M65.3654 47.1873L66.1442 46.7373L65.5529 46.3955L64.7639 46.8527L64.6774 46.8138C64.0941 46.548 63.4607 46.4099 62.8197 46.4085H62.8053C62.1764 46.4085 61.6139 46.5498 61.1337 46.8268C60.6894 47.0864 60.4716 47.346 60.4889 47.5984C60.5106 47.8782 60.7413 48.2373 61.1784 48.6657L61.3529 48.8359L59.6697 49.8138L59.5687 49.7042C59.3062 49.4229 59.1332 49.0436 59.051 48.5792L57.5625 48.6628C57.6736 49.2325 58.0053 49.7402 58.549 50.1715L58.7625 50.3417L58.1452 50.6994L58.7365 51.0412L59.3582 50.6806L59.4447 50.7195C60.0692 51.0037 60.7139 51.1508 61.3673 51.1566C62.0005 51.1652 62.5889 51.021 63.075 50.7383C63.5221 50.4787 63.7385 50.2133 63.7154 49.9479C63.6894 49.6508 63.4486 49.2758 63 48.8373L62.8255 48.6657L64.4596 47.7152L64.5606 47.8191C64.787 48.0498 64.9601 48.3383 65.0798 48.6758L66.5005 48.5272C66.3064 48.0622 65.9905 47.6581 65.5861 47.3575L65.3654 47.1873ZM61.738 50.2623C61.5473 50.372 61.3305 50.4283 61.1106 50.4253C60.9418 50.4253 60.7615 50.3965 60.5683 50.3388L60.1587 50.2147L61.7841 49.27L61.8822 49.407C62.0192 49.5945 62.0697 49.7561 62.0409 49.8989C62.0135 50.0373 61.9125 50.1614 61.738 50.2623ZM62.3899 48.233L62.2947 48.0744C62.2522 48.0111 62.223 47.9399 62.2089 47.865C62.1948 47.7901 62.196 47.7132 62.2125 47.6388C62.25 47.4945 62.3538 47.372 62.5212 47.2753C62.8053 47.108 63.1529 47.0835 63.5524 47.1931L63.9764 47.3114L62.3899 48.233Z" fill="#7AFEC7"/>
<path d="M50.6291 63.8174L50.6132 66.9688C50.6132 67.5198 50.4704 68.0707 50.2036 68.5914C50.0929 68.8037 49.9609 69.0042 49.8099 69.19C49.494 69.6158 49.1168 69.9925 48.6906 70.3078C48.5699 70.4163 48.4379 70.5116 48.2969 70.5919C48.1382 70.7174 47.9651 70.8126 47.7921 70.9236C47.5873 71.0332 47.3825 71.1428 47.1632 71.2539C47.0363 71.3159 46.9108 71.3794 46.768 71.4414C46.4074 71.6001 46.044 71.7414 45.6502 71.8683C45.5248 71.9001 45.3978 71.9462 45.2565 71.9779C44.883 72.0912 44.5042 72.186 44.1214 72.2621C43.9959 72.2938 43.8546 72.3097 43.7276 72.34C43.3572 72.403 42.9843 72.4506 42.6099 72.4828C42.4829 72.4972 42.3416 72.5145 42.2161 72.5145C41.8394 72.5587 41.4603 72.5795 41.081 72.5765H40.6873C40.3094 72.5765 39.9315 72.5448 39.5695 72.5145C39.4425 72.5145 39.3012 72.4986 39.1757 72.4828C38.2789 72.3952 37.3925 72.2214 36.5291 71.9635C35.8223 71.9597 35.1402 71.7029 34.6065 71.2395C34.4017 71.127 34.2127 71.0332 34.0238 70.9222C33.8407 70.8192 33.6617 70.709 33.4873 70.5919C33.3495 70.5008 33.2179 70.4006 33.0935 70.2919C32.6648 69.9862 32.2875 69.6142 31.9757 69.19C31.8156 69.0051 31.683 68.7982 31.582 68.5755C31.2936 68.0718 31.1415 67.5016 31.1406 66.9212L31.155 63.7539C31.155 64.3222 31.2993 63.7366 31.582 64.2717C31.9541 64.964 32.4589 65.5222 33.0935 66.0053C33.369 66.2462 33.7036 66.4481 34.0238 66.6342C34.1796 66.7265 34.7305 67.0337 35.0002 67.1246C35.4373 67.3323 36.0156 67.5457 36.5291 67.6741C39.5651 68.5986 43.4897 68.3895 45.6502 67.5803C46.1651 67.4086 46.6702 67.2088 47.1632 66.9818C47.7935 66.6659 48.0012 66.526 48.2969 66.3198C48.7296 66.0789 49.6743 65.3015 50.2036 64.3193C50.4863 63.7828 50.6291 64.3683 50.6291 63.8174Z" fill="#4AF9B0"/>
<path d="M47.7462 59.7977C51.5582 61.9987 51.5856 65.5727 47.7981 67.7737C44.002 69.9804 37.8318 69.9746 34.0198 67.7737C30.2077 65.5727 30.1875 62.0044 33.9823 59.7977C37.7712 57.5967 43.9342 57.5967 47.7462 59.7977Z" fill="#7AFEC7"/>
<path d="M46.3339 60.989C49.3569 62.5323 49.3786 65.039 46.3757 66.5823C43.3656 68.1299 38.4718 68.1255 35.4488 66.5823C32.4257 65.039 32.4098 62.5351 35.4199 60.989C38.4242 59.4457 43.3093 59.4457 46.3339 60.989Z" fill="#41EFA6"/>
<path d="M50.1983 65.4558V68.5914C50.088 68.8036 49.9566 69.0041 49.806 69.1899V66.0702C49.9632 65.8654 50.0873 65.6606 50.1983 65.4558ZM48.6868 67.1722V70.3077C48.5661 70.4163 48.4341 70.5115 48.293 70.5919V67.4563C48.4344 67.3784 48.5613 67.2818 48.6868 67.1722ZM47.1579 68.1183V71.2539C47.0325 71.3159 46.907 71.3794 46.7642 71.4414V68.2914C46.907 68.2294 47.031 68.1818 47.1579 68.1183ZM45.6464 68.7169V71.8683C45.5209 71.9 45.394 71.9462 45.2526 71.9779V68.8279C45.394 68.7962 45.5209 68.7645 45.6464 68.7169ZM44.1175 69.1106V72.2621C43.9921 72.2938 43.8507 72.3096 43.7238 72.3399V69.1899C43.8507 69.1582 43.9921 69.1423 44.1175 69.1106ZM42.606 69.3313V72.4827C42.4791 72.4971 42.3377 72.5145 42.2123 72.5145V69.363C42.3377 69.363 42.4791 69.3486 42.606 69.3313ZM41.0772 69.4265V72.5765H40.6834V69.4106C40.8103 69.425 40.9517 69.425 41.0772 69.425V69.4265ZM39.5656 69.363V72.5145C39.4387 72.5145 39.2974 72.4986 39.1719 72.4827V69.3313C39.2974 69.3471 39.4228 69.363 39.5656 69.363ZM38.0368 69.1741V72.3255C37.9041 72.3067 37.7726 72.2802 37.643 72.2462V69.0947C37.7685 69.1265 37.8954 69.1582 38.0368 69.1741ZM36.5252 68.8121V71.9621C36.3911 71.9349 36.259 71.8983 36.13 71.8524V68.701C36.257 68.7486 36.3983 68.7803 36.5252 68.8121ZM34.9964 68.2596V71.4111C34.8611 71.363 34.7295 71.3052 34.6026 71.238V68.0866C34.7281 68.15 34.855 68.2135 34.9964 68.2596ZM33.4834 67.4404V70.5919C33.3456 70.5007 33.2141 70.4005 33.0897 70.2919V67.1419C33.2166 67.2515 33.3421 67.3467 33.4834 67.4404ZM31.9719 66.0226V69.1899C31.8118 69.0051 31.6792 68.7982 31.5781 68.5755V65.4082C31.6877 65.613 31.8147 65.8178 31.9719 66.0226Z" fill="#39D896"/>
<path d="M44.4137 62.137L45.1925 61.6856L44.6012 61.3438L43.8123 61.801C43.7185 61.7692 43.045 61.3596 41.868 61.3567H41.8536C41.2248 61.3567 40.6623 61.4981 40.182 61.775C39.7377 62.0346 39.5199 62.2942 39.5373 62.5466C39.5762 63.0716 40.319 63.6904 40.4012 63.7841L38.718 64.762C38.6719 64.6942 38.2478 64.3726 38.0993 63.5274L36.6094 63.6111C36.8113 64.6495 37.6983 65.176 37.8108 65.2899L37.1935 65.6476L37.7849 65.9894L38.4065 65.6288C38.5017 65.6606 39.2257 66.0947 40.4142 66.1048C41.0488 66.1135 41.6373 65.9692 42.1233 65.6865C42.5704 65.4269 42.7868 65.1615 42.7637 64.8962C42.7377 64.599 42.4969 64.224 42.0469 63.7856L41.8738 63.6139L43.5079 62.6635C43.5613 62.7298 43.9089 63.001 44.1267 63.624L45.5488 63.4755C45.3547 63.0105 45.0388 62.6064 44.6344 62.3058L44.4137 62.137ZM40.1589 65.3736C39.7911 65.3736 39.5156 65.2452 39.207 65.163L40.8325 64.2183C40.8873 64.312 41.1454 64.576 41.0892 64.8471C41.0618 64.9856 40.5166 65.3736 40.1589 65.3736ZM41.4382 63.1812L41.343 63.0226C41.3005 62.9593 41.2713 62.8881 41.2572 62.8132C41.2431 62.7384 41.2443 62.6614 41.2608 62.587C41.2983 62.4428 41.4022 62.3202 41.5695 62.2236C41.8536 62.0562 42.2012 62.0317 42.6007 62.1413L43.0233 62.2596L41.4368 63.1827L41.4382 63.1812Z" fill="#7AFEC7"/>
<path d="M50.627 59.7988C50.5232 62.5781 50.8477 63.318 50.2015 64.5729C49.8842 65.1599 49.3722 65.77 48.6886 66.2892C48.4246 66.52 47.8924 66.8387 47.79 66.9036C47.4943 67.0637 47.0775 67.2858 46.766 67.4229C46.3116 67.6219 45.6626 67.8685 45.2544 67.9594C44.1583 68.2926 42.7607 68.4945 42.214 68.4945C41.552 68.5781 40.9664 68.5551 40.6852 68.5579C40.2482 68.5579 39.3222 68.483 39.1737 68.4642C38.1078 68.3748 36.5775 68.0012 36.1318 67.8339C35.6095 67.6636 35.0992 67.4584 34.6044 67.2195C34.378 67.0969 33.8559 66.8329 33.4852 66.5733C32.9458 66.2128 32.3544 65.7007 31.9737 65.1714C31.8136 64.9866 31.681 64.7796 31.5799 64.557C30.8761 63.2964 31.2352 62.5046 31.1544 59.7354C31.1544 60.3022 31.2958 59.718 31.5799 60.2531C31.6895 60.4579 31.8164 60.6628 31.9737 60.8676C32.7424 61.9349 33.8631 62.532 34.6044 62.9301C34.8741 63.0656 35.5073 63.3455 36.1333 63.5459C36.2054 63.5748 37.0261 63.8113 37.6448 63.9397C37.9217 64.0089 38.7237 64.1387 39.1737 64.1762C39.4419 64.2094 40.2712 64.2714 40.6852 64.2541C40.8871 64.2801 41.6025 64.283 42.214 64.208C42.3395 64.208 42.4809 64.1921 42.6078 64.1762C43.7285 64.0825 45.1462 63.7493 45.6482 63.5618C46.8092 63.1897 47.666 62.7397 48.2948 62.3012C48.602 62.1296 49.3953 61.4863 49.8078 60.9152C49.965 60.7104 50.0905 60.5055 50.2015 60.3007C50.4842 59.7642 50.627 60.3498 50.627 59.7988Z" fill="#4AF9B0"/>
<path d="M47.7462 55.7791C51.5582 57.9801 51.5856 61.5541 47.7981 63.7551C44.002 65.9618 37.8318 65.9561 34.0198 63.7551C30.2077 61.5541 30.1875 57.9844 33.9823 55.7791C37.7712 53.5782 43.9342 53.5782 47.7462 55.7791Z" fill="#7AFEC7"/>
<path d="M46.3339 56.9709C49.3569 58.5142 49.3786 61.0209 46.3757 62.5642C43.3656 64.1118 38.4718 64.1075 35.4488 62.5642C32.4257 61.0209 32.4098 58.5171 35.4199 56.9709C38.4242 55.4277 43.3093 55.4277 46.3339 56.9709Z" fill="#41EFA6"/>
<path d="M50.1983 61.4372V64.5728C50.088 64.785 49.9566 64.9856 49.806 65.1714V62.0517C49.9632 61.8469 50.0873 61.6421 50.1983 61.4372ZM48.6868 63.1536V66.2892C48.5661 66.3977 48.4341 66.493 48.293 66.5733V63.4377C48.4344 63.3598 48.5613 63.2647 48.6868 63.155V63.1536ZM47.1579 64.0997V67.2353C47.0325 67.2973 46.907 67.3608 46.7642 67.4228V64.2728C46.907 64.2094 47.031 64.1632 47.1579 64.0997ZM45.6464 64.6983V67.8497C45.5209 67.88 45.394 67.9276 45.2526 67.9594V64.8094C45.394 64.7776 45.5209 64.7459 45.6464 64.6983ZM44.1175 65.0921V68.2435C43.9921 68.2738 43.8507 68.2896 43.7238 68.3214V65.1728C43.8507 65.1411 43.9921 65.1238 44.1175 65.0921ZM42.606 65.3127V68.4642C42.4791 68.4786 42.3377 68.4945 42.2123 68.4945V65.3459C42.3377 65.3459 42.4791 65.3286 42.606 65.3127ZM41.0772 65.4079V68.5579H40.6834V65.3921C40.8103 65.4065 40.9517 65.4079 41.0772 65.4079ZM39.5656 65.3445V68.4945C39.4387 68.4945 39.2974 68.48 39.1719 68.4642V65.3127C39.2974 65.3272 39.4228 65.3445 39.5656 65.3445ZM38.0368 65.1555V68.3055C37.9041 68.2872 37.7727 68.2611 37.643 68.2276V65.0762C37.7685 65.1079 37.8954 65.1396 38.0368 65.1555ZM36.5252 64.7935V67.9435C36.3911 67.9164 36.259 67.8797 36.13 67.8339V64.6824C36.257 64.73 36.3983 64.7618 36.5252 64.7935ZM34.9964 64.2411V67.3925C34.8611 67.3445 34.7295 67.2866 34.6026 67.2195V64.068C34.7281 64.1315 34.855 64.1935 34.9964 64.2411ZM33.4834 63.4219V66.5733C33.3456 66.4822 33.2141 66.382 33.0897 66.2733V63.1247C33.2166 63.2344 33.3421 63.3281 33.4834 63.4219ZM31.9719 62.0041V65.1714C31.8118 64.9865 31.6792 64.7796 31.5781 64.557V61.3896C31.6877 61.5945 31.8147 61.7993 31.9719 62.0041Z" fill="#39D896"/>
<path d="M44.4123 58.1189L45.1911 57.6675L44.5998 57.3242L43.8108 57.7829L43.7243 57.7425C43.1408 57.4772 42.5075 57.3396 41.8666 57.3386H41.8522C41.2233 57.3386 40.6608 57.48 40.1805 57.7569C39.7363 58.0165 39.5185 58.2761 39.5358 58.5285C39.5575 58.8084 39.7882 59.1675 40.2252 59.5959L40.3983 59.766L38.7166 60.7439C38.6704 60.6761 38.2464 60.3545 38.0978 59.5093L36.6094 59.593C36.8113 60.6314 37.6969 61.1579 37.8094 61.2718L37.1921 61.6295L37.7834 61.9713L38.405 61.6108C38.5002 61.6425 39.2243 62.0766 40.4127 62.0867C41.0474 62.0939 41.6358 61.9511 42.1219 61.6685C42.569 61.4088 42.7853 61.1435 42.7623 60.8781C42.7363 60.5795 42.4954 60.2059 42.0454 59.7675L41.8724 59.5944L43.5065 58.6454L43.6075 58.7492C43.8339 58.98 44.007 59.267 44.1252 59.606L45.5474 59.4574C45.3535 58.9918 45.0376 58.5872 44.6329 58.2862L44.4123 58.1189ZM40.7849 61.1925C40.594 61.3016 40.3773 61.3574 40.1575 61.354C39.9887 61.354 39.8084 61.3252 39.6151 61.2675L39.2055 61.1449L40.831 60.2002L40.9291 60.3372C41.0647 60.5247 41.1166 60.6862 41.0877 60.829C41.0603 60.9675 40.9594 61.0915 40.7849 61.1925ZM41.4368 59.1632L41.3416 59.0045C41.2991 58.9413 41.2699 58.87 41.2558 58.7952C41.2416 58.7203 41.2429 58.6433 41.2594 58.5689C41.2969 58.4247 41.4007 58.3021 41.568 58.2055C41.8522 58.0382 42.1998 58.0136 42.5993 58.1233L43.0219 58.2415L41.4368 59.1632Z" fill="#7AFEC7"/>
<path d="M50.6305 56.0234L50.6147 59.1749C50.6147 60.0114 50.2714 60.8436 49.8113 61.396C49.2748 62.1388 48.5709 62.635 47.7935 63.1282C47.0738 63.5177 46.1204 63.9922 45.2579 64.184C44.544 64.4003 43.5993 64.6052 42.6113 64.6888C42.4238 64.7119 41.6882 64.7826 41.0825 64.7826C41.0464 64.7811 40.0642 64.7984 39.1772 64.6888C38.6635 64.6387 38.1531 64.5598 37.6483 64.4523C37.1388 64.3418 36.6341 64.2104 36.1353 64.0585C35.613 63.8883 35.1027 63.683 34.6079 63.4441C34.3815 63.3215 33.8594 63.0576 33.4887 62.7979C32.9493 62.4374 32.3579 61.9253 31.9772 61.396C31.5243 60.8523 31.1406 59.9883 31.1406 59.1273L31.1579 55.96C31.1579 56.5268 31.2993 55.9412 31.5834 56.4778C32.8959 58.9196 36.4599 60.1744 39.1772 60.4008C39.3026 60.4152 39.4281 60.4311 39.5709 60.4311C39.9315 60.4628 40.3108 60.4946 40.6887 60.4787C40.8156 60.4946 40.957 60.4946 41.0825 60.4946C41.4603 60.4946 41.8397 60.4802 42.2175 60.4311C42.343 60.4311 42.4844 60.4167 42.6113 60.4008C43.1195 60.3613 43.6245 60.2876 44.1228 60.1802C44.7272 60.059 45.5594 59.8196 45.6517 59.7864C46.1665 59.6146 46.6716 59.4148 47.1647 59.1878C47.5615 59.0008 47.9409 58.7788 48.2983 58.5244C48.4397 58.4465 48.5666 58.3513 48.6921 58.2417C49.1493 57.8955 49.5272 57.5335 49.8113 57.1398C49.9685 56.935 50.094 56.7302 50.205 56.5253C50.4877 55.9888 50.6305 56.5744 50.6305 56.0234Z" fill="#4AF9B0"/>
<path d="M47.7462 52.0034C51.5582 54.2043 51.5856 57.7784 47.7981 59.9793C44.002 62.1846 37.8318 62.1803 34.0198 59.9793C30.2077 57.7784 30.1875 54.2087 33.9823 52.0034C37.7712 49.801 43.9342 49.801 47.7462 52.0034Z" fill="#7AFEC7"/>
<path d="M46.3339 53.1946C49.3569 54.7378 49.3786 57.2446 46.3757 58.7878C43.3656 60.3354 38.4718 60.3311 35.4488 58.7878C32.4257 57.2446 32.4098 54.7407 35.4199 53.1946C38.4242 51.6513 43.3093 51.6513 46.3339 53.1946Z" fill="#41EFA6"/>
<path d="M50.1983 57.6619V60.7974C50.088 61.0096 49.9566 61.2102 49.806 61.396V58.2763C49.9632 58.0715 50.0873 57.8667 50.1983 57.6619ZM48.6868 59.3782V62.5138C48.5661 62.6223 48.4341 62.7176 48.293 62.7979V59.6623C48.4344 59.583 48.5613 59.4893 48.6868 59.3782ZM47.1579 60.3244V63.4599C47.0325 63.522 46.907 63.5854 46.7642 63.6474V60.4974C46.907 60.434 47.031 60.3878 47.1579 60.3244ZM45.6464 60.9229V64.0744C45.5209 64.1046 45.394 64.1522 45.2526 64.184V61.0325C45.394 61.0022 45.5209 60.9705 45.6464 60.9229ZM44.1175 61.3167V64.4681C43.9921 64.4984 43.8507 64.5143 43.7238 64.546V61.396C43.8507 61.3643 43.9921 61.3484 44.1175 61.3167ZM42.606 61.5373V64.6888C42.4791 64.7032 42.3377 64.7191 42.2123 64.7191V61.5691C42.3377 61.5691 42.4791 61.5532 42.606 61.5373ZM41.0772 61.6325V64.7825H40.6834V61.6167C40.8103 61.6311 40.9517 61.6325 41.0772 61.6325ZM39.5656 61.5691V64.7191C39.4387 64.7191 39.2974 64.7046 39.1719 64.6888V61.5373C39.2974 61.5518 39.4228 61.5691 39.5656 61.5691ZM38.0368 61.3801V64.5301C37.9041 64.5118 37.7727 64.4858 37.643 64.4522V61.3008C37.7685 61.3325 37.8954 61.3643 38.0368 61.3801ZM36.5252 61.0167V64.1681C36.3911 64.141 36.259 64.1043 36.13 64.0585V60.907C36.257 60.9546 36.3983 60.9864 36.5252 61.0167ZM34.9964 60.4657V63.6171C34.8611 63.5691 34.7295 63.5112 34.6026 63.4441V60.2926C34.7281 60.3561 34.855 60.4181 34.9964 60.4657ZM33.4834 59.6465V62.7979C33.3456 62.7068 33.2141 62.6066 33.0897 62.4979V59.3479C33.2166 59.4575 33.3421 59.5527 33.4834 59.6465ZM31.9719 58.2287V61.396C31.8118 61.2112 31.6792 61.0042 31.5781 60.7816V57.6143C31.6877 57.8191 31.8147 58.0239 31.9719 58.2287Z" fill="#39D896"/>
<path d="M44.4123 54.3411L45.1911 53.8897L44.5998 53.5479L43.8108 54.0065C43.7171 53.9748 43.0435 53.5652 41.8666 53.5608H41.8522C41.2233 53.5608 40.6608 53.7036 40.1805 53.9805C39.3873 54.4421 39.2502 54.8661 40.2238 55.818L40.3998 55.9897L38.7166 56.9676C38.6704 56.8998 38.2464 56.5781 38.0978 55.7315L36.6094 55.8166C36.8113 56.8551 37.6969 57.3815 37.8094 57.4954L37.1921 57.8531L37.7834 58.195L38.405 57.8344C38.5002 57.8661 39.2243 58.3003 40.4127 58.3104C41.0474 58.3176 41.6358 58.1748 42.1219 57.8921C42.569 57.6325 42.7853 57.3656 42.7623 57.1017C42.7363 56.8031 42.4954 56.4296 42.0454 55.9911L41.8724 55.818L43.5065 54.869C43.5599 54.9354 43.9075 55.2065 44.1252 55.8296L45.5474 55.681C45.3535 55.2155 45.0376 54.8109 44.6329 54.5099L44.4123 54.3411ZM40.7849 57.4161C40.2267 57.7406 39.6901 57.4983 39.2055 57.3685L40.831 56.4238L40.9291 56.5608C41.0647 56.7483 41.1166 56.9099 41.0877 57.0527C41.0603 57.1911 40.9594 57.3152 40.7849 57.4161ZM41.4368 55.3868L41.3416 55.2281C41.2991 55.1649 41.2699 55.0937 41.2558 55.0188C41.2416 54.9439 41.2429 54.867 41.2594 54.7926C41.2969 54.6483 41.4007 54.5257 41.568 54.4277C42.1377 54.0945 42.7709 54.4219 43.0219 54.4652L41.4368 55.3868Z" fill="#7AFEC7"/>
<path d="M50.6291 52.0049C50.5252 54.7842 50.8498 55.5241 50.2036 56.7789C50.0928 56.9907 49.9609 57.1907 49.8099 57.376C48.3733 59.3707 45.0964 60.4626 42.6099 60.6688C42.4829 60.6847 42.3416 60.7005 42.2161 60.7005C41.8394 60.7453 41.4603 60.7665 41.081 60.764H40.6873C40.3094 60.764 39.9315 60.7323 39.5695 60.7005C39.1815 60.7005 37.7853 60.5318 36.5291 60.1496C35.1416 59.8409 32.9349 58.7102 31.9757 57.376C31.8156 57.1912 31.683 56.9843 31.582 56.7616C31.2939 56.2583 31.1418 55.6886 31.1406 55.1087L31.155 51.9414C31.155 52.5082 31.2993 51.9227 31.582 52.4592C31.6916 52.664 31.8185 52.8688 31.9757 53.0736C32.3911 53.6505 33.069 54.213 33.4873 54.4914C34.3066 55.0326 35.1974 55.4569 36.1339 55.752C36.2089 55.7794 37.0281 56.0159 37.6483 56.1457C38.1526 56.2532 38.6625 56.3322 39.1757 56.3823C39.3012 56.3967 39.4267 56.4126 39.5695 56.4126C39.93 56.4443 40.3094 56.476 40.6873 56.4602C40.8142 56.476 40.9555 56.476 41.081 56.476C41.4589 56.476 41.8382 56.4616 42.2161 56.4126C42.3416 56.4126 42.4829 56.3981 42.6099 56.3823C45.343 56.1529 48.8983 54.9299 50.2036 52.5053C50.4863 51.9703 50.6291 52.5558 50.6291 52.0049Z" fill="#4AF9B0"/>
<path d="M47.7462 47.9837C51.5582 50.1861 51.5856 53.7587 47.7981 55.9597C44.002 58.1664 37.8318 58.1621 34.0198 55.9597C30.2077 53.7587 30.1875 50.1905 33.9823 47.9837C37.7712 45.7828 43.9342 45.7828 47.7462 47.9837Z" fill="#7AFEC7"/>
<path d="M46.3339 49.175C49.3569 50.7183 49.3786 53.2265 46.3757 54.7712C43.3656 56.3173 38.4718 56.3144 35.4488 54.7712C32.4257 53.2265 32.4098 50.7226 35.4199 49.175C38.4242 47.6318 43.3093 47.6318 46.3339 49.175Z" fill="#41EFA6"/>
<path d="M50.1983 53.6433V56.7774C50.088 56.9896 49.9566 57.1902 49.806 57.376V54.2577C49.9632 54.0529 50.0873 53.8481 50.1983 53.6433ZM48.6868 55.3596V58.4952C48.5661 58.6038 48.4341 58.699 48.293 58.7794V55.6438C48.4344 55.5645 48.5613 55.4707 48.6868 55.3596ZM47.1579 56.3058V59.4399C47.0325 59.5034 46.907 59.5669 46.7642 59.6289V56.4789C46.907 56.4154 47.031 56.3678 47.1579 56.3058ZM45.6464 56.9044V60.0544C45.5209 60.0861 45.394 60.1337 45.2526 60.1654V57.014C45.394 56.9822 45.5209 56.952 45.6464 56.9044ZM44.1175 57.2981V60.4481C43.9921 60.4798 43.8507 60.4957 43.7238 60.5274V57.376C43.8507 57.3457 43.9921 57.3298 44.1175 57.2981ZM42.606 57.5188V60.6688C42.4791 60.6846 42.3377 60.7005 42.2123 60.7005V57.5505C42.3377 57.5505 42.4791 57.5346 42.606 57.5188ZM41.0772 57.6125V60.764H40.6834V57.5967C40.8103 57.6125 40.9517 57.6125 41.0772 57.6125ZM39.5656 57.5505V60.7005C39.4387 60.7005 39.2974 60.6861 39.1719 60.6688V57.5188C39.2974 57.5332 39.4228 57.5505 39.5656 57.5505ZM38.0368 57.3616V60.5116C37.9041 60.4932 37.7727 60.4672 37.643 60.4337V57.2822C37.7685 57.314 37.8954 57.3457 38.0368 57.3616ZM36.5252 56.9981V60.1495C36.391 60.1219 36.259 60.0848 36.13 60.0385V56.8885C36.257 56.9361 36.3983 56.9664 36.5252 56.9981ZM34.9964 56.4471V59.5986C34.8611 59.5505 34.7295 59.4927 34.6026 59.4255V56.2741C34.7281 56.3375 34.855 56.3996 34.9964 56.4471ZM33.4834 55.6279V58.7794C33.3456 58.6882 33.2141 58.588 33.0897 58.4794V55.3294C33.2166 55.439 33.3421 55.5342 33.4834 55.6279ZM31.9719 54.2101V57.376C31.8118 57.1912 31.6792 56.9842 31.5781 56.7616V53.5957C31.6877 53.8005 31.8147 54.0053 31.9719 54.2101Z" fill="#39D896"/>
<path d="M44.4123 50.3231L45.1911 49.8716L44.5998 49.5298L43.8108 49.9884C43.7964 49.987 41.8349 49.0048 40.1805 49.9625C39.3873 50.424 39.2502 50.8481 40.2238 51.8L40.3998 51.9702L38.7166 52.9481C38.6704 52.8817 38.2464 52.5586 38.0978 51.7134L36.6094 51.7985C36.8113 52.837 37.6969 53.362 37.8094 53.4759L37.1921 53.8351L37.7834 54.1769L38.405 53.8149C38.4195 53.8163 40.4315 54.8548 42.1219 53.8726C42.569 53.613 42.7853 53.3476 42.7623 53.0836C42.7132 52.5298 41.9546 51.8937 41.8724 51.8L43.5065 50.8509C43.5599 50.9173 43.9075 51.1884 44.1252 51.8115L45.5474 51.663C45.2012 50.812 44.5334 50.4356 44.4123 50.3231ZM40.1575 53.5596C39.7897 53.5596 39.5142 53.4327 39.2055 53.3505L40.831 52.4057L40.9291 52.5428C41.0647 52.7303 41.1166 52.8918 41.0877 53.0332C41.0214 53.3793 40.5151 53.5596 40.1575 53.5596ZM41.4368 51.3673C41.3877 51.2663 41.1873 51.0529 41.2594 50.7731C41.3661 50.3562 41.9892 50.1601 42.5993 50.3274L43.0219 50.4471L41.4353 51.3687L41.4368 51.3673Z" fill="#7AFEC7"/>
<path d="M50.6291 63.8174L50.6132 66.9688C50.6132 67.5198 50.4704 68.0707 50.2036 68.5914C50.0929 68.8037 49.9609 69.0042 49.8099 69.19C49.494 69.6158 49.1168 69.9925 48.6906 70.3078C48.5699 70.4163 48.4379 70.5116 48.2969 70.5919C48.1382 70.7174 47.9651 70.8126 47.7921 70.9236C47.5873 71.0332 47.3825 71.1428 47.1632 71.2539C47.0363 71.3159 46.9108 71.3794 46.768 71.4414C46.4074 71.6001 46.044 71.7414 45.6502 71.8683C45.5248 71.9001 45.3978 71.9462 45.2565 71.9779C44.883 72.0912 44.5042 72.186 44.1214 72.2621C43.9959 72.2938 43.8546 72.3097 43.7276 72.34C43.3572 72.403 42.9843 72.4506 42.6099 72.4828C42.4829 72.4972 42.3416 72.5145 42.2161 72.5145C41.8394 72.5587 41.4603 72.5795 41.081 72.5765H40.6873C40.3094 72.5765 39.9315 72.5448 39.5695 72.5145C39.4425 72.5145 39.3012 72.4986 39.1757 72.4828C38.2789 72.3952 37.3925 72.2214 36.5291 71.9635C35.8223 71.9597 35.1402 71.7029 34.6065 71.2395C34.4017 71.127 34.2127 71.0332 34.0238 70.9222C33.8407 70.8192 33.6617 70.709 33.4873 70.5919C33.3495 70.5008 33.2179 70.4006 33.0935 70.2919C32.6648 69.9862 32.2875 69.6142 31.9757 69.19C31.8156 69.0051 31.683 68.7982 31.582 68.5755C31.2936 68.0718 31.1415 67.5016 31.1406 66.9212L31.155 63.7539C31.155 64.3222 31.2993 63.7366 31.582 64.2717C31.9541 64.964 32.4589 65.5222 33.0935 66.0053C33.369 66.2462 33.7036 66.4481 34.0238 66.6342C34.1796 66.7265 34.7305 67.0337 35.0002 67.1246C35.4373 67.3323 36.0156 67.5457 36.5291 67.6741C39.5651 68.5986 43.4897 68.3895 45.6502 67.5803C46.1651 67.4086 46.6702 67.2088 47.1632 66.9818C47.7935 66.6659 48.0012 66.526 48.2969 66.3198C48.7296 66.0789 49.6743 65.3015 50.2036 64.3193C50.4863 63.7828 50.6291 64.3683 50.6291 63.8174Z" fill="#4AF9B0"/>
<path d="M47.7462 59.7977C51.5582 61.9987 51.5856 65.5727 47.7981 67.7737C44.002 69.9804 37.8318 69.9746 34.0198 67.7737C30.2077 65.5727 30.1875 62.0044 33.9823 59.7977C37.7712 57.5967 43.9342 57.5967 47.7462 59.7977Z" fill="#7AFEC7"/>
<path d="M46.3339 60.989C49.3569 62.5323 49.3786 65.039 46.3757 66.5823C43.3656 68.1299 38.4718 68.1255 35.4488 66.5823C32.4257 65.039 32.4098 62.5351 35.4199 60.989C38.4242 59.4457 43.3093 59.4457 46.3339 60.989Z" fill="#41EFA6"/>
<path d="M50.1983 65.4558V68.5914C50.088 68.8036 49.9566 69.0041 49.806 69.1899V66.0702C49.9632 65.8654 50.0873 65.6606 50.1983 65.4558ZM48.6868 67.1722V70.3077C48.5661 70.4163 48.4341 70.5115 48.293 70.5919V67.4563C48.4344 67.3784 48.5613 67.2818 48.6868 67.1722ZM47.1579 68.1183V71.2539C47.0325 71.3159 46.907 71.3794 46.7642 71.4414V68.2914C46.907 68.2294 47.031 68.1818 47.1579 68.1183ZM45.6464 68.7169V71.8683C45.5209 71.9 45.394 71.9462 45.2526 71.9779V68.8279C45.394 68.7962 45.5209 68.7645 45.6464 68.7169ZM44.1175 69.1106V72.2621C43.9921 72.2938 43.8507 72.3096 43.7238 72.3399V69.1899C43.8507 69.1582 43.9921 69.1423 44.1175 69.1106ZM42.606 69.3313V72.4827C42.4791 72.4971 42.3377 72.5145 42.2123 72.5145V69.363C42.3377 69.363 42.4791 69.3486 42.606 69.3313ZM41.0772 69.4265V72.5765H40.6834V69.4106C40.8103 69.425 40.9517 69.425 41.0772 69.425V69.4265ZM39.5656 69.363V72.5145C39.4387 72.5145 39.2974 72.4986 39.1719 72.4827V69.3313C39.2974 69.3471 39.4228 69.363 39.5656 69.363ZM38.0368 69.1741V72.3255C37.9041 72.3067 37.7726 72.2802 37.643 72.2462V69.0947C37.7685 69.1265 37.8954 69.1582 38.0368 69.1741ZM36.5252 68.8121V71.9621C36.3911 71.9349 36.259 71.8983 36.13 71.8524V68.701C36.257 68.7486 36.3983 68.7803 36.5252 68.8121ZM34.9964 68.2596V71.4111C34.8611 71.363 34.7295 71.3052 34.6026 71.238V68.0866C34.7281 68.15 34.855 68.2135 34.9964 68.2596ZM33.4834 67.4404V70.5919C33.3456 70.5007 33.2141 70.4005 33.0897 70.2919V67.1419C33.2166 67.2515 33.3421 67.3467 33.4834 67.4404ZM31.9719 66.0226V69.1899C31.8118 69.0051 31.6792 68.7982 31.5781 68.5755V65.4082C31.6877 65.613 31.8147 65.8178 31.9719 66.0226Z" fill="#39D896"/>
<path d="M44.4137 62.137L45.1925 61.6856L44.6012 61.3438L43.8123 61.801C43.7185 61.7692 43.045 61.3596 41.868 61.3567H41.8536C41.2248 61.3567 40.6623 61.4981 40.182 61.775C39.7377 62.0346 39.5199 62.2942 39.5373 62.5466C39.5762 63.0716 40.319 63.6904 40.4012 63.7841L38.718 64.762C38.6719 64.6942 38.2478 64.3726 38.0993 63.5274L36.6094 63.6111C36.8113 64.6495 37.6983 65.176 37.8108 65.2899L37.1935 65.6476L37.7849 65.9894L38.4065 65.6288C38.5017 65.6606 39.2257 66.0947 40.4142 66.1048C41.0488 66.1135 41.6373 65.9692 42.1233 65.6865C42.5704 65.4269 42.7868 65.1615 42.7637 64.8962C42.7377 64.599 42.4969 64.224 42.0469 63.7856L41.8738 63.6139L43.5079 62.6635C43.5613 62.7298 43.9089 63.001 44.1267 63.624L45.5488 63.4755C45.3547 63.0105 45.0388 62.6064 44.6344 62.3058L44.4137 62.137ZM40.1589 65.3736C39.7911 65.3736 39.5156 65.2452 39.207 65.163L40.8325 64.2183C40.8873 64.312 41.1454 64.576 41.0892 64.8471C41.0618 64.9856 40.5166 65.3736 40.1589 65.3736ZM41.4382 63.1812L41.343 63.0226C41.3005 62.9593 41.2713 62.8881 41.2572 62.8132C41.2431 62.7384 41.2443 62.6614 41.2608 62.587C41.2983 62.4428 41.4022 62.3202 41.5695 62.2236C41.8536 62.0562 42.2012 62.0317 42.6007 62.1413L43.0233 62.2596L41.4368 63.1827L41.4382 63.1812Z" fill="#7AFEC7"/>
<path d="M50.627 59.7988C50.5232 62.5781 50.8477 63.318 50.2015 64.5729C49.8842 65.1599 49.3722 65.77 48.6886 66.2892C48.4246 66.52 47.8924 66.8387 47.79 66.9036C47.4943 67.0637 47.0775 67.2858 46.766 67.4229C46.3116 67.6219 45.6626 67.8685 45.2544 67.9594C44.1583 68.2926 42.7607 68.4945 42.214 68.4945C41.552 68.5781 40.9664 68.5551 40.6852 68.5579C40.2482 68.5579 39.3222 68.483 39.1737 68.4642C38.1078 68.3748 36.5775 68.0012 36.1318 67.8339C35.6095 67.6636 35.0992 67.4584 34.6044 67.2195C34.378 67.0969 33.8559 66.8329 33.4852 66.5733C32.9458 66.2128 32.3544 65.7007 31.9737 65.1714C31.8136 64.9866 31.681 64.7796 31.5799 64.557C30.8761 63.2964 31.2352 62.5046 31.1544 59.7354C31.1544 60.3022 31.2958 59.718 31.5799 60.2531C31.6895 60.4579 31.8164 60.6628 31.9737 60.8676C32.7424 61.9349 33.8631 62.532 34.6044 62.9301C34.8741 63.0656 35.5073 63.3455 36.1333 63.5459C36.2054 63.5748 37.0261 63.8113 37.6448 63.9397C37.9217 64.0089 38.7237 64.1387 39.1737 64.1762C39.4419 64.2094 40.2712 64.2714 40.6852 64.2541C40.8871 64.2801 41.6025 64.283 42.214 64.208C42.3395 64.208 42.4809 64.1921 42.6078 64.1762C43.7285 64.0825 45.1462 63.7493 45.6482 63.5618C46.8092 63.1897 47.666 62.7397 48.2948 62.3012C48.602 62.1296 49.3953 61.4863 49.8078 60.9152C49.965 60.7104 50.0905 60.5055 50.2015 60.3007C50.4842 59.7642 50.627 60.3498 50.627 59.7988Z" fill="#4AF9B0"/>
<path d="M47.7462 55.7791C51.5582 57.9801 51.5856 61.5541 47.7981 63.7551C44.002 65.9618 37.8318 65.9561 34.0198 63.7551C30.2077 61.5541 30.1875 57.9844 33.9823 55.7791C37.7712 53.5782 43.9342 53.5782 47.7462 55.7791Z" fill="#7AFEC7"/>
<path d="M46.3339 56.9709C49.3569 58.5142 49.3786 61.0209 46.3757 62.5642C43.3656 64.1118 38.4718 64.1075 35.4488 62.5642C32.4257 61.0209 32.4098 58.5171 35.4199 56.9709C38.4242 55.4277 43.3093 55.4277 46.3339 56.9709Z" fill="#41EFA6"/>
<path d="M50.1983 61.4372V64.5728C50.088 64.785 49.9566 64.9856 49.806 65.1714V62.0517C49.9632 61.8469 50.0873 61.6421 50.1983 61.4372ZM48.6868 63.1536V66.2892C48.5661 66.3977 48.4341 66.493 48.293 66.5733V63.4377C48.4344 63.3598 48.5613 63.2647 48.6868 63.155V63.1536ZM47.1579 64.0997V67.2353C47.0325 67.2973 46.907 67.3608 46.7642 67.4228V64.2728C46.907 64.2094 47.031 64.1632 47.1579 64.0997ZM45.6464 64.6983V67.8497C45.5209 67.88 45.394 67.9276 45.2526 67.9594V64.8094C45.394 64.7776 45.5209 64.7459 45.6464 64.6983ZM44.1175 65.0921V68.2435C43.9921 68.2738 43.8507 68.2896 43.7238 68.3214V65.1728C43.8507 65.1411 43.9921 65.1238 44.1175 65.0921ZM42.606 65.3127V68.4642C42.4791 68.4786 42.3377 68.4945 42.2123 68.4945V65.3459C42.3377 65.3459 42.4791 65.3286 42.606 65.3127ZM41.0772 65.4079V68.5579H40.6834V65.3921C40.8103 65.4065 40.9517 65.4079 41.0772 65.4079ZM39.5656 65.3445V68.4945C39.4387 68.4945 39.2974 68.48 39.1719 68.4642V65.3127C39.2974 65.3272 39.4228 65.3445 39.5656 65.3445ZM38.0368 65.1555V68.3055C37.9041 68.2872 37.7727 68.2611 37.643 68.2276V65.0762C37.7685 65.1079 37.8954 65.1396 38.0368 65.1555ZM36.5252 64.7935V67.9435C36.3911 67.9164 36.259 67.8797 36.13 67.8339V64.6824C36.257 64.73 36.3983 64.7618 36.5252 64.7935ZM34.9964 64.2411V67.3925C34.8611 67.3445 34.7295 67.2866 34.6026 67.2195V64.068C34.7281 64.1315 34.855 64.1935 34.9964 64.2411ZM33.4834 63.4219V66.5733C33.3456 66.4822 33.2141 66.382 33.0897 66.2733V63.1247C33.2166 63.2344 33.3421 63.3281 33.4834 63.4219ZM31.9719 62.0041V65.1714C31.8118 64.9865 31.6792 64.7796 31.5781 64.557V61.3896C31.6877 61.5945 31.8147 61.7993 31.9719 62.0041Z" fill="#39D896"/>
<path d="M44.4123 58.1189L45.1911 57.6675L44.5998 57.3242L43.8108 57.7829L43.7243 57.7425C43.1408 57.4772 42.5075 57.3396 41.8666 57.3386H41.8522C41.2233 57.3386 40.6608 57.48 40.1805 57.7569C39.7363 58.0165 39.5185 58.2761 39.5358 58.5285C39.5575 58.8084 39.7882 59.1675 40.2252 59.5959L40.3983 59.766L38.7166 60.7439C38.6704 60.6761 38.2464 60.3545 38.0978 59.5093L36.6094 59.593C36.8113 60.6314 37.6969 61.1579 37.8094 61.2718L37.1921 61.6295L37.7834 61.9713L38.405 61.6108C38.5002 61.6425 39.2243 62.0766 40.4127 62.0867C41.0474 62.0939 41.6358 61.9511 42.1219 61.6685C42.569 61.4088 42.7853 61.1435 42.7623 60.8781C42.7363 60.5795 42.4954 60.2059 42.0454 59.7675L41.8724 59.5944L43.5065 58.6454L43.6075 58.7492C43.8339 58.98 44.007 59.267 44.1252 59.606L45.5474 59.4574C45.3535 58.9918 45.0376 58.5872 44.6329 58.2862L44.4123 58.1189ZM40.7849 61.1925C40.594 61.3016 40.3773 61.3574 40.1575 61.354C39.9887 61.354 39.8084 61.3252 39.6151 61.2675L39.2055 61.1449L40.831 60.2002L40.9291 60.3372C41.0647 60.5247 41.1166 60.6862 41.0877 60.829C41.0603 60.9675 40.9594 61.0915 40.7849 61.1925ZM41.4368 59.1632L41.3416 59.0045C41.2991 58.9413 41.2699 58.87 41.2558 58.7952C41.2416 58.7203 41.2429 58.6433 41.2594 58.5689C41.2969 58.4247 41.4007 58.3021 41.568 58.2055C41.8522 58.0382 42.1998 58.0136 42.5993 58.1233L43.0219 58.2415L41.4368 59.1632Z" fill="#7AFEC7"/>
<path d="M50.6305 56.0234L50.6147 59.1749C50.6147 60.0114 50.2714 60.8436 49.8113 61.396C49.2748 62.1388 48.5709 62.635 47.7935 63.1282C47.0738 63.5177 46.1204 63.9922 45.2579 64.184C44.544 64.4003 43.5993 64.6052 42.6113 64.6888C42.4238 64.7119 41.6882 64.7826 41.0825 64.7826C41.0464 64.7811 40.0642 64.7984 39.1772 64.6888C38.6635 64.6387 38.1531 64.5598 37.6483 64.4523C37.1388 64.3418 36.6341 64.2104 36.1353 64.0585C35.613 63.8883 35.1027 63.683 34.6079 63.4441C34.3815 63.3215 33.8594 63.0576 33.4887 62.7979C32.9493 62.4374 32.3579 61.9253 31.9772 61.396C31.5243 60.8523 31.1406 59.9883 31.1406 59.1273L31.1579 55.96C31.1579 56.5268 31.2993 55.9412 31.5834 56.4778C32.8959 58.9196 36.4599 60.1744 39.1772 60.4008C39.3026 60.4152 39.4281 60.4311 39.5709 60.4311C39.9315 60.4628 40.3108 60.4946 40.6887 60.4787C40.8156 60.4946 40.957 60.4946 41.0825 60.4946C41.4603 60.4946 41.8397 60.4802 42.2175 60.4311C42.343 60.4311 42.4844 60.4167 42.6113 60.4008C43.1195 60.3613 43.6245 60.2876 44.1228 60.1802C44.7272 60.059 45.5594 59.8196 45.6517 59.7864C46.1665 59.6146 46.6716 59.4148 47.1647 59.1878C47.5615 59.0008 47.9409 58.7788 48.2983 58.5244C48.4397 58.4465 48.5666 58.3513 48.6921 58.2417C49.1493 57.8955 49.5272 57.5335 49.8113 57.1398C49.9685 56.935 50.094 56.7302 50.205 56.5253C50.4877 55.9888 50.6305 56.5744 50.6305 56.0234Z" fill="#4AF9B0"/>
<path d="M47.7462 52.0034C51.5582 54.2043 51.5856 57.7784 47.7981 59.9793C44.002 62.1846 37.8318 62.1803 34.0198 59.9793C30.2077 57.7784 30.1875 54.2087 33.9823 52.0034C37.7712 49.801 43.9342 49.801 47.7462 52.0034Z" fill="#7AFEC7"/>
<path d="M46.3339 53.1946C49.3569 54.7378 49.3786 57.2446 46.3757 58.7878C43.3656 60.3354 38.4718 60.3311 35.4488 58.7878C32.4257 57.2446 32.4098 54.7407 35.4199 53.1946C38.4242 51.6513 43.3093 51.6513 46.3339 53.1946Z" fill="#41EFA6"/>
<path d="M50.1983 57.6619V60.7974C50.088 61.0096 49.9566 61.2102 49.806 61.396V58.2763C49.9632 58.0715 50.0873 57.8667 50.1983 57.6619ZM48.6868 59.3782V62.5138C48.5661 62.6223 48.4341 62.7176 48.293 62.7979V59.6623C48.4344 59.583 48.5613 59.4893 48.6868 59.3782ZM47.1579 60.3244V63.4599C47.0325 63.522 46.907 63.5854 46.7642 63.6474V60.4974C46.907 60.434 47.031 60.3878 47.1579 60.3244ZM45.6464 60.9229V64.0744C45.5209 64.1046 45.394 64.1522 45.2526 64.184V61.0325C45.394 61.0022 45.5209 60.9705 45.6464 60.9229ZM44.1175 61.3167V64.4681C43.9921 64.4984 43.8507 64.5143 43.7238 64.546V61.396C43.8507 61.3643 43.9921 61.3484 44.1175 61.3167ZM42.606 61.5373V64.6888C42.4791 64.7032 42.3377 64.7191 42.2123 64.7191V61.5691C42.3377 61.5691 42.4791 61.5532 42.606 61.5373ZM41.0772 61.6325V64.7825H40.6834V61.6167C40.8103 61.6311 40.9517 61.6325 41.0772 61.6325ZM39.5656 61.5691V64.7191C39.4387 64.7191 39.2974 64.7046 39.1719 64.6888V61.5373C39.2974 61.5518 39.4228 61.5691 39.5656 61.5691ZM38.0368 61.3801V64.5301C37.9041 64.5118 37.7727 64.4858 37.643 64.4522V61.3008C37.7685 61.3325 37.8954 61.3643 38.0368 61.3801ZM36.5252 61.0167V64.1681C36.3911 64.141 36.259 64.1043 36.13 64.0585V60.907C36.257 60.9546 36.3983 60.9864 36.5252 61.0167ZM34.9964 60.4657V63.6171C34.8611 63.5691 34.7295 63.5112 34.6026 63.4441V60.2926C34.7281 60.3561 34.855 60.4181 34.9964 60.4657ZM33.4834 59.6465V62.7979C33.3456 62.7068 33.2141 62.6066 33.0897 62.4979V59.3479C33.2166 59.4575 33.3421 59.5527 33.4834 59.6465ZM31.9719 58.2287V61.396C31.8118 61.2112 31.6792 61.0042 31.5781 60.7816V57.6143C31.6877 57.8191 31.8147 58.0239 31.9719 58.2287Z" fill="#39D896"/>
<path d="M44.4123 54.3411L45.1911 53.8897L44.5998 53.5479L43.8108 54.0065C43.7171 53.9748 43.0435 53.5652 41.8666 53.5608H41.8522C41.2233 53.5608 40.6608 53.7036 40.1805 53.9805C39.3873 54.4421 39.2502 54.8661 40.2238 55.818L40.3998 55.9897L38.7166 56.9676C38.6704 56.8998 38.2464 56.5781 38.0978 55.7315L36.6094 55.8166C36.8113 56.8551 37.6969 57.3815 37.8094 57.4954L37.1921 57.8531L37.7834 58.195L38.405 57.8344C38.5002 57.8661 39.2243 58.3003 40.4127 58.3104C41.0474 58.3176 41.6358 58.1748 42.1219 57.8921C42.569 57.6325 42.7853 57.3656 42.7623 57.1017C42.7363 56.8031 42.4954 56.4296 42.0454 55.9911L41.8724 55.818L43.5065 54.869C43.5599 54.9354 43.9075 55.2065 44.1252 55.8296L45.5474 55.681C45.3535 55.2155 45.0376 54.8109 44.6329 54.5099L44.4123 54.3411ZM40.7849 57.4161C40.2267 57.7406 39.6901 57.4983 39.2055 57.3685L40.831 56.4238L40.9291 56.5608C41.0647 56.7483 41.1166 56.9099 41.0877 57.0527C41.0603 57.1911 40.9594 57.3152 40.7849 57.4161ZM41.4368 55.3868L41.3416 55.2281C41.2991 55.1649 41.2699 55.0937 41.2558 55.0188C41.2416 54.9439 41.2429 54.867 41.2594 54.7926C41.2969 54.6483 41.4007 54.5257 41.568 54.4277C42.1377 54.0945 42.7709 54.4219 43.0219 54.4652L41.4368 55.3868Z" fill="#7AFEC7"/>
<path d="M50.6291 52.0049C50.5252 54.7842 50.8498 55.5241 50.2036 56.7789C50.0928 56.9907 49.9609 57.1907 49.8099 57.376C48.3733 59.3707 45.0964 60.4626 42.6099 60.6688C42.4829 60.6847 42.3416 60.7005 42.2161 60.7005C41.8394 60.7453 41.4603 60.7665 41.081 60.764H40.6873C40.3094 60.764 39.9315 60.7323 39.5695 60.7005C39.1815 60.7005 37.7853 60.5318 36.5291 60.1496C35.1416 59.8409 32.9349 58.7102 31.9757 57.376C31.8156 57.1912 31.683 56.9843 31.582 56.7616C31.2939 56.2583 31.1418 55.6886 31.1406 55.1087L31.155 51.9414C31.155 52.5082 31.2993 51.9227 31.582 52.4592C31.6916 52.664 31.8185 52.8688 31.9757 53.0736C32.3911 53.6505 33.069 54.213 33.4873 54.4914C34.3066 55.0326 35.1974 55.4569 36.1339 55.752C36.2089 55.7794 37.0281 56.0159 37.6483 56.1457C38.1526 56.2532 38.6625 56.3322 39.1757 56.3823C39.3012 56.3967 39.4267 56.4126 39.5695 56.4126C39.93 56.4443 40.3094 56.476 40.6873 56.4602C40.8142 56.476 40.9555 56.476 41.081 56.476C41.4589 56.476 41.8382 56.4616 42.2161 56.4126C42.3416 56.4126 42.4829 56.3981 42.6099 56.3823C45.343 56.1529 48.8983 54.9299 50.2036 52.5053C50.4863 51.9703 50.6291 52.5558 50.6291 52.0049Z" fill="#4AF9B0"/>
<path d="M47.7462 47.9837C51.5582 50.1861 51.5856 53.7587 47.7981 55.9597C44.002 58.1664 37.8318 58.1621 34.0198 55.9597C30.2077 53.7587 30.1875 50.1905 33.9823 47.9837C37.7712 45.7828 43.9342 45.7828 47.7462 47.9837Z" fill="#7AFEC7"/>
<path d="M46.3339 49.175C49.3569 50.7183 49.3786 53.2265 46.3757 54.7712C43.3656 56.3173 38.4718 56.3144 35.4488 54.7712C32.4257 53.2265 32.4098 50.7226 35.4199 49.175C38.4242 47.6318 43.3093 47.6318 46.3339 49.175Z" fill="#41EFA6"/>
<path d="M50.1983 53.6433V56.7774C50.088 56.9896 49.9566 57.1902 49.806 57.376V54.2577C49.9632 54.0529 50.0873 53.8481 50.1983 53.6433ZM48.6868 55.3596V58.4952C48.5661 58.6038 48.4341 58.699 48.293 58.7794V55.6438C48.4344 55.5645 48.5613 55.4707 48.6868 55.3596ZM47.1579 56.3058V59.4399C47.0325 59.5034 46.907 59.5669 46.7642 59.6289V56.4789C46.907 56.4154 47.031 56.3678 47.1579 56.3058ZM45.6464 56.9044V60.0544C45.5209 60.0861 45.394 60.1337 45.2526 60.1654V57.014C45.394 56.9822 45.5209 56.952 45.6464 56.9044ZM44.1175 57.2981V60.4481C43.9921 60.4798 43.8507 60.4957 43.7238 60.5274V57.376C43.8507 57.3457 43.9921 57.3298 44.1175 57.2981ZM42.606 57.5188V60.6688C42.4791 60.6846 42.3377 60.7005 42.2123 60.7005V57.5505C42.3377 57.5505 42.4791 57.5346 42.606 57.5188ZM41.0772 57.6125V60.764H40.6834V57.5967C40.8103 57.6125 40.9517 57.6125 41.0772 57.6125ZM39.5656 57.5505V60.7005C39.4387 60.7005 39.2974 60.6861 39.1719 60.6688V57.5188C39.2974 57.5332 39.4228 57.5505 39.5656 57.5505ZM38.0368 57.3616V60.5116C37.9041 60.4932 37.7727 60.4672 37.643 60.4337V57.2822C37.7685 57.314 37.8954 57.3457 38.0368 57.3616ZM36.5252 56.9981V60.1495C36.391 60.1219 36.259 60.0848 36.13 60.0385V56.8885C36.257 56.9361 36.3983 56.9664 36.5252 56.9981ZM34.9964 56.4471V59.5986C34.8611 59.5505 34.7295 59.4927 34.6026 59.4255V56.2741C34.7281 56.3375 34.855 56.3996 34.9964 56.4471ZM33.4834 55.6279V58.7794C33.3456 58.6882 33.2141 58.588 33.0897 58.4794V55.3294C33.2166 55.439 33.3421 55.5342 33.4834 55.6279ZM31.9719 54.2101V57.376C31.8118 57.1912 31.6792 56.9842 31.5781 56.7616V53.5957C31.6877 53.8005 31.8147 54.0053 31.9719 54.2101Z" fill="#39D896"/>
<path d="M44.4123 50.3231L45.1911 49.8716L44.5998 49.5298L43.8108 49.9884C43.7964 49.987 41.8349 49.0048 40.1805 49.9625C39.3873 50.424 39.2502 50.8481 40.2238 51.8L40.3998 51.9702L38.7166 52.9481C38.6704 52.8817 38.2464 52.5586 38.0978 51.7134L36.6094 51.7985C36.8113 52.837 37.6969 53.362 37.8094 53.4759L37.1921 53.8351L37.7834 54.1769L38.405 53.8149C38.4195 53.8163 40.4315 54.8548 42.1219 53.8726C42.569 53.613 42.7853 53.3476 42.7623 53.0836C42.7132 52.5298 41.9546 51.8937 41.8724 51.8L43.5065 50.8509C43.5599 50.9173 43.9075 51.1884 44.1252 51.8115L45.5474 51.663C45.2012 50.812 44.5334 50.4356 44.4123 50.3231ZM40.1575 53.5596C39.7897 53.5596 39.5142 53.4327 39.2055 53.3505L40.831 52.4057L40.9291 52.5428C41.0647 52.7303 41.1166 52.8918 41.0877 53.0332C41.0214 53.3793 40.5151 53.5596 40.1575 53.5596ZM41.4368 51.3673C41.3877 51.2663 41.1873 51.0529 41.2594 50.7731C41.3661 50.3562 41.9892 50.1601 42.5993 50.3274L43.0219 50.4471L41.4353 51.3687L41.4368 51.3673Z" fill="#7AFEC7"/>
<path d="M50.6291 48.229L50.6132 51.379C50.6132 52.2155 50.27 53.0492 49.8099 53.6001C49.3512 54.2362 48.5695 54.8506 48.2969 55.0035C48.0228 55.2227 47.4776 55.5083 47.1632 55.6641C46.6584 55.9165 46.1522 56.1184 45.6502 56.2785C45.2738 56.3737 44.919 56.5136 44.1214 56.6723C43.7608 56.7631 43.0541 56.8569 42.6099 56.8929C42.4829 56.9088 42.3416 56.9247 42.2161 56.9247C41.8394 56.9694 41.4603 56.9906 41.081 56.9881H40.6873C40.2502 56.9881 39.3243 56.9117 39.1757 56.8929C37.4738 56.7516 35.0478 56.0953 33.4873 55.0035C32.9478 54.6429 32.3565 54.1295 31.9757 53.6001C31.8156 53.4153 31.683 53.2084 31.582 52.9857C31.2936 52.482 31.1415 51.9118 31.1406 51.3314L31.155 48.1655C31.155 48.7324 31.2993 48.1468 31.582 48.6833C31.9551 49.3637 32.4713 49.9552 33.095 50.417C33.2204 50.5266 33.3459 50.6203 33.4873 50.7155C35.3377 51.8925 37.7089 52.7001 41.081 52.7001C41.4589 52.7001 41.8382 52.6843 42.2161 52.6367C43.6469 52.6367 46.3844 51.9227 47.8079 51.0458C47.981 50.9506 48.1397 50.841 48.2969 50.7314C48.6041 50.5598 49.3974 49.9165 49.8099 49.3439C49.9671 49.1391 50.0925 48.9343 50.2036 48.7295C50.4863 48.1944 50.6291 48.7799 50.6291 48.229Z" fill="#4AF9B0"/>
<path d="M47.7462 44.2079C51.5582 46.4103 51.5856 49.9828 47.7981 52.1838C44.002 54.3905 37.8318 54.3862 34.0198 52.1838C30.2077 49.9828 30.1875 46.4146 33.9823 44.2079C37.7712 42.0069 43.9342 42.0069 47.7462 44.2079Z" fill="#7AFEC7"/>
<path d="M46.3339 45.3992C49.3569 46.9424 49.3786 49.4506 46.3757 50.9939C43.3656 52.5415 38.4718 52.5371 35.4488 50.9939C32.4257 49.4506 32.4098 46.9467 35.4199 45.3992C38.4242 43.8559 43.3093 43.8559 46.3339 45.3992Z" fill="#41EFA6"/>
<path d="M50.1983 49.8674V53.0001C50.088 53.2123 49.9566 53.4129 49.806 53.5987V50.4804C49.9632 50.2756 50.0887 50.0708 50.1998 49.866L50.1983 49.8674ZM48.6868 51.5838V54.7193C48.5661 54.8279 48.4341 54.9232 48.293 55.0035V51.8679C48.4344 51.7886 48.5613 51.6948 48.6868 51.5838ZM47.1579 52.5299V55.6641C47.0325 55.7275 46.907 55.791 46.7642 55.853V52.703C46.907 52.6395 47.031 52.5919 47.1579 52.5299ZM45.6464 53.1285V56.2785C45.5209 56.3102 45.394 56.3578 45.2526 56.3895V53.2381C45.394 53.2064 45.5209 53.1746 45.6464 53.1285ZM44.1175 53.5222V56.6722C43.9921 56.704 43.8507 56.7198 43.7238 56.7516V53.6001C43.8507 53.5698 43.9921 53.554 44.1175 53.5222ZM42.606 53.7429V56.8929C42.4791 56.9088 42.3377 56.9246 42.2123 56.9246V53.7746C42.3377 53.7746 42.4791 53.7588 42.606 53.7429ZM41.0772 53.8367V56.9881H40.6834V53.8208C40.8103 53.8367 40.9517 53.8367 41.0772 53.8367ZM39.5656 53.7746V56.9246C39.4387 56.9246 39.2974 56.9102 39.1719 56.8929V53.7429C39.2974 53.7573 39.4228 53.7746 39.5656 53.7746ZM38.0368 53.5842V56.7357C37.9041 56.7169 37.7726 56.6904 37.643 56.6564V53.5064C37.7685 53.5381 37.8954 53.5698 38.0368 53.5842ZM36.5252 53.2237V56.3737C36.391 56.3461 36.259 56.309 36.13 56.2626V53.1126C36.257 53.1602 36.3983 53.1919 36.5252 53.2237ZM34.9964 52.6713V55.8227C34.8611 55.7747 34.7295 55.7168 34.6026 55.6496V52.4982C34.7281 52.5616 34.855 52.6237 34.9964 52.6713ZM33.4834 51.852V55.0035C33.3456 54.9124 33.2141 54.8121 33.0897 54.7035V51.552C33.2166 51.6631 33.3421 51.7568 33.4834 51.852ZM31.9719 50.4342V53.6001C31.8118 53.4153 31.6792 53.2083 31.5781 52.9857V49.8198C31.6877 50.0246 31.8147 50.2294 31.9719 50.4342Z" fill="#39D896"/>
<path d="M44.4137 46.5472L45.1925 46.0957L44.6012 45.7539L43.8123 46.2126C43.7978 46.2111 41.8363 45.2289 40.182 46.1866C39.7377 46.4462 39.5199 46.7058 39.5373 46.9568C39.5762 47.4832 40.319 48.102 40.4012 48.1943L38.718 49.1722C38.6719 49.1058 38.2478 48.7828 38.0993 47.9376L36.6094 48.0227C36.8113 49.0611 37.6983 49.5861 37.8108 49.7001L37.1935 50.0578L37.7849 50.401L38.4065 50.039C38.4209 50.039 40.4329 51.0789 42.1233 50.0967C42.5704 49.8371 42.7868 49.5717 42.7637 49.3078C42.7147 48.7539 41.956 48.1179 41.8738 48.0241L43.5079 47.0751C43.5613 47.1414 43.9089 47.4126 44.1267 48.0356L45.5488 47.8856C45.2026 47.0361 44.5349 46.6597 44.4137 46.5472ZM40.1589 49.7837C39.7911 49.7837 39.5156 49.6568 39.207 49.5746L40.8325 48.6299C40.8873 48.7236 41.1454 48.9861 41.0892 49.2587C41.0228 49.6034 40.5166 49.7837 40.1589 49.7837ZM41.4382 47.5914C41.3892 47.4904 41.1887 47.2755 41.2608 46.9972C41.3675 46.5803 41.9906 46.3842 42.6007 46.5515L43.0233 46.6712L41.4368 47.5929L41.4382 47.5914Z" fill="#7AFEC7"/>
<path d="M50.6291 44.2104C50.5252 46.9883 50.9392 48.2258 49.8099 49.5816C49.3512 50.2176 48.5695 50.8321 48.2969 50.9835C48.0228 51.2042 47.4776 51.4883 47.1632 51.647C45.8724 52.2902 44.1329 52.7475 42.6099 52.8744C42.4829 52.8902 42.3416 52.9061 42.2161 52.9061C40.0368 53.1787 36.77 52.7128 34.6065 51.6297C34.38 51.5085 33.8579 51.2431 33.4873 50.9835C33.3495 50.8929 33.218 50.7931 33.0935 50.685C32.6647 50.3788 32.2874 50.0064 31.9757 49.5816C31.8156 49.3968 31.683 49.1898 31.582 48.9672C31.2936 48.4634 31.1415 47.8933 31.1406 47.3128L31.155 44.147C31.155 44.7138 31.2993 44.1282 31.582 44.6633C31.9551 45.3437 32.4713 45.9352 33.095 46.397C33.2204 46.5066 33.3459 46.6018 33.4873 46.697C34.3066 47.2377 35.1974 47.6615 36.1339 47.9561C37.7002 48.5431 40.6296 48.8172 42.2161 48.6196C42.7743 48.6196 44.1531 48.4176 45.2565 48.083C46.2084 47.871 47.9565 47.0705 48.6906 46.4287C49.3252 45.947 49.8142 45.4335 50.2036 44.7124C50.4863 44.1758 50.6291 44.7614 50.6291 44.2104Z" fill="#4AF9B0"/>
<path d="M47.7462 40.1893C51.5582 42.3903 51.5856 45.9643 47.7981 48.1653C44.002 50.372 37.8318 50.3677 34.0198 48.1653C30.2077 45.9643 30.1875 42.396 33.9823 40.1893C37.7712 37.9883 43.9342 37.9883 47.7462 40.1893Z" fill="#7AFEC7"/>
<path d="M46.3339 41.3811C49.3569 42.9244 49.3786 45.4311 46.3757 46.9758C43.3656 48.5219 38.4718 48.5191 35.4488 46.9758C32.4257 45.4325 32.4098 42.9287 35.4199 41.3811C38.4242 39.8378 43.3093 39.8378 46.3339 41.3811Z" fill="#41EFA6"/>
<path d="M50.1983 45.8489V48.983C50.088 49.1952 49.9566 49.3958 49.806 49.5816V46.4633C49.9632 46.2585 50.0873 46.0537 50.1983 45.8489ZM48.6868 47.5652V50.7008C48.566 50.8089 48.434 50.9036 48.293 50.9835V47.8508C48.4344 47.7715 48.5613 47.6763 48.6868 47.5652ZM47.1579 48.5114V51.6455C47.0325 51.709 46.907 51.7724 46.7642 51.8345V48.6845C46.907 48.621 47.031 48.5734 47.1579 48.5114ZM45.6464 49.1099V52.2599C45.5209 52.2917 45.394 52.3393 45.2526 52.371V49.2196C45.394 49.1878 45.5209 49.1561 45.6464 49.1099ZM44.1175 49.5037V52.6537C43.9921 52.6854 43.8507 52.7013 43.7238 52.733V49.5816C43.8507 49.5498 43.9921 49.534 44.1175 49.5037ZM42.606 49.7244V52.8744C42.4791 52.8902 42.3377 52.9061 42.2123 52.9061V49.7547C42.3377 49.7547 42.4791 49.7402 42.606 49.7244ZM41.0772 49.8181V52.9696H40.6834V49.8023C40.8103 49.8181 40.9517 49.8181 41.0772 49.8181ZM39.5656 49.7547V52.9061C39.4387 52.9061 39.2974 52.8917 39.1719 52.8744V49.7258C39.2974 49.7402 39.4228 49.7547 39.5656 49.7547ZM38.0368 49.5672V52.7172C37.9041 52.6983 37.7726 52.6718 37.643 52.6378V49.4878C37.7685 49.5196 37.8954 49.5513 38.0368 49.5672ZM36.5252 49.2037V52.3551C36.391 52.3275 36.259 52.2904 36.13 52.2441V49.0941C36.257 49.1402 36.3983 49.172 36.5252 49.2037ZM34.9964 48.6527V51.8027C34.8611 51.7547 34.7295 51.6968 34.6026 51.6297V48.4797C34.7281 48.5417 34.855 48.6051 34.9964 48.6527ZM33.4834 47.8335V50.9835C33.3457 50.8929 33.2141 50.7931 33.0897 50.6849V47.5335C33.2166 47.6446 33.3421 47.7383 33.4834 47.8335ZM31.9719 46.4157V49.5816C31.8118 49.3967 31.6792 49.1898 31.5781 48.9672V45.8027C31.6877 46.0075 31.8147 46.2124 31.9719 46.4172V46.4157Z" fill="#39D896"/>
<path d="M44.4137 42.5286L45.1925 42.0772L44.6012 41.7354L43.8123 42.194C43.7185 42.1623 43.045 41.7527 41.868 41.7483H41.8536C41.2248 41.7483 40.6623 41.8897 40.182 42.168C39.7377 42.4277 39.5199 42.6873 39.5373 42.9382C39.5762 43.4647 40.319 44.0834 40.4012 44.1757L38.718 45.1536C38.6719 45.0873 38.2478 44.7642 38.0993 43.919L36.6094 44.0027C36.8113 45.0411 37.6983 45.5676 37.8108 45.6815L37.1935 46.0392L37.7849 46.381L38.4065 46.0204C38.4209 46.0204 40.4329 47.0604 42.1233 46.0781C42.5704 45.8185 42.7868 45.5531 42.7637 45.2892C42.7377 44.9906 42.4969 44.6171 42.0469 44.1772L41.8738 44.0055L43.5079 43.0565C43.5613 43.1229 43.9089 43.394 44.1267 44.0171L45.5488 43.8671C45.2026 43.0176 44.5349 42.6411 44.4137 42.5286ZM40.1589 45.7652C39.7911 45.7652 39.5156 45.6382 39.207 45.556L40.8325 44.6113L40.9305 44.7469C41.0661 44.9344 41.118 45.0959 41.0892 45.2402C41.0228 45.5849 40.5166 45.7652 40.1589 45.7652ZM41.4382 43.5729L41.343 43.4156C41.3003 43.3522 41.271 43.2807 41.2569 43.2056C41.2428 43.1305 41.2441 43.0532 41.2608 42.9786C41.2983 42.8344 41.4022 42.7132 41.5695 42.6152C42.1392 42.2805 42.7724 42.6079 43.0233 42.6527L41.4382 43.5729Z" fill="#7AFEC7"/>
</svg>
