<svg width="74" height="73" viewBox="0 0 74 73" fill="none" xmlns="http://www.w3.org/2000/svg">
<path d="M13.898 17.3172C13.6996 15.7112 13.9613 13.9971 14.9076 12.6852C15.8085 11.4361 17.3085 10.6412 18.8474 10.5963C20.3864 10.5515 21.9297 11.2582 22.9019 12.4522C19.9733 14.3156 17.8114 17.347 17.0041 20.7228C16.9051 21.1381 16.811 21.5842 16.5055 21.8821C15.0931 23.261 13.9965 18.1121 13.898 17.3172ZM59.5122 26.2681C60.4223 24.9303 60.9722 23.2859 60.73 21.6864C60.4991 20.1637 59.5279 18.7718 58.1793 18.0283C56.8307 17.2859 55.1349 17.2091 53.7247 17.8277C55.4794 20.8228 56.0174 24.5069 55.1933 27.879C55.0922 28.2937 54.9716 28.7333 55.1068 29.1378C55.7341 31.0093 59.0618 26.9305 59.5122 26.2681ZM48.5027 64.8148C48.5514 63.7522 48.7028 62.6643 49.2252 61.738C49.7475 60.8117 50.7052 60.0714 51.7683 60.0628C52.6048 60.0563 53.3997 60.4997 53.9669 61.1145C54.5347 61.7293 54.8997 62.5026 55.189 63.2877C53.3959 64.9013 50.8377 65.4199 48.5027 64.8148ZM20.6389 67.6012C20.0955 66.5457 19.4363 65.4913 18.4262 64.8656C17.4166 64.2405 15.9734 64.1746 15.1234 65.0041C14.6929 65.4242 14.4642 66.0169 14.3782 66.6122C14.2917 67.2076 14.3366 67.8132 14.3809 68.4129C16.4201 69.3051 18.815 68.8763 20.6389 67.6012ZM34.8723 28.0844C34.3964 28.3213 34.2412 29.0264 34.5695 29.4449C34.8972 29.8635 35.6131 29.8829 35.9684 29.4877C36.3231 29.0913 36.2279 28.3862 35.784 28.0942C35.34 27.8022 34.6592 27.9887 34.4224 28.4651" fill="#00B852"/>
<path d="M68.6602 36.673C68.4634 36.7358 68.2617 36.8093 68.0578 36.8882C68.4163 36.4794 68.6759 36.2053 68.7976 35.6721C68.8711 35.3585 68.7316 34.8956 68.3844 34.6934C67.8507 34.3787 67.2775 34.5723 66.6962 34.7642C63.0722 36.0139 59.7629 38.9571 61.9669 42.1215C61.3705 42.1215 60.7254 42.4627 60.1911 42.7753C59.5633 43.1008 58.7614 43.7032 57.8092 43.1441C57.2847 42.8629 56.639 42.2097 55.9301 41.5732C53.9996 39.8039 52.0584 37.88 51.542 37.4679C52.3198 36.0807 52.942 34.6118 53.3973 33.0879C54.2614 30.1625 54.4268 27.5583 54.1684 25.4159C53.4394 19.3136 49.4731 15.6036 49.1611 15.9043C48.8891 16.1671 50.5778 17.586 51.9064 20.732C53.4162 24.3512 53.7049 28.1585 52.2942 32.751C48.9605 43.3863 39.1579 47.4987 30.5045 45.2459C28.9227 44.8428 27.4085 44.2099 26.0104 43.3674C21.1989 40.4723 18.0653 35.2092 17.637 29.7683C17.1703 23.871 19.8946 17.9775 24.2557 14.6308C27.8191 11.9422 31.8623 10.9267 36.2201 10.9284C40.6542 11.1922 44.7795 12.2748 48.1899 15.1478C48.2505 15.1986 49.1238 15.9405 49.1611 15.9043C49.199 15.8675 48.3727 15.0618 48.3154 15.0045C48.124 14.8163 47.9087 14.5913 47.6238 14.3891C44.408 11.6822 40.4119 10.6218 36.2406 10.2795C30.903 10.1551 26.968 11.548 23.7193 13.9268C18.6401 17.7098 15.6308 24.6513 16.7231 31.436C15.5103 34.2732 15.5005 34.6377 12.7217 39.8591C12.3242 39.3978 11.8878 38.969 11.3606 38.6667C10.9989 38.4596 10.4738 38.3261 10.237 38.6765C9.43937 39.0474 9.37935 39.4173 7.60355 39.2534C6.24846 39.1572 5.67744 39.0296 4.32396 39.3751C3.19652 39.6801 2.97319 40.4101 3.28141 40.9714C3.60586 41.583 4.12659 41.656 5.88616 42.0977C6.30524 42.1994 6.89572 42.3373 7.31912 42.4C5.72286 43.024 3.78538 44.2996 3.1976 44.8539C2.31673 45.6704 2.6428 46.9741 3.79836 46.9898C4.35587 46.992 4.77656 46.7724 5.29405 46.5578C5.65005 46.4127 6.00236 46.2587 6.35066 46.096C5.94294 46.455 5.33407 47.0477 5.01395 47.5246C4.15958 48.7791 5.37246 50.277 7.00117 48.9954C8.08914 48.061 8.69261 47.3662 9.05653 46.8865C8.73208 47.5625 8.41034 48.5304 8.17241 49.2658C8.11293 49.4983 8.06535 49.7611 8.12753 50.0553C8.28435 50.8777 9.47181 51.2054 10.304 50.3256C10.6674 49.9309 10.8572 49.507 11.0594 49.1533C11.4991 48.339 13.4441 44.7593 13.6923 43.8903C13.9756 43.7811 14.1422 43.4615 14.1919 43.1538C14.3547 42.1491 13.8145 41.2353 13.1889 40.4323C14.5413 38.4964 16.0613 35.2812 16.8648 32.2065C17.9393 37.4317 21.2556 42.2194 26.2099 44.8815C26.0693 45.008 25.8995 45.1627 25.6989 45.3379C23.9026 46.9493 22.4134 47.171 20.5229 49.6476C20.0179 50.3348 19.7891 50.9562 20.0401 51.7797C20.2553 52.4448 20.5235 52.8374 20.7176 53.2375C21.5904 54.8906 22.2355 56.0613 22.7205 56.8897C22.2582 57.1855 21.4952 57.584 21.3919 57.8684C21.2998 57.9246 21.2214 58.0007 21.1626 58.0912C21.0118 58.3832 21.0458 58.6066 21.1194 58.7515C20.1541 58.9288 19.6302 59.8038 19.7751 60.3791C18.8223 60.8074 18.6271 61.5639 18.7174 61.6044C18.8023 61.6455 19.1154 61.1567 19.7383 60.9426C21.5011 60.2715 23.2813 61.8423 23.5451 61.3097C23.5868 61.2248 23.6171 61.1432 23.4126 60.9739C23.2001 60.8203 22.7865 60.5024 21.7639 60.2266C21.0934 60.0698 20.5365 60.1093 20.0195 60.2845C20.2466 59.7383 20.7587 59.363 21.5514 59.402C22.4853 59.4809 22.8222 59.8362 22.9963 59.5155C23.0412 59.4328 23.079 59.3533 22.9265 59.2057C22.6545 58.9488 22.0083 58.6979 21.4179 58.7174C21.4012 58.6498 21.4004 58.5792 21.4157 58.5113C21.431 58.4433 21.4619 58.3798 21.506 58.3259C21.5698 58.2497 21.7396 58.1696 21.9683 58.1994C22.2052 58.2183 22.4626 58.3632 22.8535 58.5779C23.9512 59.2062 25.3977 58.6828 25.966 57.6532C26.0877 57.7268 26.7593 58.0539 27.2844 58.5184C27.7851 58.957 28.2388 59.6248 28.2215 60.3748C28.2166 60.9669 27.8283 61.6239 27.2957 62.2901C25.8795 64.0983 24.3725 65.7757 22.4507 67.0529C19.4604 59.4582 12.7065 63.0206 13.8978 68.229C14.0854 68.9196 14.2011 68.9282 14.2844 68.9082C14.2552 68.9693 14.2195 69.0948 14.2379 69.2948C14.2579 69.5857 14.4504 69.987 14.823 70.3385C16.3684 71.7568 19.707 72.1635 22.9692 69.9562C25.163 68.4962 29.2537 64.3946 29.7188 62.0159C29.9908 60.6505 29.2381 59.7864 29.0445 59.9503C28.8174 60.1423 29.9145 61.0637 28.5886 63.1482C27.1524 65.441 24.3871 68.196 22.6156 69.4333C19.6075 71.5622 16.5442 71.3334 14.9987 70.1378C14.6359 69.848 14.4331 69.5192 14.3736 69.2705C14.3244 69.0834 14.3325 68.9504 14.3271 68.8936C14.6581 68.7276 13.6328 65.913 15.7347 64.0886C17.2109 62.7967 19.1224 63.264 20.4759 64.6266C21.3243 65.4702 21.8645 66.4651 22.316 67.1438C20.3477 68.4167 18.2367 68.9498 16.4977 68.879C15.2918 68.8352 14.5699 68.5719 14.5526 68.6319C14.5256 68.7103 17.4234 69.9983 21.2281 68.3101C23.8755 67.1616 26.019 64.9608 27.8229 62.7054C28.3702 62.03 28.8887 61.2448 28.906 60.3953C28.926 58.852 27.7386 57.8284 26.37 57.1168L25.6405 56.7502C25.3507 56.2441 24.3157 56.3068 23.7495 56.4463C23.338 55.573 22.7248 54.358 21.8245 52.653C21.6282 52.2637 21.3395 51.7986 21.2135 51.4228C21.1048 51.0859 21.1031 50.8534 21.4649 50.3132C23.0942 47.8177 25.2506 47.1542 26.4884 45.0361C27.667 45.6465 28.9109 46.1217 30.1962 46.4529C33.0173 47.1937 37.0723 47.2997 40.7012 46.2512C40.493 47.802 40.6347 52.9331 41.044 55.5703C40.5314 55.7044 39.7841 56.0002 39.7165 56.5236C39.1542 57.1709 38.5988 57.7673 38.2041 58.5573C37.8418 59.2911 37.586 60.2964 38.0186 61.3113C38.3701 62.1203 39.1779 62.6702 39.9696 63.1023C42.5911 64.5558 45.5149 65.8249 48.5133 65.8833C50.6195 65.9422 52.9776 65.382 54.6642 63.9637C54.9319 63.7236 55.0644 63.5765 55.0498 63.5597C55.0092 63.5089 54.4198 64.0464 53.2794 64.5639C51.6442 65.3144 49.4071 65.64 47.0052 65.1917C47.1814 64.2897 47.2972 63.1823 47.7736 62.0462C48.5398 60.1882 50.2015 58.9926 52.1265 59.6507C54.8729 60.5765 55.0033 63.6857 55.3699 63.7214C55.3861 63.7777 55.4472 63.902 55.4732 64.1021C55.5148 64.3644 55.4494 64.7602 55.2158 65.1814C54.7367 66.0125 53.6476 66.948 52.2276 67.3979C49.386 68.3637 46.4082 67.3071 43.6715 66.1466C41.7373 65.3209 40.3676 64.5163 39.4088 63.8301C37.3129 62.3506 38.0062 61.0345 37.7104 60.9393C37.6644 60.9247 37.6147 60.9166 37.5319 61.0615C37.4622 61.2037 37.3308 61.5282 37.4373 62.1349C37.6174 63.0682 38.2657 63.7798 39.0163 64.3541C40.0058 65.109 41.415 65.9563 43.3909 66.7999C46.3184 68.0398 49.3985 68.9861 52.3947 67.8721C53.9034 67.3195 55.0135 66.264 55.4634 65.3047C55.6824 64.8207 55.7089 64.3589 55.6132 64.0718C55.5521 63.8728 55.4683 63.7658 55.4164 63.7187C55.5002 63.7057 55.6051 63.6511 55.5105 62.9163C54.5712 57.3737 46.7543 56.7718 46.8467 65.1587C44.4999 64.6915 42.3927 63.6776 40.3124 62.4956C39.5381 62.0662 38.906 61.5887 38.668 61.0215C38.3555 60.3083 38.5274 59.4885 38.8357 58.8699C39.1596 58.2107 39.6662 57.6451 39.7603 57.5191C39.8144 57.5424 40.4795 58.1567 41.6124 58.0117C42.2829 57.9387 42.8263 57.5478 43.1135 57.179C43.4044 56.8189 43.5942 56.5788 43.8143 56.4668C44.0224 56.3479 44.2166 56.3576 44.308 56.4063C44.3716 56.4406 44.4264 56.4892 44.4679 56.5483C44.5095 56.6075 44.5368 56.6755 44.5475 56.7469C43.9662 56.9638 43.4476 57.4629 43.2908 57.8111C43.2027 58.0123 43.2708 58.0745 43.346 58.1356C43.6418 58.3773 43.8207 57.902 44.6886 57.4569C45.1256 57.2515 45.5403 57.1914 45.9967 57.3656C46.2281 57.4434 46.3914 57.5829 46.5077 57.7008C45.2483 57.7792 44.136 58.7098 43.5217 59.6999C43.3919 59.9438 43.453 60.0103 43.5271 60.0747C43.9976 60.4894 45.0655 58.2724 47.0371 58.221C47.72 58.181 48.2137 58.5265 48.2792 58.4541C48.3094 58.4216 48.2332 58.2745 48.0266 58.1069C47.7595 57.8906 47.3264 57.7122 46.7797 57.6943C46.6894 57.0671 45.8269 56.4555 44.8471 56.6615C44.8606 56.4939 44.8049 56.2662 44.5448 56.0451C44.4529 55.9816 44.348 55.9394 44.2377 55.9218C44.0105 55.6714 42.9875 55.5946 42.7631 55.5411C42.5583 55.4927 42.3497 55.4625 42.1396 55.4508C42.1466 52.6265 41.4274 47.3873 41.0381 46.1473C45.4181 44.7885 48.947 41.9598 51.4614 37.6199C52.2309 38.783 54.2662 40.9698 55.4115 42.114C56.1702 42.8737 56.864 43.6226 57.654 43.9741C58.769 44.4711 59.6206 44.0103 60.5772 43.4171C61.7344 42.652 61.8528 42.7104 62.2989 42.5466C63.3399 43.7383 65.3384 44.9209 66.833 44.285C67.177 44.1423 67.3176 43.9849 67.3127 43.9628C67.9221 44.4521 68.9998 44.3953 69.8039 43.2403C70.031 42.9078 70.2657 42.5233 70.3387 42.0442C70.4814 41.0806 69.7677 40.4469 69.1431 40.5685C69.1574 40.3698 69.0984 40.1727 68.9774 40.0144C68.8564 39.8561 68.6816 39.7476 68.4861 39.7093C69.1415 39.3859 69.9174 38.8928 70.3349 38.5781C70.5577 38.3839 70.8756 38.1552 70.9676 37.6318C71.0627 36.8807 70.3446 36.1658 68.6602 36.673ZM11.0097 47.8393C10.1694 49.441 10.0883 49.6367 9.85087 49.9087C9.72001 50.0547 9.57942 50.1694 9.4172 50.2245C9.09816 50.3402 8.73154 50.2732 8.62826 49.9309C8.5823 49.7735 8.59419 49.5719 8.63367 49.3729C9.50696 45.8964 9.39935 46.654 9.44153 46.3355C9.66324 45.9613 9.61024 45.8927 9.54265 45.8413C9.2593 45.6239 8.72235 46.6373 6.58047 48.4758C6.38959 48.6315 6.16735 48.784 5.9424 48.8251C5.70177 48.8656 5.48007 48.8035 5.39084 48.6088C5.13345 48.0891 5.7261 47.4516 6.11435 46.9671C6.80326 46.1284 7.49054 45.5055 7.73928 45.2308C7.92043 45.0496 7.88528 44.982 7.84743 44.9301C7.78957 44.8501 7.73117 44.8155 7.23531 45.048C6.33876 45.4547 6.17816 45.5076 5.0491 45.9511C4.64895 46.0981 4.22663 46.328 3.80972 46.3215C3.21923 46.3198 3.22572 45.7039 3.6383 45.2843C3.99519 44.9112 5.0983 44.1125 5.52549 43.8157C6.44583 43.1722 7.28127 42.6877 7.6652 42.4325C7.85338 42.4319 7.88258 42.38 7.89772 42.3205C7.92205 42.2318 7.92043 42.1448 7.36347 41.9323C6.71458 41.6841 5.66067 41.3921 4.9496 41.1877C4.52512 41.066 4.02601 40.9708 3.8719 40.6577C3.63938 40.1576 4.53539 39.964 5.08046 39.8412C6.54803 39.4876 8.78183 40.0835 9.7092 39.2534C9.86058 39.1428 10.0057 39.0238 10.144 38.8971C9.95199 39.7158 10.6231 40.6734 11.0405 41.325C11.4352 41.9415 12.574 43.6156 13.2532 43.8811C12.9255 44.3391 12.3015 45.4114 11.0097 47.8393ZM69.3286 38.4867C67.7118 39.6439 67.4143 39.8007 67.5063 39.971C67.5414 40.0364 67.6128 40.1008 68.12 39.8818C68.5553 39.9223 68.8441 40.2744 68.6726 40.6215C68.6397 40.7334 68.6191 40.8297 68.6564 40.9406C68.6732 41.0108 68.7662 41.1098 68.8478 41.1287C69.0501 41.1866 69.1344 41.0963 69.2307 41.0747C69.2729 41.0655 69.3999 41.1109 69.4962 41.192C69.6671 41.3326 69.7444 41.6468 69.6746 41.9274C69.5779 42.3708 69.022 43.1619 68.5299 43.3658C68.2255 43.4966 67.8026 43.4658 67.6917 43.1462C67.689 43.1214 67.6701 43.1311 67.688 43.0808L67.7437 42.9694C67.7626 42.9316 67.8231 42.8559 67.8605 42.8018C67.9583 42.4773 67.8567 42.2308 67.5214 42.1724C67.4187 42.1561 67.2024 42.1686 67.0142 42.4195C66.9866 42.4519 66.9474 42.4723 66.905 42.4763C66.6222 42.5303 66.3923 42.3941 66.3339 42.0556C66.7314 42.0004 67.0477 41.8917 67.3484 41.6251C67.8264 41.2034 67.808 40.4734 67.2851 39.9986C66.9444 39.6909 66.3442 39.4935 65.8981 39.3919C64.9951 39.1853 64.2559 39.3043 64.2607 39.4119C64.2586 39.5265 64.9594 39.6195 65.7267 39.9407C66.1176 40.11 66.9298 40.4474 66.8963 40.8443C66.8904 40.9135 66.8612 40.9665 66.7941 41.0298C66.52 41.2677 66.0403 41.3164 65.7662 41.3326C65.0973 41.3612 64.8426 41.2174 64.7317 41.4878C64.6906 41.5873 64.6495 41.6976 64.9578 41.8733C65.1124 41.9544 65.3606 42.0496 65.7472 42.081C65.6953 42.6498 66.0933 43.2236 66.8887 43.2409L66.8985 43.2441C66.9098 43.2387 66.8914 43.2614 66.8877 43.2657C66.9569 43.5648 67.1007 43.7903 67.3094 43.959C67.2164 43.8957 65.8138 45.0118 63.4221 42.9802C62.7948 42.4449 62.1919 41.7079 61.9502 40.8248C61.4224 38.8674 63.1939 37.3733 64.9599 36.3799C66.0793 35.7603 67.2559 35.3828 67.5663 35.3401C67.748 35.3093 67.9102 35.3363 67.9535 35.3715C68.1692 35.5661 67.6452 36.1307 67.4522 36.3475C67.2283 36.6017 67.0212 36.8569 66.8044 37.0883C65.9143 37.9784 66.1517 37.6945 66.0019 37.8464C65.7456 38.2141 65.9035 38.5186 66.1863 38.5851C66.4329 38.6289 66.5627 38.5148 66.8168 38.3715L67.655 37.9281C68.1352 37.6956 69.0382 37.3252 69.4459 37.2619C69.7595 37.2154 70.2435 37.2359 70.2484 37.5534C70.2462 37.8464 69.6135 38.272 69.3291 38.4867H69.3286Z" fill="white"/>
<path d="M32.2312 43.017C30.2852 42.6748 28.4314 41.932 26.7876 40.8357C21.8111 37.5015 19.0333 31.1829 20.5204 24.9476C21.0595 22.5878 22.2562 20.1253 24.053 18.0872C24.5478 17.5195 25.167 16.8857 24.5705 17.3886C24.4224 17.5195 24.192 17.7017 23.933 17.9759C22.1193 19.7619 20.7215 22.3137 20.0791 24.8384C18.4045 31.1732 21.1163 37.8638 26.369 41.457C28.0918 42.6301 30.0415 43.4287 32.0922 43.8011C41.9824 45.4504 49.5041 39.0842 50.8927 30.4583C51.1247 28.9826 51.1003 28.2007 51.0614 27.8C51.0246 27.3983 50.9722 27.3701 50.916 27.3696C50.6975 27.3685 50.7927 28.1266 50.3287 30.3496C48.5097 38.9041 41.4741 44.5116 32.2312 43.017Z" fill="white"/>
<path d="M29.2806 31.7404C29.2698 31.722 29.2601 31.7096 29.2509 31.7101C29.2423 31.7112 29.2347 31.7274 29.2282 31.7496C29.225 31.7518 29.2131 31.7496 29.212 31.7528C29.2098 31.7566 29.2206 31.7669 29.2228 31.7723C29.193 31.9113 29.1882 32.286 29.232 32.8262C29.3021 33.7265 29.4763 34.6157 29.7511 35.4758C30.0734 36.4892 30.6271 37.5658 31.3847 38.4067C33.7953 41.1688 37.3436 40.9 38.9069 39.0188C39.16 38.703 39.2314 38.4991 39.2487 38.3856C39.267 38.272 39.2249 38.2385 39.1767 38.2093C38.9983 38.1001 38.9037 38.3012 38.3451 38.736C38.7496 37.6572 39.1703 35.2893 39.167 34.4144C39.478 34.3279 39.7789 34.2086 40.0646 34.0586C40.5816 33.7682 40.5448 33.653 40.4983 33.5573C40.2442 33.0279 38.4992 34.6101 34.1754 33.4643C32.0476 32.9138 29.7944 31.7966 29.2806 31.7404ZM38.8258 34.5009C38.5257 35.1633 38.1066 36.4951 37.9276 37.2408C37.6059 38.5765 37.5978 39.0015 37.6984 39.1523C37.2565 39.388 36.7762 39.5431 36.28 39.6104L36.3233 39.4373C36.6374 37.9546 35.5495 36.5714 34.1462 37.0613C34.0792 37.0862 34.0505 37.124 34.0029 37.1732L34.0089 37.1516C34.0229 37.0764 33.9397 36.8483 33.9024 36.7682C33.459 35.7354 31.8951 35.869 31.4706 37.3592C30.9786 36.7287 30.5795 36.0014 30.2918 35.2796C29.717 33.8661 29.504 32.4785 29.3358 31.8918C29.6462 32.1433 30.5395 32.6829 31.6577 33.2415C33.9083 34.3554 36.3952 35.0524 38.8258 34.5009ZM13.2109 20.1031C13.8933 21.6448 14.9299 22.6403 15.5091 22.908C15.7578 23.0247 15.8216 22.9718 15.8762 22.9047C16.0655 22.6738 15.7048 22.4629 14.9034 21.2149C13.5948 18.9741 13.2228 16.4715 14.2897 14.0625C15.4328 11.4972 17.9651 9.66521 20.8846 9.88746C22.1769 9.981 23.4834 10.4936 24.5508 11.2004C24.5767 11.2204 24.5924 11.2355 24.5962 11.2647C24.5746 11.3599 24.2707 11.4129 23.8343 11.6265C22.3765 12.5284 21.7297 12.8594 20.3341 14.2393C18.1484 16.4423 16.69 19.2423 16.1969 21.9097C16.0368 22.7836 16.0357 23.2967 16.0887 23.3038C16.344 23.3643 16.7544 18.7956 20.9635 14.8915C22.3321 13.6478 22.9064 13.3812 24.3188 12.5684C24.6114 12.4268 25.6961 12.2062 25.8015 11.4691C25.8053 10.9587 25.6582 10.7775 25.3733 10.4514C24.733 9.78471 23.1086 9.13204 22.2705 8.90223C21.9084 8.81026 21.5404 8.74377 21.169 8.70323C24.6243 4.23671 30.8866 2.40631 36.2286 2.65072C42.3514 2.79023 49.5454 6.25097 52.3173 12.2873C52.4665 12.7042 52.6255 13.0156 52.7007 13.2676C51.7219 13.3109 51.2569 13.4531 50.8335 13.6218C49.248 14.5789 50.8557 15.6928 50.8989 15.7723C52.188 17.1372 53.0695 18.4279 53.8341 20.1577C54.9615 22.69 55.2816 25.2445 55.2703 27.069C55.2595 28.9048 54.9907 30.0322 55.0951 30.0549C55.1573 30.0755 55.5925 28.9778 55.7569 27.0906C56.1008 23.1356 54.775 18.82 52.4011 15.9C51.882 15.1964 51.9982 15.3403 51.6214 14.9823C51.3548 14.7482 51.2661 14.6438 51.3867 14.6006C51.3753 14.6108 51.4548 14.5708 51.5283 14.5578C52.7677 14.2729 54.8653 14.3215 56.5886 15.138C57.7025 15.6534 58.5472 16.425 59.1528 17.2015C61.2757 19.9993 61.5104 24.149 58.5445 27.3318C57.3635 28.5776 56.1571 29.1135 55.6785 29.4266C55.4482 29.5802 55.4487 29.6667 55.473 29.7494C55.4974 29.8327 55.5369 29.9062 55.8299 29.89C56.1225 29.8754 56.6805 29.7656 57.636 29.2681C62.1674 26.7304 63.4084 20.7423 60.1445 16.4374C59.4388 15.5263 58.4125 14.6097 57.105 14.0257C55.7656 13.4115 54.5906 13.2579 53.3977 13.2563C53.0257 8.38852 45.7029 1.50327 36.2627 1.49786C30.8894 1.37674 24.4718 3.45372 21.4248 7.80398C21.0371 8.35824 21.0268 8.42259 20.9024 8.67457C15.3468 8.20846 10.6889 14.2783 13.2109 20.1031Z" fill="white"/>
<path d="M34.2925 29.5471C34.7565 30.3664 36.1083 30.3096 36.4842 29.4038C36.7994 28.6614 36.3971 27.734 35.5595 27.5956C35.8136 27.0414 36.2776 24.1776 36.4344 22.7538C36.7534 19.8609 36.5793 19.7808 36.356 19.756C36.1332 19.7316 35.945 19.7722 35.626 22.6651C35.4692 24.0873 35.2978 26.9824 35.4254 27.5805C34.6289 27.5361 34.1601 28.2007 34.338 28.4035C34.2276 28.5722 34.1651 28.7676 34.1571 28.969C34.1491 29.1704 34.1959 29.3702 34.2925 29.5471ZM35.2653 28.3305C35.4751 28.3413 35.7001 28.4278 35.772 28.7923C35.8737 29.4796 35.0431 29.572 34.7743 29.233C34.5954 29.034 34.6013 28.6906 34.6819 28.4824C34.7181 28.4705 34.7592 28.4532 34.8062 28.43C34.9047 28.3921 35.0523 28.3224 35.2653 28.3305Z" fill="white"/>
<path d="M36.3824 18.7956L36.3997 18.7902C36.4414 18.7799 36.4462 18.7989 36.4376 18.8281C36.4322 18.8481 36.4295 18.8519 36.4295 18.8519L36.4316 18.8513C36.5246 19.2542 36.6631 19.7587 36.9508 20.0788C37.1281 20.2713 37.2238 20.2248 37.3212 20.1718C37.7359 19.9463 37.1654 19.3293 37.1676 17.9385L37.1703 16.8008C35.8995 18.2879 35.7644 18.5198 35.4832 18.9259C35.1879 19.3661 34.9954 19.7176 35.0679 19.7814C35.1896 19.889 35.9888 19.1595 36.3824 18.7956ZM36.5847 28.7615C36.556 28.9832 39.9281 29.6007 41.5103 29.804C44.3978 30.1755 44.4811 30.0025 44.5098 29.7802C44.5384 29.5574 44.5011 29.3693 41.6136 28.9978C40.0319 28.7945 36.6133 28.5387 36.5847 28.7615ZM45.4744 30.2269C45.4182 30.2431 45.2095 30.288 44.9651 30.3804C44.5541 30.534 44.2891 30.7179 44.3173 30.8033C44.3508 30.9039 44.6644 30.8671 45.7719 30.8466C46.1855 30.8303 46.7701 30.8747 47.2589 30.8866C46.9631 30.4972 45.8827 29.1011 45.4663 28.8539C45.2825 28.7452 45.1987 28.8031 45.1116 28.8745C45.0251 28.9453 44.951 29.0162 45.0213 29.2179C45.1154 29.4877 45.4333 29.8938 45.6064 30.1176L45.6042 30.1187C45.6042 30.1187 45.614 30.1187 45.6383 30.1349C45.6502 30.1463 45.667 30.162 45.6123 30.1923C45.615 30.1977 45.5328 30.2139 45.475 30.2269H45.4744ZM48.183 58.5244C46.9323 58.4865 45.8146 59.521 45.3571 60.6273C45.2809 60.8539 45.3501 60.9107 45.4312 60.9658C45.7356 61.1724 45.94 60.6619 46.7836 59.8189C47.0934 59.5064 47.6396 59.1116 48.2144 59.0267C48.7789 58.9078 49.2364 59.136 49.2942 59.0576C49.3213 59.0213 49.2445 58.8975 49.0504 58.7693C48.8579 58.6423 48.5415 58.5314 48.183 58.5244ZM21.8473 62.8768C22.0636 62.9455 22.1193 62.88 22.1718 62.8011C22.2237 62.7221 22.2648 62.6459 22.1134 62.4718C21.3077 61.6607 19.9342 61.1372 18.8257 61.6326C18.167 61.9175 17.9453 62.4631 18.0308 62.514C18.1108 62.5632 18.4347 62.1922 18.9814 62.0916C20.1559 61.8002 21.4201 62.7687 21.8473 62.8768ZM26.5772 19.9674C26.9352 19.371 27.3845 18.6804 27.9404 18.383C28.4936 18.0748 29.0851 18.3117 29.4372 18.6183C30.1066 19.1914 30.1899 19.9296 30.2337 20.453C30.2877 21.4858 30.1066 22.1585 30.3802 22.199C30.4705 22.212 30.5597 22.2082 30.6955 21.6929C30.8771 20.9213 30.9258 20.0977 30.6938 19.3537C30.2872 18.0191 28.8207 17.1236 27.637 17.8461C26.979 18.2392 26.4836 19.0557 26.1576 19.7479C25.506 21.1165 25.4719 22.3537 25.5573 22.3542C25.6541 22.3726 25.8591 21.1949 26.5772 19.9674ZM40.4012 21.7843C40.4488 21.7854 40.4877 21.5593 40.538 21.2057C40.5921 20.8558 40.6602 20.3638 40.8949 19.9279C41.1242 19.4867 41.5535 19.1265 41.998 19.1222C42.4458 19.099 42.8681 19.3553 43.1217 19.5943C44.108 20.5303 43.8933 22.2564 44.3394 22.2104C44.4308 22.2007 44.5152 22.179 44.533 21.7751C44.652 17.7763 40.0395 17.2783 40.2774 21.1965C40.3066 21.5637 40.3563 21.7843 40.4018 21.7848L40.4012 21.7843ZM56.5169 8.62807C56.9901 8.23657 57.1869 7.78451 58.1164 6.11633C58.3545 6.71545 58.7707 7.22712 59.3088 7.58228C59.883 7.95647 60.5936 8.12464 61.2835 8.07273L59.9101 10.3752C59.3747 9.65926 58.21 9.58302 57.746 10.4542C57.3091 11.2772 57.8488 12.2716 58.814 12.2716C59.1455 12.2716 59.4937 12.151 59.7949 11.912C60.1545 11.6265 60.381 11.2469 60.5811 10.9116L62.4013 7.86022C62.6511 7.44493 62.2428 6.94636 61.7881 7.10588C61.1246 7.3384 60.3529 7.24756 59.7738 6.86958C59.2103 6.50134 58.8183 5.84866 58.7513 5.16625C58.701 4.66282 58.0331 4.51952 57.785 4.96347C56.1887 7.82561 56.6424 7.01071 56.5585 7.16266C56.4342 6.97556 56.3823 6.94636 56.2271 6.85498C55.4998 6.31424 54.368 6.6495 54.2793 7.67366C54.1809 8.83193 55.4792 9.4846 56.5169 8.62807ZM9.34269 30.9325C10.1035 31.337 11.1325 30.9704 11.4694 30.182C11.6987 29.6467 11.5873 29.0664 11.5062 28.643L11.2591 27.3512C11.8544 27.7579 12.7029 27.8828 13.3123 27.4064L12.7878 26.7359C12.4633 26.99 11.9031 26.8326 11.5851 26.5239C11.1861 26.1367 10.9822 25.5289 10.8027 24.992L9.98131 25.2072L10.5388 28.1169C9.95211 27.9287 9.26969 28.1028 8.87495 28.5803C8.29906 29.2757 8.49697 30.4837 9.34269 30.9325ZM44.9926 16.6224C44.9283 16.6981 45.6605 17.3935 46.3796 18.3841C48.3647 21.0327 48.8427 23.8862 48.9952 24.3355C49.112 24.7616 49.198 24.773 49.2894 24.7627C49.3813 24.753 49.4624 24.7281 49.464 24.2679C49.3737 22.6479 48.7189 20.9386 47.9337 19.6813C46.6522 17.6065 45.0608 16.5342 44.9926 16.6224ZM61.3544 29.0632C61.0256 29.4866 61.071 29.5758 61.1419 29.6521C61.2122 29.7283 61.2889 29.7862 61.741 29.432C62.7365 28.7182 64.1003 26.4736 64.3139 24.0592C64.4588 22.5575 64.263 21.0851 63.6228 19.6722C63.3897 19.2136 63.2091 18.9541 63.1659 18.9762C63.1156 19.0006 63.2053 19.3023 63.347 19.7754C63.4676 20.2567 63.6368 20.9164 63.6931 21.661C63.9251 24.4301 62.9647 27.1787 61.3544 29.0632ZM65.2239 26.7883C65.3104 26.8467 65.3905 26.897 65.5484 26.7742C66.0513 26.333 66.3768 25.1093 66.0188 24.0878C65.855 23.586 65.5754 23.2638 65.4873 23.3113C65.3196 23.3962 65.67 24.1457 65.3748 25.4694C65.2466 26.0507 65.1055 26.3233 65.0914 26.4985C65.0644 26.6683 65.1374 26.7304 65.2239 26.7883Z" fill="white"/>
</svg>
