<svg width="73" height="74" viewBox="0 0 73 74" fill="none" xmlns="http://www.w3.org/2000/svg">
<path d="M58.7719 66.3256C57.3119 70.1664 54.1567 70.7239 53.2293 70.7764C52.3009 70.8288 51.4562 70.2681 50.6765 69.742C49.8962 69.2158 49.0267 68.681 48.1036 68.7924C46.8718 68.9417 45.9104 70.2092 44.671 70.1675C42.1701 70.0837 41.9035 65.1857 38.8505 65.867C37.9058 66.0779 37.1347 66.7776 36.6789 67.6655C35.9175 69.1498 34.3229 71.614 32.4611 71.0376C30.6388 70.4725 30.475 66.405 27.8524 67.7282C27.1316 68.0916 26.6379 68.774 26.1074 69.3829C25.5775 69.9912 24.914 70.579 24.1088 70.632C22.9062 70.711 21.8902 69.577 20.6854 69.6024C19.1843 69.6338 18.3348 71.3415 17.0116 72.0504C15.6408 72.7858 13.7277 72.218 12.9793 70.8543C12.5845 70.134 12.4364 69.1947 11.7259 68.7821C11.1711 68.4599 10.4497 68.5967 9.89382 68.9173C9.33794 69.2374 8.89399 69.7165 8.39813 70.1237C7.47509 70.8818 6.23355 71.4047 5.0888 71.0646C2.13095 70.1848 4.80221 65.9606 5.53599 64.2578L12.7641 47.4878L17.2917 36.9828C19.4633 37.4046 20.2874 40.8231 21.0558 42.513C22.0075 44.6056 21.35 49.4182 20.8254 51.6542C19.5466 57.1048 19.1086 60.5677 17.8297 66.0184L38.9538 54.957C44.053 59.0569 54.0091 63.4834 58.7719 66.3256ZM30.3874 23.3729C30.3215 23.3427 30.2556 23.3127 30.1894 23.2831C29.8109 23.1133 29.3994 22.9387 28.9771 22.9938C28.5542 23.049 28.1784 23.4546 28.3817 23.7741C28.0092 23.4529 27.5869 23.1593 27.0867 23.0079C26.587 22.8565 25.9982 22.8662 25.5591 23.1198C25.1205 23.374 24.8923 23.8996 25.1254 24.3046C24.6934 23.965 24.2289 23.6249 23.6605 23.4946C23.0922 23.3642 22.3947 23.5065 22.1129 23.9461C21.8847 24.303 21.9918 24.7658 22.2817 25.0887C22.7418 25.5991 23.5156 25.7343 24.1861 25.9463C25.936 26.5011 27.5495 27.2614 29.3405 27.7534C31.7695 28.4207 35.2502 28.7608 37.8014 28.836C43.735 29.0107 49.0516 28.1925 53.9198 25.3039C54.6028 24.8983 55.3231 24.1672 54.8726 23.5719C54.5898 23.1977 53.948 23.1263 53.4645 23.2961C52.9811 23.4659 52.6226 23.8163 52.2922 24.1613C52.8476 24.0115 52.9384 23.2869 52.521 22.9414C52.1035 22.5964 51.4097 22.6045 50.8895 22.8273C50.3688 23.0495 49.9822 23.4416 49.6101 23.8223C50.1184 23.8428 50.0682 23.0598 49.5804 22.9376C49.0927 22.8154 48.6065 23.0977 48.1929 23.3491C45.653 24.8945 42.5059 26.0669 39.3891 26.0934C37.8198 26.1074 36.4474 25.876 34.9334 25.5278C33.389 25.1725 31.8073 24.0267 30.3874 23.3729Z" fill="#00B852"/>
<path d="M53.9386 25.2958C53.2951 25.2038 52.6462 25.1119 51.9865 25.0146C51.1646 24.8956 50.3319 24.7767 49.4937 24.6577C49.2017 24.6144 48.7691 24.555 48.6502 24.5333C48.5204 24.2035 48.3852 23.8736 48.2554 23.5438C48.2284 23.4843 48.2067 23.4248 48.1797 23.3599C48.1851 23.3545 48.1905 23.3545 48.1959 23.3491C48.6069 23.1004 49.0936 22.8138 49.5802 22.9381C49.8398 23.003 49.975 23.2518 49.9696 23.4681C50.2399 23.2139 50.5319 22.9814 50.8888 22.8246C51.4133 22.6029 52.1055 22.5975 52.5219 22.9436C52.7598 23.1382 52.8301 23.4627 52.7436 23.733C52.9545 23.5492 53.1924 23.3924 53.4682 23.295C53.9494 23.1274 54.5929 23.1977 54.8741 23.5708C55.3175 24.1602 54.6145 24.8902 53.9386 25.2958ZM34.7072 30.6096C34.2567 31.1087 33.7949 31.6295 33.5905 32.2697C33.2553 33.3187 33.6765 34.4592 33.676 35.5547C33.676 35.7332 33.9085 35.7975 34.0009 35.6445C34.8364 34.2569 35.7351 32.8953 36.9577 31.8431C37.4985 31.3786 38.0965 30.98 38.6005 30.4755C38.9411 30.1349 39.2532 29.6823 39.1666 29.208C39.0747 28.703 38.5437 28.3742 38.0311 28.3407C36.444 28.2369 35.6464 29.5665 34.7072 30.6096Z" fill="#00B852"/>
<path d="M41.8779 29.8629C42.2419 30.4279 42.615 31.0157 42.7134 31.6808C42.8756 32.7704 42.2775 33.8276 42.1023 34.9096C42.0737 35.0859 41.8331 35.1113 41.7665 34.9458C41.1647 33.4426 40.4963 31.9539 39.4581 30.7194C38.9996 30.1738 38.4729 29.6844 38.0565 29.1058C37.7753 28.7143 37.5401 28.2179 37.7007 27.7637C37.8727 27.2797 38.4496 27.0407 38.9606 27.0899C40.5439 27.2424 41.1182 28.683 41.8779 29.8629Z" fill="#00B852"/>
<path d="M13.5816 57.2362C13.7492 57.2795 13.865 57.3903 12.9289 61.056C12.4152 63.0643 11.1791 67.3394 11.0115 67.2972C10.8438 67.255 11.8096 62.9091 12.3222 60.9008C13.2588 57.2357 13.414 57.1935 13.5816 57.2362ZM34.2687 26.5059C34.2736 26.5924 34.2731 26.6703 34.0773 26.7341C33.8843 26.7866 33.4814 26.852 32.7287 26.6887C32.3167 26.6011 31.6964 26.3453 31.2503 26.0198C30.7983 25.7007 30.5225 25.3476 30.5782 25.286C30.6366 25.2184 31.0016 25.4379 31.4682 25.6342C31.9333 25.8386 32.5021 26.0003 32.8677 26.0787C33.535 26.2236 33.8864 26.2312 34.067 26.2918C34.2493 26.3415 34.2639 26.4194 34.2687 26.5059Z" fill="white"/>
<path d="M22.2688 42.7914C22.2245 42.7492 22.3272 42.8568 22.3483 42.8779V42.8763C22.3221 42.8477 22.2956 42.8194 22.2688 42.7914Z" fill="white"/>
<path d="M68.2693 27.3722C67.7848 27.3025 66.5244 27.1235 65.5494 26.9775C58.4322 25.9447 62.9895 26.613 53.9397 25.2958C53.9343 25.3012 53.9289 25.3012 53.9235 25.3066C53.3233 25.6635 52.7122 25.9879 52.0958 26.2799L55.6517 26.7871C54.9001 27.7713 53.8186 30.3641 53.4703 33.408C53.0134 37.2343 54.0122 40.8778 54.7497 41.9338C54.5242 41.8506 53.2903 42.1847 51.7794 42.5492C47.2783 43.6631 43.9906 44.0784 42.8956 44.4434C42.5771 43.3403 41.414 42.7076 40.3136 42.3832C37.5882 41.5564 35.6583 43.2343 35.8903 44.955C35.3242 44.8376 34.3671 44.7078 33.291 44.5407C29.1624 43.9238 25.5427 43.0159 24.452 42.8336C25.5173 40.6896 26.0743 35.5109 24.4672 30.4955C23.775 28.3272 22.8103 26.7563 22.6692 26.8293C22.5016 26.9088 23.1645 28.5846 23.6123 30.7243C24.9382 37.0066 23.6853 41.292 23.6885 42.7693C23.4814 42.7882 23.4073 42.8596 23.3673 42.9488C23.3846 42.799 23.376 42.646 23.3176 42.5076C23.1959 42.2469 23.1272 42.2393 23.0147 42.102L21.7278 40.7501L9.82067 28.2482C9.76118 28.2158 9.80444 28.1401 9.86393 28.1563C27.3753 25.8933 24.6456 26.2448 24.956 26.2042C23.6701 25.7392 23.1159 25.7111 22.5713 25.3336C8.239 27.2446 9.1707 27.0489 8.84193 27.2857C8.43637 27.5561 8.25468 28.1877 8.72296 28.7079C19.4891 39.8693 21.8494 42.3399 22.275 42.7914C22.288 42.8033 22.3129 42.8271 22.355 42.8699L22.3545 42.8763V42.8774C22.3594 43.0818 20.1045 52.919 17.7047 63.7479C17.3207 65.4425 17.2742 65.5729 17.3478 65.8405C17.4651 66.2796 18.0383 66.6143 18.651 66.2839C37.6023 55.9028 37.9192 55.7211 38.5827 55.361C38.7016 55.2744 38.8098 55.269 38.9125 55.3285C46.8317 59.6599 59.1254 66.4083 59.1849 66.2893C59.1849 66.1228 43.7024 57.3736 39.1667 54.7986C38.9017 54.631 38.5286 54.6742 38.2961 54.8364C37.9705 55.0041 37.6364 55.1933 36.5711 55.7557C36.3927 55.852 18.5439 65.4004 18.4887 65.4296C18.4239 65.4728 18.3319 65.5053 18.2616 65.4512C18.1448 65.3809 17.9426 66.5381 23.3251 43.1981C23.4933 43.901 28.5108 45.3308 33.2131 45.4221C34.3849 45.4519 35.4047 45.4005 35.9671 45.314C36.3748 46.5934 38.5983 47.8311 40.8084 47.2201C41.8022 46.94 42.768 46.2944 42.947 45.2821C44.0295 45.4075 46.159 45.0388 47.2237 44.8273C48.4928 44.577 50.4562 44.0222 52.046 43.3933C53.5763 42.7985 54.7486 42.1707 54.786 41.982C54.8097 42.0133 54.8335 42.0447 54.8552 42.0674C54.5134 42.4178 54.2041 42.6606 54.2858 43.1781C54.9958 46.4214 58.5749 62.8075 59.5147 65.9487C59.6175 66.1433 59.3904 66.219 59.3255 66.2299C58.8799 66.3083 59.5407 66.696 59.8446 66.2407C59.9657 66.0384 60.0317 66.1087 59.0064 60.8819C57.0165 50.6327 55.297 43.1505 55.3889 43.0591C55.5143 42.9293 56.5542 41.8819 56.8489 41.5829L57.1393 41.2871C56.5834 41.8506 57.0679 41.359 57.1393 41.2871C57.8985 40.5176 60.5989 37.7793 68.9453 29.3135C69.5498 28.73 69.3297 27.5993 68.2693 27.3722ZM41.9012 45.0328C41.8514 45.0328 41.8379 45.0285 41.8331 45.0247C41.8341 45.0269 41.8352 45.029 41.8314 45.035C41.7838 46.0397 39.5117 47.2082 37.1757 46.0716C37.189 46.0178 37.1868 45.9614 37.1692 45.9088C37.12 45.7244 36.5652 44.8528 37.2162 44.0833C37.8586 43.3154 38.9752 43.2868 39.9578 43.5831C40.3379 43.6945 40.7927 43.8659 41.1323 44.0822C41.5054 44.3169 41.8022 44.6429 41.8217 44.9512L42.1526 44.9858C42.0699 45.0182 41.985 45.0339 41.9012 45.0328ZM55.4029 41.5061C55.2342 40.1283 53.9202 36.0652 55.0131 30.3133C55.3213 28.6722 55.7885 27.3203 55.8691 26.8185C64.7707 28.0876 63.3989 27.8843 65.3764 28.1725L67.9827 28.5402L67.9936 28.5456C68.0098 28.551 68.0098 28.5727 67.999 28.5835C63.7596 32.9343 58.2489 38.571 55.4029 41.5061Z" fill="white"/>
<path d="M57.1354 41.2871C56.5795 41.8505 57.064 41.359 57.1354 41.2871V41.2871ZM25.4939 13.2102C25.2003 17.6578 27.8586 20.1739 30.9878 20.1739L31.0224 20.1728C30.6185 21.1477 30.213 22.1292 29.8025 23.122C30.0372 23.2063 30.5866 23.4583 30.9002 23.6249L30.9273 23.5654C31.1922 22.9327 31.4518 22.3109 31.7113 21.6836L32.4127 20.0019C34.3767 19.5347 36.2108 18.1326 37.1696 16.1167C37.5751 15.265 38.1467 14.6648 38.7799 14.4269C40.8926 13.6358 41.2186 16.2275 42.4461 17.5729C43.2767 18.483 44.2614 19.1627 45.3066 19.578C45.9003 21.0455 46.493 22.5134 47.0846 23.9818C47.4577 23.7817 47.8254 23.5708 48.1769 23.3599C47.7346 22.2579 47.2766 21.1266 46.8153 19.9841C50.3518 20.4718 53.0025 17.7838 52.5888 14.4431C52.5509 14.1403 52.5158 13.8558 52.5537 13.5995C52.6104 13.2118 52.6537 13.2859 53.0998 13.2297C53.1739 13.2202 53.2451 13.1948 53.3084 13.1551C53.3717 13.1154 53.4256 13.0624 53.4664 12.9998C53.7 12.6484 53.4502 12.3093 53.3404 11.7724C53.2669 11.5112 53.1944 11.2506 53.1247 10.9953C53.0506 10.7212 52.8138 10.526 52.5493 10.5216C50.8211 10.4903 49.0945 10.4865 47.4253 10.4827C45.982 10.48 44.4896 10.4735 42.9706 10.453C39.7668 2.51597 39.995 3.03183 39.8549 2.89286C39.5629 2.54679 38.9843 2.42783 38.5571 2.64953C38.0196 2.91828 38.0169 3.37845 37.8109 3.77427C36.9527 5.84801 36.0589 8.01043 35.1342 10.2388C31.9439 10.3859 29.3564 10.3724 25.6091 10.4275C25.4591 10.4336 25.315 10.488 25.1985 10.5826C25.0819 10.6773 24.9991 10.807 24.9624 10.9526C24.7872 11.5718 23.7576 13.2924 25.4939 13.2102ZM39.0384 4.06627H39.0438C39.9197 6.24301 40.7971 8.41913 41.6761 10.5946C41.475 10.7158 40.6363 11.5393 39.1628 11.4706C38.3835 11.4393 37.613 11.0905 37.0495 10.5151C36.8973 10.3577 36.7015 10.2494 36.4872 10.2042C37.0355 8.88968 38.5636 5.2094 39.0384 4.06627Z" fill="white"/>
<path d="M47.5891 11.3592C47.728 11.462 47.8194 11.575 46.7753 12.9933C46.2032 13.7709 44.8632 15.3558 44.7237 15.2536C44.5847 15.1509 45.6992 13.4 46.2713 12.6224C47.3149 11.204 47.4501 11.2565 47.5891 11.3592ZM31.0024 11.7713C31.1484 11.8632 31.2506 11.9643 30.4476 13.2448C30.008 13.9461 28.9454 15.3769 28.7983 15.285C28.6523 15.1931 29.4775 13.6136 29.9177 12.9122C30.7207 11.6318 30.8559 11.6793 31.0024 11.7713Z" fill="white"/>
<path d="M41.5119 20.7882C41.2161 20.7633 40.2476 21.2462 39.5268 21.5209C39.1451 21.6734 38.7914 21.7939 38.7741 21.9675C38.7557 22.1368 39.1164 22.3363 39.6117 22.4017C40.7175 22.5656 41.819 21.9908 42.0218 21.5117C42.0975 21.317 42.004 21.191 41.8996 21.0531C41.7958 20.9158 41.6925 20.7968 41.5119 20.7882ZM59.1719 48.2362C59.0011 48.2632 59.5234 52.4896 59.8316 54.4493C60.3935 58.0252 60.5438 58.0776 60.7141 58.0511C60.8845 58.0246 61.0115 57.9279 60.4497 54.3525C60.1415 52.3928 59.3428 48.2097 59.1719 48.2362ZM61.8432 50.696C61.6734 50.7295 61.7091 51.6347 61.7902 52.0435C61.9373 52.7903 62.0779 52.7789 62.2477 52.7454C62.4175 52.7119 62.5516 52.6691 62.4045 51.9224C62.3234 51.513 62.013 50.6625 61.8432 50.696Z" fill="white"/>
</svg>
