<svg width="32" height="32" viewBox="0 0 32 32" fill="none" xmlns="http://www.w3.org/2000/svg">
<g clip-path="url(#clip0_2527_566)">
<g clip-path="url(#clip1_2527_566)">
<path d="M27.7735 13.2619C29.5629 10.2238 30.7272 6.60941 31.2254 2.51941C31.2656 2.18143 31.2286 1.83872 31.1171 1.51711C31.0057 1.19549 30.8228 0.903349 30.5821 0.662672C30.3414 0.421995 30.0493 0.239058 29.7277 0.127636C29.4061 0.0162139 29.0634 -0.0207897 28.7254 0.0194114C24.6354 0.519411 21.021 1.67879 17.9829 3.47066C15.6556 4.83389 13.6103 6.62944 11.9572 8.76066L11.0585 8.71504C10.4673 8.68526 9.87651 8.77966 9.32407 8.99216C8.77162 9.20466 8.26982 9.53053 7.851 9.94879L5.77475 12.0194C5.65543 12.1388 5.56738 12.2858 5.51838 12.4474C5.46938 12.6089 5.46094 12.7801 5.49381 12.9457C5.52668 13.1113 5.59985 13.2662 5.70684 13.3968C5.81384 13.5274 5.95136 13.6296 6.10725 13.6944L8.69225 14.7669C8.42956 15.5118 8.21249 16.2719 8.04225 17.0432L7.91725 17.615C7.88783 17.7484 7.89251 17.8871 7.93085 18.0181C7.9692 18.1492 8.03997 18.2685 8.13662 18.365L12.8754 23.1032C12.9719 23.1998 13.0912 23.2706 13.2223 23.3089C13.3534 23.3473 13.492 23.352 13.6254 23.3225L14.1972 23.1975C14.9687 23.0273 15.7291 22.8103 16.4741 22.5475L17.5472 25.1332C17.6119 25.2893 17.7141 25.427 17.8447 25.5342C17.9753 25.6414 18.1304 25.7147 18.2961 25.7475C18.4619 25.7804 18.6332 25.7719 18.7948 25.7227C18.9565 25.6736 19.1035 25.5853 19.2229 25.4657L21.296 23.3925C21.7138 22.9739 22.0393 22.4725 22.2517 21.9205C22.4641 21.3685 22.5586 20.7782 22.5291 20.1875L22.4835 19.2882C24.6148 17.6349 26.4104 15.5894 27.7735 13.2619ZM21.1666 18.2457C21.0594 18.3252 20.9734 18.4299 20.9163 18.5506C20.8592 18.6713 20.8327 18.8042 20.8391 18.9375L20.9066 20.2663C20.9249 20.6304 20.8667 20.9943 20.7358 21.3346C20.6049 21.6749 20.4042 21.9839 20.1466 22.2419L18.7054 23.6875L17.6754 21.2032C17.5938 21.006 17.438 20.8488 17.2416 20.7655C17.0451 20.6822 16.8238 20.6796 16.6254 20.7582C15.7244 21.1153 14.7965 21.4003 13.8504 21.6107L13.7122 21.6407L9.60037 17.5269L9.63037 17.3888C9.84053 16.4429 10.1254 15.5152 10.4822 14.6144C10.56 14.4163 10.557 14.1956 10.4738 13.9997C10.3906 13.8039 10.2338 13.6484 10.0372 13.5669L7.55475 12.5369L8.996 11.0957C9.254 10.8381 9.56309 10.6374 9.90335 10.5065C10.2436 10.3756 10.6075 10.3174 10.9716 10.3357L12.3004 10.4032C12.4342 10.41 12.5676 10.3836 12.6888 10.3263C12.8099 10.2691 12.915 10.1827 12.9947 10.075C16.5097 5.33004 21.8697 2.48879 28.9179 1.63004C29.0117 1.6172 29.1073 1.6267 29.1968 1.65776C29.2863 1.68882 29.3672 1.74057 29.4329 1.80879C29.5005 1.87482 29.5518 1.95566 29.5828 2.04492C29.6139 2.13419 29.6237 2.22944 29.6116 2.32316C28.7535 9.37504 25.9122 14.7313 21.1666 18.2457ZM1.11162 24.3444C1.24961 24.4823 1.41933 24.5842 1.60589 24.6412C1.79244 24.6982 1.99014 24.7085 2.18162 24.6713C2.22996 24.6621 2.27787 24.6542 2.32537 24.6475C1.10412 26.1219 0.256623 28.2463 1.10475 31.1419C1.17639 31.3901 1.327 31.6081 1.53374 31.763C1.74048 31.9178 1.99207 32.0011 2.25037 32H2.2885C2.45276 31.9942 2.6141 31.9549 2.76263 31.8845C2.91116 31.8141 3.04374 31.7141 3.15225 31.5907C3.82537 30.825 5.611 30.2157 7.9285 29.9619C9.206 29.8219 10.3322 29.2244 11.0997 28.2794C11.9122 27.2832 12.1622 26.1125 11.8304 24.8938C11.5766 23.9607 11.0391 23.2275 10.741 22.8738C10.6483 22.7633 10.5325 22.6744 10.4017 22.6135C10.2709 22.5526 10.1284 22.5211 9.98412 22.5213H9.9785C9.83251 22.522 9.68847 22.5549 9.55667 22.6176C9.42486 22.6804 9.30854 22.7715 9.216 22.8844C8.72492 23.4972 8.01722 23.8979 7.23912 24.0038C7.34475 23.2224 7.74772 22.5118 8.36412 22.02C8.47165 21.9324 8.55957 21.8231 8.62221 21.6993C8.68485 21.5755 8.72081 21.44 8.72777 21.3014C8.73472 21.1629 8.71251 21.0244 8.66257 20.895C8.61263 20.7655 8.53608 20.648 8.43787 20.55C8.40816 20.5203 8.37619 20.4929 8.34225 20.4682C6.96725 19.4682 5.63787 19.1257 4.38662 19.4563C2.4885 19.9563 1.36537 21.8938 0.864748 23.0063C0.763815 23.2277 0.733365 23.4749 0.777522 23.7142C0.821678 23.9536 0.938308 24.1735 1.11162 24.3444ZM4.61162 24.6744C4.72275 24.5854 4.80855 24.4688 4.86044 24.3363C4.91233 24.2037 4.92848 24.0599 4.90728 23.9191C4.88608 23.7783 4.82826 23.6456 4.73963 23.5342C4.65099 23.4228 4.53465 23.3367 4.40225 23.2844C3.86777 23.0905 3.3033 22.9924 2.73475 22.9944H2.69037C3.14162 22.1975 3.84912 21.2788 4.80225 21.0269C5.3785 20.8744 6.02162 20.9863 6.71975 21.3588C5.95412 22.25 5.55475 23.37 5.58412 24.5925C5.59229 24.8717 5.70686 25.1373 5.90437 25.3348C6.10189 25.5323 6.36742 25.6469 6.64662 25.655C7.8423 25.6972 9.00898 25.2814 9.9085 24.4925C10.351 25.2275 10.6454 26.2557 9.836 27.2525C9.34662 27.8544 8.586 28.2525 7.7485 28.3444C6.03912 28.5319 3.851 28.9694 2.49475 29.9957C2.08975 27.885 2.78662 26.1382 4.6135 24.6744H4.61162Z" fill="white"/>
<path d="M19.143 7.31615C18.6699 7.78921 18.3478 8.39192 18.2173 9.04805C18.0868 9.70418 18.1538 10.3843 18.4098 11.0023C18.6659 11.6204 19.0994 12.1487 19.6557 12.5203C20.2119 12.892 20.8659 13.0904 21.5348 13.0904C22.2038 13.0904 22.8578 12.892 23.414 12.5203C23.9703 12.1487 24.4038 11.6204 24.6598 11.0023C24.9159 10.3843 24.9829 9.70418 24.8524 9.04805C24.7219 8.39192 24.3997 7.78921 23.9267 7.31615C23.2919 6.68267 22.4317 6.3269 21.5348 6.3269C20.638 6.3269 19.7778 6.68267 19.143 7.31615ZM22.7773 10.9505C22.4898 11.238 22.1114 11.4168 21.7068 11.4566C21.3021 11.4964 20.8962 11.3946 20.5581 11.1686C20.2201 10.9427 19.9709 10.6065 19.8529 10.2173C19.735 9.82822 19.7556 9.41023 19.9113 9.0346C20.067 8.65898 20.3481 8.34896 20.7067 8.15737C21.0654 7.96578 21.4794 7.90448 21.8782 7.9839C22.2769 8.06333 22.6358 8.27857 22.8937 8.59296C23.1516 8.90734 23.2925 9.30141 23.2923 9.70803C23.2929 9.9389 23.2477 10.1676 23.1593 10.3809C23.0709 10.5941 22.9411 10.7878 22.7773 10.9505Z" fill="white"/>
</g>
</g>
<defs>
<clipPath id="clip0_2527_566">
<rect width="32" height="32" fill="white"/>
</clipPath>
<clipPath id="clip1_2527_566">
<rect width="32" height="32" fill="white"/>
</clipPath>
</defs>
</svg>
