<svg width="32" height="32" viewBox="0 0 32 32" fill="none" xmlns="http://www.w3.org/2000/svg">
<path d="M16.0031 1.76863C8.14062 1.76863 1.76562 8.14363 1.76562 16.0124C1.76562 19.7874 3.26562 23.4124 5.93437 26.0811C11.4844 31.6561 20.4969 31.6811 26.0719 26.1311C31.6469 20.5811 31.6719 11.5686 26.1219 5.99363C26.1031 5.97488 26.0844 5.95613 26.0719 5.94363C23.4094 3.25613 19.7844 1.75613 16.0031 1.76863ZM16.0031 28.9999C8.84063 28.9999 3.00938 23.1749 3.00938 16.0124C3.00938 8.84988 8.84063 3.01863 16.0031 3.01863C23.1656 3.01863 28.9906 8.84363 28.9906 16.0061C28.9906 23.1686 23.1656 28.9999 16.0031 28.9999Z" fill="white"/>
<path d="M19.7863 11.1875C19.7863 10.8438 19.5051 10.5625 19.1613 10.5625H12.8363C12.4926 10.5625 12.2113 10.8438 12.2113 11.1875C12.2113 11.5312 12.4926 11.8125 12.8363 11.8125H14.6488C15.5551 11.8188 16.3551 12.3937 16.6426 13.25H12.8363C12.4926 13.25 12.2113 13.5312 12.2113 13.875C12.2113 14.2188 12.4926 14.5 12.8363 14.5H16.6426C16.5426 14.825 16.3613 15.125 16.1238 15.3688C15.7363 15.7688 15.2051 15.9938 14.6488 16H12.8363C12.5051 15.9875 12.2238 16.25 12.2113 16.5813C12.2051 16.7563 12.2738 16.9313 12.4051 17.05L16.9301 21.325C17.1801 21.5625 17.5801 21.55 17.8113 21.2937C18.0426 21.0562 18.0363 20.675 17.7988 20.4438C17.7926 20.4375 17.7863 20.4375 17.7863 20.4312L14.4051 17.25H14.6426C15.5301 17.2438 16.3801 16.8875 17.0051 16.2562C17.4863 15.7812 17.8113 15.1687 17.9238 14.5H19.1613C19.5051 14.5 19.7863 14.2188 19.7863 13.875C19.7863 13.5312 19.5051 13.25 19.1613 13.25H17.9238C17.8363 12.7188 17.5988 12.2188 17.2426 11.8125H19.1551C19.5051 11.8125 19.7863 11.5312 19.7863 11.1875Z" fill="white"/>
</svg>
