<svg width="67" height="67" viewBox="0 0 67 67" fill="none" xmlns="http://www.w3.org/2000/svg">
<g clip-path="url(#clip0_3308_382)">
<path d="M41.1671 0.936536L3.35547 47.769L3.67602 48.0285L41.4877 1.19607L41.1671 0.936536Z" fill="url(#paint0_linear_3308_382)"/>
<path d="M51.479 5.51244L9.98047 56.9114L10.301 57.1709L51.7996 5.77197L51.479 5.51244Z" fill="url(#paint1_linear_3308_382)"/>
<path d="M64.8676 23.6195L30.4648 66.2298L30.7854 66.4893L65.1881 23.879L64.8676 23.6195Z" fill="url(#paint2_linear_3308_382)"/>
<path d="M27.5849 0.412723L0 34.5786L0.320552 34.8381L27.9054 0.672257L27.5849 0.412723Z" fill="url(#paint3_linear_3308_382)"/>
<path d="M59.4451 12.9887L18.9414 63.1554L19.262 63.4149L59.7656 13.2482L59.4451 12.9887Z" fill="url(#paint4_linear_3308_382)"/>
<path d="M65.5082 40.1715L46.7539 63.4001L47.0745 63.6596L65.8287 40.431L65.5082 40.1715Z" fill="url(#paint5_linear_3308_382)"/>
<path d="M18.0258 3.57973L1.08984 24.5561L1.4104 24.8156L18.3463 3.83927L18.0258 3.57973Z" fill="url(#paint6_linear_3308_382)"/>
<path d="M46.6397 2.83356L6.35547 52.7285L6.67602 52.988L46.9602 3.09309L46.6397 2.83356Z" fill="url(#paint7_linear_3308_382)"/>
<path d="M55.7493 8.89854L14.1797 60.3855L14.5002 60.645L56.0698 9.15807L55.7493 8.89854Z" fill="url(#paint8_linear_3308_382)"/>
<path d="M66.1666 30.6876L37.6328 66.0288L37.9534 66.2883L66.4871 30.9472L66.1666 30.6876Z" fill="url(#paint9_linear_3308_382)"/>
<path d="M34.9216 -0.000729963L1.125 41.8588L1.44555 42.1183L35.2422 0.258804L34.9216 -0.000729963Z" fill="url(#paint10_linear_3308_382)"/>
<path d="M62.5285 17.8438L24.3281 65.1577L24.6487 65.4172L62.8491 18.1033L62.5285 17.8438Z" fill="url(#paint11_linear_3308_382)"/>
<path d="M29.7807 48.7956C29.2621 48.6515 28.8443 48.5219 28.5274 48.4066C28.2105 48.3202 28.052 48.277 28.052 48.277C28.1096 48.1329 28.0808 48.0033 27.9656 47.8881C27.8792 47.7728 27.6775 47.7008 27.3606 47.672C26.9284 47.3839 26.4818 46.9805 26.0209 46.4619C25.5599 45.9433 25.1565 45.4103 24.8108 44.8629C24.4651 44.3155 24.2346 43.9122 24.1193 43.6529C23.9177 43.2207 23.9321 42.9614 24.1626 42.875C24.393 42.7597 24.6668 42.6301 24.9837 42.486C25.3006 42.2555 25.6319 42.0827 25.9776 41.9674C26.3522 41.8522 26.6547 42.0395 26.8852 42.5292C27.2597 43.1919 27.8359 43.7537 28.6138 44.2147C29.4205 44.6756 30.3281 44.9494 31.3365 45.0358C32.3736 45.1222 33.4108 44.9494 34.448 44.5172C35.1395 44.2003 35.514 43.7681 35.5716 43.2207C35.6293 42.6445 35.4132 41.9818 34.9234 41.2328C34.837 41.0023 34.7073 40.815 34.5345 40.6709C34.3904 40.5269 34.1599 40.3396 33.843 40.1091C33.5549 39.8786 33.1371 39.5041 32.5897 38.9855C32.1576 38.7838 31.7542 38.5966 31.3797 38.4237C31.0339 38.2508 30.6594 38.0636 30.256 37.8619C29.7951 37.6314 29.2765 37.3145 28.7003 36.9111C28.124 36.479 27.591 36.018 27.1013 35.5282C26.6115 35.0096 26.2369 34.5198 25.9776 34.0589C25.5167 33.6267 25.2286 33.0361 25.1133 32.287C24.9981 31.5091 25.0125 30.688 25.1565 29.8237C25.3294 28.9594 25.6031 28.1815 25.9776 27.49C26.1505 27.0866 26.4674 26.5681 26.9284 25.9342C27.3894 25.2716 27.908 24.5945 28.4842 23.9031C29.0604 23.2116 29.6078 22.5922 30.1264 22.0448C30.6738 21.4685 31.106 21.0796 31.4229 20.8779C31.6534 20.6474 31.8983 20.4169 32.1576 20.1865C32.4169 19.9272 32.5465 19.7975 32.5465 19.7975C32.5753 19.6535 32.6185 19.5814 32.6762 19.5814C32.7626 19.5814 32.8058 19.5814 32.8058 19.5814C32.9499 19.495 33.2668 19.3509 33.7566 19.1493C34.2463 18.9476 34.7793 18.5731 35.3556 18.0256C37.2859 17.1037 38.9281 16.4843 40.2822 16.1673C41.6363 15.8216 42.7023 15.6488 43.4802 15.6488C44.2005 15.6776 44.9063 15.8792 45.5978 16.2538C46.2893 16.5995 46.8799 17.0461 47.3697 17.5935C47.8883 18.1409 48.1908 18.7603 48.2772 19.4518C48.4789 20.1432 48.3781 20.9788 47.9747 21.9583C47.6002 22.9091 47.0672 23.8166 46.3757 24.6809C45.7131 25.5165 45.0216 26.1359 44.3013 26.5392C43.4946 26.885 42.8032 26.9282 42.2269 26.6689C41.6795 26.4096 41.4202 26.0062 41.449 25.4588C41.449 25.2284 41.5211 24.9546 41.6651 24.6377C41.838 24.3208 42.2846 23.759 43.0048 22.9523C43.9268 21.5982 44.4166 20.633 44.4742 20.0568C44.5318 19.4806 44.2725 19.1493 43.6963 19.0628C43.5234 19.0052 43.1921 19.0196 42.7023 19.1061C42.2125 19.1925 41.6795 19.3077 41.1033 19.4518C40.5559 19.567 40.0661 19.6967 39.634 19.8407C39.2306 19.9848 39.0289 20.0856 39.0289 20.1432C39.0289 20.1432 39.0289 20.1865 39.0289 20.2729C39.0289 20.3593 38.9713 20.3881 38.8561 20.3593C38.7985 20.3593 38.5968 20.4602 38.251 20.6618C37.9341 20.8347 37.5452 21.0652 37.0842 21.3533C36.6232 21.6414 36.1623 21.9439 35.7013 22.2608C35.2691 22.5489 34.8946 22.8082 34.5777 23.0387C34.2608 23.2692 34.0879 23.4133 34.0591 23.4709C34.0015 23.7878 33.6701 24.0759 33.0651 24.3352C32.4889 24.6809 31.9847 25.1707 31.5525 25.8046C31.1204 26.4384 30.6162 27.2451 30.04 28.2247C29.5502 28.8873 29.2045 29.6076 29.0028 30.3855C28.8011 31.1346 28.8011 31.7396 29.0028 32.2006C29.1468 32.6615 29.5358 33.1225 30.1696 33.5835C30.8323 34.0156 31.7254 34.5631 32.849 35.2257C33.8286 35.7731 34.7505 36.3493 35.6149 36.9544C36.4792 37.5594 37.2139 38.15 37.8189 38.7262C38.4239 39.2736 38.8129 39.7346 38.9857 40.1091C39.3315 40.5989 39.5331 41.1607 39.5908 41.7946C39.6772 42.4284 39.6772 43.0478 39.5908 43.6529C39.5331 44.2291 39.4467 44.7045 39.3315 45.079C39.1298 45.54 38.8129 46.0298 38.3807 46.5484C37.9773 47.0669 37.6028 47.3118 37.2571 47.283C36.9402 47.3695 36.6953 47.4703 36.5224 47.5855C36.3783 47.7008 36.2055 47.8016 36.0038 47.8881C35.8021 48.0033 35.3268 48.1329 34.5777 48.277C33.8286 48.4499 33.0075 48.5795 32.1143 48.6659C31.2212 48.7812 30.4433 48.8244 29.7807 48.7956Z" fill="#59B6F8"/>
</g>
<defs>
<linearGradient id="paint0_linear_3308_382" x1="22.2613" y1="24.3528" x2="22.5822" y2="24.6119" gradientUnits="userSpaceOnUse">
<stop/>
<stop offset="1" stop-color="white" stop-opacity="0"/>
</linearGradient>
<linearGradient id="paint1_linear_3308_382" x1="30.7297" y1="31.2119" x2="31.0507" y2="31.471" gradientUnits="userSpaceOnUse">
<stop/>
<stop offset="1" stop-color="white" stop-opacity="0"/>
</linearGradient>
<linearGradient id="paint2_linear_3308_382" x1="47.6662" y1="44.9246" x2="47.9871" y2="45.1837" gradientUnits="userSpaceOnUse">
<stop/>
<stop offset="1" stop-color="white" stop-opacity="0"/>
</linearGradient>
<linearGradient id="paint3_linear_3308_382" x1="13.7924" y1="17.4957" x2="14.1133" y2="17.7547" gradientUnits="userSpaceOnUse">
<stop/>
<stop offset="1" stop-color="white" stop-opacity="0"/>
</linearGradient>
<linearGradient id="paint4_linear_3308_382" x1="39.1932" y1="38.072" x2="39.5141" y2="38.3311" gradientUnits="userSpaceOnUse">
<stop/>
<stop offset="1" stop-color="white" stop-opacity="0"/>
</linearGradient>
<linearGradient id="paint5_linear_3308_382" x1="56.1311" y1="51.7858" x2="56.452" y2="52.0449" gradientUnits="userSpaceOnUse">
<stop/>
<stop offset="1" stop-color="white" stop-opacity="0"/>
</linearGradient>
<linearGradient id="paint6_linear_3308_382" x1="9.5578" y1="14.0679" x2="9.87871" y2="14.327" gradientUnits="userSpaceOnUse">
<stop/>
<stop offset="1" stop-color="white" stop-opacity="0"/>
</linearGradient>
<linearGradient id="paint7_linear_3308_382" x1="26.4976" y1="27.781" x2="26.8185" y2="28.0401" gradientUnits="userSpaceOnUse">
<stop/>
<stop offset="1" stop-color="white" stop-opacity="0"/>
</linearGradient>
<linearGradient id="paint8_linear_3308_382" x1="34.9645" y1="34.642" x2="35.2854" y2="34.9011" gradientUnits="userSpaceOnUse">
<stop/>
<stop offset="1" stop-color="white" stop-opacity="0"/>
</linearGradient>
<linearGradient id="paint9_linear_3308_382" x1="51.8997" y1="48.3582" x2="52.2206" y2="48.6173" gradientUnits="userSpaceOnUse">
<stop/>
<stop offset="1" stop-color="white" stop-opacity="0"/>
</linearGradient>
<linearGradient id="paint10_linear_3308_382" x1="18.0233" y1="20.929" x2="18.3442" y2="21.1881" gradientUnits="userSpaceOnUse">
<stop/>
<stop offset="1" stop-color="white" stop-opacity="0"/>
</linearGradient>
<linearGradient id="paint11_linear_3308_382" x1="43.4283" y1="41.5007" x2="43.7492" y2="41.7598" gradientUnits="userSpaceOnUse">
<stop/>
<stop offset="1" stop-color="white" stop-opacity="0"/>
</linearGradient>
<clipPath id="clip0_3308_382">
<rect width="66.4865" height="66.4865" fill="white"/>
</clipPath>
</defs>
</svg>
