<svg width="32" height="32" viewBox="0 0 32 32" fill="none" xmlns="http://www.w3.org/2000/svg">
<path d="M29.0348 18.7422C28.9567 18.6393 28.863 18.5352 28.7679 18.431L27.7861 19.3333L28.6716 18.3255C28.2718 17.888 27.8421 17.5234 27.3968 17.2409C27.3942 17.2383 27.3903 17.2357 27.3864 17.2331C27.3617 17.2148 27.3369 17.1966 27.3109 17.1797C27.2939 17.168 27.2757 17.1576 27.2588 17.1458C27.2463 17.1382 27.2326 17.1328 27.2201 17.1252C27.7686 14.7762 28.0369 12.4047 27.9281 10.4805C27.8031 8.375 26.4554 6.53516 24.4958 5.79297L16.4697 2.7526C16.1676 2.63802 15.8317 2.63932 15.5283 2.7513L7.48145 5.77474C5.43457 6.53125 4.0778 8.42839 4.02442 10.5951C3.89291 14.4466 5.21713 22.1406 9.3239 26.3893C11.2119 28.3424 13.4385 29.3333 15.9437 29.3333C16.8718 29.3333 17.7665 29.1965 18.6156 28.9275C18.6523 28.9574 18.6733 28.9848 18.7171 29.0143C20.001 30.0807 21.6338 30.6667 23.3304 30.6667C25.1143 30.6667 26.82 30.0273 28.1169 28.8802C29.7354 27.4974 30.6637 25.4753 30.6637 23.3333C30.6637 22.1849 30.3916 21.0443 29.8747 20.0299C29.6195 19.5339 29.3226 19.082 29.0348 18.7422ZM15.9437 26.6667C14.1898 26.6667 12.6077 25.9492 11.2406 24.5365C7.89421 21.0742 6.56478 14.3529 6.68978 10.6732C6.71582 9.59245 7.3903 8.65234 8.41244 8.27474L15.9958 5.42448L23.5518 8.28776C24.5296 8.65755 25.2028 9.58073 25.2666 10.6354C25.3538 12.1836 25.1559 14.1667 24.7288 16.1328C23.4161 15.8806 22.0379 16.0272 20.7837 16.4899C20.7512 16.5016 20.7201 16.5153 20.6878 16.5274C20.4062 16.6357 20.1331 16.7599 19.8673 16.9008C19.7904 16.941 19.7147 16.9812 19.6395 17.0241C19.4152 17.1533 19.201 17.2959 18.9926 17.4481C18.9138 17.5053 18.8324 17.5575 18.7562 17.6181C18.4883 17.8315 18.2327 18.0596 18.001 18.3112L17.7979 18.5299C16.6364 19.8438 15.9971 21.5495 15.9971 23.3333C15.9971 24.1849 16.1364 24.9948 16.4346 25.8047C16.4736 25.9193 16.5153 26.0299 16.5661 26.1354C16.6325 26.2982 16.7041 26.4596 16.7822 26.6146C16.5101 26.6497 16.2314 26.6667 15.9437 26.6667ZM26.3682 26.8685C24.7406 28.3034 22.0218 28.3359 20.3708 26.9206C20.3382 26.8932 20.3057 26.8672 20.2705 26.8424C20.2705 26.8424 20.2692 26.8424 20.2692 26.8411C20.1559 26.7383 20.0531 26.6367 19.8734 26.444C19.6885 26.2591 19.5544 26.0872 19.4072 25.832C19.2432 25.5794 19.1182 25.3424 19.027 25.1055C19.0036 25.0443 18.9945 25.0117 18.9619 24.9544C18.958 24.9414 18.9189 24.8307 18.915 24.8177C18.7484 24.3672 18.6637 23.8685 18.6637 23.3333C18.6637 22.2005 19.0661 21.1224 19.7393 20.3555L19.9242 20.1576C20.9643 19.029 22.5335 18.5267 24.0121 18.7319C24.4056 18.7869 24.7948 18.8812 25.165 19.0404C25.1655 19.0405 25.166 19.0404 25.1665 19.0406C25.4026 19.143 25.6173 19.2667 25.833 19.3997C25.8369 19.4023 25.8408 19.4062 25.8447 19.4089C25.8773 19.4336 25.9111 19.457 25.9463 19.4779C26.2015 19.6367 26.458 19.8555 26.6885 20.1068L26.8044 20.2357C26.8408 20.2747 26.8773 20.3125 26.9502 20.4049C27.1533 20.6458 27.3395 20.931 27.5023 21.2461C27.8252 21.8815 27.9971 22.6042 27.9971 23.3333C27.9971 24.6953 27.4098 25.9779 26.3682 26.8685Z" fill="white"/>
<path d="M24.3437 21.2637L22.6198 22.9876L22.2292 22.597C21.7083 22.0762 20.8646 22.0762 20.3437 22.597C19.8229 23.1178 19.8229 23.9616 20.3437 24.4824L21.6771 25.8158C21.9375 26.0762 22.2786 26.2064 22.6198 26.2064C22.9609 26.2064 23.3021 26.0762 23.5625 25.8158L26.2292 23.1491C26.75 22.6283 26.75 21.7845 26.2292 21.2637C25.7083 20.7428 24.8646 20.7428 24.3437 21.2637Z" fill="white"/>
</svg>
