<svg width="161" height="82" viewBox="0 0 161 82" fill="none" xmlns="http://www.w3.org/2000/svg">
<path d="M88.7388 23.3649C88.4868 23.2949 88.2838 23.2319 88.1298 23.1759C87.9758 23.1339 87.8988 23.1129 87.8988 23.1129C87.9268 23.0429 87.9128 22.9799 87.8568 22.9239C87.8148 22.8679 87.7168 22.8329 87.5628 22.8189C87.3528 22.6789 87.1358 22.4829 86.9118 22.2309C86.6878 21.9789 86.4918 21.7199 86.3238 21.4539C86.1558 21.1879 86.0438 20.9919 85.9878 20.8659C85.8898 20.6559 85.8968 20.5299 86.0088 20.4879C86.1208 20.4319 86.2538 20.3689 86.4078 20.2989C86.5618 20.1869 86.7228 20.1029 86.8908 20.0469C87.0728 19.9909 87.2198 20.0819 87.3318 20.3199C87.5138 20.6419 87.7938 20.9149 88.1718 21.1389C88.5638 21.3629 89.0048 21.4959 89.4948 21.5379C89.9988 21.5799 90.5028 21.4959 91.0068 21.2859C91.3428 21.1319 91.5248 20.9219 91.5528 20.6559C91.5808 20.3759 91.4758 20.0539 91.2378 19.6899C91.1958 19.5779 91.1328 19.4869 91.0488 19.4169C90.9788 19.3469 90.8668 19.2559 90.7128 19.1439C90.5728 19.0319 90.3698 18.8499 90.1038 18.5979C89.8938 18.4999 89.6978 18.4089 89.5158 18.3249C89.3478 18.2409 89.1658 18.1499 88.9698 18.0519C88.7458 17.9399 88.4938 17.7859 88.2138 17.5899C87.9338 17.3799 87.6748 17.1559 87.4368 16.9179C87.1988 16.6659 87.0168 16.4279 86.8908 16.2039C86.6668 15.9939 86.5268 15.7069 86.4708 15.3429C86.4148 14.9649 86.4218 14.5659 86.4918 14.1459C86.5758 13.7259 86.7088 13.3479 86.8908 13.0119C86.9748 12.8159 87.1288 12.5639 87.3528 12.2559C87.5768 11.9339 87.8288 11.6049 88.1088 11.2689C88.3888 10.9329 88.6548 10.6319 88.9068 10.3659C89.1728 10.0859 89.3828 9.89688 89.5368 9.79888C89.6488 9.68688 89.7678 9.57488 89.8938 9.46288C90.0198 9.33688 90.0828 9.27388 90.0828 9.27388C90.0968 9.20388 90.1178 9.16888 90.1458 9.16888C90.1878 9.16888 90.2088 9.16888 90.2088 9.16888C90.2788 9.12688 90.4328 9.05688 90.6708 8.95888C90.9088 8.86088 91.1678 8.67888 91.4478 8.41288C92.3858 7.96488 93.1838 7.66388 93.8418 7.50988C94.4998 7.34188 95.0178 7.25788 95.3958 7.25788C95.7458 7.27188 96.0888 7.36988 96.4248 7.55188C96.7608 7.71988 97.0478 7.93688 97.2858 8.20288C97.5378 8.46888 97.6848 8.76988 97.7268 9.10588C97.8248 9.44188 97.7758 9.84788 97.5798 10.3239C97.3978 10.7859 97.1388 11.2269 96.8028 11.6469C96.4808 12.0529 96.1448 12.3539 95.7948 12.5499C95.4028 12.7179 95.0668 12.7389 94.7868 12.6129C94.5208 12.4869 94.3948 12.2909 94.4088 12.0249C94.4088 11.9129 94.4438 11.7799 94.5138 11.6259C94.5978 11.4719 94.8148 11.1989 95.1648 10.8069C95.6128 10.1489 95.8508 9.67988 95.8788 9.39988C95.9068 9.11988 95.7808 8.95888 95.5008 8.91688C95.4168 8.88888 95.2558 8.89588 95.0178 8.93788C94.7798 8.97988 94.5208 9.03588 94.2408 9.10588C93.9748 9.16188 93.7368 9.22488 93.5268 9.29488C93.3308 9.36488 93.2328 9.41388 93.2328 9.44188C93.2328 9.44188 93.2328 9.46288 93.2328 9.50488C93.2328 9.54688 93.2048 9.56088 93.1488 9.54688C93.1208 9.54688 93.0228 9.59588 92.8548 9.69388C92.7008 9.77788 92.5118 9.88988 92.2878 10.0299C92.0638 10.1699 91.8398 10.3169 91.6158 10.4709C91.4058 10.6109 91.2238 10.7369 91.0698 10.8489C90.9158 10.9609 90.8318 11.0309 90.8178 11.0589C90.7898 11.2129 90.6288 11.3529 90.3348 11.4789C90.0548 11.6469 89.8098 11.8849 89.5998 12.1929C89.3898 12.5009 89.1448 12.8929 88.8648 13.3689C88.6268 13.6909 88.4588 14.0409 88.3608 14.4189C88.2628 14.7829 88.2628 15.0769 88.3608 15.3009C88.4308 15.5249 88.6198 15.7489 88.9278 15.9729C89.2498 16.1829 89.6838 16.4489 90.2298 16.7709C90.7058 17.0369 91.1538 17.3169 91.5738 17.6109C91.9938 17.9049 92.3508 18.1919 92.6448 18.4719C92.9388 18.7379 93.1278 18.9619 93.2118 19.1439C93.3798 19.3819 93.4778 19.6549 93.5058 19.9629C93.5478 20.2709 93.5478 20.5719 93.5058 20.8659C93.4778 21.1459 93.4358 21.3769 93.3798 21.5589C93.2818 21.7829 93.1278 22.0209 92.9178 22.2729C92.7218 22.5249 92.5398 22.6439 92.3718 22.6299C92.2178 22.6719 92.0988 22.7209 92.0148 22.7769C91.9448 22.8329 91.8608 22.8819 91.7628 22.9239C91.6648 22.9799 91.4338 23.0429 91.0698 23.1129C90.7058 23.1969 90.3068 23.2599 89.8728 23.3019C89.4388 23.3579 89.0608 23.3789 88.7388 23.3649ZM95.9492 21.5589C95.8932 21.4469 95.7672 21.3349 95.5712 21.2229C95.3892 21.1109 95.2982 21.0269 95.2982 20.9709C95.2982 20.9149 95.2632 20.8309 95.1932 20.7189C95.1372 20.5929 95.0812 20.5019 95.0252 20.4459C94.9552 20.3619 94.9762 20.1589 95.0882 19.8369C95.2002 19.5009 95.3682 19.0949 95.5922 18.6189C95.8162 18.1429 96.0612 17.6599 96.3272 17.1699C96.4392 17.0579 96.5512 16.9109 96.6632 16.7289C96.7752 16.5469 96.8592 16.4279 96.9152 16.3719C96.9152 16.3159 96.9362 16.2669 96.9782 16.2249C97.0202 16.1689 97.0692 16.1409 97.1252 16.1409L97.2932 15.8049C97.3212 15.7489 97.4052 15.6369 97.5452 15.4689C97.6992 15.3009 97.8812 15.1189 98.0912 14.9229C98.3012 14.7129 98.5112 14.5169 98.7212 14.3349C98.9452 14.1529 99.1272 14.0199 99.2672 13.9359C99.5612 13.7399 99.8622 13.6489 100.17 13.6629C100.492 13.6769 100.765 13.7749 100.989 13.9569C101.031 13.9989 101.122 14.0829 101.262 14.2089C101.416 14.3349 101.584 14.4749 101.766 14.6289C101.962 14.7829 102.13 14.9229 102.27 15.0489L103.047 15.7419L102.69 16.7919C102.508 17.3519 102.459 17.8419 102.543 18.2619C102.627 18.6819 102.76 19.0459 102.942 19.3539C103.012 19.5079 103.103 19.6269 103.215 19.7109C103.341 19.7949 103.502 19.8509 103.698 19.8789C103.81 19.8929 103.915 19.9349 104.013 20.0049C104.111 20.0749 104.16 20.1869 104.16 20.3409C104.16 20.6769 104.097 20.9219 103.971 21.0759C103.859 21.2159 103.733 21.2999 103.593 21.3279C103.131 21.3839 102.69 21.3349 102.27 21.1809C101.85 21.0269 101.472 20.6279 101.136 19.9839C101.08 19.8999 101.003 19.7459 100.905 19.5219C100.821 19.2839 100.772 19.1299 100.758 19.0599C100.702 19.1299 100.625 19.2209 100.527 19.3329C100.443 19.4309 100.359 19.5219 100.275 19.6059C99.2812 20.6139 98.4272 21.2719 97.7132 21.5799C97.0132 21.8739 96.4252 21.8669 95.9492 21.5589ZM97.1042 19.8159C97.2022 19.8299 97.3562 19.7809 97.5662 19.6689C97.7762 19.5429 98.0562 19.3399 98.4062 19.0599C98.8822 18.6539 99.2742 18.3179 99.5822 18.0519C99.8902 17.7859 100.191 17.4429 100.485 17.0229L100.947 16.2669C100.807 15.9449 100.681 15.7349 100.569 15.6369C100.457 15.5389 100.345 15.4899 100.233 15.4899C100.051 15.4899 99.8342 15.6089 99.5822 15.8469C99.3302 16.0709 99.0432 16.4069 98.7212 16.8549C98.4132 17.2889 98.0632 17.8349 97.6712 18.4929C97.4892 18.8009 97.3492 19.1019 97.2512 19.3959C97.1532 19.6759 97.1042 19.8159 97.1042 19.8159ZM106.066 20.8869C105.968 20.8029 105.835 20.5509 105.667 20.1309C105.513 19.7109 105.359 19.2209 105.205 18.6609C105.065 18.1009 104.953 17.5829 104.869 17.1069C104.813 16.8269 104.75 16.5889 104.68 16.3929C104.624 16.1969 104.575 16.0359 104.533 15.9099C104.463 15.6579 104.484 15.3919 104.596 15.1119C104.722 14.8319 104.869 14.6429 105.037 14.5449C105.107 14.5029 105.233 14.4749 105.415 14.4609C105.611 14.4329 105.737 14.4259 105.793 14.4399C105.961 14.4959 106.115 14.7549 106.255 15.2169C106.395 15.6649 106.521 16.2599 106.633 17.0019C106.689 17.4359 106.731 17.7579 106.759 17.9679C106.801 18.1639 106.822 18.2899 106.822 18.3459C106.878 18.4579 106.913 18.5979 106.927 18.7659C106.955 18.9199 107.025 18.9409 107.137 18.8289C107.193 18.7729 107.277 18.6749 107.389 18.5349C107.515 18.3949 107.662 18.2129 107.83 17.9889C108.124 17.5969 108.355 17.2749 108.523 17.0229C108.705 16.7569 108.908 16.4839 109.132 16.2039C109.23 16.0639 109.363 15.9099 109.531 15.7419C109.699 15.5739 109.867 15.4199 110.035 15.2799C110.203 15.1259 110.343 15.0349 110.455 15.0069C110.791 14.9509 110.994 15.0769 111.064 15.3849C111.148 15.6789 111.05 16.0219 110.77 16.4139C110.658 16.5819 110.567 16.7429 110.497 16.8969C110.441 17.0369 110.385 17.1349 110.329 17.1909C110.217 17.4149 110.042 17.7019 109.804 18.0519C109.566 18.3879 109.335 18.7029 109.111 18.9969C108.887 19.2769 108.733 19.4589 108.649 19.5429C108.593 19.5989 108.467 19.7039 108.271 19.8579C108.089 20.0119 107.914 20.2079 107.746 20.4459C107.41 20.7679 107.088 20.9639 106.78 21.0339C106.472 21.1039 106.234 21.0549 106.066 20.8869ZM113.48 22.3779C112.71 22.3779 112.115 22.1539 111.695 21.7059C111.289 21.2579 111.086 20.5719 111.086 19.6479C111.086 19.1439 111.177 18.5909 111.359 17.9889C111.555 17.3869 111.807 16.7989 112.115 16.2249C112.437 15.6509 112.787 15.1539 113.165 14.7339C113.543 14.2999 113.921 13.9989 114.299 13.8309C114.439 13.7609 114.586 13.7119 114.74 13.6839C114.908 13.6419 115.069 13.6209 115.223 13.6209C115.391 13.6209 115.573 13.6349 115.769 13.6629C115.979 13.6769 116.175 13.7189 116.357 13.7889C116.679 13.8869 116.959 14.0759 117.197 14.3559C117.449 14.6359 117.575 15.0419 117.575 15.5739C117.575 15.7139 117.561 15.8679 117.533 16.0359C117.505 16.1899 117.456 16.3439 117.386 16.4979C117.204 16.9599 116.924 17.4009 116.546 17.8209C116.182 18.2409 115.797 18.5349 115.391 18.7029C115.279 18.7589 115.167 18.8009 115.055 18.8289C114.957 18.8429 114.852 18.8499 114.74 18.8499C114.446 18.8499 114.18 18.8079 113.942 18.7239C113.718 18.6399 113.508 18.5279 113.312 18.3879L113.144 18.2409L113.039 18.4509C112.941 18.7169 112.871 18.9409 112.829 19.1229C112.801 19.3049 112.787 19.4379 112.787 19.5219C112.787 19.6899 112.794 19.8649 112.808 20.0469C112.822 20.2149 112.864 20.3549 112.934 20.4669C112.99 20.5369 113.06 20.5929 113.144 20.6349C113.242 20.6769 113.361 20.6979 113.501 20.6979C113.585 20.6979 113.662 20.6979 113.732 20.6979C113.816 20.6839 113.886 20.6699 113.942 20.6559C114.194 20.5999 114.397 20.5089 114.551 20.3829C114.719 20.2429 114.894 20.1239 115.076 20.0259L115.16 19.9839L115.139 19.9209C115.377 19.7949 115.538 19.7179 115.622 19.6899C115.706 19.6479 115.769 19.6129 115.811 19.5849C115.867 19.5289 115.93 19.5009 116 19.5009C116.196 19.4729 116.385 19.5289 116.567 19.6689C116.763 19.7949 116.861 19.9559 116.861 20.1519C116.861 20.2359 116.798 20.3689 116.672 20.5509C116.56 20.7329 116.413 20.9149 116.231 21.0969C116.063 21.2649 115.888 21.3979 115.706 21.4959C115.664 21.5099 115.622 21.5309 115.58 21.5589C115.538 21.5729 115.496 21.5939 115.454 21.6219H115.475C115.349 21.7899 115.223 21.8739 115.097 21.8739H114.929C114.873 21.9719 114.691 22.0769 114.383 22.1889C114.075 22.3149 113.774 22.3779 113.48 22.3779ZM114.572 17.3169C114.698 17.3169 114.81 17.2959 114.908 17.2539C115.02 17.2119 115.125 17.1629 115.223 17.1069C115.559 16.8689 115.776 16.5609 115.874 16.1829C115.972 15.8049 115.937 15.5179 115.769 15.3219C115.741 15.2799 115.706 15.2519 115.664 15.2379C115.622 15.2099 115.573 15.1959 115.517 15.1959C115.363 15.1959 115.188 15.2449 114.992 15.3429C114.81 15.4409 114.628 15.5809 114.446 15.7629C114.264 15.9449 114.096 16.1619 113.942 16.4139L113.669 16.8549C113.697 16.8409 113.718 16.8339 113.732 16.8339C113.76 16.8199 113.781 16.8129 113.795 16.8129C113.921 16.8129 114.005 16.8549 114.047 16.9389C114.089 17.0229 114.138 17.1069 114.194 17.1909C114.264 17.2749 114.39 17.3169 114.572 17.3169ZM135.807 22.7769C135.807 22.7769 135.765 22.7349 135.681 22.6509C135.611 22.5809 135.457 22.4899 135.219 22.3779C134.967 22.1119 134.799 21.7059 134.715 21.1599C134.645 20.6139 134.631 20.0049 134.673 19.3329C134.645 18.9969 134.645 18.5839 134.673 18.0939C134.715 17.5899 134.771 17.0719 134.841 16.5399C134.925 16.0079 135.009 15.4969 135.093 15.0069C135.191 14.5169 135.275 14.1109 135.345 13.7889C135.527 13.0469 135.688 12.3959 135.828 11.8359C135.982 11.2759 136.059 10.9469 136.059 10.8489C135.975 11.0029 135.849 11.2199 135.681 11.4999C135.527 11.7799 135.303 12.1789 135.009 12.6969C134.827 12.9909 134.631 13.3129 134.421 13.6629C134.225 14.0129 134.099 14.2229 134.043 14.2929C133.903 14.4749 133.763 14.7269 133.623 15.0489C133.483 15.3569 133.252 15.8189 132.93 16.4349C132.44 17.1629 132.02 17.7159 131.67 18.0939C131.334 18.4719 131.033 18.7239 130.767 18.8499C130.515 18.9619 130.263 18.9969 130.011 18.9549C129.605 18.8569 129.332 18.6679 129.192 18.3879C129.052 18.0939 128.954 17.7579 128.898 17.3799C128.87 17.0019 128.863 16.6939 128.877 16.4559C128.905 16.2039 128.905 16.0219 128.877 15.9099C128.905 15.7699 128.933 15.6229 128.961 15.4689C128.989 15.3009 129.01 15.1749 129.024 15.0909C129.024 15.0349 129.038 14.9089 129.066 14.7129C129.108 14.5169 129.136 14.3209 129.15 14.1249C129.192 13.8589 129.248 13.5509 129.318 13.2009C129.388 12.8369 129.451 12.5079 129.507 12.2139C129.563 11.9199 129.577 11.7379 129.549 11.6679C129.479 11.8079 129.395 11.9549 129.297 12.1089C129.199 12.2629 129.129 12.3749 129.087 12.4449C128.849 12.7669 128.569 13.2639 128.247 13.9359C127.925 14.5939 127.491 15.4829 126.945 16.6029C126.903 16.9109 126.777 17.3029 126.567 17.7789C126.371 18.2409 126.196 18.6539 126.042 19.0179C125.944 19.2839 125.811 19.6199 125.643 20.0259C125.489 20.4179 125.328 20.7889 125.16 21.1389C125.006 21.4889 124.88 21.7339 124.782 21.8739C124.614 22.1959 124.474 22.3709 124.362 22.3989C124.25 22.4409 124.019 22.3289 123.669 22.0629C123.445 21.8529 123.256 21.6499 123.102 21.4539C122.962 21.2579 122.962 21.0269 123.102 20.7609C123.2 20.6069 123.319 20.3969 123.459 20.1309C123.599 19.8509 123.725 19.5709 123.837 19.2909C123.963 19.0109 124.033 18.8009 124.047 18.6609C124.061 18.6049 124.103 18.5069 124.173 18.3669C124.257 18.2269 124.369 18.0729 124.509 17.9049C124.495 17.8489 124.558 17.6389 124.698 17.2749C124.838 16.8969 125.027 16.4699 125.265 15.9939C125.307 15.9239 125.335 15.8539 125.349 15.7839C125.377 15.7139 125.398 15.6439 125.412 15.5739C125.468 15.5039 125.524 15.4199 125.58 15.3219C125.636 15.2239 125.692 15.0839 125.748 14.9019C125.776 14.7759 125.832 14.6149 125.916 14.4189C126 14.2229 126.077 14.0479 126.147 13.8939C126.203 13.7679 126.266 13.6629 126.336 13.5789C126.42 13.4809 126.49 13.3829 126.546 13.2849C126.602 13.2429 126.651 13.1729 126.693 13.0749C126.735 12.9769 126.784 12.8999 126.84 12.8439C126.896 12.6759 127.001 12.4659 127.155 12.2139C127.323 11.9479 127.498 11.6539 127.68 11.3319C127.876 11.0099 128.044 10.6879 128.184 10.3659C128.296 10.2959 128.394 10.1979 128.478 10.0719C128.562 9.94588 128.632 9.81288 128.688 9.67288C128.688 9.67288 128.723 9.59588 128.793 9.44188C128.877 9.28788 128.961 9.15488 129.045 9.04288C129.115 8.94488 129.22 8.80488 129.36 8.62288C129.5 8.44088 129.633 8.27288 129.759 8.11888C129.899 7.95088 129.99 7.85988 130.032 7.84588C130.116 7.83188 130.263 7.87388 130.473 7.97188C130.697 8.06988 130.9 8.18888 131.082 8.32888C131.264 8.46888 131.355 8.60888 131.355 8.74888C131.383 8.90288 131.39 9.12688 131.376 9.42088C131.376 9.71488 131.369 10.0159 131.355 10.3239C131.341 10.6179 131.313 10.8699 131.271 11.0799C131.243 11.3879 131.201 11.7449 131.145 12.1509C131.089 12.5569 131.033 12.9489 130.977 13.3269C130.921 13.7049 130.872 14.0129 130.83 14.2509C130.76 14.7689 130.704 15.1609 130.662 15.4269C130.62 15.6789 130.599 15.8049 130.599 15.8049C130.627 15.8609 130.641 15.9379 130.641 16.0359C130.655 16.1339 130.669 16.2249 130.683 16.3089L130.704 16.4769L130.935 16.1409C131.187 15.8189 131.383 15.5389 131.523 15.3009C131.663 15.0629 131.803 14.8319 131.943 14.6079C131.943 14.5379 131.964 14.4679 132.006 14.3979C132.048 14.3139 132.097 14.2299 132.153 14.1459C132.237 14.0759 132.328 13.9639 132.426 13.8099C132.524 13.6419 132.566 13.4949 132.552 13.3689C132.692 13.1589 132.874 12.8789 133.098 12.5289C133.336 12.1789 133.588 11.8009 133.854 11.3949C134.12 10.9749 134.379 10.5759 134.631 10.1979C134.897 9.80588 135.128 9.46988 135.324 9.18988C135.534 8.90988 135.688 8.72788 135.786 8.64388C136.094 8.44788 136.437 8.34988 136.815 8.34988C137.193 8.33588 137.494 8.44788 137.718 8.68588C137.9 8.88188 137.998 9.10588 138.012 9.35788C138.04 9.60988 138.012 9.86888 137.928 10.1349C137.746 10.7369 137.62 11.2969 137.55 11.8149C137.48 12.3329 137.452 12.6899 137.466 12.8859C137.41 13.0119 137.361 13.1519 137.319 13.3059C137.291 13.4459 137.27 13.5719 137.256 13.6839C137.256 13.8239 137.228 13.9709 137.172 14.1249C137.13 14.2649 137.074 14.3629 137.004 14.4189C137.046 14.5449 137.067 14.7129 137.067 14.9229C137.081 15.1189 137.074 15.3009 137.046 15.4689C136.822 16.8969 136.703 18.0379 136.689 18.8919C136.675 19.7319 136.724 20.3409 136.836 20.7189C136.948 21.0829 137.067 21.2789 137.193 21.3069C137.249 21.2929 137.277 21.3139 137.277 21.3699C137.291 21.4259 137.284 21.5099 137.256 21.6219C137.256 21.7339 137.2 21.8599 137.088 21.9999C136.99 22.1539 136.885 22.2869 136.773 22.3989C136.675 22.5249 136.612 22.6089 136.584 22.6509C136.5 22.7909 136.423 22.8679 136.353 22.8819C136.297 22.8959 136.115 22.8609 135.807 22.7769ZM140.816 22.1889C140.634 22.2029 140.487 22.1819 140.375 22.1259C140.263 22.0839 140.123 22.0139 139.955 21.9159C139.647 21.6779 139.388 21.3839 139.178 21.0339C138.982 20.6839 138.891 20.3899 138.905 20.1519C138.933 20.0259 138.933 19.9139 138.905 19.8159C138.891 19.7179 138.884 19.6689 138.884 19.6689C138.8 19.5989 138.772 19.5569 138.8 19.5429C138.828 19.5149 138.849 19.4729 138.863 19.4169C138.975 19.3889 138.989 19.3119 138.905 19.1859C138.863 19.0739 138.884 18.8219 138.968 18.4299C139.066 18.0239 139.192 17.6459 139.346 17.2959C139.416 17.1419 139.514 16.9389 139.64 16.6869C139.78 16.4349 139.934 16.1829 140.102 15.9309C140.27 15.6649 140.424 15.4549 140.564 15.3009C140.872 14.9509 141.145 14.6639 141.383 14.4399C141.635 14.2159 141.915 14.0479 142.223 13.9359C142.503 13.8239 142.783 13.7749 143.063 13.7889C143.357 13.8029 143.616 13.9009 143.84 14.0829C144.176 14.1809 144.477 14.3349 144.743 14.5449C145.009 14.7409 145.191 15.0209 145.289 15.3849C145.401 15.7909 145.436 16.2739 145.394 16.8339C145.366 17.3799 145.128 18.0869 144.68 18.9549C144.414 19.5009 144.148 19.9419 143.882 20.2779C143.63 20.6139 143.322 20.9359 142.958 21.2439C142.692 21.4679 142.349 21.6639 141.929 21.8319C141.509 21.9999 141.138 22.1189 140.816 22.1889ZM142.643 19.0179C142.825 18.7659 142.965 18.5209 143.063 18.2829C143.175 18.0449 143.28 17.7159 143.378 17.2959C143.42 17.1419 143.441 16.9529 143.441 16.7289C143.455 16.5049 143.448 16.3019 143.42 16.1199C143.406 15.9239 143.357 15.8189 143.273 15.8049C143.091 15.7349 142.902 15.7349 142.706 15.8049C142.524 15.8609 142.307 16.0289 142.055 16.3089C141.831 16.5609 141.649 16.7989 141.509 17.0229C141.383 17.2329 141.264 17.4919 141.152 17.7999C141.054 18.0939 140.942 18.4789 140.816 18.9549C140.704 19.4169 140.697 19.7879 140.795 20.0679C140.907 20.3479 141.117 20.4249 141.425 20.2989C141.733 20.1729 142.139 19.7459 142.643 19.0179ZM148.046 21.5589C148.004 21.5729 147.913 21.5659 147.773 21.5379C147.647 21.5099 147.514 21.4749 147.374 21.4329C147.248 21.3909 147.171 21.3559 147.143 21.3279C147.087 21.2719 147.01 21.1739 146.912 21.0339C146.814 20.8799 146.758 20.6769 146.744 20.4249C146.744 20.1729 146.863 19.8719 147.101 19.5219C147.171 19.3819 147.255 19.1719 147.353 18.8919C147.451 18.6119 147.549 18.3179 147.647 18.0099C147.759 17.6879 147.857 17.4009 147.941 17.1489C148.039 16.8969 148.109 16.7219 148.151 16.6239C148.179 16.3859 148.165 16.2179 148.109 16.1199C148.067 16.0079 147.948 15.9449 147.752 15.9309C147.612 15.9309 147.5 15.8819 147.416 15.7839C147.346 15.6859 147.311 15.5109 147.311 15.2589C147.339 15.0629 147.388 14.8949 147.458 14.7549C147.542 14.6009 147.654 14.4749 147.794 14.3769C147.934 14.3069 148.109 14.2579 148.319 14.2299C148.543 14.2019 148.76 14.1949 148.97 14.2089C149.18 14.2229 149.327 14.2719 149.411 14.3559C149.509 14.4119 149.586 14.5379 149.642 14.7339C149.712 14.9159 149.768 15.1049 149.81 15.3009C149.852 15.4969 149.88 15.6439 149.894 15.7419C150.034 15.6299 150.188 15.4759 150.356 15.2799C150.538 15.0699 150.72 14.8739 150.902 14.6919C151.126 14.5379 151.392 14.3839 151.7 14.2299C152.008 14.0619 152.232 13.9779 152.372 13.9779C152.526 13.9779 152.715 14.0549 152.939 14.2089C153.163 14.3489 153.303 14.4749 153.359 14.5869C153.499 14.8249 153.597 15.0769 153.653 15.3429C153.723 15.5949 153.681 15.8189 153.527 16.0149C153.387 16.1969 153.191 16.3789 152.939 16.5609C152.687 16.7289 152.372 16.7779 151.994 16.7079C151.91 16.6799 151.819 16.5749 151.721 16.3929C151.637 16.2109 151.588 16.0779 151.574 15.9939C151.574 15.9519 151.511 15.9939 151.385 16.1199C151.273 16.2319 151.133 16.3719 150.965 16.5399C150.811 16.7079 150.664 16.8619 150.524 17.0019C150.286 17.2959 150.034 17.6949 149.768 18.1989C149.502 18.7029 149.187 19.3119 148.823 20.0259C148.655 20.3759 148.515 20.7119 148.403 21.0339C148.291 21.3419 148.172 21.5169 148.046 21.5589ZM157.986 21.5799C157.566 21.8179 157.118 21.9579 156.642 21.9999C156.18 22.0279 155.746 21.9649 155.34 21.8109C154.934 21.6429 154.605 21.3979 154.353 21.0759C154.213 20.8939 154.08 20.6069 153.954 20.2149C153.828 19.8089 153.807 19.2629 153.891 18.5769C153.975 17.9329 154.171 17.2819 154.479 16.6239C154.801 15.9659 155.193 15.3849 155.655 14.8809C156.117 14.3769 156.621 14.0339 157.167 13.8519C157.363 13.7819 157.559 13.7329 157.755 13.7049C157.965 13.6629 158.238 13.6559 158.574 13.6839C158.896 13.7259 159.183 13.8099 159.435 13.9359C159.687 14.0479 159.869 14.1739 159.981 14.3139C160.205 14.5379 160.352 14.7549 160.422 14.9649C160.492 15.1749 160.52 15.3779 160.506 15.5739C160.436 16.0219 160.233 16.5049 159.897 17.0229C159.575 17.5409 159.12 17.9259 158.532 18.1779C158.294 18.2759 158.014 18.3389 157.692 18.3669C157.37 18.3949 156.929 18.3529 156.369 18.2409C156.033 18.1709 155.809 18.2059 155.697 18.3459C155.599 18.4859 155.557 18.7589 155.571 19.1649C155.599 19.4169 155.655 19.6409 155.739 19.8369C155.837 20.0189 156.012 20.1449 156.264 20.2149C156.586 20.2709 156.817 20.2779 156.957 20.2359C157.097 20.1799 157.272 20.1029 157.482 20.0049C157.594 19.9349 157.699 19.8579 157.797 19.7739C157.909 19.6899 158.014 19.6059 158.112 19.5219C158.224 19.4379 158.315 19.3749 158.385 19.3329C158.455 19.2769 158.525 19.2419 158.595 19.2279C158.665 19.2139 158.735 19.2069 158.805 19.2069C158.959 19.2209 159.106 19.3049 159.246 19.4589C159.386 19.6129 159.477 19.7599 159.519 19.8999C159.519 20.0119 159.449 20.1729 159.309 20.3829C159.169 20.5789 158.98 20.7889 158.742 21.0129C158.518 21.2229 158.266 21.4119 157.986 21.5799ZM157.713 16.8969C157.811 16.8549 157.951 16.7569 158.133 16.6029C158.329 16.4489 158.504 16.2879 158.658 16.1199C158.812 15.9379 158.889 15.7979 158.889 15.6999C158.889 15.5459 158.784 15.4129 158.574 15.3009C158.378 15.1889 158.119 15.1679 157.797 15.2379C157.685 15.2659 157.552 15.3429 157.398 15.4689C157.244 15.5949 157.09 15.7419 156.936 15.9099C156.782 16.0639 156.649 16.2179 156.537 16.3719C156.425 16.5119 156.348 16.6239 156.306 16.7079C156.362 16.7779 156.474 16.8339 156.642 16.8759C156.81 16.9179 156.992 16.9389 157.188 16.9389C157.398 16.9389 157.573 16.9249 157.713 16.8969Z" fill="#FFF5A8"/>
<path d="M7.94407 48.6623C10.9976 46.118 15.0473 45.1633 18.9464 44.5251C18.9718 44.5203 18.9959 44.5104 19.0172 44.4959C19.0385 44.4813 19.0566 44.4625 19.0702 44.4407C19.0839 44.4189 19.093 44.3944 19.0967 44.3689C19.1005 44.3434 19.099 44.3174 19.0922 44.2925C19.0716 44.2194 19.0281 44.1548 18.9679 44.1083C18.9078 44.0618 18.8343 44.0359 18.7584 44.0344C15.5484 43.9579 12.3563 44.5346 9.37606 45.7297C20.7422 33.6425 38.79 21.6768 55.6868 29.0732C51.9262 32.1097 48.4514 35.9081 47.2173 40.7258C46.4108 43.4961 46.4655 46.4461 47.3741 49.1846C49.56 55.8809 57.499 59.4994 63.6041 55.9886C74.6831 49.6173 70.5536 33.71 60.1408 27.3782C65.6191 23.3444 71.6414 20.0298 77.8374 17.2198C77.8712 17.2051 77.8978 17.1777 77.9116 17.1436C77.9254 17.1094 77.9253 17.0712 77.9112 17.0372C77.9003 17.0093 77.884 16.9839 77.8632 16.9623C77.8424 16.9407 77.8176 16.9234 77.7901 16.9115C77.7627 16.8995 77.7331 16.893 77.7032 16.8925C77.6732 16.892 77.6434 16.8973 77.6156 16.9083C71.0762 19.4825 64.7541 22.6369 58.9459 26.6231C41.1768 16.4596 19.7529 29.1983 9.48632 44.1455C11.0619 41.8496 10.1922 37.6417 9.07953 35.8115C9.04844 35.7495 8.99443 35.702 8.92898 35.6792C8.86352 35.6564 8.79174 35.6599 8.72885 35.6891C8.67361 35.7202 8.62787 35.7657 8.59654 35.8208C8.5652 35.8759 8.54945 35.9384 8.55096 36.0018C8.63898 39.8938 7.72478 43.3255 5.99971 47.385C5.29242 49.0507 5.59718 50.6165 7.94407 48.6623ZM60.4461 32.1024C67.4624 37.4017 69.5813 50.1854 61.8962 53.8551C57.4433 55.9836 52.0384 53.9992 49.9447 49.529C48.7331 46.9291 48.461 43.9894 49.1749 41.2113C50.2489 36.5672 53.5755 32.8517 57.1131 29.7927C58.2951 30.4547 59.4112 31.2281 60.4461 32.1024Z" fill="#FFF5A8"/>
<path d="M71.2458 54.1575C71.7154 53.2996 72.2599 52.4849 72.8729 51.7228C72.8997 51.6895 72.9368 51.666 72.9783 51.6559C73.0199 51.6459 73.0636 51.6498 73.1027 51.6672C73.1418 51.6845 73.174 51.7143 73.1944 51.7519C73.2148 51.7895 73.2223 51.8327 73.2155 51.875C73.1186 52.392 72.9179 52.884 72.6255 53.3213C72.3332 53.7586 71.9554 54.1322 71.5147 54.4195C71.478 54.4417 71.4349 54.451 71.3923 54.4461C71.3496 54.4412 71.3098 54.4223 71.2791 54.3923C71.2483 54.3624 71.2284 54.3231 71.2224 54.2806C71.2164 54.2381 71.2246 54.1948 71.2458 54.1575Z" fill="#FFF5A8"/>
<path d="M73.9299 49.3006C74.8305 44.555 74.4961 39.3099 72.1699 34.5679C72.1153 34.4734 72.2609 34.4005 72.3337 34.4733C76.0729 38.3015 76.4645 44.9698 74.1028 49.3575C74.0913 49.3746 74.0745 49.3875 74.055 49.3942C74.0355 49.4008 74.0144 49.401 73.9948 49.3945C73.9752 49.3881 73.9583 49.3754 73.9466 49.3584C73.9349 49.3415 73.929 49.3212 73.9299 49.3006Z" fill="#FFF5A8"/>
<path d="M24.4066 25.9365C22.4807 26.8264 20.7139 28.0263 19.1764 29.4882C19.1649 29.4971 19.1508 29.5017 19.1363 29.5014C19.1218 29.501 19.1078 29.4957 19.0968 29.4863C19.0858 29.4769 19.0783 29.4639 19.0757 29.4497C19.0731 29.4354 19.0755 29.4207 19.0825 29.408C20.1391 27.4986 22.2197 26.1405 24.372 25.8136C24.3868 25.8129 24.4014 25.8172 24.4135 25.8259C24.4255 25.8345 24.4342 25.847 24.4382 25.8613C24.4422 25.8755 24.4413 25.8907 24.4355 25.9044C24.4298 25.9181 24.4196 25.9294 24.4066 25.9365Z" fill="#FFF5A8"/>
</svg>
