<svg width="52" height="52" viewBox="0 0 52 52" fill="none" xmlns="http://www.w3.org/2000/svg">
<rect x="0.160156" y="0.00341797" width="51.5668" height="51.5668" rx="8.00175" fill="white" fill-opacity="0.1"/>
<g clip-path="url(#clip0_2588_2150)">
<path d="M29.322 11.729C32.8448 11.729 35.7108 14.595 35.7108 18.1178V28.5803C35.7108 32.1031 32.8448 34.9691 29.322 34.9691H18.8595C15.3367 34.9691 12.4707 32.1031 12.4707 28.5803V18.1178C12.4707 14.595 15.3367 11.729 18.8595 11.729H29.322ZM29.322 9.59033H18.8595C14.1507 9.59033 10.332 13.409 10.332 18.1178V28.5803C10.332 33.2891 14.1507 37.1078 18.8595 37.1078H29.322C34.0308 37.1078 37.8495 33.2891 37.8495 28.5803V18.1178C37.8495 13.409 34.0308 9.59033 29.322 9.59033Z" fill="#99D75E"/>
<path d="M29.7472 41.3198H22.2891V39.1812H29.7472C35.5172 39.1812 40.2124 34.4859 40.2124 28.7159V21.2578H42.3511V28.7159C42.3511 35.6638 36.6978 41.3198 29.7472 41.3198Z" fill="#99D75E"/>
<path d="M22.7997 20.0205C22.5826 19.7057 22.2922 19.475 21.9285 19.3285C21.5649 19.1819 21.1822 19.1086 20.7805 19.1086C20.5417 19.1086 20.311 19.1358 20.0884 19.19C19.8659 19.2443 19.6651 19.3312 19.4859 19.4506C19.3068 19.57 19.163 19.7247 19.0544 19.9147C18.9458 20.1047 18.8916 20.3299 18.8916 20.5905C18.8916 20.9813 19.0273 21.2798 19.2987 21.4861C19.5701 21.6924 19.9066 21.8715 20.3083 22.0235C20.7099 22.1755 21.1496 22.322 21.6273 22.4631C22.105 22.6043 22.5446 22.7997 22.9463 23.0494C23.348 23.2991 23.6845 23.6302 23.9559 24.0427C24.2273 24.4552 24.363 25.0035 24.363 25.6874C24.363 26.3062 24.249 26.8463 24.0211 27.3104C23.7931 27.7718 23.4864 28.1544 23.101 28.4584C22.7156 28.7624 22.2678 28.9904 21.7576 29.1423C21.2473 29.2943 20.7099 29.3703 20.1427 29.3703C19.4262 29.3703 18.7341 29.2509 18.0719 29.0121C17.4097 28.7732 16.8398 28.3716 16.3594 27.807L17.9064 26.3089C18.1561 26.6889 18.4845 26.9847 18.8916 27.1964C19.2987 27.4081 19.7302 27.5139 20.1861 27.5139C20.425 27.5139 20.6638 27.4814 20.9026 27.4162C21.1415 27.3511 21.3586 27.2534 21.554 27.1231C21.7494 26.9928 21.9068 26.8273 22.0262 26.6264C22.1457 26.4256 22.2054 26.1949 22.2054 25.9344C22.2054 25.511 22.0697 25.1853 21.7983 24.9573C21.5269 24.7293 21.1903 24.5367 20.7887 24.3792C20.387 24.2218 19.9473 24.0726 19.4696 23.9314C18.992 23.7903 18.5523 23.5976 18.1506 23.3533C17.749 23.1091 17.4124 22.7834 17.141 22.3763C16.8696 21.9692 16.7339 21.4237 16.7339 20.737C16.7339 20.1399 16.856 19.6243 17.1003 19.1873C17.3446 18.7531 17.6648 18.3921 18.0611 18.1044C18.4573 17.8167 18.9106 17.6023 19.4208 17.4612C19.931 17.3201 20.4521 17.2495 20.9841 17.2495C21.592 17.2495 22.1809 17.3418 22.7536 17.5263C23.3235 17.7109 23.8365 18.0149 24.2925 18.4383L22.7943 20.0178L22.7997 20.0205Z" fill="#99D75E"/>
<path d="M30.6878 23.6058C30.4599 23.367 30.221 23.177 29.9713 23.0359C29.7217 22.8947 29.4665 22.8242 29.206 22.8242C28.8477 22.8242 28.5275 22.8893 28.2452 23.0196C27.963 23.1499 27.7214 23.3236 27.5206 23.5407C27.3197 23.7578 27.1678 24.0075 27.0646 24.2897C26.9615 24.572 26.9099 24.8651 26.9099 25.1691C26.9099 25.4731 26.9615 25.7662 27.0646 26.0484C27.1678 26.3307 27.3197 26.5804 27.5206 26.7975C27.7214 27.0146 27.963 27.1883 28.2452 27.3186C28.5275 27.4489 28.8477 27.514 29.206 27.514C29.51 27.514 29.7922 27.4516 30.0528 27.3267C30.3133 27.2019 30.5359 27.02 30.7204 26.7812L32.0231 28.1816C31.8277 28.3771 31.6025 28.5453 31.3474 28.6865C31.0922 28.8276 30.8344 28.9416 30.5739 29.0284C30.3133 29.1153 30.0636 29.1777 29.8248 29.2157C29.586 29.2537 29.3797 29.2727 29.206 29.2727C28.6198 29.2727 28.0661 29.175 27.5423 28.9796C27.0185 28.7842 26.5707 28.5073 26.1907 28.1491C25.8108 27.7908 25.5095 27.3593 25.2869 26.8545C25.0644 26.3497 24.9531 25.7879 24.9531 25.1664C24.9531 24.5449 25.0644 23.9858 25.2869 23.4782C25.5095 22.9734 25.8108 22.5419 26.1907 22.1837C26.5707 21.8254 27.0212 21.5486 27.5423 21.3532C28.0634 21.1578 28.6171 21.0601 29.206 21.0601C29.7054 21.0601 30.2075 21.1551 30.7123 21.345C31.2171 21.535 31.6595 21.8363 32.0394 22.2488L30.6878 23.6004V23.6058Z" fill="#99D75E"/>
</g>
<defs>
<clipPath id="clip0_2588_2150">
<rect width="32.02" height="31.7296" fill="white" transform="translate(10.332 9.59033)"/>
</clipPath>
</defs>
</svg>
