<svg width="164" height="134" viewBox="0 0 164 134" fill="none" xmlns="http://www.w3.org/2000/svg">
<path fill-rule="evenodd" clip-rule="evenodd" d="M147.848 39.4916C144.899 39.9587 141.971 38.5007 140.576 35.8496C139.462 33.7317 138.232 31.6708 136.898 29.6877C134.526 26.1607 131.801 22.8439 128.801 19.8292C125.799 16.8145 122.497 14.0786 118.986 11.6959C115.441 9.2899 111.649 7.22316 107.72 5.55374C99.5416 2.07898 90.8553 0.31778 81.903 0.31778C72.9507 0.31778 64.2644 2.07898 56.087 5.55258C52.1568 7.222 48.3665 9.28873 44.8203 11.6947C41.3088 14.0774 38.0066 16.8145 35.0063 19.828C32.0049 22.8428 29.281 26.1595 26.9087 29.6866C25.574 31.6708 24.3445 33.7306 23.2295 35.8496C21.8346 38.5007 18.906 39.9587 15.9578 39.4916C12.6244 38.9631 8.85029 38.3438 5.85231 37.8466C2.98387 37.3703 0.374512 39.5939 0.374512 42.5145V91.3505C0.374512 94.2712 2.98271 96.4947 5.85231 96.0184C8.85029 95.5212 12.6244 94.902 15.9578 94.3734C18.9072 93.9064 21.8346 95.3644 23.2295 98.0154C24.3445 100.133 25.574 102.194 26.9087 104.178C29.281 107.706 32.006 111.022 35.0063 114.037C38.0078 117.052 41.3099 119.788 44.8203 122.17C48.3665 124.576 52.1568 126.643 56.087 128.312C64.2644 131.786 72.9495 133.547 81.903 133.547C90.8565 133.547 99.5416 131.786 107.719 128.312C111.648 126.643 115.439 124.576 118.985 122.17C122.496 119.788 125.798 117.051 128.8 114.037C131.801 111.022 134.525 107.706 136.897 104.178C138.232 102.194 139.462 100.134 140.575 98.0166C141.97 95.3655 144.899 93.9075 147.847 94.3745C151.18 94.9031 154.955 95.5223 157.953 96.0196C160.821 96.4959 163.43 94.2723 163.43 91.3517V42.5157C163.43 39.595 160.822 37.3715 157.953 37.8478C154.955 38.345 151.18 38.9642 147.847 39.4928L147.848 39.4916ZM161.713 86.3527C161.713 90.7975 157.752 94.1887 153.384 93.48C149.981 92.927 146.655 92.4124 143.395 91.9349C142.887 91.8601 142.38 91.787 141.876 91.7142L141.626 91.6781C141.055 91.5968 140.486 91.5155 139.92 91.4365C139.718 91.4075 139.517 91.3796 139.316 91.3517C131.323 90.2388 123.726 89.3535 116.389 88.6843C115.734 88.6239 115.083 88.5658 114.432 88.5101C113.862 88.4601 113.294 88.4125 112.727 88.366C102.078 87.4889 91.9448 87.0707 81.903 87.0707C71.8611 87.0707 61.7279 87.4889 51.0788 88.366C50.5121 88.4125 49.9442 88.4601 49.374 88.5101C48.7239 88.567 48.0716 88.6251 47.4169 88.6843C40.0804 89.3535 32.4825 90.2376 24.4902 91.3517C24.289 91.3796 24.0877 91.4075 23.8865 91.4365C23.4264 91.5006 22.9655 91.5663 22.5026 91.6323L22.497 91.6331L22.1804 91.6781L21.9113 91.717C21.4128 91.7889 20.9125 91.8611 20.4096 91.9349C17.1503 92.4124 13.8238 92.927 10.421 93.48C6.0524 94.1898 2.09211 90.7975 2.09211 86.3527V47.5123C2.09211 43.0675 6.05356 39.6764 10.421 40.385C13.8238 40.938 17.1503 41.4527 20.4096 41.9301C20.9568 42.0106 21.502 42.0892 22.0461 42.1675L22.0468 42.1676L22.1804 42.1869L22.3111 42.2055C22.8376 42.2806 23.363 42.3556 23.8865 42.4285C24.0877 42.4576 24.289 42.4854 24.4902 42.5133C32.4825 43.6263 40.0804 44.5115 47.4169 45.1807C48.0716 45.2411 48.7228 45.2992 49.374 45.3549L49.4642 45.3627L49.4665 45.3629L49.4668 45.3629L49.4671 45.3629L49.4675 45.3629C50.0063 45.409 50.5431 45.455 51.08 45.4978C61.7279 46.3749 71.8623 46.7932 81.9042 46.7932C91.946 46.7932 102.079 46.3749 112.728 45.4978C113.295 45.4514 113.864 45.4037 114.434 45.3549C115.084 45.298 115.737 45.2399 116.391 45.1807C123.728 44.5115 131.326 43.6263 139.318 42.5133C139.519 42.4854 139.721 42.4576 139.922 42.4285C140.383 42.3643 140.845 42.2985 141.308 42.2324L141.628 42.1869L141.881 42.1504C142.385 42.0777 142.89 42.0048 143.398 41.9301C146.657 41.4527 149.985 40.938 153.386 40.385C157.755 39.6752 161.715 43.0675 161.715 47.5123V86.3527H161.713ZM94.3657 90.1505L95.8901 90.9556L97.4145 90.1505L97.1231 91.8559L98.356 93.063L96.6512 93.3116L95.889 94.8625L95.1267 93.3116L93.4219 93.063L94.6548 91.8559L94.3634 90.1505H94.3657ZM79.1791 93.1048L81.903 94.543L84.6269 93.1048L84.1064 96.1508L86.3098 98.3082L83.2644 98.752L81.903 101.524L80.5416 98.752L77.4962 98.3082L79.6996 96.1508L79.1791 93.1048ZM67.9159 90.9556L69.4403 90.1505L69.1488 91.8559L70.3818 93.063L68.6769 93.3116L67.9147 94.8625L67.1525 93.3116L65.4488 93.063L66.6818 91.8559L66.3903 90.1505H66.3914L67.9159 90.9556ZM55.3988 93.5544C58.841 97.0117 62.8498 99.7255 67.3133 101.623C71.9352 103.586 76.8439 104.58 81.903 104.58C86.9621 104.58 91.872 103.586 96.4939 101.623C100.957 99.7255 104.965 97.0117 108.408 93.5544C109.424 92.5332 110.376 91.4632 111.261 90.3456C111.414 90.1516 111.653 90.0448 111.899 90.0645C111.905 90.0645 111.911 90.0645 111.916 90.0657C112.507 90.1133 112.804 90.8045 112.435 91.2704C105.284 100.299 94.2558 106.099 81.9042 106.099C69.5525 106.099 58.5229 100.301 51.3726 91.2704C51.0036 90.8045 51.2986 90.1121 51.8908 90.0657C51.8966 90.0657 51.9023 90.0657 51.9081 90.0645C52.1545 90.0448 52.3928 90.1516 52.5466 90.3456C53.4314 91.4632 54.3833 92.5332 55.4 93.5544H55.3988ZM45.0378 90.6698C47.1081 90.4711 49.1438 91.3145 50.4681 92.9259C51.2997 93.9377 52.1822 94.9124 53.1145 95.8488C56.8539 99.6035 61.2074 102.552 66.0549 104.612C71.0746 106.745 76.4067 107.825 81.903 107.825C87.3993 107.825 92.7302 106.744 97.75 104.612C102.599 102.552 106.952 99.6035 110.69 95.8488C111.623 94.9124 112.505 93.9366 113.337 92.9247C114.661 91.3134 116.697 90.4699 118.767 90.6698C123.487 91.124 128.283 91.6631 133.181 92.2857C135.882 92.6296 137.38 95.6234 136.025 97.9957C125.265 116.837 105.034 129.556 81.9018 129.556C58.7693 129.556 38.5387 116.837 27.7785 97.9957C26.4241 95.6234 27.9219 92.6296 30.6227 92.2857C35.521 91.6619 40.3164 91.124 45.0366 90.6698H45.0378ZM69.4403 43.7146L67.9159 42.9095L66.3914 43.7146L66.6829 42.0091L65.4499 40.8021L67.1537 40.5535L67.9159 39.0025L68.6781 40.5535L70.383 40.8021L69.15 42.0091L69.4415 43.7146H69.4403ZM84.6269 40.7603L81.903 39.322L79.1791 40.7603L79.6996 37.7142L77.4962 35.5568L80.5416 35.113L81.903 32.3411L83.2644 35.113L86.3098 35.5568L84.1064 37.7142L84.6269 40.7603ZM97.4145 43.7146L95.8901 42.9095L94.3657 43.7146L94.6572 42.0091L93.4242 40.8021L95.1291 40.5535L95.8913 39.0025L96.6535 40.5535L98.3584 40.8021L97.1254 42.0091L97.4169 43.7146H97.4145ZM108.407 40.3107C104.965 36.8533 100.956 34.1395 96.4927 32.2424C91.8708 30.279 86.9621 29.2846 81.9018 29.2846C76.8416 29.2846 71.9328 30.2802 67.3121 32.2424C62.8487 34.1395 58.841 36.8533 55.3977 40.3107C54.3822 41.3318 53.4291 42.4018 52.5443 43.5194C52.3904 43.7134 52.1522 43.8203 51.9058 43.8005C51.9023 43.8005 51.8989 43.8005 51.8954 43.8003C51.8931 43.8001 51.8908 43.7998 51.8885 43.7994C51.2974 43.7517 51.0013 43.0605 51.3703 42.5947C58.5206 33.5656 69.5502 27.7662 81.9018 27.7662C94.2535 27.7662 105.283 33.5644 112.432 42.5947C112.801 43.0605 112.506 43.7529 111.914 43.7994C111.91 43.7994 111.906 43.7994 111.903 43.7997C111.901 43.7999 111.899 43.8001 111.897 43.8005C111.65 43.8203 111.412 43.7134 111.258 43.5194C110.373 42.4018 109.422 41.3318 108.406 40.3107H108.407ZM118.768 43.1953C116.698 43.3939 114.662 42.5505 113.338 40.9403C112.506 39.9285 111.624 38.9538 110.691 38.0162C106.953 34.2615 102.6 31.313 97.7511 29.2532C92.7314 27.1203 87.3993 26.0399 81.9042 26.0399C76.409 26.0399 71.0758 27.1214 66.056 29.2532C61.2086 31.313 56.8539 34.2615 53.1157 38.0162C52.1834 38.9526 51.3009 39.9285 50.4693 40.9392C49.1449 42.5505 47.1093 43.3939 45.0389 43.1941C40.3187 42.7399 35.5245 42.2008 30.625 41.5781C27.9243 41.2343 26.4264 38.2405 27.7808 35.8682C38.5398 17.0282 58.7704 4.30952 81.903 4.30952C105.036 4.30952 125.266 17.0282 136.026 35.8693C137.381 38.2416 135.883 41.2354 133.182 41.5793C128.283 42.2031 123.488 42.741 118.768 43.1953ZM81.903 2.04412C107.78 2.04412 130.152 17.4046 140.456 39.523C140.691 40.026 140.369 40.6139 139.821 40.6906L139.804 40.6929C139.446 40.7428 139.098 40.5546 138.946 40.2259C137.554 37.2309 135.921 34.337 134.077 31.5953C131.827 28.2495 129.242 25.1023 126.394 22.2421C123.547 19.3831 120.414 16.7866 117.082 14.5259C113.717 12.243 110.121 10.282 106.393 8.69857C98.6359 5.40271 90.3961 3.73213 81.9018 3.73213C73.4076 3.73213 65.1677 5.40271 57.4102 8.69857C53.6812 10.282 50.0853 12.243 46.7218 14.5259C43.3907 16.7866 40.2574 19.3831 37.4098 22.2421C34.5633 25.1023 31.9782 28.2495 29.7274 31.5953C27.8838 34.3358 26.2506 37.2309 24.8592 40.2259C24.7065 40.5535 24.3584 40.7428 24.001 40.6929L23.9836 40.6906C23.4354 40.6139 23.1138 40.026 23.3486 39.523C33.6542 17.4035 56.0257 2.04412 81.903 2.04412ZM81.903 131.821C56.0257 131.821 33.6542 116.462 23.3498 94.342C23.115 93.839 23.4365 93.2511 23.9848 93.1745L24.0021 93.1721C24.3595 93.1222 24.7077 93.3104 24.8604 93.6392C26.2518 96.6341 27.8849 99.528 29.7286 102.27C31.9794 105.616 34.5645 108.763 37.4109 111.623C40.2586 114.483 43.3919 117.08 46.723 119.34C50.0864 121.623 53.6824 123.584 57.4114 125.168C65.1689 128.463 73.4087 130.134 81.903 130.134C90.3973 130.134 98.6371 128.463 106.395 125.168C110.122 123.584 113.718 121.623 117.083 119.34C120.414 117.08 123.547 114.483 126.395 111.623C129.243 108.764 131.828 105.617 134.079 102.27C135.922 99.5292 137.555 96.6341 138.947 93.6392C139.099 93.3116 139.448 93.1222 139.805 93.1721L139.822 93.1745C140.371 93.2511 140.692 93.839 140.457 94.342C130.153 116.462 107.781 131.821 81.9042 131.821H81.903ZM15.1215 60.7991V73.1867H11.4215V60.7991H15.1215ZM21.675 67.2758L25.7972 73.1867H28.6691V60.7991H24.9691V66.6032L20.8642 60.7991H17.9749V73.1867H21.675V67.2758ZM42.5348 73.1867H38.8347V68.7628H35.2226V73.1867H31.5225V60.7991H35.2226V65.7365H38.8347V60.7991H42.5348V73.1867ZM50.5861 73.3807C52.2956 73.3807 53.687 72.7615 54.7268 71.5406C55.7666 70.3196 56.2952 68.8151 56.2952 66.9923C56.2952 65.1696 55.7666 63.6477 54.7268 62.4267C53.687 61.2057 52.3118 60.6039 50.5861 60.6039C48.8604 60.6039 47.4852 61.2057 46.4639 62.4267C45.4426 63.6477 44.9313 65.1696 44.9313 66.9923C44.9313 68.8151 45.4426 70.3196 46.4639 71.5406C47.4852 72.7615 48.8766 73.3807 50.5861 73.3807ZM48.4718 66.9923C48.4718 64.9395 49.2999 63.506 50.5861 63.506C51.9081 63.506 52.7536 64.9395 52.7536 66.9923C52.7536 68.0019 52.5593 68.8325 52.1545 69.4878C51.7485 70.143 51.2384 70.4787 50.5861 70.4787C49.2999 70.4787 48.4718 69.0451 48.4718 66.9923ZM68.0292 71.5406C66.9894 72.7615 65.598 73.3807 63.8885 73.3807C62.179 73.3807 60.7876 72.7615 59.7663 71.5406C58.745 70.3196 58.2337 68.8151 58.2337 66.9923C58.2337 65.1696 58.745 63.6477 59.7663 62.4267C60.7876 61.2057 62.1628 60.6039 63.8885 60.6039C65.6142 60.6039 66.9894 61.2057 68.0292 62.4267C69.069 63.6477 69.5976 65.1696 69.5976 66.9923C69.5976 68.8151 69.069 70.3196 68.0292 71.5406ZM63.8885 63.506C62.6023 63.506 61.7742 64.9395 61.7742 66.9923C61.7742 69.0451 62.6023 70.4787 63.8885 70.4787C64.5408 70.4787 65.0509 70.143 65.4569 69.4878C65.8617 68.8325 66.056 68.0019 66.056 66.9923C66.056 64.9395 65.2105 63.506 63.8885 63.506ZM77.1897 73.3807C78.8992 73.3807 80.2907 72.7615 81.3305 71.5406C82.3703 70.3196 82.8989 68.8151 82.8989 66.9923C82.8989 65.1696 82.3703 63.6477 81.3305 62.4267C80.2907 61.2057 78.9154 60.6039 77.1897 60.6039C75.464 60.6039 74.0888 61.2057 73.0675 62.4267C72.0462 63.6477 71.535 65.1696 71.535 66.9923C71.535 68.8151 72.0462 70.3196 73.0675 71.5406C74.0888 72.7615 75.4802 73.3807 77.1897 73.3807ZM75.0754 66.9923C75.0754 64.9395 75.9036 63.506 77.1897 63.506C78.5118 63.506 79.3573 64.9395 79.3573 66.9923C79.3573 68.0019 79.1629 68.8325 78.7581 69.4878C78.3521 70.143 77.8421 70.4787 77.1897 70.4787C75.9036 70.4787 75.0754 69.0451 75.0754 66.9923ZM94.6317 71.5406C93.5919 72.7615 92.2005 73.3807 90.491 73.3807C88.7815 73.3807 87.39 72.7615 86.3687 71.5406C85.3474 70.3196 84.8362 68.8151 84.8362 66.9923C84.8362 65.1696 85.3474 63.6477 86.3687 62.4267C87.39 61.2057 88.7653 60.6039 90.491 60.6039C92.2167 60.6039 93.5919 61.2057 94.6317 62.4267C95.6715 63.6477 96.2001 65.1696 96.2001 66.9923C96.2001 68.8151 95.6715 70.3196 94.6317 71.5406ZM90.4921 63.506C89.206 63.506 88.3778 64.9395 88.3778 66.9923C88.3778 69.0451 89.206 70.4787 90.4921 70.4787C91.1445 70.4787 91.6545 70.143 92.0605 69.4878C92.4653 68.8325 92.6596 68.0019 92.6596 66.9923C92.6596 64.9395 91.8142 63.506 90.4921 63.506ZM97.5383 62.8868L98.437 65.5948V65.5959L100.868 64.6398V73.1867H104.498V60.7991H102.366L97.5383 62.8868ZM114.188 68.0367L114.223 67.701H114.169C113.553 68.5677 112.231 69.0986 111.156 69.0986C109.941 69.0986 108.937 68.7268 108.109 67.9833C107.281 67.2572 106.857 66.2663 106.857 65.0278C106.857 63.7894 107.333 62.6742 108.267 61.8424C109.201 61.0106 110.435 60.6039 112.002 60.6039C113.781 60.6039 115.173 61.1697 116.177 62.285C117.164 63.4002 117.658 64.9221 117.658 66.8332C117.658 70.3718 115.843 73.3807 111.527 73.3807C109.641 73.3807 108.126 72.8324 106.981 71.7532L108.672 69.7178C109.483 70.2487 110.328 70.5136 111.227 70.5136C112.408 70.5136 113.994 70.071 114.187 68.0356L114.188 68.0367ZM114.048 65.0104C114.048 64.1438 113.414 63.4351 112.233 63.4351C111.193 63.4351 110.419 64.1077 110.419 65.0104C110.419 65.9131 111.264 66.5857 112.251 66.5857C113.361 66.5857 114.048 65.8596 114.048 65.0104ZM125.252 73.3807C126.962 73.3807 128.353 72.7615 129.393 71.5406C130.433 70.3196 130.961 68.8151 130.961 66.9923C130.961 65.1696 130.433 63.6477 129.393 62.4267C128.353 61.2057 126.978 60.6039 125.252 60.6039C123.527 60.6039 122.151 61.2057 121.13 62.4267C120.109 63.6477 119.598 65.1696 119.598 66.9923C119.598 68.8151 120.109 70.3196 121.13 71.5406C122.151 72.7615 123.543 73.3807 125.252 73.3807ZM123.138 66.9923C123.138 64.9395 123.966 63.506 125.252 63.506C126.574 63.506 127.42 64.9395 127.42 66.9923C127.42 68.0019 127.226 68.8325 126.821 69.4878C126.415 70.143 125.905 70.4787 125.252 70.4787C123.966 70.4787 123.138 69.0451 123.138 66.9923ZM134.784 65.8422L137.691 63.7011H133.321V60.7991H142.429V62.8345L139.153 65.4716C140.192 65.4716 141.091 65.7725 141.83 66.3743C142.553 66.9935 142.922 67.8427 142.922 68.9406C142.922 70.2324 142.447 71.2943 141.477 72.1261C140.508 72.9579 139.134 73.3831 137.355 73.3831C135.294 73.3831 133.691 72.8347 132.51 71.7555L134.113 69.5261C135.17 70.1813 136.14 70.4996 137.003 70.4996C138.5 70.4996 139.328 69.8096 139.328 68.8012C139.328 67.8636 138.571 67.3141 137.514 67.3141C136.968 67.3141 136.439 67.4199 135.911 67.615L134.783 65.8457L134.784 65.8422ZM149.724 67.3467C150.64 67.3467 151.451 67.8242 151.451 68.8151L151.45 68.8163C151.45 69.8607 150.463 70.4973 149.406 70.4973C148.244 70.4973 147.187 70.179 146.235 69.5238L144.632 71.7532C145.83 72.8324 147.504 73.3807 149.653 73.3807C151.326 73.3807 152.647 72.9556 153.616 72.1237C154.568 71.2919 155.044 70.1767 155.044 68.7965C155.044 67.6638 154.675 66.7437 153.952 66.0362C153.23 65.3287 152.278 64.9744 151.133 64.9744C150.093 64.9744 149.318 65.187 148.772 65.6296H148.684L148.79 63.7011H154.234V60.7991H145.689L145.301 67.4175L147.61 68.2842C148.051 67.7184 149.037 67.3467 149.724 67.3467ZM43.7146 39.5114L41.7957 38.1347C42.5915 37.8269 43.3942 37.2518 43.9621 36.5397C44.3877 36.0053 44.4004 35.5348 43.9528 35.1746C43.681 34.955 43.4081 34.9237 43.1027 35.1665L42.0039 36.0297C40.9884 36.8231 39.7959 36.6036 38.667 35.6951C37.1981 34.5124 36.909 32.9034 37.9037 31.6569C38.3362 31.1155 39.0059 30.5439 39.8167 30.1571L41.7356 31.5337C40.9398 31.8416 40.1371 32.4166 39.6328 33.0486C39.2696 33.5029 39.3124 33.9408 39.7149 34.265C39.9925 34.4892 40.2713 34.524 40.5789 34.2917L41.6939 33.4425C42.7141 32.6653 43.8938 32.8558 44.9996 33.7457C46.5414 34.9876 46.7796 36.5687 45.6912 37.9326C45.1962 38.553 44.5254 39.1245 43.7146 39.5114ZM41.554 27.628L48.2023 34.7146L51.9475 31.1701L50.4276 29.5495L47.9305 31.9136L46.8444 30.7554L49.1947 28.5306L47.6749 26.91L45.3246 29.1347L44.323 28.0671L46.8201 25.703L45.3003 24.0823L41.554 27.628ZM56.2062 24.5888C57.1928 26.0073 57.1268 27.3886 55.8106 28.3122L52.9769 30.3011L47.4227 22.32L50.0078 20.5053C51.3148 19.5876 52.6345 19.9884 53.5424 21.293C53.9924 21.9389 54.189 22.6023 54.0953 23.247C54.9165 23.3121 55.6348 23.7698 56.205 24.5888H56.2062ZM50.0575 23.1425L50.9157 24.3751L52.062 23.5712C52.5211 23.2494 52.4957 22.8846 52.2459 22.5256C51.996 22.1666 51.6641 22.0168 51.2049 22.3386L50.0587 23.1425H50.0575ZM54.5082 26.5557C54.9304 26.2594 54.9373 25.8633 54.6459 25.4439C54.3498 25.0187 53.9808 24.8955 53.5586 25.1918L52.1649 26.17L53.1145 27.5339L54.5082 26.5557ZM54.3671 17.7578L59.0006 26.3105L60.5077 25.4869L55.8742 16.9341L54.3671 17.7578ZM69.9943 21.6822L69.9934 21.6825L66.9617 18.8301C67.7887 18.1377 67.9992 16.9853 67.5203 15.5761C66.8888 13.7173 65.5749 12.911 64.047 13.435L61.0617 14.4585L64.1927 23.6734L65.8073 23.1192L64.6808 19.8036L65.2869 19.5957L68.0894 22.3362L69.9934 21.6825L69.9955 21.6845L69.9943 21.6822ZM63.4016 16.0454L63.9741 17.7311L65.3308 17.2664C65.8605 17.0852 66.0317 16.6937 65.8467 16.1488C65.6593 15.5958 65.288 15.3995 64.7583 15.5807L63.4016 16.0454ZM69.2564 11.8934L71.0076 21.4707L76.0701 20.5379L75.6699 18.348L72.2949 18.9695L72.008 17.4046L75.1841 16.8191L74.784 14.6293L71.6078 15.2148L71.3441 13.7719L74.7192 13.1504L74.319 10.9605L69.2564 11.8934ZM80.3369 14.4678L83.631 14.3667L83.7744 19.0659C82.8861 19.9105 81.7445 20.3694 80.7151 20.4008C78.5314 20.467 77.0266 18.3155 76.9411 15.4994C76.8508 12.537 78.2712 10.4412 80.5359 10.3726C81.5803 10.3413 82.4501 10.555 83.269 10.9245L83.476 13.3943C82.7265 12.9866 81.7677 12.6729 80.8088 12.7019C79.3815 12.7461 78.6598 13.9357 78.7061 15.446C78.7523 16.9492 79.4637 18.1029 80.6434 18.0668C81.1431 18.0517 81.5884 17.9216 82.0395 17.6521L82.0059 16.5728L80.4017 16.6216L80.3358 14.4689L80.3369 14.4678ZM86.1027 10.6445L85.2526 20.345L86.9621 20.496L87.8122 10.7955L86.1027 10.6445ZM88.5617 20.2126L88.8856 17.8659C89.5263 18.4305 90.4054 18.8789 91.2971 19.0543C91.9657 19.1856 92.3867 18.9788 92.4977 18.413C92.5648 18.0692 92.4665 17.8113 92.1114 17.6521L90.8403 17.0747C89.6698 16.5392 89.3101 15.3751 89.5888 13.9496C89.9508 12.0943 91.237 11.0906 92.7973 11.3973C93.4762 11.5309 94.2905 11.862 95.0076 12.4057L94.6838 14.7524C94.043 14.1878 93.1639 13.7394 92.3717 13.5825C91.8026 13.471 91.4359 13.7103 91.3376 14.2192C91.2694 14.57 91.3665 14.8349 91.7147 14.9998L92.9812 15.5993C94.139 16.1476 94.5183 17.2861 94.2465 18.6826C93.866 20.6308 92.581 21.5753 90.8727 21.2395C90.0954 21.0862 89.28 20.7551 88.564 20.2126H88.5617ZM96.5901 22.5807L96.5899 22.5814L96.5887 22.5802L96.5901 22.5807ZM96.5901 22.5807L99.0547 15.5296L97.1115 14.8442L97.8576 12.7089L103.362 14.649L102.616 16.7843L100.673 16.0989L98.208 23.1506L96.5901 22.5807ZM101.342 24.3879L101.343 24.3874L105.897 26.7915L106.929 24.8212L103.892 23.218L104.628 21.81L107.488 23.3191L108.519 21.3488L105.66 19.8397L106.34 18.5408L109.378 20.144L110.409 18.1737L105.853 15.7689L101.343 24.3874L101.341 24.3867L101.342 24.3879ZM112 31.116L112.001 31.1167L112 31.1178L112 31.116ZM112.585 26.9844L112 31.116L110.375 29.9247L110.999 26.0468L110.481 25.6669L108.425 28.4969L107.047 27.4874L112.761 19.6224L115.309 21.4893C116.613 22.4454 116.711 23.9882 115.557 25.5752C114.684 26.7776 113.624 27.2655 112.585 26.9844ZM111.766 23.8976L112.812 22.4594L113.969 23.3074C114.422 23.6385 114.474 24.0568 114.131 24.5284C113.792 24.9943 113.376 25.0768 112.924 24.7457L111.766 23.8976ZM112.76 31.8311L119.55 24.8816L123.225 28.5027L121.673 30.092L119.223 27.6779L118.2 28.7246L120.505 30.997L118.953 32.5863L116.648 30.3139L115.539 31.4501L117.989 33.8642L116.436 35.4534L112.762 31.8323L112.76 31.8311ZM125.097 30.5869L117.34 36.4258H117.341L119.09 38.7702C120.4 40.5267 122.841 40.4629 125.12 38.747C127.412 37.0218 128.158 34.6879 126.847 32.9313L125.097 30.5869ZM120.922 37.3924L120.201 36.427V36.4258L124.296 33.3449L125.016 34.3103C125.676 35.1944 125.181 36.4537 124.047 37.3076C122.924 38.1533 121.582 38.2765 120.922 37.3924ZM34.0926 99.2225L35.8784 97.6762C35.9883 98.5254 36.3538 99.4455 36.9078 100.168C37.323 100.711 37.7753 100.834 38.231 100.482C38.5074 100.268 38.6023 100.009 38.4403 99.6547L37.8655 98.3779C37.3381 97.1999 37.8331 96.087 38.9793 95.2017C40.4702 94.0481 42.0964 94.148 43.0669 95.4131C43.489 95.9638 43.8823 96.7526 44.0639 97.6356L42.278 99.183C42.1682 98.3338 41.8027 97.4137 41.3099 96.7712C40.956 96.3088 40.5234 96.2473 40.114 96.5633C39.8318 96.7817 39.7311 97.0442 39.8838 97.3997L40.4413 98.6893C40.9514 99.8684 40.4876 100.976 39.3645 101.843C37.7984 103.054 36.2127 102.911 35.1497 101.526C34.6663 100.895 34.273 100.107 34.0903 99.2236L34.0926 99.2225ZM45.697 98.8867L38.9065 105.836H38.9076L42.5811 109.459L44.1333 107.87L41.6847 105.456L42.7939 104.32L45.0991 106.593L46.6512 105.003L44.3461 102.731L45.3697 101.684L47.8183 104.098L49.3705 102.509L45.697 98.8867ZM51.2997 112.668C50.2819 114.064 48.9576 114.447 47.6633 113.494L44.8747 111.443L50.6046 103.589L53.1492 105.462C54.4354 106.409 54.4839 107.793 53.5471 109.075C53.0833 109.711 52.5211 110.113 51.8838 110.231C52.0874 111.033 51.8885 111.862 51.2997 112.67V112.668ZM48.8986 111.689C49.3138 111.995 49.6897 111.874 49.9904 111.461C50.2958 111.043 50.2923 110.653 49.8771 110.347L48.5053 109.338L47.5257 110.681L48.8974 111.69L48.8986 111.689ZM50.6798 106.358L49.795 107.571L50.9227 108.4C51.3749 108.732 51.7103 108.591 51.9671 108.238C52.2239 107.884 52.2586 107.521 51.8075 107.187L50.6798 106.358ZM56.7232 107.84L51.8862 116.277H51.885L53.3724 117.137L58.2094 108.7L56.7232 107.84ZM64.5246 122.024L62.637 121.319L62.194 117.415L61.5937 117.191L60.377 120.474L58.7785 119.877L62.1617 110.752L65.118 111.856C66.632 112.422 67.1409 113.881 66.4585 115.722C65.9415 117.117 65.0521 117.875 63.9764 117.886L64.5258 122.024H64.5246ZM62.3548 115.138L62.9735 113.469L64.3153 113.971C64.8404 114.167 65.0035 114.555 64.8011 115.102C64.601 115.643 64.2228 115.837 63.6977 115.64L62.3548 115.138ZM69.1986 113.227L67.1675 122.747L67.1687 122.748L72.2012 123.83L72.665 121.655L69.3096 120.933L69.6416 119.378L72.7992 120.057L73.263 117.88L70.1054 117.2L70.4119 115.766L73.7673 116.487L74.2311 114.31L69.1986 113.227ZM78.7269 118.694L82.0152 118.893L81.7341 123.585C80.7741 124.346 79.5944 124.699 78.5673 124.637C76.3859 124.504 75.0824 122.225 75.2512 119.412C75.4282 116.455 77.0324 114.496 79.2936 114.633C80.3358 114.696 81.1836 114.988 81.9655 115.431L81.9481 117.909C81.2379 117.435 80.3126 117.035 79.3549 116.977C77.93 116.891 77.1041 118.011 77.0139 119.519C76.9237 121.02 77.5286 122.234 78.7072 122.305C79.2057 122.335 79.6615 122.246 80.1345 122.018L80.1993 120.94L78.5974 120.844L78.7257 118.694H78.7269ZM83.9433 114.817L84.5112 124.536H84.5124L86.2253 124.435L85.6563 114.715L83.9433 114.817ZM88.7676 123.803L88.2795 121.485C89.0729 121.797 90.0515 121.919 90.949 121.78C91.6222 121.675 91.9483 121.337 91.8604 120.767C91.8072 120.421 91.6268 120.213 91.2393 120.184L89.849 120.075C88.5675 119.97 87.8354 118.998 87.6156 117.563C87.3288 115.695 88.1997 114.311 89.7704 114.068C90.454 113.963 91.3318 113.996 92.1901 114.262L92.6782 116.58C91.8847 116.268 90.9062 116.146 90.1081 116.269C89.5344 116.358 89.2719 116.709 89.3505 117.221C89.4049 117.574 89.5865 117.791 89.9693 117.827L91.3631 117.958C92.6377 118.078 93.3791 119.02 93.5954 120.425C93.8961 122.388 93.0078 123.714 91.2867 123.981C90.5037 124.102 89.6258 124.069 88.7676 123.803ZM96.5124 115.007L98.7285 122.142L98.7296 122.141L100.367 121.628L98.1513 114.492L100.116 113.877L99.4456 111.717L93.8764 113.463L94.5473 115.623L96.5124 115.007ZM105.122 119.885L100.934 111.104L105.577 108.868L106.535 110.876L103.439 112.365L104.071 113.688L106.983 112.286L107.941 114.294L105.029 115.696L105.713 117.131L108.809 115.641L109.766 117.649L105.125 119.883L105.122 119.885ZM115.832 113.844L117.502 112.715V112.714L113.833 110.752C114.452 109.868 114.357 108.7 113.529 107.465C112.438 105.836 110.96 105.402 109.62 106.307L107.004 108.075L112.416 116.153L113.831 115.196L111.883 112.29L112.415 111.931L115.832 113.844ZM110.665 110.474L109.675 108.996L110.864 108.192C111.329 107.879 111.737 107.972 112.062 108.456C112.382 108.935 112.319 109.356 111.854 109.67L110.665 110.474ZM119.626 110.975L119.626 110.974L123.435 107.498L121.944 105.85L119.404 108.168L118.339 106.99L120.73 104.808L119.24 103.161L116.849 105.343L115.867 104.256L118.407 101.939L116.918 100.291L113.108 103.768L119.626 110.974L119.625 110.975H119.626ZM118.071 99.1307L125.591 105.275L127.431 103.003C128.81 101.301 128.158 98.9379 125.947 97.1325C123.727 95.3179 121.29 95.1564 119.911 96.8583L118.071 99.1307ZM125.656 101.552L124.898 102.487L120.93 99.2446L121.688 98.3094C122.382 97.452 123.719 97.6297 124.817 98.5278C125.906 99.4165 126.35 100.694 125.656 101.552Z" fill="url(#paint0_linear_3_3)"/>
<defs>
<linearGradient id="paint0_linear_3_3" x1="0.374512" y1="66.9325" x2="163.43" y2="66.9325" gradientUnits="userSpaceOnUse">
<stop stop-color="#FFB75E"/>
<stop offset="1" stop-color="#ED8F03"/>
</linearGradient>
</defs>
</svg>
