<svg width="74" height="74" viewBox="0 0 74 74" fill="none" xmlns="http://www.w3.org/2000/svg">
<path d="M57.6097 31.3196L62.7392 27.6404L63.7368 28.7251C61.0129 30.6808 58.4709 32.8781 56.1416 35.2902C55.3802 34.6013 54.4253 34.2034 55.0926 33.2679C55.6474 32.4892 56.8397 31.8717 57.6097 31.3196ZM34.3292 10.2091C34.8105 11.2484 35.2923 12.2888 35.8617 13.2826C38.8325 18.4651 43.9371 22.0048 48.874 25.3677L55.284 29.7331C55.7993 30.0845 56.3379 30.4447 56.9549 30.5377C57.9044 30.681 58.8826 30.1143 59.3531 29.2767C53.7984 23.7811 48.9635 17.603 44.9639 10.8904C44.3134 9.79648 43.6526 8.65443 42.6133 7.92011C41.6687 7.25283 40.5072 6.99166 39.3959 6.67316C38.1526 6.31622 36.9363 5.87115 35.7562 5.34132C35.0981 5.04607 33.0147 3.47738 32.3755 3.63366C30.7792 4.02461 33.9409 9.37092 34.3292 10.2091ZM41.2377 69.2098C41.8552 68.946 42.5376 68.8827 43.2071 68.8221C43.7067 68.7772 44.3361 68.8027 44.5427 69.2601C44.6903 69.5846 44.5178 69.9847 44.2356 70.2032C43.9538 70.4222 43.5899 70.4995 43.2374 70.5568C42.6923 70.646 40.7483 71.0819 40.2784 70.6666C39.6587 70.1194 40.7278 69.4283 41.2377 69.2098ZM19.6081 69.9312C20.2256 69.6668 20.908 69.6035 21.5774 69.5435C22.0771 69.4986 22.7065 69.524 22.9131 69.9815C23.0607 70.3059 22.8882 70.7061 22.6059 70.9245C22.3242 71.143 21.9603 71.2203 21.6077 71.2782C21.0627 71.3668 19.1187 71.8027 18.6488 71.3879C18.0291 70.8402 19.0982 70.1491 19.6081 69.9312Z" fill="#00B852"/>
<path d="M63.2167 35.0296C63.1951 35.1324 63.1519 35.2297 63.087 35.3216C62.9031 35.5758 62.6057 35.6947 62.2813 35.7434C62.0758 35.7812 61.8595 35.7813 61.654 35.7704C61.0051 35.738 60.367 35.6461 59.7344 35.5055L59.7939 35.4135C59.8425 35.3757 59.9344 35.3541 60.1345 35.3595C60.3022 35.3649 60.5563 35.3919 60.924 35.419C61.216 35.4298 61.627 35.4893 62.065 35.4568C62.1623 35.446 62.2596 35.4298 62.3624 35.4135C62.6544 35.3541 62.9464 35.1648 62.9518 34.8079C62.9518 34.7917 62.9518 34.7701 62.9464 34.7484C62.941 34.5862 62.8815 34.4078 62.7787 34.251C62.6598 34.0779 62.5084 33.9211 62.3516 33.8887C62.2612 33.8678 62.1683 33.8605 62.0758 33.867C61.773 33.8724 61.4485 33.959 61.216 33.986C61.1295 33.9968 61.0484 34.0022 60.9781 34.0076C60.7888 34.0184 60.6753 33.9914 60.6807 33.959C60.7564 33.9535 60.8375 33.9481 60.924 33.9319C61.2322 33.8724 61.5729 33.7481 61.8919 33.6886C62.1731 33.6345 62.4327 33.6345 62.6382 33.7643C63.0599 34.0292 63.3249 34.5754 63.2167 35.0296Z" fill="white"/>
<path d="M42.0259 39.7248C41.4549 39.2868 40.4762 38.8975 39.4655 39.0489C37.6427 39.2814 36.1724 40.9172 36.0529 42.5335C36.0145 43.1191 36.153 43.4581 36.226 43.4489C36.426 43.4359 36.3492 41.9294 37.9287 40.8096C37.7741 41.3233 37.8211 41.8586 38.0153 42.2847C38.7247 43.8447 40.9109 43.8994 41.4154 42.2896C41.5403 41.8705 41.4641 41.5439 41.3651 41.3487C41.3757 41.1129 41.3169 40.8792 41.1959 40.6766C41.8513 41.1281 42.2682 41.7715 42.4991 42.5205C42.8224 43.5879 42.4477 44.1535 42.9025 44.3406C42.9814 44.3758 43.0577 44.4055 43.1566 44.353C43.2475 44.2984 43.4016 44.1703 43.5178 43.8458C43.9477 42.7324 43.5665 40.9053 42.0259 39.7248ZM39.3568 40.3862C38.9594 40.6046 38.6993 41.1583 38.8945 41.7369C38.622 41.3476 38.5955 40.9026 38.5939 40.4354C39.14 40.2061 39.4828 40.2121 39.5818 40.1969C39.4926 40.2521 39.4196 40.3164 39.3568 40.3862ZM40.1685 41.2616C40.1625 41.26 40.1198 41.28 40.0874 41.2849C40.0073 41.2903 40.0398 41.2919 40.0241 41.2957C39.9506 41.306 39.9684 41.1594 39.9473 41.047C39.9419 41.0075 39.9414 40.961 39.9398 40.9172C40.0479 40.9085 40.1047 40.9572 40.168 41.0578C40.2063 41.1227 40.2426 41.28 40.1685 41.2616ZM32.3505 55.9363C32.3532 55.6567 32.2504 55.3733 32.1163 55.0089C32.0763 54.9548 31.8259 54.0983 30.7574 53.8025C30.1464 53.623 29.3683 53.7755 28.8162 54.3032C28.8173 54.3178 28.8205 54.334 28.8059 54.3357H28.794C28.7334 54.2956 28.688 54.2589 28.6545 54.2383C27.8931 53.7495 27.0015 53.7841 26.3953 54.1929C25.7734 54.6109 25.4798 55.4328 25.6777 56.1763C23.9733 55.7048 22.768 54.8158 22.0521 53.8111C21.2566 52.7545 20.9187 51.5449 20.8916 50.6684C20.8522 50.0168 20.9462 49.5479 20.9587 49.3306C21.1122 49.4441 21.3821 49.6009 21.7476 49.781C25.3906 51.4373 30.0291 51.3967 33.6883 49.6999C34.2128 49.4668 34.9558 49.0402 35.224 48.8147C35.8231 48.3394 35.762 48.1939 35.6717 48.0468C35.5819 47.8992 35.4695 47.783 34.7968 48.0393L34.1652 48.2799C30.9786 49.6226 27.725 50.1163 24.4319 49.7583C22.5382 49.5652 20.89 48.9894 20.8154 49.1646C20.8073 49.1835 20.823 49.2127 20.8608 49.2505C20.7343 49.3987 20.4866 49.8735 20.4044 50.6516C20.0924 53.0244 21.7519 56.0449 24.9883 57.1773C26.4575 57.7191 27.9342 57.8088 29.0492 57.7548C31.449 57.6088 34.0338 56.7598 35.8301 55.8476C36.7397 55.376 36.7175 55.2138 36.6558 55.0538C36.4633 54.5541 35.0796 55.2106 32.3505 55.9363Z" fill="white"/>
<path d="M35.2138 49.1948C34.8688 49.2094 34.6849 51.493 34.7298 52.5512C34.812 54.4828 35.0937 54.5114 35.4387 54.4963C35.7842 54.4817 36.0627 54.4298 35.9805 52.4977C35.9356 51.4395 35.5593 49.1802 35.2138 49.1948ZM22.5334 41.3855C24.5136 42.4972 25.8081 44.3347 26.3234 43.8366C26.4473 43.7166 26.5451 43.5901 26.1628 43.032C25.9687 42.7546 25.6605 42.3631 25.1289 41.8327C23.6581 40.417 21.9364 39.3517 19.8708 39.4123C17.3807 39.4653 15.8639 41.3828 15.899 42.9639C15.8953 43.6344 16.1456 43.987 16.2089 43.9605C16.3884 43.9161 16.0407 42.4491 17.5256 41.2773C17.6824 41.1459 17.8544 41.0329 18.0377 40.9383C17.2731 42.4772 18.8434 44.9787 21.0869 44.3974C22.5988 43.9989 23.1255 42.4037 22.5334 41.3855ZM19.1181 41.9176C19.0743 42.182 19.0726 42.428 19.2662 42.7681C18.6579 42.1614 18.4427 41.1092 18.9056 40.8431C19.1511 40.6712 19.3874 40.7874 19.4382 40.7258C19.4576 40.7036 19.4555 40.6479 19.4079 40.5798C19.8767 40.5484 19.8902 40.5711 19.9541 40.5744C19.3565 40.8312 19.064 41.3574 19.1181 41.9176ZM20.7625 42.2669C20.6976 42.3193 20.5029 42.3128 20.398 42.2447C20.079 42.049 20.2974 41.7975 20.4899 41.4774C20.5018 41.4785 20.5132 41.4742 20.5251 41.4752C20.71 41.4969 20.8419 41.5931 20.8852 41.6813C20.9852 41.8592 20.9241 42.1668 20.7625 42.2669Z" fill="white"/>
<path d="M66.5699 34.7387C66.4687 34.0692 65.9545 33.6247 65.1126 33.8102C65.5127 32.8434 64.654 31.9695 63.7483 32.5535C63.7569 31.6938 62.9496 31.365 62.2385 31.7057C61.7097 31.9895 61.5302 32.4367 61.4025 32.6974C61.3198 32.8915 61.276 33.0234 61.262 33.0905C60.6942 32.566 60.2237 32.1821 60.0107 32.1091C60.3656 31.83 60.7215 31.5525 61.0786 31.2763C62.6419 30.0667 63.4584 29.4724 63.8462 29.1274C64.0365 28.9625 64.1268 28.8608 64.1652 28.79C64.2463 28.8289 64.3112 28.8484 64.3366 28.8235C64.461 28.7045 63.7429 27.7507 63.3606 27.3516C62.6636 26.6232 62.5478 26.7049 62.4229 26.8244C62.3418 26.9023 62.2807 26.9796 62.437 27.2229C62.0509 27.4419 61.356 27.9107 60.068 28.8516C58.9443 26.9455 52.7334 18.6722 49.5722 14.6437C43.1212 6.42549 42.7432 6.39521 42.4723 6.6061C42.4485 6.31139 41.884 5.83013 38.5654 4.49234C37.4515 4.05164 35.6617 3.45574 34.1281 3.04748C32.5957 2.63652 31.3265 2.40292 31.2746 2.56622C31.2698 2.58244 31.2855 2.60407 31.3017 2.6257C31.0221 2.74575 30.9037 3.20159 31.8467 6.7721C32.082 7.66216 32.4751 8.95994 32.8785 10.1723C28.4536 8.76635 22.1372 10.4086 18.3439 14.5555C16.8693 16.128 15.5358 18.3656 14.8199 20.3463C13.5427 23.6362 13.0636 27.6074 13.3231 31.0973C13.4935 33.0251 13.726 33.595 13.8606 33.7583C13.2431 33.794 11.841 33.8838 11.2305 33.9843C11.2342 33.9195 11.2305 33.8838 11.2186 33.8811C11.2094 33.8784 11.1883 33.92 11.1596 33.9962C11.0212 34.0217 10.9422 34.0465 10.9433 34.0703C10.9433 34.0914 11.0034 34.1109 11.1142 34.1298C11.0353 34.3731 10.9222 34.7927 10.7962 35.3773C9.65528 40.444 9.84346 48.049 12.0616 53.4245C13.7741 57.3 16.4086 60.7715 20.1402 62.9188C19.4265 63.91 19.1063 66.1562 19.022 67.3772C18.8576 70.2161 19.0663 70.2345 19.42 70.3059C19.573 70.3383 19.7336 70.3329 19.8785 70.0296C20.13 70.0988 21.1293 69.9636 22.1004 70.3962C22.1669 70.4227 22.2394 70.4589 22.2324 70.4622C22.2594 70.4876 22.2805 70.5076 22.2875 70.533C22.3048 70.5925 22.2199 70.6287 22.1994 70.6233C22.2464 70.5692 22.1112 70.719 21.5705 70.9234C20.3457 71.3414 19.5119 71.1586 18.3834 70.7904C18.0005 70.6639 17.8832 70.752 17.7702 70.8888C17.6637 71.0164 17.5539 71.1549 17.9021 71.5334C18.5807 72.2542 20.3376 72.7636 22.0285 72.0606C22.5098 71.8481 22.7207 71.6761 22.9986 71.4674C23.6042 71.0072 23.6637 70.4103 23.3798 70.0431C22.9689 69.4337 20.9789 69.1109 19.9699 69.79C20.3717 68.4771 20.2516 65.6696 20.5166 63.1373C25.7629 65.9713 32.9758 66.0854 39.1538 62.3694C39.1835 63.0037 40.4375 68.1473 41.466 69.3331C41.7363 69.6359 41.8813 69.5754 42.0359 69.498C42.1906 69.4207 42.3225 69.3336 42.2706 68.9632C42.1451 67.9537 40.3639 63.1 39.3717 62.2391C45.136 58.6708 47.7397 52.9616 48.2139 46.2527C50.3287 46.3343 53.0227 46.1148 54.8033 44.9516C55.3279 44.6029 55.721 44.1816 56.0589 43.8182C56.7057 43.1045 60.3708 39.1116 60.5184 38.2681C61.6275 38.7088 62.9604 38.3481 64.0305 37.802C65.6052 39.5323 65.8345 39.409 66.0626 39.2095C66.2887 39.0159 66.4347 38.8088 65.0769 37.1412C65.8523 36.5529 66.7261 35.6974 66.5699 34.7387ZM62.3375 31.9284C62.8901 31.703 63.4785 31.9652 63.4027 32.5827C63.386 32.8326 63.2184 32.9996 63.094 33.2624C63.0096 33.429 62.9182 33.5815 62.9134 33.6669C62.5349 33.3771 62.1834 33.4128 61.7367 33.5371C61.5893 33.3952 61.4404 33.2548 61.2901 33.1159C61.4739 32.8834 61.7383 32.188 62.3375 31.9284ZM62.3532 33.8886C62.8404 33.9897 63.4065 35.201 62.364 35.4135C61.4231 35.5622 60.5466 35.3259 59.9918 35.3616C60.2243 34.7836 60.5887 34.3288 60.7753 34.0016C61.1744 34.0617 61.9373 33.7848 62.3532 33.8886ZM62.703 27.5609C62.7625 27.629 62.829 27.7015 62.9085 27.7842C63.2118 28.0902 63.5399 28.3705 63.8894 28.6224C63.7879 28.6633 63.6891 28.7106 63.5936 28.764C63.1389 29.0182 62.2731 29.5611 60.6942 30.7826C59.829 31.451 58.5188 32.5687 57.4773 33.5723C56.8495 34.1731 56.3196 34.7241 56.0065 35.0842C55.9665 34.9501 55.841 34.7408 55.5517 34.3796C55.3225 34.093 54.8612 33.6275 54.5541 33.4025C55.5031 32.8704 58.4382 30.8286 59.9052 29.7471C61.5577 28.5288 62.3413 27.9032 62.703 27.5609ZM31.9727 3.04316C32.4405 3.27567 33.1029 3.56767 33.8383 3.88401C35.2864 4.50207 37.0054 5.22126 38.1069 5.65764C41.7537 7.12683 42.223 7.12899 42.3885 6.86619C42.4977 7.38747 43.5824 9.04051 48.587 15.4169C51.7455 19.44 58.296 27.4262 59.8896 28.9825C59.7728 29.0679 59.6597 29.1501 59.5337 29.2431C58.8362 29.7579 57.8337 30.5258 56.8874 31.2709C55.0964 29.3497 35.3388 12.7749 34.3114 13.1658C34.3509 12.193 33.5571 8.34458 33.0569 6.45198C32.5459 4.51776 32.2161 3.53523 31.9722 3.04316H31.9727ZM14.1824 33.7118L14.1845 33.7242C14.5603 33.1846 13.693 26.6968 15.989 20.7919C16.6638 18.9188 17.8875 16.7996 19.1994 15.3288C21.3461 12.856 24.7328 10.9742 28.2584 10.4497C29.9979 10.1766 31.2498 10.2312 32.9612 10.421C33.4441 11.8524 33.9275 13.1096 34.1627 13.3513C34.0681 14.0175 40.8485 19.3605 42.6432 20.7919C42.8054 21.9496 43.178 23.0608 43.3607 28.4358C43.4375 30.8897 43.4689 32.1588 43.5851 32.8039C43.6516 33.2024 43.7365 33.3652 43.8323 33.4322C42.4885 33.4088 41.1445 33.3947 39.8005 33.3901C39.9773 32.2313 40.0855 29.3864 39.7167 26.6286C39.2279 23.2479 37.8884 19.8926 35.1891 17.7973C31.8851 15.2277 26.3734 15.3921 22.4433 19.2162C18.8533 22.9213 17.9102 28.7846 19.0663 33.3841C19.0826 33.4441 19.0966 33.489 19.1118 33.5431C17.2397 33.5961 15.5266 33.6658 14.1586 33.7415C14.1661 33.7307 14.1753 33.7269 14.1824 33.7118ZM39.1873 33.3874C32.5757 33.3565 25.964 33.356 19.3351 33.5366C18.7943 28.6148 19.5963 23.4475 23.1673 19.9597C26.8097 16.6206 31.6088 16.6011 34.4277 18.7911C39.3885 22.6261 38.8007 30.7258 39.1873 33.3874ZM38.7882 61.1295C32.0966 65.3062 23.2755 65.0407 17.6117 59.7436C15.5694 57.8532 13.9915 55.4701 12.8732 53.0736C10.634 47.9479 10.2706 40.9145 11.0444 35.4205C11.1223 34.8263 11.1867 34.3958 11.2153 34.1428C11.6057 34.1936 12.4012 34.2336 13.4956 34.2671C16.6817 34.3429 44.0058 35.0902 47.0507 34.1563C46.8701 34.9512 47.18 38.1578 47.2227 41.7126C47.3233 49.801 45.7005 56.7387 38.7882 61.1295ZM55.144 43.0017C54.3897 43.8761 53.7327 44.6094 51.3437 45.2188C50.1811 45.5167 49.0277 45.6854 48.2361 45.9006C48.5021 41.5206 47.7505 34.5218 47.3076 34.0189C47.3332 33.9828 47.3449 33.9387 47.3406 33.8946C47.3368 33.7215 47.2638 33.5669 45.5372 33.4858C45.0937 33.465 44.6499 33.4498 44.2059 33.4404C44.7553 33.0964 44.632 29.0355 44.6115 28.3888C44.5412 26.2945 44.127 23.3031 43.3488 21.3526C47.6845 24.7853 55.005 30.3749 56.7224 31.4007C55.7058 32.2042 54.7877 32.9569 54.4189 33.316C54.2653 33.2327 54.2134 33.2597 54.2799 33.4631C54.2221 33.5371 54.2366 33.549 54.3015 33.5274C54.4383 33.8702 54.8207 34.4694 55.0624 34.7711C55.4382 35.2399 55.6269 35.3876 55.7486 35.407C55.449 35.864 56.7835 34.7095 57.7704 33.9038C58.4717 33.3293 59.1788 32.762 59.8917 32.2021C59.9301 32.4303 60.2811 33.0045 60.7639 33.7021C60.559 33.7329 60.0361 34.3764 59.9042 34.5521C58.8697 35.9927 59.1655 37.324 59.9961 37.9739C59.066 38.4628 55.8362 42.2068 55.144 43.0017ZM59.8674 35.7288L59.8712 35.7163C60.2854 35.9478 61.7016 36.1943 62.504 36.0246H62.5094C62.855 36.4615 63.2265 36.8962 63.5974 37.3175C61.1306 38.5157 59.4121 37.5949 59.8674 35.7288ZM64.6778 36.661C64.2804 36.188 63.8711 35.7252 63.4503 35.2729C63.6342 34.803 63.4914 34.2915 63.1578 33.9005C63.2119 33.8897 63.1837 33.9016 63.2562 33.8578C63.652 33.4501 63.6715 33.2003 63.8818 33.0051C63.9678 32.9218 64.163 32.8407 64.2961 32.8374C64.7249 32.8126 64.8876 33.4133 64.4896 33.8432C64.348 33.9946 64.1446 34.0984 63.8786 34.2525C63.4757 34.5489 63.8316 35.0528 64.2604 34.8679C64.6729 34.6749 64.9309 34.3488 65.4413 34.3423C65.7442 34.3407 65.9323 34.4916 65.9783 34.8263C66.08 35.5146 65.2407 36.2376 64.6778 36.661Z" fill="white"/>
<path d="M44.5968 68.6853C44.2258 68.6453 43.9122 68.7486 43.5569 68.8562C43.067 69.0303 42.7707 68.9876 42.715 69.0746C42.6944 69.1179 42.7555 69.2098 42.9205 69.2909C43.3855 69.5289 44.0793 69.3315 44.4562 69.4764C44.5719 69.5126 44.7006 69.5851 44.7449 69.6403C44.7904 69.697 44.7904 69.7884 44.7201 69.8328C44.547 70.0085 44.1236 70.2151 43.9306 70.3021C43.1373 70.6574 42.1526 70.8369 41.0246 70.7147C39.9713 70.5871 39.6966 70.4151 39.5014 70.7904C39.4235 70.9397 39.351 71.0943 39.7523 71.3955C40.3406 71.8232 41.5854 72.158 43.02 71.886C44.0933 71.6826 45.8356 70.8412 45.7815 69.749C45.7653 69.4056 45.3749 68.7762 44.5968 68.6853ZM14.7587 61.5448L14.2915 61.0868C8.72187 55.8276 7.90535 49.7956 7.69662 49.8351C7.58631 49.8486 7.88156 52.7962 9.65897 56.1347C11.5835 59.7912 14.8933 62.5403 15.1799 62.1743C15.234 62.1061 15.2589 62.0256 14.7587 61.5448ZM7.51115 56.2391C7.14074 55.2993 6.92715 54.4979 6.83793 54.5141C6.75681 54.5271 6.81792 55.3696 7.09045 56.377C7.81126 59.1575 9.84985 61.713 10.2159 61.3896C10.5696 61.0771 8.82082 59.6722 7.51115 56.2391Z" fill="white"/>
<path d="M48.9259 19.3552C48.8583 19.4092 48.7804 19.4368 48.3257 18.9658C47.8628 18.5035 47.0452 17.5221 45.3289 15.7052C44.3891 14.7086 42.8739 13.175 41.5426 11.94C40.2173 10.699 39.0952 9.7381 39.1504 9.66672C39.2007 9.60129 40.4233 10.4421 41.8346 11.608C43.2508 12.7662 44.8325 14.2663 45.782 15.2737C47.5178 17.1106 48.29 18.1488 48.6691 18.6857C49.0384 19.2319 48.9935 19.3011 48.9259 19.3552ZM52.1368 23.1609C52.0562 23.1923 51.98 23.2123 51.8773 23.1139C51.7664 23.0209 51.6485 22.797 51.3284 22.4239C51.0969 22.1541 50.8371 21.9099 50.5535 21.6955C50.2588 21.4716 49.9744 21.3256 49.9949 21.2391C50.0128 21.158 50.3599 21.1537 50.7617 21.3051C51.1646 21.4484 51.5858 21.7609 51.7978 22.0102C52.1887 22.4655 52.2671 22.7808 52.2828 22.936C52.2893 23.0987 52.2174 23.1295 52.1368 23.1609Z" fill="white"/>
<path d="M64.5781 39.7503C64.8231 39.3691 65.0734 38.9824 65.4184 38.6888C65.7634 38.3957 66.2241 38.2043 66.6697 38.2854C67.1153 38.3671 67.205 38.864 67.4711 39.2301C67.6544 39.4826 67.2732 39.8033 66.687 40.1694C66.3388 40.3868 65.8964 40.5003 65.5071 40.37C65.1178 40.2397 64.8425 39.7433 65.0637 39.3977" fill="#00B852"/>
</svg>
