<svg width="74" height="73" viewBox="0 0 74 73" fill="none" xmlns="http://www.w3.org/2000/svg">
<path d="M24.7933 31.6204C28.3762 23.7072 37.3828 18.6253 46.0087 19.6494C46.4542 22.2201 47.3842 24.6827 48.7492 26.9062L57.574 8.5264C51.1292 8.11706 44.7929 6.66866 38.8103 4.23724L41.633 9.4143C41.2275 8.67024 35.3009 10.3774 34.545 10.611C32.1375 11.3591 29.8393 12.4218 27.71 13.7716C23.5571 16.4007 19.8287 20.201 17.7188 24.6794C19.3204 22.676 24.0362 30.2734 24.7933 31.6204Z" fill="#00B852"/>
<path d="M33.1419 13.2963C33.1814 13.3731 33.1917 13.4558 32.6315 13.8154C32.0853 14.1955 30.9308 14.8033 28.8912 16.3196C27.7729 17.148 26.0955 18.5636 24.8124 19.8955C23.5167 21.2149 22.5867 22.4034 22.5115 22.3483C22.4461 22.3034 23.255 21.0137 24.4863 19.5959C25.704 18.1667 27.3722 16.6651 28.5148 15.8199C30.5983 14.2707 31.8144 13.711 32.4217 13.4255C33.0441 13.1616 33.1025 13.2195 33.1419 13.2957V13.2963ZM38.1568 11.5962C38.2184 11.7579 38.2498 11.8958 37.3381 12.2451C36.839 12.4365 35.7169 12.7166 35.6553 12.5549C35.5931 12.3938 36.6151 11.852 37.1142 11.6605C38.0254 11.3112 38.0946 11.4351 38.1568 11.5962Z" fill="white"/>
<path d="M19.1852 22.5294C19.9693 21.5031 21.0454 20.0853 22.4318 18.7021C27.0984 13.9803 32.8487 10.8624 39.4522 9.44998C39.9783 9.33642 40.4006 9.22341 40.7473 9.16879C42.1278 8.90221 42.1781 8.73891 42.164 8.56641C42.1532 8.43825 42.1137 8.32145 41.4892 8.29063C41.1539 7.72177 40.3682 6.68679 38.9693 4.37729C38.2106 3.1271 37.857 2.46685 37.5861 2.16782C37.3265 1.86393 37.1751 1.90989 37.0172 1.97857C36.8588 2.04778 36.7204 2.1224 36.7809 2.53499C37.0102 3.84682 38.6465 6.62028 40.7629 8.28793C38.6384 8.33984 34.8959 9.14608 31.1772 10.9386C27.551 12.7739 24.5694 14.938 21.7829 18.0997C20.4403 19.6029 19.4469 21.1376 18.7775 22.2634C18.1443 23.4152 17.822 24.1587 17.8923 24.1965C17.9734 24.2414 18.4385 23.5801 19.1852 22.5294Z" fill="#DDDDDD"/>
<path d="M57.79 7.99215C54.6375 6.38344 46.4561 4.25238 42.7585 3.22552C39.945 2.46037 37.709 1.70982 37.6398 1.86555C37.5679 2.02615 39.7217 3.0806 42.4881 4.06799C47.0893 5.73888 57.1768 8.73999 57.472 8.81786C57.6753 8.87409 57.8332 8.90978 57.9695 8.93682C57.8425 9.11829 57.7284 9.30837 57.6278 9.50568C57.133 10.3995 56.2764 12.1829 54.3795 15.6344C52.6935 18.7367 49.9482 23.8034 49.1565 27.2014C48.4838 25.1033 46.455 20.6622 45.8418 20.4714C46.1224 20.3729 46.1446 20.2729 46.1435 20.1675C46.1413 19.995 46.0981 19.8398 44.8728 19.7749C44.5645 19.7484 44.1871 19.7727 43.7167 19.7992C35.8775 20.3227 28.4418 25.4911 25.3801 31.3213C25.338 31.2667 23.5616 28.3083 20.2588 25.7344C19.0746 24.7935 18.0201 24.1716 17.9174 24.3068C17.8038 24.442 18.6582 25.3072 19.6586 26.3833C20.3129 27.0808 21.0266 27.8757 21.6431 28.5787C19.1681 30.779 16.2578 34.6144 15.7274 37.9876C15.2012 41.3542 17.3658 44.1044 20.4102 45.2389C20.7563 45.3741 21.1186 45.4877 21.4863 45.585C20.4989 50.7902 24.429 54.5851 29.2837 55.3399C29.2026 56.1943 29.3 57.0757 29.6136 57.876C30.8616 61.174 34.516 62.6075 38.087 62.4831C37.6425 65.6362 40.735 68.0457 44.1325 67.1497C43.9735 68.3599 44.3758 69.4879 45.0788 70.1833C45.9678 71.0917 47.5018 71.493 48.772 70.8159C48.918 70.7186 48.9938 70.6645 48.9938 70.6483C48.9689 70.591 48.1037 71.2842 46.7226 70.8808C46.2414 70.7511 45.7006 70.4807 45.2572 70.0102C44.5959 69.3084 44.2731 68.2231 44.4894 67.0524C46.3814 66.4484 47.683 64.9987 47.75 64.9435C48.7136 63.9794 47.8625 63.1985 47.2201 63.4132C46.4766 63.636 45.3535 64.3887 44.7111 65.4464C44.4948 65.8141 44.338 66.1926 44.2406 66.5765C41.0616 67.5023 38.2081 65.2734 38.7413 62.4453C42.6346 62.1614 46.5074 60.0184 48.745 56.6377C49.581 55.3021 48.7326 53.2229 46.436 54.0476C45.1042 54.5634 42.9818 55.8196 41.2179 57.4867C40.1002 58.5465 38.7581 60.0336 38.3033 61.5801C33.7167 61.7785 29.9061 59.2873 30.2571 55.4589C32.7732 55.6768 35.3725 55.2696 37.8166 54.7181C42.6265 53.6491 46.727 51.352 49.6643 47.2991C52.2463 43.5604 50.3786 40.0067 46.9119 40.1127C43.9367 40.1424 37.1878 44.1953 34.0801 47.3154C32.3422 49.0392 30.2019 51.7186 29.5217 54.1341C25.3515 53.4901 21.8805 50.3624 22.7029 45.8499C23.1139 45.9202 23.5357 45.9743 23.9629 46.0068C26.4827 46.2014 29.2243 45.8391 32.0307 44.9253C34.8534 44.006 37.676 42.3946 40.3095 40.1938C50.8215 31.2391 45.7569 24.2095 33.9395 30.6497C29.9543 32.7965 26.142 36.1166 23.5086 40.5939C22.8111 41.7782 22.1514 43.0759 21.735 44.5359C18.5522 43.6994 16.2265 41.3499 16.6845 38.1228C17.1155 35.0595 19.6315 31.6506 21.8269 29.3519C21.9189 29.26 22.0054 29.1681 22.0919 29.0924C23.2977 30.4594 24.4263 31.8842 24.9038 32.3044C25.3039 32.6721 25.4445 32.6018 25.5851 32.4991C25.7257 32.4017 25.8446 32.299 25.6229 31.7907C25.5994 31.7376 25.5726 31.6859 25.5429 31.636C26.32 30.7092 27.4658 29.2049 29.1486 27.7038C36.5897 20.9732 44.3607 20.9261 45.7726 20.493C45.5352 20.8434 47.0741 25.231 47.2877 25.7668C48.4806 28.7382 48.8299 28.6717 49.1262 28.5289C49.3117 28.4403 49.4474 28.357 49.316 27.7665C49.4307 27.534 49.5745 27.2149 49.7519 26.8251C52.2896 21.2316 57.2049 14.082 58.447 9.84256C58.5897 9.31804 58.6222 9.04281 58.5989 8.88924C58.618 8.86483 58.6337 8.8379 58.6454 8.80921C58.7114 8.64969 58.7357 8.49125 57.79 7.99215ZM45.0247 65.6405C45.5746 64.7916 46.422 64.1697 47.1715 63.8885C47.5327 63.7203 47.889 64.2232 47.5067 64.532C47.411 64.612 46.2738 65.8644 44.6462 66.4516C44.7381 66.1758 44.8625 65.9001 45.0247 65.6405ZM41.6938 57.9944C43.3933 56.4312 45.4995 55.2026 46.6956 54.7608C48.2346 54.2017 48.5417 55.4924 48.0691 56.2154C46.163 59.0435 42.7947 61.1589 39.0063 61.5255C39.5416 60.2007 40.5636 59.0489 41.6938 57.9944ZM34.8101 48.0502C38.1957 44.7052 44.5775 41.2558 46.9389 41.2261C49.4723 41.1612 50.7858 43.6913 48.718 46.6389C45.9299 50.4527 42.0663 52.5411 37.5517 53.5441C35.299 54.0508 32.8061 54.4277 30.5166 54.2471C31.2169 52.069 33.2025 49.6454 34.8101 48.0502ZM24.5847 41.2315C26.9899 37.1575 30.349 34.0515 34.5452 31.7415C45.4449 25.7382 48.4395 31.6858 39.5416 39.274C37.0163 41.4045 34.3289 42.9456 31.6684 43.827C29.0026 44.7139 26.3854 45.0761 24.0494 44.9085C23.6817 44.8815 23.3194 44.8436 22.9625 44.7896C23.3356 43.5188 23.9304 42.3346 24.5847 41.2315Z" fill="#DDDDDD"/>
<path d="M57.7858 16.8695C57.6095 16.8046 57.5046 16.8446 56.2533 19.9733C54.5711 24.123 54.0471 25.3591 54.1444 25.4078C54.2212 25.4456 54.7365 24.5891 55.3021 23.4957C55.8574 22.4222 56.368 21.326 56.8324 20.2102C58.094 17.056 57.9345 16.9225 57.7858 16.8695ZM58.3622 20.487C58.1994 20.4286 58.0605 20.4005 57.7322 21.3198C57.5522 21.8243 57.298 22.9523 57.4608 23.0101C57.623 23.0685 58.1416 22.0346 58.3216 21.5306C58.6499 20.6114 58.525 20.5449 58.3622 20.487ZM51.3488 65.1917C51.1795 65.1554 51.0346 65.1646 50.6426 67.0042C50.4284 68.0122 50.1045 70.2038 50.2738 70.24C50.4425 70.2757 51.0406 68.142 51.2547 67.1346C51.6467 65.2955 51.5175 65.2274 51.3488 65.1917ZM53.8816 66.6463C53.734 66.5565 53.5993 66.5084 52.8812 67.6931C52.4876 68.342 51.7624 69.8074 51.9106 69.8972C52.0582 69.987 53.0224 68.6665 53.416 68.0176C54.1341 66.8334 54.0292 66.736 53.8816 66.6463ZM54.458 69.6917C53.8822 69.9437 52.7028 70.6126 52.772 70.771C52.8418 70.9295 54.1331 70.5169 54.7089 70.2649C55.7596 69.8053 55.7255 69.6674 55.6558 69.509C55.5866 69.3505 55.5087 69.2316 54.458 69.6917Z" fill="#DDDDDD"/>
</svg>
