<svg width="20" height="20" viewBox="0 0 20 20" fill="none" xmlns="http://www.w3.org/2000/svg">
<path d="M3.7474 18.3327V14.166M3.7474 5.83268V1.66602M1.66406 3.74935H5.83073M1.66406 16.2493H5.83073M10.8307 2.49935L9.38556 6.25673C9.15056 6.86776 9.03306 7.17327 8.85031 7.43026C8.6884 7.65802 8.4894 7.85701 8.26164 8.01896C8.00465 8.20168 7.69914 8.31919 7.08811 8.55418L3.33073 9.99935L7.08811 11.4445C7.69914 11.6795 8.00465 11.797 8.26164 11.9798C8.4894 12.1417 8.6884 12.3407 8.85031 12.5684C9.03306 12.8254 9.15056 13.1309 9.38556 13.7419L10.8307 17.4993L12.2759 13.7419C12.5109 13.1309 12.6284 12.8254 12.8111 12.5684C12.9731 12.3407 13.1721 12.1417 13.3998 11.9798C13.6568 11.797 13.9623 11.6795 14.5733 11.4445L18.3307 9.99935L14.5733 8.55418C13.9623 8.31919 13.6568 8.20168 13.3998 8.01896C13.1721 7.85701 12.9731 7.65802 12.8111 7.43026C12.6284 7.17327 12.5109 6.86776 12.2759 6.25673L10.8307 2.49935Z" stroke="black" stroke-width="2" stroke-linecap="round" stroke-linejoin="round"/>
</svg>
