<svg width="73" height="73" viewBox="0 0 73 73" fill="none" xmlns="http://www.w3.org/2000/svg">
<path d="M53.1203 12.3538C53.037 12.3294 52.9657 12.2943 52.984 12.0104C52.9878 11.7243 53.1171 11.1917 53.1717 10.1286C53.2036 9.54733 53.189 8.62699 53.0771 7.85319C52.9754 7.07885 52.8056 6.45537 52.89 6.42239C52.9657 6.39102 53.289 6.97124 53.5102 7.76234C53.7416 8.54912 53.8314 9.53381 53.7968 10.1557C53.7384 11.2939 53.5286 11.8514 53.4129 12.1213C53.2809 12.39 53.203 12.3776 53.1203 12.3538Z" fill="white"/>
<path d="M7.86406 29.8949C7.25843 30.2788 6.4019 30.6422 5.89739 30.1328C5.70326 29.937 5.62539 29.6569 5.56429 29.3876C5.2658 28.0726 5.31014 26.4568 6.40676 25.6706C7.26222 25.0568 8.5627 25.2434 9.27539 26.0194C9.98809 26.7953 10.0881 28.0379 9.58686 28.9642C9.08559 29.8905 8.05116 30.4761 6.99887 30.5243" fill="#00B852"/>
<path d="M31.6819 29.1892C30.8234 27.4991 30.4967 25.5887 30.7448 23.7093C30.8822 22.6873 31.2969 21.5642 32.2513 21.1733C33.2328 20.772 34.3992 21.3658 34.9756 22.2558C35.5515 23.1459 35.671 24.249 35.7272 25.3072C35.7743 26.213 35.7824 27.1457 35.4644 27.9947C35.1465 28.8437 34.4343 29.6007 33.5361 29.724C32.6374 29.8467 31.6419 29.1346 31.6744 28.2283M43.0651 29.644C42.2065 27.9541 41.8796 26.0439 42.1274 24.1646C42.2648 23.1426 42.6801 22.0195 43.6345 21.6286C44.6154 21.2273 45.7817 21.8211 46.3582 22.7111C46.9346 23.6012 47.0541 24.7043 47.1098 25.7625C47.1574 26.6683 47.1655 27.601 46.8475 28.45C46.5296 29.299 45.8174 30.056 44.9187 30.1793C44.0206 30.302 43.0245 29.5899 43.057 28.6836" fill="white"/>
<path d="M19.3281 3.20822C21.7758 3.61462 24.2743 3.60877 26.72 3.19092C26.3483 6.1203 26.261 9.0788 26.4594 12.025C28.876 12.4046 31.3569 12.4403 33.7848 12.1299L33.6875 3.19362L40.3548 3.27744L39.2014 11.9823C42.0133 11.9488 44.8224 11.7097 47.5926 11.2685C47.1224 9.02817 47.12 6.71485 47.5856 4.47355C50.6718 4.6864 53.7441 5.06692 56.789 5.61344L55.5594 13.657C55.4226 14.5524 55.2241 15.5463 54.4281 16.0833C53.8176 16.4942 53.006 16.5283 52.2484 16.5461L39.0322 16.8576C34.3304 16.9684 27.3603 17.7466 22.9971 15.7523C21.0461 14.8601 21.457 13.4499 21.1429 11.6357C20.6551 8.81462 19.9311 6.01034 19.3281 3.20822Z" fill="#00B852"/>
<path d="M69.5867 43.9276C68.4371 43.7172 67.2102 44.0974 66.5164 44.6079C66.1638 44.8761 66.2136 45.0269 66.2796 45.1864C66.5645 45.8737 67.8975 44.882 69.3428 45.1551C69.6781 45.2178 70.0988 45.3779 70.353 45.6893C70.632 46.0105 70.7536 46.5075 70.6017 46.8487C70.5022 47.1039 70.2226 47.2921 69.9636 47.3721C69.5743 47.1072 69.0746 46.9092 68.6031 46.9422C68.2073 46.9833 68.1884 47.1574 68.1711 47.3234C68.1246 47.755 68.4312 47.7831 68.98 48.1443C69.2125 48.2979 69.5186 48.539 69.6705 48.9078C69.7517 49.1063 69.8122 49.4286 69.7316 49.7254C69.5294 50.5041 68.6431 50.4987 68.1473 50.0299C67.8564 49.4988 67.5054 49.1387 67.2015 48.943C66.8841 48.7461 66.7587 48.8429 66.6283 48.9549C66.0649 49.4383 67.2194 50.211 67.2551 51.3303C67.2637 51.5899 67.2167 51.9106 67.0377 52.1252C66.7051 52.5724 65.8886 52.5794 65.4506 51.8916C65.3868 51.7959 65.3435 51.7083 65.3057 51.6353C65.4895 50.9178 65.3635 50.191 65.0732 49.5064C64.8082 48.9614 64.6465 48.997 64.4827 49.043C64.314 49.09 64.1815 49.1652 64.2155 49.727C64.2264 50.151 64.3848 51.133 63.9938 51.6218C63.8457 51.83 63.5234 52.0479 63.253 52.0533C63.0113 52.062 62.7101 51.9035 62.7815 51.1957C62.8329 50.6879 63.0146 50.264 63.491 48.9554C64.7785 45.3168 64.4681 45.1816 62.6798 48.6018C62.0493 49.8346 61.082 51.4055 61.8996 52.6011C62.5744 53.6642 64.2723 53.4852 65.0321 52.2626C65.3765 53.4711 66.9312 53.7734 67.8472 52.9461C68.383 52.4589 68.5831 51.7229 68.4798 50.9962C70.1707 51.9495 71.8367 49.6459 70.5173 47.8977C72.3039 47.3754 72.0401 44.4056 69.5867 43.9276ZM2.18123 21.9243C2.61274 22.2477 3.70774 22.7192 3.91485 22.4423C4.12249 22.1666 3.36383 21.2468 2.93232 20.9229C2.14446 20.3318 1.96007 20.5433 1.75242 20.8201C1.54478 21.097 1.39337 21.3327 2.18123 21.9243ZM5.57708 21.1765C5.91667 21.1132 6.03293 20.2129 5.95885 19.8176C5.82366 19.0957 5.54518 19.1325 5.2056 19.1957C4.86601 19.2595 4.59348 19.3266 4.72866 20.0479C4.80274 20.4438 5.23696 21.2403 5.57708 21.1765ZM7.95796 21.2013C8.29647 21.2711 8.77881 20.3189 8.87614 19.8495C9.05297 18.9913 8.78259 18.9167 8.44355 18.847C8.10559 18.7767 7.82711 18.7383 7.65028 19.5959C7.55295 20.0663 7.61892 21.1316 7.95796 21.2013ZM13.56 43.3241C13.1815 43.1862 12.9409 43.2976 12.9431 43.3712C12.9355 43.4653 13.1291 43.5388 13.3108 43.7427C13.4962 43.9308 13.6747 44.2672 13.6893 44.6365C13.7298 45.3487 13.0739 45.8613 12.3796 46.0435C11.5804 46.2436 10.8212 45.9911 10.3486 45.9748C9.99818 45.9559 9.91761 46.083 9.84731 46.2436C9.77864 46.3993 9.71754 46.5524 10.0247 46.7984C10.1799 46.9179 10.4275 47.0666 10.8455 47.1964C11.9638 47.5154 12.5775 47.258 12.7024 47.2526C11.9832 49.5253 10.0652 49.8968 8.68742 48.6028C8.16399 48.1021 8.12722 47.7431 7.68705 47.8361C7.52591 47.8696 7.34585 47.9053 7.38316 48.3719C7.53943 49.7276 9.53531 51.1254 11.3035 50.3565C12.7084 49.7741 13.4162 48.0989 12.9998 47.152C14.2798 46.6529 14.8665 45.4346 14.5572 44.4591C14.3766 43.8535 13.9342 43.4507 13.56 43.3241Z" fill="white"/>
<path d="M10.2338 50.6934C10.1927 50.7231 10.2879 50.8767 10.3117 51.1541C10.356 51.757 9.8607 52.4367 9.26264 52.6076C8.31959 52.8915 7.19701 52.288 6.40753 51.7067C5.12111 50.755 4.02016 49.2896 3.35938 47.7734C1.81935 44.3938 2.25086 38.3407 6.87257 38.7619C7.25001 38.8014 7.49821 38.8533 7.67557 38.8814C7.77344 40.5988 7.9189 42.36 8.0768 43.2847C7.8286 43.2593 7.58473 43.2214 7.34464 43.1765C5.56776 42.6217 5.43907 42.3178 5.38499 42.3005C5.36985 42.2897 5.34173 42.2151 5.31902 42.1751C5.07839 41.7798 5.06542 41.0747 5.45096 40.6556C5.73269 40.329 6.17718 40.1884 6.52325 40.1641C6.87203 40.1273 7.11807 40.1619 7.15159 40.0678C7.17809 40.0019 6.99316 39.805 6.57841 39.6801C6.18096 39.5487 5.47962 39.5341 4.86696 39.9905C4.24133 40.4285 3.93689 41.3315 4.06667 42.0956C4.24133 42.8602 4.37327 43.2404 5.31524 43.7362C7.11482 44.6117 10.2917 44.6679 11.5246 44.1958C12.6244 43.7876 13.2225 42.8007 13.1257 41.9442C13.0522 41.1699 12.7602 40.628 12.0307 40.3669C11.4402 40.1965 11.3796 40.3647 11.3061 40.5139C11.1152 40.9 11.6506 41.0839 11.8452 41.4089C11.9371 41.5835 11.9507 41.7993 11.9517 42.0113C11.9582 42.4574 11.5457 42.8472 11.072 43.0289C10.4085 43.2982 9.26264 43.3588 8.48398 43.3144C8.82519 40.9828 8.96956 32.982 8.51642 31.2657C12.5174 30.4475 12.7969 24.8514 8.99552 23.6131C7.86862 23.2443 6.68872 23.4595 6.71522 23.8424C5.1157 24.1381 3.77953 25.6068 3.75899 27.3318C3.71573 29.3044 5.19195 31.3689 7.69936 31.3495C7.57932 31.9291 7.51497 33.1415 7.55066 35.7089C7.55985 36.3697 7.59013 37.223 7.63502 38.1271C6.61139 37.5945 5.10922 37.5869 3.92391 38.2623C0.891979 39.9116 0.742193 45.0854 2.3125 48.2568C3.42751 50.5744 5.81002 53.0564 8.17738 53.3225C7.88267 54.6927 7.61987 60.019 7.59338 62.6919C7.53822 68.3183 7.81724 68.4416 8.16278 68.4486C8.50885 68.4551 8.79004 68.3426 8.84519 62.707C8.87115 60.0433 8.71487 54.7516 8.44937 53.3452C9.201 53.3625 9.84773 53.1164 10.2771 52.5059C10.6464 51.9895 10.6751 51.4282 10.5583 51.1016C10.4344 50.7691 10.2565 50.6701 10.2338 50.6934ZM5.36336 29.1562C3.94662 27.4367 4.67879 24.9557 6.98018 24.1338C7.47225 24.2706 8.64782 24.2971 9.66009 25.3002C10.9838 26.665 10.6156 29.1232 8.81383 29.9095C7.6707 30.4243 6.23828 30.2339 5.36336 29.1562Z" fill="white"/>
<path d="M21.1242 35.5364C11.7553 37.92 8.78176 38.5175 8.82069 38.7533C8.9045 39.2654 22.1207 37.1835 27.7082 34.8372C28.1246 34.6572 28.3409 34.5274 28.4512 34.4219C28.8784 38.4315 28.5994 41.3359 28.0029 44.6982C27.4211 47.6344 26.7349 49.3913 25.7762 51.7711C24.5946 54.3104 24.3216 54.8381 24.3362 55.1485C23.3142 55.0128 27.1377 56.6767 31.1609 57.5494C38.3159 59.136 45.5494 58.8926 51.7306 57.1833C52.2768 57.0276 52.7169 56.9022 53.0619 56.767C54.45 56.2533 54.457 56.0883 54.4068 55.9234C54.3743 55.8169 54.3175 55.7244 53.9039 55.7482C54.3694 55.3032 51.9826 51.8624 50.7589 45.5363C49.9262 40.7708 49.7467 36.4887 50.7649 31.297C52.3903 33.2707 57.0769 38.2001 59.5854 40.7021C65.2881 46.3896 65.6055 46.3101 65.8494 46.0657C66.0932 45.8213 66.1722 45.5033 60.469 39.8158C57.8761 37.2295 52.6829 32.3228 50.8508 30.8677C51.238 28.9761 51.623 27.7 51.5127 27.627C52.0589 27.4756 52.4768 27.1468 52.7196 26.744C53.0035 26.28 53.0792 25.7577 53.1339 25.3061C53.2755 24.0624 53.3556 22.8025 53.3756 21.6388C53.4026 19.4537 53.3826 18.3025 53.3134 17.6671C53.6571 17.6304 53.9993 17.5806 54.3392 17.5178C54.3986 17.6238 54.4819 17.6487 54.5717 17.6655C54.9113 17.7282 55.2043 17.6855 56.0349 13.2016C56.4902 10.7445 57.1916 5.42093 56.8514 5.35821C56.4113 5.27655 54.3283 14.2653 54.2526 16.8176C52.6959 16.6824 49.4795 16.8349 42.4191 16.8425C33.2784 16.8576 27.1475 16.5505 23.7646 16.4369L23.5105 15.9902L23.5251 16.4288C22.9986 16.4101 22.4718 16.3989 21.945 16.3953C22.0218 15.0499 21.5389 10.4341 21.1923 8.11328C20.83 5.68211 20.5748 4.42975 20.3682 3.78573C21.4145 4.0096 23.624 4.16804 24.8163 4.16966C26.5802 4.17128 27.2967 4.06908 27.5903 3.91172C27.3016 5.03647 27.0085 7.58227 26.9393 8.94764C26.7733 12.2132 27.0501 12.2954 27.3951 12.3127C27.7401 12.3305 28.0235 12.2764 28.1895 9.01091C28.2803 7.2216 28.1954 3.36774 27.8504 3.35044C27.8272 3.34881 27.8039 3.36666 27.7801 3.39856C27.7125 3.12441 27.3016 2.92055 24.8174 2.9173C23.5472 2.91622 21.1252 3.09088 20.1822 3.33638C20.0524 3.11467 19.9367 3.11359 19.8161 3.13144C19.4744 3.18281 19.2126 3.32772 19.9545 8.29767C20.2968 10.5931 21.1669 15.0759 21.6368 16.398C20.8662 16.4131 20.9987 16.5034 21.7384 16.6456C21.8271 16.8219 21.8774 16.8008 21.9099 16.6764C22.452 16.7706 22.9961 16.853 23.5418 16.9236C23.5526 17.2226 23.5862 17.9813 23.7473 17.7304C24.4951 20.9402 23.5132 24.7443 26.7495 26.8267C27.6006 29.6261 28.0419 31.0396 28.3933 33.9537C28.2625 33.9001 24.6736 34.635 21.1242 35.5364ZM27.2183 27.0927C27.7515 27.3501 28.3923 27.5015 29.3337 27.375C30.0145 27.2793 30.0421 27.1263 30.0496 26.9527C30.0767 26.3768 28.9233 26.5666 27.9975 26.1686C27.3897 25.9037 26.5197 25.1682 26.1412 24.4236C24.9948 22.2688 25.3582 19.3742 24.0761 16.9933C29.6365 17.6947 37.0468 18.1035 42.418 18.0943C47.5064 18.0889 50.5464 17.9158 52.3628 17.759C52.2422 18.422 52.1486 19.5954 52.1237 21.6177C52.1016 25.3759 52.1411 25.8707 51.9421 26.3206C51.5235 27.3696 49.6136 27.2777 49.6185 27.5372C49.619 27.6183 49.9548 27.7216 50.534 27.7432C50.8575 27.7533 51.1807 27.7157 51.4932 27.6319C51.3948 27.6794 51.0693 28.3662 50.6443 29.4942C50.5314 29.8233 50.4234 30.1541 50.3204 30.4864C50.1457 30.3918 50.1657 30.4794 50.2717 30.6481C48.7733 35.5656 48.6192 40.5869 49.5298 45.7726C50.0922 48.6818 50.7638 50.4679 51.736 52.7628C52.0394 53.3668 53.0284 55.4162 53.6027 55.7785C51.2818 56.0846 43.0004 58.592 31.3296 56.6815C28.4777 56.2268 25.6529 55.4346 24.8028 55.2399C25.4961 54.6316 26.391 52.932 26.7727 52.2383C27.7839 50.0407 28.5913 48.1681 29.2309 44.9404C29.9545 40.8795 30.0242 37.1311 29.1547 32.9171C28.7529 30.9023 27.9921 28.6728 27.2178 27.0933L27.2183 27.0927Z" fill="white"/>
<path d="M31.4768 28.9864C31.8483 30.0917 33.437 30.7698 34.8181 29.7997C35.4264 29.3779 35.9579 28.6533 36.1894 27.7373C36.529 26.4579 36.4089 23.9862 35.8752 22.6673C35.2117 21.0537 33.7636 20.3253 32.5648 20.5227C29.5399 21.0316 29.8411 26.7223 31.4768 28.9864ZM32.488 28.9621C32.4734 28.7355 32.4529 28.4511 32.4512 28.1288C32.7162 28.6733 33.2364 28.7485 33.278 28.5889C33.3083 28.5035 33.2088 28.3927 33.1645 28.2212C33.1115 28.0612 33.1034 27.8157 33.1969 27.6448C33.2926 27.475 33.4024 27.4664 33.5592 27.4729C33.7187 27.4837 33.8534 27.5826 33.8891 27.6302C33.9637 27.6989 33.9783 27.8681 33.9469 28.0033C33.8945 28.2759 33.756 28.4435 33.8853 28.7961C33.9069 28.8555 33.9339 28.9193 33.9756 28.9723C33.5003 29.2649 33.0179 29.3038 32.4885 28.9615L32.488 28.9621ZM32.587 26.8164C32.7751 26.0058 33.3656 25.2558 33.8745 25.9231C33.9864 26.068 34.0432 26.2064 34.0881 26.367C33.5354 26.221 32.9579 26.3497 32.587 26.8164ZM31.9759 21.9881C32.4101 21.5431 33.0196 21.4998 33.5776 21.7778C34.9278 22.4153 35.0684 24.2144 35.1203 25.7063C34.704 24.4912 33.4127 24.0689 32.5351 24.7183C31.5336 25.4278 31.3784 26.9516 31.7277 28.2331C31.5904 28.2142 31.5347 28.2472 31.4898 28.3132C31.425 28.0809 31.3659 27.847 31.3124 27.6118C30.9528 26.0588 30.8506 23.1031 31.9759 21.9881ZM42.8605 29.4417C42.9178 29.6131 43.0211 29.8094 43.2022 30.0208C44.5211 31.4668 46.969 30.5864 47.5725 28.1931C47.8148 27.2804 47.7818 26.2805 47.7045 25.2082C47.5563 23.4811 47.0339 21.8789 45.4387 21.1835C44.3951 20.7239 43.299 20.9445 42.6053 21.7302C41.9418 22.497 41.7601 23.4032 41.6817 24.2057C41.4859 26.4071 42.1559 28.4667 42.8605 29.4417ZM43.4034 28.1445C43.3104 27.9217 43.391 27.5902 43.4883 27.5464C43.5467 27.5123 43.6619 27.5637 43.7165 27.5962C43.9295 27.7151 44.0052 27.919 44.0636 28.1574L43.4683 27.8384L44.0523 29.0524C44.0054 28.9868 43.9553 28.9236 43.902 28.8631C43.7327 28.6674 43.4997 28.4137 43.4034 28.1445ZM42.5085 26.9646C42.4841 26.7526 42.4652 26.5325 42.4544 26.3038C42.5231 26.1091 42.6426 25.9182 42.8162 25.8225C43.0979 25.6484 43.544 25.6749 43.8744 25.8587C44.1913 26.0237 44.4162 26.3411 44.5649 26.6677C43.8565 26.0961 42.9065 26.2189 42.5085 26.9646ZM43.7111 29.2919C43.8636 29.3325 44.1529 29.3914 44.1399 29.2341L44.1534 29.2627C44.2021 29.3628 44.2837 29.4736 44.3827 29.565L44.32 29.5964C44.3254 29.6061 44.3308 29.611 44.3362 29.6201C44.1036 29.5647 43.8887 29.4519 43.7111 29.2919ZM45.2208 29.5098C45.29 29.439 45.349 29.3703 45.3895 29.3006C45.4516 29.3079 45.5146 29.2991 45.5723 29.2752C45.5128 29.3249 45.4474 29.3963 45.2208 29.5098ZM44.9613 22.2331C46.1347 22.7873 46.3748 24.2338 46.457 25.3088C46.557 26.6444 46.657 28.1699 45.7302 29.1264C45.913 28.8507 45.9887 28.3451 46.0157 28.0152C46.1833 25.1709 43.8679 24.0316 42.4809 24.9557C42.4998 24.7443 42.5242 24.5307 42.5598 24.3139C42.7951 22.8187 43.6121 21.5615 44.9613 22.2331ZM33.9458 35.8013C33.7652 35.8662 34.1319 37.3749 35.4815 38.5375C37.2909 40.1473 39.9427 40.4647 42.1575 39.1399C42.2911 40.4296 42.4338 41.7241 41.8666 42.9435C41.3799 44.0336 40.4861 44.7912 39.2473 44.7609C38.3204 44.7257 38.0209 44.2834 37.6856 44.6079C37.6218 44.6663 37.5629 44.7236 37.5629 44.8296C37.5629 44.935 37.6186 45.0988 37.8392 45.3157C39.1267 46.541 42.0218 46.0576 42.9389 43.3669C43.4721 41.8912 43.1536 40.0683 42.5128 38.9079C43.1455 38.4629 43.7322 37.8827 44.0582 37.1819C44.3216 36.5735 44.1653 36.4757 44.0204 36.3978C43.863 36.3118 43.7257 36.2826 43.3299 36.679C43.1271 36.8715 42.8529 37.1721 42.3825 37.5333C40.3098 39.0934 37.9273 39.1166 36.0212 37.8362C34.6256 36.9331 34.1286 35.7316 33.9458 35.8013ZM27.5391 12.6198C27.5575 12.9659 30.3802 13.0984 31.6888 13.0297C34.0767 12.9042 34.1124 12.622 34.094 12.277C34.0762 11.9314 34.0113 11.6546 31.6234 11.7795C30.3148 11.8482 27.5213 12.2753 27.5391 12.6203V12.6198ZM33.7869 9.71277C33.8372 10.8321 33.9047 11.7497 34.0783 11.766C34.2492 11.7822 34.4931 10.8873 34.6704 9.7636C34.8505 8.64102 34.9522 7.29242 34.9516 6.4348C34.9332 4.48273 34.791 3.72894 34.6077 3.44234C35.3226 3.73813 37.3628 4.03824 38.4248 4.09826C40.8073 4.23237 40.8727 3.95551 40.8922 3.60997C40.9117 3.26444 40.8776 2.98271 38.4951 2.84861C37.1892 2.77507 34.3714 2.89728 34.3519 3.24227C34.3514 3.25308 34.3611 3.2639 34.366 3.27471C34.3263 3.2703 34.2863 3.26958 34.2465 3.27255C33.8842 3.29094 33.6717 3.37042 33.6998 6.43264C33.7003 7.27241 33.7404 8.59344 33.7869 9.71277ZM39.6182 13.1292C39.9589 13.1843 40.2471 13.1595 40.7884 9.81714C41.0847 7.98619 41.4443 4.0112 41.1031 3.95551C40.7624 3.90089 39.8486 7.78611 39.5528 9.61706C39.0115 12.9594 39.2775 13.074 39.6182 13.1292Z" fill="white"/>
<path d="M39.3844 13.5423C39.4385 13.7532 40.5276 13.6353 44.3144 13.366C45.7154 13.2568 46.433 13.2027 46.8018 13.0843C47.1706 12.9735 47.1889 12.8172 47.1911 12.6442C47.1938 12.4711 47.1825 12.3148 46.8034 12.1991C46.4249 12.091 45.6732 12.0045 44.2122 12.1186C43.4119 12.1802 42.1633 12.403 41.1462 12.7096C40.1274 13.0113 39.3423 13.3769 39.3844 13.5423Z" fill="white"/>
<path d="M47.3107 12.622C47.7612 12.6431 48.4485 6.33964 48.1651 4.50977C49.3234 4.88613 51.5469 5.35008 52.7847 5.52853C55.9518 5.98437 56.0583 5.71671 56.1075 5.37442C56.1562 5.03213 56.1302 4.74554 52.9631 4.28969C51.621 4.09665 49.0719 3.89928 47.9596 3.97714C47.8861 3.91334 47.8023 3.90414 47.7136 3.89982C47.368 3.8836 47.0852 3.93767 46.9382 7.11506C46.8581 8.85625 46.9652 12.6063 47.3107 12.622ZM56.6753 58.4254C56.7337 57.8292 56.6273 57.2284 56.3676 56.6885C55.6895 55.2891 54.2998 55.2696 54.3025 55.6693C54.3031 55.7547 54.3377 55.8417 54.568 55.9283C54.6529 55.9813 54.8746 56.0851 55.0168 56.2181C55.5565 56.6702 55.8982 57.7138 55.5916 58.6541C55.4186 59.2295 54.7951 59.8838 53.8645 60.3072C52.9236 60.7538 51.6513 60.9815 50.1258 61.2237C42.7231 62.3971 35.316 62.3485 27.87 61.492C25.3177 61.2037 22.6465 60.4997 22.6443 57.9377C22.6459 57.0449 23.0282 56.3587 23.4246 56.0656C23.8183 55.7574 24.1324 55.7233 24.1194 55.6644C24.1238 55.6417 23.7907 55.5762 23.2813 55.8574C22.4069 56.3192 21.8316 57.8695 22.3323 59.3003C21.519 59.7859 20.2396 60.8577 19.4004 62.0916C17.8047 64.5179 18.5103 67.1741 21.9019 68.1571C22.8455 68.4361 23.8339 68.5697 24.8219 68.7087C32.5739 69.7831 40.5412 70.4547 48.3625 70.0562C50.1669 69.9616 54.0105 69.6869 55.6922 69.416C60.6616 68.594 62.3698 64.9451 61.0531 62.1673C59.9635 59.9811 57.2041 58.4362 56.6753 58.4254ZM55.4954 68.2058C53.9948 68.4378 50.0799 68.7125 48.3008 68.806C40.3914 69.2083 32.7924 68.693 24.9316 67.8305C20.7101 67.3617 17.6717 66.0309 19.8141 62.3485C20.6079 61.0204 21.5866 60.1931 22.375 59.4144C23.1629 61.3979 25.6546 62.0457 27.7505 62.369C38.621 64.0491 50.7352 63.1726 54.3658 61.3459C55.4938 60.7814 56.3265 59.9373 56.5882 58.9451C56.6017 58.8926 56.6088 58.8423 56.6196 58.7899C57.3361 59.6253 60.5281 61.4795 60.3891 64.1286C60.2377 66.4116 57.999 67.8121 55.4954 68.2058Z" fill="white"/>
<path d="M52.5623 12.171C52.3892 12.1591 52.2524 12.1137 52.3719 10.4055C52.4379 9.46945 52.7186 7.47033 52.891 7.48223C53.0635 7.49467 53.0619 9.51325 52.9965 10.4493C52.8764 12.1575 52.7342 12.1834 52.5623 12.171ZM52.4368 15.4208C52.2649 15.4025 52.127 15.3749 52.1903 14.7839C52.2249 14.4594 52.439 13.7797 52.6104 13.7975C52.7824 13.8165 52.8473 14.5265 52.8126 14.8504C52.7494 15.4419 52.6088 15.4392 52.4368 15.4208ZM8.57897 27.6767C8.49407 27.6892 8.41405 27.6924 8.34699 27.6443C8.27237 27.5989 8.22587 27.4999 8.075 27.3328C7.96227 27.2047 7.83191 27.0933 7.68783 27.0019C7.53102 26.9008 7.35636 26.8559 7.33743 26.7694C7.31688 26.6893 7.51047 26.5601 7.79436 26.5725C8.07446 26.5763 8.38701 26.7418 8.53085 26.904C8.79959 27.2003 8.80554 27.4431 8.77796 27.5443C8.74282 27.654 8.66441 27.6632 8.57897 27.6767Z" fill="white"/>
</svg>
