<svg width="67" height="67" viewBox="0 0 67 67" fill="none" xmlns="http://www.w3.org/2000/svg">
<g clip-path="url(#clip0_3308_410)">
<path d="M41.6827 0.936536L3.87109 47.769L4.19165 48.0285L42.0033 1.19607L41.6827 0.936536Z" fill="url(#paint0_linear_3308_410)"/>
<path d="M51.9907 5.51244L10.4922 56.9114L10.8127 57.1709L52.3113 5.77197L51.9907 5.51244Z" fill="url(#paint1_linear_3308_410)"/>
<path d="M65.3793 23.6195L30.9766 66.2298L31.2971 66.4893L65.6998 23.879L65.3793 23.6195Z" fill="url(#paint2_linear_3308_410)"/>
<path d="M28.0966 0.412723L0.511719 34.5786L0.83227 34.8381L28.4171 0.672257L28.0966 0.412723Z" fill="url(#paint3_linear_3308_410)"/>
<path d="M59.9568 12.9887L19.4531 63.1554L19.7737 63.4149L60.2773 13.2482L59.9568 12.9887Z" fill="url(#paint4_linear_3308_410)"/>
<path d="M66.0238 40.1715L47.2695 63.4001L47.5901 63.6596L66.3444 40.431L66.0238 40.1715Z" fill="url(#paint5_linear_3308_410)"/>
<path d="M18.5414 3.57973L1.60547 24.5561L1.92602 24.8156L18.8619 3.83927L18.5414 3.57973Z" fill="url(#paint6_linear_3308_410)"/>
<path d="M47.1553 2.83356L6.87109 52.7285L7.19164 52.988L47.4759 3.09309L47.1553 2.83356Z" fill="url(#paint7_linear_3308_410)"/>
<path d="M56.2649 8.89854L14.6953 60.3855L15.0159 60.645L56.5855 9.15807L56.2649 8.89854Z" fill="url(#paint8_linear_3308_410)"/>
<path d="M66.6783 30.6876L38.1445 66.0288L38.4651 66.2883L66.9989 30.9472L66.6783 30.6876Z" fill="url(#paint9_linear_3308_410)"/>
<path d="M35.4333 -0.000729963L1.63672 41.8588L1.95727 42.1183L35.7539 0.258804L35.4333 -0.000729963Z" fill="url(#paint10_linear_3308_410)"/>
<path d="M63.0442 17.8438L24.8438 65.1577L25.1643 65.4172L63.3647 18.1033L63.0442 17.8438Z" fill="url(#paint11_linear_3308_410)"/>
<path d="M28.4773 48.277C27.9587 48.3058 27.5266 48.0609 27.1808 47.5423C26.8351 47.0237 26.6766 46.5916 26.7054 46.2458C26.7343 45.7849 26.8639 45.1222 27.0944 44.2579C27.3249 43.3936 27.5842 42.5148 27.8723 41.6217C28.1604 40.7286 28.4197 40.0227 28.6502 39.5041C28.7654 39.0431 28.8663 38.6398 28.9527 38.2941C29.0679 37.9195 29.14 37.6746 29.1688 37.5594C29.2552 37.4441 29.3848 37.1416 29.5577 36.6518C29.7594 36.1621 29.9178 35.6867 30.0331 35.2257C30.0907 34.9952 30.206 34.5631 30.3788 33.9292C30.5805 33.2666 30.811 32.5031 31.0703 31.6388C31.3584 30.7744 31.6321 29.9245 31.8914 29.089C32.1795 28.2535 32.4244 27.5188 32.6261 26.885C32.8277 26.2511 32.9574 25.8334 33.015 25.6317C33.2455 25.286 33.4184 24.9546 33.5336 24.6377C33.6488 24.3208 33.7209 24.1047 33.7497 23.9895C33.9226 23.8742 34.0234 23.7302 34.0522 23.5573C34.081 23.3556 34.0954 23.1972 34.0954 23.0819C34.0954 22.9379 34.1386 22.8226 34.2251 22.7362C34.3403 22.6498 34.3979 22.5489 34.3979 22.4337C34.5132 22.3473 34.5852 22.3329 34.614 22.3905C34.6428 22.4481 34.7293 22.4049 34.8733 22.2608L35.0894 20.7915L38.9356 20.7483C38.878 21.094 38.7916 21.5262 38.6763 22.0448C38.5611 22.5345 38.2874 23.1972 37.8552 24.0327C37.7112 24.6089 37.5383 25.1275 37.3366 25.5885C37.1638 26.0495 37.0917 26.352 37.1206 26.496C37.0629 26.5536 36.9333 26.8418 36.7316 27.3604C36.5587 27.8789 36.3427 28.5128 36.0834 29.2619C35.8529 30.0109 35.608 30.76 35.3487 31.5091C35.1182 32.2582 34.9021 32.9208 34.7004 33.4971C34.5276 34.0445 34.4123 34.3902 34.3547 34.5342C34.1242 34.9952 33.8649 35.6723 33.5768 36.5654C33.2887 37.4585 32.8566 38.6686 32.2803 40.1956C32.0498 40.6565 31.7617 41.348 31.416 42.2699C31.0991 43.1919 30.8398 44.0274 30.6381 44.7765C30.3212 45.9001 30.0331 46.7068 29.7738 47.1966C29.5433 47.6864 29.3272 47.9745 29.1256 48.0609C28.9239 48.1762 28.7078 48.2482 28.4773 48.277ZM28.8663 22.8659C27.685 22.9811 26.8783 22.8371 26.4461 22.4337C26.0428 22.0304 25.8987 21.5982 26.014 21.1372C26.1004 20.7915 26.3021 20.5034 26.619 20.2729C26.9647 20.0136 27.5842 19.7975 28.4773 19.6246C28.7942 19.567 29.1976 19.495 29.6874 19.4086C30.206 19.3221 30.6957 19.2357 31.1567 19.1493C32.1075 19.034 32.8854 18.9332 33.4904 18.8468C34.1242 18.7603 34.7725 18.6883 35.4351 18.6307C36.0978 18.5731 36.9333 18.5154 37.9417 18.4578C38.7772 18.4002 39.483 18.357 40.0593 18.3282C40.6643 18.2705 40.9668 18.2417 40.9668 18.2417C41.0532 18.2417 41.3557 18.2705 41.8743 18.3282C42.3929 18.3858 42.9547 18.4578 43.5598 18.5442C44.1648 18.6307 44.6114 18.7315 44.8995 18.8468C45.5621 18.9908 46.0951 19.2501 46.4985 19.6246C46.9018 19.9992 47.1611 20.4314 47.2764 20.9211C47.3628 21.2669 47.3628 21.5406 47.2764 21.7422C47.1899 21.9151 47.0315 22.0592 46.801 22.1744C46.1383 22.3761 45.5909 22.5489 45.1588 22.693C44.7554 22.8082 44.3521 22.7938 43.9487 22.6498C43.8047 22.5057 43.6318 22.3761 43.4301 22.2608C43.2573 22.1456 42.9403 22.0592 42.4794 22.0015C42.0472 21.9151 41.3557 21.8431 40.405 21.7855C39.5983 21.8719 38.8924 21.9151 38.2874 21.9151C37.6824 21.9151 37.3798 21.9871 37.3798 22.1312L34.8301 22.2608L32.7125 22.4769C32.4244 22.5057 32.021 22.5489 31.5024 22.6066C30.9838 22.6354 30.4797 22.6786 29.9899 22.7362C29.5001 22.765 29.1256 22.8082 28.8663 22.8659Z" fill="#6BD476"/>
</g>
<defs>
<linearGradient id="paint0_linear_3308_410" x1="22.7769" y1="24.3528" x2="23.0978" y2="24.6119" gradientUnits="userSpaceOnUse">
<stop/>
<stop offset="1" stop-color="white" stop-opacity="0"/>
</linearGradient>
<linearGradient id="paint1_linear_3308_410" x1="31.2415" y1="31.2119" x2="31.5624" y2="31.471" gradientUnits="userSpaceOnUse">
<stop/>
<stop offset="1" stop-color="white" stop-opacity="0"/>
</linearGradient>
<linearGradient id="paint2_linear_3308_410" x1="48.1779" y1="44.9246" x2="48.4988" y2="45.1837" gradientUnits="userSpaceOnUse">
<stop/>
<stop offset="1" stop-color="white" stop-opacity="0"/>
</linearGradient>
<linearGradient id="paint3_linear_3308_410" x1="14.3042" y1="17.4957" x2="14.6251" y2="17.7547" gradientUnits="userSpaceOnUse">
<stop/>
<stop offset="1" stop-color="white" stop-opacity="0"/>
</linearGradient>
<linearGradient id="paint4_linear_3308_410" x1="39.705" y1="38.072" x2="40.0259" y2="38.3311" gradientUnits="userSpaceOnUse">
<stop/>
<stop offset="1" stop-color="white" stop-opacity="0"/>
</linearGradient>
<linearGradient id="paint5_linear_3308_410" x1="56.6467" y1="51.7858" x2="56.9676" y2="52.0449" gradientUnits="userSpaceOnUse">
<stop/>
<stop offset="1" stop-color="white" stop-opacity="0"/>
</linearGradient>
<linearGradient id="paint6_linear_3308_410" x1="10.0734" y1="14.0679" x2="10.3943" y2="14.327" gradientUnits="userSpaceOnUse">
<stop/>
<stop offset="1" stop-color="white" stop-opacity="0"/>
</linearGradient>
<linearGradient id="paint7_linear_3308_410" x1="27.0132" y1="27.781" x2="27.3341" y2="28.0401" gradientUnits="userSpaceOnUse">
<stop/>
<stop offset="1" stop-color="white" stop-opacity="0"/>
</linearGradient>
<linearGradient id="paint8_linear_3308_410" x1="35.4801" y1="34.642" x2="35.801" y2="34.9011" gradientUnits="userSpaceOnUse">
<stop/>
<stop offset="1" stop-color="white" stop-opacity="0"/>
</linearGradient>
<linearGradient id="paint9_linear_3308_410" x1="52.4114" y1="48.3582" x2="52.7323" y2="48.6173" gradientUnits="userSpaceOnUse">
<stop/>
<stop offset="1" stop-color="white" stop-opacity="0"/>
</linearGradient>
<linearGradient id="paint10_linear_3308_410" x1="18.535" y1="20.929" x2="18.8559" y2="21.1881" gradientUnits="userSpaceOnUse">
<stop/>
<stop offset="1" stop-color="white" stop-opacity="0"/>
</linearGradient>
<linearGradient id="paint11_linear_3308_410" x1="43.9439" y1="41.5007" x2="44.2649" y2="41.7598" gradientUnits="userSpaceOnUse">
<stop/>
<stop offset="1" stop-color="white" stop-opacity="0"/>
</linearGradient>
<clipPath id="clip0_3308_410">
<rect width="66.4865" height="66.4865" fill="white" transform="translate(0.511719)"/>
</clipPath>
</defs>
</svg>
