<svg width="150" height="151" viewBox="0 0 150 151" fill="none" xmlns="http://www.w3.org/2000/svg">
<g clip-path="url(#clip0_3172_1683)">
<path opacity="0.5" d="M27.9056 46.1519C21.2275 51.9143 17.2128 60.6167 17.1669 69.4171C17.1275 76.5646 19.5613 83.4834 20.4338 90.5851C21.2997 97.6803 20.1845 105.755 14.6347 110.296C10.6528 113.55 4.64384 114.843 2.62336 119.56C0.871844 123.644 3.09568 128.322 5.77216 131.869C17.2718 147.098 38.8477 153.913 57.0582 148.059C65.4157 145.374 72.8285 140.389 80.917 136.978C94.9488 131.066 111.027 130.112 125.669 134.313C132.072 136.149 139.301 138.853 144.988 135.404C150.669 131.954 151.601 123.925 149.797 117.548C147.986 111.172 144.155 105.507 142.397 99.1176C140.351 91.6892 141.223 83.81 142.115 76.1595C143.335 65.7192 144.549 55.279 145.769 44.8452C146.333 40.004 146.878 34.9668 145.257 30.3674C143.001 23.9712 136.729 19.5286 130.071 18.1108C116.905 15.3015 103.982 22.7168 92.3445 29.4592C81.4877 35.7443 70.5128 40.6247 57.7339 39.1939C47.0083 37.9918 36.4664 38.7692 27.9056 46.1519Z" fill="white" fill-opacity="0.18"/>
<path d="M85.3404 131.557C80.084 136.64 72.4596 136.663 65.2508 135.594C61.7018 135.065 56.5323 134.025 52.6331 131.112C52.482 130.999 52.4513 130.786 52.5639 130.635C53.2223 129.756 54.1739 133.252 65.3506 134.92C72.3609 135.958 79.8362 135.988 84.9269 131.007C82.7954 128.036 81.6493 123.954 83.3103 120.662C83.6472 119.999 84.3996 118.854 85.6567 118.639C87.7186 118.303 89.0998 120.674 89.2043 122.722C89.3587 125.667 88.1609 128.62 85.8258 131.068C90.25 136.648 96.7932 137.1 102.108 132.784C105.064 130.354 107.46 126.329 108.703 123.039C105.1 121.494 103.65 116.712 105.519 113.473C105.679 113.206 105.895 112.847 106.242 112.621C107.535 111.745 109.174 113.029 109.771 114.497C110.712 116.784 110.647 119.517 109.578 122.623C113.808 123.938 118.115 120.469 119.359 119.348C128.662 110.948 130.683 97.2538 124.515 86.5819C124.29 86.1942 124.876 85.847 125.105 86.241C131.462 97.2356 129.315 111.276 119.816 119.855C116.333 122.987 112.447 124.242 109.347 123.265C108.038 126.735 105.564 130.825 102.54 133.312C96.8245 137.952 89.8976 137.273 85.3404 131.557ZM85.4117 130.513C87.5643 128.218 88.6663 125.479 88.5238 122.757C88.4612 121.542 87.9105 120.317 87.1535 119.707C84.464 117.536 80.801 124.021 85.4117 130.513ZM106.62 113.189C106.414 113.323 106.272 113.544 106.107 113.819C104.55 116.517 105.507 120.772 108.935 122.396C109.946 119.452 110.016 116.884 109.14 114.755C108.73 113.746 107.521 112.577 106.62 113.189Z" fill="white"/>
<path d="M60.2369 52.2287C59.8201 50.6107 59.5365 48.9121 59.396 47.1803C59.3591 46.728 60.0418 46.6787 60.0751 47.1244C60.213 48.8183 60.4899 50.4782 60.8974 52.0582C60.944 52.2407 60.8348 52.4264 60.6524 52.4737C60.4717 52.52 60.2846 52.4124 60.2369 52.2287Z" fill="white"/>
<path d="M67.8644 95.8205C65.9441 95.8205 64.1171 95.0042 62.4332 93.3942C62.2973 93.2644 62.2927 93.0487 62.4225 92.9122C62.5537 92.777 62.7694 92.7717 62.9046 92.9015C64.4566 94.3863 66.1259 95.1387 67.8644 95.1387C74.098 95.1387 79.169 85.2717 79.169 73.1434C79.169 57.6553 71.0243 46.7102 63.4852 52.8706C63.34 52.9898 63.1256 52.9685 63.0058 52.8227C62.8866 52.6769 62.9079 52.4625 63.0537 52.3433C64.5765 51.0975 66.1951 50.4663 67.8644 50.4663C74.4735 50.4663 79.8508 60.639 79.8508 73.1434C79.8508 85.6479 74.4735 95.8205 67.8644 95.8205Z" fill="white"/>
<path d="M74.3614 87.736C72.6362 87.214 70.927 86.5655 69.2804 85.8077C69.1093 85.7292 69.0347 85.5267 69.1133 85.3556C69.1919 85.1832 69.3949 85.1093 69.5654 85.1885C71.1841 85.9329 72.864 86.5708 74.5585 87.0835C74.739 87.1381 74.8408 87.3285 74.7862 87.5083C74.7308 87.6912 74.5377 87.79 74.3614 87.736Z" fill="white"/>
<path d="M71.1027 70.1406C70.9156 70.1233 70.7771 69.9575 70.7944 69.7697C70.8111 69.5826 70.9835 69.4534 71.1653 69.4614C72.6155 69.5933 74.0857 69.5853 75.5319 69.4395C75.713 69.4141 75.8868 69.556 75.9054 69.7437C75.9247 69.9308 75.7882 70.0986 75.6011 70.1173C74.144 70.2656 72.6262 70.2796 71.1027 70.1406Z" fill="white"/>
<path d="M67.5881 57.6107C67.5528 57.4263 67.6747 57.2479 67.8598 57.2126C68.9877 56.9988 70.0823 56.5381 71.0252 55.8816C71.3988 55.6228 71.7835 56.1838 71.4154 56.4409C70.394 57.152 69.2081 57.6507 67.9863 57.8824C67.7996 57.9174 67.6233 57.7948 67.5881 57.6107Z" fill="white"/>
<path d="M52.4141 51.8296H52.9459C52.7686 51.8296 52.5913 51.8432 52.4141 51.8569V51.8296Z" fill="#262626"/>
<path d="M71.7909 72.7479C71.7909 83.957 66.8682 93.0933 60.7046 93.6252L60.6909 93.6388C60.4645 93.6388 53.2284 93.6388 53.6545 93.6388V93.6252C59.7772 92.9979 64.6318 83.9024 64.6318 72.7479C64.6318 61.2115 59.4228 51.857 53 51.8297C57.7797 51.8263 60.434 51.8166 60.5955 51.857C66.8136 52.2934 71.7909 61.4842 71.7909 72.7479Z" fill="#262626"/>
<path d="M52.9989 51.8296C52.7744 51.8296 52.6593 51.8379 52.4125 51.8569C46.2352 52.3751 41.3125 61.5388 41.3125 72.7478C41.3125 84.3114 46.5352 93.666 52.9716 93.666C53.2035 93.666 53.4352 93.6524 53.6534 93.6251C59.7761 92.9978 64.6306 83.9023 64.6306 72.7478C64.6306 61.2114 59.4216 51.8569 52.9989 51.8296ZM48.008 59.9705C48.117 59.8206 48.3353 59.7933 48.4852 59.9024C48.6352 60.0114 48.6625 60.2296 48.5534 60.3796C47.2579 62.0978 46.2898 64.7433 45.8261 67.8251C45.7988 67.9887 45.6489 68.1114 45.4852 68.1114H45.4307C45.2534 68.0705 45.117 67.9069 45.1443 67.716C45.6352 64.5387 46.6444 61.7842 48.008 59.9705ZM51.8534 86.3978C47.9807 86.3978 44.8307 79.9478 44.8307 72.0251C44.8307 71.8478 44.9807 71.6842 45.1716 71.6842C45.3625 71.6842 45.5125 71.8478 45.5125 72.0251C45.5125 79.5796 48.3489 85.716 51.8534 85.716C52.0307 85.716 52.1943 85.866 52.1943 86.0569C52.1943 86.2478 52.0307 86.3978 51.8534 86.3978ZM53.9398 85.7569C53.8853 85.7978 53.8307 85.8115 53.7625 85.8115C53.6534 85.8115 53.5444 85.7569 53.4761 85.6478C53.3806 85.4978 53.4216 85.2796 53.5852 85.1842C55.208 84.1478 56.6125 81.6933 57.417 78.4478C57.4716 78.2705 57.6488 78.1615 57.8398 78.2024C58.017 78.2569 58.1262 78.4341 58.0852 78.6251C57.2261 82.0342 55.7261 84.6388 53.9398 85.7569ZM58.167 72.0251C58.167 64.4842 55.3307 58.3478 51.8534 58.3478C51.4015 58.3478 51.401 57.666 51.8534 57.666C55.767 57.666 58.8488 63.9796 58.8488 72.0251C58.8488 72.477 58.167 72.4775 58.167 72.0251Z" fill="#FFF5A8"/>
<path d="M64.6266 73.0942C64.4382 73.0942 64.2857 72.9418 64.2857 72.7533C64.2857 61.4074 59.2094 52.1769 52.9698 52.1769C52.7814 52.1769 52.6289 52.0245 52.6289 51.836C52.6289 51.6476 52.7814 51.4951 52.9698 51.4951C59.5856 51.4951 64.9676 61.0312 64.9676 72.7533C64.9676 72.9418 64.8151 73.0942 64.6266 73.0942Z" fill="white"/>
<path d="M52.9697 94.0119C46.3546 94.0119 40.9727 84.4751 40.9727 72.753C40.9727 72.5646 41.1251 72.4121 41.3136 72.4121C41.502 72.4121 41.6545 72.5646 41.6545 72.753C41.6545 84.0996 46.7302 93.3301 52.9697 93.3301C53.1582 93.3301 53.3106 93.4826 53.3106 93.671C53.3106 93.8594 53.1582 94.0119 52.9697 94.0119Z" fill="white"/>
<path d="M140.287 76.2116C139.932 86.5207 134.314 94.8935 127.755 94.8935C124.987 94.8935 122.477 93.4072 120.555 90.898C125.194 83.1295 126.068 69.6906 122.327 60.6799C124.277 58.7026 126.582 57.5435 129.023 57.5435C135.596 57.5435 140.627 65.9026 140.287 76.2116Z" fill="#FFF5A8"/>
<path d="M127.753 95.2346C126.646 95.2346 125.627 95.0033 124.641 94.6108C124.466 94.5408 124.381 94.3424 124.45 94.168C124.52 93.9929 124.717 93.9083 124.893 93.9769C125.848 94.3574 126.791 94.5528 127.753 94.5528C134.127 94.5528 139.596 86.3197 139.945 76.1997C140.154 69.8682 138.325 64.0681 135.053 60.6856C133.28 58.8532 131.194 57.8845 129.021 57.8845C128.833 57.8845 128.681 57.732 128.681 57.5435C128.681 57.3551 128.833 57.2026 129.021 57.2026C131.383 57.2026 133.638 58.2427 135.543 60.2116C138.941 63.7239 140.841 69.7097 140.626 76.223C140.265 86.7059 134.491 95.2346 127.753 95.2346Z" fill="white"/>
<path d="M119.777 54.765C119.591 54.765 119.438 54.6152 119.436 54.4281C119.416 52.7648 119.221 51.0976 118.856 49.4723C118.815 49.2885 118.93 49.106 119.114 49.0648C119.303 49.0275 119.48 49.1393 119.522 49.3231C119.897 50.9944 120.098 52.7089 120.118 54.4201C120.12 54.6079 119.97 54.763 119.781 54.765H119.777Z" fill="white"/>
<path d="M134.084 74.8476C133.648 87.393 126.83 97.5794 118.839 97.5794C117.093 97.5794 115.443 97.0885 113.93 96.2022C119.589 95.5476 124.334 86.234 124.648 74.8476C124.948 63.6385 120.843 54.434 115.334 53.5476C116.93 52.634 118.634 52.1431 120.393 52.1431C128.384 52.1431 134.507 62.3157 134.084 74.8476Z" fill="#262626"/>
<path d="M134.083 75.1886C134.079 75.1886 134.076 75.1886 134.072 75.1886C133.883 75.1819 133.736 75.0241 133.742 74.8363C133.963 68.2439 132.347 62.023 129.306 57.7689C125.412 52.2822 120.044 51.2438 115.502 53.8431C115.34 53.9364 115.131 53.8811 115.038 53.7166C114.944 53.5535 115 53.3451 115.164 53.2519C119.943 50.5135 125.717 51.5335 129.862 57.3734C132.987 61.746 134.65 68.1194 134.424 74.859C134.417 75.0434 134.266 75.1886 134.083 75.1886Z" fill="white"/>
<path d="M108.257 94.2014C104.631 90.474 102.52 83.0546 102.747 74.8382C103.065 62.8651 108.314 53.1245 114.447 53.1245C118.357 53.1245 121.116 56.9262 122.643 60.5466C124.3 64.537 125.133 69.6187 124.988 74.8568C124.816 81.0451 123.308 86.9557 120.849 91.0726C116.814 97.7681 111.736 97.7797 108.257 94.2014ZM114.447 53.8063C108.68 53.8063 103.737 63.2492 103.429 74.8568C103.207 82.8955 105.243 90.1258 108.746 93.726C112.762 97.8574 117.258 95.7096 120.264 90.7217C124.826 83.0844 125.727 69.7502 122.014 60.8096C120.609 57.4784 118.05 53.8063 114.447 53.8063Z" fill="white"/>
<path d="M117.128 75.5128C116.997 81.9082 114.922 87.1008 112.493 87.1008C110.064 87.1008 108.2 81.9082 108.331 75.5128C108.461 69.1174 110.536 63.9321 112.965 63.9321C115.395 63.9321 117.258 69.1174 117.128 75.5128Z" fill="white"/>
<path d="M123.939 49.5934C122.166 51.107 118.266 49.5388 116.357 49.1161C114.748 48.748 114.639 47.357 114.557 45.8979C113.984 36.3116 112.825 26.4524 106.43 18.7752C103.962 15.8297 101.153 14.057 97.58 12.8024C94.9618 11.8752 92.4118 11.6297 89.6845 11.3843C88.2799 11.2615 87.0391 11.2615 85.6208 11.4524C85.3345 11.4934 84.2981 11.5752 83.2891 11.6979C86.3299 10.6752 89.5618 10.2797 92.7663 10.4025C91.3481 10.3479 89.9436 10.2797 88.5254 10.2524C98.846 8.7436 109.724 11.4665 116.071 19.9888C116.848 21.0388 117.544 22.157 118.198 23.2888C120.203 26.807 122.016 30.7888 123.053 34.6752C123.789 37.4706 124.13 40.3752 124.28 43.2525C124.348 44.4388 124.375 45.6252 124.362 46.8115C124.348 47.657 124.662 48.9661 123.939 49.5934Z" fill="white"/>
<path d="M56.6575 47.0836C52.1472 46.7623 55.2214 38.3168 56.8373 34.1544C56.9405 33.8894 57.0257 33.6703 57.0863 33.5065C59.9994 25.8221 64.9625 15.2206 74.4054 11.8681C80.9986 9.53972 86.5768 9.80954 92.7786 10.0617C93.2311 10.0794 93.2037 10.7734 92.7519 10.7435C89.4454 10.6143 86.2946 11.0458 83.3962 12.0206C80.2339 13.1278 77.7672 14.5751 75.0566 17.5071C68.4136 24.6855 66.5932 34.6624 65.2981 44.2658C65.1729 45.2193 65.0304 46.3006 63.9351 46.9545C61.7931 48.2278 58.8108 47.2451 56.6575 47.0836ZM86.1515 10.5777C82.1535 10.6298 78.3145 11.211 74.6325 12.5107C65.4572 15.7686 60.5886 26.1903 57.7249 33.7456C56.4104 37.2747 52.8716 46.1328 56.7075 46.4031C58.8568 46.5665 61.7016 47.4884 63.5862 46.3685C64.3433 45.9171 64.4824 45.2386 64.6223 44.1759C65.932 34.4633 67.7783 24.3686 74.5559 17.0437C77.5231 13.8351 80.9423 11.638 86.1515 10.5777Z" fill="white"/>
<path d="M55.4262 114.434H50.7217C50.408 112.989 49.9035 111.611 49.2216 110.33L52.4126 107.152C53.0808 106.484 53.0808 105.393 52.4126 104.711L48.9217 101.234C48.2399 100.552 47.1625 100.552 46.4807 101.234L43.508 104.193C42.1853 103.375 40.7262 102.748 39.1853 102.325V98.2069C39.1853 97.2524 38.4217 96.4751 37.4671 96.4751H32.5308C31.5762 96.4751 30.7989 97.2524 30.7989 98.2069V102.325C29.2716 102.748 27.8262 103.375 26.5035 104.207L23.5171 101.234C22.849 100.552 21.7444 100.552 21.0763 101.234L17.5853 104.711C16.9171 105.393 16.9171 106.484 17.5853 107.152L20.7762 110.343C20.0944 111.611 19.5899 112.989 19.2763 114.434H14.558C13.6171 114.434 12.8398 115.211 12.8398 116.166V121.102C12.8398 122.057 13.6171 122.834 14.558 122.834H19.699C20.0944 124.089 20.6535 125.275 21.3353 126.38L17.5853 130.116C16.9171 130.784 16.9171 131.875 17.5853 132.557L21.0763 136.048C21.7444 136.716 22.849 136.716 23.5171 136.048L27.4581 132.093C28.508 132.652 29.6399 133.089 30.7989 133.416V139.061C30.7989 140.016 31.5762 140.793 32.5308 140.793H37.4671C38.4217 140.793 39.1853 140.016 39.1853 139.061V133.416C40.358 133.102 41.4762 132.652 42.5262 132.093L46.4807 136.048C47.1625 136.716 48.2399 136.716 48.9217 136.048L52.4126 132.557C53.0808 131.875 53.0808 130.784 52.4126 130.116L48.6626 126.38C49.3581 125.275 49.9171 124.089 50.3125 122.834H55.4262C56.3807 122.834 57.1444 122.057 57.1444 121.102V116.166C57.1444 115.211 56.3807 114.434 55.4262 114.434ZM23.4898 121.88C23.3735 121.957 23.1378 121.935 23.0263 121.757C21.4651 118.905 22.0505 115.632 23.1626 112.58C23.2307 112.402 23.4353 112.321 23.599 112.375C23.7762 112.443 23.8717 112.634 23.8035 112.811C21.1751 120.054 24.4295 121.41 23.4898 121.88ZM34.9989 126.598C30.1853 126.598 26.2717 122.684 26.2717 117.871C26.2717 113.057 30.1853 109.143 34.9989 109.143C39.8126 109.143 43.7262 113.057 43.7262 117.871C43.7262 122.684 39.8126 126.598 34.9989 126.598ZM47.2308 124.416C47.1898 124.552 47.0535 124.648 46.9035 124.648C46.8762 124.648 46.8353 124.634 46.7944 124.62C46.6171 124.566 46.5217 124.375 46.5898 124.198C48.7599 117.812 47.1369 111.949 43.4125 108.652C43.2762 108.53 43.2626 108.311 43.3853 108.161C43.508 108.025 43.7262 108.011 43.8626 108.134C47.8054 111.647 49.4914 117.789 47.2308 124.416Z" fill="#00B852"/>
<path d="M19.695 123.17H14.5633C13.4281 123.17 12.5039 122.241 12.5039 121.099V116.17C12.5039 115.028 13.4281 114.099 14.5633 114.099H19.0038C19.3001 112.82 19.7562 111.582 20.3621 110.409L17.3419 107.389C16.5449 106.592 16.5435 105.284 17.3399 104.473L20.8389 100.987C21.6099 100.203 22.9829 100.2 23.7572 100.989L26.5478 103.78C27.7642 103.042 29.0799 102.467 30.4656 102.068V98.2086C30.4656 97.0667 31.3897 96.1372 32.525 96.1372H37.4655C38.6008 96.1372 39.5249 97.0667 39.5249 98.2086V102.067C40.9132 102.467 42.2322 103.038 43.4534 103.769L46.2353 100.987C47.0223 100.199 48.3779 100.2 49.1636 100.987L52.6486 104.472C53.447 105.284 53.4456 106.592 52.6486 107.389L49.4619 110.575C49.3287 110.708 49.113 110.708 48.9798 110.575C48.8467 110.442 48.8467 110.226 48.9798 110.093L52.1665 106.906C52.6999 106.373 52.6992 105.496 52.1646 104.952L48.6816 101.469C48.1529 100.939 47.2473 100.938 46.7173 101.469L43.7457 104.441C43.6338 104.553 43.4587 104.575 43.3249 104.489C42.0232 103.68 40.6003 103.063 39.0948 102.655C38.9463 102.615 38.8431 102.48 38.8431 102.326V98.2086C38.8431 97.4422 38.2252 96.819 37.4655 96.819H32.525C31.7653 96.819 31.1474 97.4422 31.1474 98.2086V102.326C31.1474 102.48 31.0442 102.615 30.8957 102.655C29.3936 103.063 27.9753 103.683 26.6796 104.5C26.5444 104.585 26.3687 104.566 26.2568 104.453L23.2732 101.469C22.7512 100.938 21.8403 100.939 21.3223 101.467L17.8233 104.954C17.2913 105.496 17.2906 106.373 17.824 106.906L21.022 110.105C21.1285 110.212 21.1525 110.375 21.0812 110.507C20.4027 111.77 19.908 113.117 19.6111 114.511C19.5771 114.668 19.4386 114.781 19.2775 114.781H14.5633C13.8036 114.781 13.1857 115.404 13.1857 116.17V121.099C13.1857 121.865 13.8036 122.488 14.5633 122.488H19.695C19.8834 122.488 20.0359 122.641 20.0359 122.829C20.0359 123.018 19.8834 123.17 19.695 123.17Z" fill="white"/>
<path d="M30.4657 139.06V133.673C29.4357 133.373 28.4496 132.982 27.5287 132.508L23.7554 136.282C22.9844 137.067 21.6121 137.07 20.8364 136.28L17.3427 132.797C17.2089 132.664 17.2089 132.449 17.3414 132.315C17.4746 132.181 17.6916 132.182 17.8235 132.314L21.3198 135.799C21.8445 136.332 22.7547 136.33 23.2714 135.802L27.2238 131.849C27.6054 131.465 27.9264 132.269 30.8972 133.086C31.045 133.128 31.1476 133.262 31.1476 133.415V139.06C31.1476 139.827 31.7654 140.45 32.5252 140.45C32.7136 140.45 32.8661 140.602 32.8661 140.791C32.8661 141.621 30.4657 140.954 30.4657 139.06Z" fill="white"/>
<path d="M46.2359 136.282L42.4626 132.509C41.4279 133.042 40.3559 133.458 39.2719 133.745C39.0882 133.797 38.9037 133.685 38.8551 133.503C38.8072 133.321 38.9151 133.135 39.0975 133.086C42.0128 132.312 42.3733 131.453 42.7676 131.85L46.718 135.8C47.248 136.33 48.1536 136.329 48.6822 135.8L52.1672 132.315C52.6999 131.773 52.7012 130.897 52.1672 130.363L48.4199 126.616C48.3074 126.503 48.2874 126.327 48.3726 126.193C49.0618 125.1 49.6031 123.934 49.9833 122.727C50.0279 122.585 50.1591 122.489 50.3082 122.489H55.4278C56.1876 122.489 56.8055 121.865 56.8055 121.099V116.171C56.8055 115.404 56.1876 114.781 55.4278 114.781C55.2394 114.781 55.0869 114.628 55.0869 114.44C55.0869 113.61 57.4873 114.277 57.4873 116.171V121.099C57.4873 122.241 56.5631 123.17 55.4278 123.17H50.5559C50.1924 124.264 49.701 125.322 49.0931 126.325L52.6493 129.881C53.4463 130.678 53.4476 131.985 52.6513 132.795L49.1643 136.282C48.3524 137.095 47.0519 137.098 46.2359 136.282Z" fill="white"/>
<path d="M34.9977 126.939C29.9973 126.939 25.9297 122.871 25.9297 117.871C25.9297 112.871 29.9973 108.802 34.9977 108.802C39.9982 108.802 44.0665 112.871 44.0665 117.871C44.0665 122.871 39.9982 126.939 34.9977 126.939ZM34.9977 109.484C30.3735 109.484 26.6115 113.247 26.6115 117.871C26.6115 122.495 30.3735 126.257 34.9977 126.257C39.622 126.257 43.3846 122.495 43.3846 117.871C43.3846 113.247 39.622 109.484 34.9977 109.484Z" fill="white"/>
<path d="M60.5177 38.4594C60.3326 38.4234 60.2121 38.2443 60.2487 38.0599C61.2901 32.7298 63.0832 27.5809 65.5788 22.7549C65.666 22.5878 65.8737 22.5219 66.0382 22.6084C66.2053 22.695 66.2712 22.9007 66.1847 23.0679C63.7184 27.8366 61.9466 32.9243 60.9172 38.1904C60.8804 38.3824 60.6926 38.4965 60.5177 38.4594Z" fill="white"/>
<path d="M39.4926 122.608C39.3335 122.507 39.2855 122.297 39.3861 122.138C41.2856 119.124 41.3099 116.484 38.9746 114.044C36.8679 111.846 34.5567 111.797 32.8335 113.134C30.578 114.884 30.0727 118.76 32.767 120.377C34.7119 121.547 37.2205 120.686 37.7208 118.964C37.9878 118.046 37.4864 116.966 36.6694 116.699C36.0995 116.511 35.4163 116.712 35.0395 117.173C34.6619 117.634 34.6007 118.346 34.8937 118.865C34.9862 119.028 34.9283 119.237 34.7645 119.329C34.5994 119.421 34.3923 119.363 34.2997 119.2C33.8669 118.433 33.9542 117.422 34.5121 116.741C35.0694 116.059 36.0442 115.774 36.8812 116.05C38.0471 116.432 38.7449 117.882 38.376 119.154C37.7376 121.347 34.7096 122.341 32.4154 120.962C28.0552 118.342 30.8612 111.015 35.8738 111.59C37.4465 111.771 38.6956 112.767 39.4673 113.572C42.0565 116.277 41.9998 119.271 39.9627 122.501C39.8622 122.661 39.6505 122.708 39.4926 122.608Z" fill="white"/>
<path d="M20.2266 95.7158C18.3389 93.5132 15.7415 91.9425 12.9137 91.2933C11.5986 90.9924 10.6205 91.0183 9.83884 91.3786C9.66905 91.4565 9.4653 91.3812 9.38673 91.2114C9.30816 91.0403 9.38274 90.8379 9.55386 90.7593C10.4794 90.3325 11.5953 90.2912 13.0662 90.6288C16.0358 91.3106 18.7624 92.9593 20.7446 95.2724C20.8671 95.4155 20.8505 95.6306 20.7073 95.7531C20.5686 95.873 20.3527 95.8618 20.2266 95.7158Z" fill="white"/>
<path d="M22.0073 90.5203C21.4034 89.4464 20.5811 88.4669 19.6289 87.6865C19.4831 87.5674 19.4618 87.3523 19.581 87.2071C19.7002 87.062 19.9146 87.0393 20.0604 87.1592C21.0931 88.0041 21.9474 89.0229 22.6012 90.1861C22.6938 90.3506 22.6352 90.5583 22.4714 90.6502C22.3107 90.7417 22.1011 90.6869 22.0073 90.5203Z" fill="white"/>
<path d="M28.1213 92.0365C21.1723 85.8779 24.8413 77.7472 28.4895 78.1491C28.6766 78.1684 28.8131 78.3362 28.7931 78.5233C28.7738 78.7104 28.6013 78.8416 28.4189 78.8269C25.5431 78.5064 22.0187 85.7141 28.574 91.5265C28.7145 91.651 28.7278 91.8667 28.6027 92.0079C28.4788 92.1477 28.2628 92.1622 28.1213 92.0365Z" fill="white"/>
<path d="M37.5052 62.3007C37.5006 62.3007 37.4959 62.3007 37.4913 62.3007C37.3028 62.2928 37.157 62.1336 37.1643 61.9459C37.4034 56.2423 39.4968 50.6439 43.0597 46.1828C43.1775 46.037 43.3919 46.013 43.5391 46.1295C43.6855 46.2467 43.7102 46.4618 43.5923 46.6083C40.1193 50.9575 38.0785 56.4141 37.8461 61.9738C37.8382 62.1576 37.687 62.3007 37.5052 62.3007Z" fill="white"/>
<path d="M31.9907 54.6874C32.3143 51.6779 33.387 48.7641 35.0935 46.2619C35.2001 46.1055 35.4138 46.0675 35.5669 46.172C35.7228 46.2779 35.7627 46.4903 35.6568 46.6455C34.0135 49.0558 32.9802 51.8616 32.6686 54.7607C32.6204 55.2116 31.9426 55.1387 31.9907 54.6874Z" fill="white"/>
<path d="M68.3473 86.6125C72.3377 78.4347 72.4409 69.6057 68.6622 59.6214C68.5957 59.4457 68.6842 59.2486 68.8607 59.182C69.0358 59.1174 69.2335 59.204 69.3001 59.3804C73.1487 69.5504 73.0375 78.5559 68.9599 86.9121C68.7621 87.3144 68.1499 87.0186 68.3473 86.6125Z" fill="white"/>
<path d="M135.664 55.7851C136.436 54.5659 136.988 53.2329 137.305 51.824C137.499 50.9618 137.438 50.3738 137.118 50.0263C136.788 49.668 136.216 49.6347 135.794 49.7593C135.263 49.9171 134.809 50.3006 134.435 50.6555C133.951 51.1055 133.764 51.2685 133.585 51.6309C133.151 52.5034 132.461 52.5331 132.108 52.1916C131.973 52.0577 131.914 51.8933 131.877 51.7648C131.676 51.057 131.817 50.3132 131.964 49.7446C132.397 48.0609 133.531 45.5842 133.229 45.2708C133.15 45.1896 132.934 45.2016 132.68 45.2975C130.848 45.9923 129.81 47.8421 128.902 49.5129C128.813 49.6774 128.605 49.7379 128.44 49.6494C128.275 49.5595 128.213 49.3524 128.303 49.1866C129.305 47.3445 130.404 45.4312 132.439 44.6603C133.422 44.2859 134.198 44.7763 133.892 45.9766C133.375 48.0298 132.158 50.2642 132.533 51.5783C132.619 51.8777 132.817 51.6437 132.974 51.3273C133.21 50.8572 133.41 50.6772 133.966 50.1601C134.398 49.7499 134.931 49.3045 135.599 49.1054C136.362 48.8804 137.154 49.0595 137.618 49.5642C138.102 50.0882 138.217 50.8765 137.97 51.9732C137.636 53.4593 137.054 54.8642 136.241 56.15C136.002 56.5243 135.422 56.1689 135.664 55.7851Z" fill="white"/>
<path d="M104.619 98.5002C99.1249 93.6969 96.3497 85.9405 97.5495 78.7415C97.5808 78.5551 97.7613 78.4305 97.9417 78.4612C98.1275 78.4918 98.2533 78.6676 98.222 78.8534C97.0601 85.8253 99.7475 93.3353 105.068 97.9875C105.21 98.1114 105.225 98.3265 105.1 98.4683C104.977 98.6099 104.761 98.6247 104.619 98.5002Z" fill="white"/>
<path d="M93.6687 94.4329C93.0102 92.8721 92.6173 91.2235 92.5008 89.5329C92.4881 89.3452 92.63 89.1827 92.8177 89.1694C93.0048 89.1554 93.168 89.2986 93.1813 89.4863C93.2925 91.1017 93.668 92.6764 94.2972 94.1678C94.3705 94.341 94.2892 94.5414 94.1154 94.6146C93.9389 94.6879 93.7413 94.6042 93.6687 94.4329Z" fill="white"/>
</g>
<defs>
<clipPath id="clip0_3172_1683">
<rect width="150" height="150" fill="white" transform="translate(0 0.5)"/>
</clipPath>
</defs>
</svg>
