<svg width="31" height="31" viewBox="0 0 31 31" fill="none" xmlns="http://www.w3.org/2000/svg">
<path d="M12.1667 16.6667H2.16667C1.52614 16.6667 1 16.1405 1 15.5V2.16667C1 1.52614 1.52614 1 2.16667 1H12.1667C12.8072 1 13.3333 1.52614 13.3333 2.16667V15.5C13.3333 16.1405 12.8072 16.6667 12.1667 16.6667ZM12.1667 30H2.16667C1.52614 30 1 29.4739 1 28.8333V22.1667C1 21.5261 1.52614 21 2.16667 21H12.1667C12.8072 21 13.3333 21.5261 13.3333 22.1667V28.8333C13.3333 29.4739 12.8072 30 12.1667 30ZM28.8333 30H18.8333C18.1928 30 17.6667 29.4739 17.6667 28.8333V15.5C17.6667 14.8595 18.1928 14.3333 18.8333 14.3333H28.8333C29.4739 14.3333 30 14.8595 30 15.5V28.8333C30 29.4739 29.4739 30 28.8333 30ZM17.6667 8.83333V2.16667C17.6667 1.52614 18.1928 1 18.8333 1H28.8333C29.4739 1 30 1.52614 30 2.16667V8.83333C30 9.47386 29.4739 10 28.8333 10H18.8333C18.1928 10 17.6667 9.47386 17.6667 8.83333Z" fill="url(#paint0_linear_1150_9745)" fill-opacity="0.35" stroke="white"/>
<defs>
<linearGradient id="paint0_linear_1150_9745" x1="15.5" y1="0.5" x2="15.5" y2="30.5" gradientUnits="userSpaceOnUse">
<stop stop-color="white" stop-opacity="0"/>
<stop offset="1" stop-color="white"/>
</linearGradient>
</defs>
</svg>
