<svg width="32" height="32" viewBox="0 0 32 32" fill="none" xmlns="http://www.w3.org/2000/svg">
<path d="M30.5017 15.3611C31.4137 13.9201 31.0357 12.0211 29.6427 11.0401C29.2667 10.7751 29.0747 10.3121 29.1537 9.85907C29.4457 8.17706 28.3707 6.56807 26.7057 6.19607C26.2577 6.09507 25.9027 5.74107 25.8027 5.29307C25.4307 3.62807 23.8187 2.55607 22.1387 2.84507C21.6877 2.92407 21.2237 2.73207 20.9587 2.35607C19.9787 0.962065 18.0787 0.582065 16.6377 1.49707C16.2487 1.74307 15.7467 1.74307 15.3607 1.49707C13.9187 0.582065 12.0197 0.963065 11.0397 2.35607C10.7747 2.73107 10.3127 2.92207 9.85872 2.84507C8.17972 2.55507 6.56772 3.62707 6.19572 5.29307C6.09472 5.74107 5.74072 6.09607 5.29272 6.19607C3.62772 6.56807 2.55272 8.17706 2.84472 9.86006C2.92372 10.3121 2.73172 10.7751 2.35572 11.0401C0.961719 12.0211 0.584719 13.9201 1.49672 15.3611C1.74272 15.7491 1.74272 16.2511 1.49672 16.6381C0.584719 18.0791 0.962719 19.9781 2.35572 20.9591C2.73172 21.2241 2.92372 21.6871 2.84472 22.1401C2.55272 23.8221 3.62772 25.4311 5.29272 25.8031C5.74072 25.9041 6.09572 26.2581 6.19572 26.7061C6.56772 28.3721 8.18272 29.4471 9.85972 29.1541C10.3087 29.0761 10.7737 29.2661 11.0397 29.6431C12.0207 31.0371 13.9187 31.4161 15.3607 30.5021C15.7497 30.2561 16.2517 30.2561 16.6377 30.5021C17.1677 30.8381 17.7607 30.9991 18.3457 30.9991C19.3517 30.9991 20.3387 30.5231 20.9587 29.6431C21.2237 29.2671 21.6807 29.0721 22.1397 29.1541C23.8187 29.4441 25.4307 28.3721 25.8027 26.7061C25.9037 26.2581 26.2577 25.9031 26.7057 25.8031C28.3707 25.4311 29.4457 23.8221 29.1537 22.1391C29.0747 21.6871 29.2667 21.2241 29.6427 20.9591C31.0367 19.9781 31.4137 18.0791 30.5017 16.6381C30.2557 16.2501 30.2557 15.7481 30.5017 15.3611ZM28.8127 17.7091C29.1537 18.2481 29.0117 18.9581 28.4907 19.3251C27.4857 20.0331 26.9717 21.2721 27.1827 22.4821C27.2917 23.1111 26.8897 23.7121 26.2677 23.8521C25.0687 24.1211 24.1197 25.0701 23.8507 26.2691C23.7107 26.8921 23.0987 27.2921 22.4817 27.1841C21.2717 26.9751 20.0327 27.4881 19.3237 28.4921C18.9557 29.0141 18.2457 29.1541 17.7077 28.8141C17.1877 28.4851 16.5937 28.3211 15.9987 28.3211C15.4037 28.3211 14.8097 28.4851 14.2897 28.8141C13.7517 29.1541 13.0417 29.0141 12.6737 28.4921C11.9657 27.4861 10.7197 26.9731 9.51672 27.1841C8.88272 27.2911 8.28672 26.8911 8.14672 26.2691C7.87772 25.0701 6.92872 24.1211 5.72972 23.8521C5.10772 23.7121 4.70572 23.1111 4.81472 22.4831C5.02572 21.2721 4.51172 20.0331 3.50672 19.3251C2.98572 18.9581 2.84372 18.2481 3.18472 17.7091C3.84272 16.6711 3.84272 15.3291 3.18472 14.2911C2.84372 13.7521 2.98572 13.0421 3.50672 12.6751C4.51172 11.9671 5.02572 10.7281 4.81472 9.51806C4.70572 8.88906 5.10772 8.28806 5.72972 8.14807C6.92872 7.87907 7.87772 6.93007 8.14672 5.73107C8.28672 5.10807 8.89972 4.70906 9.51572 4.81607C10.7297 5.02807 11.9657 4.51306 12.6737 3.50806C13.0417 2.98606 13.7517 2.84607 14.2897 3.18607C15.3287 3.84407 16.6687 3.84407 17.7077 3.18607C18.2457 2.84607 18.9557 2.98606 19.3237 3.50806C20.0317 4.51306 21.2727 5.02606 22.4807 4.81607C23.1177 4.71206 23.7117 5.11007 23.8507 5.73107C24.1197 6.93007 25.0687 7.87907 26.2677 8.14807C26.8897 8.28806 27.2917 8.88906 27.1827 9.51707C26.9717 10.7281 27.4857 11.9671 28.4907 12.6751C29.0117 13.0421 29.1537 13.7521 28.8127 14.2911C28.1547 15.3291 28.1547 16.6711 28.8127 17.7091ZM23.7267 11.3141C24.1047 11.7161 24.0857 12.3491 23.6837 12.7281L15.1837 20.7281C14.9917 20.9091 14.7457 20.9991 14.4977 20.9991C14.2607 20.9991 14.0227 20.9151 13.8337 20.7461L9.33372 16.7461C8.92072 16.3801 8.88372 15.7471 9.25072 15.3351C9.61672 14.9211 10.2487 14.8831 10.6617 15.2521L14.4777 18.6441L22.3117 11.2711C22.7137 10.8931 23.3467 10.9121 23.7267 11.3141Z" fill="white"/>
</svg>
