<svg width="74" height="74" viewBox="0 0 74 74" fill="none" xmlns="http://www.w3.org/2000/svg">
<path d="M22.7131 32.0488C22.5391 32.1741 22.4655 32.4389 22.5518 32.6525C22.715 33.1243 22.8876 34.4341 23.3439 34.6533C23.7309 34.8392 24.1207 34.3653 24.4613 34.1801C26.1657 37.1841 28.9708 39.1991 32.2094 38.5392C35.8466 37.798 38.4847 33.6445 37.7811 29.4413C37.5948 28.3278 37.6963 27.205 38.2662 26.3751C40.0115 23.8339 42.3957 26.3543 44.4947 26.8267C46.532 27.2852 48.6412 27.0949 50.3632 26.2038C52.0964 25.3069 53.411 23.7122 53.6685 21.7433C53.8365 20.4587 53.5053 19.0366 52.7427 17.8444C52.3734 17.2672 51.7753 16.81 51.4835 16.2275C51.1416 15.5449 51.4776 15.416 51.8456 15.0806C51.9983 14.9415 51.9699 14.6875 51.7827 14.5316C51.2939 14.1248 50.7935 13.7183 50.3154 13.3197C50.162 13.1918 49.9468 13.1715 49.8024 13.2685C46.29 15.6282 43.0047 17.9955 39.3717 20.4385C39.1824 20.5659 39.0606 20.7678 38.9995 20.9961C38.7136 22.0652 37.933 23.03 37.0301 23.6072C36.1457 24.1725 35.0481 24.3731 33.9999 24.1753C33.7227 24.123 33.4374 24.1734 33.2172 24.3462C29.6419 27.1515 26.9672 28.9856 22.7131 32.0488Z" fill="#00B852"/>
<path d="M29.1934 30.8901C29.3602 30.9352 29.4871 31.0026 29.0887 32.4744C28.8704 33.2808 28.2667 34.9749 28.0998 34.9297C27.933 34.8846 28.2663 33.1173 28.4846 32.3108C28.883 30.8391 29.0266 30.8449 29.1934 30.8901ZM31.254 31.6523C31.4242 31.6821 31.558 31.7303 31.3562 32.8835C31.2456 33.5154 30.8702 34.8472 30.7 34.8174C30.5297 34.7876 30.6291 33.4074 30.7397 32.7756C30.9415 31.6224 31.0837 31.6225 31.254 31.6523ZM46.4526 18.3346C46.6224 18.3667 46.7543 18.4234 46.4763 19.8954C46.324 20.702 45.8594 22.407 45.6896 22.3749C45.5198 22.3429 45.709 20.5859 45.8613 19.7793C46.1393 18.3073 46.2828 18.3025 46.4526 18.3346ZM48.4347 19.5399C48.6027 19.5807 48.7325 19.6397 48.4319 20.8772C48.2672 21.5553 47.7776 22.9775 47.6097 22.9367C47.4417 22.8959 47.6591 21.4076 47.8238 20.7295C48.1244 19.492 48.2668 19.4991 48.4347 19.5399Z" fill="white"/>
<path d="M62.4212 31.1855C62.0139 31.7381 61.2526 33.0071 61.3918 33.1097C61.5309 33.2122 62.5177 32.1094 62.925 31.5568C63.6683 30.5483 63.5711 30.4441 63.4319 30.3415C63.2928 30.239 63.1645 30.1769 62.4212 31.1855ZM66.3771 32.3651C66.2865 32.2179 66.1968 32.1086 65.4211 32.586C64.996 32.8475 64.1572 33.5282 64.2478 33.6754C64.3384 33.8226 65.3241 33.3805 65.7491 33.119C66.5249 32.6416 66.4677 32.5123 66.3771 32.3651ZM67.0981 35.861C66.6077 35.8652 65.5564 36.0143 65.5579 36.1871C65.5594 36.36 66.6131 36.4911 67.1035 36.4869C67.9985 36.4792 68.016 36.339 68.0145 36.1662C68.0131 35.9933 67.9932 35.8534 67.0981 35.861Z" fill="white"/>
<path d="M70.0979 9.2991C69.9837 8.32888 69.1971 7.48365 68.2449 7.71701C68.093 7.75685 67.9158 7.83652 67.7882 7.99415C67.6087 7.52586 67.0075 7.255 66.4667 7.52219C66.8492 6.88305 67.7125 5.23753 67.7937 4.49329C67.8163 4.2787 67.8151 4.01724 67.6879 3.74964C67.448 3.23836 66.8494 2.96809 66.123 3.2497C65.3763 3.53263 64.8082 4.25264 64.1615 5.18948C64.2863 4.31627 64.4248 3.82378 64.1845 3.15458C64.0627 2.80807 63.6548 2.45852 63.2049 2.47472C62.7588 2.48882 62.4534 2.71186 62.2079 2.92091C61.7879 3.29636 60.8196 4.51097 60.0684 5.95366C59.4902 7.08673 58.9797 8.33033 58.8534 9.67782C58.5543 12.8692 61.003 14.5949 64.1771 14.62C63.6843 14.9017 63.2379 15.1087 62.6806 15.2028C62.3736 15.2519 61.9639 15.2718 61.5535 15.1708C60.6949 14.9723 60.1357 14.2936 60.0174 13.5821C59.9634 13.3043 59.9891 13.1174 59.9413 13.1058C59.907 13.0944 59.7944 13.2683 59.7741 13.5942C59.7116 14.3334 60.2052 15.2637 61.2261 15.6584C61.1665 15.7415 61.0896 15.8974 60.978 16.1939C59.4466 20.3293 58.8407 21.8398 54.8953 27.1099C54.4455 26.3268 54.6066 26.5409 53.1792 24.5423C53.0494 24.3909 52.9142 24.2341 52.7791 24.0718C52.5844 24.3638 52.3681 24.6342 52.1247 24.8883C52.2112 24.9857 52.2978 25.083 52.3789 25.1749C53.9328 27.2769 53.5584 26.7652 54.0916 27.6313C52.734 30.0899 51.7463 31.7667 49.7413 34.0339C48.7602 31.44 47.3203 29.0659 45.5764 27.008C45.2952 26.9756 45.014 26.9324 44.7328 26.8728C46.6756 29.0933 48.2751 31.719 49.2751 34.5517C47.0001 37.0244 44.3922 39.0973 41.5437 40.7773C40.5546 37.9659 39.2686 35.1078 37.7032 32.5723C37.6545 32.8318 37.5842 33.0806 37.5085 33.3293C38.6839 35.3921 39.8608 37.805 40.9965 41.0963C37.0986 43.3157 33.2084 44.6619 28.9421 45.5184C27.2179 42.4346 25.9932 38.8022 25.2121 35.3463C24.9417 34.9786 24.693 34.5892 24.4604 34.1783C24.4735 34.2379 24.944 37.1994 26.1476 40.6834C26.7089 42.2826 27.4857 44.1399 28.3076 45.6458C25.1217 46.2403 21.8589 46.4967 18.605 46.4548C16.7473 42.7734 15.8045 39.2355 16.0023 33.6805C18.3523 33.9717 20.6513 33.935 22.8112 33.6375C22.7625 33.4753 22.7193 33.3077 22.6814 33.1563C20.7198 33.4628 18.3891 33.5689 16.0161 33.3515C16.1994 29.2104 16.9363 25.6604 19.1403 21.9658C20.636 20.6972 22.2306 19.6654 23.8494 18.8645C23.9468 18.8158 24.0387 18.7726 24.136 18.7239C24.109 18.8807 24.0765 19.1024 24.0333 19.3836C23.9413 19.9838 23.8494 20.8652 23.7683 21.9521C23.5482 25.2367 23.6632 28.4835 24.0008 31.1177C24.1414 31.0203 24.282 30.923 24.4172 30.8203C24.0645 28.0013 23.9011 25.3789 24.0116 21.9684C24.0549 20.8815 24.1036 20.0001 24.1576 19.3944C24.1793 19.1186 24.1955 18.8969 24.2009 18.7347C24.255 18.7726 24.3145 18.8158 24.3739 18.8645C24.8606 19.2214 25.5527 19.7621 26.3963 20.438C27.8833 21.6493 29.8246 23.358 31.7496 25.4778C31.8632 25.3966 31.9767 25.3047 32.0957 25.2182C30.095 23.1039 28.0888 21.4168 26.5477 20.2434C25.6771 19.5945 24.9579 19.0862 24.4496 18.7617C24.3902 18.7239 24.3361 18.6915 24.2874 18.6536C25.277 18.1885 26.2719 17.8046 27.2615 17.491C31.2209 18.2562 34.8799 19.4644 38.3899 21.5898C38.4927 21.6493 38.59 21.7142 38.6927 21.7737C38.7576 21.6439 38.8225 21.5087 38.8766 21.3681C36.0273 19.5881 31.9805 18.0556 27.5805 17.3937C32.2606 15.9972 37.6642 16.0767 42.7807 18.102C43.1647 17.8425 43.5432 17.5775 43.9163 17.318C37.2672 14.3886 29.8537 14.5249 23.2979 17.7506C17.4585 20.6295 12.9866 25.6523 10.7797 32.4101C9.3812 37.8957 9.08972 43.132 11.7747 49.3731C16.594 60.5753 29.7813 66.9259 42.2472 62.4094C42.406 62.3961 42.4301 62.3688 42.4344 62.3385C48.8486 59.9633 53.7527 54.9655 56.1641 49.2055C57.4194 46.2475 58.069 42.7368 57.9649 39.6253C59.1661 39.3789 60.3488 39.2676 61.5745 39.4671C61.6721 39.5068 61.7821 39.5495 61.9286 39.5317C62.3998 39.628 62.6442 39.6979 62.7205 39.5171C62.7541 39.4376 62.7766 39.3623 62.5003 39.1946C62.4463 39.1665 62.3755 39.1321 62.2945 39.0959C62.3253 38.7417 61.7861 38.4032 60.9726 37.3021C60.3464 36.4613 59.8258 35.5219 59.6251 34.4979C59.6499 34.4276 59.6884 34.3118 59.7037 34.2266C60.7789 34.1591 62.0301 35.8896 62.4029 36.8145C63.118 38.4855 62.3013 39.0247 62.6114 39.2442C62.6774 39.2922 62.7555 39.3429 62.9927 39.037C64.2291 37.0655 61.3046 33.5198 59.7137 34.0204C59.6903 33.8916 59.5498 33.856 59.4721 33.8932C59.2332 33.5673 59.3856 34.4105 57.8199 36.0535C57.7289 33.8486 56.8899 30.5793 55.0153 27.3189C57.5294 24.7475 59.8248 21.4046 60.976 17.8598C61.2116 17.1466 61.3361 16.6542 61.4028 16.3179C61.4613 16.0199 61.479 15.8491 61.475 15.7447C61.9531 15.8808 62.4243 15.8776 62.7789 15.8209C63.786 15.6492 64.6927 15.0178 64.973 14.5884C66.0792 14.4813 67.1995 14.1051 67.8422 13.1931C68.1102 12.82 68.1539 12.5624 68.1358 12.5573C68.1027 12.5414 68.0071 12.7727 67.715 13.0899C66.7051 14.2084 64.9828 14.3323 63.5139 14.136C62.5174 13.9998 61.4113 13.642 60.5726 12.8876C58.2006 10.735 60.2202 6.53396 62.2028 4.10632C62.4012 3.86756 62.8658 3.26121 63.2047 3.27818C63.6529 3.31554 63.481 4.26284 63.4118 4.69851C63.3239 5.25982 63.2661 5.9234 62.9752 6.97158C62.8845 7.1987 62.8421 7.31887 62.961 7.54341C63.081 7.7308 63.3089 7.7906 63.5026 7.69945C63.7115 7.59321 63.8043 7.35047 63.9193 7.12693C64.447 6.18268 64.8211 5.53996 65.4394 4.78185C65.602 4.58557 65.7628 4.38993 65.908 4.26335C66.2508 3.9683 66.8143 3.67764 67.0384 4.0684C67.2402 4.4276 66.8537 5.27533 66.6985 5.68108C65.9999 7.46388 65.5297 8.24078 65.7383 8.35653C65.8005 8.39139 65.8964 8.4068 66.2379 7.88956C66.7213 7.57754 67.2048 7.74556 67.3546 8.08003C67.3761 8.12481 67.3845 8.27234 67.4802 8.45129C67.6212 8.65211 67.8005 8.67908 67.9975 8.54443C68.1136 8.44736 68.1477 8.34878 68.1667 8.33597C68.2034 8.27039 68.4914 8.20881 68.6659 8.27023C69.1282 8.40119 69.3497 8.91068 69.3962 9.3895C69.4346 9.92331 69.3815 10.5355 69.2039 10.946C68.9673 11.5416 68.27 11.9271 67.865 11.482C67.865 11.482 67.8605 11.4818 67.8439 11.4509C67.8539 11.2441 67.8562 11.136 67.855 11.0307C67.8217 10.9765 67.7942 10.5864 67.3274 10.6264C67.3027 10.6726 66.9922 10.6617 66.9228 11.0935C66.9094 11.2991 66.8434 11.3294 66.7844 11.3863C66.4463 11.6784 66.0517 11.585 65.7982 11.2213C66.1671 10.9143 66.4337 10.6019 66.5687 10.1284C66.6428 9.87136 66.6384 9.47746 66.4165 9.15913C65.8459 8.33453 64.6821 8.54452 63.7335 8.86893C62.6815 9.22709 61.9945 9.80773 62.0563 9.89522C62.1161 9.99427 62.8844 9.61231 63.8834 9.42379C64.4541 9.32488 65.4827 9.12818 65.7529 9.59934C65.9944 10.0218 65.3139 10.6557 64.8855 10.9475C64.2082 11.407 63.8346 11.4142 63.8879 11.7111C63.9063 11.8163 63.9342 11.9338 64.3526 11.8998C64.6354 11.8668 64.948 11.7712 65.3312 11.552C65.5121 11.9532 65.8996 12.2464 66.3764 12.2725C66.8838 12.2952 67.1992 12.0123 67.2533 11.9893C67.2633 11.9733 67.2593 12.0019 67.2587 12.0119C67.2587 12.0119 67.2614 12.0154 67.2561 12.0112C68.1139 12.999 69.9833 12.4708 70.1297 10.2804C70.1477 9.95981 70.1487 9.64188 70.0979 9.2991ZM49.4946 35.1819C50.5587 38.4795 50.7634 41.6793 50.4917 45.1337C50.3416 47.1126 50.0135 48.6808 49.7598 50.3973C47.8518 50.4476 46.1213 50.6296 43.9667 51.1606C43.5928 47.8712 42.8623 44.671 41.7515 41.3802C41.87 41.3108 47.2561 37.6161 49.4946 35.1819ZM43.9055 60.88C43.8893 60.8638 43.8676 60.8476 43.846 60.8314C44.2146 58.9602 44.4184 55.67 44.0323 51.7894C46.1289 51.263 47.7948 51.0673 49.6747 50.9697C48.956 55.7675 48.8027 56.0134 48.3017 58.2683C46.9715 59.247 45.5169 60.1609 43.9055 60.88ZM43.5648 60.6097C41.1537 58.8014 39.0714 57.3371 36.4446 54.893C38.46 53.7132 40.6512 52.7041 43.4498 51.9404C43.7348 54.6296 43.82 57.1896 43.5648 60.6097ZM41.1995 41.6996C42.2415 44.8434 42.9779 47.9327 43.3812 51.3119C40.3688 52.1205 38.0159 53.2884 36.0435 54.5113C33.3124 51.9167 31.1253 49.3164 29.2139 46.0035C33.388 45.2023 37.326 43.8816 41.1995 41.6996ZM28.5709 46.1245C30.268 49.1324 32.3406 51.8448 35.5113 54.8386C33.7207 56.0019 32.1481 57.2768 30.6778 58.8483C25.7349 56.3325 21.3985 51.8075 18.7854 46.8134C22.0296 46.9164 25.2847 46.7073 28.5709 46.1245ZM18.623 22.4254C16.5462 25.8926 15.8009 29.3378 15.5663 33.3064C14.271 33.1675 13.2548 32.9872 11.984 32.7054C13.4052 28.4688 15.529 25.21 18.623 22.4254ZM11.9447 32.8314C12.6454 33.0641 13.9657 33.3962 15.5486 33.6201C15.2617 39.2912 16.2165 42.8723 17.9369 46.4412C15.2312 46.374 13.4848 46.1767 11.8153 45.9924C11.4427 44.6584 11.1808 43.3083 11.0284 41.9649C10.6583 37.2411 11.4934 34.6169 11.9447 32.8314ZM11.8487 46.1136C13.9021 46.4928 16.1337 46.6987 18.1083 46.7878C20.8958 52.3659 25.4998 56.886 30.2553 59.3092C29.231 60.4524 29.1735 60.6064 28.5966 61.4022C28.3929 61.6952 28.2887 61.8624 28.3061 61.8751C28.3763 61.9268 29.0728 60.9379 30.5417 59.4513C33.5531 60.9381 36.8378 61.8632 39.9171 62.2577C28.3116 65.2332 15.4178 58.6472 11.8487 46.1136ZM40.8852 61.9889C37.3766 61.4293 34.1536 60.5602 30.9916 59.0046C32.3163 57.7119 33.8209 56.4875 35.9059 55.2094C38.7613 57.8454 42.2016 60.2228 43.5486 60.999V61.0369C43.5432 61.0423 43.5324 61.0423 43.527 61.0477C42.675 61.3982 41.7925 61.716 40.8852 61.9889ZM57.5297 36.35C56.9205 36.9422 56.488 37.241 55.8289 37.7106C56.0266 37.4552 55.6546 37.5749 55.3346 37.5447C54.6785 37.5069 54.2466 37.077 54.1251 37.0333C54.031 36.9883 53.9568 37.0178 53.8814 37.0595C53.365 37.345 54.5515 38.4369 55.5783 37.9045C55.1398 38.3142 57.5977 37.5534 59.0021 35.6229C59.1128 36.6229 59.6195 37.8004 60.5664 38.7472C59.677 38.7115 58.6641 38.9163 57.9303 39.1733C57.908 39.0401 57.8977 39.0614 57.8858 39.1882C57.5555 39.3064 57.2308 39.428 56.8695 39.6149C56.9213 39.5422 56.9556 39.4829 56.9379 39.454C56.8966 39.3823 56.5362 39.5009 56.1727 39.7976C55.4277 40.3818 55.0322 41.4198 55.1461 42.0113C55.1898 42.1823 55.2679 42.1894 55.3541 42.1937C55.6561 42.2087 55.5918 41.9153 55.9163 41.1331C56.1265 40.6225 56.3829 40.2338 56.6411 39.9089C56.8734 39.8763 57.3212 39.7609 57.8513 39.6493C57.8433 39.7579 57.6825 41.7757 57.6782 41.8298C57.424 43.5709 57.0184 46.1341 55.7153 49.0108C54.0476 52.7473 51.0761 56.2406 48.7127 57.9601C49.4449 55.8242 49.8587 53.3529 50.2513 50.9398C52.1948 50.8393 54.0564 51.1652 54.0922 50.8921C54.1034 50.8065 54.0614 50.7234 52.6675 50.5257C52.2782 50.4559 51.7493 50.4397 50.4511 50.3791C50.4161 50.38 50.3771 50.381 50.3415 50.382C50.8598 47.1458 51.689 43.3489 50.9135 38.4231C50.7382 37.2726 50.4231 35.9887 49.9646 34.6604C52.0704 32.2705 53.6158 29.664 54.285 27.9453C56.7425 31.9556 57.0724 35.2602 57.5297 36.35ZM11.8773 63.2599C11.8863 63.6277 12.6477 63.4995 13.5761 64.1099C13.8575 64.2923 14.2325 64.6371 14.1284 64.9542C13.9582 65.4705 12.9102 65.4839 12.3321 65.5016C11.3156 65.5175 10.4863 65.2976 10.4476 65.4066C10.4046 65.5047 11.1942 65.9356 12.2967 66.0752C13.2961 66.2033 14.473 66.1754 14.8668 65.2522C15.0203 64.8959 14.9455 64.509 14.8213 64.2722C14.1409 62.9647 11.8605 62.6761 11.8773 63.2599Z" fill="white"/>
<path d="M19.337 62.6148C18.8239 62.1355 17.2821 60.8038 16.819 60.5042C15.5737 59.7298 14.0957 59.4493 13.191 59.5459C12.9272 59.2558 12.6297 59.3575 12.2796 59.4624C11.6112 59.6745 11.0331 60.0212 10.5052 60.4702C10.362 60.3032 6.77478 56.4984 6.7186 56.4223C6.52245 56.1621 6.41057 55.8326 6.49965 55.517C7.80432 52.1198 9.10271 48.7814 9.85571 45.1922C10.0313 44.3645 10.1021 43.845 10.0633 43.8361C9.90172 43.7984 9.53543 46.138 7.20964 52.0179C5.8727 55.3829 5.94295 55.1921 5.89604 55.3516C5.74098 55.9074 5.94914 56.4466 6.22179 56.7976C6.26788 56.8583 9.21856 59.9842 10.245 60.705C8.72409 62.1769 8.54967 64.1261 8.97305 63.8681L8.99681 63.8644C8.99678 63.8644 8.99685 63.8644 8.99681 63.8644C8.99797 63.8689 9.0048 63.872 9.01645 63.8735C8.92308 64.0788 8.76806 64.6018 8.83856 65.3767C9.00931 67.649 11.2073 70.3481 12.9956 71.8108C14.5727 73.0661 15.4313 72.2123 15.3739 71.1774C15.3443 70.7165 15.2369 70.492 14.9307 69.6123C15.6447 70.3033 16.4912 71.0812 17.4015 71.1605C18.3098 71.2421 18.8806 70.5827 18.7201 69.7677C19.6317 70.0723 20.4257 69.0032 20.2028 67.9656C20.1166 67.507 19.9429 67.1481 19.7859 66.8568C20.2765 67.1829 21.1056 66.885 21.2942 66.1321C21.42 65.7101 21.3477 65.1983 21.1296 64.7694C20.7725 64.0507 19.9229 63.1635 19.337 62.6148ZM19.8392 66.6992C19.751 66.6718 19.698 66.6468 19.6595 66.6328C18.9855 65.5286 18.4191 65.1245 18.1366 64.9457C17.8323 64.7733 17.756 64.8498 17.6854 64.9346C17.6123 65.022 17.5638 65.1068 17.7501 65.3711C17.8977 65.6061 19.695 67.6152 19.5126 68.6772C19.4293 69.1889 19.0303 69.5136 18.5552 69.282C18.233 68.601 16.1995 65.9048 15.8595 66.199C15.6645 66.3668 16.1314 66.8132 17.5558 69.0136C17.7988 69.3976 18.227 70.0837 17.8317 70.3232C17.6952 70.4269 17.3128 70.3949 16.9682 70.2203C15.867 69.6886 14.2226 67.6085 14.0355 67.4258C13.6194 67.0436 13.105 67.4627 13.3276 67.9433C13.3849 68.0568 13.4488 68.1302 13.4317 68.11C13.9413 69.0897 14.1378 69.7352 14.3 70.1516C14.4344 70.5226 14.6102 70.9061 14.6273 71.2279C14.666 71.7694 14.3479 71.8428 13.897 71.6017C13.7352 71.5195 13.5883 71.41 13.4182 71.2782C11.6479 69.9196 9.48803 67.4546 9.12909 65.3368C8.98952 64.5894 9.07926 64.0676 9.09154 63.8689C9.58444 63.801 10.1417 63.3777 10.6502 63.0971C11.3984 62.7089 11.9951 62.3229 12.6285 61.5836C12.9675 61.1824 13.359 60.624 13.3705 60.098C14.7479 60.3686 15.9906 60.7569 17.0011 61.6691C17.5058 62.0924 18.1695 62.6039 18.837 63.1724C19.3563 63.6156 20.2726 64.4564 20.6231 65.041C21.2416 66.0433 20.5916 66.9208 19.8392 66.6992ZM6.11419 40.2829C6.29881 40.2786 6.02967 37.3154 7.2665 32.9713C8.81185 27.4516 11.3664 24.8513 10.982 24.5713C10.6999 24.3657 9.44851 26.3717 9.27032 26.6739C7.09469 30.2697 5.87478 34.7079 5.98462 39.1076C6.0194 39.8368 6.07343 40.2845 6.11419 40.2829ZM5.50408 28.7071C5.34414 28.6417 5.19948 28.6252 4.48342 30.3756C4.09107 31.3348 3.37867 33.4461 3.53864 33.5116C3.69858 33.577 4.67033 31.5717 5.06268 30.6126C5.77874 28.8622 5.66405 28.7726 5.50408 28.7071Z" fill="white"/>
</svg>
