<svg width="84" height="84" viewBox="0 0 84 84" fill="none" xmlns="http://www.w3.org/2000/svg">
<path d="M57.4227 25.3313C57.3571 25.0031 57.0946 24.7406 56.7008 24.6094C56.1758 24.4125 55.5852 24.2156 55.0602 24.0188C53.9446 23.625 52.7633 23.2313 51.6477 22.8375C51.254 22.7063 50.8602 22.7719 50.5977 22.9688C50.3352 23.1656 50.204 23.5594 50.3352 23.9531C50.3352 24.0844 50.4008 24.2156 50.4008 24.4125C50.4008 24.5438 50.4665 24.675 50.4665 24.8063C50.4665 24.9375 50.5321 25.0688 50.5321 25.2L50.6633 25.725L50.1383 25.5938H49.8102C44.954 24.9375 41.0821 21.2625 40.1633 16.4719C39.9665 15.6188 39.9008 14.7 39.9665 13.8469C40.0977 10.6969 41.4102 7.8094 43.7727 5.7094C45.8071 3.8719 48.3665 2.75627 51.1227 2.69065C51.8446 2.69065 52.5008 2.69065 53.2227 2.8219C53.5508 2.88752 53.879 2.95315 54.1415 3.01877C54.6008 3.15002 55.0602 2.88752 55.2571 2.42815C55.454 1.90315 55.1258 1.2469 54.6008 1.18127C53.879 0.984398 53.1571 0.918773 52.3696 0.918773C50.0071 0.853148 47.8415 1.18127 46.004 2.0344C45.0196 2.49377 44.0352 3.0844 43.2477 3.80627C42.7227 4.20002 42.1977 4.72502 41.7383 5.1844C38.654 8.66252 37.4727 12.5344 38.2602 16.6031C38.4571 17.5875 38.7196 18.5719 39.179 19.5563C40.754 23.4938 43.7727 26.0531 48.0383 27.2344C48.629 27.3656 49.2196 27.4969 49.8758 27.6281C50.204 27.6938 50.4665 27.6938 50.7946 27.7594L51.0571 27.825L51.1227 28.0875C51.1227 28.2188 51.1883 28.35 51.1883 28.4813C51.1883 28.6125 51.254 28.7438 51.254 28.9406C51.3196 29.1375 51.3196 29.3344 51.3852 29.4656C51.4508 29.8594 51.7133 30.1875 52.0415 30.2531C52.3696 30.3844 52.6977 30.2531 53.0258 29.9906C54.3383 28.8094 55.7165 27.6281 57.0946 26.4469C57.3571 26.0531 57.4883 25.6594 57.4227 25.3313ZM58.8665 2.69065C58.4727 2.49377 58.079 2.62502 57.8165 3.01877C57.6196 3.3469 57.4227 3.74065 57.1602 4.06877C57.029 4.26565 57.029 4.52815 57.0946 4.72502C57.1602 4.85627 57.2258 4.98752 57.3571 5.11877C57.3571 5.11877 57.4227 5.1844 57.4883 5.1844C57.4883 5.25002 57.6196 5.25002 57.7508 5.25002C58.0133 5.25002 58.2758 5.11877 58.4071 4.85627L59.0633 3.80627C59.2602 3.41252 59.1946 3.01877 58.9321 2.8219C58.9321 2.75627 58.8665 2.75627 58.8665 2.69065ZM60.179 7.8094C60.3102 7.94065 60.4415 7.94065 60.6383 7.94065C60.8352 7.94065 61.0321 7.87502 61.1633 7.74377L62.0821 6.95627C62.4758 6.62815 62.4758 6.2344 62.2133 5.84065L62.0821 5.7094C61.8196 5.51252 61.4258 5.51252 61.0977 5.77502C60.7696 6.03752 60.4415 6.30002 60.179 6.56252C59.9821 6.69377 59.9165 6.89065 59.8508 7.15315C59.8508 7.35002 59.9165 7.5469 60.0477 7.67815L60.179 7.8094ZM61.754 10.5C61.6883 10.6969 61.6883 10.8938 61.754 11.0906C61.8196 11.2219 61.8852 11.2875 61.9508 11.4188C62.0821 11.55 62.2133 11.55 62.4102 11.55C62.5415 11.55 62.6071 11.55 62.7383 11.4844L63.9196 11.025C64.379 10.8281 64.5758 10.4344 64.4446 10.0406C64.379 9.9094 64.3133 9.77815 64.1821 9.71252C63.9852 9.58127 63.7227 9.51565 63.3946 9.6469C63.0008 9.77815 62.6071 9.9094 62.2133 10.1063C62.0165 10.1719 61.8852 10.3031 61.754 10.5ZM64.7727 14.1094C64.6415 13.9781 64.4446 13.9125 64.2477 13.9125H63.0008C62.7383 13.9125 62.5415 13.9781 62.4102 14.175C62.279 14.3063 62.2133 14.5031 62.2133 14.7C62.2133 14.8969 62.3446 15.0938 62.4758 15.225C62.6071 15.3563 62.804 15.4219 63.0008 15.4219H64.2477C64.7071 15.4219 65.0352 15.0938 65.0352 14.6344C65.1008 14.5031 64.9696 14.2406 64.7727 14.1094ZM63.5915 18.3094L62.4102 17.9156C62.2133 17.85 61.9508 17.85 61.754 17.9813C61.5571 18.0469 61.4258 18.2438 61.4258 18.4406C61.3602 18.7688 61.4258 19.0313 61.6883 19.2281C61.754 19.2938 61.8852 19.3594 61.9508 19.3594L63.1321 19.7531C63.2633 19.7531 63.329 19.8188 63.4602 19.8188C63.7883 19.8188 64.0508 19.6219 64.1821 19.2938C64.3133 18.9656 64.1821 18.7031 63.9196 18.5063C63.7883 18.4406 63.7227 18.375 63.5915 18.3094ZM60.5727 21.4594C60.3758 21.3281 60.179 21.2625 59.9821 21.2625C59.7852 21.2625 59.5883 21.3938 59.5227 21.525C59.2602 21.8531 59.3258 22.3125 59.7196 22.575L59.7852 22.6406L59.9165 22.4438L59.7196 22.7063L60.5727 23.3625C60.7696 23.4938 60.9008 23.5594 61.0977 23.5594C61.2946 23.5594 61.4915 23.4281 61.6883 23.2969C61.9508 22.9688 61.8852 22.5094 61.4915 22.1813C61.229 21.9844 60.9008 21.7219 60.5727 21.4594Z" fill="#52CC99"/>
<path d="M58.3391 12.7312C58.3391 13.0593 58.1422 13.3874 57.8141 13.453L53.1547 14.8968C52.8266 15.7499 51.9734 16.2749 51.0547 16.2749C49.8078 16.2749 48.7578 15.2249 48.7578 13.978C48.7578 12.7312 49.8078 11.6812 51.0547 11.6812C51.7109 11.6812 52.3672 12.0093 52.7609 12.4687L57.5516 12.1405C57.9453 12.0749 58.2734 12.3374 58.3391 12.7312ZM80.3234 25.1343C80.1922 24.6749 79.9297 24.2812 79.5359 24.0187C79.1422 23.7562 78.6828 23.6905 78.2234 23.8218C77.7641 23.953 77.3703 24.2155 77.1078 24.6093L69.9547 36.2905H54.9266C53.9422 36.2905 53.1547 37.078 53.1547 38.0624C53.1547 39.0468 53.9422 39.8343 54.9266 39.8343H71.8578L80.0609 26.4468C80.3234 26.053 80.3891 25.5937 80.3234 25.1343Z" fill="#52CC99"/>
<path d="M27.6953 15.6845C27.6953 19.7532 24.6766 22.772 20.6734 22.772C16.6703 22.772 13.5859 19.7532 13.5859 15.8157C13.5859 11.8782 16.7359 8.6626 20.6078 8.6626C24.4797 8.6626 27.6953 11.8126 27.6953 15.6845Z" fill="#0A8D12"/>
<path d="M25.1963 74.2217C26.9681 74.2217 28.74 74.156 30.4463 74.0248C32.0869 73.9592 33.5963 73.8935 35.04 73.8935C36.8119 73.8935 38.2556 72.4498 38.2556 70.6779C38.2556 68.906 36.8119 67.4623 35.04 67.4623C33.3994 67.4623 31.7588 67.5279 30.1181 67.6592C26.5088 67.856 22.8338 68.0529 19.7494 67.331C17.2556 66.7404 14.9588 65.231 13.3838 62.9342C11.94 60.8998 11.6119 58.5373 11.2181 55.6498C11.1525 55.1904 11.0869 54.7967 11.0213 54.3373L8.85565 40.0967C8.59315 38.3248 6.95252 37.0779 5.18065 37.406C3.40877 37.6685 2.1619 39.3092 2.49002 41.081L4.59002 55.1904C4.65565 55.5842 4.72127 56.0435 4.7869 56.4373C5.24627 59.7842 5.77127 63.2623 8.13377 66.6092C10.6275 70.1529 14.3025 72.6467 18.3713 73.5654C20.6025 74.0248 22.8994 74.2217 25.1963 74.2217Z" fill="#52CC99"/>
<path d="M51.3853 78.3563C50.9915 76.3219 50.5978 74.3531 50.204 72.3187C49.2853 67.5938 48.4321 62.8031 47.579 58.0781C47.1852 55.7812 45.9384 54.5344 43.6415 54.2719C43.1821 54.2062 42.329 54.1406 41.279 54.075C37.079 53.8125 29.4665 53.4188 29.4665 53.4188V53.0906L28.5477 40.0969C28.4821 39.5062 28.4821 38.9156 28.4165 38.3906C28.4165 37.9969 28.3509 37.6688 28.3509 37.3406C28.5477 37.4063 28.7446 37.5375 28.9415 37.6688C30.1884 38.3906 31.3696 38.9812 32.6165 39.5719C33.4696 39.9656 34.3228 40.1625 35.0446 40.2281C36.554 40.2281 38.129 40.2938 40.1634 40.2938H45.6759C47.9727 40.2938 49.7446 38.6531 49.679 36.5531C49.679 34.4531 47.9071 32.8125 45.6103 32.8125H36.6853C36.0946 32.8125 35.4384 32.6156 34.9134 32.2875C32.6821 30.975 30.3852 29.5969 27.9571 28.0875C26.5134 27.2344 24.6102 26.25 21.329 26.25H20.4759C16.6696 26.7094 14.0446 29.9906 14.3071 33.9281C14.7009 40.2281 15.7509 49.4156 15.8165 55.7156C15.8821 61.6219 19.0977 64.3125 24.9384 64.3125C30.254 64.2469 34.9134 64.3125 40.229 64.3125C40.2946 64.575 40.4259 64.8375 40.4915 65.1C41.4102 68.1187 41.8696 71.0719 42.6571 73.8937C43.2477 76.0594 43.6415 78.225 44.3634 80.325C45.0852 82.3594 46.5946 83.8687 48.8915 83.1469C50.9915 82.3594 51.9103 80.7844 51.3853 78.3563Z" fill="#0A8D12"/>
<path d="M78.6165 42.9189H40.4227C38.8477 42.9189 37.4696 44.0346 37.3383 45.6096C37.1415 47.3814 38.5852 48.8908 40.2915 48.8908H55.779V78.2908C55.779 79.0127 56.3696 79.6033 57.0915 79.6033H61.6852C62.4071 79.6033 62.9977 79.0127 62.9977 78.2908V48.8908H78.354C79.929 48.8908 81.3071 47.7752 81.4383 46.2002C81.7665 44.4283 80.3227 42.9189 78.6165 42.9189Z" fill="#52CC99"/>
</svg>
