<svg width="32" height="32" viewBox="0 0 32 32" fill="none" xmlns="http://www.w3.org/2000/svg">
<g clip-path="url(#clip0_536_5866)">
<path d="M26.8493 5.29912C25.5691 2.18698 22.5259 0 18.9781 0H8.52212C3.81624 0 0 3.85117 0 8.60012V19.1518C0 22.4036 1.78742 25.231 4.4238 26.6927C5.63892 27.3687 7.03577 27.7519 8.52212 27.7519H18.9781C20.4645 27.7519 21.864 27.3687 23.0792 26.6927C24.7662 25.7566 26.1061 24.2621 26.8493 22.4528C27.2697 21.4373 27.5003 20.3233 27.5003 19.1518V8.60012C27.5003 7.42862 27.2697 6.3146 26.8493 5.29912Z" fill="url(#paint0_linear_536_5866)"/>
<path d="M19.4066 31.9996H11.9531V29.8427H19.4066C25.173 29.8427 29.8653 25.1075 29.8653 19.2883V11.7666H32.0026V19.2883C32.0026 26.2981 26.3529 31.9996 19.4066 31.9996Z" fill="url(#paint1_linear_536_5866)"/>
<g clip-path="url(#clip1_536_5866)">
<path d="M16.2446 10.9707C16.0003 10.6332 15.6737 10.3859 15.2646 10.2287C14.8555 10.0716 14.425 9.99306 13.9732 9.99306C13.7045 9.99306 13.445 10.0222 13.1947 10.0803C12.9444 10.1385 12.7185 10.2316 12.517 10.3597C12.3155 10.4877 12.1537 10.6535 12.0315 10.8572C11.9094 11.0609 11.8484 11.3024 11.8484 11.5817C11.8484 12.0007 12.001 12.3207 12.3063 12.5419C12.6116 12.763 12.9902 12.955 13.442 13.1179C13.8938 13.2809 14.3884 13.438 14.9257 13.5893C15.463 13.7406 15.9576 13.9501 16.4094 14.2178C16.8613 14.4855 17.2398 14.8404 17.5451 15.2827C17.8504 15.7249 18.0031 16.3127 18.0031 17.0459C18.0031 17.7093 17.8748 18.2883 17.6184 18.7858C17.3619 19.2804 17.017 19.6907 16.5834 20.0166C16.1499 20.3424 15.6462 20.5868 15.0723 20.7498C14.4983 20.9127 13.8938 20.9942 13.2558 20.9942C12.4498 20.9942 11.6713 20.8662 10.9264 20.6101C10.1815 20.3541 9.54037 19.9235 9 19.3183L10.7402 17.7122C11.021 18.1195 11.3904 18.4367 11.8484 18.6636C12.3063 18.8906 12.7917 19.004 13.3046 19.004C13.5733 19.004 13.8419 18.9691 14.1106 18.8993C14.3792 18.8295 14.6235 18.7247 14.8433 18.585C15.0631 18.4454 15.2402 18.2679 15.3745 18.0526C15.5088 17.8373 15.576 17.59 15.576 17.3107C15.576 16.8568 15.4233 16.5076 15.118 16.2632C14.8128 16.0188 14.4342 15.8122 13.9824 15.6435C13.5305 15.4747 13.036 15.3147 12.4986 15.1634C11.9613 15.0121 11.4668 14.8055 11.0149 14.5436C10.5631 14.2818 10.1845 13.9326 9.87924 13.4962C9.57395 13.0598 9.4213 12.4749 9.4213 11.7388C9.4213 11.0987 9.55868 10.5459 9.83345 10.0774C10.1082 9.61191 10.4685 9.22493 10.9142 8.91652C11.3599 8.6081 11.8697 8.37825 12.4437 8.22695C13.0176 8.07565 13.6038 8 14.2022 8C14.886 8 15.5485 8.09893 16.1927 8.29678C16.8338 8.49463 17.4108 8.8205 17.9237 9.2744L16.2385 10.9678L16.2446 10.9707Z" fill="white"/>
</g>
</g>
<defs>
<linearGradient id="paint0_linear_536_5866" x1="0" y1="13.876" x2="27.5003" y2="13.876" gradientUnits="userSpaceOnUse">
<stop stop-color="#A18CD1"/>
<stop offset="1" stop-color="#FBC2EB"/>
</linearGradient>
<linearGradient id="paint1_linear_536_5866" x1="11.9531" y1="21.8831" x2="32.0026" y2="21.8831" gradientUnits="userSpaceOnUse">
<stop stop-color="#A18CD1"/>
<stop offset="1" stop-color="#FBC2EB"/>
</linearGradient>
<clipPath id="clip0_536_5866">
<rect width="32" height="32" fill="white"/>
</clipPath>
<clipPath id="clip1_536_5866">
<rect width="9" height="13" fill="white" transform="translate(9 8)"/>
</clipPath>
</defs>
</svg>
