<svg width="32" height="32" viewBox="0 0 32 32" fill="none" xmlns="http://www.w3.org/2000/svg">
<g clip-path="url(#clip0_536_5901)">
<path d="M26.8493 5.29912C25.5691 2.18698 22.5259 0 18.9781 0H8.52212C3.81624 0 0 3.85117 0 8.60012V19.1518C0 22.4036 1.78742 25.231 4.4238 26.6927C5.63892 27.3687 7.03577 27.7519 8.52212 27.7519H18.9781C20.4645 27.7519 21.864 27.3687 23.0792 26.6927C24.7662 25.7566 26.1061 24.2621 26.8493 22.4528C27.2697 21.4373 27.5003 20.3233 27.5003 19.1518V8.60012C27.5003 7.42862 27.2697 6.3146 26.8493 5.29912Z" fill="url(#paint0_linear_536_5901)"/>
<path d="M19.4066 32.0006H11.9531V29.8437H19.4066C25.173 29.8437 29.8653 25.1084 29.8653 19.2893V11.7676H32.0026V19.2893C32.0026 26.2991 26.3529 32.0006 19.4066 32.0006Z" fill="url(#paint1_linear_536_5901)"/>
<path d="M7.63226 18.1835C5.6754 18.1835 4.2689 17.5261 3.32105 16.5629L4.49822 14.9118C5.21676 15.6609 6.33278 16.2877 7.73928 16.2877C8.93174 16.2877 9.51269 15.7374 9.51269 15.1564C9.51269 13.3524 3.6421 14.5908 3.6421 10.7535C3.6421 9.05652 5.10974 7.65002 7.50996 7.65002C9.13049 7.65002 10.4758 8.13924 11.4848 9.07181L10.2771 10.6618C9.45154 9.89736 8.3508 9.54574 7.31122 9.54574C6.37865 9.54574 5.85886 9.95851 5.85886 10.57C5.85886 12.1906 11.7142 11.1051 11.7142 14.9118C11.7142 16.777 10.3841 18.1835 7.63226 18.1835ZM18.5916 18.1835C15.534 18.1835 13.1644 16.0431 13.1644 12.9091C13.1644 9.77506 15.534 7.63474 18.5916 7.63474C20.8389 7.63474 22.1384 8.85778 22.857 10.1267L20.9918 11.044C20.5638 10.2184 19.6465 9.56102 18.5916 9.56102C16.7418 9.56102 15.3964 10.9828 15.3964 12.9091C15.3964 14.8354 16.7418 16.2572 18.5916 16.2572C19.6465 16.2572 20.5638 15.6151 20.9918 14.7742L22.857 15.6762C22.1231 16.9451 20.8389 18.1835 18.5916 18.1835Z" fill="white"/>
</g>
<defs>
<linearGradient id="paint0_linear_536_5901" x1="0" y1="13.876" x2="27.5003" y2="13.876" gradientUnits="userSpaceOnUse">
<stop stop-color="#E426DC"/>
<stop offset="1" stop-color="#F67CF1"/>
</linearGradient>
<linearGradient id="paint1_linear_536_5901" x1="11.9531" y1="21.8841" x2="32.0026" y2="21.8841" gradientUnits="userSpaceOnUse">
<stop stop-color="#E426DC"/>
<stop offset="1" stop-color="#F67CF1"/>
</linearGradient>
<clipPath id="clip0_536_5901">
<rect width="32" height="32" fill="white"/>
</clipPath>
</defs>
</svg>
